<?xml version="1.0" encoding="UTF-8"?>
<!DOCTYPE svg PUBLIC "-//W3C//DTD SVG 1.1//EN" "http://www.w3.org/Graphics/SVG/1.1/DTD/svg11.dtd">
<!-- Creator: CorelDRAW X6 -->
<svg xmlns="http://www.w3.org/2000/svg" xml:space="preserve" width="2.08272in" height="1.61198in" version="1.1" style="shape-rendering:geometricPrecision; text-rendering:geometricPrecision; image-rendering:optimizeQuality; fill-rule:evenodd; clip-rule:evenodd"
viewBox="0 0 557 431"
 xmlns:xlink="http://www.w3.org/1999/xlink">
 <defs>
  <style type="text/css">
   <![CDATA[
    .fil1 {fill:black}
    .fil2 {fill:#FC6300}
    .fil0 {fill:#5CA595;fill-opacity:0.050980}
   ]]>
  </style>
 </defs>
 <g id="Layer_x0020_1">
  <metadata id="CorelCorpID_0Corel-Layer"/>
  <g id="_502652600">
   <path class="fil0" d="M197 42c109,0 360,87 360,189 0,102 -251,182 -360,182 -109,0 -197,-83 -197,-186 0,-102 88,-186 197,-186z"/>
   <path class="fil0" d="M276 0c104,0 185,143 185,227 0,84 -26,204 -129,204 -104,0 -238,-74 -235,-193 3,-119 76,-238 179,-238z"/>
  </g>
  <path class="fil1" d="M362 146c3,3 4,6 4,10l0 50c0,4 -2,7 -4,10 -3,3 -6,4 -10,4l-58 0 0 0 -1 0 0 0 -1 0 0 0c-2,0 -4,0 -5,1 -1,1 -2,2 -4,3 0,0 0,0 -1,1l0 0c0,0 0,0 -1,1l0 0 -9 8 -2 2 0 -3 0 -42 0 -35c0,-4 2,-7 4,-10 3,-3 6,-4 10,-4l69 0c4,0 7,2 10,4zm-99 40l0 -30c0,-6 2,-11 6,-14 4,-4 9,-6 14,-6l69 0c6,0 11,2 14,6 4,4 6,9 6,14l0 50c0,6 -2,11 -6,14 -4,4 -9,6 -14,6l-58 0 0 0 -2 0 0 0c0,0 -1,0 -1,0 0,0 -1,0 -1,0l0 0c0,0 -1,0 -1,0l-1 0c0,0 -1,0 -1,1l0 0c0,0 -1,1 -1,1l-1 1 0 0 -16 15c0,0 -1,1 -2,1 -1,0 -1,0 -2,0 -1,0 -1,-1 -1,-1 0,0 -1,-1 -1,-2l0 -47c0,-2 0,-7 0,-9z"/>
  <path class="fil2" d="M324 184c3,-2 6,-5 6,-10 0,-3 -1,-6 -4,-8 -2,-2 -5,-4 -8,-4 -3,0 -6,1 -8,4l0 0c-2,2 -4,5 -4,8 0,1 0,2 1,2l0 0c1,1 1,1 2,1 1,0 2,0 2,-1 1,-1 1,-1 1,-2 0,-2 1,-3 2,-4 1,-1 3,-2 4,-2 2,0 3,1 4,2 1,1 2,3 2,4 0,1 0,2 -1,3 -1,1 -2,2 -3,3l0 0 0 0c-3,2 -6,5 -6,9l0 0c0,1 0,2 1,2 1,1 1,1 2,1l0 0 0 0 0 0c1,0 2,0 2,-1l0 0c1,-1 1,-1 1,-2l0 0 0 0c0,-1 2,-3 3,-4l0 0 0 0 0 0zm-7 14c-1,0 -2,0 -2,1 -1,1 -1,1 -1,2l0 0c0,1 0,2 1,2 1,1 1,1 2,1 1,0 2,0 2,-1 1,-1 1,-1 1,-2 0,-1 0,-2 -1,-2 -1,-1 -1,-1 -2,-1z"/>
  <path class="fil1" d="M252 185l-47 0c-6,0 -11,2 -14,6 -4,4 -6,9 -6,14l0 50c0,6 2,11 6,14 4,4 9,6 14,6l63 0 1 0 20 18c0,0 1,0 1,1l0 0c0,0 1,0 1,0 0,0 0,0 1,0l0 0c0,0 0,0 1,0 1,0 1,-1 1,-1 0,0 0,-1 0,-2l0 -53c0,-1 0,-2 -1,-2 -1,-1 -1,-1 -2,-1 -1,0 -2,0 -2,1l0 0c-1,1 -1,1 -1,2l0 43 0 3 -2 -2 -13 -12c0,0 -1,-1 -1,-1l0 0c0,0 -1,0 -1,0l-65 0c-4,0 -7,-2 -10,-4 -3,-3 -4,-6 -4,-10l0 -50c0,-4 2,-7 4,-10 3,-3 6,-4 10,-4l47 0c4,0 3,-6 0,-6z"/>
  <path class="fil2" d="M217 226c-1,0 -2,0 -2,1 -1,1 -1,1 -1,2 0,1 0,2 1,2l0 0c1,1 1,1 2,1l0 0c1,0 2,0 2,-1l0 0c1,-1 1,-1 1,-2 0,-1 0,-2 -1,-2 -1,-1 -1,-1 -2,-1l0 0zm16 0c-1,0 -2,0 -2,1 -1,1 -1,1 -1,2 0,1 0,2 1,2l0 0c1,1 1,1 2,1l0 0c1,0 2,0 2,-1l0 0c1,-1 1,-1 1,-2 0,-1 0,-2 -1,-2 -1,-1 -1,-1 -2,-1l0 0z"/>
 </g>
</svg>
