<?xml version="1.0" encoding="UTF-8"?>
<!DOCTYPE svg PUBLIC "-//W3C//DTD SVG 1.1//EN" "http://www.w3.org/Graphics/SVG/1.1/DTD/svg11.dtd">
<!-- Creator: CorelDRAW X6 -->
<svg xmlns="http://www.w3.org/2000/svg" xml:space="preserve" width="19.6983in" height="7.21013in" version="1.1" style="shape-rendering:geometricPrecision; text-rendering:geometricPrecision; image-rendering:optimizeQuality; fill-rule:evenodd; clip-rule:evenodd"
viewBox="0 0 19545 7154"
 xmlns:xlink="http://www.w3.org/1999/xlink">
 <defs>
  <style type="text/css">
   <![CDATA[
    .fil0 {fill:#F1F1F2}
    .fil13 {fill:#13B6B3;fill-rule:nonzero}
    .fil21 {fill:#373435;fill-rule:nonzero}
    .fil11 {fill:#F58634;fill-rule:nonzero}
    .fil12 {fill:#006BB3;fill-rule:nonzero}
    .fil17 {fill:#00C953;fill-rule:nonzero}
    .fil18 {fill:#4A75BA;fill-rule:nonzero}
    .fil14 {fill:#BF0EE0;fill-rule:nonzero}
    .fil15 {fill:#D90000;fill-rule:nonzero}
    .fil20 {fill:#DB3162;fill-rule:nonzero}
    .fil16 {fill:#E01684;fill-rule:nonzero}
    .fil22 {fill:#FC6300;fill-rule:nonzero}
    .fil19 {fill:#116439;fill-rule:nonzero}
    .fil3 {fill:#13B6B3;fill-opacity:0.050980}
    .fil1 {fill:#F58634;fill-opacity:0.050980}
    .fil2 {fill:#006BB3;fill-opacity:0.050980}
    .fil7 {fill:#00C953;fill-opacity:0.050980}
    .fil8 {fill:#4A75BA;fill-opacity:0.050980}
    .fil4 {fill:#BF0EE0;fill-opacity:0.050980}
    .fil5 {fill:#D90000;fill-opacity:0.050980}
    .fil10 {fill:#DB3162;fill-opacity:0.050980}
    .fil6 {fill:#E01684;fill-opacity:0.050980}
    .fil9 {fill:#116439;fill-opacity:0.050980}
   ]]>
  </style>
 </defs>
 <g id="Layer_x0020_1">
  <metadata id="CorelCorpID_0Corel-Layer"/>
  <path class="fil0" d="M12505 2487c-96,-49 -59,10 -29,-88l65 0 -37 88zm-10029 -266l-33 -22 0 -22c89,16 127,41 163,133l-42 11c-28,6 6,-7 -56,11 0,114 -17,332 27,404 71,116 364,309 398,350 91,109 163,360 389,401 -93,-95 -251,-254 -293,-378 124,23 135,87 222,182 69,76 139,129 203,195 139,143 -39,113 190,204 118,47 195,91 364,107 236,23 161,40 348,96 240,72 119,54 255,159 265,205 342,-40 422,134 90,198 -170,215 -170,423 0,132 -17,104 40,199 53,89 96,162 140,239 72,124 98,119 240,192 125,64 149,91 117,242 -44,201 15,343 -123,606 -38,72 -64,213 -64,311 -97,25 -51,-48 -65,67l65 0 0 -67c43,47 33,127 33,178 -125,35 -85,-49 -130,67 114,21 73,8 130,67 -62,63 -46,68 -130,44l24 107c3,74 -50,-14 52,41 32,18 27,15 53,29 50,27 81,45 132,68l261 -289c-43,-110 -61,-15 -65,-156 76,-14 107,-39 135,-124 33,-102 -27,-50 88,-123 228,-143 157,-37 363,-131 -14,-114 -25,-30 -65,-133 138,22 153,23 254,-48 325,-229 31,-357 468,-481 152,-43 276,-38 286,-338 9,-255 463,-345 67,-511 -114,-48 -110,-25 -253,-50 -148,-25 -120,-66 -213,-77 -142,-17 -58,32 -219,61 48,-49 86,-49 75,-84 -18,-57 -26,-3 -140,18 26,-67 0,-49 98,-67 -10,-25 -83,-136 -101,-153 -133,-126 -327,-2 -551,-291 -129,2 -158,34 -298,-17 -81,-30 -38,1 -92,-50 -72,34 -40,4 -65,67l-65 0c37,-107 22,-35 0,-67l-117 54c-6,3 -15,6 -20,8 -72,36 -59,-2 -91,93 -124,-20 -19,-10 -95,-22 -280,-43 -247,94 -295,-201 -31,-190 -276,-1 -246,-162 13,-69 62,-88 41,-146 -17,-48 -57,-54 -135,-16 -71,34 -107,160 -291,113 -139,-35 -162,-196 -143,-290 52,-254 182,-164 479,-164l0 -67c53,0 106,-2 158,4 138,15 181,65 233,219l98 0c-124,-362 -131,-207 128,-446 87,-80 67,-42 67,-176l39 -13c77,-41 44,-68 169,-114 97,-36 25,39 89,-37 41,-49 -78,-41 71,-118 51,-26 175,-48 251,-52 -52,53 -39,23 -65,89 123,-44 150,-31 228,-111 93,-15 49,3 98,-44 -95,16 -47,-3 -98,44 -123,-30 0,1 -91,-29 -244,-80 -104,-67 -40,-127 -315,0 -132,31 -326,67 112,-114 135,-119 381,-140 250,-22 357,-21 401,-149 -135,-62 -27,-25 -228,-22l130 -67c-74,-13 -82,-20 -134,-42 -126,-51 -189,-145 -224,-247 -158,29 -60,59 -203,66 -153,8 -99,-30 -110,-94 -19,-102 -263,-151 -364,-125 -138,35 -97,215 -64,302 33,88 -70,207 -74,340 -130,-7 -106,-9 -163,-67l65 0c-23,-65 4,-32 -65,-67l0 67 -19 -32c-1,-4 -6,-12 -7,-17l-7 -107c-173,0 -348,-57 -454,-112l-94 -69c-5,-3 -12,-8 -16,-11l-87 -52c87,-254 420,-288 423,-289 -32,-54 -151,-61 -50,-78 167,-28 48,99 115,147 81,58 64,3 69,3l192 -27c-46,-117 -151,-54 -261,-156 281,-16 254,-65 225,-137 -34,-86 -53,-83 -192,-85 -3,89 -15,82 -65,133 -84,-42 -69,-50 -98,-133 -110,20 -108,65 -186,-3 -94,-83 15,-59 -140,-130 -124,56 -141,63 -33,133 -144,-2 -147,-36 -198,0 -46,32 18,66 3,89 -373,59 -230,-44 -554,-44 45,85 39,15 39,65 0,35 -21,45 -39,68 -72,-34 -40,-4 -65,-67l-293 0c22,-71 33,-35 0,-89 -249,0 -259,-29 -487,-48 -261,-21 -195,-2 -393,70 -22,-33 -1,3 0,-29l0 -38c-95,34 -82,45 -163,22l38 133c-104,-48 -34,-155 -852,-199 -180,-10 -318,-71 -490,-24 -144,40 -226,109 -390,135 32,81 148,115 261,133l-326 89c107,26 24,-29 98,67 156,0 135,-15 261,-22 -122,157 -101,41 -261,156 49,144 299,200 456,178 -23,68 -28,86 -110,125l-183 75c195,-11 426,-119 510,-230 65,-86 12,-80 141,-103l-37 88c197,-10 67,-22 199,-88 255,116 580,85 716,198 82,68 76,44 137,86 124,86 4,75 135,198l67 61c2,2 6,8 9,10l77 47 -98 0 0 22 98 0 33 22 33 22 0 22 38 -19 -38 -4zm2541 1178l18 48 -18 -48c-21,-54 14,-30 -65,-44 22,58 -12,25 65,44zm10750 555l-37 43 37 -43 63 24 2 -69 -65 44zm-6938 -2977l-70 12 70 -12zm-8176 2555l-64 -26 64 26c36,66 -70,35 98,44 -50,-49 -5,-28 -98,-44zm11857 -3244l-37 43 37 -43c114,-21 73,-8 130,-67l-65 0 -65 -44 -59 -49 -72 93 99 -22c5,-2 13,-9 17,-11 4,-2 10,-8 15,-12l0 44 65 0c-6,4 -15,3 -17,10 -2,7 -13,9 -16,12 -27,29 2,-19 -32,45zm-7395 3110l-18 -48 18 48 0 44 -37 43c177,1 53,1 103,-21l-65 -22c108,0 8,-40 0,-44zm13193 1844l-64 -26 64 26 0 0zm-2150 -400l37 -43 -37 43c-167,9 -44,17 -195,44l-18 -48 18 48c-27,32 -16,24 -33,67 94,-5 80,-2 147,-33 89,-41 58,-18 81,-78zm1759 44l-70 12 70 -12 65 0c-23,-65 4,-32 -65,-67l0 67zm-3616 -4421l-70 12 70 -12zm2932 1977l-70 12 70 -12 98 0c-73,-69 -25,-69 -98,0zm-1498 2466l-37 43 37 -43 98 0 0 -44c-170,10 -59,-21 -98,44zm-12085 -4288l-18 -48 18 48c21,54 -14,30 65,44l-65 -44zm4821 2644l10 -7c-1,0 -13,4 -10,7zm8893 1311l10 -7c-1,0 -13,4 -10,7zm-7460 -1644l10 -7c-1,0 -13,4 -10,7zm4756 1711l10 -7c-1,0 -13,4 -10,7zm-11108 1022l10 -7c-1,0 -13,4 -10,7zm7036 -2733l10 -7c-1,0 -13,4 -10,7zm5668 333l10 -7c-1,0 -13,4 -10,7zm-1661 1311l10 -7c-1,0 -13,4 -10,7zm3388 378l10 -7c-1,0 -13,4 -10,7zm-12444 -3333l10 -7c-1,0 -13,4 -10,7zm4789 0l10 -7c-1,0 -13,4 -10,7zm7753 2666l10 -7c-1,0 -13,4 -10,7zm-847 2022l10 -7c-1,0 -13,4 -10,7zm-1368 -2288l10 -7c-1,0 -13,4 -10,7zm-4430 844l10 -7c-1,0 -13,4 -10,7zm4756 -467l10 -7c-1,0 -13,4 -10,7zm-10294 -578l10 -7c-1,0 -13,4 -10,7zm10163 244l10 -7c-1,0 -13,4 -10,7zm-1596 -3533l10 -7c-1,0 -13,4 -10,7zm-6548 3333l10 -7c-1,0 -13,4 -10,7zm-3616 667l10 -7c-1,0 -13,4 -10,7zm-3160 755c3,2 10,-10 10,-7l0 0c-1,0 -13,4 -10,7zm814 222c3,2 10,-10 10,-7l0 0c-1,0 -13,4 -10,7zm-130 -89c3,2 10,-10 10,-7l0 0c-1,0 -13,4 -10,7zm15375 -844l1 10c30,-2 -46,42 10,-2l-11 -8zm-6841 -1777l1 10c30,-2 -46,42 10,-2l-11 -7zm2834 1400l1 10c30,-2 -46,42 10,-2 0,0 4,-4 4,-4 0,0 0,-3 0,-3l-14 -1zm-10750 -2022l-33 0 0 -22 33 22zm5701 -1400l0 22 38 -19 -38 -4 -35 -43c62,-21 44,-18 133,-23 -58,-59 -74,-34 -93,-84 -39,-105 112,58 -16,-45l-33 -18c-3,-2 -14,-6 -21,-9l195 0c-76,-71 -54,-18 -130,-89 54,-138 217,-79 65,-178 145,0 314,-39 391,-111l-261 0c-21,-54 14,-30 -65,-44 22,58 -12,25 65,44 -7,3 -19,0 -22,6 -3,6 -18,4 -22,5 -129,15 -245,-6 -379,-11 -285,-11 -265,55 -488,67l313 -97c175,-29 280,5 371,-80 -336,53 -111,-36 -339,-32 -171,3 -288,32 -442,32l61 -25c46,-23 4,19 69,-42 -178,0 -372,18 -487,17 -228,-2 -288,-50 -327,49 148,-24 85,-50 163,22 -102,33 -60,18 -196,22l-363 39c-419,30 -165,-38 -327,67 -144,94 -200,5 -319,116l163 0c-88,113 -107,83 -423,133 74,69 87,44 261,44l0 44c-167,3 -94,-20 -163,44 382,94 112,22 619,22 83,85 224,184 228,311 57,-41 48,-48 130,-22l-98 89c86,14 96,20 163,44l-68 188c0,21 -11,41 -11,41 0,4 -2,11 -2,15l75 137c93,121 140,119 278,166 94,32 -46,-2 86,30 72,-73 54,-20 95,-113 136,-309 192,-163 383,-272 77,-44 16,-47 120,-96 61,-28 114,-30 202,-40l438 -57c-74,-69 -87,-44 -261,-44l103 -85c115,27 49,43 157,63 -14,-112 -89,-111 -261,-111 42,-69 47,-8 -33,-89l173 -33c81,-8 81,16 185,33zm-2899 355l-33 0 27 26 5 -26c108,54 37,24 98,111 -121,7 -62,9 -90,21 -3,1 -10,6 -13,8 -3,1 -8,7 -11,8l-24 15c-145,55 -138,-51 -189,81 456,0 170,34 512,117 61,15 97,26 172,38 36,-298 -62,-115 -130,-289 122,7 153,32 228,67 127,-63 2,-35 130,-67 -52,-53 -112,-71 -216,-98 -171,-44 -150,-7 -109,-124 -315,-50 -215,-49 -195,-111 -186,61 -135,-2 -266,-42 -128,-39 -89,17 -287,20 -28,-39 -38,-72 -65,-111 -5,2 -86,27 -89,28 -5,3 -13,7 -18,10l-56 50c-30,-78 -12,-50 -98,-89 -73,26 -98,37 -163,67 11,88 18,126 106,150 187,51 695,-9 774,139zm-847 3399c-42,28 38,29 14,1 0,0 -5,-1 -5,-1 0,0 -7,-1 -9,0zm228 -800c-42,28 38,29 14,1 0,0 -5,-1 -5,-1 0,0 -7,-1 -9,0zm1303 267c21,54 -14,30 65,44l-65 -44 -59 -49c16,62 -19,29 59,49zm10717 1066c21,54 -14,30 65,44l-65 -44c-35,-90 -73,-64 -228,-89 -62,63 -101,74 -153,159l-10 19c-130,-2 -121,-10 -195,-44 -42,43 -90,76 -145,111 -96,63 -45,63 -112,112l-427 176c5,154 79,73 6,150l85 189c27,80 29,156 73,217 321,46 732,-338 1042,-22l125 -70c-44,147 -83,-18 200,270 305,-5 37,-24 293,22 151,-154 54,93 256,-270 59,-106 103,-255 103,-397 -152,-69 -240,-152 -349,-250 -115,-103 -49,-256 -237,-349 -32,45 -41,93 -58,138 -32,81 -48,82 -72,151 -101,-36 -170,-70 -261,-111l65 -111zm-2085 -622c-80,14 -44,-10 -65,44l65 -44c5,4 13,5 15,12 1,4 247,253 376,277 59,-172 68,-52 -218,-296 -151,-129 -88,-93 -303,-171 40,101 87,51 130,178zm326 -400l-72 40c91,-11 43,13 72,-40 33,30 33,-47 33,67 122,-22 170,-70 261,-111 -31,-255 -150,-244 -195,-378 19,-9 69,-37 74,-39 53,-20 23,-9 78,-17l61 -6c267,-45 645,-178 624,-407 -23,-250 -35,-89 -88,-243 80,-81 89,-42 163,-111 -141,0 -160,11 -261,-22 33,-83 70,-91 195,-111 26,35 33,-41 0,67 91,-30 63,-22 195,-22 13,103 82,90 98,222 118,-7 148,-9 120,-99 -1,-2 -86,-143 -88,-146 89,-41 163,-118 247,-143 128,-38 115,24 275,-123 137,-125 262,-270 194,-467 -141,0 -160,11 -261,-22 33,-84 257,-216 374,-257 137,-48 430,-9 635,-9 21,-53 50,-95 179,-122 66,-14 37,-10 114,-11 26,35 33,-41 0,67 151,-28 131,-63 228,-111 -40,118 -155,125 -336,238 -207,129 -111,196 -88,384 150,-68 146,-93 215,-164 91,-93 123,-79 124,-163 0,-49 -107,-151 239,-189 137,-15 99,17 221,-4 143,-24 129,-101 438,-101 -13,-107 -53,-77 -130,-156 345,20 44,10 209,-43l97 4c178,29 113,56 280,83 22,-134 72,-24 130,-133 -154,-56 -121,-64 -261,0 -10,-84 -16,-80 -114,-122 -157,-67 -514,-112 -700,-122l0 89c-147,-23 -137,-41 -327,-44 -366,-5 -117,-40 -301,-83 -113,-27 -273,18 -390,-23 -166,-58 13,-97 -285,-50l-326 -44c-16,135 -87,87 -229,80 -192,-10 -123,-9 -260,54l-54 -30c-39,-22 -19,-7 -55,-31 -193,-126 161,-35 -70,-127 -60,-24 -134,-10 -196,-3 -141,16 -468,1 -549,-22 -157,-44 80,-36 -151,-53 6,-3 18,-12 20,-8l54 -30c24,-19 41,-52 56,-73 -280,-92 -428,63 -456,-111 -83,5 -94,2 -146,34l-49 77c-139,8 -61,14 -184,30 -136,18 -148,-18 -630,59 -33,54 -22,18 0,89l-326 0c21,173 140,16 163,200 -85,-23 -16,-5 -67,-43 -88,-65 -75,-68 -291,-68 6,15 25,42 27,47 21,54 32,2 6,42 -83,-38 -102,-38 -130,-111 -140,70 -69,78 -65,200 184,10 215,76 293,156 -166,-30 -73,-50 -195,-111 -123,61 -57,76 -228,178 -109,-40 -61,-2 -130,-67 74,12 75,17 163,22 10,-86 37,-73 33,-178 -1,-34 -9,-56 -12,-81 -18,-151 75,-90 -40,-133 -95,-35 -148,29 -242,125 34,99 65,71 98,156 -238,-38 -262,-134 -489,0 -211,-48 113,3 -98,-44 -35,21 -73,49 -140,54 -123,9 3,-30 -159,-12 -134,15 -250,77 -353,114 -56,-92 103,-74 -130,-111 18,52 30,66 33,133 -277,4 -127,55 -310,96 -192,43 44,18 -113,59 -61,-62 -130,-94 -163,-178 263,42 110,38 391,22l0 -89c-143,-23 -173,-68 -512,-137 -189,-38 -116,-135 -470,-23 -71,22 -98,20 -174,38 -221,53 -11,-9 -189,116l-209 126c-124,87 -44,18 -55,92 -24,164 -62,-20 -227,113 -68,54 -189,368 207,187 53,68 82,132 130,200l194 -26c8,-185 102,-55 80,-250 -19,-166 65,-120 169,-221 79,-77 35,-78 208,-81 -72,184 -246,90 -163,333 163,0 201,-22 391,-22l0 44c-359,0 -283,-25 -261,156 -74,-12 -75,-17 -163,-22 0,143 18,143 -349,182l-238 -27c80,-14 44,10 65,-44 -85,15 -36,-8 -65,44l-98 -111 0 156c-298,17 -370,261 -717,267 27,68 252,185 130,267 -76,24 -236,0 -391,0l-11 206c8,127 252,179 427,78 116,-67 22,-59 152,-141 125,-79 55,-22 149,-143 165,0 168,-15 293,-22 218,222 336,110 358,289 220,-236 -159,-77 -195,-378 314,113 415,269 521,444l129 -46c-38,-99 -169,-132 131,-132l0 133c160,73 170,63 489,44 -111,158 65,285 -358,268 -243,-10 -452,-157 -522,20 -170,-3 -363,-88 -489,-133 0,-100 37,-152 -69,-173 -4,-1 -234,16 -284,21 -179,16 -389,97 -559,41 -153,197 -131,39 -195,222 -53,152 -7,28 -224,225 -85,77 -161,117 -169,240 -25,411 -58,266 107,441 204,216 95,353 861,238 218,-33 133,20 282,49 54,11 96,7 153,7 0,316 -23,223 142,436 179,230 56,294 11,448 -21,73 175,497 252,617 96,149 69,57 51,209 744,118 764,-302 875,-404 191,-176 70,3 70,-263 218,-100 308,-135 296,-310 -14,-205 -158,-229 18,-431 108,-124 472,-266 598,-636 -100,33 -270,44 -423,44 -108,-140 -321,-297 -348,-363 -48,-116 38,-45 -108,-237 -51,-67 -120,-133 -131,-222 109,79 22,4 96,35 45,19 -2,-14 44,24l335 438c61,69 54,154 111,235 290,-46 776,-214 847,-422 -71,-73 -129,-69 -163,-156 -85,39 -138,82 -261,89 -81,-104 -375,-448 23,-194 71,45 388,123 498,128 537,20 403,182 542,181 165,-2 -75,-40 45,-3 36,299 209,425 261,578l65 0c31,-91 38,-38 78,-213 31,-136 28,-119 154,-184 257,-133 90,-162 485,-225 295,380 18,293 326,244 3,105 84,418 168,552 33,54 58,96 158,114 0,-272 -286,-202 -195,-467 206,0 155,-5 228,89zm-4854 -2133c0,55 52,6 20,0 0,0 -20,-63 -20,0zm2215 2777c0,55 52,6 20,0 0,0 -20,-63 -20,0zm-1792 -2977c0,55 52,6 20,0 0,0 -20,-63 -20,0zm-5342 4999c0,55 52,6 20,0 0,0 -20,-63 -20,0zm-3518 -1266c0,55 52,6 20,0 0,0 -20,-63 -20,0zm16906 -1333c0,55 52,6 20,0 0,0 -20,-63 -20,0zm-1336 -1600c0,55 52,6 20,0 0,0 -20,-63 -20,0zm-7557 1911c0,55 52,6 20,0 0,0 -20,-63 -20,0zm2639 1000c0,55 52,6 20,0 0,0 -20,-63 -20,0zm4919 -1178c0,55 52,6 20,0 0,0 -20,-63 -20,0zm-11564 -289c0,55 52,6 20,0 0,0 -20,-63 -20,0zm4398 -1044c0,55 52,6 20,0 0,0 -20,-63 -20,0zm-9773 -1289c0,55 52,6 20,0 0,0 -20,-63 -20,0zm16059 2888c0,55 52,6 20,0 0,0 -20,-63 -20,0zm-4886 267c0,55 52,6 20,0 0,0 -20,-63 -20,0zm-7101 -333c0,55 52,6 20,0 0,0 -20,-63 -20,0zm9772 -3910c0,55 52,6 20,0 0,0 -20,-63 -20,0zm4137 1355c0,55 52,6 20,0 0,0 -20,-63 -20,0zm-15180 -1400c0,55 52,6 20,0 0,0 -20,-63 -20,0zm1889 5532c0,55 52,6 20,0 0,0 -20,-63 -20,0zm11076 -2155c0,55 52,6 20,0 0,0 -20,-63 -20,0zm-6222 -2488c0,55 52,6 20,0 0,0 -20,-63 -20,0zm1792 3644c0,55 52,6 20,0 0,0 -20,-63 -20,0zm-6645 -3955c0,55 52,6 20,0 0,0 -20,-63 -20,0zm3942 711c0,55 52,6 20,0 0,0 -20,-63 -20,0zm1824 -1355c0,55 52,6 20,0 0,0 -20,-63 -20,0zm-9479 4888c0,55 52,6 20,0 0,0 -20,-63 -20,0zm13812 -4866c0,55 52,6 20,0 0,0 -20,-63 -20,0zm-1661 333c0,55 52,6 20,0 0,0 -20,-63 -20,0zm-1922 3932c0,55 52,6 20,0 0,0 -20,-63 -20,0zm3648 -378c0,55 52,6 20,0 0,0 -20,-63 -20,0zm-9382 -1289c0,55 52,6 20,0 0,0 -20,-63 -20,0zm2606 22c0,55 52,6 20,0 0,0 -20,-63 -20,0zm554 -1355c0,55 52,6 20,0 0,0 -20,-63 -20,0zm5277 -1200c0,55 52,6 20,0 0,0 -20,-63 -20,0zm-8795 44c0,55 52,6 20,0 0,0 -20,-63 -20,0zm-2280 0c0,55 52,6 20,0 0,0 -20,-63 -20,0zm12444 4244c0,55 52,6 20,0 0,0 -20,-63 -20,0zm2215 -22c0,55 52,6 20,0 0,0 -20,-63 -20,0zm-456 -44c0,55 52,6 20,0 0,0 -20,-63 -20,0zm-11564 2333c0,55 52,6 20,0 0,0 -20,-63 -20,0zm12835 -2599c0,55 52,6 20,0 0,0 -20,-63 -20,0zm-7851 -1622c0,55 52,6 20,0 0,0 -20,-63 -20,0zm7525 3977c0,55 52,6 20,0 0,0 -20,-63 -20,0zm-17851 -4888c0,55 52,6 20,0 0,0 -20,-63 -20,0zm3616 -1289c0,55 52,6 20,0 0,0 -20,-63 -20,0zm12900 3577c0,55 52,6 20,0 0,0 -20,-63 -20,0zm-8535 -3533c0,55 52,6 20,0 0,0 -20,-63 -20,0zm-3062 2888c0,55 52,6 20,0 0,0 -20,-63 -20,0zm3062 -3222c0,55 52,6 20,0 0,0 -20,-63 -20,0zm6776 4221c0,55 52,6 20,0 0,0 -20,-63 -20,0zm880 22c0,55 52,6 20,0 0,0 -20,-63 -20,0zm1270 -378c0,55 52,6 20,0 0,0 -20,-63 -20,0zm-7004 -3222c0,55 52,6 20,0 0,0 -20,-63 -20,0zm8958 -67c0,55 52,6 20,0 0,0 -20,-63 -20,0zm-1726 -333c0,55 52,6 20,0 0,0 -20,-63 -20,0zm-5864 4443c0,55 52,6 20,0 0,0 -20,-63 -20,0zm-6645 -3599c0,55 52,6 20,0 0,0 -20,-63 -20,0zm98 -22c0,55 52,6 20,0 0,0 -20,-63 -20,0zm4886 -289c0,55 52,6 20,0 0,0 -20,-63 -20,0zm7525 3844c0,55 52,6 20,0 0,0 -20,-63 -20,0zm-5310 -1622c0,55 52,6 20,0 0,0 -20,-63 -20,0zm-8893 2333c0,55 52,6 20,0 0,0 -20,-63 -20,0zm12900 -2622c0,55 52,6 20,0 0,0 -20,-63 -20,0zm847 3244c0,55 52,6 20,0 0,0 -20,-63 -20,0zm456 -2155c0,55 52,6 20,0 0,0 -20,-63 -20,0zm1759 1222c0,55 52,6 20,0 0,0 -20,-63 -20,0zm-13356 -1622c0,55 52,6 20,0 0,0 -20,-63 -20,0zm5798 1333c0,55 52,6 20,0 0,0 -20,-63 -20,0zm6645 1600c0,55 52,6 20,0 0,0 -20,-63 -20,0zm423 -1888c0,55 52,6 20,0 0,0 -20,-63 -20,0zm423 622c0,55 52,6 20,0 0,0 -20,-63 -20,0zm-16906 -4466c0,55 52,6 20,0 0,0 -20,-63 -20,0zm2769 2355c0,55 52,6 20,0 0,0 -20,-63 -20,0zm7134 1911c0,55 52,6 20,0 0,0 -20,-63 -20,0zm3583 -978c0,55 52,6 20,0 0,0 -20,-63 -20,0zm-6254 333c0,55 52,6 20,0 0,0 -20,-63 -20,0zm7557 -689c0,55 52,6 20,0 0,0 -20,-63 -20,0zm-8828 -644c1,7 36,5 39,4 8,-2 57,51 14,-6l-17 -5c-25,0 -44,-39 -36,7zm10326 -1222c1,7 36,5 39,4 8,-2 57,51 14,-6 0,0 -5,-4 -5,-4 -49,-9 -55,-33 -48,6zm-12248 -955c1,7 36,5 39,4 8,-2 57,51 14,-6 0,0 -5,-4 -5,-4 -49,-9 -55,-33 -48,6zm1922 -400c1,7 36,5 39,4 8,-2 57,51 14,-6 0,0 -5,-4 -5,-4 -49,-9 -55,-33 -48,6zm7818 3932c1,7 36,5 39,4 8,-2 57,51 14,-6 0,0 -61,-41 -53,2zm-11141 -3466c1,7 36,5 39,4 8,-2 57,51 14,-6 0,0 -61,-41 -53,2zm11694 4977c1,7 36,5 39,4 8,-2 57,51 14,-6 0,0 -61,-41 -53,2zm-13095 -5599c-17,62 78,-11 32,-9 -61,3 -20,-37 -32,9zm7036 2355c-17,62 78,-11 32,-9 -61,3 -20,-37 -32,9zm7753 978c-17,62 78,-11 32,-9 -61,3 -20,-37 -32,9zm-5114 422c-17,62 78,-11 32,-9 -61,3 -20,-37 -32,9zm5668 578c-17,62 78,-11 32,-9 -61,3 -20,-37 -32,9zm-8567 -4132c-16,59 65,-4 41,-8 0,0 -8,-1 -9,-1 -61,3 -20,-37 -32,9zm-4691 2977c0,26 70,50 50,0 -20,-50 83,-1 -15,-7 -41,-3 -35,-39 -35,7zm4039 667c0,26 70,50 50,0 -20,-50 83,-1 -15,-7 -41,-3 -35,-39 -35,7zm-1661 -555c0,26 70,50 50,0 -20,-50 83,-1 -15,-7 -41,-3 -35,-39 -35,7zm7948 -378c0,26 70,50 50,0 -20,-50 83,-1 -15,-7 -41,-3 -35,-39 -35,7zm489 1311c0,26 70,50 50,0 -20,-50 83,-1 -15,-7 -41,-3 -35,-39 -35,7zm-8079 -1466c0,26 70,50 50,0 -20,-50 83,-1 -15,-7 -41,-3 -35,-39 -35,7zm-1824 -3222c0,26 70,50 50,0 -20,-50 83,-1 -15,-7 -41,-3 -35,-39 -35,7zm9740 4532c0,26 70,50 50,0 -20,-50 83,-1 -15,-7 -41,-3 -35,-39 -35,7zm-3616 -4399c0,26 70,50 50,0 -20,-50 83,-1 -15,-7 -41,-3 -35,-39 -35,7zm-3486 1422c0,26 70,50 50,0 -20,-50 83,-1 -15,-7 -41,-3 -35,-39 -35,7zm7166 3244c0,26 70,50 50,0 -20,-50 83,-1 -15,-7 -41,-3 -35,-39 -35,7zm-11108 -1333c0,26 70,50 50,0 -20,-50 83,-1 -15,-7 -41,-3 -35,-39 -35,7zm4495 -933c0,26 70,50 50,0 -20,-50 83,-1 -15,-7 -41,-3 -35,-39 -35,7zm-9675 -755c0,26 70,50 50,0 -20,-50 83,-1 -15,-7 -41,-3 -35,-39 -35,7zm11206 -1511c0,26 70,50 50,0 -20,-50 83,-1 -15,-7 -41,-3 -35,-39 -35,7zm-5245 3621c0,26 70,50 50,0 -20,-50 83,-1 -15,-7 -41,-3 -35,-39 -35,7zm-5798 -1977c0,26 70,50 50,0 -20,-50 83,-1 -15,-7 -41,-3 -35,-39 -35,7zm4007 2577c0,26 70,50 50,0 -20,-50 83,-1 -15,-7 -41,-3 -35,-39 -35,7zm13128 -2155c0,26 70,50 50,0 -20,-50 83,-1 -15,-7 -41,-3 -35,-39 -35,7zm-17232 -378c0,26 70,50 50,0 -20,-50 83,-1 -15,-7 -41,-3 -35,-39 -35,7zm10685 -1600c0,26 70,50 50,0 -20,-50 83,-1 -15,-7 -41,-3 -35,-39 -35,7zm4365 3244c0,26 70,50 50,0 -20,-50 83,-1 -15,-7 -41,-3 -35,-39 -35,7zm684 1311c33,23 118,-32 38,-12 -1,0 -92,-25 -38,12zm-7590 -1644c33,23 118,-32 38,-12 -1,0 -92,-25 -38,12zm10489 1311c33,23 118,-32 38,-12 -1,0 -92,-25 -38,12zm-16483 955c33,23 118,-32 38,-12 -1,0 -92,-25 -38,12zm2704 -2266c33,23 118,-32 38,-12 -1,0 -92,-25 -38,12zm-2508 2288c33,23 118,-32 38,-12 -1,0 -92,-25 -38,12zm12053 -4999c33,23 118,-32 38,-12 -1,0 -92,-25 -38,12zm-1336 3555c33,23 118,-32 38,-12 -1,0 -92,-25 -38,12zm4430 -1933c33,23 118,-32 38,-12 -1,0 -92,-25 -38,12zm-1759 2599c33,23 118,-32 38,-12 -1,0 -92,-25 -38,12zm-15017 -2933c33,23 118,-32 38,-12 -1,0 -92,-25 -38,12zm16581 2266c33,23 118,-32 38,-12 -1,0 -92,-25 -38,12zm-98 -3577c33,23 118,-32 38,-12 -1,0 -92,-25 -38,12zm-6678 0c33,23 118,-32 38,-12 -1,0 -92,-25 -38,12zm3062 111c33,23 118,-32 38,-12 -1,0 -92,-25 -38,12zm-3648 422c33,23 118,-32 38,-12 -1,0 -92,-25 -38,12zm-4332 2622c33,23 118,-32 38,-12 -1,0 -92,-25 -38,12zm7460 600c33,23 118,-32 38,-12 -1,0 -92,-25 -38,12zm-9610 -3644c33,23 118,-32 38,-12 -1,0 -92,-25 -38,12zm14756 1266c33,23 118,-32 38,-12 -1,0 -92,-25 -38,12zm-65 2577c33,23 118,-32 38,-12 -1,0 -92,-25 -38,12zm-1303 44c33,23 118,-32 38,-12 -1,0 -92,-25 -38,12zm-8958 -711c33,23 118,-32 38,-12 -1,0 -92,-25 -38,12zm10229 1311c33,23 118,-32 38,-12 -1,0 -92,-25 -38,12zm-12900 -1644c33,23 118,-32 38,-12 -1,0 -92,-25 -38,12zm6808 444c33,23 118,-32 38,-12 -1,0 -92,-25 -38,12zm5342 -1644c33,23 118,-32 38,-12 -1,0 -92,-25 -38,12zm-1238 2533c33,23 118,-32 38,-12 -1,0 -92,-25 -38,12zm2671 378c33,23 118,-32 38,-12 -1,0 -92,-25 -38,12zm-13388 -1289c33,23 118,-32 38,-12 -1,0 -92,-25 -38,12zm13323 1333c33,23 118,-32 38,-12 -1,0 -92,-25 -38,12zm-12411 -5221c33,23 118,-32 38,-12 -1,0 -92,-25 -38,12zm7818 3955c33,23 118,-32 38,-12 -1,0 -92,-25 -38,12zm1824 644c33,23 118,-32 38,-12 -1,0 -92,-25 -38,12zm-6743 -1911c33,23 118,-32 38,-12 -1,0 -92,-25 -38,12zm8567 2244c33,23 118,-32 38,-12 -1,0 -92,-25 -38,12zm-1792 -1977c33,23 118,-32 38,-12 -1,0 -92,-25 -38,12zm-6548 1466c33,23 118,-32 38,-12 -1,0 -92,-25 -38,12zm7036 89c33,23 118,-32 38,-12 -1,0 -92,-25 -38,12zm945 -2311c33,23 118,-32 38,-12 -1,0 -92,-25 -38,12zm-4463 -1489c33,23 118,-32 38,-12 -1,0 -92,-25 -38,12zm-8730 -244c33,23 118,-32 38,-12 -1,0 -92,-25 -38,12zm7981 4888c33,23 118,-32 38,-12 -1,0 -92,-25 -38,12zm5310 -667c33,23 118,-32 38,-12 -1,0 -92,-25 -38,12zm-9773 -955c33,23 118,-32 38,-12 -1,0 -92,-25 -38,12zm4170 -3599c33,23 118,-32 38,-12 -1,0 -92,-25 -38,12zm-7134 1666c33,23 118,-32 38,-12 -1,0 -92,-25 -38,12zm-4039 -22c33,23 118,-32 38,-12 -1,0 -92,-25 -38,12zm15669 2910c33,23 118,-32 38,-12 -1,0 -92,-25 -38,12zm-554 0c33,23 118,-32 38,-12 -1,0 -92,-25 -38,12zm-7688 -4266c33,23 118,-32 38,-12 -1,0 -92,-25 -38,12zm3844 4288c33,23 118,-32 38,-12 -1,0 -92,-25 -38,12zm2280 -378c33,23 118,-32 38,-12 -1,0 -92,-25 -38,12zm-98 -178c-13,48 47,15 44,-4 0,-1 -29,-50 -44,4zm-65 -267c-13,48 47,15 44,-4 0,-1 -29,-50 -44,4zm4398 622c-21,-54 14,-30 -65,-44 22,58 -12,25 65,44 21,54 -14,30 65,44 -22,-58 12,-25 -65,-44zm-15831 -3955c21,54 -14,30 65,44 -22,-58 12,-25 -65,-44 85,-80 16,-1 110,-58l52 -53c-179,28 -236,42 -326,133 128,-2 76,6 163,-22zm10391 6354c7,25 72,49 44,4 -12,-19 -59,-62 -44,-4zm3942 -3155c7,25 72,49 44,4 -12,-19 -59,-62 -44,-4zm423 289c7,25 72,49 44,4 -12,-19 -59,-62 -44,-4zm-1531 -711c7,25 72,49 44,4 -12,-19 -59,-62 -44,-4zm-10229 333c7,25 72,49 44,4 -12,-19 -59,-62 -44,-4zm-3942 -1977c7,25 72,49 44,4 -12,-19 -59,-62 -44,-4zm13193 2866c7,25 72,49 44,4 -12,-19 -59,-62 -44,-4zm-14594 -2910c7,25 72,49 44,4 -12,-19 -59,-62 -44,-4zm16125 -978c7,25 72,49 44,4 -12,-19 -59,-62 -44,-4zm-1108 4132c7,25 72,49 44,4 -12,-19 -59,-62 -44,-4zm-423 -4332c7,25 72,49 44,4 -12,-19 -59,-62 -44,-4zm-5179 2311c7,25 72,49 44,4 -12,-19 -59,-62 -44,-4zm-5961 -2488c-50,-49 -5,-28 -98,-44 51,50 6,26 98,44zm4104 489l-98 -44c30,54 -68,42 98,44zm-5896 1266c-23,-65 4,-32 -65,-67 21,61 -13,35 65,67zm-98 -200l33 0 0 -67 -33 0 0 67zm13616 2200c72,-34 40,-4 65,-67 -54,26 -63,5 -65,67zm-228 711l72 -40 -104 -4 33 44 -423 -67c54,137 211,64 423,133l0 -67zm1270 -4199l-98 0c73,69 25,69 98,0zm-6450 1200c101,-50 101,-17 0,-67l0 67zm3942 -1622c-15,10 -76,-2 -1,27 32,12 81,4 41,-28 -51,-41 -18,-15 -40,0zm3486 1933c-15,10 -76,-2 -1,27 32,12 81,4 41,-28 -51,-41 -18,-15 -40,0zm-11662 4777c-11,-5 27,-43 -59,-15 -69,23 -7,-17 -39,37 86,-16 27,2 98,-22l65 44 0 -89c-5,4 -14,4 -16,11l-33 22c-3,2 -11,7 -16,11zm11792 -2088c92,35 99,9 65,-44l-65 44zm-423 -4132c-25,-15 -9,-15 -55,-29 -66,-21 -15,-6 -75,-15 74,68 -21,36 130,44zm-13323 -200l0 -44 -98 0c51,50 6,26 98,44zm6971 2444c95,-16 47,3 98,-44l-98 0 0 44zm-8991 -978c-15,10 -76,-2 -1,27 36,14 -3,25 37,-3 18,-12 81,-105 -36,-25zm3257 5066c-26,-67 0,-49 -98,-67 70,90 -6,40 98,67zm2704 -5732l98 0 0 -44c-57,9 -87,3 -98,44zm-2932 -111l98 0 0 -44c-57,9 -87,3 -98,44zm-358 355c140,-51 59,6 98,-67 -74,14 -95,5 -98,67zm11825 2733c97,-48 97,-40 0,-89l0 89zm-7688 -2688l65 0 0 -89c-22,17 -22,6 -43,37 -34,50 -7,11 -22,51zm10554 3555l130 0c-25,-15 -9,-15 -55,-29 -66,-21 -15,-6 -75,-15l0 44zm-9968 -2422c151,-9 57,24 130,-44 -77,4 -119,-2 -130,44zm-3909 4399l-98 0 0 44c170,-10 59,21 98,-44l98 0c-11,-89 -51,-113 -163,-133l0 67 -98 0c45,42 17,21 71,40 8,3 40,10 48,12 6,2 18,5 22,7 5,1 15,5 22,8zm391 -3177c100,-50 53,14 65,-89 -83,42 -65,-8 -65,89zm3811 -1222l65 0 0 -67 -65 0 0 67zm5864 2200l98 0 0 -44 -98 0 0 44zm-10587 -1178l98 0 0 -44 -98 0 0 44zm5994 -3399l98 0 0 -44 -98 0 0 44zm-6092 1200l65 0 0 -67 -65 0 0 67zm11238 1822l98 0 0 -44 -98 0 0 44zm880 -2688l98 0 0 -44 -98 0 0 44zm489 3999c47,18 34,11 98,22 -26,-67 0,-49 -98,-67l0 44c-125,45 -147,14 -163,111 133,-21 132,-20 163,-111zm-13453 -3955l98 0c-23,-65 4,-32 -65,-67 -22,27 -33,24 -33,67zm7851 400c140,-51 59,6 98,-67l-98 0 0 67zm4267 3421c100,-50 53,14 65,-89l-65 0 0 89zm-3486 -4266l130 0 0 -44c-77,4 -119,-2 -130,44zm-98 778c-57,-58 -16,-46 -130,-67 31,80 3,59 130,67zm-228 -733c98,-18 72,0 98,-67l-98 0 0 67zm4528 444c69,65 -5,42 163,44l-35 -22c-32,-17 -90,-52 -128,-22zm2085 222c53,-3 32,6 86,-8 106,-28 45,-17 77,-36l-163 0 0 44zm-13030 1266c-69,-65 5,-42 -163,-44 69,65 -5,42 163,44zm10261 2422l130 0 0 -44 -130 0 0 44zm-3257 2088c73,68 -21,36 130,44l0 -44c-62,-9 -102,-23 -130,0zm-12150 -3088l98 0c-30,-78 -12,-50 -98,-89l0 89zm98 -1866c133,-8 133,-11 163,-89 -109,39 -92,17 -163,89zm17395 3666c-31,-80 -3,-59 -130,-67 31,80 3,59 130,67zm-7883 -5021c56,72 5,64 163,67 -57,-58 -33,-59 -163,-67 -52,-53 -39,-23 -65,-89 161,26 341,60 391,-67 -245,0 -225,23 -289,23l-135 -23 -33 89c-173,-79 -92,-31 -261,0 37,-107 22,-35 0,-67 -59,20 -41,17 -130,22 99,64 38,14 0,111 154,0 146,-4 261,-22 1,3 -4,4 -4,8 0,3 -4,7 -4,8l-26 51c-27,115 -31,64 100,112 38,-98 90,-136 195,-156zm-10229 1022c-58,-54 -44,-48 -163,-67 35,89 9,64 163,67zm7134 5577c-86,-28 -35,-20 -163,-22 73,74 79,100 163,22zm8470 -3510l65 0 0 -133c-17,13 -26,-8 -54,52 -18,38 -10,42 -11,81zm-3551 -3288c90,-5 71,-2 130,-22 -75,-70 2,-25 -195,-22l65 44c-156,0 -135,-15 -261,-22 -25,30 -18,25 -33,67 -94,-21 -66,41 -33,-67 -128,2 -76,-6 -163,22 63,64 67,69 195,89l0 -44c5,4 13,5 15,12 4,10 27,18 34,21 39,20 46,21 81,33 26,-45 9,-3 5,-36 0,-3 -5,-14 -5,-17l0 -14c115,18 107,22 261,22 -31,-52 9,-11 -39,-40l-59 -26zm-2248 2577l129 25 1 -69 -130 0 0 44zm-4886 -2022c-77,-12 -96,-21 -195,-22 11,27 2,86 133,50 47,-13 39,-16 63,-28zm8470 3421c167,-9 109,-18 98,-111 -125,23 -98,6 -98,111zm-10424 -3688c128,-20 132,-24 195,-89 -58,-18 -81,-32 -137,6 -53,36 9,-13 -22,28 -24,33 -6,-3 -37,54zm586 67c60,61 61,81 195,89 -5,-167 -187,-98 -195,-89zm1531 3110l261 0c-19,-50 -8,-67 -98,-67l-65 0c-77,0 -96,15 -98,67zm-1140 -2888c0,85 -10,8 33,67l195 -133c-120,0 -228,-20 -228,67zm-261 -333c-38,-97 -129,-124 -293,-133 39,101 9,44 116,76 111,34 72,38 177,57zm13030 200l98 0 0 -67c-157,23 -67,3 -228,-22 -42,136 -6,89 130,89zm-2183 -222c156,0 135,-15 261,-22l0 -44c-95,-15 -212,-71 -261,67zm2573 5999c9,-73 62,-111 -65,-111l-98 0c4,110 2,109 163,111zm-1401 -2288l79 18c38,16 149,130 149,-84 -125,7 -172,14 -228,67zm-7166 -2088c329,-52 241,-227 124,-182 -116,45 46,-36 -31,21l-69 89c-12,27 -13,37 -25,72zm7069 1666l0 111c106,38 160,43 195,133 116,-57 -18,-127 -130,-178 66,-85 124,-105 -33,-133 -22,27 -33,24 -33,67zm-12053 -2933c54,55 116,75 195,111 59,-20 41,-17 130,-22 -43,-110 -61,-15 -65,-156 -220,12 -59,52 -261,67zm13258 1555l65 0c-8,-67 -29,-70 -29,-96 -1,-107 -14,-39 62,-60 -8,-69 -30,-278 -98,-311 -12,98 -54,89 -20,213 25,92 20,153 20,254zm-163 178l98 67c35,-59 1,-23 87,-52l70 -19c48,-13 -36,1 71,-18l0 -67c-186,-11 -42,-34 -228,-44 -12,102 -26,61 -98,133zm1954 3821c47,-139 83,-39 130,-178 -240,-14 -136,-62 -293,-133 33,98 61,54 58,172 -2,75 -52,-15 11,70l94 69zm-12737 -4110c82,76 8,4 70,41 57,34 28,-8 60,48l51 -70c51,97 39,56 177,48 -162,-230 -100,-17 -163,-178 -107,19 -141,56 -195,111zm-1368 1266c50,9 101,25 104,26l26 -3c7,-1 46,-35 164,20 78,37 40,8 64,69 99,-2 119,-10 195,-22 -55,-56 -400,-240 -554,-89zm11043 1066l33 178c43,-46 33,-58 33,-133 141,71 -11,40 130,111 0,-160 -22,-68 -65,-178l98 0c-69,-65 5,-42 -163,-44 72,-67 56,-44 228,-44l0 -44c-175,10 -293,22 -293,156zm-12378 -3955c-201,0 -194,-35 -358,-44l0 89c74,-12 75,-17 163,-22 -37,107 -22,35 0,67 134,-8 325,-27 391,-89 -229,-17 32,-25 -195,-67l0 67zm14952 5999c308,5 154,66 246,-76 31,-49 149,-150 130,-184 -54,-96 -367,239 -376,260zm-3974 -6354l0 0zm0 0c-93,15 -49,-3 -98,44 8,2 18,1 22,7 1,3 570,195 423,4 -52,-68 -57,-13 -61,-14 -69,-3 -21,56 -58,-20 -217,-45 178,7 -60,-91 -78,-32 -140,-3 -168,68zm-6320 1066c133,24 131,69 266,49 472,-72 184,-267 -152,-104l-115 55zm-3388 -622c299,0 293,-5 358,-89l-521 22c-147,0 -26,-89 -423,-111 114,106 -29,-29 246,121 77,42 212,57 340,57zm7688 -67c-18,147 -148,123 -195,244 180,33 27,63 261,67 -22,-58 12,-25 -65,-44 4,-115 126,-198 265,-242 88,-28 284,-44 396,-86 42,-16 32,-14 56,-28 -165,0 -228,26 -362,42 -140,16 -233,40 -354,47zm-3225 1244c-3,95 -46,84 -41,148 11,146 62,-75 9,43 -1,2 -55,44 -65,53 169,-3 460,-11 344,-124l-195 -233c-1,-2 -2,-9 -3,-11 -23,-47 -51,37 -37,-53 6,-36 17,-32 54,-68 -98,18 -134,47 -166,109 -48,94 12,119 101,135zm7753 844l-98 0 0 67c-153,11 -302,123 -489,133 54,69 65,70 65,178 161,-29 50,-13 123,-72 90,-72 325,-106 463,-106 5,-152 108,-173 65,-311l-130 0 0 111zm-5114 2866c119,-19 93,-5 136,-63 14,-18 45,-120 52,-143 39,-133 73,-159 73,-306 0,-112 -33,-48 -47,-44 0,0 -47,46 -60,57 -134,113 -192,2 -245,328 -17,104 7,128 91,171zm5017 -778c144,8 143,44 228,44 113,0 50,-44 163,-44 147,0 19,73 261,111 -37,-95 6,5 -55,-74 -3,-4 -8,-10 -12,-14 -3,-5 -8,-10 -11,-15 -94,-135 -222,-189 -490,-247 -165,-36 -85,-20 -215,39 -66,-94 -14,-108 -228,-111l80 82c75,104 399,57 278,229zm-1564 -400c8,232 193,222 391,222 5,-166 111,-128 120,-227 16,-172 -62,34 -27,-99 24,-90 100,0 39,-83 -99,-135 -297,146 -523,187zm-12639 -3555c96,18 53,9 130,44 122,-22 170,-70 261,-111 -30,87 -30,46 0,133l261 0c-96,57 -159,37 -228,67 131,21 152,67 228,67 255,0 261,-106 554,0 -22,-72 12,-72 33,-111 -88,-5 -89,-10 -163,-22 -27,-78 -33,-73 -33,-178 -144,52 -87,13 -163,111 -268,-122 -204,19 -361,-66 -56,-30 -54,-17 -62,-67 -426,-24 -306,-76 -421,91 -1,2 -34,41 -35,43zm3062 533l10 7c-1,0 -13,-4 -10,-7zm-977 -511c35,-24 124,35 36,12 -1,0 -91,26 -36,-12zm1042 -689l-37 -43 37 43zm-699 -222l468 0c151,7 81,24 266,43 129,13 80,-13 193,24 -43,109 -20,37 -131,89 -164,77 91,24 -97,67 -40,37 -185,97 -256,115l-297 40 73 51c7,27 8,16 -34,38 -57,29 -133,43 -234,44 36,60 73,42 130,67 -183,29 -57,36 -262,26 -149,-7 -202,-24 -325,-26 43,-82 55,-56 91,-107 34,-49 35,17 7,-26 -34,-23 -496,85 -261,-67 -130,-2 -121,-10 -201,-48l136 -107c515,82 93,200 619,200 -7,-3 -16,-6 -21,-8l-66 -21c-163,-48 -110,-18 -173,-82 105,-34 178,-22 326,-22 -97,-90 -17,-24 -162,-31 -112,-5 -264,-18 -357,-59l-100 -44 483 -93c104,-48 68,-59 186,-63zm1090 178l10 7c-1,0 -13,-4 -10,-7zm65 5865l0 0zm326 -1511l0 0zm-1498 -2000l10 7c-1,0 -13,-4 -10,-7zm65 -22l10 7c-1,0 -13,-4 -10,-7zm65 -22l10 7c-1,0 -13,-4 -10,-7zm-456 -67c-17,51 -25,51 -33,111 -23,-23 -1,8 -36,-42 0,-1 -24,-41 -29,-47 44,-17 36,-12 98,-22zm163 67c-29,-41 -25,-28 -33,-89 118,19 224,75 33,89zm977 -67l0 0zm-1108 -22l-33 22 33 -22zm423 -89c35,-24 124,35 36,12 -1,0 -91,26 -36,-12zm-423 89c-71,-66 -97,-67 -261,-67 58,-54 44,-48 163,-67 254,164 143,123 98,133zm-619 -1289c0,-57 52,-4 19,0 0,0 -19,62 -19,0zm7981 1355c135,174 76,171 195,133 -3,5 -11,6 -12,14l-20 208c-331,0 -176,-58 -180,-155 -3,-80 -338,-284 147,-312 -30,56 -81,64 -130,111zm-1270 200c141,-91 -31,-138 261,-311 137,38 0,78 195,89 -23,-75 -56,-78 130,-89 27,39 -33,42 55,116 78,66 104,36 141,128 -195,64 -263,-9 -396,-15 -148,-6 -225,72 -386,81zm244 -1111l49 0 -49 0 0 0zm6206 -667l0 0zm-1955 -156c17,43 6,34 33,67 -127,7 -85,20 -228,22 63,-64 67,-69 195,-89zm0 0l0 0z"/>
  <path class="fil1" d="M9365 3347c-48,58 -95,53 -162,53l-704 2c-47,0 -138,7 -180,-11 -60,-25 -82,-85 -117,-144 -30,-51 -59,-102 -89,-153 -60,-102 -118,-203 -177,-305 -26,-46 -112,-188 -132,-228 -11,-23 -18,-54 -13,-85 8,-47 79,-156 107,-205l301 -524c44,-76 72,-156 178,-155l837 -2c31,0 57,-4 91,11 60,25 81,84 117,144 126,211 252,434 376,647 7,12 16,25 22,38 11,23 18,54 13,85 -8,48 -78,156 -107,205 -31,54 -342,603 -361,626z"/>
  <path class="fil2" d="M9365 5509c-48,58 -95,53 -162,53l-704 2c-47,0 -138,7 -180,-11 -60,-25 -82,-85 -117,-144 -30,-51 -59,-102 -89,-153 -60,-102 -118,-203 -177,-305 -26,-46 -112,-188 -132,-228 -11,-23 -18,-54 -13,-85 8,-47 79,-156 107,-205l301 -524c44,-76 72,-156 178,-155l837 -2c31,0 57,-4 91,11 60,25 81,84 117,144 126,211 252,434 376,647 7,12 16,25 22,38 11,23 18,54 13,85 -8,48 -78,156 -107,205 -31,54 -342,603 -361,626z"/>
  <path class="fil3" d="M11287 2311c-48,58 -95,53 -162,53l-704 2c-47,0 -138,7 -180,-11 -60,-25 -82,-85 -117,-144 -30,-51 -59,-102 -89,-153 -60,-102 -118,-203 -177,-305 -26,-46 -112,-188 -132,-228 -11,-23 -18,-54 -13,-85 8,-47 79,-156 107,-205l301 -524c44,-76 72,-156 178,-155l837 -2c31,0 57,-4 91,11 60,25 81,84 117,144 126,211 252,434 376,647 7,12 16,25 22,38 11,23 18,54 13,85 -8,48 -78,156 -107,205 -31,54 -342,603 -361,626z"/>
  <path class="fil4" d="M11328 6544c-48,58 -95,53 -162,53l-704 2c-47,0 -138,7 -180,-11 -60,-25 -82,-85 -117,-144 -30,-51 -59,-102 -89,-153 -60,-102 -118,-203 -177,-305 -26,-46 -112,-188 -132,-228 -11,-23 -18,-54 -13,-85 8,-47 79,-156 107,-205l301 -524c44,-76 72,-156 178,-155l837 -2c31,0 57,-4 91,11 60,25 81,84 117,144 126,211 252,434 376,647 7,12 16,25 22,38 11,23 18,54 13,85 -8,48 -78,156 -107,205 -31,54 -342,603 -361,626z"/>
  <path class="fil5" d="M11294 4428c-48,58 -95,53 -162,53l-704 2c-47,0 -138,7 -180,-11 -60,-25 -82,-85 -117,-144 -30,-51 -59,-102 -89,-153 -60,-102 -118,-203 -177,-305 -26,-46 -112,-188 -132,-228 -11,-23 -18,-54 -13,-85 8,-47 79,-156 107,-205l301 -524c44,-76 72,-156 178,-155l837 -2c31,0 57,-4 91,11 60,25 81,84 117,144 126,211 252,434 376,647 7,12 16,25 22,38 11,23 18,54 13,85 -8,48 -78,156 -107,205 -31,54 -342,603 -361,626z"/>
  <path class="fil6" d="M13221 3374c-48,58 -95,53 -162,53l-704 2c-47,0 -138,7 -180,-11 -60,-25 -82,-85 -117,-144 -30,-51 -59,-102 -89,-153 -60,-102 -118,-203 -177,-305 -26,-46 -112,-188 -132,-228 -11,-23 -18,-54 -13,-85 8,-47 79,-156 107,-205l301 -524c44,-76 72,-156 178,-155l837 -2c31,0 57,-4 91,11 60,25 81,84 117,144 126,211 252,434 376,647 7,12 16,25 22,38 11,23 18,54 13,85 -8,48 -78,156 -107,205 -31,54 -342,603 -361,626z"/>
  <path class="fil7" d="M13221 5482c-48,58 -95,53 -162,53l-704 2c-47,0 -138,7 -180,-11 -60,-25 -82,-85 -117,-144 -30,-51 -59,-102 -89,-153 -60,-102 -118,-203 -177,-305 -26,-46 -112,-188 -132,-228 -11,-23 -18,-54 -13,-85 8,-47 79,-156 107,-205l301 -524c44,-76 72,-156 178,-155l837 -2c31,0 57,-4 91,11 60,25 81,84 117,144 126,211 252,434 376,647 7,12 16,25 22,38 11,23 18,54 13,85 -8,48 -78,156 -107,205 -31,54 -342,603 -361,626z"/>
  <path class="fil8" d="M7437 2311c-48,58 -95,53 -162,53l-704 2c-47,0 -138,7 -180,-11 -60,-25 -82,-85 -117,-144 -30,-51 -59,-102 -89,-153 -60,-102 -118,-203 -177,-305 -26,-46 -112,-188 -132,-228 -11,-23 -18,-54 -13,-85 8,-47 79,-156 107,-205l301 -524c44,-76 72,-156 178,-155l837 -2c31,0 57,-4 91,11 60,25 81,84 117,144 126,211 252,434 376,647 7,12 16,25 22,38 11,23 18,54 13,85 -8,48 -78,156 -107,205 -31,54 -342,603 -361,626z"/>
  <path class="fil9" d="M7431 4428c-48,58 -95,53 -162,53l-704 2c-47,0 -138,7 -180,-11 -60,-25 -82,-85 -117,-144 -30,-51 -59,-102 -89,-153 -60,-102 -118,-203 -177,-305 -26,-46 -112,-188 -132,-228 -11,-23 -18,-54 -13,-85 8,-47 79,-156 107,-205l301 -524c44,-76 72,-156 178,-155l837 -2c31,0 57,-4 91,11 60,25 81,84 117,144 126,211 252,434 376,647 7,12 16,25 22,38 11,23 18,54 13,85 -8,48 -78,156 -107,205 -31,54 -342,603 -361,626z"/>
  <path class="fil10" d="M7430 6544c-48,58 -95,53 -162,53l-704 2c-47,0 -138,7 -180,-11 -60,-25 -82,-85 -117,-144 -30,-51 -59,-102 -89,-153 -60,-102 -118,-203 -177,-305 -26,-46 -112,-188 -132,-228 -11,-23 -18,-54 -13,-85 8,-47 79,-156 107,-205l301 -524c44,-76 72,-156 178,-155l837 -2c31,0 57,-4 91,11 60,25 81,84 117,144 126,211 252,434 376,647 7,12 16,25 22,38 11,23 18,54 13,85 -8,48 -78,156 -107,205 -31,54 -342,603 -361,626z"/>
  <path class="fil11" d="M9375 3355c-49,58 -95,58 -159,58l-13 0 -704 2 0 0c-10,0 -22,0 -35,1 -50,1 -115,3 -150,-12 -53,-22 -77,-67 -104,-115 -6,-11 -13,-23 -19,-34 -17,-29 -35,-60 -53,-91l0 0c-13,-22 -25,-44 -36,-62 -32,-54 -61,-104 -89,-153 -29,-51 -59,-101 -88,-152 -7,-13 -21,-35 -36,-61 -36,-60 -82,-139 -97,-168 -7,-13 -12,-29 -14,-46 -2,-15 -2,-31 0,-47 7,-40 54,-119 87,-174 8,-13 15,-25 21,-36l301 -524c6,-11 11,-20 16,-29 38,-70 73,-134 174,-133l837 -2 0 0c6,0 11,0 17,0 25,0 49,-1 79,12 53,22 77,67 105,116l0 0c6,10 11,21 19,33 85,143 173,295 260,446 36,62 72,124 116,201 3,5 5,8 7,11l0 0c6,9 11,19 16,28 6,13 12,29 14,46 2,15 2,31 0,47 -7,41 -53,117 -86,173l0 0c-8,14 -15,26 -22,37 -9,15 -21,37 -39,69 -92,162 -307,539 -324,560zm-159 31c56,0 97,1 138,-48 16,-19 229,-394 321,-556l39 -69c5,-9 13,-23 22,-37l0 0c32,-53 77,-128 83,-163 2,-13 2,-26 0,-39 -2,-14 -6,-27 -12,-38 -4,-8 -9,-17 -15,-26l0 0c-3,-5 -5,-9 -7,-12 -32,-56 -74,-129 -116,-201 -86,-148 -172,-298 -260,-446 -6,-10 -13,-22 -19,-34l0 0c-25,-45 -48,-86 -92,-105 -25,-11 -46,-10 -69,-10 -6,0 -11,0 -18,0l-837 2 0 0c-85,-1 -116,56 -150,119 -6,10 -11,21 -16,30l-301 524c-5,9 -13,22 -21,36 -32,54 -78,129 -84,165 -2,13 -2,26 0,39 2,14 6,27 12,38 14,28 60,106 96,166 15,25 28,47 36,61 29,51 59,101 88,152 31,53 61,104 89,153 14,23 25,43 36,62l0 0c17,30 34,59 53,91 7,12 14,24 20,35 25,45 47,85 91,104 30,13 92,11 140,10 13,0 25,-1 35,-1l704 -2 13 0 0 0z"/>
  <path class="fil12" d="M9375 5517c-49,58 -95,58 -159,58l-13 0 -704 2 0 0c-10,0 -22,0 -34,1l0 0c-50,1 -115,3 -150,-12 -53,-22 -77,-67 -104,-115 -6,-12 -13,-24 -19,-34 -19,-32 -36,-62 -53,-91l0 0c-12,-20 -23,-40 -36,-62 -32,-54 -61,-104 -89,-153 -29,-51 -59,-101 -88,-152 -7,-13 -21,-35 -36,-60 -36,-60 -83,-139 -97,-169 -7,-13 -12,-29 -14,-46 -2,-15 -2,-31 0,-47 7,-40 54,-119 87,-174 8,-13 15,-25 21,-35l301 -524c6,-11 11,-20 16,-29 38,-70 73,-134 174,-133l837 -2 0 0c6,0 11,0 17,0l0 0c25,0 49,-1 79,12 53,22 77,67 105,116l0 0c6,11 12,21 19,33 85,143 173,295 260,446 36,62 71,124 116,202 2,3 4,7 7,11l0 0c6,9 11,19 16,28 6,13 12,29 14,46 2,15 2,31 0,47 -7,41 -53,118 -86,173 -9,15 -17,28 -22,37l0 0c-9,15 -21,37 -38,67 -92,161 -307,541 -324,561zm-159 31c56,0 97,1 138,-48 16,-19 230,-396 322,-557l38 -67 0 0c7,-12 14,-24 22,-37 32,-53 77,-128 83,-163 2,-13 2,-26 0,-39 -2,-14 -6,-27 -12,-38 -4,-9 -10,-18 -15,-26l0 0c-2,-4 -4,-7 -7,-12 -32,-55 -74,-129 -116,-202 -85,-148 -172,-298 -260,-446 -6,-11 -13,-23 -19,-34l0 0c-25,-45 -48,-86 -92,-105 -25,-11 -46,-10 -69,-10l0 0c-6,0 -11,0 -17,0l-837 2 0 0c-85,-1 -116,56 -150,119 -6,10 -11,21 -16,30l-301 524c-5,9 -13,22 -21,36 -32,54 -78,130 -84,165 -2,13 -2,26 0,39 2,14 6,27 12,38 14,28 60,107 96,167 15,25 28,47 36,61 29,51 59,101 88,152 31,53 61,104 89,153 11,19 24,41 36,62l0 0c18,31 36,63 53,91 8,13 14,24 20,35 25,45 47,85 91,104 30,13 92,11 140,10 13,0 25,-1 35,-1l704 -2 13 0 0 0z"/>
  <path class="fil13" d="M11297 2320c-49,58 -95,58 -159,58l-13 0 -704 2 0 0c-10,0 -22,0 -35,1l0 0c-50,1 -115,3 -150,-12 -53,-22 -77,-67 -104,-116 -6,-12 -13,-24 -19,-34l0 0c-18,-31 -35,-60 -53,-90 -13,-22 -26,-44 -36,-63 -32,-54 -61,-104 -89,-153 -29,-51 -59,-101 -88,-152 -7,-13 -20,-35 -35,-60 -36,-60 -83,-139 -97,-169 -7,-13 -12,-29 -14,-46 -2,-15 -2,-31 0,-47 7,-40 54,-119 87,-174 8,-13 15,-25 21,-36l301 -524c6,-11 11,-20 16,-29 38,-70 73,-134 174,-133l837 -2 0 0c6,0 12,0 17,0 25,0 49,-1 79,12 53,22 77,67 105,116l0 0c6,11 12,22 19,33 85,143 173,295 260,446 36,63 72,124 116,201 2,3 4,7 7,11 5,9 11,18 16,28l0 0c6,13 12,29 14,46 2,15 2,31 0,47 -7,41 -53,117 -86,173 -8,14 -16,27 -22,37 -8,15 -20,36 -37,65 -91,160 -309,543 -326,563zm-159 31c56,0 97,0 138,-48 16,-19 233,-400 323,-560l37 -65c6,-10 14,-23 22,-37 32,-53 77,-128 83,-163 2,-13 2,-26 0,-39 -2,-14 -6,-27 -12,-38l0 0c-4,-8 -9,-17 -15,-26 -2,-4 -4,-7 -7,-12 -32,-56 -74,-129 -116,-201 -86,-148 -172,-298 -260,-446 -7,-12 -13,-23 -19,-34l0 0c-25,-45 -48,-86 -92,-105 -25,-11 -46,-10 -69,-10 -6,0 -11,0 -18,0l-837 2 0 0c-85,-1 -116,56 -150,119 -6,10 -11,21 -16,29l-301 524c-5,9 -13,22 -21,36 -32,54 -78,129 -84,165 -2,13 -2,26 0,39 2,14 6,27 12,38 14,28 61,107 96,167 15,25 27,46 36,60 29,51 59,101 88,152 31,53 60,104 89,153 14,23 25,43 37,63 18,30 35,61 52,90l0 0c8,13 14,24 20,35 25,45 47,85 91,104 30,13 92,11 140,10 13,0 25,-1 35,-1l704 -2 14 0 0 0z"/>
  <path class="fil14" d="M11338 6552c-49,58 -95,58 -159,58l-13 0 -704 2 0 0c-10,0 -22,0 -34,1 -50,1 -115,3 -151,-12 -53,-22 -77,-67 -104,-116 -6,-11 -13,-23 -19,-34 -18,-30 -35,-60 -53,-90 -13,-22 -26,-44 -37,-63 -32,-54 -61,-104 -89,-153 -29,-51 -59,-101 -88,-152 -7,-13 -20,-35 -35,-60 -36,-60 -83,-140 -97,-169 -7,-13 -12,-29 -14,-46 -2,-15 -2,-31 0,-47 7,-40 54,-118 87,-174 8,-13 15,-25 21,-36l301 -524c6,-11 11,-20 16,-29 38,-70 73,-134 174,-133l837 -2 0 0c6,0 12,0 17,0 25,0 49,-1 79,12 53,22 77,67 105,116 6,11 12,22 19,33 86,144 174,297 261,449 35,61 71,122 115,198 3,5 5,8 7,11l0 0c5,9 11,18 16,28l0 0c6,13 12,29 14,46 2,15 2,31 0,47l0 0c-7,41 -53,117 -86,173l0 0c-8,14 -15,26 -22,37 -9,16 -20,36 -37,65 -91,160 -309,543 -326,563zm-159 31c56,0 97,1 138,-48 16,-19 232,-400 323,-559l37 -65c5,-9 13,-23 22,-37l0 0c32,-53 77,-128 83,-163l0 0c2,-13 2,-26 0,-39 -2,-14 -6,-27 -12,-38l0 0c-4,-8 -9,-17 -15,-26l0 0c-3,-5 -5,-9 -7,-11 -32,-55 -73,-126 -115,-199 -86,-149 -173,-300 -261,-449 -7,-12 -13,-23 -19,-34 -25,-45 -48,-86 -92,-105 -25,-11 -46,-10 -69,-10 -6,0 -11,0 -18,0l-837 2 0 0c-85,-1 -116,56 -150,119 -6,10 -11,21 -16,29l-301 524c-5,9 -13,22 -21,36 -32,53 -78,129 -83,164 -2,13 -2,26 0,39 2,14 6,27 12,38 14,28 61,107 96,167 15,25 27,46 35,60 29,51 59,101 88,152 31,53 60,104 89,153 14,23 25,43 37,63 18,30 35,61 52,90 7,12 14,24 20,35 25,45 47,85 91,104 30,13 92,11 140,10l0 0c13,0 25,-1 35,-1l704 -2 13 0 0 0z"/>
  <path class="fil15" d="M11304 4436c-49,58 -95,58 -159,58l-13 0 -704 2 0 0c-10,0 -22,0 -35,1l0 0c-50,1 -115,3 -150,-12 -53,-22 -77,-67 -104,-116 -6,-12 -13,-24 -19,-34l0 0c-17,-29 -35,-60 -53,-90l0 0c-13,-22 -26,-45 -36,-63 -32,-54 -61,-104 -89,-153 -29,-51 -59,-101 -88,-152 -7,-13 -20,-35 -35,-60 -36,-60 -83,-139 -97,-169 -7,-13 -12,-29 -14,-46 -2,-15 -2,-31 0,-47 7,-40 54,-119 87,-174 8,-13 15,-25 21,-36l301 -524c6,-11 11,-20 16,-29 38,-70 73,-134 174,-133l837 -2 0 0c6,0 12,0 17,0 25,0 49,-1 79,12 53,22 77,67 105,116l0 0c6,10 11,21 19,33 85,143 173,296 260,447 36,62 72,124 116,201 2,3 4,7 7,11l0 0c6,9 11,19 16,28l0 0c6,13 12,29 14,46 2,15 2,31 0,47 -7,41 -53,117 -86,173 -8,14 -16,27 -22,37l0 0 -37 65c-91,160 -309,543 -326,563zm-159 31c56,0 97,1 138,-48 16,-19 232,-400 323,-559l37 -65 0 0c6,-10 14,-23 22,-37 32,-53 77,-128 83,-163 2,-13 2,-26 0,-39 -2,-14 -6,-27 -12,-38l0 0c-4,-9 -9,-17 -15,-26l0 0c-2,-4 -4,-7 -7,-12 -33,-56 -74,-129 -116,-201 -86,-148 -172,-298 -260,-446 -6,-10 -13,-22 -19,-34l0 0c-25,-45 -48,-86 -92,-105 -25,-11 -46,-10 -69,-10 -6,0 -11,0 -18,0l-837 2 0 0c-85,-1 -116,56 -150,119 -6,10 -11,21 -16,30l-301 524c-5,9 -13,22 -21,36 -32,53 -78,129 -84,165 -2,13 -2,26 0,39 2,14 6,27 12,38 14,28 61,107 96,167 15,25 27,46 36,60 29,51 59,101 88,152 31,53 61,104 89,153 14,24 25,43 37,63l0 0c17,30 34,59 53,90l0 0c8,13 14,24 20,35 25,45 47,85 91,104 30,13 92,11 140,10 13,0 25,-1 35,-1l704 -2 13 0 0 0z"/>
  <path class="fil16" d="M13232 3382c-49,58 -95,58 -159,58l-13 0 -704 2 0 0c-10,0 -21,0 -34,1 -50,1 -115,3 -151,-12 -53,-22 -77,-67 -104,-115 -6,-12 -13,-24 -19,-34l0 0c-18,-31 -36,-61 -53,-91 -13,-22 -26,-44 -36,-63 -31,-54 -61,-104 -89,-153 -29,-51 -59,-101 -88,-152 -7,-13 -20,-35 -35,-60 -36,-60 -83,-140 -97,-169 -7,-13 -12,-29 -14,-46 -2,-15 -2,-31 0,-47 7,-40 54,-119 87,-174 8,-13 15,-25 21,-35l301 -524c6,-11 11,-20 16,-29 38,-70 73,-134 174,-133l837 -2 0 0c6,0 11,0 17,0l0 0c25,0 49,-1 79,12 53,22 77,67 105,116l0 0c6,10 11,21 19,33 85,143 173,296 260,447 36,62 72,125 116,201 2,3 4,7 7,11 5,9 11,19 16,28 6,13 12,29 14,46 2,15 2,31 0,47 -7,41 -53,117 -86,173 -8,14 -16,27 -22,37 -8,14 -21,36 -37,65 -91,160 -309,543 -326,563zm-159 31c56,0 97,1 138,-48 16,-19 232,-400 323,-559l37 -65c6,-10 14,-23 22,-37 32,-53 77,-128 83,-163 2,-13 2,-26 0,-39 -2,-14 -6,-27 -12,-38 -4,-8 -9,-17 -15,-26 -2,-4 -4,-7 -7,-12 -33,-56 -74,-129 -116,-201 -86,-148 -172,-298 -260,-446 -6,-10 -13,-22 -19,-34l0 0c-25,-45 -48,-86 -92,-105 -25,-11 -46,-10 -69,-10l0 0c-6,0 -11,0 -18,0l-837 2 0 0c-85,-1 -116,56 -150,119 -6,10 -11,21 -16,30l-301 524c-5,9 -13,22 -21,36 -32,54 -78,130 -84,165 -2,13 -2,26 0,39 2,14 6,27 12,38 14,28 61,107 96,167 15,25 27,46 35,60 29,51 59,101 88,152 31,53 60,104 89,153 14,24 25,43 36,63 18,31 35,61 53,90l0 0c8,13 14,24 20,35 25,45 47,85 91,104 30,13 92,11 140,10 13,0 25,-1 35,-1l704 -2 13 0 0 0z"/>
  <path class="fil17" d="M13232 5490c-49,58 -95,58 -159,58l-13 0 -704 2 0 0c-10,0 -22,0 -35,1l0 0c-50,1 -115,3 -150,-12 -53,-22 -77,-67 -104,-116 -6,-11 -13,-23 -19,-34l0 0c-18,-30 -35,-60 -53,-90l0 0c-13,-22 -26,-45 -37,-63 -31,-54 -61,-104 -89,-153 -29,-51 -59,-101 -88,-152 -7,-13 -21,-35 -36,-60 -36,-60 -83,-139 -97,-169 -7,-13 -12,-29 -14,-46 -2,-15 -2,-31 0,-47 7,-40 54,-118 87,-174 8,-13 15,-25 21,-36l301 -524c6,-11 11,-20 16,-29 38,-70 73,-134 174,-133l837 -2 0 0c6,0 12,0 17,0 25,0 49,-1 79,12 53,22 77,67 105,116l0 0c6,11 12,21 19,33 85,144 174,297 261,448 36,62 71,123 115,199 2,3 4,7 7,11l0 0c6,9 11,19 16,28l0 0c6,13 12,29 14,46 2,15 2,31 0,47 -7,41 -53,117 -86,173 -8,14 -16,27 -22,37 -8,15 -20,36 -37,65 -91,160 -309,543 -326,564zm-159 31c56,0 97,1 138,-48 16,-19 233,-400 323,-560l37 -65c6,-10 14,-23 22,-37 32,-53 77,-128 83,-163 2,-13 2,-26 0,-39 -2,-14 -6,-27 -12,-38l0 0c-4,-9 -10,-17 -15,-26l0 0c-2,-4 -4,-7 -7,-12 -32,-55 -74,-127 -115,-199 -86,-149 -173,-299 -261,-448 -6,-11 -13,-23 -19,-34l0 0c-25,-45 -48,-86 -92,-105 -25,-11 -46,-10 -69,-10 -6,0 -11,0 -18,0l-837 2 0 0c-85,-1 -116,56 -150,119 -6,10 -11,21 -16,30l-301 524c-5,9 -13,22 -21,36 -32,53 -78,129 -84,164 -2,13 -2,26 0,39 2,14 6,27 12,38 14,28 60,107 96,167 15,25 27,46 36,60 29,51 59,101 88,152 31,53 60,104 89,153 14,24 25,43 37,63l0 0c17,30 35,60 52,90l0 0c7,12 14,24 20,35 25,45 47,85 91,104 30,13 92,11 140,10 13,0 25,-1 35,-1l704 -2 13 0 0 0z"/>
  <path class="fil18" d="M7447 2320c-49,58 -95,58 -159,58l-13 0 -705 2 0 0c-10,0 -22,0 -34,1 -50,1 -115,3 -151,-12 -53,-22 -77,-67 -104,-115 -6,-12 -13,-24 -19,-34l0 0c-18,-30 -35,-60 -52,-90 -13,-22 -26,-45 -37,-63 -32,-54 -61,-104 -89,-153 -29,-51 -59,-101 -88,-152 -7,-13 -20,-35 -35,-60 -36,-60 -83,-140 -97,-169 -7,-13 -12,-29 -14,-46 -2,-15 -2,-31 0,-47 7,-40 54,-118 87,-174 8,-13 15,-25 21,-36l301 -524c6,-11 11,-20 16,-29 38,-70 73,-134 174,-133l837 -2 0 0c6,0 12,0 17,0 25,0 49,-1 79,12 53,22 77,67 105,116 6,11 12,22 19,33 85,143 173,295 260,447 36,62 72,125 116,201 2,3 4,7 7,11l0 0c6,9 11,19 16,28l0 0c6,13 12,29 14,46 2,15 2,31 0,47 -7,41 -53,118 -86,173l0 0c-9,14 -16,27 -22,37l0 0c-8,15 -20,36 -37,65 -91,160 -308,542 -325,563zm-159 31c56,0 97,1 138,-48 16,-19 232,-399 323,-559l37 -66 0 0c6,-11 14,-23 22,-37l0 0c32,-53 77,-128 83,-163 2,-13 2,-26 0,-39 -2,-14 -6,-27 -12,-38l0 0c-4,-9 -9,-17 -15,-26l0 0c-2,-4 -4,-7 -7,-12 -33,-57 -74,-128 -116,-201 -86,-148 -172,-298 -260,-446 -7,-12 -13,-23 -19,-34 -25,-45 -48,-86 -92,-105 -25,-11 -46,-10 -69,-10 -6,0 -11,0 -18,0l-837 2 0 0c-85,-1 -116,56 -150,119 -6,10 -11,21 -16,30l-301 524c-5,9 -13,22 -21,36 -32,54 -78,129 -83,164 -2,13 -2,26 0,39 2,14 6,27 12,38 14,28 61,107 96,167 15,25 27,46 35,60 29,51 59,101 88,152 31,53 60,104 89,153 14,24 25,43 37,63 17,30 35,61 52,89l0 0c8,13 14,24 20,35 25,45 47,85 91,104 30,13 92,11 140,10 13,0 25,-1 35,-1l705 -2 13 0 0 0z"/>
  <path class="fil19" d="M7441 4436c-49,58 -95,58 -159,58l-13 0 -704 2 0 0c-10,0 -21,0 -34,1 -50,1 -115,3 -151,-12 -53,-22 -77,-67 -104,-115 -6,-11 -13,-23 -19,-34 -18,-31 -36,-61 -53,-91l0 0c-11,-20 -23,-40 -36,-62 -31,-54 -61,-104 -89,-153 -29,-51 -59,-101 -88,-152l0 0c-6,-11 -20,-34 -35,-60 -36,-60 -83,-140 -97,-169 -7,-13 -12,-29 -14,-46 -2,-15 -2,-31 0,-47 7,-40 54,-118 87,-174 8,-13 15,-25 21,-36l301 -524c6,-11 11,-20 16,-29 38,-70 73,-134 174,-133l837 -2 0 0c6,0 12,0 17,0 25,0 49,-1 79,12 53,22 77,67 105,116 6,11 12,22 19,33 85,143 172,295 259,445 36,63 73,126 117,202 3,5 5,8 7,11l0 0c5,9 11,18 16,28 6,13 12,29 14,46 2,15 2,31 0,47 -7,41 -53,118 -86,173 -8,14 -16,27 -22,37 -9,15 -20,36 -37,65 -91,160 -308,543 -325,563zm-159 31c56,0 97,1 138,-48 16,-19 232,-399 323,-559l37 -65c6,-10 14,-23 22,-37 32,-53 77,-128 83,-163 2,-13 2,-26 0,-39 -2,-14 -6,-27 -12,-38 -4,-8 -9,-17 -15,-26l0 0c-3,-5 -5,-9 -7,-12 -33,-57 -75,-129 -117,-202 -85,-148 -171,-297 -259,-445 -7,-12 -13,-23 -19,-34 -25,-45 -48,-86 -92,-105 -25,-11 -46,-10 -69,-10 -6,0 -12,0 -18,0l-837 2 0 0c-85,-1 -116,56 -150,119 -6,10 -11,21 -16,30l-301 524c-5,9 -13,22 -22,36 -32,53 -78,129 -83,164 -2,13 -2,26 0,39 2,14 6,27 12,38 14,28 61,107 96,167 14,24 26,44 35,60l0 0c29,51 59,101 88,152 31,53 60,104 89,153 11,19 24,40 36,62l0 0c18,31 36,62 53,91 7,12 14,24 20,35 25,45 47,85 91,104 30,13 92,11 140,10l0 0c13,0 25,-1 35,-1l704 -2 14 0 0 0z"/>
  <path class="fil20" d="M7441 6552c-49,58 -95,58 -159,58l-13 0 -704 2 0 0c-10,0 -22,0 -35,1 -50,1 -115,3 -150,-12 -53,-22 -77,-67 -104,-115 -6,-11 -13,-23 -19,-34 -17,-29 -35,-60 -53,-91l0 0c-13,-22 -26,-44 -36,-63 -31,-54 -61,-104 -89,-153 -29,-51 -59,-101 -88,-152 -7,-13 -20,-35 -35,-60 -36,-60 -83,-139 -97,-169 -7,-13 -12,-29 -14,-46 -2,-15 -2,-31 0,-47 7,-40 54,-118 87,-174 8,-13 15,-25 21,-36l301 -524c6,-11 11,-20 16,-29 38,-70 73,-134 174,-133l837 -2 0 0c6,0 12,0 17,0 25,0 49,-1 79,12 53,22 77,67 105,116 6,11 12,22 19,33 85,143 172,295 259,445 36,63 73,126 117,202 2,3 4,7 7,11l0 0c6,9 11,19 16,28l0 0c6,13 12,29 14,46 2,15 2,31 0,47 -7,41 -53,117 -86,173l0 0c-8,14 -15,26 -22,37 -10,18 -21,36 -37,65 -91,160 -308,543 -325,563zm-159 31c56,0 97,0 138,-48 16,-19 232,-400 323,-559l37 -65c5,-9 13,-23 22,-37l0 0c32,-53 77,-128 83,-163 2,-13 2,-26 0,-39 -2,-14 -6,-27 -12,-38l0 0c-4,-9 -9,-17 -14,-26l0 0c-2,-4 -4,-7 -7,-12 -33,-58 -75,-129 -117,-202 -85,-148 -171,-297 -259,-445 -7,-12 -13,-23 -19,-34 -25,-45 -48,-86 -92,-105 -25,-11 -46,-10 -69,-10 -6,0 -11,0 -18,0l-837 2 0 0c-85,-1 -116,56 -150,119 -6,10 -11,21 -16,30l-301 524c-5,9 -13,22 -21,36 -32,53 -78,129 -84,165 -2,13 -2,26 0,39 2,14 6,27 12,38 14,28 61,107 96,167 15,25 27,46 36,60 29,51 59,101 88,152 31,53 60,104 89,153 14,24 25,43 36,63l0 0c17,30 34,59 53,90 7,12 14,24 20,35 25,45 47,85 91,104 30,13 92,11 140,10 13,0 25,-1 35,-1l704 -2 14 0 0 0z"/>
  <path class="fil21" d="M6490 1220l20 0 63 170 -26 0 -47 -137 -47 137 -26 0 63 -170zm-34 110l89 0 0 23 -89 0 0 -23zm140 -61l24 0 0 121 -24 0 0 -121zm67 29c-2,-3 -5,-5 -8,-6 -3,-1 -7,-2 -11,-2 -8,0 -13,2 -18,6 -4,4 -6,10 -6,17l-2 -23c4,-7 9,-13 14,-17 6,-4 12,-6 20,-6 6,0 11,1 15,2 4,2 8,4 12,7l-15 21zm67 93c-10,0 -17,-3 -22,-8 -5,-5 -7,-13 -7,-24l0 -125 24 0 0 125c0,3 1,5 2,7 1,2 3,2 5,2l11 0 0 23 -14 0zm-41 -122l55 0 0 21 -55 0 0 -21zm87 -49l24 0 0 24 -24 0 0 -24zm0 49l24 0 0 121 -24 0 0 -121zm63 -16c0,-11 2,-19 7,-24 5,-5 13,-8 23,-8l18 0 0 23 -17 0c-2,0 -4,1 -5,3 -1,2 -2,4 -2,7l0 138 -24 0 0 -138zm-13 16l61 0 0 20 -61 0 0 -20zm89 -49l24 0 0 24 -24 0 0 -24zm0 49l24 0 0 121 -24 0 0 -121zm109 123c-11,0 -20,-2 -28,-6 -8,-4 -14,-10 -18,-18 -4,-8 -6,-17 -6,-28l0 -20c0,-11 2,-20 6,-28 4,-8 10,-14 18,-18 8,-4 17,-6 28,-6 6,0 12,1 18,2 6,2 11,4 15,7 4,3 8,6 11,10l0 0 -17 15 0 0c-3,-4 -7,-7 -12,-9 -5,-2 -9,-3 -14,-3 -9,0 -16,3 -21,8 -5,5 -8,12 -8,22l0 20c0,10 3,17 8,22 5,5 12,8 21,8 5,0 10,-1 14,-3 5,-2 9,-5 12,-10l0 0 17 17 0 0c-3,4 -7,7 -11,10 -4,3 -9,5 -15,6 -6,1 -11,2 -18,2zm70 -171l24 0 0 24 -24 0 0 -24zm0 49l24 0 0 121 -24 0 0 -121zm128 44c0,-8 -2,-14 -6,-18 -4,-4 -10,-7 -18,-7 -5,0 -10,1 -14,2 -5,1 -9,4 -12,6l-17 -12c5,-5 11,-10 18,-13 8,-3 16,-5 25,-5 10,0 19,2 26,5 7,4 13,9 16,15 4,7 6,15 6,24l0 78 -23 0 0 -77zm-30 79c-15,0 -26,-3 -33,-9 -7,-6 -11,-16 -11,-28 0,-12 3,-21 10,-27 7,-6 17,-9 31,-9l34 0 2 19 -36 0c-6,0 -11,1 -14,4 -3,3 -5,7 -5,13 0,6 2,11 6,14 4,3 10,4 19,4 9,0 16,-1 20,-3 4,-2 7,-5 7,-9l2 17c-2,3 -5,6 -8,8 -3,2 -7,4 -11,5 -4,1 -9,2 -14,2zm112 -33c0,3 1,5 2,7 1,2 3,2 5,2l11 0 0 23 -14 0c-9,0 -16,-3 -21,-8 -5,-6 -7,-13 -7,-24l0 -138 24 0 0 138zm-1004 318l-24 0 0 -170 24 0 0 170zm40 -121l24 0 0 121 -24 0 0 -121zm74 48c0,-9 -2,-15 -7,-20 -4,-5 -11,-7 -19,-7 -8,0 -14,2 -18,6 -4,4 -6,10 -6,17l-2 -23c4,-7 9,-13 15,-17 6,-4 13,-6 20,-6 13,0 23,4 31,13 7,9 11,21 11,36l0 74 -24 0 0 -73zm91 74c-10,0 -17,-3 -22,-8 -5,-5 -7,-13 -7,-24l0 -125 24 0 0 125c0,3 1,5 2,7 1,2 3,2 5,2l11 0 0 23 -14 0zm-41 -122l55 0 0 21 -55 0 0 -21zm137 123c-11,0 -21,-2 -29,-6 -8,-4 -14,-10 -18,-19 -4,-8 -6,-18 -6,-29l0 -14c0,-12 2,-22 6,-31 4,-8 10,-15 17,-19 8,-4 17,-7 28,-7 10,0 19,3 26,8 7,5 13,12 16,22 4,10 6,21 6,34l0 8 -82 0 0 -19 59 0 0 0c-1,-10 -3,-18 -8,-23 -4,-5 -10,-8 -18,-8 -9,0 -16,3 -21,9 -5,6 -7,14 -7,25l0 15c0,10 3,18 8,23 5,5 13,8 23,8 5,0 10,-1 14,-3 5,-2 9,-5 13,-8l0 0 16 16 0 0c-6,6 -13,10 -20,13 -7,3 -15,5 -23,5zm102 -33c0,3 1,5 2,7 1,2 3,2 5,2l11 0 0 23 -14 0c-9,0 -16,-3 -21,-8 -5,-6 -7,-13 -7,-24l0 -138 24 0 0 138zm69 0c0,3 1,5 2,7 1,2 3,2 5,2l11 0 0 23 -14 0c-9,0 -16,-3 -21,-8 -5,-6 -7,-13 -7,-24l0 -138 24 0 0 138zm95 33c-11,0 -21,-2 -29,-6 -8,-4 -14,-10 -18,-19 -4,-8 -6,-18 -6,-29l0 -14c0,-12 2,-22 6,-31 4,-8 10,-15 17,-19 8,-4 17,-7 28,-7 10,0 19,3 26,8 7,5 13,12 16,22 4,10 6,21 6,34l0 8 -82 0 0 -19 59 0 0 0c-1,-10 -3,-18 -8,-23 -4,-5 -10,-8 -18,-8 -9,0 -16,3 -21,9 -5,6 -7,14 -7,25l0 15c0,10 3,18 8,23 5,5 13,8 23,8 5,0 10,-1 14,-3 5,-2 9,-5 13,-8l0 0 16 16 0 0c-6,6 -13,10 -20,13 -7,3 -15,5 -23,5zm119 47c-9,0 -17,-2 -24,-5 -7,-3 -13,-8 -17,-14l0 0 16 -15 0 0c3,4 7,8 11,10 4,2 9,4 14,4 9,0 16,-3 21,-8 5,-5 7,-12 7,-21l0 -121 24 0 0 117c0,11 -2,21 -6,29 -4,8 -10,14 -18,18 -8,4 -17,6 -28,6zm-2 -47c-9,0 -16,-2 -23,-6 -6,-4 -11,-9 -14,-17 -3,-7 -5,-16 -5,-27l0 -27c0,-10 2,-19 5,-27 3,-7 8,-13 14,-17 6,-4 13,-6 22,-6 7,0 14,2 20,6 6,4 11,9 14,16l-2 25c0,-5 -1,-10 -3,-13 -2,-4 -5,-6 -8,-8 -4,-2 -8,-3 -13,-3 -8,0 -14,2 -18,7 -4,5 -6,12 -6,21l0 26c0,9 2,16 6,20 4,5 10,7 18,7 5,0 9,-1 13,-3 4,-2 6,-5 8,-9 2,-4 3,-8 3,-13l2 26c-2,6 -6,11 -12,15 -6,4 -12,6 -20,6zm90 -172l24 0 0 24 -24 0 0 -24zm0 49l24 0 0 121 -24 0 0 -121zm60 0l24 0 0 121 -24 0 0 -121zm74 48c0,-9 -2,-15 -7,-20 -4,-5 -11,-7 -19,-7 -8,0 -14,2 -18,6 -4,4 -6,10 -6,17l-2 -23c4,-7 9,-13 15,-17 6,-4 13,-6 20,-6 13,0 23,4 31,13 7,9 11,21 11,36l0 74 -24 0 0 -73zm109 75c-11,0 -20,-2 -28,-6 -8,-4 -14,-10 -18,-18 -4,-8 -6,-17 -6,-28l0 -20c0,-11 2,-20 6,-28 4,-8 10,-14 18,-18 8,-4 17,-6 28,-6 6,0 12,1 18,2 6,2 11,4 15,7 4,3 8,6 11,10l0 0 -17 15 0 0c-3,-4 -7,-7 -12,-9 -5,-2 -9,-3 -14,-3 -9,0 -16,3 -21,8 -5,5 -8,12 -8,22l0 20c0,10 3,17 8,22 5,5 12,8 21,8 5,0 10,-1 14,-3 5,-2 9,-5 12,-10l0 0 17 17 0 0c-3,4 -7,7 -11,10 -4,3 -9,5 -15,6 -6,1 -11,2 -18,2zm120 0c-11,0 -21,-2 -29,-6 -8,-4 -14,-10 -18,-19 -4,-8 -6,-18 -6,-29l0 -14c0,-12 2,-22 6,-31 4,-8 10,-15 17,-19 8,-4 17,-7 28,-7 10,0 19,3 26,8 7,5 13,12 16,22 4,10 6,21 6,34l0 8 -82 0 0 -19 59 0 0 0c-1,-10 -3,-18 -8,-23 -4,-5 -10,-8 -18,-8 -9,0 -16,3 -21,9 -5,6 -7,14 -7,25l0 15c0,10 3,18 8,23 5,5 13,8 23,8 5,0 10,-1 14,-3 5,-2 9,-5 13,-8l0 0 16 16 0 0c-6,6 -13,10 -20,13 -7,3 -15,5 -23,5z"/>
  <path class="fil21" d="M6422 3375c-12,0 -22,-3 -31,-8 -9,-5 -16,-13 -21,-22 -5,-10 -7,-21 -7,-33l0 -47c0,-13 2,-24 7,-33 5,-10 12,-17 21,-22 9,-5 19,-8 31,-8 10,0 19,2 27,6 8,4 15,10 20,18 5,8 9,16 11,26l0 0 -24 0 0 0c-1,-5 -4,-10 -7,-14 -3,-4 -8,-7 -12,-10 -5,-2 -9,-3 -14,-3 -7,0 -13,2 -18,5 -5,3 -9,8 -12,14 -3,6 -4,13 -4,21l0 47c0,8 1,15 4,21 3,6 7,11 12,14 5,3 11,5 18,5 5,0 10,-1 15,-3 5,-2 9,-5 12,-9 3,-4 6,-9 7,-15l0 0 24 0 0 0c-2,10 -6,19 -11,26 -5,8 -12,14 -21,18 -8,4 -17,6 -27,6zm163 -123l24 0 0 121 -24 0 0 -121zm-49 74c0,8 2,15 6,20 4,5 10,7 18,7 8,0 14,-2 18,-6 4,-4 6,-10 6,-18l2 25c-3,6 -7,11 -12,15 -6,4 -12,6 -21,6 -13,0 -24,-4 -31,-13 -7,-9 -11,-21 -11,-36l0 -74 24 0 0 74zm152 49c-7,0 -14,-1 -20,-2 -6,-1 -12,-4 -18,-6 -5,-3 -10,-6 -15,-11l0 0 14 -17 0 0c7,5 13,9 20,11 6,3 13,4 19,4 9,0 16,-1 21,-4 5,-3 7,-7 7,-13 0,-4 -1,-7 -4,-9 -3,-2 -6,-3 -10,-4 -4,-1 -9,-1 -16,-2 -1,0 -1,0 -2,0 -1,0 -1,0 -2,0 0,0 -1,0 -1,0 0,0 -1,0 -1,0 -8,-1 -15,-2 -20,-3 -5,-2 -10,-5 -14,-9 -4,-5 -5,-11 -5,-20 0,-9 2,-16 5,-21 3,-6 9,-10 16,-13 7,-3 16,-4 26,-4 6,0 12,1 18,2 6,1 11,3 16,5 5,2 10,5 15,9l0 0 -14 17 0 0c-6,-4 -12,-7 -18,-9 -6,-2 -12,-3 -17,-3 -8,0 -14,1 -18,4 -4,3 -6,7 -6,12 0,3 1,6 3,7 2,2 5,3 9,3 4,1 8,1 15,1 0,0 1,0 1,0 1,0 1,0 2,0 0,0 0,0 1,0 0,0 0,0 1,0 8,1 16,2 22,3 6,2 11,5 15,10 4,5 6,12 6,22 0,9 -2,16 -6,22 -4,6 -9,10 -17,13 -7,3 -17,4 -28,4zm113 -1c-10,0 -17,-3 -22,-8 -5,-5 -7,-13 -7,-24l0 -125 24 0 0 125c0,3 1,5 2,7 1,2 3,2 5,2l11 0 0 23 -14 0zm-41 -122l55 0 0 21 -55 0 0 -21zm134 123c-11,0 -19,-2 -27,-6 -7,-4 -13,-10 -17,-18 -4,-8 -6,-17 -6,-29l0 -20c0,-11 2,-20 6,-28 4,-8 10,-14 17,-18 7,-4 16,-6 27,-6 10,0 19,2 27,6 7,4 13,10 17,18 4,8 6,17 6,28l0 20c0,11 -2,21 -6,28 -4,8 -10,14 -17,18 -7,4 -16,6 -27,6zm0 -23c8,0 15,-3 19,-8 5,-5 7,-13 7,-22l0 -20c0,-9 -2,-17 -7,-22 -5,-5 -11,-8 -19,-8 -8,0 -15,3 -19,8 -5,5 -7,12 -7,22l0 20c0,9 2,17 7,22 5,5 11,8 19,8zm228 -53c0,-9 -2,-15 -7,-20 -4,-5 -11,-7 -19,-7 -7,0 -13,2 -17,7 -4,5 -6,11 -6,19l-5 -23c4,-8 9,-14 15,-19 6,-4 13,-7 21,-7 9,0 16,2 22,6 6,4 11,9 14,17 3,7 5,16 5,27l0 74 -24 0 0 -73zm-145 -48l24 0 0 121 -24 0 0 -121zm72 48c0,-9 -2,-15 -6,-20 -4,-5 -10,-7 -18,-7 -8,0 -14,2 -18,6 -4,4 -6,10 -6,17l-2 -23c4,-7 9,-13 15,-17 6,-4 13,-6 20,-6 8,0 16,2 22,6 6,4 11,9 14,17 3,7 5,16 5,27l0 74 -24 0 0 -73zm182 75c-11,0 -21,-2 -29,-6 -8,-4 -14,-10 -18,-19 -4,-8 -6,-18 -6,-29l0 -14c0,-12 2,-22 6,-31 4,-8 10,-15 17,-19 8,-4 17,-7 28,-7 10,0 19,3 26,8 7,5 13,12 16,22 4,10 6,21 6,34l0 8 -82 0 0 -19 59 0 0 0c-1,-10 -3,-18 -8,-23 -4,-5 -10,-8 -18,-8 -9,0 -16,3 -21,9 -5,6 -7,14 -7,25l0 15c0,10 3,18 8,23 5,5 13,8 23,8 5,0 10,-1 14,-3 5,-2 9,-5 13,-8l0 0 16 16 0 0c-6,6 -13,10 -20,13 -7,3 -15,5 -23,5zm79 -123l24 0 0 121 -24 0 0 -121zm67 29c-2,-3 -5,-5 -8,-6 -3,-1 -7,-2 -11,-2 -8,0 -13,2 -18,6 -4,4 -6,10 -6,17l-2 -23c4,-7 9,-13 14,-17 6,-4 12,-6 20,-6 6,0 11,1 15,2 4,2 8,4 12,7l-15 21zm-1153 210l24 0 0 170 -24 0 0 -170zm12 147l97 0 0 23 -97 0 0 -23zm0 -73l85 0 0 23 -85 0 0 -23zm0 -74l97 0 0 23 -97 0 0 -23zm129 49l24 0 0 121 -24 0 0 -121zm74 48c0,-9 -2,-15 -7,-20 -4,-5 -11,-7 -19,-7 -8,0 -14,2 -18,6 -4,4 -6,10 -6,17l-2 -23c4,-7 9,-13 15,-17 6,-4 13,-6 20,-6 13,0 23,4 31,13 7,9 11,21 11,36l0 74 -24 0 0 -73zm101 123c-9,0 -17,-2 -24,-5 -7,-3 -13,-8 -17,-14l0 0 16 -15 0 0c3,4 7,8 11,10 4,2 9,4 14,4 9,0 16,-3 21,-8 5,-5 7,-12 7,-21l0 -121 24 0 0 117c0,11 -2,21 -6,29 -4,8 -10,14 -18,18 -8,4 -17,6 -28,6zm-2 -47c-9,0 -16,-2 -23,-6 -6,-4 -11,-9 -14,-17 -3,-7 -5,-16 -5,-27l0 -27c0,-10 2,-19 5,-27 3,-7 8,-13 14,-17 6,-4 13,-6 22,-6 7,0 14,2 20,6 6,4 11,9 14,16l-2 25c0,-5 -1,-10 -3,-13 -2,-4 -5,-6 -8,-8 -4,-2 -8,-3 -13,-3 -8,0 -14,2 -18,7 -4,5 -6,12 -6,21l0 26c0,9 2,16 6,20 4,5 10,7 18,7 5,0 9,-1 13,-3 4,-2 6,-5 8,-9 2,-4 3,-8 3,-13l2 26c-2,6 -6,11 -12,15 -6,4 -12,6 -20,6zm159 -79c0,-8 -2,-14 -6,-18 -4,-4 -10,-7 -18,-7 -5,0 -10,1 -14,2 -5,1 -9,4 -12,6l-17 -12c5,-5 11,-10 18,-13 8,-3 16,-5 25,-5 10,0 19,2 26,5 7,4 13,9 16,15 4,7 6,15 6,24l0 78 -23 0 0 -77zm-30 79c-15,0 -26,-3 -33,-9 -7,-6 -11,-16 -11,-28 0,-12 3,-21 10,-27 7,-6 17,-9 31,-9l34 0 2 19 -36 0c-6,0 -11,1 -14,4 -3,3 -5,7 -5,13 0,6 2,11 6,14 4,3 10,4 19,4 9,0 16,-1 20,-3 4,-2 7,-5 7,-9l2 17c-2,3 -5,6 -8,8 -3,2 -7,4 -11,5 -4,1 -9,2 -14,2zm129 47c-9,0 -17,-2 -24,-5 -7,-3 -13,-8 -17,-14l0 0 16 -15 0 0c3,4 7,8 11,10 4,2 9,4 14,4 9,0 16,-3 21,-8 5,-5 7,-12 7,-21l0 -121 24 0 0 117c0,11 -2,21 -6,29 -4,8 -10,14 -18,18 -8,4 -17,6 -28,6zm-2 -47c-9,0 -16,-2 -23,-6 -6,-4 -11,-9 -14,-17 -3,-7 -5,-16 -5,-27l0 -27c0,-10 2,-19 5,-27 3,-7 8,-13 14,-17 6,-4 13,-6 22,-6 7,0 14,2 20,6 6,4 11,9 14,16l-2 25c0,-5 -1,-10 -3,-13 -2,-4 -5,-6 -8,-8 -4,-2 -8,-3 -13,-3 -8,0 -14,2 -18,7 -4,5 -6,12 -6,21l0 26c0,9 2,16 6,20 4,5 10,7 18,7 5,0 9,-1 13,-3 4,-2 6,-5 8,-9 2,-4 3,-8 3,-13l2 26c-2,6 -6,11 -12,15 -6,4 -12,6 -20,6zm140 0c-11,0 -21,-2 -29,-6 -8,-4 -14,-10 -18,-19 -4,-8 -6,-18 -6,-29l0 -14c0,-12 2,-22 6,-31 4,-8 10,-15 17,-19 8,-4 17,-7 28,-7 10,0 19,3 26,8 7,5 13,12 16,22 4,10 6,21 6,34l0 8 -82 0 0 -19 59 0 0 0c-1,-10 -3,-18 -8,-23 -4,-5 -10,-8 -18,-8 -9,0 -16,3 -21,9 -5,6 -7,14 -7,25l0 15c0,10 3,18 8,23 5,5 13,8 23,8 5,0 10,-1 14,-3 5,-2 9,-5 13,-8l0 0 16 16 0 0c-6,6 -13,10 -20,13 -7,3 -15,5 -23,5zm223 -75c0,-9 -2,-15 -7,-20 -4,-5 -11,-7 -19,-7 -7,0 -13,2 -17,7 -4,5 -6,11 -6,19l-5 -23c4,-8 9,-14 15,-19 6,-4 13,-7 21,-7 9,0 16,2 22,6 6,4 11,9 14,17 3,7 5,16 5,27l0 74 -24 0 0 -73zm-145 -48l24 0 0 121 -24 0 0 -121zm72 48c0,-9 -2,-15 -6,-20 -4,-5 -10,-7 -18,-7 -8,0 -14,2 -18,6 -4,4 -6,10 -6,17l-2 -23c4,-7 9,-13 15,-17 6,-4 13,-6 20,-6 8,0 16,2 22,6 6,4 11,9 14,17 3,7 5,16 5,27l0 74 -24 0 0 -73zm182 75c-11,0 -21,-2 -29,-6 -8,-4 -14,-10 -18,-19 -4,-8 -6,-18 -6,-29l0 -14c0,-12 2,-22 6,-31 4,-8 10,-15 17,-19 8,-4 17,-7 28,-7 10,0 19,3 26,8 7,5 13,12 16,22 4,10 6,21 6,34l0 8 -82 0 0 -19 59 0 0 0c-1,-10 -3,-18 -8,-23 -4,-5 -10,-8 -18,-8 -9,0 -16,3 -21,9 -5,6 -7,14 -7,25l0 15c0,10 3,18 8,23 5,5 13,8 23,8 5,0 10,-1 14,-3 5,-2 9,-5 13,-8l0 0 16 16 0 0c-6,6 -13,10 -20,13 -7,3 -15,5 -23,5zm79 -123l24 0 0 121 -24 0 0 -121zm74 48c0,-9 -2,-15 -7,-20 -4,-5 -11,-7 -19,-7 -8,0 -14,2 -18,6 -4,4 -6,10 -6,17l-2 -23c4,-7 9,-13 15,-17 6,-4 13,-6 20,-6 13,0 23,4 31,13 7,9 11,21 11,36l0 74 -24 0 0 -73zm91 74c-10,0 -17,-3 -22,-8 -5,-5 -7,-13 -7,-24l0 -125 24 0 0 125c0,3 1,5 2,7 1,2 3,2 5,2l11 0 0 23 -14 0zm-41 -122l55 0 0 21 -55 0 0 -21zm-800 238l20 0 63 170 -26 0 -47 -137 -47 137 -26 0 63 -170zm-34 110l89 0 0 23 -89 0 0 -23zm140 -61l24 0 0 170 -24 0 0 -170zm54 123c-8,0 -14,-2 -20,-5 -6,-4 -10,-9 -12,-15l2 -25c0,5 1,10 3,13 2,4 5,6 8,8 4,2 8,3 13,3 8,0 14,-2 18,-7 4,-5 6,-12 6,-20l0 -26c0,-9 -2,-16 -6,-21 -4,-5 -10,-7 -18,-7 -5,0 -9,1 -13,3 -4,2 -6,5 -8,8 -2,4 -3,8 -3,13l-2 -23c4,-7 8,-13 14,-16 6,-4 13,-6 20,-6 9,0 16,2 22,6 6,4 11,9 14,17 3,7 5,16 5,27l0 26c0,10 -2,19 -5,26 -3,7 -8,13 -14,17 -6,4 -14,6 -23,6zm76 -123l24 0 0 170 -24 0 0 -170zm54 123c-8,0 -14,-2 -20,-5 -6,-4 -10,-9 -12,-15l2 -25c0,5 1,10 3,13 2,4 5,6 8,8 4,2 8,3 13,3 8,0 14,-2 18,-7 4,-5 6,-12 6,-20l0 -26c0,-9 -2,-16 -6,-21 -4,-5 -10,-7 -18,-7 -5,0 -9,1 -13,3 -4,2 -6,5 -8,8 -2,4 -3,8 -3,13l-2 -23c4,-7 8,-13 14,-16 6,-4 13,-6 20,-6 9,0 16,2 22,6 6,4 11,9 14,17 3,7 5,16 5,27l0 26c0,10 -2,19 -5,26 -3,7 -8,13 -14,17 -6,4 -14,6 -23,6zm119 0c-7,0 -14,-1 -20,-2 -6,-1 -12,-4 -18,-6 -5,-3 -10,-6 -15,-11l0 0 14 -17 0 0c7,5 13,9 20,11 6,3 13,4 19,4 9,0 16,-1 21,-4 5,-3 7,-7 7,-13 0,-4 -1,-7 -4,-9 -3,-2 -6,-3 -10,-4 -4,-1 -9,-1 -16,-2 -1,0 -1,0 -2,0 -1,0 -1,0 -2,0 0,0 -1,0 -1,0 0,0 -1,0 -1,0 -8,-1 -15,-2 -20,-3 -5,-2 -10,-5 -14,-9 -4,-5 -5,-11 -5,-20 0,-9 2,-16 5,-21 3,-6 9,-10 16,-13 7,-3 16,-4 26,-4 6,0 12,1 18,2 6,1 11,3 16,5 5,2 10,5 15,9l0 0 -14 17 0 0c-6,-4 -12,-7 -18,-9 -6,-2 -12,-3 -17,-3 -8,0 -14,1 -18,4 -4,3 -6,7 -6,12 0,3 1,6 3,7 2,2 5,3 9,3 4,1 8,1 15,1 0,0 1,0 1,0 1,0 1,0 2,0 0,0 0,0 1,0 0,0 0,0 1,0 8,1 16,2 22,3 6,2 11,5 15,10 4,5 6,12 6,22 0,9 -2,16 -6,22 -4,6 -9,10 -17,13 -7,3 -17,4 -28,4z"/>
  <path class="fil21" d="M6683 5318l24 0 0 170 -24 0 0 -170zm12 147l97 0 0 23 -97 0 0 -23zm0 -73l85 0 0 23 -85 0 0 -23zm0 -74l97 0 0 23 -97 0 0 -23zm142 75l58 0c5,0 9,-1 12,-3 4,-2 6,-5 8,-9 2,-4 3,-9 3,-14l0 0c0,-5 -1,-10 -3,-14 -2,-4 -5,-7 -8,-9 -3,-2 -7,-3 -12,-3l-58 0 0 -23 57 0c10,0 18,2 26,6 7,4 13,10 17,17 4,7 6,16 6,26l0 0c0,10 -2,18 -6,26 -4,7 -10,13 -17,17 -7,4 -16,6 -26,6l-57 0 0 -23zm-10 -75l24 0 0 170 -24 0 0 -170zm57 93l24 -5 43 82 -28 0 -39 -77zm111 -11l54 0c5,0 10,-1 14,-4 4,-2 7,-6 9,-10 2,-4 3,-10 3,-15l0 0c0,-6 -1,-11 -3,-15 -2,-4 -5,-8 -9,-10 -4,-2 -8,-4 -14,-4l-54 0 0 -23 53 0c10,0 19,2 27,6 8,4 14,10 18,18 4,8 6,17 6,27l0 0c0,10 -2,19 -6,27 -4,8 -10,14 -18,18 -8,4 -17,6 -27,6l-53 0 0 -23zm-12 -81l24 0 0 170 -24 0 0 -170zm-551 434l46 0c12,0 21,-2 26,-7 6,-5 8,-11 8,-19l0 0c0,-6 -1,-11 -3,-15 -2,-4 -5,-7 -9,-10 -4,-2 -10,-3 -16,-3l-52 0 0 -21 52 0c9,0 15,-2 20,-6 5,-4 7,-10 7,-18l0 0c0,-8 -3,-15 -7,-19 -5,-4 -12,-6 -22,-6l-49 0 0 -22 53 0c11,0 20,2 28,6 7,4 13,9 17,16 4,7 5,15 5,25l0 0c0,6 -1,11 -3,16 -2,5 -6,9 -10,13 -5,4 -10,6 -17,7 7,1 13,3 18,7 5,4 9,9 11,14 3,6 4,12 4,19l0 0c0,9 -2,17 -6,24 -4,7 -10,12 -17,16 -8,4 -16,6 -26,6l-55 0 0 -22zm-14 -148l24 0 0 170 -24 0 0 -170zm225 49l24 0 0 121 -24 0 0 -121zm-49 74c0,8 2,15 6,20 4,5 10,7 18,7 8,0 14,-2 18,-6 4,-4 6,-10 6,-18l2 25c-3,6 -7,11 -12,15 -6,4 -12,6 -21,6 -13,0 -24,-4 -31,-13 -7,-9 -11,-21 -11,-36l0 -74 24 0 0 74zm152 49c-7,0 -14,-1 -20,-2 -6,-1 -12,-4 -18,-6 -5,-3 -10,-6 -15,-11l0 0 14 -17 0 0c7,5 13,9 20,11 6,3 13,4 19,4 9,0 16,-1 21,-4 5,-3 7,-7 7,-13 0,-4 -1,-7 -4,-9 -3,-2 -6,-3 -10,-4 -4,-1 -9,-1 -16,-2 -1,0 -1,0 -2,0 -1,0 -1,0 -2,0 0,0 -1,0 -1,0 0,0 -1,0 -1,0 -8,-1 -15,-2 -20,-3 -5,-2 -10,-5 -14,-9 -4,-5 -5,-11 -5,-20 0,-9 2,-16 5,-21 3,-6 9,-10 16,-13 7,-3 16,-4 26,-4 6,0 12,1 18,2 6,1 11,3 16,5 5,2 10,5 15,9l0 0 -14 17 0 0c-6,-4 -12,-7 -18,-9 -6,-2 -12,-3 -17,-3 -8,0 -14,1 -18,4 -4,3 -6,7 -6,12 0,3 1,6 3,7 2,2 5,3 9,3 4,1 8,1 15,1 0,0 1,0 1,0 1,0 1,0 2,0 0,0 0,0 1,0 0,0 0,0 1,0 8,1 16,2 22,3 6,2 11,5 15,10 4,5 6,12 6,22 0,9 -2,16 -6,22 -4,6 -9,10 -17,13 -7,3 -17,4 -28,4zm81 -171l24 0 0 24 -24 0 0 -24zm0 49l24 0 0 121 -24 0 0 -121zm60 0l24 0 0 121 -24 0 0 -121zm74 48c0,-9 -2,-15 -7,-20 -4,-5 -11,-7 -19,-7 -8,0 -14,2 -18,6 -4,4 -6,10 -6,17l-2 -23c4,-7 9,-13 15,-17 6,-4 13,-6 20,-6 13,0 23,4 31,13 7,9 11,21 11,36l0 74 -24 0 0 -73zm110 75c-11,0 -21,-2 -29,-6 -8,-4 -14,-10 -18,-19 -4,-8 -6,-18 -6,-29l0 -14c0,-12 2,-22 6,-31 4,-8 10,-15 17,-19 8,-4 17,-7 28,-7 10,0 19,3 26,8 7,5 13,12 16,22 4,10 6,21 6,34l0 8 -82 0 0 -19 59 0 0 0c-1,-10 -3,-18 -8,-23 -4,-5 -10,-8 -18,-8 -9,0 -16,3 -21,9 -5,6 -7,14 -7,25l0 15c0,10 3,18 8,23 5,5 13,8 23,8 5,0 10,-1 14,-3 5,-2 9,-5 13,-8l0 0 16 16 0 0c-6,6 -13,10 -20,13 -7,3 -15,5 -23,5zm121 0c-7,0 -14,-1 -20,-2 -6,-1 -12,-4 -18,-6 -5,-3 -10,-6 -15,-11l0 0 14 -17 0 0c7,5 13,9 20,11 6,3 13,4 19,4 9,0 16,-1 21,-4 5,-3 7,-7 7,-13 0,-4 -1,-7 -4,-9 -3,-2 -6,-3 -10,-4 -4,-1 -9,-1 -16,-2 -1,0 -1,0 -2,0 -1,0 -1,0 -2,0 0,0 -1,0 -1,0 0,0 -1,0 -1,0 -8,-1 -15,-2 -20,-3 -5,-2 -10,-5 -14,-9 -4,-5 -5,-11 -5,-20 0,-9 2,-16 5,-21 3,-6 9,-10 16,-13 7,-3 16,-4 26,-4 6,0 12,1 18,2 6,1 11,3 16,5 5,2 10,5 15,9l0 0 -14 17 0 0c-6,-4 -12,-7 -18,-9 -6,-2 -12,-3 -17,-3 -8,0 -14,1 -18,4 -4,3 -6,7 -6,12 0,3 1,6 3,7 2,2 5,3 9,3 4,1 8,1 15,1 0,0 1,0 1,0 1,0 1,0 2,0 0,0 0,0 1,0 0,0 0,0 1,0 8,1 16,2 22,3 6,2 11,5 15,10 4,5 6,12 6,22 0,9 -2,16 -6,22 -4,6 -9,10 -17,13 -7,3 -17,4 -28,4zm124 0c-7,0 -14,-1 -20,-2 -6,-1 -12,-4 -18,-6 -5,-3 -10,-6 -15,-11l0 0 14 -17 0 0c7,5 13,9 20,11 6,3 13,4 19,4 9,0 16,-1 21,-4 5,-3 7,-7 7,-13 0,-4 -1,-7 -4,-9 -3,-2 -6,-3 -10,-4 -4,-1 -9,-1 -16,-2 -1,0 -1,0 -2,0 -1,0 -1,0 -2,0 0,0 -1,0 -1,0 0,0 -1,0 -1,0 -8,-1 -15,-2 -20,-3 -5,-2 -10,-5 -14,-9 -4,-5 -5,-11 -5,-20 0,-9 2,-16 5,-21 3,-6 9,-10 16,-13 7,-3 16,-4 26,-4 6,0 12,1 18,2 6,1 11,3 16,5 5,2 10,5 15,9l0 0 -14 17 0 0c-6,-4 -12,-7 -18,-9 -6,-2 -12,-3 -17,-3 -8,0 -14,1 -18,4 -4,3 -6,7 -6,12 0,3 1,6 3,7 2,2 5,3 9,3 4,1 8,1 15,1 0,0 1,0 1,0 1,0 1,0 2,0 0,0 0,0 1,0 0,0 0,0 1,0 8,1 16,2 22,3 6,2 11,5 15,10 4,5 6,12 6,22 0,9 -2,16 -6,22 -4,6 -9,10 -17,13 -7,3 -17,4 -28,4zm-956 115l20 0 63 170 -26 0 -47 -137 -47 137 -26 0 63 -170zm-34 110l89 0 0 23 -89 0 0 -23zm140 -61l24 0 0 170 -24 0 0 -170zm54 123c-8,0 -14,-2 -20,-5 -6,-4 -10,-9 -12,-15l2 -25c0,5 1,10 3,13 2,4 5,6 8,8 4,2 8,3 13,3 8,0 14,-2 18,-7 4,-5 6,-12 6,-20l0 -26c0,-9 -2,-16 -6,-21 -4,-5 -10,-7 -18,-7 -5,0 -9,1 -13,3 -4,2 -6,5 -8,8 -2,4 -3,8 -3,13l-2 -23c4,-7 8,-13 14,-16 6,-4 13,-6 20,-6 9,0 16,2 22,6 6,4 11,9 14,17 3,7 5,16 5,27l0 26c0,10 -2,19 -5,26 -3,7 -8,13 -14,17 -6,4 -14,6 -23,6zm76 -123l24 0 0 170 -24 0 0 -170zm54 123c-8,0 -14,-2 -20,-5 -6,-4 -10,-9 -12,-15l2 -25c0,5 1,10 3,13 2,4 5,6 8,8 4,2 8,3 13,3 8,0 14,-2 18,-7 4,-5 6,-12 6,-20l0 -26c0,-9 -2,-16 -6,-21 -4,-5 -10,-7 -18,-7 -5,0 -9,1 -13,3 -4,2 -6,5 -8,8 -2,4 -3,8 -3,13l-2 -23c4,-7 8,-13 14,-16 6,-4 13,-6 20,-6 9,0 16,2 22,6 6,4 11,9 14,17 3,7 5,16 5,27l0 26c0,10 -2,19 -5,26 -3,7 -8,13 -14,17 -6,4 -14,6 -23,6zm100 -33c0,3 1,5 2,7 1,2 3,2 5,2l11 0 0 23 -14 0c-9,0 -16,-3 -21,-8 -5,-6 -7,-13 -7,-24l0 -138 24 0 0 138zm45 -138l24 0 0 24 -24 0 0 -24zm0 49l24 0 0 121 -24 0 0 -121zm109 123c-11,0 -20,-2 -28,-6 -8,-4 -14,-10 -18,-18 -4,-8 -6,-17 -6,-28l0 -20c0,-11 2,-20 6,-28 4,-8 10,-14 18,-18 8,-4 17,-6 28,-6 6,0 12,1 18,2 6,2 11,4 15,7 4,3 8,6 11,10l0 0 -17 15 0 0c-3,-4 -7,-7 -12,-9 -5,-2 -9,-3 -14,-3 -9,0 -16,3 -21,8 -5,5 -8,12 -8,22l0 20c0,10 3,17 8,22 5,5 12,8 21,8 5,0 10,-1 14,-3 5,-2 9,-5 12,-10l0 0 17 17 0 0c-3,4 -7,7 -11,10 -4,3 -9,5 -15,6 -6,1 -11,2 -18,2zm139 -79c0,-8 -2,-14 -6,-18 -4,-4 -10,-7 -18,-7 -5,0 -10,1 -14,2 -5,1 -9,4 -12,6l-17 -12c5,-5 11,-10 18,-13 8,-3 16,-5 25,-5 10,0 19,2 26,5 7,4 13,9 16,15 4,7 6,15 6,24l0 78 -23 0 0 -77zm-30 79c-15,0 -26,-3 -33,-9 -7,-6 -11,-16 -11,-28 0,-12 3,-21 10,-27 7,-6 17,-9 31,-9l34 0 2 19 -36 0c-6,0 -11,1 -14,4 -3,3 -5,7 -5,13 0,6 2,11 6,14 4,3 10,4 19,4 9,0 16,-1 20,-3 4,-2 7,-5 7,-9l2 17c-2,3 -5,6 -8,8 -3,2 -7,4 -11,5 -4,1 -9,2 -14,2zm120 -1c-10,0 -17,-3 -22,-8 -5,-5 -7,-13 -7,-24l0 -125 24 0 0 125c0,3 1,5 2,7 1,2 3,2 5,2l11 0 0 23 -14 0zm-41 -122l55 0 0 21 -55 0 0 -21zm87 -49l24 0 0 24 -24 0 0 -24zm0 49l24 0 0 121 -24 0 0 -121zm106 123c-11,0 -19,-2 -27,-6 -7,-4 -13,-10 -17,-18 -4,-8 -6,-17 -6,-29l0 -20c0,-11 2,-20 6,-28 4,-8 10,-14 17,-18 7,-4 16,-6 27,-6 10,0 19,2 27,6 7,4 13,10 17,18 4,8 6,17 6,28l0 20c0,11 -2,21 -6,28 -4,8 -10,14 -17,18 -7,4 -16,6 -27,6zm0 -23c8,0 15,-3 19,-8 5,-5 7,-13 7,-22l0 -20c0,-9 -2,-17 -7,-22 -5,-5 -11,-8 -19,-8 -8,0 -15,3 -19,8 -5,5 -7,12 -7,22l0 20c0,9 2,17 7,22 5,5 11,8 19,8zm84 -100l24 0 0 121 -24 0 0 -121zm74 48c0,-9 -2,-15 -7,-20 -4,-5 -11,-7 -19,-7 -8,0 -14,2 -18,6 -4,4 -6,10 -6,17l-2 -23c4,-7 9,-13 15,-17 6,-4 13,-6 20,-6 13,0 23,4 31,13 7,9 11,21 11,36l0 74 -24 0 0 -73z"/>
  <path class="fil21" d="M8738 2401l46 0c12,0 21,-2 26,-7 6,-5 8,-11 8,-19l0 0c0,-6 -1,-11 -3,-15 -2,-4 -5,-7 -9,-10 -4,-2 -10,-3 -16,-3l-52 0 0 -21 52 0c9,0 15,-2 20,-6 4,-4 7,-10 7,-18l0 0c0,-8 -3,-15 -7,-19 -5,-4 -12,-6 -22,-6l-49 0 0 -22 53 0c11,0 20,2 28,6 7,4 13,9 17,16 4,7 5,15 5,25l0 0c0,6 -1,11 -3,16 -2,5 -6,9 -10,13 -5,4 -10,6 -17,7 7,1 13,3 18,7 5,4 9,9 11,14 3,6 4,12 4,19l0 0c0,9 -2,17 -6,24 -4,7 -10,12 -17,16 -8,4 -16,6 -26,6l-55 0 0 -22zm-14 -148l24 0 0 170 -24 0 0 -170zm178 170l-24 0 0 -170 24 0 0 170zm-737 131l24 0 0 156 -24 0 0 -156zm-48 -14l120 0 0 23 -120 0 0 -23zm173 171c-11,0 -21,-2 -29,-6 -8,-4 -14,-10 -18,-19 -4,-8 -6,-18 -6,-29l0 -14c0,-12 2,-22 6,-31 4,-8 10,-15 17,-19 8,-4 17,-7 28,-7 10,0 19,3 26,8 7,5 13,12 16,22 4,10 6,21 6,34l0 8 -82 0 0 -19 59 0 0 0c-1,-10 -3,-18 -8,-23 -4,-5 -10,-8 -18,-8 -9,0 -16,3 -21,9 -5,6 -7,14 -7,25l0 15c0,10 3,18 8,23 5,5 13,8 23,8 5,0 10,-1 14,-3 5,-2 9,-5 13,-8l0 0 16 16 0 0c-6,6 -13,10 -20,13 -7,3 -15,5 -23,5zm127 0c-11,0 -20,-2 -28,-6 -8,-4 -14,-10 -18,-18 -4,-8 -6,-17 -6,-28l0 -20c0,-11 2,-20 6,-28 4,-8 10,-14 18,-18 8,-4 17,-6 28,-6 6,0 12,1 18,2 6,2 11,4 15,7 4,3 8,6 11,10l0 0 -17 15 0 0c-3,-4 -7,-7 -12,-9 -5,-2 -9,-3 -14,-3 -9,0 -16,3 -21,8 -5,5 -8,12 -8,22l0 20c0,10 3,17 8,22 5,5 12,8 21,8 5,0 10,-1 14,-3 5,-2 9,-5 12,-10l0 0 17 17 0 0c-3,4 -7,7 -11,10 -4,3 -9,5 -15,6 -6,1 -11,2 -18,2zm70 -171l24 0 0 170 -24 0 0 -170zm74 96c0,-9 -2,-15 -7,-20 -4,-5 -11,-7 -19,-7 -8,0 -14,2 -18,6 -4,4 -6,10 -6,17l-2 -23c4,-7 9,-13 15,-17 6,-4 13,-6 20,-6 13,0 23,4 31,13 7,9 11,21 11,36l0 74 -24 0 0 -73zm60 -48l24 0 0 121 -24 0 0 -121zm74 48c0,-9 -2,-15 -7,-20 -4,-5 -11,-7 -19,-7 -8,0 -14,2 -18,6 -4,4 -6,10 -6,17l-2 -23c4,-7 9,-13 15,-17 6,-4 13,-6 20,-6 13,0 23,4 31,13 7,9 11,21 11,36l0 74 -24 0 0 -73zm106 75c-11,0 -19,-2 -27,-6 -7,-4 -13,-10 -17,-18 -4,-8 -6,-17 -6,-29l0 -20c0,-11 2,-20 6,-28 4,-8 10,-14 17,-18 7,-4 16,-6 27,-6 10,0 19,2 27,6 7,4 13,10 17,18 4,8 6,17 6,28l0 20c0,11 -2,21 -6,28 -4,8 -10,14 -17,18 -7,4 -16,6 -27,6zm0 -23c8,0 15,-3 19,-8 5,-5 7,-13 7,-22l0 -20c0,-9 -2,-17 -7,-22 -5,-5 -11,-8 -19,-8 -8,0 -15,3 -19,8 -5,5 -7,12 -7,22l0 20c0,9 2,17 7,22 5,5 11,8 19,8zm108 -10c0,3 1,5 2,7 1,2 3,2 5,2l11 0 0 23 -14 0c-9,0 -16,-3 -21,-8 -5,-6 -7,-13 -7,-24l0 -138 24 0 0 138zm92 33c-11,0 -19,-2 -27,-6 -7,-4 -13,-10 -17,-18 -4,-8 -6,-17 -6,-29l0 -20c0,-11 2,-20 6,-28 4,-8 10,-14 17,-18 7,-4 16,-6 27,-6 10,0 19,2 27,6 7,4 13,10 17,18 4,8 6,17 6,28l0 20c0,11 -2,21 -6,28 -4,8 -10,14 -17,18 -7,4 -16,6 -27,6zm0 -23c8,0 15,-3 19,-8 5,-5 7,-13 7,-22l0 -20c0,-9 -2,-17 -7,-22 -5,-5 -11,-8 -19,-8 -8,0 -15,3 -19,8 -5,5 -7,12 -7,22l0 20c0,9 2,17 7,22 5,5 11,8 19,8zm124 70c-9,0 -17,-2 -24,-5 -7,-3 -13,-8 -17,-14l0 0 16 -15 0 0c3,4 7,8 11,10 4,2 9,4 14,4 9,0 16,-3 21,-8 5,-5 7,-12 7,-21l0 -121 24 0 0 117c0,11 -2,21 -6,29 -4,8 -10,14 -18,18 -8,4 -17,6 -28,6zm-2 -47c-9,0 -16,-2 -23,-6 -6,-4 -11,-9 -14,-17 -3,-7 -5,-16 -5,-27l0 -27c0,-10 2,-19 5,-27 3,-7 8,-13 14,-17 6,-4 13,-6 22,-6 7,0 14,2 20,6 6,4 11,9 14,16l-2 25c0,-5 -1,-10 -3,-13 -2,-4 -5,-6 -8,-8 -4,-2 -8,-3 -13,-3 -8,0 -14,2 -18,7 -4,5 -6,12 -6,21l0 26c0,9 2,16 6,20 4,5 10,7 18,7 5,0 9,-1 13,-3 4,-2 6,-5 8,-9 2,-4 3,-8 3,-13l2 26c-2,6 -6,11 -12,15 -6,4 -12,6 -20,6zm90 -172l24 0 0 24 -24 0 0 -24zm0 49l24 0 0 121 -24 0 0 -121zm110 123c-11,0 -21,-2 -29,-6 -8,-4 -14,-10 -18,-19 -4,-8 -6,-18 -6,-29l0 -14c0,-12 2,-22 6,-31 4,-8 10,-15 17,-19 8,-4 17,-7 28,-7 10,0 19,3 26,8 7,5 13,12 16,22 4,10 6,21 6,34l0 8 -82 0 0 -19 59 0 0 0c-1,-10 -3,-18 -8,-23 -4,-5 -10,-8 -18,-8 -9,0 -16,3 -21,9 -5,6 -7,14 -7,25l0 15c0,10 3,18 8,23 5,5 13,8 23,8 5,0 10,-1 14,-3 5,-2 9,-5 13,-8l0 0 16 16 0 0c-6,6 -13,10 -20,13 -7,3 -15,5 -23,5zm121 0c-7,0 -14,-1 -20,-2 -6,-1 -12,-4 -18,-6 -5,-3 -10,-6 -15,-11l0 0 14 -17 0 0c7,5 13,9 20,11 6,3 13,4 19,4 9,0 16,-1 21,-4 5,-3 7,-7 7,-13 0,-4 -1,-7 -4,-9 -3,-2 -6,-3 -10,-4 -4,-1 -9,-1 -16,-2 -1,0 -1,0 -2,0 -1,0 -1,0 -2,0 0,0 -1,0 -1,0 0,0 -1,0 -1,0 -8,-1 -15,-2 -20,-3 -5,-2 -10,-5 -14,-9 -4,-5 -5,-11 -5,-20 0,-9 2,-16 5,-21 3,-6 9,-10 16,-13 7,-3 16,-4 26,-4 6,0 12,1 18,2 6,1 11,3 16,5 5,2 10,5 15,9l0 0 -14 17 0 0c-6,-4 -12,-7 -18,-9 -6,-2 -12,-3 -17,-3 -8,0 -14,1 -18,4 -4,3 -6,7 -6,12 0,3 1,6 3,7 2,2 5,3 9,3 4,1 8,1 15,1 0,0 1,0 1,0 1,0 1,0 2,0 0,0 0,0 1,0 0,0 0,0 1,0 8,1 16,2 22,3 6,2 11,5 15,10 4,5 6,12 6,22 0,9 -2,16 -6,22 -4,6 -9,10 -17,13 -7,3 -17,4 -28,4z"/>
  <path class="fil21" d="M8272 4573l20 0 63 170 -26 0 -47 -137 -47 137 -26 0 63 -170zm-34 110l89 0 0 23 -89 0 0 -23zm213 -61l24 0 0 121 -24 0 0 -121zm-49 74c0,8 2,15 6,20 4,5 10,7 18,7 8,0 14,-2 18,-6 4,-4 6,-10 6,-18l2 25c-3,6 -7,11 -12,15 -6,4 -12,6 -21,6 -13,0 -24,-4 -31,-13 -7,-9 -11,-21 -11,-36l0 -74 24 0 0 74zm141 48c-10,0 -17,-3 -22,-8 -5,-5 -7,-13 -7,-24l0 -125 24 0 0 125c0,3 1,5 2,7 1,2 3,2 5,2l11 0 0 23 -14 0zm-41 -122l55 0 0 21 -55 0 0 -21zm134 123c-11,0 -19,-2 -27,-6 -7,-4 -13,-10 -17,-18 -4,-8 -6,-17 -6,-29l0 -20c0,-11 2,-20 6,-28 4,-8 10,-14 17,-18 7,-4 16,-6 27,-6 10,0 19,2 27,6 7,4 13,10 17,18 4,8 6,17 6,28l0 20c0,11 -2,21 -6,28 -4,8 -10,14 -17,18 -7,4 -16,6 -27,6zm0 -23c8,0 15,-3 19,-8 5,-5 7,-13 7,-22l0 -20c0,-9 -2,-17 -7,-22 -5,-5 -11,-8 -19,-8 -8,0 -15,3 -19,8 -5,5 -7,12 -7,22l0 20c0,9 2,17 7,22 5,5 11,8 19,8zm228 -53c0,-9 -2,-15 -7,-20 -4,-5 -11,-7 -19,-7 -7,0 -13,2 -17,7 -4,5 -6,11 -6,19l-5 -23c4,-8 9,-14 15,-19 6,-4 13,-7 21,-7 9,0 16,2 22,6 6,4 11,9 14,17 3,7 5,16 5,27l0 74 -24 0 0 -73zm-145 -48l24 0 0 121 -24 0 0 -121zm72 48c0,-9 -2,-15 -6,-20 -4,-5 -10,-7 -18,-7 -8,0 -14,2 -18,6 -4,4 -6,10 -6,17l-2 -23c4,-7 9,-13 15,-17 6,-4 13,-6 20,-6 8,0 16,2 22,6 6,4 11,9 14,17 3,7 5,16 5,27l0 74 -24 0 0 -73zm201 -3c0,-8 -2,-14 -6,-18 -4,-4 -10,-7 -18,-7 -5,0 -10,1 -14,2 -5,1 -9,4 -12,6l-17 -12c5,-5 11,-10 18,-13 8,-3 16,-5 25,-5 10,0 19,2 26,5 7,4 13,9 16,15 4,7 6,15 6,24l0 78 -23 0 0 -77zm-30 79c-15,0 -26,-3 -33,-9 -7,-6 -11,-16 -11,-28 0,-12 3,-21 10,-27 7,-6 17,-9 31,-9l34 0 2 19 -36 0c-6,0 -11,1 -14,4 -3,3 -5,7 -5,13 0,6 2,11 6,14 4,3 10,4 19,4 9,0 16,-1 20,-3 4,-2 7,-5 7,-9l2 17c-2,3 -5,6 -8,8 -3,2 -7,4 -11,5 -4,1 -9,2 -14,2zm120 -1c-10,0 -17,-3 -22,-8 -5,-5 -7,-13 -7,-24l0 -125 24 0 0 125c0,3 1,5 2,7 1,2 3,2 5,2l11 0 0 23 -14 0zm-41 -122l55 0 0 21 -55 0 0 -21zm87 -49l24 0 0 24 -24 0 0 -24zm0 49l24 0 0 121 -24 0 0 -121zm106 123c-11,0 -19,-2 -27,-6 -7,-4 -13,-10 -17,-18 -4,-8 -6,-17 -6,-29l0 -20c0,-11 2,-20 6,-28 4,-8 10,-14 17,-18 7,-4 16,-6 27,-6 10,0 19,2 27,6 7,4 13,10 17,18 4,8 6,17 6,28l0 20c0,11 -2,21 -6,28 -4,8 -10,14 -17,18 -7,4 -16,6 -27,6zm0 -23c8,0 15,-3 19,-8 5,-5 7,-13 7,-22l0 -20c0,-9 -2,-17 -7,-22 -5,-5 -11,-8 -19,-8 -8,0 -15,3 -19,8 -5,5 -7,12 -7,22l0 20c0,9 2,17 7,22 5,5 11,8 19,8zm84 -100l24 0 0 121 -24 0 0 -121zm74 48c0,-9 -2,-15 -7,-20 -4,-5 -11,-7 -19,-7 -8,0 -14,2 -18,6 -4,4 -6,10 -6,17l-2 -23c4,-7 9,-13 15,-17 6,-4 13,-6 20,-6 13,0 23,4 31,13 7,9 11,21 11,36l0 74 -24 0 0 -73z"/>
  <path class="fil21" d="M10432 1218l22 0 0 170 -23 0 0 -127 1 7 -42 96 -17 0 -42 -94 1 -10 0 127 -23 0 0 -170 22 0 50 112 50 -112zm130 93c0,-8 -2,-14 -6,-18 -4,-4 -10,-7 -18,-7 -5,0 -10,1 -14,2 -5,1 -9,4 -12,6l-17 -12c5,-5 11,-10 18,-13 8,-3 16,-5 25,-5 10,0 19,2 26,5 7,4 13,9 16,15 4,7 6,15 6,24l0 78 -23 0 0 -77zm-30 79c-15,0 -26,-3 -33,-9 -7,-6 -11,-16 -11,-28 0,-12 3,-21 10,-27 7,-6 17,-9 31,-9l34 0 2 19 -36 0c-6,0 -11,1 -14,4 -3,3 -5,7 -5,13 0,6 2,11 6,14 4,3 10,4 19,4 9,0 16,-1 20,-3 4,-2 7,-5 7,-9l2 17c-2,3 -5,6 -8,8 -3,2 -7,4 -11,5 -4,1 -9,2 -14,2zm137 0c-11,0 -20,-2 -28,-6 -8,-4 -14,-10 -18,-18 -4,-8 -6,-17 -6,-28l0 -20c0,-11 2,-20 6,-28 4,-8 10,-14 18,-18 8,-4 17,-6 28,-6 6,0 12,1 18,2 6,2 11,4 15,7 4,3 8,6 11,10l0 0 -17 15 0 0c-3,-4 -7,-7 -12,-9 -5,-2 -9,-3 -14,-3 -9,0 -16,3 -21,8 -5,5 -8,12 -8,22l0 20c0,10 3,17 8,22 5,5 12,8 21,8 5,0 10,-1 14,-3 5,-2 9,-5 12,-10l0 0 17 17 0 0c-3,4 -7,7 -11,10 -4,3 -9,5 -15,6 -6,1 -11,2 -18,2zm70 -171l24 0 0 170 -24 0 0 -170zm74 96c0,-9 -2,-15 -7,-20 -4,-5 -11,-7 -19,-7 -8,0 -14,2 -18,6 -4,4 -6,10 -6,17l-2 -23c4,-7 9,-13 15,-17 6,-4 13,-6 20,-6 13,0 23,4 31,13 7,9 11,21 11,36l0 74 -24 0 0 -73zm60 -96l24 0 0 24 -24 0 0 -24zm0 49l24 0 0 121 -24 0 0 -121zm60 0l24 0 0 121 -24 0 0 -121zm74 48c0,-9 -2,-15 -7,-20 -4,-5 -11,-7 -19,-7 -8,0 -14,2 -18,6 -4,4 -6,10 -6,17l-2 -23c4,-7 9,-13 15,-17 6,-4 13,-6 20,-6 13,0 23,4 31,13 7,9 11,21 11,36l0 74 -24 0 0 -73zm110 75c-11,0 -21,-2 -29,-6 -8,-4 -14,-10 -18,-19 -4,-8 -6,-18 -6,-29l0 -14c0,-12 2,-22 6,-31 4,-8 10,-15 17,-19 8,-4 17,-7 28,-7 10,0 19,3 26,8 7,5 13,12 16,22 4,10 6,21 6,34l0 8 -82 0 0 -19 59 0 0 0c-1,-10 -3,-18 -8,-23 -4,-5 -10,-8 -18,-8 -9,0 -16,3 -21,9 -5,6 -7,14 -7,25l0 15c0,10 3,18 8,23 5,5 13,8 23,8 5,0 10,-1 14,-3 5,-2 9,-5 13,-8l0 0 16 16 0 0c-6,6 -13,10 -20,13 -7,3 -15,5 -23,5zm-838 115l24 0 0 170 -24 0 0 -170zm12 147l97 0 0 23 -97 0 0 -23zm172 24c-11,0 -21,-2 -29,-6 -8,-4 -14,-10 -18,-19 -4,-8 -6,-18 -6,-29l0 -14c0,-12 2,-22 6,-31 4,-8 10,-15 17,-19 8,-4 17,-7 28,-7 10,0 19,3 26,8 7,5 13,12 16,22 4,10 6,21 6,34l0 8 -82 0 0 -19 59 0 0 0c-1,-10 -3,-18 -8,-23 -4,-5 -10,-8 -18,-8 -9,0 -16,3 -21,9 -5,6 -7,14 -7,25l0 15c0,10 3,18 8,23 5,5 13,8 23,8 5,0 10,-1 14,-3 5,-2 9,-5 13,-8l0 0 16 16 0 0c-6,6 -13,10 -20,13 -7,3 -15,5 -23,5zm147 -79c0,-8 -2,-14 -6,-18 -4,-4 -10,-7 -18,-7 -5,0 -10,1 -14,2 -5,1 -9,4 -12,6l-17 -12c5,-5 11,-10 18,-13 8,-3 16,-5 25,-5 10,0 19,2 26,5 7,4 13,9 16,15 4,7 6,15 6,24l0 78 -23 0 0 -77zm-30 79c-15,0 -26,-3 -33,-9 -7,-6 -11,-16 -11,-28 0,-12 3,-21 10,-27 7,-6 17,-9 31,-9l34 0 2 19 -36 0c-6,0 -11,1 -14,4 -3,3 -5,7 -5,13 0,6 2,11 6,14 4,3 10,4 19,4 9,0 16,-1 20,-3 4,-2 7,-5 7,-9l2 17c-2,3 -5,6 -8,8 -3,2 -7,4 -11,5 -4,1 -9,2 -14,2zm88 -123l24 0 0 121 -24 0 0 -121zm67 29c-2,-3 -5,-5 -8,-6 -3,-1 -7,-2 -11,-2 -8,0 -13,2 -18,6 -4,4 -6,10 -6,17l-2 -23c4,-7 9,-13 14,-17 6,-4 12,-6 20,-6 6,0 11,1 15,2 4,2 8,4 12,7l-15 21zm35 -29l24 0 0 121 -24 0 0 -121zm74 48c0,-9 -2,-15 -7,-20 -4,-5 -11,-7 -19,-7 -8,0 -14,2 -18,6 -4,4 -6,10 -6,17l-2 -23c4,-7 9,-13 15,-17 6,-4 13,-6 20,-6 13,0 23,4 31,13 7,9 11,21 11,36l0 74 -24 0 0 -73zm60 -96l24 0 0 24 -24 0 0 -24zm0 49l24 0 0 121 -24 0 0 -121zm60 0l24 0 0 121 -24 0 0 -121zm74 48c0,-9 -2,-15 -7,-20 -4,-5 -11,-7 -19,-7 -8,0 -14,2 -18,6 -4,4 -6,10 -6,17l-2 -23c4,-7 9,-13 15,-17 6,-4 13,-6 20,-6 13,0 23,4 31,13 7,9 11,21 11,36l0 74 -24 0 0 -73zm101 123c-9,0 -17,-2 -24,-5 -7,-3 -13,-8 -17,-14l0 0 16 -15 0 0c3,4 7,8 11,10 4,2 9,4 14,4 9,0 16,-3 21,-8 5,-5 7,-12 7,-21l0 -121 24 0 0 117c0,11 -2,21 -6,29 -4,8 -10,14 -18,18 -8,4 -17,6 -28,6zm-2 -47c-9,0 -16,-2 -23,-6 -6,-4 -11,-9 -14,-17 -3,-7 -5,-16 -5,-27l0 -27c0,-10 2,-19 5,-27 3,-7 8,-13 14,-17 6,-4 13,-6 22,-6 7,0 14,2 20,6 6,4 11,9 14,16l-2 25c0,-5 -1,-10 -3,-13 -2,-4 -5,-6 -8,-8 -4,-2 -8,-3 -13,-3 -8,0 -14,2 -18,7 -4,5 -6,12 -6,21l0 26c0,9 2,16 6,20 4,5 10,7 18,7 5,0 9,-1 13,-3 4,-2 6,-5 8,-9 2,-4 3,-8 3,-13l2 26c-2,6 -6,11 -12,15 -6,4 -12,6 -20,6z"/>
  <path class="fil21" d="M10547 5623c-12,0 -22,-3 -31,-8 -9,-5 -16,-13 -21,-22 -5,-10 -7,-21 -7,-33l0 -47c0,-13 2,-24 7,-33 5,-10 12,-17 21,-22 9,-5 19,-8 31,-8 10,0 19,2 27,6 8,4 15,10 20,18 5,8 9,16 11,26l0 0 -24 0 0 0c-1,-5 -4,-10 -7,-14 -3,-4 -8,-7 -12,-10 -5,-2 -9,-3 -14,-3 -7,0 -13,2 -18,5 -5,3 -9,8 -12,14 -3,6 -4,13 -4,21l0 47c0,8 1,15 4,21 3,6 7,11 12,14 5,3 11,5 18,5 5,0 10,-1 15,-3 5,-2 9,-5 12,-9 3,-4 6,-9 7,-15l0 0 24 0 0 0c-2,10 -6,19 -11,26 -5,8 -12,14 -21,18 -8,4 -17,6 -27,6zm114 -33c0,3 1,5 2,7 1,2 3,2 5,2l11 0 0 23 -14 0c-9,0 -16,-3 -21,-8 -5,-6 -7,-13 -7,-24l0 -138 24 0 0 138zm92 33c-11,0 -19,-2 -27,-6 -7,-4 -13,-10 -17,-18 -4,-8 -6,-17 -6,-29l0 -20c0,-11 2,-20 6,-28 4,-8 10,-14 17,-18 7,-4 16,-6 27,-6 10,0 19,2 27,6 7,4 13,10 17,18 4,8 6,17 6,28l0 20c0,11 -2,21 -6,28 -4,8 -10,14 -17,18 -7,4 -16,6 -27,6zm0 -23c8,0 15,-3 19,-8 5,-5 7,-13 7,-22l0 -20c0,-9 -2,-17 -7,-22 -5,-5 -11,-8 -19,-8 -8,0 -15,3 -19,8 -5,5 -7,12 -7,22l0 20c0,9 2,17 7,22 5,5 11,8 19,8zm154 -100l24 0 0 121 -24 0 0 -121zm-49 74c0,8 2,15 6,20 4,5 10,7 18,7 8,0 14,-2 18,-6 4,-4 6,-10 6,-18l2 25c-3,6 -7,11 -12,15 -6,4 -12,6 -21,6 -13,0 -24,-4 -31,-13 -7,-9 -11,-21 -11,-36l0 -74 24 0 0 74zm178 -122l24 0 0 170 -24 0 0 -170zm-30 172c-9,0 -16,-2 -23,-6 -6,-4 -11,-9 -14,-17 -3,-7 -5,-16 -5,-27l0 -27c0,-10 2,-19 5,-27 3,-7 8,-13 14,-17 6,-4 13,-6 22,-6 7,0 14,2 20,6 6,4 11,9 14,16l-2 25c0,-5 -1,-10 -3,-13 -2,-4 -5,-6 -8,-8 -4,-2 -8,-3 -13,-3 -8,0 -14,2 -18,7 -4,5 -6,12 -6,21l0 26c0,9 2,16 6,20 4,5 10,7 18,7 5,0 9,-1 13,-3 4,-2 6,-5 8,-9 2,-4 3,-8 3,-13l2 26c-2,6 -6,11 -12,15 -6,4 -12,6 -20,6zm-850 115l24 0 0 170 -24 0 0 -170zm12 147l97 0 0 23 -97 0 0 -23zm0 -73l85 0 0 23 -85 0 0 -23zm0 -74l97 0 0 23 -97 0 0 -23zm129 49l24 0 0 121 -24 0 0 -121zm74 48c0,-9 -2,-15 -7,-20 -4,-5 -11,-7 -19,-7 -8,0 -14,2 -18,6 -4,4 -6,10 -6,17l-2 -23c4,-7 9,-13 15,-17 6,-4 13,-6 20,-6 13,0 23,4 31,13 7,9 11,21 11,36l0 74 -24 0 0 -73zm101 123c-9,0 -17,-2 -24,-5 -7,-3 -13,-8 -17,-14l0 0 16 -15 0 0c3,4 7,8 11,10 4,2 9,4 14,4 9,0 16,-3 21,-8 5,-5 7,-12 7,-21l0 -121 24 0 0 117c0,11 -2,21 -6,29 -4,8 -10,14 -18,18 -8,4 -17,6 -28,6zm-2 -47c-9,0 -16,-2 -23,-6 -6,-4 -11,-9 -14,-17 -3,-7 -5,-16 -5,-27l0 -27c0,-10 2,-19 5,-27 3,-7 8,-13 14,-17 6,-4 13,-6 22,-6 7,0 14,2 20,6 6,4 11,9 14,16l-2 25c0,-5 -1,-10 -3,-13 -2,-4 -5,-6 -8,-8 -4,-2 -8,-3 -13,-3 -8,0 -14,2 -18,7 -4,5 -6,12 -6,21l0 26c0,9 2,16 6,20 4,5 10,7 18,7 5,0 9,-1 13,-3 4,-2 6,-5 8,-9 2,-4 3,-8 3,-13l2 26c-2,6 -6,11 -12,15 -6,4 -12,6 -20,6zm90 -172l24 0 0 24 -24 0 0 -24zm0 49l24 0 0 121 -24 0 0 -121zm60 0l24 0 0 121 -24 0 0 -121zm74 48c0,-9 -2,-15 -7,-20 -4,-5 -11,-7 -19,-7 -8,0 -14,2 -18,6 -4,4 -6,10 -6,17l-2 -23c4,-7 9,-13 15,-17 6,-4 13,-6 20,-6 13,0 23,4 31,13 7,9 11,21 11,36l0 74 -24 0 0 -73zm110 75c-11,0 -21,-2 -29,-6 -8,-4 -14,-10 -18,-19 -4,-8 -6,-18 -6,-29l0 -14c0,-12 2,-22 6,-31 4,-8 10,-15 17,-19 8,-4 17,-7 28,-7 10,0 19,3 26,8 7,5 13,12 16,22 4,10 6,21 6,34l0 8 -82 0 0 -19 59 0 0 0c-1,-10 -3,-18 -8,-23 -4,-5 -10,-8 -18,-8 -9,0 -16,3 -21,9 -5,6 -7,14 -7,25l0 15c0,10 3,18 8,23 5,5 13,8 23,8 5,0 10,-1 14,-3 5,-2 9,-5 13,-8l0 0 16 16 0 0c-6,6 -13,10 -20,13 -7,3 -15,5 -23,5zm128 0c-11,0 -21,-2 -29,-6 -8,-4 -14,-10 -18,-19 -4,-8 -6,-18 -6,-29l0 -14c0,-12 2,-22 6,-31 4,-8 10,-15 17,-19 8,-4 17,-7 28,-7 10,0 19,3 26,8 7,5 13,12 16,22 4,10 6,21 6,34l0 8 -82 0 0 -19 59 0 0 0c-1,-10 -3,-18 -8,-23 -4,-5 -10,-8 -18,-8 -9,0 -16,3 -21,9 -5,6 -7,14 -7,25l0 15c0,10 3,18 8,23 5,5 13,8 23,8 5,0 10,-1 14,-3 5,-2 9,-5 13,-8l0 0 16 16 0 0c-6,6 -13,10 -20,13 -7,3 -15,5 -23,5zm79 -123l24 0 0 121 -24 0 0 -121zm67 29c-2,-3 -5,-5 -8,-6 -3,-1 -7,-2 -11,-2 -8,0 -13,2 -18,6 -4,4 -6,10 -6,17l-2 -23c4,-7 9,-13 14,-17 6,-4 12,-6 20,-6 6,0 11,1 15,2 4,2 8,4 12,7l-15 21zm35 -77l24 0 0 24 -24 0 0 -24zm0 49l24 0 0 121 -24 0 0 -121zm60 0l24 0 0 121 -24 0 0 -121zm74 48c0,-9 -2,-15 -7,-20 -4,-5 -11,-7 -19,-7 -8,0 -14,2 -18,6 -4,4 -6,10 -6,17l-2 -23c4,-7 9,-13 15,-17 6,-4 13,-6 20,-6 13,0 23,4 31,13 7,9 11,21 11,36l0 74 -24 0 0 -73zm101 123c-9,0 -17,-2 -24,-5 -7,-3 -13,-8 -17,-14l0 0 16 -15 0 0c3,4 7,8 11,10 4,2 9,4 14,4 9,0 16,-3 21,-8 5,-5 7,-12 7,-21l0 -121 24 0 0 117c0,11 -2,21 -6,29 -4,8 -10,14 -18,18 -8,4 -17,6 -28,6zm-2 -47c-9,0 -16,-2 -23,-6 -6,-4 -11,-9 -14,-17 -3,-7 -5,-16 -5,-27l0 -27c0,-10 2,-19 5,-27 3,-7 8,-13 14,-17 6,-4 13,-6 22,-6 7,0 14,2 20,6 6,4 11,9 14,16l-2 25c0,-5 -1,-10 -3,-13 -2,-4 -5,-6 -8,-8 -4,-2 -8,-3 -13,-3 -8,0 -14,2 -18,7 -4,5 -6,12 -6,21l0 26c0,9 2,16 6,20 4,5 10,7 18,7 5,0 9,-1 13,-3 4,-2 6,-5 8,-9 2,-4 3,-8 3,-13l2 26c-2,6 -6,11 -12,15 -6,4 -12,6 -20,6z"/>
  <path class="fil21" d="M12541 2281l22 0 0 170 -23 0 0 -127 1 7 -42 96 -17 0 -42 -94 1 -10 0 127 -23 0 0 -170 22 0 50 112 50 -112zm108 171c-11,0 -19,-2 -27,-6 -7,-4 -13,-10 -17,-18 -4,-8 -6,-17 -6,-29l0 -20c0,-11 2,-20 6,-28 4,-8 10,-14 17,-18 7,-4 16,-6 27,-6 10,0 19,2 27,6 7,4 13,10 17,18 4,8 6,17 6,28l0 20c0,11 -2,21 -6,28 -4,8 -10,14 -17,18 -7,4 -16,6 -27,6zm0 -23c8,0 15,-3 19,-8 5,-5 7,-13 7,-22l0 -20c0,-9 -2,-17 -7,-22 -5,-5 -11,-8 -19,-8 -8,0 -15,3 -19,8 -5,5 -7,12 -7,22l0 20c0,9 2,17 7,22 5,5 11,8 19,8zm84 -100l24 0 0 121 -24 0 0 -121zm67 29c-2,-3 -5,-5 -8,-6 -3,-1 -7,-2 -11,-2 -8,0 -13,2 -18,6 -4,4 -6,10 -6,17l-2 -23c4,-7 9,-13 14,-17 6,-4 12,-6 20,-6 6,0 11,1 15,2 4,2 8,4 12,7l-15 21zm83 94c-11,0 -21,-2 -29,-6 -8,-4 -14,-10 -18,-19 -4,-8 -6,-18 -6,-29l0 -14c0,-12 2,-22 6,-31 4,-8 10,-15 17,-19 8,-4 17,-7 28,-7 10,0 19,3 26,8 7,5 13,12 16,22 4,10 6,21 6,34l0 8 -82 0 0 -19 59 0 0 0c-1,-10 -3,-18 -8,-23 -4,-5 -10,-8 -18,-8 -9,0 -16,3 -21,9 -5,6 -7,14 -7,25l0 15c0,10 3,18 8,23 5,5 13,8 23,8 5,0 10,-1 14,-3 5,-2 9,-5 13,-8l0 0 16 16 0 0c-6,6 -13,10 -20,13 -7,3 -15,5 -23,5zm-860 129l24 0 0 156 -24 0 0 -156zm-48 -14l120 0 0 23 -120 0 0 -23zm173 171c-11,0 -21,-2 -29,-6 -8,-4 -14,-10 -18,-19 -4,-8 -6,-18 -6,-29l0 -14c0,-12 2,-22 6,-31 4,-8 10,-15 17,-19 8,-4 17,-7 28,-7 10,0 19,3 26,8 7,5 13,12 16,22 4,10 6,21 6,34l0 8 -82 0 0 -19 59 0 0 0c-1,-10 -3,-18 -8,-23 -4,-5 -10,-8 -18,-8 -9,0 -16,3 -21,9 -5,6 -7,14 -7,25l0 15c0,10 3,18 8,23 5,5 13,8 23,8 5,0 10,-1 14,-3 5,-2 9,-5 13,-8l0 0 16 16 0 0c-6,6 -13,10 -20,13 -7,3 -15,5 -23,5zm127 0c-11,0 -20,-2 -28,-6 -8,-4 -14,-10 -18,-18 -4,-8 -6,-17 -6,-28l0 -20c0,-11 2,-20 6,-28 4,-8 10,-14 18,-18 8,-4 17,-6 28,-6 6,0 12,1 18,2 6,2 11,4 15,7 4,3 8,6 11,10l0 0 -17 15 0 0c-3,-4 -7,-7 -12,-9 -5,-2 -9,-3 -14,-3 -9,0 -16,3 -21,8 -5,5 -8,12 -8,22l0 20c0,10 3,17 8,22 5,5 12,8 21,8 5,0 10,-1 14,-3 5,-2 9,-5 12,-10l0 0 17 17 0 0c-3,4 -7,7 -11,10 -4,3 -9,5 -15,6 -6,1 -11,2 -18,2zm70 -171l24 0 0 170 -24 0 0 -170zm74 96c0,-9 -2,-15 -7,-20 -4,-5 -11,-7 -19,-7 -8,0 -14,2 -18,6 -4,4 -6,10 -6,17l-2 -23c4,-7 9,-13 15,-17 6,-4 13,-6 20,-6 13,0 23,4 31,13 7,9 11,21 11,36l0 74 -24 0 0 -73zm60 -48l24 0 0 121 -24 0 0 -121zm74 48c0,-9 -2,-15 -7,-20 -4,-5 -11,-7 -19,-7 -8,0 -14,2 -18,6 -4,4 -6,10 -6,17l-2 -23c4,-7 9,-13 15,-17 6,-4 13,-6 20,-6 13,0 23,4 31,13 7,9 11,21 11,36l0 74 -24 0 0 -73zm106 75c-11,0 -19,-2 -27,-6 -7,-4 -13,-10 -17,-18 -4,-8 -6,-17 -6,-29l0 -20c0,-11 2,-20 6,-28 4,-8 10,-14 17,-18 7,-4 16,-6 27,-6 10,0 19,2 27,6 7,4 13,10 17,18 4,8 6,17 6,28l0 20c0,11 -2,21 -6,28 -4,8 -10,14 -17,18 -7,4 -16,6 -27,6zm0 -23c8,0 15,-3 19,-8 5,-5 7,-13 7,-22l0 -20c0,-9 -2,-17 -7,-22 -5,-5 -11,-8 -19,-8 -8,0 -15,3 -19,8 -5,5 -7,12 -7,22l0 20c0,9 2,17 7,22 5,5 11,8 19,8zm108 -10c0,3 1,5 2,7 1,2 3,2 5,2l11 0 0 23 -14 0c-9,0 -16,-3 -21,-8 -5,-6 -7,-13 -7,-24l0 -138 24 0 0 138zm92 33c-11,0 -19,-2 -27,-6 -7,-4 -13,-10 -17,-18 -4,-8 -6,-17 -6,-29l0 -20c0,-11 2,-20 6,-28 4,-8 10,-14 17,-18 7,-4 16,-6 27,-6 10,0 19,2 27,6 7,4 13,10 17,18 4,8 6,17 6,28l0 20c0,11 -2,21 -6,28 -4,8 -10,14 -17,18 -7,4 -16,6 -27,6zm0 -23c8,0 15,-3 19,-8 5,-5 7,-13 7,-22l0 -20c0,-9 -2,-17 -7,-22 -5,-5 -11,-8 -19,-8 -8,0 -15,3 -19,8 -5,5 -7,12 -7,22l0 20c0,9 2,17 7,22 5,5 11,8 19,8zm124 70c-9,0 -17,-2 -24,-5 -7,-3 -13,-8 -17,-14l0 0 16 -15 0 0c3,4 7,8 11,10 4,2 9,4 14,4 9,0 16,-3 21,-8 5,-5 7,-12 7,-21l0 -121 24 0 0 117c0,11 -2,21 -6,29 -4,8 -10,14 -18,18 -8,4 -17,6 -28,6zm-2 -47c-9,0 -16,-2 -23,-6 -6,-4 -11,-9 -14,-17 -3,-7 -5,-16 -5,-27l0 -27c0,-10 2,-19 5,-27 3,-7 8,-13 14,-17 6,-4 13,-6 22,-6 7,0 14,2 20,6 6,4 11,9 14,16l-2 25c0,-5 -1,-10 -3,-13 -2,-4 -5,-6 -8,-8 -4,-2 -8,-3 -13,-3 -8,0 -14,2 -18,7 -4,5 -6,12 -6,21l0 26c0,9 2,16 6,20 4,5 10,7 18,7 5,0 9,-1 13,-3 4,-2 6,-5 8,-9 2,-4 3,-8 3,-13l2 26c-2,6 -6,11 -12,15 -6,4 -12,6 -20,6zm90 -172l24 0 0 24 -24 0 0 -24zm0 49l24 0 0 121 -24 0 0 -121zm110 123c-11,0 -21,-2 -29,-6 -8,-4 -14,-10 -18,-19 -4,-8 -6,-18 -6,-29l0 -14c0,-12 2,-22 6,-31 4,-8 10,-15 17,-19 8,-4 17,-7 28,-7 10,0 19,3 26,8 7,5 13,12 16,22 4,10 6,21 6,34l0 8 -82 0 0 -19 59 0 0 0c-1,-10 -3,-18 -8,-23 -4,-5 -10,-8 -18,-8 -9,0 -16,3 -21,9 -5,6 -7,14 -7,25l0 15c0,10 3,18 8,23 5,5 13,8 23,8 5,0 10,-1 14,-3 5,-2 9,-5 13,-8l0 0 16 16 0 0c-6,6 -13,10 -20,13 -7,3 -15,5 -23,5zm121 0c-7,0 -14,-1 -20,-2 -6,-1 -12,-4 -18,-6 -5,-3 -10,-6 -15,-11l0 0 14 -17 0 0c7,5 13,9 20,11 6,3 13,4 19,4 9,0 16,-1 21,-4 5,-3 7,-7 7,-13 0,-4 -1,-7 -4,-9 -3,-2 -6,-3 -10,-4 -4,-1 -9,-1 -16,-2 -1,0 -1,0 -2,0 -1,0 -1,0 -2,0 0,0 -1,0 -1,0 0,0 -1,0 -1,0 -8,-1 -15,-2 -20,-3 -5,-2 -10,-5 -14,-9 -4,-5 -5,-11 -5,-20 0,-9 2,-16 5,-21 3,-6 9,-10 16,-13 7,-3 16,-4 26,-4 6,0 12,1 18,2 6,1 11,3 16,5 5,2 10,5 15,9l0 0 -14 17 0 0c-6,-4 -12,-7 -18,-9 -6,-2 -12,-3 -17,-3 -8,0 -14,1 -18,4 -4,3 -6,7 -6,12 0,3 1,6 3,7 2,2 5,3 9,3 4,1 8,1 15,1 0,0 1,0 1,0 1,0 1,0 2,0 0,0 0,0 1,0 0,0 0,0 1,0 8,1 16,2 22,3 6,2 11,5 15,10 4,5 6,12 6,22 0,9 -2,16 -6,22 -4,6 -9,10 -17,13 -7,3 -17,4 -28,4z"/>
  <path class="fil21" d="M12460 4559l38 0c13,0 22,-3 29,-10 7,-7 10,-16 10,-27l0 -50c0,-12 -3,-21 -10,-27 -7,-6 -17,-10 -29,-10l-38 0 0 -23 38 0c14,0 25,2 35,7 10,5 17,12 22,21 5,9 8,20 8,33l0 48c0,13 -3,24 -8,33 -5,9 -12,16 -22,21 -10,5 -21,7 -35,7l-38 0 0 -23zm-16 -147l24 0 0 170 -24 0 0 -170zm223 93c0,-8 -2,-14 -6,-18 -4,-4 -10,-7 -18,-7 -5,0 -10,1 -14,2 -5,1 -9,4 -12,6l-17 -12c5,-5 11,-10 18,-13 8,-3 16,-5 25,-5 10,0 19,2 26,5 7,4 13,9 16,15 4,7 6,15 6,24l0 78 -23 0 0 -77zm-30 79c-15,0 -26,-3 -33,-9 -7,-6 -11,-16 -11,-28 0,-12 3,-21 10,-27 7,-6 17,-9 31,-9l34 0 2 19 -36 0c-6,0 -11,1 -14,4 -3,3 -5,7 -5,13 0,6 2,11 6,14 4,3 10,4 19,4 9,0 16,-1 20,-3 4,-2 7,-5 7,-9l2 17c-2,3 -5,6 -8,8 -3,2 -7,4 -11,5 -4,1 -9,2 -14,2zm120 -1c-10,0 -17,-3 -22,-8 -5,-5 -7,-13 -7,-24l0 -125 24 0 0 125c0,3 1,5 2,7 1,2 3,2 5,2l11 0 0 23 -14 0zm-41 -122l55 0 0 21 -55 0 0 -21zm156 44c0,-8 -2,-14 -6,-18 -4,-4 -10,-7 -18,-7 -5,0 -10,1 -14,2 -5,1 -9,4 -12,6l-17 -12c5,-5 11,-10 18,-13 8,-3 16,-5 25,-5 10,0 19,2 26,5 7,4 13,9 16,15 4,7 6,15 6,24l0 78 -23 0 0 -77zm-30 79c-15,0 -26,-3 -33,-9 -7,-6 -11,-16 -11,-28 0,-12 3,-21 10,-27 7,-6 17,-9 31,-9l34 0 2 19 -36 0c-6,0 -11,1 -14,4 -3,3 -5,7 -5,13 0,6 2,11 6,14 4,3 10,4 19,4 9,0 16,-1 20,-3 4,-2 7,-5 7,-9l2 17c-2,3 -5,6 -8,8 -3,2 -7,4 -11,5 -4,1 -9,2 -14,2zm-520 287c-8,0 -16,-1 -23,-2 -7,-2 -14,-4 -21,-7 -6,-3 -12,-7 -18,-12l0 0 15 -18 0 0c6,6 14,10 21,13 8,3 16,4 25,4 12,0 22,-2 29,-7 7,-5 10,-11 10,-19l0 0c0,-6 -2,-11 -5,-14 -3,-3 -7,-6 -12,-8 -5,-2 -11,-3 -19,-5 0,0 -1,0 -1,0 0,0 -1,0 -1,0l-2 0c-11,-2 -21,-4 -28,-7 -7,-2 -13,-7 -18,-13 -5,-6 -8,-16 -8,-28l0 0c0,-10 2,-19 7,-27 5,-7 12,-13 21,-17 9,-4 20,-6 33,-6 6,0 12,1 18,2 6,1 12,3 17,6 6,3 11,6 17,10l0 0 -14 19 0 0c-6,-5 -13,-8 -19,-11 -6,-2 -13,-4 -19,-4 -12,0 -21,2 -27,7 -6,5 -10,11 -10,20l0 0c0,6 2,10 5,14 3,3 7,6 12,7 5,2 12,3 21,5 0,0 1,0 1,0 0,0 1,0 1,0 0,0 1,0 1,0 0,0 1,0 1,0 10,2 19,5 26,7 7,3 13,8 17,14 5,6 7,15 7,26l0 0c0,10 -2,19 -7,27 -5,7 -12,13 -21,17 -9,4 -21,6 -34,6zm143 0c-11,0 -20,-2 -28,-6 -8,-4 -14,-10 -18,-18 -4,-8 -6,-17 -6,-28l0 -20c0,-11 2,-20 6,-28 4,-8 10,-14 18,-18 8,-4 17,-6 28,-6 6,0 12,1 18,2 6,2 11,4 15,7 4,3 8,6 11,10l0 0 -17 15 0 0c-3,-4 -7,-7 -12,-9 -5,-2 -9,-3 -14,-3 -9,0 -16,3 -21,8 -5,5 -8,12 -8,22l0 20c0,10 3,17 8,22 5,5 12,8 21,8 5,0 10,-1 14,-3 5,-2 9,-5 12,-10l0 0 17 17 0 0c-3,4 -7,7 -11,10 -4,3 -9,5 -15,6 -6,1 -11,2 -18,2zm70 -171l24 0 0 24 -24 0 0 -24zm0 49l24 0 0 121 -24 0 0 -121zm110 123c-11,0 -21,-2 -29,-6 -8,-4 -14,-10 -18,-19 -4,-8 -6,-18 -6,-29l0 -14c0,-12 2,-22 6,-31 4,-8 10,-15 17,-19 8,-4 17,-7 28,-7 10,0 19,3 26,8 7,5 13,12 16,22 4,10 6,21 6,34l0 8 -82 0 0 -19 59 0 0 0c-1,-10 -3,-18 -8,-23 -4,-5 -10,-8 -18,-8 -9,0 -16,3 -21,9 -5,6 -7,14 -7,25l0 15c0,10 3,18 8,23 5,5 13,8 23,8 5,0 10,-1 14,-3 5,-2 9,-5 13,-8l0 0 16 16 0 0c-6,6 -13,10 -20,13 -7,3 -15,5 -23,5zm79 -123l24 0 0 121 -24 0 0 -121zm74 48c0,-9 -2,-15 -7,-20 -4,-5 -11,-7 -19,-7 -8,0 -14,2 -18,6 -4,4 -6,10 -6,17l-2 -23c4,-7 9,-13 15,-17 6,-4 13,-6 20,-6 13,0 23,4 31,13 7,9 11,21 11,36l0 74 -24 0 0 -73zm109 75c-11,0 -20,-2 -28,-6 -8,-4 -14,-10 -18,-18 -4,-8 -6,-17 -6,-28l0 -20c0,-11 2,-20 6,-28 4,-8 10,-14 18,-18 8,-4 17,-6 28,-6 6,0 12,1 18,2 6,2 11,4 15,7 4,3 8,6 11,10l0 0 -17 15 0 0c-3,-4 -7,-7 -12,-9 -5,-2 -9,-3 -14,-3 -9,0 -16,3 -21,8 -5,5 -8,12 -8,22l0 20c0,10 3,17 8,22 5,5 12,8 21,8 5,0 10,-1 14,-3 5,-2 9,-5 12,-10l0 0 17 17 0 0c-3,4 -7,7 -11,10 -4,3 -9,5 -15,6 -6,1 -11,2 -18,2zm120 0c-11,0 -21,-2 -29,-6 -8,-4 -14,-10 -18,-19 -4,-8 -6,-18 -6,-29l0 -14c0,-12 2,-22 6,-31 4,-8 10,-15 17,-19 8,-4 17,-7 28,-7 10,0 19,3 26,8 7,5 13,12 16,22 4,10 6,21 6,34l0 8 -82 0 0 -19 59 0 0 0c-1,-10 -3,-18 -8,-23 -4,-5 -10,-8 -18,-8 -9,0 -16,3 -21,9 -5,6 -7,14 -7,25l0 15c0,10 3,18 8,23 5,5 13,8 23,8 5,0 10,-1 14,-3 5,-2 9,-5 13,-8l0 0 16 16 0 0c-6,6 -13,10 -20,13 -7,3 -15,5 -23,5z"/>
  <path class="fil21" d="M10300 3870c2,-22 4,-39 4,-53 1,-20 2,-45 4,-76 1,-24 1,-41 1,-51l0 -17c11,0 21,0 29,0 8,0 18,0 31,-1 13,0 25,-1 36,-1 13,0 24,1 34,2 10,2 19,5 27,10 8,5 15,11 21,19 6,8 10,17 13,27 3,10 4,21 4,32 0,11 -1,21 -3,31 -2,10 -6,19 -10,27 -4,8 -9,15 -14,21 -6,6 -12,11 -19,15 -5,3 -11,6 -16,7 -5,2 -13,3 -22,4 -10,1 -22,2 -35,2l-58 0c-5,0 -14,0 -27,0zm62 -43c5,0 11,1 17,1 10,0 19,-1 26,-3 8,-2 14,-5 20,-11 6,-6 10,-13 13,-22 3,-9 4,-18 4,-27 0,-11 -2,-21 -6,-29 -4,-8 -10,-13 -16,-16 -7,-3 -16,-5 -28,-5 -7,0 -15,0 -24,1l-5 111zm140 43l12 -21 75 -141 8 -16c2,-5 6,-11 10,-20 17,0 29,0 37,0 14,0 26,0 38,0l21 60 43 116 8 21c-17,0 -27,0 -30,0 -8,0 -20,0 -36,0 -4,-16 -10,-35 -18,-56l-73 0c-8,17 -17,36 -26,56 -18,0 -29,0 -33,0 -7,0 -19,0 -35,0zm112 -98l45 0c-11,-34 -17,-53 -18,-56 -6,14 -12,26 -16,35l-10 21zm199 98c5,-47 8,-98 9,-155l-61 1 1 -16c0,-9 1,-18 1,-28 27,0 59,0 96,0l36 0 35 0 19 0 -1 14c0,8 -1,14 -1,19 0,5 0,9 0,11 -21,-1 -38,-1 -51,-1l-10 0c-1,17 -3,33 -3,47 -1,21 -2,41 -2,60 -1,19 -1,35 -1,47 -16,0 -26,0 -31,0 -4,0 -15,0 -33,0zm118 0l12 -21 75 -141 8 -16c2,-5 6,-11 10,-20 17,0 29,0 37,0 14,0 26,0 38,0l21 60 43 116 8 21c-17,0 -27,0 -30,0 -8,0 -20,0 -36,0 -4,-16 -10,-35 -18,-56l-73 0c-8,17 -17,36 -26,56 -18,0 -29,0 -33,0 -7,0 -19,0 -35,0zm112 -98l45 0c-11,-34 -17,-53 -18,-56 -6,14 -12,26 -16,35l-10 21z"/>
  <path class="fil22" d="M10320 3614c3,-35 6,-62 7,-82 2,-27 3,-65 5,-112 2,-48 2,-81 2,-100 0,-7 0,-17 0,-29 21,0 38,1 50,1 17,0 37,0 60,-1 23,-1 43,-1 59,-1 20,0 34,1 42,2 11,1 21,4 29,8 8,4 15,8 21,14 6,6 11,14 15,23 4,10 6,21 6,33 0,9 -1,18 -3,26 -2,8 -6,16 -10,22 -4,6 -9,12 -14,16 -5,4 -10,8 -15,10 -5,2 -12,5 -20,7 8,1 15,3 20,5 5,2 10,5 16,9 6,4 11,9 16,16 5,6 8,13 10,21 2,8 3,16 3,25 0,12 -2,23 -6,34 -4,11 -9,20 -17,27 -6,7 -14,12 -23,17 -10,5 -20,8 -30,9 -8,1 -23,2 -45,3 -22,1 -45,1 -69,1l-62 0 -46 0zm106 -198l33 0c11,0 19,0 23,-1 5,-1 9,-2 14,-3 4,-1 8,-4 11,-7 3,-3 6,-7 7,-11 1,-4 2,-8 2,-12 0,-6 -1,-11 -4,-16 -3,-5 -7,-8 -13,-10 -6,-2 -16,-3 -28,-3l-42 0 -3 64zm-6 133l45 0c12,0 21,-1 26,-2 7,-2 12,-4 16,-7 4,-3 6,-7 9,-12 2,-5 3,-10 3,-16 0,-5 -1,-10 -3,-14 -2,-4 -4,-7 -8,-10 -3,-3 -8,-5 -13,-6 -5,-1 -13,-2 -24,-2l-50 0 -3 69zm244 65c9,-127 14,-225 14,-293l0 -31c28,0 46,0 55,0 4,0 21,0 51,0 -3,36 -5,69 -7,101 -2,44 -4,86 -5,124 -1,39 -1,71 -1,99l-49 0c-9,0 -29,0 -58,0zm355 -189c22,0 42,0 62,0 33,0 60,0 79,0 -2,22 -4,52 -6,92 -2,40 -3,70 -4,90 -18,3 -33,6 -45,7 -12,2 -26,3 -43,4 -17,1 -32,2 -45,2 -22,0 -43,-2 -63,-5 -21,-3 -39,-9 -56,-17 -16,-8 -30,-18 -41,-32 -11,-13 -19,-29 -25,-47 -6,-18 -9,-37 -9,-57 0,-32 8,-62 24,-89 16,-28 39,-49 69,-65 30,-16 69,-24 116,-24 35,0 73,4 115,13 0,23 1,49 3,77 -11,-4 -21,-7 -28,-9 -7,-2 -15,-4 -25,-5 -9,-2 -18,-3 -27,-4 -9,-1 -16,-1 -23,-1 -17,0 -34,3 -49,7 -15,5 -29,13 -40,23 -11,10 -20,23 -25,37 -6,14 -8,30 -8,46 0,16 3,31 9,43 6,13 16,22 30,29 14,7 29,10 46,10 14,0 30,-2 46,-6l2 -51c-10,0 -16,0 -18,0l-25 0 2 -29c0,-3 0,-8 1,-14 0,-6 0,-14 0,-24z"/>
 </g>
</svg>
