<?xml version="1.0" encoding="UTF-8"?>
<!DOCTYPE svg PUBLIC "-//W3C//DTD SVG 1.1//EN" "http://www.w3.org/Graphics/SVG/1.1/DTD/svg11.dtd">
<!-- Creator: CorelDRAW X6 -->
<svg xmlns="http://www.w3.org/2000/svg" xml:space="preserve" width="0.433339in" height="0.433339in" version="1.1" style="shape-rendering:geometricPrecision; text-rendering:geometricPrecision; image-rendering:optimizeQuality; fill-rule:evenodd; clip-rule:evenodd"
viewBox="0 0 56 56"
 xmlns:xlink="http://www.w3.org/1999/xlink">
 <defs>
  <style type="text/css">
   <![CDATA[
    .fil1 {fill:none}
    .fil0 {fill:#FEFEFE}
   ]]>
  </style>
 </defs>
 <g id="Layer_x0020_1">
  <metadata id="CorelCorpID_0Corel-Layer"/>
  <path class="fil0" d="M14 20l-1 0c-1,2 0,7 0,10 0,2 2,2 3,2 2,0 4,0 5,0 0,4 0,22 0,24 1,1 7,0 9,0 1,0 2,0 3,-1 1,0 0,-23 0,-24 1,0 8,0 9,0 1,0 1,-1 1,-2 0,-11 2,-9 -10,-9 0,-2 0,-7 0,-8 1,-2 4,-2 6,-2 4,0 3,-1 3,-5 0,-5 1,-6 -2,-6 -5,0 -10,0 -14,2 -3,2 -6,6 -6,10 -1,1 0,6 0,8 -1,0 -7,0 -7,0z"/>
  <rect class="fil1" width="56" height="56"/>
 </g>
</svg>
