<?xml version="1.0" encoding="UTF-8"?>
<!DOCTYPE svg PUBLIC "-//W3C//DTD SVG 1.1//EN" "http://www.w3.org/Graphics/SVG/1.1/DTD/svg11.dtd">
<!-- Creator: CorelDRAW X6 -->
<svg xmlns="http://www.w3.org/2000/svg" xml:space="preserve" width="0.85461in" height="1.60587in" version="1.1" style="shape-rendering:geometricPrecision; text-rendering:geometricPrecision; image-rendering:optimizeQuality; fill-rule:evenodd; clip-rule:evenodd"
viewBox="0 0 148 277"
 xmlns:xlink="http://www.w3.org/1999/xlink">
 <defs>
  <style type="text/css">
   <![CDATA[
    .fil0 {fill:#fff}
   ]]>
  </style>
 </defs>
 <g id="Layer_x0020_1">
  <metadata id="CorelCorpID_0Corel-Layer"/>
  <path class="fil0" d="M7 101l-5 0c-5,10 0,34 0,48 0,10 10,10 14,10 10,0 19,0 24,0 0,19 0,106 0,116 5,5 34,0 43,0 5,0 10,0 14,-5 5,0 0,-111 0,-116 5,0 39,0 43,0 5,0 5,-5 5,-10 0,-53 10,-43 -48,-43 0,-10 0,-34 0,-39 5,-10 19,-10 29,-10 19,0 14,-5 14,-24 0,-24 5,-29 -10,-29 -24,0 -48,0 -68,10 -14,10 -29,29 -29,48 -5,5 0,29 0,39 -5,0 -34,0 -34,0l5 5z"/>
 </g>
</svg>
