<?xml version="1.0" encoding="UTF-8"?>
<!DOCTYPE svg PUBLIC "-//W3C//DTD SVG 1.1//EN" "http://www.w3.org/Graphics/SVG/1.1/DTD/svg11.dtd">
<!-- Creator: CorelDRAW X6 -->
<svg xmlns="http://www.w3.org/2000/svg" xml:space="preserve" width="0.557827in" height="0.666654in" version="1.1" style="shape-rendering:geometricPrecision; text-rendering:geometricPrecision; image-rendering:optimizeQuality; fill-rule:evenodd; clip-rule:evenodd"
viewBox="0 0 267 319"
 xmlns:xlink="http://www.w3.org/1999/xlink">
 <defs>
  <style type="text/css">
   <![CDATA[
    .str0 {stroke:#FC6300;stroke-width:1.43654}
    .str1 {stroke:#FC6300;stroke-width:2.66005}
    .fil2 {fill:#FC6300}
    .fil1 {fill:#262E39;fill-rule:nonzero}
    .fil0 {fill:#FC6300;fill-rule:nonzero}
   ]]>
  </style>
 </defs>
 <g id="Layer_x0020_1">
  <metadata id="CorelCorpID_0Corel-Layer"/>
  <path class="fil0 str0" d="M134 1c37,0 70,15 94,39 24,24 39,57 39,94 0,36 -15,69 -38,93l-5 -9c21,-22 34,-52 34,-85 0,-34 -14,-65 -36,-87 -22,-22 -53,-36 -87,-36 -34,0 -65,14 -87,36 -22,22 -36,53 -36,87 0,32 12,61 32,83l-5 9c-23,-24 -36,-56 -36,-92 0,-37 15,-70 39,-94 24,-24 57,-39 94,-39zm80 239c-1,1 -3,2 -5,3l-5 -8c1,-1 3,-2 4,-3l5 8zm-24 14c-2,1 -4,2 -5,2 -1,-1 -3,-2 -4,-3 -2,-1 -3,-2 -5,-4 2,-1 4,-1 6,-2 3,2 6,4 9,6zm-25 9c-2,1 -5,1 -7,2 -2,-1 -4,-2 -5,-3 -4,-2 -6,-10 10,0l2 1zm-61 1c-6,-1 -11,-3 -17,-5 2,-2 5,-3 10,-1 3,1 6,3 7,6zm-49 -22c-1,-1 -3,-2 -4,-3l5 -8c1,1 3,2 4,3 -2,3 -3,6 -5,8z"/>
  <path class="fil0 str0" d="M129 5c0,-3 2,-5 5,-5 3,0 5,2 5,5l0 57c14,-1 28,-3 41,-6 -2,-4 -4,-8 -6,-12 -7,-13 -14,-24 -21,-34 -2,-2 -1,-5 1,-7 2,-2 5,-1 7,1 8,10 16,22 23,36 2,4 5,9 7,14 13,-4 26,-9 37,-16l1 3 1 7c-11,6 -23,11 -36,15 3,7 6,14 8,22 1,2 0,5 -3,6 -2,1 -5,0 -6,-3 -3,-8 -6,-15 -9,-22 -14,4 -29,6 -45,6l0 14c0,3 -2,5 -5,5 -3,0 -5,-2 -5,-5l0 -13c-16,0 -31,-2 -46,-5 -3,7 -5,14 -8,21 -1,2 -4,4 -6,3 -2,-1 -4,-4 -3,-6 2,-7 5,-14 7,-20 -12,-3 -24,-8 -35,-13l0 -11c12,6 25,11 39,15 2,-6 5,-11 8,-16 7,-14 14,-25 23,-36 2,-2 5,-2 7,-1 2,2 2,5 1,7 -8,10 -15,21 -21,34 -2,4 -4,9 -7,14 13,3 27,4 42,4l0 -58z"/>
  <path class="fil1" d="M93 114l-17 0 -1 0 0 -17 1 0 17 0 11 0 66 0 30 0 21 0 22 0 -10 17 -12 0 -43 0 -8 0 -66 0 -11 0zm102 5l0 0 0 0c0,0 0,0 0,0l0 0 0 0c0,0 0,0 0,1 0,0 0,0 0,1 0,0 0,0 0,1 0,0 0,1 1,1 0,0 1,1 1,1 0,0 1,0 1,1 0,0 1,0 1,0 0,0 0,0 0,0 0,0 0,0 0,0 0,0 0,0 0,0l0 0c0,0 0,0 0,0l20 0 0 0 1 0c0,0 1,0 1,0 0,0 1,0 1,0 4,1 7,2 10,4 3,2 5,5 7,9 1,2 1,3 1,5 0,2 0,4 0,5 0,2 -1,4 -1,5 -1,2 -1,3 -3,5 -1,1 -2,3 -4,4 -1,1 -1,1 -2,2 -1,1 -2,1 -2,1 -2,1 -3,1 -5,2 0,0 -1,0 -1,0 0,0 -1,0 -1,0 0,0 -1,0 -1,0l-1 0 -42 0 0 -17 42 0 0 0c0,0 0,0 0,0 0,0 0,0 0,0 0,0 0,0 0,0 0,0 1,0 1,0 0,0 0,0 1,0 0,0 0,0 1,0 0,0 1,-1 1,-1 0,0 0,-1 1,-1 0,0 0,-1 0,-1 0,0 0,-1 0,-1 0,0 0,-1 0,-1 0,-1 -1,-1 -2,-2 0,0 0,0 -1,0 0,0 0,0 0,0 0,0 0,0 0,0 0,0 0,0 0,0 0,0 -1,0 -1,0 0,0 0,0 0,0 0,0 0,0 0,0 0,0 0,0 0,0l0 0 -20 0 0 0c0,0 -1,0 -1,0 0,0 0,0 -1,0l-1 0c-2,0 -4,-1 -5,-1 -2,-1 -3,-2 -5,-3 -1,-1 -3,-2 -4,-4 -2,-3 -4,-6 -5,-10 0,-1 0,-2 0,-3 0,0 0,0 0,-1l0 0 0 0 0 0 17 0zm-49 0l0 49 -17 0 0 -49 17 0zm-52 0l0 19 0 1c0,3 -1,5 -1,8 0,0 0,1 0,1 0,0 0,0 0,0 0,0 0,0 0,0 0,0 0,0 0,1l0 0c0,1 0,1 -1,1 0,0 0,0 0,0l-1 2c0,0 0,0 0,0 0,0 0,0 0,0l0 0 -1 1 -1 1 0 0 0 0 -1 2 0 0 0 0 -1 1 -1 1 -1 1 0 0 -1 1 -1 1 -1 1 -1 1 -1 1 0 0 0 0 -1 0 -1 0 -1 0 -1 1 -1 0c0,0 0,0 0,0l-1 0c0,0 0,0 -1,0 -3,1 -5,1 -8,1 -3,0 -5,0 -8,-1 0,0 0,0 0,0l-1 0c0,0 -1,0 -1,0l-1 0 0 0 0 0 -1 0 -1 -1 0 0 -1 -1 -1 -1 0 0 -1 -1 -1 -1 0 0 0 0 -1 -1 -1 -1 0 0 0 0 -1 -1 -1 -1 0 0 0 0 -1 -1 -1 -1 -1 -1 -1 -1 -1 -1 0 0 0 0 0 -1c0,0 0,-1 0,-1l0 0c0,0 0,-1 -1,-1l0 0c0,0 0,-1 0,-1 0,0 0,0 0,0 0,0 0,0 0,0l0 -1c-1,-3 -1,-5 -1,-8l0 -20 17 0 0 18 0 1 0 0c0,3 1,5 2,7l0 0 0 0 0 0 0 0 0 0 0 0 1 1 0 0 0 0 0 0 0 0 0 0 1 0 0 0 1 0 0 0 0 0 0 0 0 0 0 0c0,0 0,0 1,0 0,0 0,0 0,0 1,0 3,0 4,0 1,0 3,0 4,0 0,0 0,0 0,0 0,0 0,0 1,0l0 0 0 0 0 0 0 0 0 0 0 0 0 0 0 0 1 0 0 0 0 0 0 0 0 0 0 0 0 0 1 -1 0 0 0 0 0 0 0 0 0 0 0 -1 0 0 0 0 0 0 0 0c1,-2 2,-5 2,-7l0 -19 17 0zm-64 -5l0 -17 17 0 0 17 -17 0z"/>
  <path class="fil2 str1" d="M123 302c0,0 -7,10 -9,11 -5,2 -10,-4 -8,-10 0,-1 7,-10 9,-11 6,-2 10,5 8,10zm-20 -25c4,-3 14,2 7,11 -2,3 -9,13 -11,14 -5,3 -14,-3 -8,-11 3,-4 7,-11 11,-14zm-11 -15c3,-1 8,3 8,6 1,5 -11,18 -14,23 -5,8 -11,0 -12,-3 -1,-5 16,-25 18,-26zm-22 -1c4,-2 9,4 8,9 0,2 -6,9 -8,10 -5,1 -10,-4 -8,-9 1,-2 6,-9 8,-10zm127 -1c-12,-10 -31,-24 -44,-31 -5,-3 -20,-13 -26,-11 -15,4 -9,9 -22,16 -3,2 -14,6 -12,-2 1,-4 11,-18 15,-22 3,-5 5,-5 12,-7 11,-2 25,-3 36,-1 20,4 13,5 31,2l25 45 -7 7c-2,2 -5,3 -8,5zm-145 -12c1,-5 21,-36 25,-46 4,1 6,4 11,6 4,1 9,1 13,3 -3,6 -13,15 -12,25 1,6 7,6 14,4 20,-5 17,-24 34,-15 20,11 25,14 44,28 7,5 18,12 17,18 -2,5 -7,6 -12,4l-23 -14c-16,-10 -14,-2 -10,0 5,3 30,17 30,18 0,6 -2,9 -8,9 -7,0 -27,-18 -33,-16 -1,4 1,5 5,6 5,3 21,11 23,14 -1,12 -11,7 -17,4 -3,-1 -15,-8 -19,-8l-1 0c-4,5 18,11 22,15 -3,4 -6,7 -13,6 -3,0 -12,-2 -15,-4 5,-10 2,-17 -9,-20 1,-10 -3,-14 -12,-16 0,-7 -3,-11 -8,-13 -8,-3 -11,2 -14,6 -6,-9 -12,-10 -20,-4 -2,-1 -3,-4 -5,-6 -2,-3 -3,-3 -5,-5zm134 -57c2,-2 13,-9 16,-9l28 49c2,3 8,13 9,16 -4,3 -11,7 -15,10l-18 -32c-3,-5 -6,-11 -9,-16l-9 -17zm-124 -9c3,1 14,8 16,9l-37 65c-4,-2 -13,-8 -16,-10l37 -65zm18 16c5,-11 3,-10 -6,-15 -16,-10 -14,-10 -27,13 -33,59 -34,49 -13,63 10,6 10,-1 15,-6 2,1 9,10 10,12 -2,4 -5,7 -2,14 2,4 6,6 11,7 2,10 4,15 15,14 2,4 2,6 6,8 3,2 7,2 10,1 2,3 1,3 4,6 7,7 14,4 19,-3 10,2 22,9 32,1 3,-2 3,-3 5,-5 4,-4 12,3 16,-13 9,-2 12,-3 14,-12 6,-1 9,-1 12,-5 3,-4 3,-8 1,-13 3,-2 5,-3 7,-5 2,-2 4,-4 6,-6 6,5 3,13 16,5 7,-4 14,-7 14,-12 0,-3 -16,-30 -18,-34 -3,-5 -17,-32 -19,-34 -5,-4 -13,3 -18,6 -13,8 -5,8 -4,16 -10,2 -10,1 -20,-1 -16,-4 -52,-5 -59,8 -12,-1 -17,-2 -24,-8z"/>
 </g>
</svg>
