<?xml version="1.0" encoding="UTF-8"?>
<!DOCTYPE svg PUBLIC "-//W3C//DTD SVG 1.1//EN" "http://www.w3.org/Graphics/SVG/1.1/DTD/svg11.dtd">
<!-- Creator: CorelDRAW X6 -->
<svg xmlns="http://www.w3.org/2000/svg" xml:space="preserve" width="76.0209mm" height="84.395mm" version="1.1" style="shape-rendering:geometricPrecision; text-rendering:geometricPrecision; image-rendering:optimizeQuality; fill-rule:evenodd; clip-rule:evenodd"
viewBox="0 0 18094 20088"
 xmlns:xlink="http://www.w3.org/1999/xlink">
 <defs>
  <style type="text/css">
   <![CDATA[
    .fil1 {fill:#FEFEFE}
    .fil0 {fill:#FC6300}
   ]]>
  </style>
 </defs>
 <g id="Layer_x0020_1">
  <metadata id="CorelCorpID_0Corel-Layer"/>
  <rect class="fil0" width="18094" height="20088" rx="1008" ry="1008"/>
  <g id="_543653352">
   <path class="fil1" d="M5238 11849c0,-197 139,-336 336,-336l6885 0c197,0 336,139 336,336l0 4534 -7556 0 0 -4534zm-2855 3190c0,1681 1343,1427 2855,1427 0,215 -45,588 336,588l6968 0c381,0 336,-372 336,-588 988,0 1881,154 2419,-351 1063,-999 -153,-1957 -1026,-3225l-1646 -2300c-334,-476 -716,-1092 -1511,-1092l-4198 0c-978,0 -1794,1486 -2519,2518 -332,473 -2014,2594 -2014,3023z"/>
   <path class="fil1" d="M6917 6728c0,3027 4198,3027 4198,0 0,-907 -938,-1931 -1847,-1931l-504 0c-909,0 -1847,1024 -1847,1931z"/>
   <path class="fil1" d="M5322 5048c526,123 985,549 1511,672 733,-1385 2506,-1758 3625,-854 911,736 460,883 993,770 0,497 -32,1111 2,1593 51,709 279,1010 921,1010 0,-888 -420,-181 -420,-1175 0,-1629 -225,-1870 756,-2099 -181,-247 -558,-363 -840,-504l-2855 -1427c-135,0 -1631,848 -1875,980l-1375 724c-273,149 -278,84 -445,311z"/>
   <path class="fil1" d="M8176 13948c0,1196 1679,1028 1679,84 0,-1175 -1679,-1043 -1679,-84z"/>
  </g>
 </g>
</svg>
