<?xml version="1.0" encoding="UTF-8"?>
<!DOCTYPE svg PUBLIC "-//W3C//DTD SVG 1.1//EN" "http://www.w3.org/Graphics/SVG/1.1/DTD/svg11.dtd">
<!-- Creator: CorelDRAW X6 -->
<svg xmlns="http://www.w3.org/2000/svg" xml:space="preserve" width="6.74609in" height="4.4984in" version="1.1" style="shape-rendering:geometricPrecision; text-rendering:geometricPrecision; image-rendering:optimizeQuality; fill-rule:evenodd; clip-rule:evenodd"
viewBox="0 0 6799 4534"
 xmlns:xlink="http://www.w3.org/1999/xlink">
 <defs>
  <style type="text/css">
   <![CDATA[
    .str0 {stroke:#EBECEC;stroke-width:3.02347}
    .fil15 {fill:#232C30}
    .fil6 {fill:#2A383E}
    .fil8 {fill:#3F5E69}
    .fil17 {fill:#824D45}
    .fil11 {fill:#B1BEC2}
    .fil18 {fill:#B2B2B2}
    .fil13 {fill:#B4B5B5}
    .fil16 {fill:#C06853}
    .fil14 {fill:#C38871}
    .fil12 {fill:#CD5446}
    .fil3 {fill:#DFDFE0}
    .fil1 {fill:#EBECEC}
    .fil7 {fill:#ED7067}
    .fil10 {fill:#F39772}
    .fil2 {fill:#F3F3F3}
    .fil9 {fill:#F7B8A0}
    .fil4 {fill:#FAF9F9}
    .fil5 {fill:#FEFEFE}
    .fil0 {fill:whitesmoke}
   ]]>
  </style>
 </defs>
 <g id="Layer_x0020_1">
  <metadata id="CorelCorpID_0Corel-Layer"/>
  <rect class="fil0 str0" x="2" y="2" width="6796" height="4531"/>
  <g id="_453535584">
   <path class="fil1" d="M1005 3510l-21 6 -62 -50 -11 -41c0,0 -32,7 -14,60 19,53 11,40 11,40 0,0 -67,19 -71,26 -3,5 14,73 23,110 5,18 21,32 39,32 3,0 5,0 8,-1 17,-5 99,-42 99,-42l36 -10 -36 -129z"/>
   <polygon class="fil1" points="1061,3482 1087,3626 1052,3636 1014,3498 "/>
   <path class="fil2" d="M4711 3969c0,3 0,165 0,165l-28 0 0 18 28 0 0 110 515 0 0 -100 -38 0 0 -22 38 0 0 -33 17 0 0 -15 -20 0 0 -123 -512 0z"/>
   <polygon class="fil3" points="5090,3969 5090,4260 5226,4260 5226,4160 5188,4160 5188,4140 5226,4140 5226,4108 5244,4108 5243,4091 5223,4090 5223,3969 "/>
   <path class="fil3" d="M5099 4149c0,1 -93,2 -208,2 -115,0 -208,-1 -208,-2 0,-1 93,-2 208,-2 115,0 208,1 208,2z"/>
   <path class="fil3" d="M5099 4133c0,1 -93,2 -208,2 -115,0 -208,-1 -208,-2 0,-1 93,-2 208,-2 115,0 208,1 208,2z"/>
   <path class="fil3" d="M5126 4087c0,1 -93,2 -208,2 -115,0 -208,-1 -208,-2 0,-1 93,-2 208,-2 115,0 208,1 208,2z"/>
   <path class="fil3" d="M5129 4210c0,1 -93,2 -208,2 -115,0 -208,-1 -208,-2 0,-1 93,-2 208,-2 115,0 208,1 208,2z"/>
   <polygon class="fil2" points="5658,3909 5543,3909 5543,3773 5658,3773 "/>
   <polygon class="fil3" points="5547,3918 5028,3918 5028,3764 5547,3764 "/>
   <path class="fil3" d="M5662 3777l-128 0 0 -13 128 0c4,0 6,3 6,6 0,4 -3,6 -6,6z"/>
   <path class="fil3" d="M5662 3918l-128 0 0 -13 128 0c4,0 6,3 6,6 0,4 -3,6 -6,6z"/>
   <polygon class="fil1" points="5445,3764 5445,3918 5506,3918 5506,3764 "/>
   <polygon class="fil1" points="5078,3765 5078,3919 5139,3919 5139,3765 "/>
   <path class="fil3" d="M5658 3795c0,0 -25,1 -56,1 -31,0 -56,0 -56,-1 0,0 25,-1 56,-1 31,0 56,0 56,1z"/>
   <path class="fil3" d="M5658 3816c0,0 -25,1 -56,1 -31,0 -56,0 -56,-1 0,0 25,-1 56,-1 31,0 56,0 56,1z"/>
   <path class="fil3" d="M5658 3841c0,0 -25,1 -56,1 -31,0 -56,0 -56,-1 0,0 25,-1 56,-1 31,0 56,0 56,1z"/>
   <path class="fil3" d="M5658 3866c0,0 -25,1 -56,1 -31,0 -56,0 -56,-1 0,0 25,-1 56,-1 31,0 56,0 56,1z"/>
   <path class="fil3" d="M5658 3891c0,0 -25,1 -56,1 -31,0 -56,0 -56,-1 0,0 25,-1 56,-1 31,0 56,0 56,1z"/>
   <polygon class="fil1" points="5412,3855 5179,3855 5179,3827 5412,3827 "/>
   <polygon class="fil4" points="5657,4004 5540,4004 5540,3921 5657,3921 "/>
   <polygon class="fil2" points="5542,4007 5046,4007 5046,3918 5542,3918 "/>
   <path class="fil2" d="M5538 3924l125 0c2,0 3,-1 3,-3 0,-2 -1,-3 -3,-3l-125 0 0 6z"/>
   <path class="fil2" d="M5538 4007l125 0c2,0 3,-1 3,-3 0,-2 -1,-3 -3,-3l-125 0 0 6z"/>
   <path class="fil3" d="M5657 3937c0,0 -26,1 -58,1 -32,0 -58,0 -58,-1 0,0 26,-1 58,-1 32,0 58,0 58,1z"/>
   <path class="fil3" d="M5657 3952c0,0 -26,1 -58,1 -32,0 -58,0 -58,-1 0,0 26,-1 58,-1 32,0 58,0 58,1z"/>
   <path class="fil3" d="M5657 3968c0,0 -26,1 -58,1 -32,0 -58,0 -58,-1 0,0 26,-1 58,-1 32,0 58,0 58,1z"/>
   <path class="fil3" d="M5657 3984c0,0 -26,1 -58,1 -32,0 -58,0 -58,-1 0,0 26,-1 58,-1 32,0 58,0 58,1z"/>
   <polygon class="fil1" points="5675,4240 5556,4240 5556,4015 5675,4015 "/>
   <polygon class="fil3" points="5556,4251 4997,4251 4997,4007 5556,4007 "/>
   <path class="fil3" d="M5684 4251l-144 0 0 -16 144 0c4,0 8,4 8,8 0,4 -4,8 -8,8z"/>
   <path class="fil3" d="M5684 4023l-144 0 0 -16 144 0c4,0 8,4 8,8 0,4 -4,8 -8,8z"/>
   <path class="fil3" d="M5675 4045c0,0 -27,1 -60,1 -33,0 -60,0 -60,-1 0,0 27,-1 60,-1 33,0 60,0 60,1z"/>
   <path class="fil3" d="M5675 4074c0,0 -27,1 -60,1 -33,0 -60,0 -60,-1 0,0 27,-1 60,-1 33,0 60,0 60,1z"/>
   <path class="fil3" d="M5675 4103c0,0 -27,1 -60,1 -33,0 -60,0 -60,-1 0,0 27,-1 60,-1 33,0 60,0 60,1z"/>
   <path class="fil3" d="M5675 4132c0,0 -27,1 -60,1 -33,0 -60,0 -60,-1 0,0 27,-1 60,-1 33,0 60,0 60,1z"/>
   <path class="fil3" d="M5675 4161c0,0 -27,1 -60,1 -33,0 -60,0 -60,-1 0,0 27,-1 60,-1 33,0 60,0 60,1z"/>
   <path class="fil3" d="M5675 4190c0,0 -27,1 -60,1 -33,0 -60,0 -60,-1 0,0 27,-1 60,-1 33,0 60,0 60,1z"/>
   <path class="fil3" d="M5675 4219c0,0 -27,1 -60,1 -33,0 -60,0 -60,-1 0,0 27,-1 60,-1 33,0 60,0 60,1z"/>
   <path class="fil1" d="M5188 4143l0 14c0,16 -8,26 -24,26 -16,0 -24,-9 -24,-26l0 -53c0,-16 8,-26 24,-26 16,0 24,9 24,26l0 10 -15 0 0 -11c0,-7 -3,-10 -8,-10 -5,0 -8,3 -8,10l0 55c0,7 3,10 8,10 5,0 8,-3 8,-10l0 -15 15 0z"/>
   <path class="fil1" d="M5213 4157c0,7 3,10 8,10 5,0 8,-3 8,-10l0 -55c0,-7 -3,-10 -8,-10 -5,0 -8,3 -8,10l0 55zm-16 -54c0,-16 9,-26 24,-26 16,0 24,9 24,26l0 53c0,16 -9,26 -24,26 -16,0 -24,-9 -24,-26l0 -53z"/>
   <polygon class="fil1" points="5256,4078 5272,4078 5272,4166 5298,4166 5298,4181 5256,4181 "/>
   <path class="fil1" d="M5320 4157c0,7 3,10 8,10 5,0 8,-3 8,-10l0 -55c0,-7 -3,-10 -8,-10 -5,0 -8,3 -8,10l0 55zm-16 -54c0,-16 9,-26 24,-26 16,0 24,9 24,26l0 53c0,16 -9,26 -24,26 -16,0 -24,-9 -24,-26l0 -53z"/>
   <path class="fil1" d="M5379 4078l0 79c0,7 3,10 8,10 5,0 8,-3 8,-10l0 -79 15 0 0 78c0,16 -8,26 -24,26 -16,0 -24,-9 -24,-26l0 -78 16 0z"/>
   <path class="fil1" d="M5438 4093l0 31 6 0c6,0 10,-3 10,-11l0 -10c0,-7 -2,-11 -8,-11l-8 0zm18 88c-1,-3 -1,-4 -1,-13l0 -16c0,-9 -3,-13 -11,-13l-6 0 0 42 -16 0 0 -102 24 0c17,0 24,8 24,24l0 8c0,11 -3,17 -11,21 8,3 11,11 11,22l0 16c0,5 0,9 2,12l-16 0z"/>
   <polygon class="fil3" points="5185,3953 5173,3953 5174,3950 5201,3950 5200,3953 5188,3953 5182,3983 5179,3983 "/>
   <path class="fil3" d="M5223 3958l-18 28c-3,5 -5,6 -9,6 -2,0 -5,-1 -6,-2l2 -2c1,1 3,2 4,2 2,0 4,-1 6,-4l2 -3 -6 -25 3 0 5 21 14 -21 3 0z"/>
   <path class="fil3" d="M5248 3969c0,-5 -3,-8 -8,-8 -6,0 -11,5 -11,12 0,5 3,8 8,8 6,0 11,-5 11,-12zm3 0c0,9 -6,15 -14,15 -5,0 -8,-2 -9,-5l-3 14 -3 0 7 -34 3 0 -1 4c2,-3 6,-4 10,-4 6,0 11,4 11,11z"/>
   <path class="fil3" d="M5277 3969c0,-5 -3,-8 -8,-8 -6,0 -11,5 -11,12 0,5 3,8 8,8 6,0 11,-5 11,-12zm-22 4c0,-9 6,-15 14,-15 7,0 11,4 11,11 0,9 -6,15 -14,15 -7,0 -11,-4 -11,-11z"/>
   <path class="fil3" d="M5307 3968c0,-5 -3,-7 -8,-7 -6,0 -11,5 -11,11 0,5 3,7 8,7 6,0 11,-5 11,-11zm6 -10l-4 22c-2,9 -6,12 -15,12 -5,0 -9,-1 -11,-4l2 -3c2,2 5,3 9,3 6,0 10,-3 11,-9l1 -3c-2,3 -6,4 -10,4 -7,0 -11,-4 -11,-10 0,-8 6,-14 14,-14 5,0 8,2 10,6l1 -6 3 0z"/>
   <path class="fil3" d="M5335 3958l-1 3 -1 0c-5,0 -9,3 -10,9l-3 13 -3 0 5 -25 3 0 -1 5c2,-3 6,-5 10,-5z"/>
   <path class="fil3" d="M5358 3969c0,-5 -3,-8 -8,-8 -6,0 -11,5 -11,12 0,5 3,8 8,8 6,0 11,-5 11,-12zm6 -11l-5 25 -3 0 1 -4c-2,3 -6,4 -10,4 -6,0 -11,-4 -11,-11 0,-9 6,-15 14,-15 5,0 8,2 10,5l1 -5 3 0z"/>
   <path class="fil3" d="M5393 3969c0,-5 -3,-8 -8,-8 -6,0 -11,5 -11,12 0,5 3,8 8,8 6,0 11,-5 11,-12zm3 0c0,9 -6,15 -14,15 -5,0 -8,-2 -10,-5l-3 14 -3 0 7 -34 3 0 -1 4c2,-3 6,-4 10,-4 6,0 11,4 11,11z"/>
   <path class="fil3" d="M5426 3966c0,1 0,2 0,3l-3 14 -3 0 3 -14 0 -2c0,-4 -2,-6 -6,-6 -5,0 -9,3 -10,9l-3 13 -3 0 7 -35 3 0 -3 14c2,-3 6,-4 10,-4 6,0 9,3 9,8z"/>
   <path class="fil3" d="M5458 3958l-18 28c-3,5 -5,6 -9,6 -2,0 -5,-1 -6,-2l2 -2c1,1 3,2 4,2 2,0 4,-1 6,-4l2 -3 -6 -25 3 0 5 21 14 -21 3 0z"/>
   <path class="fil1" d="M1533 2193l0 0c-149,0 -271,-121 -271,-271 0,-149 121,-271 271,-271 149,0 271,121 271,271 0,149 -121,271 -271,271z"/>
   <path class="fil5" d="M1573 1913c-3,-8 -7,-16 -11,-24 33,-14 60,-34 80,-59 19,23 32,52 33,84 -37,-6 -71,-6 -102,-1zm39 128c-6,-34 -16,-67 -28,-99 27,-4 57,-3 89,3 -6,40 -29,75 -62,96zm-79 24c-33,0 -63,-11 -87,-30 28,-44 64,-73 109,-87 13,35 23,71 29,107 -16,6 -33,10 -51,10zm-142 -142c0,-1 0,-2 0,-4 55,0 103,-6 143,-19 3,7 7,14 10,21 -49,15 -89,46 -120,93 -21,-25 -33,-56 -33,-91zm78 -127c19,25 36,51 51,77 -35,10 -77,16 -125,16 10,-41 37,-75 74,-93zm64 -15c33,0 63,11 87,30 -17,22 -41,40 -72,53 -15,-27 -31,-53 -50,-78 11,-3 23,-5 35,-5zm0 -30c-95,0 -172,77 -172,172 0,95 77,172 172,172 95,0 172,-77 172,-172 0,-95 -77,-172 -172,-172z"/>
   <path class="fil1" d="M632 1593l-32 17 -121 -58 -35 -63c0,0 -50,24 1,103 51,79 33,62 33,62 0,0 -103,57 -107,71 -3,10 51,114 80,171 15,28 46,45 76,37 4,-1 8,-3 12,-5 26,-14 146,-107 146,-107l55 -30 -108 -198z"/>
   <polygon class="fil1" points="713,1526 812,1752 757,1782 642,1570 "/>
   <path class="fil2" d="M4418 637c4,181 -140,331 -321,335 -181,4 -331,-140 -335,-321 -4,-181 140,-331 321,-335 181,-4 331,140 335,321z"/>
   <path class="fil3" d="M3977 561c12,-1 24,13 25,31 1,18 -7,33 -20,34 -12,1 -24,-13 -25,-31 -1,-18 7,-33 20,-34z"/>
   <path class="fil3" d="M4006 478c0,3 -28,0 -58,12 -31,11 -50,31 -52,29 -2,-1 15,-26 49,-38 33,-12 63,-5 62,-3z"/>
   <path class="fil3" d="M4186 557c-12,-1 -23,14 -24,32 -1,18 9,33 21,33 12,1 23,-14 24,-32 1,-18 -9,-33 -21,-33z"/>
   <path class="fil3" d="M4153 475c-1,-2 28,-11 62,0 34,11 52,34 50,36 -2,2 -22,-17 -53,-27 -31,-10 -58,-7 -59,-9z"/>
   <path class="fil3" d="M4252 640c1,0 0,6 -2,18 -2,11 -8,27 -19,44 -11,18 -27,36 -50,52 -22,15 -51,27 -83,29 -32,1 -62,-7 -86,-20 -24,-13 -43,-30 -55,-46 -13,-16 -20,-31 -24,-42 -4,-11 -5,-17 -4,-17 2,-1 7,25 33,55 13,15 31,31 54,43 23,12 51,20 81,18 30,-2 57,-12 79,-27 22,-14 38,-32 49,-48 22,-33 25,-59 27,-58z"/>
   <path class="fil2" d="M6428 1282c2,106 -82,194 -188,196 -106,2 -194,-82 -196,-188 -2,-106 82,-194 188,-196 106,-2 194,82 196,188z"/>
   <path class="fil3" d="M6169 1237c7,-1 14,7 15,18 1,11 -4,20 -12,20 -7,1 -14,-7 -15,-18 -1,-11 4,-20 12,-20z"/>
   <path class="fil3" d="M6186 1189c0,2 -16,0 -34,7 -18,7 -29,18 -31,17 -1,-1 9,-15 29,-22 20,-7 37,-3 36,-2z"/>
   <path class="fil3" d="M6292 1235c-7,0 -14,8 -14,19 0,11 5,19 12,20 7,0 14,-8 14,-19 0,-11 -5,-19 -12,-20z"/>
   <path class="fil3" d="M6273 1187c-1,-1 16,-6 36,0 20,6 31,20 30,21 -1,1 -13,-10 -31,-16 -18,-6 -34,-4 -35,-6z"/>
   <path class="fil3" d="M6331 1284c0,0 0,4 -1,10 -1,7 -5,16 -11,26 -6,10 -16,21 -29,30 -13,9 -30,16 -49,17 -19,1 -36,-4 -50,-12 -14,-8 -25,-18 -32,-27 -7,-10 -12,-18 -14,-25 -2,-6 -3,-10 -2,-10 1,0 4,15 19,32 7,9 18,18 32,25 14,7 30,12 48,11 18,-1 34,-7 46,-16 13,-8 22,-19 29,-28 13,-19 15,-35 16,-34z"/>
   <path class="fil1" d="M1342 2514l-20 -3 -34 -69 7 -41c0,0 -31,-7 -36,47 -5,54 -7,40 -7,40 0,0 -67,-11 -74,-6 -5,4 -17,70 -24,106 -3,18 5,37 21,44 2,1 5,2 7,2 17,3 104,3 104,3l35 6 21 -128z"/>
   <polygon class="fil1" points="1402,2513 1367,2650 1332,2645 1354,2508 "/>
   <path class="fil1" d="M5873 441l-20 -3 -34 -69 7 -41c0,0 -31,-7 -36,47 -5,54 -7,40 -7,40 0,0 -67,-11 -74,-6 -5,4 -17,70 -24,106 -3,18 5,37 21,44 2,1 5,2 7,2 17,3 104,3 104,3l35 6 21 -128z"/>
   <polygon class="fil1" points="5934,440 5898,577 5863,572 5886,435 "/>
   <polygon class="fil4" points="3915,1588 3918,2265 3072,2269 3068,1593 "/>
   <path class="fil6" d="M3915 1588c0,0 -1,0 -4,0 -3,0 -7,0 -12,0 -11,0 -26,0 -46,1 -40,0 -99,1 -173,1 -149,1 -360,3 -611,4l2 -2c1,201 2,432 4,676l0 0 -2 -2c313,-2 604,-3 846,-4l-2 2c-1,-204 -1,-373 -2,-491 0,-59 0,-105 0,-137 0,-16 0,-28 0,-36 0,-8 0,-13 0,-13 0,0 0,4 0,12 0,8 0,20 0,36 0,32 1,78 1,137 1,118 2,288 4,492l0 2 -2 0c-242,1 -533,3 -846,5l-2 0 0 -2 0 0c-1,-244 -2,-475 -3,-676l0 -2 2 0c252,-1 463,-2 612,-2 74,0 133,0 173,0 20,0 35,0 46,0 5,0 9,0 12,0 3,0 4,0 4,0z"/>
   <polygon class="fil1" points="3101,2226 3888,2222 3885,1631 3098,1635 "/>
   <polygon class="fil3" points="3101,2226 3374,1857 3545,2087 3660,1963 3888,2222 "/>
   <path class="fil3" d="M3616 1811c0,34 -27,62 -62,62 -34,0 -62,-27 -62,-62 0,-34 27,-62 62,-62 34,0 62,27 62,62z"/>
   <path class="fil4" d="M468 4258c1945,0 3890,0 5834,0l-5834 0z"/>
   <path class="fil6" d="M6303 4258c0,1 -1306,2 -2917,2 -1611,0 -2917,-1 -2917,-2 0,-1 1306,-2 2917,-2 1611,0 2917,1 2917,2z"/>
   <path class="fil7" d="M1568 3796l0 0c-127,0 -231,-103 -231,-231 0,-127 103,-231 231,-231 127,0 231,103 231,231 0,127 -103,231 -231,231z"/>
   <path class="fil5" d="M1571 3666c-21,0 -41,-6 -57,-17l-40 13 13 -39c-13,-17 -20,-38 -20,-61 0,-3 0,-7 1,-10 5,-52 50,-94 104,-94 55,0 100,42 104,96 0,3 0,5 0,8 0,57 -47,104 -105,104zm124 -107c-2,-67 -57,-120 -124,-120 -67,0 -121,52 -124,118 0,2 0,4 0,5 0,23 7,45 18,64l-22 66 69 -22c18,10 38,15 60,15 69,0 124,-55 124,-123 0,-1 0,-2 0,-3z"/>
   <path class="fil5" d="M1628 3587c-3,-2 -18,-9 -21,-10 -3,-1 -5,-2 -7,2 -2,3 -8,10 -10,12 -2,2 -4,2 -7,1 -3,-2 -13,-5 -25,-15 -9,-8 -15,-18 -17,-21 -2,-3 0,-5 1,-6 1,-1 3,-4 5,-5l1 -1c1,-1 1,-2 2,-4 1,-2 1,-4 0,-5 -1,-2 -7,-16 -9,-22 -2,-6 -5,-5 -7,-5 -2,0 -4,0 -6,0 -2,0 -5,1 -8,4 -3,3 -11,10 -11,25 0,3 1,7 2,10 3,11 10,19 11,21 2,2 21,34 52,46 31,12 31,8 37,8 6,0 18,-7 21,-14 3,-7 3,-13 2,-14 -1,-1 -3,-2 -6,-3z"/>
   <path class="fil7" d="M938 2316l0 0c-98,0 -178,-80 -178,-178 0,-98 80,-178 178,-178l0 0c98,0 178,80 178,178 0,98 -80,178 -178,178z"/>
   <path class="fil5" d="M882 2155c3,1 5,0 6,-3 1,-2 2,-8 2,-10 1,-3 0,-4 -2,-7 -5,-6 -8,-13 -8,-24 0,-31 23,-58 60,-58 33,0 50,20 50,47 0,35 -15,65 -38,65 -13,0 -22,-10 -19,-23 4,-15 11,-32 11,-43 0,-10 -5,-18 -16,-18 -13,0 -23,13 -23,31 0,11 4,19 4,19 0,0 -13,56 -16,66 -5,20 -1,44 0,46 0,1 2,2 3,1 1,-2 17,-21 22,-40 1,-5 9,-33 9,-33 4,8 17,15 30,15 39,0 65,-36 65,-83 0,-36 -30,-70 -77,-70 -58,0 -87,41 -87,76 0,21 8,39 25,46z"/>
   <path class="fil8" d="M725 3166l0 0c-135,0 -244,-109 -244,-244 0,-135 109,-244 244,-244 135,0 244,109 244,244 0,134 -109,244 -244,244z"/>
   <path class="fil5" d="M725 2789c-36,0 -41,0 -55,1 -14,1 -24,3 -32,6 -9,3 -16,8 -24,15 -7,7 -12,15 -15,24 -3,8 -6,18 -6,32 -1,14 -1,19 -1,55 0,36 0,41 1,55 1,14 3,24 6,32 3,9 8,16 15,24 7,7 15,12 24,15 8,3 18,6 32,6 14,1 19,1 55,1 36,0 41,0 55,-1 14,-1 24,-3 32,-6 9,-3 16,-8 24,-15 7,-7 12,-15 15,-24 3,-8 6,-18 6,-32 1,-14 1,-19 1,-55 0,-36 0,-41 -1,-55 -1,-14 -3,-24 -6,-32 -3,-9 -8,-16 -15,-24 -7,-7 -15,-12 -24,-15 -8,-3 -18,-6 -32,-6 -14,-1 -19,-1 -55,-1zm0 24c36,0 40,0 54,1 13,1 20,3 25,5 6,2 11,5 15,10 5,5 8,9 10,15 2,5 4,12 5,25 1,14 1,18 1,54 0,36 0,40 -1,54 -1,13 -3,20 -5,25 -2,6 -5,11 -10,15 -5,5 -9,8 -15,10 -5,2 -12,4 -25,5 -14,1 -18,1 -54,1 -36,0 -40,0 -54,-1 -13,-1 -20,-3 -25,-5 -6,-2 -11,-5 -15,-10 -5,-5 -8,-9 -10,-15 -2,-5 -4,-12 -5,-25 -1,-14 -1,-18 -1,-54 0,-36 0,-40 1,-54 1,-13 3,-20 5,-25 2,-6 5,-11 10,-15 5,-5 9,-8 15,-10 5,-2 12,-4 25,-5 14,-1 18,-1 54,-1z"/>
   <path class="fil5" d="M725 2967c-25,0 -45,-20 -45,-45 0,-25 20,-45 45,-45 25,0 45,20 45,45 0,25 -20,45 -45,45zm0 -113c-38,0 -69,31 -69,69 0,38 31,69 69,69 38,0 69,-31 69,-69 0,-38 -31,-69 -69,-69z"/>
   <path class="fil5" d="M812 2851c0,9 -7,16 -16,16 -9,0 -16,-7 -16,-16 0,-9 7,-16 16,-16 9,0 16,7 16,16z"/>
   <path class="fil8" d="M1318 1605l0 0c-81,0 -147,-66 -147,-147 0,-81 66,-147 147,-147 81,0 147,66 147,147 0,81 -66,147 -147,147z"/>
   <path class="fil5" d="M1296 1547l36 0 0 -89 25 0 3 -30 -28 0c0,0 0,-11 0,-17 0,-7 1,-10 8,-10 5,0 19,0 19,0l0 -31c0,0 -20,0 -25,0 -27,0 -39,12 -39,34 0,20 0,24 0,24l-19 0 0 30 19 0 0 89z"/>
   <path class="fil5" d="M5174 717c0,117 -95,212 -212,212 -117,0 -212,-95 -212,-212 0,-117 95,-212 212,-212 117,0 212,95 212,212z"/>
   <path class="fil6" d="M5174 717c0,0 0,-5 -1,-13 0,-4 -1,-10 -2,-16 -1,-6 -2,-14 -4,-22 -4,-16 -11,-36 -23,-56 -12,-20 -30,-42 -54,-60 -24,-18 -54,-33 -89,-39 -34,-6 -73,-5 -111,9 -19,6 -37,16 -53,29 -9,6 -16,13 -24,20 -7,8 -15,15 -21,24 -26,34 -41,79 -41,124 0,46 15,90 41,124 6,9 14,17 21,24 8,7 15,14 24,20 17,12 35,22 53,29 37,14 76,15 111,9 35,-6 65,-21 89,-39 24,-18 41,-39 54,-60 12,-20 20,-40 23,-56 2,-8 3,-15 4,-22 1,-6 2,-12 2,-16 1,-9 1,-13 1,-13 0,0 0,5 0,13 0,4 0,10 -2,16 -1,6 -2,14 -4,22 -4,16 -11,36 -23,57 -12,21 -30,42 -54,60 -24,18 -54,34 -89,40 -35,6 -74,5 -112,-9 -19,-7 -37,-16 -54,-29 -9,-6 -16,-13 -24,-20 -7,-8 -15,-16 -21,-25 -26,-35 -41,-80 -41,-126 0,-46 15,-91 41,-126 6,-9 14,-17 21,-25 8,-7 16,-15 24,-20 17,-12 35,-22 54,-29 38,-14 77,-15 112,-9 35,6 65,22 89,40 24,18 42,40 54,60 12,21 20,40 23,57 2,8 3,16 4,22 1,6 1,12 2,16 0,9 0,13 0,13z"/>
   <path class="fil7" d="M4962 579c0,0 12,-2 34,3 21,5 53,18 78,50 12,16 22,36 27,59 4,23 4,49 -6,74 -4,13 -11,25 -19,36 -8,11 -18,21 -30,30 -23,17 -53,27 -83,28 -31,0 -60,-10 -83,-28 -12,-8 -22,-19 -30,-30 -8,-11 -15,-23 -19,-36 -9,-25 -10,-51 -6,-74 4,-23 15,-43 27,-59 25,-32 56,-45 78,-50 22,-5 34,-3 34,-3 0,1 -12,0 -33,6 -21,5 -51,19 -75,50 -11,15 -21,35 -25,57 -4,22 -3,47 6,71 4,12 11,24 18,34 8,11 18,20 29,29 22,17 51,26 80,26 29,0 58,-10 80,-26 11,-8 21,-18 29,-29 8,-11 14,-22 18,-34 9,-24 10,-49 6,-71 -4,-22 -14,-42 -25,-57 -24,-31 -54,-45 -75,-50 -21,-5 -33,-5 -33,-6z"/>
   <path class="fil7" d="M4962 673c0,0 4,-1 11,0 7,1 17,5 26,16 8,10 13,27 7,44 -5,17 -23,31 -44,31 -21,0 -38,-14 -44,-31 -6,-17 -1,-34 7,-44 8,-10 19,-15 26,-16 7,-1 11,0 11,0 0,1 -4,1 -10,3 -6,2 -16,6 -23,16 -7,9 -11,25 -5,39 5,14 21,27 38,27 18,0 33,-12 38,-27 6,-15 2,-30 -5,-39 -7,-10 -16,-14 -23,-16 -7,-2 -10,-2 -10,-3z"/>
   <path class="fil2" d="M4737 869c73,-51 152,-101 225,-152l-225 152z"/>
   <path class="fil6" d="M4962 717c0,1 -50,35 -112,77 -62,42 -113,76 -113,75 0,-1 50,-35 112,-77 62,-42 113,-76 113,-75z"/>
   <path class="fil6" d="M4761 855c0,1 -12,1 -26,0 -14,-1 -26,-2 -26,-2 0,-1 12,-1 26,0 14,1 26,2 26,2z"/>
   <path class="fil6" d="M4753 889c-1,0 0,-8 3,-18 2,-10 4,-18 5,-17 1,0 0,8 -3,18 -2,10 -4,18 -5,17z"/>
   <path class="fil6" d="M4765 885c-1,0 0,-8 2,-19 2,-10 4,-18 5,-18 1,0 0,8 -2,19 -2,10 -4,18 -5,18z"/>
   <path class="fil6" d="M4735 840c0,-1 8,1 18,3 10,2 18,5 18,5 0,1 -8,-1 -18,-3 -10,-2 -18,-5 -18,-5z"/>
   <path class="fil7" d="M5843 1832c0,0 0,1 1,3 0,2 1,4 1,8 0,7 -1,18 -7,30 -6,12 -17,24 -30,37 -13,13 -27,28 -42,44l-1 1 -2 -1c-14,-11 -29,-23 -45,-36 -16,-13 -34,-26 -43,-47 -6,-13 -7,-29 -1,-41 6,-13 17,-22 30,-26 13,-4 27,0 37,7 10,7 17,17 19,29l-4 0c2,-19 16,-34 31,-38 15,-5 29,-1 38,5 9,6 14,13 16,19 1,3 2,5 2,6 0,1 0,2 0,2 0,0 -1,-3 -4,-8 -3,-5 -8,-12 -16,-17 -9,-5 -22,-9 -35,-4 -13,5 -26,18 -28,36l-1 13 -3 -13c-2,-10 -9,-19 -18,-26 -9,-6 -21,-9 -33,-6 -11,3 -22,12 -27,23 -6,11 -4,25 1,37 9,20 26,33 42,46 16,13 31,25 45,36l-3 0c15,-16 30,-30 43,-43 13,-13 24,-24 30,-36 6,-11 8,-22 8,-29 0,-7 -1,-11 -1,-11z"/>
   <path class="fil7" d="M5607 1712c0,0 0,2 0,6 0,4 1,9 1,17 1,15 2,36 4,63 3,55 7,133 12,230l-2 -2c61,-3 129,-7 203,-11l2 0 0 2c2,30 3,63 5,96l-4 -1c29,-32 60,-66 92,-101l1 -1 1 0c71,-4 146,-7 222,-11 23,-1 46,-2 68,-3l-2 3c-6,-112 -11,-218 -16,-316l2 2c-173,8 -320,15 -424,20 -52,2 -93,4 -122,5 -14,1 -25,1 -32,1 -4,0 -6,0 -8,0 -2,0 -3,0 -3,0 0,0 1,0 3,0 2,0 5,0 8,-1 7,0 18,-1 32,-2 28,-2 69,-4 121,-7 104,-5 252,-13 426,-22l2 0 0 2c5,98 10,204 16,316l0 2 -2 0c-22,1 -45,2 -68,3 -77,4 -152,8 -222,11l2 -1c-32,35 -62,69 -92,101l-4 4 0 -5c-2,-33 -3,-66 -5,-96l2 2c-74,4 -142,7 -203,10l-2 0 0 -2c-4,-97 -8,-177 -11,-232 -1,-27 -2,-48 -3,-63 0,-7 0,-12 -1,-16 0,-4 0,-5 0,-5z"/>
   <polygon class="fil6" points="5940,1859 5915,1860 5916,1885 5910,1885 5909,1861 5884,1862 5884,1856 5909,1855 5908,1831 5914,1830 5915,1855 5940,1854 "/>
   <polygon class="fil6" points="5975,1809 5980,1900 5973,1901 5969,1815 5946,1816 5946,1810 "/>
   <path class="fil6" d="M6066 1850c-1,-26 -14,-40 -31,-39 -17,1 -28,16 -27,42 1,26 14,40 31,39 17,-1 28,-16 27,-42zm-65 3c-1,-29 12,-47 34,-48 21,-1 37,16 38,45 1,29 -12,47 -34,48 -21,1 -37,-16 -38,-45z"/>
   <path class="fil6" d="M6152 1846c-1,-26 -14,-40 -31,-39 -17,1 -28,16 -27,42 1,26 14,40 31,39 17,-1 28,-16 27,-42zm-65 3c-1,-29 12,-47 34,-48 21,-1 37,16 38,45 1,29 -12,47 -34,48 -21,1 -37,-16 -38,-45z"/>
   <polygon class="fil7" points="5760,1275 5696,1275 5696,1021 5760,1021 "/>
   <polygon class="fil7" points="5655,1275 5591,1275 5591,1002 5655,1002 "/>
   <polygon class="fil7" points="5553,1275 5490,1275 5490,1036 5553,1036 "/>
   <polygon class="fil7" points="5450,1275 5386,1275 5386,1073 5450,1073 "/>
   <path class="fil6" d="M5809 1276c0,1 -105,2 -234,2 -130,0 -234,-1 -234,-2 0,-1 105,-2 234,-2 129,0 234,1 234,2z"/>
   <path class="fil6" d="M5782 1037c0,0 -7,-1 -20,0 -13,1 -32,4 -53,16 -10,6 -20,14 -29,24 -9,10 -17,23 -27,35 -10,12 -22,25 -38,32 -16,7 -34,10 -52,10 -18,1 -36,0 -53,1 -17,1 -33,3 -48,7 -30,7 -54,23 -68,42 -14,19 -19,38 -19,51 0,13 2,20 2,20 0,0 -3,-7 -4,-20 0,-13 4,-33 18,-53 7,-10 17,-19 29,-27 12,-8 26,-13 41,-18 15,-4 32,-6 49,-7 17,-1 35,0 53,-1 18,-1 35,-3 50,-10 15,-7 27,-18 36,-30 10,-12 18,-25 27,-35 9,-11 20,-19 31,-24 21,-12 41,-14 54,-15 7,0 12,0 15,1 3,1 5,1 5,1z"/>
   <path class="fil6" d="M5348 976c1,0 2,68 2,152 0,84 -1,152 -2,152 -1,0 -2,-68 -2,-152 0,-84 1,-152 2,-152z"/>
   <path class="fil6" d="M4784 1594c0,1 -10,4 -22,8 -12,3 -23,6 -23,5 0,-1 9,-6 22,-9 13,-4 23,-5 24,-3z"/>
   <path class="fil6" d="M4878 1586c0,1 -11,2 -24,2 -13,0 -23,0 -24,-1 0,-1 10,-3 23,-4 13,0 24,1 24,3z"/>
   <path class="fil6" d="M4971 1600c0,1 -11,0 -23,-3 -13,-3 -23,-5 -23,-7 0,-1 11,-1 24,2 13,3 23,7 22,8z"/>
   <path class="fil6" d="M5058 1635c-1,1 -10,-3 -22,-8 -12,-5 -21,-10 -21,-12 0,-1 11,2 23,7 12,6 21,12 20,13z"/>
   <path class="fil6" d="M5135 1689c-1,1 -9,-5 -19,-13 -10,-8 -18,-15 -17,-16 1,-1 10,4 20,12 10,8 17,16 16,17z"/>
   <path class="fil7" d="M5618 2701c-9,23 -35,35 -58,26 -23,-9 -35,-35 -26,-58 9,-23 35,-35 58,-26 23,9 35,35 26,58z"/>
   <path class="fil7" d="M5768 2663c-9,23 -35,35 -58,26 -23,-9 -35,-35 -26,-58 9,-23 35,-35 58,-26 23,9 35,35 26,58z"/>
   <path class="fil7" d="M5699 2841c-10,25 -37,38 -60,29 -23,-9 -34,-37 -24,-62 10,-25 37,-38 60,-29 23,9 34,37 24,62z"/>
   <path class="fil7" d="M5647 2814c-3,2 -24,-25 -48,-60 -24,-35 -41,-65 -38,-67 3,-2 24,25 48,60 24,35 41,65 38,67z"/>
   <path class="fil7" d="M5719 2640c1,3 -28,15 -65,26 -37,11 -68,17 -69,14 -1,-3 28,-15 65,-26 37,-11 68,-17 69,-14z"/>
   <path class="fil7" d="M5066 3115c0,0 -1,-4 -1,-11 0,-4 0,-8 -1,-13 -1,-5 -2,-11 -3,-18 -3,-13 -9,-29 -18,-45 -10,-17 -23,-34 -42,-49 -19,-15 -43,-27 -70,-33 -27,-5 -59,-5 -88,6 -15,5 -30,12 -43,22 -7,5 -13,10 -19,16 -6,6 -12,12 -17,19 -21,27 -34,62 -35,98 -1,36 10,72 30,100 5,7 10,13 16,20 6,6 12,12 19,17 13,10 27,18 42,24 29,12 60,14 88,10 28,-4 52,-16 72,-29 20,-14 34,-31 45,-47 10,-16 17,-31 21,-44 2,-6 3,-12 4,-17 1,-5 2,-9 2,-13 1,-7 1,-11 2,-11 0,0 0,4 0,11 0,4 0,8 -1,13 -1,5 -2,11 -4,18 -3,13 -9,29 -20,46 -10,17 -25,34 -45,49 -20,15 -45,27 -75,32 -29,4 -62,3 -92,-9 -16,-6 -31,-14 -44,-25 -7,-5 -13,-11 -20,-17 -6,-7 -12,-13 -17,-21 -21,-29 -33,-67 -32,-105 1,-38 15,-75 37,-104 5,-7 12,-14 18,-20 7,-6 13,-12 21,-16 14,-10 30,-18 45,-23 31,-11 64,-11 93,-5 29,6 54,20 73,35 19,16 33,34 43,51 9,17 15,34 17,47 2,7 2,13 3,18 1,5 1,10 1,13 0,7 0,11 -1,11z"/>
   <path class="fil7" d="M5032 3007c0,1 -3,3 -9,8 -3,2 -7,5 -11,8 -2,2 -4,3 -7,5 -3,1 -6,3 -8,4 -23,13 -60,27 -101,25 -5,0 -10,0 -15,-1 -5,-1 -10,-2 -15,-2 -2,0 -5,-1 -7,-1 -2,-1 -5,-1 -7,-2 -5,-1 -9,-2 -13,-4 -17,-6 -31,-13 -43,-20 -23,-14 -34,-27 -33,-27 1,-1 13,10 37,22 12,6 26,12 42,17 4,1 8,2 13,3 2,1 4,1 7,2 2,0 5,1 7,1 5,1 9,1 14,2 5,0 10,0 15,1 40,1 75,-11 98,-22 3,-1 6,-3 9,-4 3,-1 5,-3 7,-4 4,-2 8,-5 12,-6 7,-3 10,-5 11,-5z"/>
   <path class="fil7" d="M4756 3216c0,-1 3,-3 9,-8 3,-2 7,-5 11,-8 2,-2 4,-3 7,-5 3,-1 6,-3 8,-4 23,-13 60,-27 101,-25 5,0 10,0 15,1 5,1 10,2 15,2 2,0 5,1 7,1 2,1 5,1 7,2 5,1 9,2 13,4 17,6 31,13 43,20 23,14 34,27 33,27 -1,1 -13,-10 -37,-22 -12,-6 -26,-12 -42,-17 -4,-1 -8,-2 -13,-3 -2,-1 -4,-1 -7,-2 -2,0 -5,-1 -7,-1 -5,-1 -9,-1 -14,-2 -5,0 -10,0 -15,-1 -40,-1 -75,11 -98,22 -3,1 -6,3 -9,4 -3,1 -5,3 -7,4 -4,2 -8,5 -12,6 -7,3 -10,5 -11,5z"/>
   <path class="fil7" d="M5066 3119c0,3 -77,3 -172,1 -95,-2 -172,-6 -172,-9 0,-3 77,-3 172,-1 95,2 172,6 172,9z"/>
   <path class="fil7" d="M4886 3282c-3,0 -3,-77 -1,-172 2,-95 6,-172 9,-172 3,0 3,77 1,172 -2,95 -6,172 -9,172z"/>
   <path class="fil7" d="M4886 3282c-1,1 -20,-12 -42,-41 -11,-15 -22,-33 -31,-56 -9,-23 -14,-49 -13,-77 0,-28 8,-54 17,-76 10,-22 22,-40 34,-54 23,-28 42,-40 43,-39 1,1 -16,15 -38,44 -11,14 -22,32 -31,53 -9,21 -15,46 -16,73 -1,27 4,52 12,74 8,22 18,40 28,55 20,29 37,44 36,45z"/>
   <path class="fil7" d="M4898 2938c1,-1 20,12 41,41 11,15 22,33 31,56 9,23 14,49 13,77 0,28 -8,54 -17,76 -10,22 -22,40 -34,54 -23,28 -42,40 -43,39 -1,-1 16,-15 38,-44 11,-14 22,-32 31,-53 9,-21 15,-46 16,-73 1,-27 -4,-52 -12,-74 -8,-22 -18,-40 -28,-55 -20,-29 -37,-44 -36,-45z"/>
   <path class="fil6" d="M4890 1081c-1,0 -2,-5 -1,-12 1,-6 2,-12 3,-12 1,0 2,5 1,12 -1,6 -2,12 -3,12z"/>
   <path class="fil6" d="M4882 1178c-1,0 -2,-11 0,-25 1,-13 3,-24 4,-24 1,0 2,11 0,25 -1,13 -3,24 -4,24z"/>
   <path class="fil6" d="M4874 1276c-1,0 -2,-11 0,-24 1,-13 3,-24 5,-24 1,0 2,11 0,25 -1,13 -3,24 -5,24z"/>
   <path class="fil6" d="M4865 1373c-1,0 -1,-11 0,-24 1,-13 3,-24 5,-24 1,0 1,11 0,24 -1,13 -3,24 -5,24z"/>
   <path class="fil6" d="M4857 1470c-1,0 -1,-11 0,-24 1,-13 3,-24 5,-24 1,0 1,11 0,25 -1,13 -3,24 -5,24z"/>
   <path class="fil6" d="M4849 1542c-1,0 -2,-6 -1,-12 1,-6 2,-11 4,-11 1,0 2,6 1,12 -1,7 -2,12 -4,11z"/>
   <path class="fil6" d="M5140 1582c1,1 -4,10 -12,20 -8,10 -15,18 -16,17 -1,-1 4,-10 12,-20 8,-10 15,-18 16,-17z"/>
   <path class="fil6" d="M5197 1507c1,1 -4,10 -12,20 -8,10 -15,18 -16,17 -1,-1 4,-10 12,-20 8,-10 15,-18 16,-17z"/>
   <path class="fil6" d="M5254 1432c1,1 -4,10 -12,20 -8,10 -15,18 -16,17 -1,-1 4,-10 12,-20 8,-10 15,-18 16,-17z"/>
   <path class="fil6" d="M5312 1357c1,1 -4,10 -12,20 -8,10 -15,18 -16,17 -1,-1 4,-10 12,-20 8,-10 15,-18 16,-17z"/>
   <path class="fil6" d="M5316 1890c-1,1 -6,-9 -12,-20 -6,-12 -10,-21 -9,-22 1,-1 7,8 13,20 6,12 9,22 7,23z"/>
   <path class="fil6" d="M5340 1981c-1,0 -4,-10 -6,-23 -3,-13 -4,-23 -3,-23 1,0 5,10 8,22 3,13 3,24 2,24z"/>
   <path class="fil6" d="M5343 2075c-1,0 -2,-11 -2,-24 0,-13 2,-23 3,-24 1,0 2,11 2,24 0,13 -2,24 -3,24z"/>
   <path class="fil6" d="M5328 2168c-1,0 0,-11 3,-24 3,-13 6,-23 7,-23 1,0 0,11 -3,24 -3,13 -6,23 -7,23z"/>
   <path class="fil6" d="M5296 2257c-1,-1 2,-11 7,-23 5,-12 10,-21 11,-21 1,0 -2,11 -7,23 -5,12 -10,21 -11,21z"/>
   <path class="fil6" d="M5250 2339c-1,-1 4,-10 10,-21 7,-11 13,-19 15,-19 1,1 -3,10 -10,21 -7,11 -13,19 -15,19z"/>
   <path class="fil6" d="M5189 2411c-1,-1 5,-9 14,-19 9,-9 17,-16 18,-15 1,1 -5,9 -14,19 -9,10 -17,16 -18,15z"/>
   <path class="fil6" d="M5114 2469c-1,-1 7,-8 18,-15 11,-7 20,-13 21,-11 1,1 -7,8 -18,15 -11,7 -20,13 -21,11z"/>
   <path class="fil6" d="M5030 2510c0,-1 9,-6 21,-12 12,-5 22,-8 23,-7 1,1 -9,6 -21,12 -12,5 -22,8 -23,7z"/>
   <path class="fil6" d="M4939 2535c0,-1 10,-5 22,-8 13,-3 23,-4 24,-3 0,1 -10,5 -22,8 -13,3 -23,4 -24,3z"/>
   <path class="fil6" d="M4845 2542c0,-1 11,-3 24,-3 13,0 24,1 24,2 0,1 -10,3 -24,3 -13,0 -24,-1 -24,-2z"/>
   <path class="fil6" d="M4752 2529c0,-1 11,0 24,2 13,2 23,5 23,7 0,1 -11,0 -24,-2 -13,-2 -23,-5 -23,-7z"/>
   <path class="fil6" d="M5380 1968c0,1 -11,2 -24,2 -13,0 -24,-1 -24,-2 0,-1 11,-2 24,-2 13,0 24,1 24,2z"/>
   <path class="fil6" d="M5474 1968c0,1 -11,2 -24,2 -13,0 -24,-1 -24,-2 0,-1 11,-2 24,-2 13,0 24,1 24,2z"/>
   <path class="fil6" d="M5554 1968c0,1 -7,2 -17,2 -9,0 -17,-1 -17,-2 0,-1 7,-2 17,-2 9,0 17,1 17,2z"/>
   <path class="fil6" d="M5246 2420c-1,1 -10,-5 -20,-13 -10,-8 -17,-16 -17,-17 1,-1 10,5 20,13 10,8 17,16 17,17z"/>
   <path class="fil6" d="M5318 2480c-1,1 -10,-5 -20,-13 -10,-8 -17,-16 -17,-17 1,-1 10,5 20,13 10,8 17,16 17,17z"/>
   <path class="fil6" d="M5391 2541c-1,1 -10,-5 -20,-13 -10,-8 -17,-16 -17,-17 1,-1 10,5 20,13 10,8 17,16 17,17z"/>
   <path class="fil6" d="M5455 2594c-1,1 -8,-3 -16,-10 -8,-6 -13,-13 -12,-14 1,-1 8,3 16,10 8,6 13,13 12,14z"/>
   <path class="fil6" d="M4872 2584c-1,0 -2,-11 -2,-24 0,-13 1,-24 2,-24 1,0 2,11 2,24 0,13 -1,24 -2,24z"/>
   <path class="fil6" d="M4872 2679c-1,0 -2,-11 -2,-24 0,-13 1,-24 2,-24 1,0 2,11 2,24 0,13 -1,24 -2,24z"/>
   <path class="fil6" d="M4872 2773c-1,0 -2,-11 -2,-24 0,-13 1,-24 2,-24 1,0 2,11 2,24 0,13 -1,24 -2,24z"/>
   <path class="fil6" d="M4872 2837c-1,0 -2,-4 -2,-8 0,-5 1,-8 2,-8 1,0 2,4 2,8 0,5 -1,8 -2,8z"/>
   <polygon class="fil4" points="1031,476 1202,256 1244,533 1471,525 1303,746 1526,918 1241,812 1201,1089 1010,904 770,1071 823,828 549,785 762,659 638,446 854,568 876,265 "/>
   <path class="fil6" d="M1303 746c0,0 5,4 15,12 10,8 25,19 44,34 39,30 95,73 168,129l6 4 -7 -3c-39,-16 -83,-32 -132,-49 -48,-17 -101,-35 -156,-57l2 -1c-13,83 -27,175 -42,275l0 3 -2 -2c-60,-59 -124,-121 -190,-187l2 0c-75,52 -155,108 -237,165l-4 3 1 -4c16,-76 32,-157 50,-239l2 2c-87,-14 -178,-28 -271,-43l-5 -1 5 -3c59,-34 121,-70 184,-107 10,-6 19,-11 29,-17l-1 3c-24,-34 -44,-70 -65,-106 -20,-36 -40,-71 -58,-107l-3 -6 6 3c73,41 145,82 215,121l-3 2c4,-53 7,-105 11,-155 2,-25 3,-51 5,-76 1,-13 1,-25 2,-37 0,-6 0,-12 1,-19l0 -9 0 -5c0,-1 0,-3 0,-4l2 -3 1 1c55,75 107,146 157,215l-3 0c60,-79 117,-153 170,-223l2 -3 1 3c16,102 31,193 44,275l-1 -1c87,-3 162,-5 225,-7l2 0 -1 2c-54,72 -97,127 -125,164 -14,19 -25,33 -32,42 -7,10 -11,14 -11,14 0,0 4,-5 11,-14 7,-10 18,-24 32,-43 28,-38 70,-93 124,-165l1 1c-64,2 -138,5 -225,8l-1 0 0 -1c-13,-82 -28,-174 -45,-275l3 1c-53,69 -110,144 -170,223l-1 2 -1 -2c-50,-68 -102,-140 -157,-215l3 -2c1,3 1,4 1,6l0 5 0 9c0,6 0,12 -1,19 -1,12 -1,25 -2,37 -2,25 -3,50 -5,76 -3,51 -7,103 -11,156l0 3 -3 -1c-70,-39 -142,-80 -215,-121l3 -3c19,36 38,71 58,107 20,35 41,71 64,105l1 2 -2 1c-10,6 -19,11 -29,17 -63,37 -126,73 -184,107l-1 -4c93,15 185,29 271,43l2 0 0 2c-17,83 -34,164 -50,240l-3 -2c82,-57 161,-112 237,-164l1 -1 1 1c67,66 131,128 190,187l-3 1c15,-100 30,-192 43,-275l0 -2 2 1c55,23 108,41 156,58 48,17 93,33 132,49l-1 2c-73,-56 -129,-100 -168,-130 -19,-15 -34,-26 -44,-34 -10,-8 -15,-12 -15,-12z"/>
   <path class="fil6" d="M1009 699c0,13 -10,23 -23,23 -13,0 -23,-10 -23,-23 0,-13 10,-23 23,-23 13,0 23,10 23,23z"/>
   <path class="fil6" d="M1079 699c0,13 -10,23 -23,23 -13,0 -23,-10 -23,-23 0,-13 10,-23 23,-23 13,0 23,10 23,23z"/>
   <path class="fil6" d="M1148 699c0,13 -10,23 -23,23 -13,0 -23,-10 -23,-23 0,-13 10,-23 23,-23 13,0 23,10 23,23z"/>
   <path class="fil6" d="M4126 1128c-15,-38 -30,-77 -38,-117 -8,-40 -9,-82 3,-122 2,-6 18,-46 24,-46 4,0 -5,37 -2,41 23,35 32,79 31,121 -1,42 -8,81 -18,122z"/>
   <path class="fil9" d="M4348 1589c-63,2 -210,-172 -213,-235l-22 -382c-9,-102 43,-193 145,-199l10 0c96,0 176,73 184,168 7,89 15,187 14,234 -1,99 -99,114 -99,114 0,0 1,23 2,52 3,65 41,245 -24,247l4 0z"/>
   <path class="fil10" d="M4366 1290c0,0 -62,4 -128,-37 0,0 31,74 129,65l-1 -27z"/>
   <path class="fil6" d="M4423 1017c0,7 -6,14 -14,14 -8,0 -14,-5 -15,-13 0,-7 6,-14 13,-14 8,0 14,5 15,13z"/>
   <path class="fil6" d="M4430 984c-2,2 -12,-6 -28,-6 -15,0 -26,8 -28,6 -1,-1 1,-4 6,-8 5,-4 13,-7 22,-7 9,0 17,3 22,7 5,4 6,7 5,8z"/>
   <path class="fil6" d="M4284 1023c0,7 -6,14 -14,14 -8,0 -14,-5 -15,-13 0,-7 6,-14 14,-14 8,0 14,5 15,13z"/>
   <path class="fil6" d="M4282 988c-2,2 -12,-6 -28,-6 -15,0 -26,8 -28,6 -1,-1 1,-4 6,-8 5,-4 13,-7 22,-7 9,0 17,3 22,7 5,4 6,7 5,8z"/>
   <path class="fil6" d="M4337 1105c0,-1 9,-3 25,-5 4,0 8,-1 8,-4 1,-3 -1,-7 -3,-11 -4,-9 -8,-19 -12,-29 -16,-42 -28,-76 -26,-77 2,-1 16,33 32,75 4,10 8,20 11,30 1,4 4,9 2,15 -1,3 -4,5 -6,6 -2,1 -5,1 -7,1 -15,1 -25,1 -25,0z"/>
   <path class="fil6" d="M4280 932c-2,4 -17,0 -35,0 -18,-1 -33,3 -35,-1 -1,-2 2,-5 8,-9 6,-3 16,-6 27,-5 11,0 20,3 26,7 6,3 9,7 8,9z"/>
   <path class="fil6" d="M4427 949c-3,3 -15,0 -30,0 -15,0 -27,3 -30,-1 -1,-2 1,-5 6,-9 5,-3 14,-6 25,-6 10,0 19,3 24,6 5,3 7,7 6,9z"/>
   <path class="fil9" d="M4121 1045c-2,-1 -68,-20 -65,48 2,67 70,51 70,49 0,-2 -4,-97 -4,-97z"/>
   <path class="fil10" d="M4104 1117c0,0 -1,1 -3,2 -2,1 -5,2 -9,0 -7,-2 -14,-13 -14,-26 0,-6 1,-12 3,-17 2,-5 5,-9 9,-9 4,-1 6,1 7,3 1,2 1,3 1,3 0,0 1,-1 1,-4 0,-1 -1,-3 -3,-4 -2,-1 -4,-2 -7,-1 -5,1 -10,5 -12,11 -2,5 -4,12 -3,19 1,14 8,26 18,28 5,1 9,-1 11,-2 2,-2 2,-3 2,-3z"/>
   <path class="fil6" d="M4403 831c11,-6 -24,-40 -51,-51 -41,-17 -104,-25 -141,-13 -44,15 -81,39 -101,81 -21,42 -27,90 -24,137 1,14 3,29 11,41 10,14 29,23 29,44 0,8 3,15 8,20 13,13 27,0 34,-13 14,-27 14,-59 14,-89 0,-22 0,-44 -7,-64 -4,-11 -10,-21 -13,-33 -3,-11 -3,-24 3,-34 1,-2 3,-4 5,-6 18,-18 45,-24 69,-16 39,12 104,29 121,15 24,-20 29,-32 29,-32l14 14z"/>
   <path class="fil6" d="M4295 1115c-1,0 -1,4 0,10 1,6 6,14 13,19 7,6 15,9 20,10 5,2 9,2 9,1 0,-1 -3,-3 -7,-6 -5,-3 -11,-6 -18,-11 -13,-10 -16,-24 -18,-23z"/>
   <polygon class="fil9" points="4974,2186 4502,2218 4486,2060 5058,2081 "/>
   <path class="fil8" d="M5310 1671l6 11c-38,81 -175,372 -175,372l-180 98 -441 2 -1 -24 222 -100 283 -6 138 -308c4,-8 10,-14 19,-16l128 -31z"/>
   <path class="fil6" d="M4960 2153c1,0 5,-7 11,-18 6,-12 14,-28 23,-46 9,-18 17,-34 22,-46 5,-12 9,-20 8,-20 -1,0 -5,7 -11,18 -6,12 -14,28 -23,46 -9,18 -17,34 -22,46 -5,12 -9,19 -8,20z"/>
   <polygon class="fil6" points="4918,2116 4729,2118 4868,2037 5020,2034 "/>
   <path class="fil6" d="M4519 2131c0,0 2,0 5,0 4,0 8,0 13,0 12,0 29,0 48,-1 41,-1 97,-1 160,-2 62,0 119,-1 160,-3 20,-1 37,-2 48,-2 5,0 10,-1 13,-1 3,0 5,0 5,-1 0,0 -2,0 -5,0 -4,0 -8,0 -13,0 -12,0 -29,0 -48,1 -41,1 -97,1 -160,2 -62,0 -119,1 -160,3 -20,1 -37,2 -48,2 -5,0 -10,1 -13,1 -3,0 -5,0 -5,1z"/>
   <path class="fil6" d="M4987 2138c0,0 1,-2 3,-5 2,-4 5,-9 8,-16 7,-14 16,-34 27,-59 23,-50 54,-119 89,-195 24,-54 47,-104 66,-147l-1 1c41,-10 75,-19 100,-25 12,-3 21,-5 28,-7 6,-2 10,-3 10,-3 0,0 -4,0 -10,2 -7,2 -16,4 -28,6 -25,6 -59,14 -100,23l-1 0 0 1c-19,42 -42,93 -67,147 -34,76 -65,145 -88,195 -11,25 -20,45 -26,59 -3,7 -5,12 -7,16 -2,4 -2,6 -2,6z"/>
   <path class="fil9" d="M5094 2028c0,0 -8,-7 -23,13 -15,21 -38,80 -38,80l-28 14c0,0 24,-31 23,-43 -1,-12 -20,-11 -29,7 -10,18 -39,53 -39,53 0,0 11,35 14,33 3,-2 50,-6 50,-6l13 -7c0,0 32,-1 34,-10 1,-9 53,-48 52,-55 0,-8 -2,-50 -2,-50 0,0 22,-60 16,-66 -5,-6 -28,-18 -43,38z"/>
   <path class="fil10" d="M5091 2027c0,0 1,0 2,1 1,0 3,2 3,5l0 0c-2,6 -4,16 -6,29 -2,12 -4,27 -8,42 -3,11 -8,19 -14,27 -5,8 -10,15 -15,21 -8,12 -13,20 -13,20 1,0 6,-7 15,-18 5,-6 10,-13 16,-21 3,-4 6,-8 9,-13 3,-5 5,-10 6,-16 4,-15 6,-30 8,-42 2,-11 3,-21 4,-29l0 0 0 0c0,-4 -3,-6 -5,-6 -2,0 -3,0 -3,0z"/>
   <path class="fil10" d="M5103 2129c1,0 6,-16 11,-36 5,-20 8,-37 7,-37 -1,0 -6,16 -11,36 -5,20 -8,37 -7,37z"/>
   <path class="fil10" d="M5012 2087c0,0 1,0 4,1 2,0 6,0 8,3 2,2 2,7 -1,11 -2,5 -4,11 -7,16 -2,5 -5,11 -7,16 -2,5 -5,9 -7,12 -4,7 -6,12 -5,12 1,0 3,-4 8,-10 2,-3 5,-7 8,-12 2,-5 5,-10 7,-16 2,-6 4,-11 6,-16 1,-3 2,-5 2,-8 0,-3 -1,-6 -3,-7 -4,-3 -8,-2 -10,-2 -2,0 -3,1 -3,1z"/>
   <path class="fil8" d="M4347 3904l-45 186c0,0 174,108 169,143l-363 -74 58 -292 181 37z"/>
   <path class="fil3" d="M4193 4051c-7,0 -14,7 -14,15 0,7 7,14 15,14 7,0 15,-8 14,-16 -1,-7 -10,-15 -17,-13l1 0z"/>
   <path class="fil5" d="M4471 4233l-75 -15 75 15c1,-5 -2,-12 -8,-19 4,4 11,11 8,19z"/>
   <path class="fil11" d="M4471 4233l-75 -15c-22,-14 -55,-29 -87,-42l151 36c0,0 1,1 3,2 6,8 9,14 8,19z"/>
   <path class="fil6" d="M4309 4089c0,2 -9,1 -19,5 -10,4 -16,10 -18,9 -2,-1 3,-11 15,-15 12,-5 22,0 22,1z"/>
   <path class="fil6" d="M4343 4113c0,2 -8,3 -16,10 -8,6 -11,14 -13,13 -2,0 -1,-11 9,-18 9,-8 20,-6 20,-5z"/>
   <path class="fil6" d="M4356 4163c-2,0 -2,-9 4,-18 6,-9 16,-11 16,-9 1,2 -6,6 -11,13 -5,7 -7,15 -9,14z"/>
   <path class="fil6" d="M4314 4046c-1,1 -9,-3 -19,-4 -10,-2 -19,0 -19,-1 -1,-1 8,-7 20,-5 12,2 19,9 18,10z"/>
   <path class="fil8" d="M4223 3953l0 191c0,0 194,64 198,99l-371 14 -13 -298 185 -6z"/>
   <path class="fil3" d="M4108 4132c-7,2 -12,10 -10,18 2,7 10,12 17,10 7,-2 13,-12 10,-19 -3,-7 -13,-12 -19,-8l1 -1z"/>
   <path class="fil5" d="M4071 4256l0 0 350 -13c0,-5 -5,-11 -12,-17 5,3 13,8 12,17l-350 13z"/>
   <path class="fil11" d="M4050 4257l0 0 0 -30 355 -2c0,0 1,0 3,1 7,6 12,12 12,17l-350 13 -21 1z"/>
   <path class="fil6" d="M4229 4142c0,2 -9,3 -18,9 -9,6 -13,14 -15,13 -2,0 1,-11 11,-18 11,-7 22,-6 21,-4z"/>
   <path class="fil6" d="M4269 4156c0,2 -7,5 -13,13 -6,8 -7,16 -9,16 -2,0 -3,-10 4,-20 7,-10 18,-11 18,-9z"/>
   <path class="fil6" d="M4292 4202c-2,0 -4,-8 0,-19 4,-10 13,-14 13,-13 1,1 -4,7 -8,15 -4,8 -4,16 -6,16z"/>
   <path class="fil6" d="M4224 4098c-1,2 -9,-1 -19,1 -10,1 -18,5 -19,3 -1,-1 6,-8 18,-9 12,-1 21,4 20,6z"/>
   <path class="fil6" d="M3931 2567l7 151 67 586c0,0 -12,286 -21,448 -7,140 26,383 26,383l236 -11 48 -815 30 -509 81 -234 -473 2z"/>
   <polygon class="fil6" points="4566,2566 4545,3387 4334,4012 4325,4049 4182,4022 4222,2564 "/>
   <path class="fil8" d="M4323 2806c0,0 0,1 0,3 0,2 0,6 0,10 0,9 0,22 1,38 1,33 0,82 0,142 -2,120 -8,285 -20,467 -12,182 -27,346 -39,465 -6,59 -10,107 -14,141 -2,16 -3,29 -4,38 0,4 -1,7 -1,10 0,2 0,3 -1,3 0,0 0,-1 0,-3 0,-2 0,-6 1,-10 1,-9 2,-22 3,-38 3,-34 7,-82 12,-141 10,-119 25,-283 37,-465 13,-182 19,-347 22,-466 1,-60 2,-108 2,-141 0,-17 0,-29 0,-38 0,-4 0,-8 0,-10 0,-2 0,-3 0,-3z"/>
   <path class="fil8" d="M4110 2574c0,0 0,3 -1,9 -1,6 -2,14 -6,23 -6,19 -20,44 -43,65 -23,21 -50,31 -70,35 -10,2 -18,3 -24,3 -6,0 -9,0 -9,-1 0,-1 12,-1 32,-5 19,-4 45,-15 68,-35 23,-20 36,-44 43,-63 7,-19 8,-31 9,-31z"/>
   <path class="fil8" d="M4329 2600c0,7 -5,12 -12,13 -7,0 -12,-5 -13,-12 0,-7 5,-12 12,-13 7,0 12,5 13,12z"/>
   <path class="fil8" d="M4541 2705c0,0 -7,-5 -17,-15 -10,-10 -22,-26 -32,-45 -10,-19 -15,-38 -17,-52 -2,-14 -2,-23 -2,-23 1,0 2,9 5,22 3,14 9,32 18,51 10,19 21,34 30,45 9,11 16,16 15,17z"/>
   <path class="fil7" d="M4328 1392l-203 -156 -38 65c0,0 -165,133 -196,170l68 567c0,0 -32,301 -34,325 -2,24 -20,231 -20,231 -2,39 33,85 39,85 0,0 31,-41 67,-40 35,1 279,55 279,55l289 -78 -57 -573 -28 -384 -32 -146 -60 -55 -32 -96c0,0 -8,122 -10,117 -2,-4 -32,-88 -32,-88z"/>
   <path class="fil6" d="M4091 1311c0,0 3,4 8,10 6,6 14,15 25,26 21,22 52,50 86,82 17,16 32,31 46,46l2 2 2 -2c21,-23 35,-44 47,-58 5,-7 10,-12 13,-17 3,-4 5,-6 5,-6 0,0 -2,2 -6,5 -3,4 -8,9 -14,16 -12,14 -27,35 -48,57l3 0c-14,-15 -29,-30 -46,-46 -34,-32 -65,-60 -87,-81 -11,-10 -20,-19 -26,-25 -6,-6 -9,-9 -10,-9z"/>
   <path class="fil6" d="M4469 2331c0,0 0,-1 0,-2 0,-2 0,-4 -1,-6 -1,-6 -1,-14 -2,-25 -2,-22 -6,-53 -10,-92 -9,-77 -21,-184 -36,-302 -15,-118 -29,-224 -40,-302 -6,-39 -10,-70 -14,-91 -2,-10 -3,-19 -5,-25 -1,-3 -1,-5 -1,-6 0,-1 -1,-2 -1,-2 0,0 0,1 0,2 0,2 0,4 1,6 1,6 2,14 4,25 3,22 7,53 13,91 10,77 24,184 39,302 15,118 28,224 38,302 5,38 9,69 12,91 1,10 3,19 3,25 0,3 1,5 1,6 0,1 0,2 0,2z"/>
   <path class="fil12" d="M4072 2316c-36,0 -73,-7 -101,-30 -12,-10 -23,-25 -26,-40 22,-14 44,-28 67,-45 13,-9 25,-19 38,-30 3,-3 6,-5 9,-8 3,-3 6,-6 8,-9 63,-23 127,-46 190,-69 52,-19 105,-38 159,-49 5,-1 10,-2 15,-3 5,37 9,71 13,103 -9,7 -18,16 -27,24 -89,84 -204,147 -326,155 -6,0 -13,1 -19,1z"/>
   <path class="fil13" d="M4527 2062l-4 0 -2 -18 -1 -19c2,0 5,0 7,0l0 37z"/>
   <path class="fil14" d="M4526 2097l-4 -36 4 0 0 35c0,0 0,0 0,0z"/>
   <path class="fil12" d="M4448 2134c-4,-31 -8,-65 -12,-101 28,-5 56,-7 84,-8l1 19 2 18 4 36c-22,12 -47,17 -68,30 -4,2 -7,5 -10,7z"/>
   <path class="fil15" d="M4444 2137c-4,-32 -8,-66 -13,-103 1,0 3,-1 4,-1 4,36 8,70 12,101 -1,1 -2,2 -4,3z"/>
   <path class="fil6" d="M4263 2460c1,1 60,-34 132,-79 72,-45 130,-82 130,-83 -1,-1 -60,34 -132,79 -72,45 -130,82 -130,83z"/>
   <path class="fil6" d="M4464 2648c0,0 0,-4 -1,-12 -1,-9 -2,-19 -3,-32 -2,-27 -4,-65 -6,-106 -1,-42 -3,-79 -4,-106 -1,-13 -1,-24 -2,-32 -1,-8 -1,-12 -1,-12 0,0 -1,4 -1,12 0,9 0,19 0,32 0,27 1,65 3,106 1,42 4,79 7,106 2,14 3,24 5,32 1,7 2,12 3,12z"/>
   <path class="fil12" d="M4118 2013c0,-1 0,-1 1,-2l0 -1 0 -1c-9,-18 -18,-36 -26,-53 13,-80 24,-148 32,-196 0,-2 1,-5 1,-7 2,83 4,175 28,254l-36 6z"/>
   <path class="fil14" d="M4360 1480c-2,-4 -32,-88 -32,-88l32 88z"/>
   <path class="fil12" d="M4266 1507c-31,-29 -61,-59 -89,-90 -20,-22 -38,-46 -55,-71 1,1 2,2 2,2 21,22 52,50 86,82 17,16 32,31 46,46l2 2 2 -2c21,-23 35,-44 47,-58 1,-1 1,-1 2,-2l20 -23c0,0 30,83 32,88l0 0c0,0 -8,-4 -10,-7 -9,-12 -14,-25 -23,-37 -22,22 -42,46 -61,70z"/>
   <path class="fil15" d="M4258 1477l-2 -2c-14,-14 -29,-30 -46,-46 -34,-32 -65,-60 -86,-82 -1,-1 -2,-2 -2,-2 -2,-3 -5,-7 -7,-10l143 139 50 -59c-1,1 -1,1 -2,2 -11,14 -26,36 -47,58l-2 2z"/>
   <path class="fil6" d="M4366 1405c-1,1 6,14 14,30 8,17 20,28 21,27 1,-1 -8,-12 -17,-29 -8,-16 -17,-29 -18,-28z"/>
   <path class="fil6" d="M4161 1514c0,0 -1,-3 -5,-9 -4,-5 -10,-13 -18,-21 -8,-8 -19,-17 -31,-26 -12,-9 -26,-20 -43,-25 -17,-5 -35,-5 -50,-3 -15,2 -28,5 -40,8 -11,3 -20,5 -26,6 -6,2 -10,3 -9,3 0,0 4,0 10,-1 6,-1 15,-3 27,-5 11,-2 24,-5 39,-7 15,-2 31,-2 48,3 16,5 30,15 42,24 12,9 23,17 31,25 17,15 25,27 25,27z"/>
   <path class="fil9" d="M4454 1958l-1 115c0,0 -166,87 -276,121 -110,34 -241,35 -241,35l38 -188 480 -82z"/>
   <path class="fil9" d="M4784 1967c0,0 2,-14 -13,-23 -15,-8 -47,-27 -47,-27l-94 -4 -175 46 -1 115c0,0 90,1 111,-1 21,-2 78,-23 78,-23 0,0 98,8 103,2 4,-6 10,-12 4,-16 -6,-4 -82,-20 -82,-20l50 -6c0,0 74,12 80,10 5,-3 12,-12 7,-19 -5,-7 -5,-7 -5,-7 0,0 4,-14 -9,-19l-7 -2 1 -6z"/>
   <path class="fil10" d="M4650 1971c0,1 9,3 23,3 14,0 34,-3 54,2 10,3 19,7 28,10 9,3 17,6 24,7 14,3 23,4 23,4 0,-1 -8,-2 -22,-7 -7,-2 -15,-5 -23,-8 -9,-3 -18,-8 -28,-11 -11,-3 -21,-3 -31,-3 -9,0 -18,1 -25,1 -14,1 -23,0 -23,0z"/>
   <path class="fil10" d="M4657 1945c0,1 8,2 20,2 13,0 30,-3 47,4 18,7 34,13 46,17 12,4 19,6 19,6 0,-1 -7,-4 -18,-9 -12,-5 -27,-12 -45,-18 -9,-3 -19,-5 -27,-5 -8,0 -16,1 -22,2 -12,1 -20,1 -20,1z"/>
   <path class="fil7" d="M3890 1471c0,0 -47,83 -53,122 -6,40 -7,454 1,461 8,7 22,17 22,17 0,0 -45,12 -30,35 15,23 29,40 29,40 0,0 10,76 19,78 8,2 57,26 57,26 0,0 134,-80 144,-120 11,-40 37,-119 37,-119l-26 -54 56 -336c0,0 33,-108 -37,-149 -70,-40 -196,-46 -219,-1z"/>
   <path class="fil6" d="M4135 1684c0,0 -1,2 -1,5 -1,4 -2,9 -3,15 -2,13 -6,32 -10,56 -8,48 -20,116 -33,196l0 1 0 1c8,17 17,35 26,54l0 -2c-12,38 -24,79 -37,121l-2 5 -3 5c-2,3 -5,6 -8,9 -3,3 -6,6 -8,9 -3,3 -6,6 -9,8 -12,11 -25,21 -37,30 -25,19 -51,35 -75,50l2 0c-12,-6 -24,-12 -36,-17 -6,-3 -12,-5 -18,-8l-2 -1 -2 -1c0,0 -1,-1 -2,-3 -1,-3 -2,-5 -3,-8 -6,-23 -10,-45 -13,-65l0 0 0 0c-7,-9 -14,-17 -20,-26 -3,-4 -6,-8 -8,-12 -1,-2 -2,-4 -3,-6 0,-2 -1,-4 -1,-6 1,-8 9,-13 14,-16 6,-3 12,-6 17,-7l2 0 -1 -1c-8,-5 -13,-9 -17,-12 -4,-3 -5,-4 -6,-4l1 1c1,1 2,2 4,3 4,3 9,7 17,13l0 -1c-5,1 -11,4 -18,7 -3,2 -6,4 -9,6 -3,3 -6,6 -6,11 0,2 0,5 1,7 1,2 2,4 3,6 3,4 5,8 8,12 6,8 12,17 20,26l0 -1c3,20 6,42 12,66 1,3 2,6 3,9 1,1 1,3 4,5 1,1 2,0 2,1l2 1c6,2 11,5 17,8 12,5 24,11 36,18l1 1 1 -1c25,-15 50,-31 75,-50 13,-9 25,-19 38,-30 3,-3 6,-5 9,-8 3,-3 6,-6 9,-9 3,-3 6,-6 8,-10 1,-2 2,-4 4,-5l3 -6c13,-42 26,-83 37,-121l0 -1 0 -1c-9,-19 -18,-37 -26,-54l0 1c13,-80 24,-148 32,-197 4,-24 7,-43 9,-56 1,-6 2,-11 2,-15 0,-3 1,-5 0,-5z"/>
   <path class="fil6" d="M3858 2069c0,0 2,1 7,3 5,1 12,3 21,2 4,0 9,-2 14,-4 5,-2 9,-5 14,-9 9,-7 19,-15 29,-23 21,-16 40,-29 54,-39 14,-10 23,-16 22,-17 0,-1 -10,5 -24,14 -14,9 -34,22 -55,38 -11,8 -20,16 -29,23 -9,7 -17,12 -26,13 -8,1 -15,0 -20,-1 -5,-1 -7,-1 -7,-1z"/>
   <path class="fil6" d="M3860 2146c0,0 3,1 9,2 6,0 15,-1 24,-5 18,-10 42,-25 66,-46 24,-20 43,-41 57,-56 7,-8 12,-14 16,-18 4,-4 6,-7 5,-7 0,0 -9,8 -24,23 -14,14 -34,35 -58,55 -23,20 -47,36 -64,46 -9,5 -17,6 -22,7 -6,0 -9,0 -9,0z"/>
   <path class="fil12" d="M3893 2095c-1,0 -2,0 -3,0 -8,-1 -14,-5 -21,-9 -5,-3 -11,-8 -11,-14 0,0 1,0 1,0l2 0 0 0c1,0 2,1 3,1 4,1 10,2 17,2 1,0 2,0 4,0 4,0 9,-2 14,-4 5,-2 9,-5 14,-9 9,-7 19,-15 29,-23 21,-16 40,-29 54,-39 6,-4 10,-7 14,-10 2,-1 4,-2 6,-3 -8,14 -19,25 -31,35 -19,18 -37,36 -56,53 -10,10 -22,20 -36,20z"/>
   <path class="fil15" d="M3859 2072c0,-1 0,-1 0,-2 1,0 1,0 2,1 0,0 1,0 1,0l0 0 -2 0c0,0 -1,0 -1,0z"/>
   <path class="fil12" d="M4016 1986c0,0 1,-1 1,-1l0 1c0,0 0,0 0,0z"/>
   <path class="fil15" d="M3882 2074c-7,0 -13,-1 -17,-2 -1,0 -2,-1 -3,-1 0,0 -1,0 -1,0 5,1 10,2 15,2 12,0 23,-3 33,-10 6,-4 12,-10 17,-15 25,-24 55,-41 85,-58 -4,3 -8,6 -14,10 -14,10 -33,23 -54,39 -10,8 -20,16 -29,23 -5,3 -9,6 -14,9 -5,3 -10,4 -14,4 -1,0 -3,0 -4,0z"/>
   <path class="fil10" d="M4445 2074c0,0 4,1 12,1 8,0 19,0 32,1 14,0 29,0 47,0 9,0 18,0 28,0 5,0 10,-2 15,-3 5,-1 10,-3 15,-4 20,-6 39,-12 56,-17l-1 0c26,1 48,2 64,3 7,0 13,0 18,0 4,0 7,0 7,0 0,0 -2,-1 -6,-1 -5,0 -11,-1 -18,-2 -16,-1 -38,-3 -64,-4l0 0 0 0c-17,5 -36,11 -56,17 -5,1 -10,3 -14,4 -5,1 -10,3 -14,3 -10,0 -19,0 -28,0 -17,0 -33,1 -47,1 -13,0 -23,1 -32,1 -7,0 -12,1 -12,1z"/>
   <path class="fil6" d="M3294 4257l-1266 0c-109,0 -197,-88 -197,-197l0 -3543c0,-109 88,-197 197,-197l1266 0c109,0 197,88 197,197l0 3543c0,109 -88,197 -197,197z"/>
   <path class="fil8" d="M3144 4258l-1235 0c-117,0 -213,-95 -213,-213l0 -3513c0,-117 95,-213 213,-213l1235 0c117,0 213,95 213,213l0 3513c0,117 -95,213 -213,213z"/>
   <path class="fil5" d="M3106 383l-226 0c-30,0 -55,30 -55,68l0 48c0,37 -25,68 -55,68l-440 -1c-30,0 -55,-30 -55,-68l0 -48c0,-37 -25,-68 -55,-68l-79 0 -197 0c-98,0 -178,94 -177,210l2 3374c0,116 80,210 178,210l1161 2c98,0 178,-94 177,-210l-2 -3374c0,-116 -80,-210 -178,-210z"/>
   <path class="fil6" d="M3106 383c0,0 2,0 7,0 5,0 11,0 20,2 18,3 44,11 72,33 14,11 27,25 40,43 12,18 23,40 30,64 3,12 6,26 8,39 2,14 2,28 2,43 0,30 0,61 0,94 0,267 1,653 1,1131 0,477 1,1046 1,1677 0,79 0,159 0,240 0,40 0,81 0,122 0,20 0,41 0,61 0,20 1,41 -2,62 -2,21 -8,41 -15,61 -7,20 -18,38 -31,55 -13,17 -29,31 -47,43 -18,11 -38,19 -59,23 -21,4 -43,2 -64,2 -21,0 -42,0 -64,0 -43,0 -85,0 -128,0 -172,0 -347,0 -524,-1 -89,0 -178,0 -268,0 -45,0 -90,0 -135,0 -23,0 -46,-4 -67,-14 -21,-9 -40,-23 -56,-40 -32,-33 -52,-77 -58,-122 -4,-23 -3,-46 -3,-68 0,-23 0,-45 0,-68 0,-90 0,-179 0,-268 0,-177 0,-352 0,-524 0,-344 0,-675 0,-991 0,-316 0,-616 0,-896 0,-140 0,-276 0,-406 0,-65 0,-129 0,-191 1,-63 25,-125 69,-166 22,-20 49,-36 78,-41 7,-1 14,-3 22,-3 7,-1 15,-1 22,-1 14,0 29,0 43,0 57,0 112,0 166,0 13,0 27,0 40,0 7,0 13,0 20,0 7,1 13,3 19,6 12,7 21,17 26,29 5,12 8,25 7,38 0,13 0,25 0,38 0,12 1,25 5,36 4,11 11,21 21,28 5,3 10,6 16,8 6,2 11,2 17,2 95,0 183,0 264,1 41,0 79,0 117,0 19,0 37,0 54,0 17,0 33,-11 41,-25 9,-14 12,-30 12,-46 0,-16 0,-31 0,-46 0,-15 5,-29 12,-41 8,-12 19,-21 32,-24 6,-2 13,-2 19,-1 6,0 12,0 18,0 12,0 23,0 34,0 22,0 41,0 59,0 35,0 62,0 80,0 18,0 27,0 27,0 0,0 -9,0 -27,0 -18,0 -45,0 -80,0 -18,0 -37,0 -59,0 -11,0 -22,0 -34,0 -6,0 -12,0 -18,0 -6,0 -12,0 -19,1 -12,3 -23,12 -31,23 -7,11 -12,26 -12,40 0,15 0,30 0,46 1,16 -3,33 -12,47 -9,14 -24,26 -43,26 -18,0 -36,0 -54,0 -37,0 -76,0 -117,0 -81,0 -169,0 -264,0 -6,0 -12,0 -18,-2 -6,-2 -12,-5 -16,-8 -10,-7 -17,-18 -22,-30 -5,-12 -6,-25 -6,-37 0,-12 0,-25 0,-38 0,-13 -2,-25 -7,-37 -5,-11 -14,-22 -25,-28 -6,-3 -12,-5 -18,-5 -6,0 -13,0 -20,0 -13,0 -27,0 -40,0 -54,0 -109,0 -166,0 -14,0 -28,0 -43,0 -7,0 -14,0 -22,1 -7,0 -14,2 -21,3 -28,5 -55,21 -76,40 -44,40 -68,101 -68,163 0,62 0,126 0,191 0,130 0,266 0,406 0,281 0,581 1,896 0,316 0,647 1,991 0,172 0,347 0,524 0,89 0,178 0,268 0,22 0,45 0,68 0,23 -1,45 3,67 7,44 26,87 57,120 16,16 34,30 54,39 20,9 43,13 65,13 45,0 90,0 135,0 90,0 179,0 268,0 177,0 352,1 524,1 43,0 86,0 128,0 21,0 42,0 64,0 21,0 42,1 63,-2 20,-3 40,-11 58,-22 17,-11 33,-26 45,-42 13,-16 23,-34 30,-53 7,-19 13,-39 15,-59 2,-20 2,-41 2,-61 0,-21 0,-41 0,-61 0,-41 0,-82 0,-122 0,-81 0,-161 0,-240 0,-631 0,-1200 0,-1677 0,-477 0,-864 0,-1131 0,-33 0,-65 0,-94 0,-15 0,-29 -2,-43 -1,-14 -4,-27 -8,-39 -7,-25 -17,-46 -29,-64 -12,-18 -26,-32 -39,-43 -28,-22 -54,-30 -72,-33 -9,-2 -16,-2 -20,-2 -5,0 -7,-1 -7,-1z"/>
   <polygon class="fil16" points="2162,3825 2138,4192 2296,4211 2372,3837 "/>
   <path class="fil7" d="M2139 4143l-1 11c0,0 -188,48 -194,81l354 46 10 -119c-56,18 -111,13 -169,-19z"/>
   <path class="fil5" d="M2268 4195c7,3 10,11 8,18 -2,7 -11,11 -18,8 -7,-3 -11,-12 -8,-19 3,-6 13,-10 19,-6l-1 -1z"/>
   <path class="fil5" d="M2298 4281l2 -29 -340 -33c0,0 -17,5 -16,16l354 46z"/>
   <path class="fil6" d="M2137 4155c0,2 8,4 16,10 8,6 11,15 13,14 2,0 0,-11 -9,-19 -10,-8 -20,-7 -20,-6z"/>
   <path class="fil6" d="M2098 4165c-1,2 7,6 11,14 5,8 6,16 7,16 2,0 4,-10 -2,-19 -6,-10 -16,-12 -17,-10z"/>
   <path class="fil6" d="M2071 4207c2,1 5,-8 2,-18 -3,-10 -11,-15 -12,-14 -1,1 3,7 6,15 3,8 2,16 4,16z"/>
   <path class="fil6" d="M2802 871c4,-25 27,-45 52,-51 25,-6 51,-1 75,8 27,10 53,24 73,45 20,21 32,49 31,78 -1,27 -15,54 -7,80 6,20 22,34 39,46 17,12 35,23 46,40 11,17 13,43 -2,56 -14,12 -38,14 -43,31 -4,11 2,22 6,33 7,23 2,48 -11,69 -13,20 -32,36 -53,48 -36,21 -82,30 -121,14 -19,-8 -35,-22 -48,-39 -20,-28 -29,-63 -31,-97 -2,-34 2,-69 7,-103l-12 -257z"/>
   <path class="fil6" d="M2789 1281c32,9 68,2 93,-19 26,-20 42,-53 41,-86 -1,-31 -15,-62 -5,-91 7,-20 23,-36 29,-56 8,-30 -10,-61 -28,-87 -11,-17 -23,-34 -38,-47 -16,-13 -36,-21 -56,-17l-36 403z"/>
   <path class="fil6" d="M2505 881c2,23 -14,44 -29,61 -15,17 -33,36 -36,59 -6,41 34,79 26,119 -4,22 -22,39 -25,61 -3,21 8,42 22,58 14,16 31,30 44,47 0,0 26,43 106,15l-107 -420z"/>
   <path class="fil6" d="M2862 917c1,-21 -19,-37 -38,-45 -20,-8 -41,-11 -59,-22 -15,-10 -26,-27 -39,-40 -32,-33 -82,-46 -126,-34 -44,12 -81,49 -92,94 -8,30 -2,65 21,85 27,23 68,18 103,11 35,-7 75,-14 104,6 18,12 28,33 39,51 11,19 24,38 45,45 20,7 48,-5 49,-27l-7 -124z"/>
   <path class="fil16" d="M2779 921c18,2 32,18 31,36l-21 476c-1,56 -83,88 -143,86 -61,-1 -63,-31 -64,-85 -1,-89 -1,-123 -1,-122 0,0 -77,-13 -92,-113 -8,-50 -5,-132 -1,-198 4,-60 44,-134 104,-127l187 48z"/>
   <path class="fil6" d="M2506 1066c0,7 5,13 12,13 7,0 13,-5 13,-12 0,-7 -5,-13 -12,-13 -7,0 -13,5 -13,12z"/>
   <path class="fil6" d="M2503 1032c2,2 11,-6 25,-5 14,0 24,7 25,5 1,-1 -1,-4 -5,-7 -4,-3 -12,-6 -20,-6 -9,0 -16,3 -20,6 -4,3 -6,6 -5,7z"/>
   <path class="fil6" d="M2634 1069c0,7 5,13 12,13 7,0 13,-5 13,-12 0,-7 -5,-13 -12,-13 -7,0 -13,5 -13,12z"/>
   <path class="fil6" d="M2642 1039c2,2 11,-5 25,-5 14,0 24,7 25,5 1,-1 -1,-4 -5,-7 -4,-3 -12,-6 -20,-6 -9,0 -16,3 -20,6 -4,3 -6,6 -5,7z"/>
   <path class="fil6" d="M2591 1148c0,-1 -9,-2 -22,-4 -4,0 -7,-1 -7,-3 -1,-3 1,-6 2,-10 3,-9 7,-17 11,-27 15,-38 25,-70 24,-70 -2,-1 -15,30 -29,68 -4,9 -7,18 -10,27 -1,4 -4,9 -2,14 1,3 4,5 6,5 2,1 4,1 6,1 14,1 23,1 23,0z"/>
   <path class="fil17" d="M2581 1312c0,0 67,5 134,-35 0,0 -34,69 -134,59l0 -24z"/>
   <path class="fil6" d="M2636 1005c1,4 15,2 31,4 16,2 29,6 31,3 1,-2 -1,-5 -7,-9 -5,-4 -14,-7 -23,-8 -10,-1 -19,0 -25,3 -6,2 -9,5 -8,7z"/>
   <path class="fil6" d="M2505 1002c3,3 14,0 27,0 13,-1 24,2 27,-1 1,-2 -1,-5 -5,-8 -5,-3 -13,-5 -22,-5 -9,0 -17,3 -21,6 -5,3 -6,6 -5,8z"/>
   <path class="fil6" d="M2849 1251c-28,6 -58,-3 -78,-22 -21,-19 -31,-48 -28,-76 3,-25 16,-50 8,-73 -11,-31 -54,-40 -66,-71 -7,-18 -1,-39 -8,-56 -7,-16 -24,-26 -41,-32 -17,-6 -35,-10 -49,-21 -14,-11 -23,-32 -14,-47 75,9 148,27 219,53 16,6 34,13 43,28 10,15 10,35 9,54 -4,90 -8,180 -13,270l18 -6z"/>
   <path class="fil8" d="M2902 925c0,0 1,1 2,4 1,3 0,8 -4,12 -4,4 -10,9 -18,9 -8,0 -17,-3 -25,-8 -9,-4 -18,-8 -29,-9 -11,-1 -23,1 -35,3 -12,2 -26,5 -40,5 -14,0 -30,-4 -41,-15 -11,-11 -18,-24 -24,-37 -6,-13 -11,-25 -19,-34 -15,-20 -40,-26 -58,-21 -18,5 -29,17 -35,26 -6,9 -7,15 -7,15 0,0 0,-2 1,-4 1,-3 2,-7 5,-12 5,-9 16,-23 36,-28 10,-3 21,-3 32,1 11,3 22,11 30,21 8,10 14,23 20,35 6,12 12,25 23,35 10,10 24,14 37,14 14,0 27,-3 39,-5 13,-2 25,-4 36,-3 12,1 22,5 31,10 8,4 16,8 24,8 7,0 13,-4 16,-7 4,-4 5,-8 4,-11 0,-3 -1,-4 -1,-4z"/>
   <path class="fil8" d="M2913 935c-1,1 -17,-24 -47,-42 -31,-18 -60,-18 -60,-20 0,-1 7,-1 19,0 12,2 28,6 44,15 16,9 28,21 35,30 7,9 10,16 10,16z"/>
   <path class="fil8" d="M2801 868c0,0 0,1 -1,3 -1,2 -3,4 -6,7 -6,5 -18,10 -33,7 -15,-2 -30,-12 -43,-26 -14,-13 -26,-30 -45,-41 -18,-10 -40,-12 -58,-7 -18,4 -31,15 -40,26 -9,11 -13,22 -15,29 -2,8 -3,12 -3,12 0,0 0,-1 0,-3 0,-2 0,-5 1,-9 2,-8 6,-19 14,-31 9,-12 23,-23 42,-28 19,-5 41,-4 61,7 20,11 32,29 45,42 13,13 27,23 41,26 14,3 25,-1 31,-5 6,-4 9,-8 9,-8z"/>
   <path class="fil8" d="M2796 1294c0,0 1,1 4,1 3,1 7,1 13,1 11,0 29,-1 47,-11 19,-9 38,-26 51,-51 12,-25 17,-57 9,-87 -4,-15 -8,-30 -9,-44 -1,-14 3,-27 10,-39 6,-12 13,-23 16,-36 3,-12 3,-24 1,-34 -4,-21 -13,-35 -21,-44 -4,-4 -7,-7 -10,-9 -2,-2 -4,-3 -4,-3 0,0 5,4 12,13 7,9 15,23 18,43 1,10 1,21 -2,32 -3,11 -9,22 -16,34 -3,6 -6,12 -8,19 -2,7 -3,15 -2,22 1,15 5,30 9,45 8,30 4,60 -8,84 -11,24 -30,41 -47,50 -18,9 -34,12 -46,12 -11,0 -18,-1 -18,0z"/>
   <path class="fil8" d="M2973 850c0,-1 -5,-5 -17,-9 -11,-3 -29,-4 -46,4 -17,8 -28,22 -33,33 -5,11 -5,19 -4,19 1,0 2,-7 8,-17 6,-10 16,-22 32,-29 16,-7 32,-7 43,-5 11,2 18,6 18,5z"/>
   <path class="fil8" d="M2899 913c0,0 0,-2 0,-7 0,-4 1,-11 4,-18 4,-7 11,-14 21,-20 10,-5 24,-7 37,-1 13,5 25,17 33,31 8,15 11,33 10,52 -1,19 -5,39 -9,59 -4,21 -9,42 -8,65 1,23 9,44 17,64 8,20 17,38 22,56 5,18 7,37 5,53 -2,17 -8,32 -14,45 -13,26 -27,45 -37,58 -5,6 -8,11 -11,15 -3,3 -4,5 -4,5 0,0 2,-1 5,-5 3,-3 7,-8 12,-14 10,-13 25,-31 39,-58 7,-13 12,-29 15,-46 3,-17 1,-37 -4,-55 -5,-19 -14,-38 -22,-57 -8,-19 -15,-40 -16,-62 -2,-44 16,-85 17,-124 1,-20 -3,-39 -11,-54 -9,-15 -21,-28 -36,-33 -14,-6 -29,-4 -40,2 -11,6 -18,14 -21,21 -4,8 -4,14 -4,19 1,4 2,6 2,6z"/>
   <path class="fil17" d="M2596 1182c2,6 5,12 9,17 4,5 10,9 16,9 7,0 13,-4 17,-9 4,-6 5,-13 5,-19 0,-6 -3,-13 -9,-14 -3,0 -5,1 -7,2 -11,4 -21,9 -32,13l2 2z"/>
   <path class="fil6" d="M2609 1208c0,-1 7,2 17,-2 5,-2 10,-6 13,-12 3,-6 3,-14 0,-21 -1,-2 -2,-3 -3,-5 -1,-1 -1,-1 -2,-1 -1,0 -3,1 -5,2 -2,1 -4,1 -5,2 -7,3 -13,5 -18,7 -10,4 -17,6 -17,5 0,-1 6,-4 16,-9 5,-2 11,-5 18,-8 2,-1 3,-2 5,-2 2,-1 3,-2 6,-2 1,0 3,-1 5,0 2,1 3,2 4,3 1,2 3,4 4,6 4,9 3,18 -1,26 -4,7 -11,11 -16,13 -6,2 -11,1 -14,1 -3,-1 -5,-2 -5,-2z"/>
   <path class="fil6" d="M2964 2431c0,1 0,2 1,4 0,-4 -1,-7 -1,-4z"/>
   <path class="fil16" d="M3058 2517l14 125 114 104c0,0 10,-16 4,-29 -5,-13 26,17 26,17l0 72c0,0 20,8 26,-9 7,-17 10,-78 10,-78l-9 -7c0,0 12,-10 9,-29 0,0 10,-22 7,-52 -4,-30 -12,-46 -12,-46l-94 -105 -97 36z"/>
   <path class="fil17" d="M3115 2638c-1,1 13,21 34,42 21,21 40,36 41,35 1,-1 -17,-17 -38,-38 -21,-21 -36,-40 -37,-39z"/>
   <path class="fil17" d="M3196 2660c-1,1 11,15 27,31 16,16 30,29 31,28 1,-1 -11,-15 -27,-31 -16,-16 -30,-29 -31,-28z"/>
   <path class="fil17" d="M3211 2632c-1,1 10,11 22,26 12,14 20,27 21,26 1,-1 -5,-15 -17,-29 -12,-15 -25,-24 -25,-23z"/>
   <path class="fil17" d="M3224 2602c-1,1 7,10 17,21 10,11 17,21 18,20 1,-1 -5,-12 -14,-23 -10,-11 -20,-19 -21,-18z"/>
   <path class="fil8" d="M2382 1105c-1,1 -19,-6 -42,-16 -22,-10 -40,-20 -40,-21 1,-1 19,6 42,16 22,10 40,20 40,21z"/>
   <path class="fil16" d="M2250 1297c-9,0 -32,13 -51,39l-1 1c-13,17 -25,-32 -28,-50 -1,-12 -14,-19 -26,-15l-61 28 -18 1c-9,3 -14,12 -12,21l29 96 1 26 122 16 2 -66c2,-8 4,-17 7,-27 3,-9 7,-18 13,-26 6,-8 15,-18 22,-24l2 -1c1,-1 3,-2 3,-3 6,-7 3,-18 -6,-18z"/>
   <path class="fil7" d="M2248 1002c0,0 -71,-14 -173,-106 -102,-93 -152,-218 -164,-217 -12,1 -66,-22 -160,200 -95,222 -53,272 -33,271 20,-1 155,-43 241,-36 85,7 196,49 196,49l94 -161z"/>
   <path class="fil6" d="M2401 1117l-23 46 -10 21c-14,29 -48,41 -77,29l-153 -48 82 -203 153 76c29,15 41,50 27,80z"/>
   <path class="fil6" d="M2316 1193l-45 96 -24 -6 -154 132 -46 -85c0,0 92,-43 108,-76 16,-34 -4,-41 -4,-41l42 -51 123 30z"/>
   <path class="fil6" d="M1759 882c-50,120 -70,227 -43,238 26,11 89,-78 139,-198 50,-120 70,-227 43,-238 -26,-11 -89,78 -139,198z"/>
   <polygon class="fil8" points="2416,1183 2375,1171 2399,1122 2430,1140 "/>
   <path class="fil13" d="M2290 1247l0 0 13 -27 -13 27zm-112 -67l0 0 0 0z"/>
   <polygon class="fil15" points="2290,1247 2178,1180 2178,1180 2303,1219 "/>
   <path class="fil8" d="M2371 1134c-1,1 -21,-6 -46,-16 -25,-10 -45,-20 -44,-21 1,-1 21,6 46,16 25,10 45,20 44,21z"/>
   <path class="fil8" d="M2356 1164c0,1 -5,0 -13,-2 -4,-1 -9,-2 -14,-4 -5,-2 -10,-4 -16,-7 -23,-10 -40,-19 -40,-21 1,-1 19,6 42,16 6,2 11,5 16,7 5,2 9,4 13,5 7,3 12,5 12,6z"/>
   <path class="fil4" d="M1867 853c0,0 -62,-36 -94,47 -31,84 34,96 34,96 25,-42 45,-89 60,-143z"/>
   <path class="fil6" d="M1930 752c0,0 0,6 -2,16 -2,10 -4,25 -7,43 -2,9 -5,19 -8,29 -1,5 -3,11 -4,16 -1,3 -1,6 -2,9 -1,3 -2,6 -3,9 -4,12 -8,24 -13,36 -1,3 -2,6 -3,9 -1,3 -3,6 -4,9 -3,6 -6,13 -9,19 -3,6 -6,13 -9,19 -1,3 -3,6 -4,9 -2,3 -3,6 -5,9 -6,12 -13,23 -19,34 -2,3 -3,5 -4,8 -2,2 -3,5 -5,7 -3,5 -6,9 -9,14 -6,9 -12,17 -17,25 -11,15 -21,26 -27,34 -7,8 -10,12 -11,12 0,0 3,-5 9,-13 6,-8 15,-20 26,-35 5,-8 10,-16 16,-25 3,-5 6,-9 9,-14 2,-2 3,-5 5,-7 2,-3 3,-5 4,-8 6,-11 12,-22 18,-33 2,-3 3,-6 5,-9 2,-3 3,-6 4,-9 3,-6 6,-13 9,-19 3,-6 6,-13 9,-19 1,-3 3,-6 4,-9 1,-3 2,-6 3,-9 5,-12 9,-24 13,-36 1,-3 2,-6 3,-8 1,-3 2,-6 2,-8 2,-6 3,-11 5,-16 3,-10 6,-20 8,-29 4,-18 7,-32 9,-43 2,-10 4,-16 4,-16z"/>
   <path class="fil16" d="M2124 1254c-7,3 -10,10 -7,17 5,13 12,34 18,47 2,4 4,8 7,11 3,3 8,5 12,3 4,-2 7,-6 7,-11 0,-5 -1,-9 -3,-14 -4,-12 -11,-31 -17,-46 -3,-7 -10,-10 -17,-7z"/>
   <path class="fil16" d="M2106 1278c-7,3 -10,10 -7,17 5,13 12,34 18,47 2,4 4,8 7,11 3,3 8,5 12,3 4,-2 7,-6 7,-11 0,-5 -1,-9 -3,-14 -4,-12 -11,-31 -17,-46 -3,-7 -10,-10 -17,-7z"/>
   <path class="fil16" d="M2088 1294c-6,2 -9,9 -7,15 4,11 11,29 16,40 2,3 3,7 6,10 3,3 7,4 11,3 4,-1 6,-6 6,-10 0,-4 -1,-8 -2,-12 -4,-11 -10,-27 -15,-40 -2,-6 -9,-9 -15,-6z"/>
   <path class="fil16" d="M2065 1299c-6,2 -9,9 -7,15 4,12 11,30 16,40 2,4 3,7 6,10 3,3 7,4 11,3 4,-1 6,-6 6,-10 0,-4 -1,-8 -2,-12 -4,-11 -10,-27 -15,-40 -2,-6 -9,-9 -16,-6z"/>
   <path class="fil17" d="M2141 1330c-1,1 -7,-10 -12,-23 -6,-13 -9,-25 -8,-25 1,-1 7,10 12,23 6,13 9,25 8,25z"/>
   <path class="fil17" d="M2120 1350c-1,0 -7,-11 -13,-27 -6,-15 -10,-28 -9,-29 1,-1 7,11 13,27 6,15 10,28 9,29z"/>
   <path class="fil17" d="M2099 1352c-1,1 -8,-9 -13,-23 -6,-14 -8,-25 -7,-26 1,0 6,10 11,24 6,13 10,24 9,25z"/>
   <path class="fil6" d="M2984 3204l-64 -514c42,-97 57,-195 45,-255 1,6 1,14 -1,-4 -10,-107 -103,-186 -103,-186l-31 -130 -396 56 15 217 -256 902 -46 762 207 24c0,0 81,-381 103,-540 20,-146 21,-261 21,-261l194 -291c23,120 49,268 62,345 6,35 21,67 43,94l508 400 0 -241c-48,-115 -301,-380 -301,-380z"/>
   <path class="fil8" d="M2485 2333c-1,0 -4,-8 -8,-22 -4,-14 -9,-33 -12,-54 -3,-22 -4,-41 -4,-55 0,-14 1,-23 2,-23 1,0 1,9 2,23 1,14 3,34 6,55 3,21 7,40 11,54 3,14 6,22 5,22z"/>
   <path class="fil8" d="M2504 2185c0,0 2,-1 5,-2 4,-1 9,-1 15,2 6,3 12,9 13,19 1,9 -4,19 -13,25 -9,6 -21,3 -28,-3 -7,-6 -10,-14 -9,-21 1,-7 3,-11 4,-15 2,-3 3,-5 3,-5 0,0 0,2 -1,5 -1,3 -3,8 -3,14 0,6 2,13 9,17 6,4 15,6 22,2 7,-4 11,-13 11,-20 -1,-7 -6,-13 -11,-16 -11,-6 -19,-2 -19,-3z"/>
   <path class="fil8" d="M2764 2290c0,0 -2,1 -7,3 -5,2 -11,3 -20,5 -9,1 -19,2 -30,1 -11,-1 -24,-3 -37,-7 -13,-4 -24,-10 -34,-15 -10,-6 -18,-12 -24,-18 -6,-6 -11,-11 -14,-15 -3,-4 -4,-6 -4,-6 1,-1 7,8 20,19 6,6 15,11 24,17 10,5 21,11 33,15 12,4 24,6 36,7 11,1 21,1 30,0 17,-2 27,-5 27,-4z"/>
   <path class="fil8" d="M2891 2678c0,0 -1,2 -4,6 -3,4 -8,10 -13,17 -11,15 -27,36 -46,63 -38,54 -90,129 -146,212 -56,83 -107,158 -144,213 -18,27 -33,49 -44,65 -5,7 -9,13 -12,17 -3,4 -4,6 -4,6 0,0 1,-2 4,-6 3,-4 7,-10 11,-18 10,-16 25,-38 42,-65 36,-55 86,-131 143,-214 56,-83 109,-158 147,-211 19,-27 36,-48 47,-62 6,-7 10,-12 14,-16 3,-4 5,-6 5,-5z"/>
   <path class="fil6" d="M2821 1526c1,0 1,-10 3,-26 3,-16 9,-37 21,-58 12,-21 28,-37 42,-43 14,-6 25,-3 25,-4 0,0 -2,-1 -7,-2 -5,-1 -11,0 -19,3 -16,6 -33,22 -45,44 -12,21 -18,44 -20,60 -2,16 -1,26 0,26z"/>
   <path class="fil7" d="M2789 1373l-207 32 -37 32c0,0 -130,254 -133,305 -3,57 28,154 28,154l-30 224c-4,26 12,51 24,51l358 -48c47,-9 66,-34 63,-61l-5 -50 153 -512c9,30 -5,-82 -73,-107 -29,-11 -96,-30 -140,-21z"/>
   <path class="fil7" d="M2564 1422c0,0 -64,49 -124,105 -60,56 -222,168 -222,168l-11 -234 -122 -16c0,0 -59,292 -22,372 38,81 83,84 208,44 125,-40 161,-58 161,-58l131 -380z"/>
   <path class="fil6" d="M2531 1457c0,0 -1,1 -3,4 -2,3 -4,7 -7,11 -6,10 -15,23 -26,41 -21,35 -51,84 -70,144 -19,60 -20,119 -11,159 4,20 10,36 15,46 2,5 5,9 6,12 1,3 2,4 2,4 0,0 -2,-6 -7,-16 -4,-11 -10,-26 -13,-46 -8,-40 -7,-98 12,-157 19,-59 47,-109 68,-144 10,-17 19,-31 25,-42 3,-5 5,-8 7,-11 1,-3 2,-4 2,-4z"/>
   <path class="fil7" d="M2889 1394c0,0 -65,85 -68,162 -4,78 116,543 116,543l105 424 130 -48c0,0 -30,-302 -36,-340 -12,-78 -64,-231 -71,-319 -7,-88 -40,-258 -56,-298 -16,-40 -17,-127 -120,-125z"/>
   <path class="fil6" d="M2827 1599c0,0 0,2 0,5 0,4 1,8 2,13 2,11 4,27 8,47 7,40 18,95 32,155 14,60 27,114 37,154 5,20 9,35 12,46 1,5 3,9 4,12 1,3 1,4 2,4 0,0 0,-2 -1,-5 -1,-3 -2,-8 -3,-13 -3,-12 -6,-27 -11,-47 -9,-40 -22,-94 -36,-154 -14,-60 -25,-115 -33,-154 -4,-19 -7,-35 -9,-47 -1,-5 -2,-9 -2,-13 -1,-3 -1,-4 -1,-4z"/>
   <path class="fil13" d="M2817 2117c0,0 0,0 -1,-1 24,-10 36,-26 37,-43 -2,18 -13,37 -37,44zm37 -53c0,0 0,0 0,0l-5 -50c0,0 4,31 5,50zm-5 -50l36 -122c0,0 0,0 0,0 -7,33 -36,121 -36,121z"/>
   <path class="fil12" d="M2817 2116c-20,-21 -24,-52 -28,-80 -10,-92 -20,-184 -31,-276 -4,-40 -9,-81 -4,-120 25,7 40,15 42,15 0,0 0,0 0,0 0,0 -1,-1 -3,-2 -2,-1 -6,-3 -10,-5 -7,-3 -16,-7 -28,-11 2,-16 6,-32 12,-48 3,-8 8,-17 16,-19 1,0 3,-1 4,-1 7,0 13,4 17,9 4,6 15,13 19,20 3,18 7,41 11,66 7,40 18,94 32,154 6,26 12,50 17,73l-36 122c0,0 0,0 0,0l0 0 5 50c0,0 0,0 0,0 0,1 0,1 0,2 0,2 0,5 0,7 -2,18 -14,33 -37,43z"/>
   <path class="fil12" d="M2887 1879c-1,-5 -2,-9 -3,-14 2,5 3,8 3,14zm-36 -162c-4,-20 -8,-38 -11,-54 -3,-17 -6,-31 -8,-42 8,32 14,64 20,96zm-15 -53c-5,-25 -9,-47 -11,-66 1,1 1,3 2,4 0,0 0,0 0,1 0,0 0,0 0,0 0,4 1,8 2,13 2,11 4,27 8,47 0,0 0,0 0,1z"/>
   <path class="fil15" d="M2885 1892c0,0 0,0 0,0 -5,-23 -11,-47 -17,-73 -13,-60 -25,-114 -32,-154 0,0 0,0 0,-1 -4,-20 -6,-36 -8,-47 -1,-5 -1,-9 -2,-13 0,0 0,0 0,0 1,6 3,12 4,18 2,11 5,25 8,42 3,16 7,34 11,54 8,43 16,87 27,130 2,8 4,13 6,17 1,5 2,9 3,14 0,3 -1,7 -2,11 0,0 0,1 0,1z"/>
   <path class="fil4" d="M2837 1645c0,0 2,2 7,5 5,3 12,7 21,11 9,4 21,8 35,7 14,-1 28,-8 41,-16 13,-8 24,-17 36,-23 12,-6 23,-7 33,-5 10,2 16,6 20,10 4,4 5,7 5,7 0,0 0,-3 -4,-8 -4,-5 -11,-10 -21,-12 -10,-3 -23,-1 -35,5 -12,5 -24,14 -37,23 -13,8 -26,15 -38,16 -13,1 -24,-2 -33,-6 -18,-7 -29,-14 -29,-13z"/>
   <path class="fil4" d="M2433 1635c0,0 1,1 2,3 1,2 4,5 7,9 7,7 19,16 36,20 17,5 39,6 62,1 23,-5 47,-14 72,-23 50,-19 99,-17 133,-9 34,8 53,19 53,18 0,0 -1,-1 -3,-2 -2,-1 -6,-3 -10,-5 -9,-4 -22,-10 -39,-14 -17,-4 -38,-7 -61,-7 -23,0 -49,5 -74,14 -25,9 -49,18 -71,23 -22,5 -43,4 -60,0 -17,-4 -29,-12 -36,-18 -7,-7 -10,-11 -10,-11z"/>
   <path class="fil4" d="M2356 1594c-1,0 -2,7 -1,19 1,12 5,29 13,45 9,16 20,29 30,36 9,8 16,11 17,10 0,-1 -6,-5 -14,-13 -9,-8 -19,-20 -28,-36 -8,-16 -12,-32 -14,-43 -2,-12 -2,-19 -2,-19z"/>
   <path class="fil13" d="M2368 1828c20,-7 35,-13 45,-17 0,0 0,0 0,0 -13,5 -28,11 -45,17z"/>
   <path class="fil12" d="M2271 1861c20,-74 54,-140 98,-201 9,16 20,28 29,35 7,6 13,9 15,10 -1,5 -2,10 -2,15 0,1 0,2 -1,3 -2,9 -2,20 -2,31 0,21 1,41 4,58 -10,4 -25,10 -45,17 -29,10 -62,21 -97,33z"/>
   <path class="fil15" d="M2414 1811c0,0 0,0 0,0 -3,-17 -5,-36 -4,-58 1,28 6,57 6,57 -1,0 -1,0 -2,1zm-2 -91c1,-5 1,-10 2,-15 0,0 0,0 0,0 -1,5 -2,10 -3,15z"/>
   <path class="fil12" d="M2414 1703c-2,-2 -7,-6 -13,-11 -9,-8 -19,-20 -28,-36 0,0 0,-1 -1,-1 35,-48 75,-93 117,-136 -4,7 -7,14 -11,20 -15,27 -32,59 -46,96 0,0 0,0 0,0 0,0 0,0 0,0 0,0 0,0 0,0 -3,7 -5,14 -7,21 -5,16 -9,31 -11,47z"/>
   <path class="fil15" d="M2414 1704c0,0 0,0 0,0 3,-15 6,-31 11,-47 2,-7 5,-14 7,-21 0,0 0,1 1,1 -12,30 -16,50 -19,68zm19 -68c0,0 -1,-1 -1,-1 14,-37 31,-69 46,-96 -22,42 -36,72 -45,97z"/>
   <path class="fil18" d="M2433 1636c0,0 0,-1 -1,-1 0,0 0,0 0,0 0,0 0,0 0,0 0,0 0,0 0,0 0,0 0,0 1,1 0,0 0,0 0,1z"/>
   <path class="fil18" d="M2414 1705c0,0 0,0 0,0 -2,-1 -8,-4 -15,-10 -9,-7 -21,-19 -29,-35 1,-1 2,-3 3,-4 0,0 0,1 1,1 8,16 19,28 28,36 6,6 11,10 13,11 0,0 0,0 0,0 0,0 0,1 0,1z"/>
   <path class="fil6" d="M2220 1696c1,1 -11,12 -20,30 -9,18 -10,34 -11,34 -1,0 -2,-17 7,-36 9,-19 23,-29 24,-28z"/>
   <polygon class="fil4" points="2357,2059 2290,2623 1584,2539 1651,1975 "/>
   <path class="fil6" d="M2357 2059c0,0 -1,0 -3,0 -2,0 -6,-1 -10,-1 -9,-1 -22,-2 -38,-4 -34,-4 -82,-9 -145,-17 -124,-14 -300,-35 -510,-59l2 -2c-20,168 -42,360 -67,564l0 0 -2 -2c261,31 504,60 706,84l-2 2c20,-170 37,-311 49,-409 6,-49 11,-88 14,-114 2,-13 3,-23 4,-30 1,-7 1,-10 1,-10 0,0 0,3 -1,10 -1,7 -2,17 -3,30 -3,26 -7,65 -13,114 -11,99 -28,240 -48,410l0 2 -2 0c-202,-24 -444,-52 -706,-83l-2 0 0 -2 0 0c24,-204 47,-396 67,-564l0 -2 2 0c210,25 386,46 511,61 62,8 111,13 144,18 17,2 29,4 38,5 4,1 7,1 10,1 2,0 3,0 3,0z"/>
   <polygon class="fil1" points="1613,2507 2269,2584 2327,2091 1671,2014 "/>
   <polygon class="fil3" points="1613,2507 1878,2227 1997,2436 2106,2345 2269,2584 "/>
   <path class="fil3" d="M2085 2214c-3,29 -29,49 -58,46 -29,-3 -49,-29 -46,-58 3,-29 29,-49 58,-46 29,3 49,29 46,58z"/>
   <polygon class="fil4" points="3276,2268 3067,2268 3067,1593 3276,1593 "/>
   <path class="fil6" d="M3276 1593c0,0 -1,0 -4,0 -3,0 -6,0 -11,0 -10,0 -24,0 -42,1 -37,0 -89,0 -153,1l2 -2c0,92 0,210 1,338 0,128 0,246 -1,338l-2 -2c64,0 116,1 153,1 18,0 32,0 42,1 5,0 8,0 11,0 2,0 4,0 4,0 0,0 -1,0 -4,0 -3,0 -6,0 -11,0 -10,0 -24,0 -42,1 -37,0 -89,0 -153,1l-2 0 0 -2c0,-92 0,-210 -1,-338 0,-128 0,-246 1,-338l0 -2 2 0c64,0 116,1 153,1 18,0 32,0 42,1 5,0 8,0 11,0 2,0 4,0 4,0z"/>
   <polygon class="fil1" points="3276,2223 3101,2226 3101,1632 3276,1629 "/>
   <polygon class="fil3" points="3103,2224 3276,2226 3277,1986 "/>
   <polygon class="fil4" points="1758,2734 1801,3213 1201,3267 1159,2788 "/>
   <path class="fil6" d="M1758 2734c0,0 -1,0 -3,0 -2,0 -5,0 -8,1 -7,1 -18,2 -33,3 -28,3 -70,6 -123,11 -105,10 -255,23 -433,39l1 -2c13,143 27,306 43,479l0 0 -2 -2c222,-20 428,-38 599,-53l-1 2c-13,-144 -23,-264 -30,-347 -4,-42 -6,-75 -8,-97 -1,-11 -2,-20 -2,-26 0,-6 -1,-9 -1,-9 0,0 0,3 1,9 1,6 1,14 2,25 2,22 5,55 9,97 8,84 19,204 32,348l0 1 -1 0c-171,15 -377,34 -599,54l-2 0 0 -2 0 0c-15,-173 -30,-336 -42,-479l0 -2 2 0c178,-16 328,-29 434,-38 53,-5 94,-8 122,-10 14,-1 25,-2 32,-3 4,0 6,0 8,-1 2,0 3,0 3,0z"/>
   <polygon class="fil1" points="1219,3235 1776,3185 1739,2766 1182,2816 "/>
   <polygon class="fil3" points="1219,3235 1391,2957 1526,3109 1600,3015 1776,3185 "/>
   <path class="fil3" d="M1560 2910c2,24 -16,46 -40,48 -24,2 -46,-16 -48,-40 -2,-24 16,-46 40,-48 24,-2 46,16 48,40z"/>
  </g>
 </g>
</svg>
