<?xml version="1.0" encoding="UTF-8"?>
<!DOCTYPE svg PUBLIC "-//W3C//DTD SVG 1.1//EN" "http://www.w3.org/Graphics/SVG/1.1/DTD/svg11.dtd">
<!-- Creator: CorelDRAW X6 -->
<svg xmlns="http://www.w3.org/2000/svg" xml:space="preserve" width="1.24387in" height="1.60158in" version="1.1" style="shape-rendering:geometricPrecision; text-rendering:geometricPrecision; image-rendering:optimizeQuality; fill-rule:evenodd; clip-rule:evenodd"
viewBox="0 0 421 542"
 xmlns:xlink="http://www.w3.org/1999/xlink">
 <defs>
  <style type="text/css">
   <![CDATA[
    .fil0 {fill:#fff}
   ]]>
  </style>
 </defs>
 <g id="Layer_x0020_1">
  <metadata id="CorelCorpID_0Corel-Layer"/>
  <path class="fil0" d="M92 542c7,1 11,-7 17,-16 14,-20 28,-42 37,-65 7,-16 11,-34 16,-52 2,-9 12,-50 14,-54 11,12 9,14 27,24 38,23 90,12 124,-7 41,-23 71,-68 85,-123 16,-64 11,-119 -23,-168 -91,-133 -345,-101 -385,76 -12,53 0,121 49,150 16,10 24,11 28,-10 6,-27 9,-22 -3,-39 -41,-55 -10,-166 81,-197 82,-29 184,7 185,108 1,32 -5,64 -14,90 -10,27 -24,49 -42,63 -23,17 -55,22 -78,2 -25,-22 -14,-49 -6,-78 7,-23 21,-60 19,-86 -5,-60 -90,-56 -101,25 -2,16 0,32 3,46 6,25 8,10 0,41 -7,29 -13,56 -20,84 -6,27 -15,57 -19,86 -2,19 -2,82 4,97z"/>
 </g>
</svg>
