<?xml version="1.0" encoding="UTF-8"?>
<!DOCTYPE svg PUBLIC "-//W3C//DTD SVG 1.1//EN" "http://www.w3.org/Graphics/SVG/1.1/DTD/svg11.dtd">
<!-- Creator: CorelDRAW X6 -->
<svg xmlns="http://www.w3.org/2000/svg" xml:space="preserve" width="0.433339in" height="0.433339in" version="1.1" style="shape-rendering:geometricPrecision; text-rendering:geometricPrecision; image-rendering:optimizeQuality; fill-rule:evenodd; clip-rule:evenodd"
viewBox="0 0 33 33"
 xmlns:xlink="http://www.w3.org/1999/xlink">
 <defs>
  <style type="text/css">
   <![CDATA[
    .fil1 {fill:none}
    .fil0 {fill:#FEFEFE}
   ]]>
  </style>
 </defs>
 <g id="Layer_x0020_1">
  <metadata id="CorelCorpID_0Corel-Layer"/>
  <path class="fil0" d="M9 17c0,0 0,0 0,0 0,0 0,0 0,0zm-2 -7c0,0 0,-1 0,-1 0,-1 0,-1 0,-1 0,0 -1,1 -1,1zm18 -4c0,0 0,0 0,0 0,0 0,0 0,0 0,0 0,0 0,0zm-10 15c0,0 1,0 1,1 2,1 5,2 7,0 1,0 1,-1 2,-1 0,0 1,-1 1,-1 3,-3 3,-8 2,-12 -1,-2 -2,-4 -5,-6 -2,-1 -6,-2 -8,-1 -1,0 -2,1 -4,2 -1,1 -2,1 -3,2 -1,2 -3,5 -3,7 0,2 1,4 2,5 0,0 1,1 2,1 0,0 0,0 1,-1 0,0 0,-1 0,-1 0,-1 0,-1 0,-1 0,0 0,-1 -1,-1 -1,-1 -1,-3 -1,-4 1,-5 8,-9 12,-7 2,1 3,4 3,7 0,3 -1,6 -3,7 -2,2 -6,1 -4,-4 0,-1 1,-3 1,-4 0,-1 -1,-3 -2,-3 -1,0 -2,1 -3,2 0,1 0,1 0,2 0,1 0,1 1,2 0,0 0,1 -1,2 0,1 0,1 -1,2 -1,2 -1,5 -2,7 0,2 0,3 0,5 0,0 0,0 0,0 0,0 0,1 0,1 0,0 1,0 1,-1 1,-2 2,-3 3,-6l1 -3c0,0 0,-1 0,-1z"/>
  <rect class="fil1" width="33" height="33"/>
 </g>
</svg>
