<?xml version="1.0" encoding="UTF-8"?>
<!DOCTYPE svg PUBLIC "-//W3C//DTD SVG 1.1//EN" "http://www.w3.org/Graphics/SVG/1.1/DTD/svg11.dtd">
<!-- Creator: CorelDRAW X6 -->
<svg xmlns="http://www.w3.org/2000/svg" xml:space="preserve" width="2.08272in" height="1.61198in" version="1.1" style="shape-rendering:geometricPrecision; text-rendering:geometricPrecision; image-rendering:optimizeQuality; fill-rule:evenodd; clip-rule:evenodd"
viewBox="0 0 1948 1508"
 xmlns:xlink="http://www.w3.org/1999/xlink">
 <defs>
  <style type="text/css">
   <![CDATA[
    .fil3 {fill:#FC6300}
    .fil1 {fill:#2B2A29;fill-rule:nonzero}
    .fil2 {fill:black;fill-rule:nonzero}
    .fil0 {fill:#5CA595;fill-opacity:0.050980}
   ]]>
  </style>
 </defs>
 <g id="Layer_x0020_1">
  <metadata id="CorelCorpID_0Corel-Layer"/>
  <g id="_527452328">
   <path class="fil0" d="M689 146c381,0 1259,303 1259,661 0,359 -878,637 -1259,637 -381,0 -689,-291 -689,-649 0,-359 308,-649 689,-649z"/>
   <path class="fil0" d="M964 0c363,0 647,501 647,795 0,294 -89,712 -452,712 -363,0 -832,-258 -822,-674 10,-416 265,-834 627,-834z"/>
  </g>
  <path class="fil1" d="M769 896c0,2 0,5 0,8 0,3 0,6 0,10 0,13 -1,26 0,37 1,11 3,21 9,25 1,1 3,2 4,3 2,1 3,2 5,2 2,1 4,1 7,1 3,0 5,0 8,0l345 0c3,0 6,0 9,-1 3,0 5,-1 8,-2 2,-1 4,-1 6,-2 1,-1 3,-2 4,-3 10,-10 10,-35 9,-56l0 0 0 0 0 0 0 -1c0,-5 0,-10 0,-13 0,-36 -40,-48 -77,-59l0 0c-3,-1 -6,-2 -10,-3 -3,-1 -7,-2 -10,-3l0 0 -5 -2 0 0 -4 -1 0 0 0 0 0 0c-9,-3 -20,-7 -28,-9 -1,5 -3,11 -5,17 -2,7 -4,15 -7,23 -3,9 -5,17 -8,25l0 0c-3,8 -5,16 -7,22 -1,3 -4,11 -7,19l0 1 -3 7 0 0c-1,2 -1,3 -1,4l0 0c-1,2 -2,4 -4,5l0 0c-2,1 -4,1 -7,1l0 0c-2,0 -3,-1 -4,-3 0,0 -1,-1 -1,-1l-1 1 -1 -4 -5 -32 0 0 0 0 -1 -5 0 0c-1,-8 -2,-15 -3,-23l-23 0c-1,9 -2,18 -3,27l0 0c-1,6 -2,11 -2,17 -1,6 -1,12 -1,18 0,2 -1,5 -3,6l0 0c-2,2 -4,3 -6,3 -2,0 -3,0 -4,-1 -1,-1 -2,-2 -3,-3l0 0c-1,-3 -4,-8 -6,-15 -3,-8 -6,-19 -10,-31 -4,-13 -8,-28 -12,-41 -4,-14 -8,-27 -10,-35 -5,1 -13,4 -23,7 -11,3 -23,8 -36,12 -14,5 -27,9 -37,13 -9,3 -15,6 -16,7 -2,2 -5,3 -7,5 -2,2 -4,4 -6,6l0 0c-2,2 -3,4 -4,7 -1,2 -2,5 -2,8zm-2 0c0,5 0,11 0,18 -1,25 -2,54 10,64 3,3 6,5 10,6 4,1 9,2 16,2l345 0c6,0 12,-1 17,-2 4,-1 8,-3 10,-5 11,-11 10,-36 10,-58 0,-5 0,-10 0,-13 0,-37 -40,-49 -79,-61 -6,-2 -13,-4 -20,-6 -4,-1 -6,-2 -9,-3 -9,-3 -22,-8 -30,-10 -3,12 -7,27 -12,42 -5,18 -11,34 -15,47 -1,3 -4,12 -7,19 -2,5 -4,10 -4,11 -1,4 -5,6 -8,5 -3,-1 -4,-3 -5,-5l0 0 -5 -32c0,0 0,0 0,0l-1 -5 0 0c-1,-8 -2,-16 -3,-25l-27 0c-1,10 -2,19 -4,29 -2,12 -4,23 -4,35 0,4 -3,7 -7,7 -3,0 -5,-1 -6,-4 -3,-5 -9,-24 -16,-45 -9,-28 -19,-62 -23,-78 -11,3 -36,11 -61,19 -26,9 -50,18 -54,21 -5,3 -10,7 -14,12 -4,5 -6,10 -6,16zm-14 17l0 0 0 0c0,-6 0,-11 0,-17 0,-10 4,-18 9,-25 5,-6 11,-11 16,-15 5,-4 31,-13 57,-22 29,-10 61,-20 69,-21 4,-1 7,1 8,5 2,9 14,50 24,83 2,6 4,11 5,16 0,-2 1,-5 1,-7 2,-11 3,-23 3,-34 0,-4 3,-7 7,-7l40 0c4,0 7,3 7,7 0,11 1,20 3,30 0,1 0,3 1,5 0,0 0,0 0,0l1 5c1,-2 1,-4 2,-5 5,-14 10,-31 15,-47 5,-17 10,-33 13,-47l0 0c1,-3 3,-5 7,-5 9,0 27,7 40,11 4,1 7,3 8,3 5,2 13,4 20,6 43,13 88,27 88,74 0,5 0,9 0,13 1,24 1,53 -14,68 -4,4 -10,7 -16,9 -6,2 -14,3 -21,3l-345 0c-7,0 -14,-1 -20,-3 -6,-2 -11,-5 -15,-9 -16,-14 -15,-47 -14,-75zm352 -65l0 0m-117 60l0 0m-237 5l0 0 0 0 0 0zm0 0l0 -1 0 0c0,-5 0,-11 0,-17 0,-5 1,-10 3,-14 2,-4 4,-8 7,-12 3,-3 5,-6 8,-9 3,-3 6,-5 8,-7 3,-2 10,-5 19,-9 11,-4 25,-9 39,-14 15,-5 31,-10 44,-14 12,-4 21,-6 25,-7 2,0 5,0 6,1 2,1 3,3 4,5l0 0c1,5 5,19 10,36 4,15 9,32 14,47l0 0 3 8c2,-11 3,-22 3,-33 0,-2 1,-5 3,-6 2,-2 4,-3 6,-3l40 0c2,0 5,1 6,3 2,2 3,4 3,6 0,5 0,10 1,15 1,5 1,10 2,14l0 3c2,-6 4,-13 6,-20 3,-8 5,-16 8,-24 3,-8 5,-17 7,-25 2,-8 4,-15 6,-22l1 -2 0 0c1,-1 1,-2 2,-3l0 0c2,-1 3,-2 5,-2l0 0c9,0 28,7 40,11l0 0 0 0 5 2 0 0 3 1 0 0c5,2 12,4 19,6l0 0 0 0 0 0c43,13 90,27 90,76 0,5 0,9 0,12l0 1c0,12 1,26 -1,38 -2,12 -5,24 -13,31 -2,2 -5,4 -7,5l0 0c-3,2 -6,3 -9,4 -3,1 -7,2 -10,2 -4,0 -8,1 -11,1l-345 0c-4,0 -7,0 -11,-1 -3,0 -7,-1 -9,-2 -3,-1 -6,-2 -9,-4 -3,-2 -5,-3 -8,-5 -17,-15 -16,-48 -15,-76l0 0 0 0 0 0"/>
  <path class="fil2" d="M1260 864l-34 -47c-5,-6 -12,-8 -18,-7 -7,1 -14,4 -21,7l0 0 -3 1 0 0c-1,0 -2,1 -4,2 -3,1 -6,2 -8,3l0 0 0 0 0 0 0 0 0 0 -1 0c5,2 10,5 15,8 6,4 12,9 17,14 7,7 12,16 16,26l0 0c3,9 5,19 5,29 0,4 0,7 0,11l0 0 0 0 0 0c0,4 0,8 0,13 0,4 0,7 -1,9l0 1 160 0c3,0 6,0 9,0 3,0 5,-1 8,-1 2,0 4,-1 6,-2l0 0c2,-1 3,-2 5,-3 13,-11 12,-26 12,-49l0 0 0 0 0 0 0 0 0 0c0,-7 0,-14 0,-20 0,-1 0,-2 -1,-3l0 0c0,-1 -1,-2 -2,-4 -1,-2 -2,-3 -3,-5 -1,-2 -3,-3 -4,-5l0 0c-1,-1 -3,-3 -4,-4l0 0c-1,-1 -3,-2 -5,-3 -2,-1 -3,-2 -5,-3 -2,-1 -4,-2 -6,-2l-51 -20c-12,-4 -19,-5 -23,-3 -5,2 -9,7 -15,16 -2,2 -3,5 -5,8l0 0c-2,3 -4,6 -7,9 0,1 -1,1 -2,2l0 0 -2 3 0 0 0 0c-4,6 -9,13 -14,17 -2,1 -4,2 -6,2l0 0c-2,0 -4,-2 -6,-3l0 0 0 0 0 0zm-20 -58l28 39 1 -2 3 -4 0 0c1,-2 3,-4 4,-6l0 0c2,-3 4,-6 6,-9 2,-3 4,-5 5,-8 9,-13 14,-21 22,-24l0 0c8,-3 18,-2 36,4l1 0 0 0 50 19 1 0 0 0c2,1 4,2 6,3 2,1 4,2 6,3 2,1 4,3 6,4 2,2 4,3 6,5 2,2 4,4 6,7 2,2 3,5 5,7 1,2 2,5 3,8 1,2 1,5 1,7 0,4 0,8 0,11 0,3 0,6 0,9 0,14 1,25 -1,35 -2,10 -7,19 -16,27 -3,2 -5,4 -8,6 -3,1 -6,3 -10,3 -3,1 -7,1 -10,2 -3,0 -7,0 -11,0l-162 0c-6,0 -10,-3 -12,-9l0 0c-2,-5 -3,-12 -3,-19 0,-2 0,-4 0,-7 0,-2 0,-5 0,-7l0 -6c0,-2 0,-4 0,-5 0,-8 -2,-16 -4,-23 -3,-8 -8,-15 -13,-20 -6,-7 -14,-12 -21,-16 -8,-4 -16,-7 -22,-7 -1,0 -2,0 -3,0l0 0c-1,0 -2,-1 -3,-1 -2,-1 -3,-4 -3,-6l0 0c0,-2 0,-5 2,-6 5,-7 16,-11 27,-15l0 0 0 0 4 -2 0 0c1,0 2,-1 3,-1l0 0c1,-1 4,-2 7,-3l0 0 0 0 0 0c10,-4 20,-8 30,-9 10,-1 21,3 30,14l0 0 0 0 0 0zm-41 -140c0,16 2,31 6,44 4,14 10,26 18,36 4,5 8,10 13,14 5,4 10,7 15,9 5,2 10,3 15,3 5,0 10,-1 15,-2l0 0c6,-2 13,-6 19,-11 6,-5 12,-12 17,-20 6,-9 11,-20 14,-31 3,-11 5,-23 5,-35 0,-6 0,-12 -1,-17 -1,-5 -2,-10 -4,-15l0 0c-2,-5 -5,-9 -8,-13 -3,-4 -7,-7 -11,-10 -5,-3 -10,-6 -17,-7 -6,-2 -13,-3 -21,-3 -12,0 -23,1 -33,4 -9,3 -17,6 -24,12 -6,5 -10,11 -14,18 -3,7 -5,15 -5,25zm10 90c-8,-11 -15,-25 -20,-41 -4,-15 -7,-31 -7,-49 0,-13 2,-23 6,-33 4,-10 11,-18 19,-24 8,-7 18,-11 29,-15 12,-3 25,-5 39,-5 10,0 18,1 26,3 8,2 15,6 22,10 6,4 10,8 15,13 4,5 8,11 10,18 2,6 4,12 5,18 1,7 2,14 2,21 0,13 -2,27 -6,40 -4,13 -10,26 -16,36 -7,10 -14,18 -21,24 -8,7 -16,11 -24,14l0 0c-7,2 -14,3 -21,3 -7,0 -14,-2 -21,-5 -7,-3 -13,-6 -19,-11 -6,-5 -11,-11 -16,-17z"/>
  <path class="fil2" d="M527 861c0,6 0,14 0,20l0 0 0 0 0 0 0 0 0 0c-1,23 -1,37 12,49 1,1 3,2 5,3l0 0c2,1 4,1 6,2 2,1 5,1 8,1 3,0 6,0 9,0l160 0 0 -1c0,-2 -1,-5 -1,-8 0,-2 0,-4 0,-6 0,-2 0,-4 0,-6 0,-2 0,-4 0,-6 0,-2 0,-4 0,-6 0,-8 1,-16 2,-23 2,-7 4,-13 7,-19 3,-6 7,-11 12,-16 5,-5 10,-9 17,-13l0 0c2,-1 6,-3 9,-5 2,-1 4,-2 7,-3 -4,-2 -7,-3 -11,-5l0 0 0 0c-9,-5 -19,-9 -28,-10 -8,-1 -16,3 -23,14 -2,3 -5,8 -9,13l0 0c-3,4 -7,9 -10,14 -3,4 -6,7 -8,10 -2,3 -4,4 -6,6 -2,1 -4,2 -6,1 -1,0 -3,-1 -4,-2l0 0 -1 -2 -28 -41 0 0 0 0c-3,-4 -5,-8 -8,-10 -2,-2 -4,-4 -6,-4 -2,-1 -5,0 -8,0 -4,1 -8,2 -14,4l0 0 0 0 0 0c-17,6 -58,20 -70,31 -1,1 -3,3 -5,5 -1,2 -2,3 -3,5 -1,1 -1,3 -2,4 0,1 -1,2 -1,3zm-18 20c0,-3 0,-6 0,-9 0,-3 0,-6 0,-11 0,-3 0,-5 1,-8 1,-3 2,-5 3,-8l0 0c2,-3 3,-5 5,-7 2,-3 4,-5 6,-7 7,-7 22,-14 37,-20 15,-6 30,-11 39,-14l0 0c7,-3 13,-4 18,-5 5,-1 10,-1 14,0 4,1 8,4 12,7 4,3 7,8 11,14l0 0 0 0 0 0 22 32 1 -1c1,-1 2,-3 3,-4 3,-4 7,-9 10,-13l0 0c4,-5 7,-10 9,-13 22,-35 47,-23 73,-10l0 0c5,2 10,5 15,7 5,2 9,3 13,4l0 0c2,0 4,1 6,3 1,2 2,4 2,6l0 4 0 2 0 0c0,2 -1,3 -2,4 -2,2 -4,3 -6,3l0 0c-1,0 -3,0 -5,1l0 0c-2,1 -5,2 -8,3 -3,1 -7,3 -10,4 -3,2 -6,3 -8,5 -5,3 -10,7 -14,11 -4,4 -7,8 -9,12 -2,4 -4,9 -5,14 -1,5 -2,11 -2,18 0,2 0,3 0,5 0,2 0,4 0,6l0 0c0,5 0,9 0,13 0,7 -1,14 -3,18 -2,5 -6,8 -12,8l-162 0c-4,0 -7,0 -11,0 -4,0 -7,-1 -10,-2 -3,-1 -7,-2 -10,-3 -3,-1 -6,-3 -8,-6 -9,-8 -14,-17 -16,-27 -2,-10 -2,-21 -1,-35zm266 -77l0 0m-98 -32c6,0 12,0 16,-1 5,-1 9,-3 13,-5l0 0c4,-2 8,-5 11,-9 4,-4 7,-9 11,-15 6,-10 12,-21 15,-33 4,-11 6,-23 6,-35 0,-6 0,-12 -2,-17 -1,-5 -3,-10 -5,-15 -2,-5 -5,-9 -8,-13l0 0c-3,-4 -7,-7 -11,-10 -6,-4 -12,-7 -20,-8 -7,-2 -16,-3 -25,-3 -5,0 -10,0 -15,1 -5,1 -10,2 -14,4l0 0c-5,2 -9,4 -13,6 -4,3 -8,5 -11,8 -5,5 -8,11 -11,18 -3,8 -4,17 -4,26 0,8 1,15 2,23 1,8 4,16 6,23 3,8 6,15 10,21 4,6 8,12 13,17 5,5 10,9 16,12 5,2 11,4 17,4zm38 9c-5,3 -11,5 -17,7 -6,1 -13,2 -21,2 -8,0 -16,-2 -24,-5 -8,-4 -15,-9 -22,-15 -6,-6 -11,-12 -15,-20l0 0c-5,-8 -9,-16 -12,-25 -3,-8 -6,-17 -7,-26 -2,-9 -3,-18 -3,-26 0,-12 2,-23 5,-33 3,-9 8,-18 14,-24 4,-4 8,-7 13,-11 5,-3 10,-6 16,-8 5,-2 11,-4 17,-5 6,-1 12,-2 18,-2 11,0 21,1 30,4 9,2 18,6 25,11 6,4 11,8 15,13 4,5 8,11 11,17 3,6 4,12 6,18 1,7 2,14 2,21 0,13 -2,27 -6,40 -4,14 -10,26 -17,38 -5,7 -9,13 -14,18 -5,5 -10,9 -15,12l0 0z"/>
  <path class="fil2" d="M956 862l35 0c1,-2 2,-4 3,-6 2,-4 3,-7 3,-11 0,-9 -5,-11 -16,-11 -4,0 -7,0 -11,0 -5,0 -11,0 -17,0 -2,0 -2,1 -3,2 0,0 -1,1 -1,1 -1,1 -1,3 -2,5 0,1 -1,2 -1,3 0,2 1,4 3,6 2,3 4,6 5,11zm38 9l-42 0 -4 0 0 -4c0,-5 -2,-8 -4,-11 -2,-3 -3,-6 -4,-9 0,-2 0,-4 1,-6 1,-2 2,-5 3,-7 0,0 0,-1 1,-1 2,-4 4,-7 11,-7 6,0 12,0 16,0 4,0 8,0 11,0 17,0 25,3 25,20 0,6 -2,11 -4,15 -1,3 -2,5 -3,8l-1 3 -4 0z"/>
  <path class="fil3" d="M794 509l98 74c11,-9 23,-16 36,-21 13,-5 28,-8 43,-8 17,0 32,3 47,9 15,6 28,15 40,27 11,11 20,25 27,40 6,14 9,30 9,47 0,17 -3,32 -9,47 -6,15 -15,28 -27,40 -11,11 -25,20 -40,27 -14,6 -30,9 -47,9 -17,0 -32,-3 -47,-9 -15,-6 -28,-15 -40,-27 -22,-22 -36,-53 -36,-86 0,-15 3,-29 8,-42 5,-13 12,-25 21,-36l-95 -73c-2,-2 -4,-4 -4,-7 0,-3 0,-6 2,-8l0 0c2,-2 4,-4 7,-4 3,0 6,0 8,2zm251 93c-10,-10 -21,-17 -34,-23 -12,-5 -26,-8 -40,-8 -14,0 -28,3 -40,8 -13,5 -24,13 -34,23 -10,10 -17,21 -23,34l0 0c-5,12 -8,26 -8,40 0,14 3,28 8,40l0 0c5,13 13,24 23,34 19,19 45,31 74,31 14,0 28,-3 40,-8 13,-5 24,-13 34,-23 10,-10 17,-21 23,-34 5,-12 8,-26 8,-40 0,-14 -3,-28 -8,-40 -5,-13 -13,-24 -23,-34z"/>
 </g>
</svg>
