<?xml version="1.0" encoding="UTF-8"?>
<!DOCTYPE svg PUBLIC "-//W3C//DTD SVG 1.1//EN" "http://www.w3.org/Graphics/SVG/1.1/DTD/svg11.dtd">
<!-- Creator: CorelDRAW X6 -->
<svg xmlns="http://www.w3.org/2000/svg" xml:space="preserve" width="7.90157in" height="4.17157in" version="1.1" style="shape-rendering:geometricPrecision; text-rendering:geometricPrecision; image-rendering:optimizeQuality; fill-rule:evenodd; clip-rule:evenodd"
viewBox="0 0 8228 4344"
 xmlns:xlink="http://www.w3.org/1999/xlink">
 <defs>
  <style type="text/css">
   <![CDATA[
    .fil24 {fill:#3A5EA8}
    .fil20 {fill:#3F3E6F}
    .fil25 {fill:#F6C04A}
    .fil11 {fill:#434242}
    .fil7 {fill:#898989}
    .fil8 {fill:#C5C6C6}
    .fil19 {fill:#010117}
    .fil14 {fill:#060632}
    .fil13 {fill:#0B0754}
    .fil29 {fill:#3662C1}
    .fil27 {fill:#3864C2}
    .fil26 {fill:#3A49CD}
    .fil3 {fill:#6D89CF}
    .fil6 {fill:#93B3F4}
    .fil12 {fill:#97B6F4}
    .fil30 {fill:#A83F3F}
    .fil2 {fill:#ABC4F6}
    .fil15 {fill:#B15252}
    .fil4 {fill:#BED2FA}
    .fil10 {fill:#CF5C58}
    .fil1 {fill:#D5E2FC}
    .fil0 {fill:#DDE8FD}
    .fil22 {fill:#DFE9FD}
    .fil23 {fill:#E75755}
    .fil28 {fill:#EA8888}
    .fil18 {fill:#EE6E6B}
    .fil9 {fill:#EF7774}
    .fil17 {fill:#FA7269}
    .fil21 {fill:#FA7D75}
    .fil31 {fill:#FC6300}
    .fil16 {fill:#FC9290}
    .fil5 {fill:white}
    .fil33 {fill:#FEFEFE;fill-rule:nonzero}
    .fil32 {fill:#262E39;fill-rule:nonzero}
    .fil34 {fill:#FC6300;fill-rule:nonzero}
   ]]>
  </style>
 </defs>
 <g id="Layer_x0020_1">
  <metadata id="CorelCorpID_0Corel-Layer"/>
  <g id="_432922824">
   <path class="fil0" d="M509 4324c0,0 -957,-1028 -162,-2141 706,-987 1529,-920 2132,-519 257,171 999,21 1630,-984 861,-1370 3843,-539 3300,1569 -263,1020 801,1057 259,2077l-7158 -2z"/>
   <polygon class="fil1" points="1283,2931 1907,3609 1229,4232 606,3555 "/>
   <polygon class="fil2" points="1283,2931 1409,3068 731,3691 606,3555 "/>
   <polygon class="fil3" points="3262,262 3726,328 3418,118 3402,186 3289,206 "/>
   <polygon class="fil4" points="3726,328 3340,129 2961,110 "/>
   <polygon class="fil4" points="3418,118 3726,328 3488,0 "/>
   <path class="fil5" d="M5860 1179l-117 84 -117 -83c26,-37 69,-61 117,-61 48,0 91,24 117,60z"/>
   <path class="fil5" d="M5743 914c-117,0 -221,58 -284,148l74 52c47,-66 124,-109 210,-109 86,0 162,42 209,107l74 -53c-63,-88 -167,-145 -283,-145z"/>
   <path class="fil5" d="M5743 526c-249,0 -468,124 -602,312l74 52c117,-165 310,-274 527,-274 216,0 407,107 525,270l74 -53c-133,-186 -352,-308 -598,-308z"/>
   <path class="fil5" d="M5743 739c-177,0 -334,87 -429,222l74 52c79,-111 209,-183 355,-183 145,0 274,71 353,180l74 -53c-96,-132 -251,-218 -427,-218z"/>
   <path class="fil6" d="M2171 1045c-24,24 -51,46 -80,64 -70,-51 -145,-95 -223,-131 11,-20 21,-41 32,-62 72,9 140,15 203,17 16,0 32,0 48,0 40,0 76,-3 106,-7 -21,44 -50,84 -85,120zm-445 109c33,-17 65,-56 91,-93 13,-19 26,-39 39,-62 74,34 145,75 212,123 -110,59 -234,66 -342,31zm-276 -256c34,1 97,7 177,25 6,1 11,3 17,4 -4,24 -7,47 -9,69 -4,41 -4,88 8,122 -35,-20 -67,-44 -95,-73 -43,-43 -76,-93 -97,-147zm206 -27c-2,11 -5,21 -7,32 -5,-1 -11,-3 -16,-4 -91,-21 -160,-25 -192,-26 -8,-24 -14,-48 -17,-73 62,24 132,47 232,71zm-282 -116c-84,-41 -123,-81 -106,-109 14,-23 65,-38 142,-44 -16,53 -21,108 -18,162 -6,-3 -13,-6 -19,-9zm92 -220l0 0c54,68 135,138 228,198 -13,40 -25,80 -34,118 -78,-19 -168,-45 -239,-76 -6,-59 1,-119 18,-176 7,-22 16,-45 26,-65zm-37 -188c14,-23 46,-34 91,-34 22,0 46,3 73,8 10,2 21,5 31,7l0 0c-64,37 -121,91 -163,158l0 0c-40,-59 -52,-109 -33,-139zm431 -55c31,0 61,3 90,9 -35,15 -70,57 -97,96 -27,39 -55,88 -81,142 -70,-38 -136,-96 -168,-165 74,-52 162,-81 255,-81zm312 129c57,57 95,126 114,198 -102,7 -195,5 -278,-7 13,-54 22,-105 26,-150 4,-50 4,-108 -16,-141 58,22 110,56 154,100zm-194 211c-11,43 -25,88 -42,133 -6,17 -13,35 -20,51 -62,-23 -127,-55 -191,-95 3,-10 7,-19 10,-29 15,-42 32,-82 49,-120 61,29 126,48 193,60zm5 -311c14,5 20,24 24,40 5,24 6,59 3,99 -4,44 -13,94 -26,148 -65,-11 -129,-30 -189,-58 25,-53 52,-100 79,-139 23,-33 46,-59 66,-74 10,-8 24,-17 36,-17 3,0 5,0 7,1zm-398 67c35,73 104,132 177,172 -18,39 -35,80 -50,123 -3,8 -6,16 -8,24 -93,-61 -172,-130 -224,-197l0 0c27,-47 63,-88 105,-122zm156 480c-19,-4 -37,-8 -55,-12 9,-36 19,-73 31,-110 64,39 129,71 190,94 -8,18 -16,36 -24,54 -47,-7 -94,-15 -142,-25zm105 98c-56,-24 -113,-44 -172,-59 2,-11 4,-21 7,-32 16,4 33,7 49,11 49,10 97,18 144,25 -9,19 -19,38 -29,56zm-158 169c-14,-5 -20,-24 -24,-40 -5,-24 -6,-59 -3,-99 2,-20 5,-42 8,-65 55,15 110,34 164,57 -12,21 -24,40 -36,57 -23,33 -46,59 -66,74 -12,10 -30,20 -44,15zm579 -232c-32,6 -71,9 -118,9 -72,1 -154,-5 -241,-16 7,-16 14,-32 21,-49 27,9 53,16 78,21 29,6 55,9 78,9 55,0 94,-16 113,-46 3,-5 6,-10 8,-16l-28 0c0,1 -1,2 -1,2 -14,23 -46,35 -91,34 -22,0 -46,-3 -73,-8 -23,-5 -48,-11 -73,-20 7,-17 13,-34 19,-51 17,-47 31,-93 43,-138 95,14 194,14 290,7 6,29 9,59 9,90 0,59 -12,117 -34,171zm112 -77l-36 -1c12,15 14,29 7,41 -7,12 -25,22 -50,29 20,-52 29,-107 29,-164 0,-122 -47,-242 -137,-331 -87,-87 -204,-137 -331,-137 -71,0 -140,16 -203,46l0 0c-20,-6 -40,-11 -59,-15 -95,-19 -163,-6 -191,38 -26,42 -12,104 40,177l0 0c-12,21 -23,47 -31,71 -98,6 -150,23 -169,54 -22,36 8,85 105,132 13,7 28,13 43,19 12,102 58,200 134,276 43,43 93,77 149,100 171,72 374,38 513,-100 42,-42 75,-91 98,-144 48,-10 79,-25 91,-46 9,-14 8,-30 -2,-46z"/>
   <path class="fil7" d="M2679 1904l-191 2275c0,0 -20,138 83,138 169,0 840,0 840,0 0,0 -127,-29 -125,-93 2,-76 224,-2342 224,-2342l-829 22z"/>
   <path class="fil8" d="M3464 4276c-33,0 -674,2 -838,0 -72,-1 -84,-64 -85,-104 0,-19 2,-34 2,-34l5 -59 13 -151 11 -133 14 -171 12 -144 136 -1617 829 -21c0,0 -93,948 -160,1638 -7,77 -14,151 -21,219 -2,22 -4,43 -6,64 -6,65 -12,125 -17,178 -3,28 -5,54 -7,78 -8,93 -13,152 -13,164 0,7 1,13 2,18 14,73 110,75 122,75z"/>
   <polygon class="fil8" points="665,665 1131,2538 1195,2794 1412,3666 5445,3666 4645,665 "/>
   <polygon class="fil8" points="665,665 601,687 1326,3731 1412,3666 "/>
   <polygon class="fil7" points="1326,3731 5335,3731 5445,3666 1412,3666 "/>
   <polygon class="fil8" points="2734,4318 3602,4318 3602,4277 2734,4277 "/>
   <polygon class="fil9" points="5250,3113 4596,705 659,705 659,665 4645,665 5297,3108 "/>
   <polygon class="fil7" points="3381,3731 3377,3763 2561,3928 2572,3794 2577,3731 "/>
   <path class="fil7" d="M3021 4277l-195 0c-86,0 -159,0 -201,-1 -72,-1 -84,-64 -85,-104l0 0 812 -153c-8,93 -13,152 -13,164 0,0 0,0 0,1 0,6 1,12 2,18 14,73 110,75 122,75 -19,0 -231,1 -442,1z"/>
   <path class="fil10" d="M2917 4277c-31,0 -62,0 -91,0l0 0 195 0c-35,0 -70,0 -104,0z"/>
   <polygon class="fil7" points="1412,3666 1412,3666 1195,2794 3184,3059 "/>
   <polygon class="fil11" points="665,665 4645,665 5291,3077 1245,3077 "/>
   <path class="fil7" d="M3536 3382c-11,-59 -69,-107 -128,-107 -59,0 -98,48 -86,107 11,59 69,107 128,107 59,0 98,-48 86,-107z"/>
   <polygon class="fil0" points="5103,2972 1377,2972 955,1291 923,1162 895,1052 873,964 830,795 4503,795 4505,804 4550,964 4574,1052 4604,1162 4640,1291 "/>
   <polygon class="fil0" points="5103,2978 1377,2978 955,1297 923,1168 895,1058 873,970 830,800 4503,800 4505,810 4550,970 4574,1058 4604,1168 4640,1297 "/>
   <polygon class="fil12" points="4550,964 873,964 830,795 4502,795 4505,804 "/>
   <path class="fil0" d="M932 880c-4,-18 6,-32 24,-32 18,0 36,14 40,32 4,18 -6,32 -24,32 -18,0 -36,-14 -40,-32z"/>
   <path class="fil0" d="M1039 880c-4,-18 6,-32 24,-32 18,0 36,14 40,32 4,18 -6,32 -24,32 -18,0 -36,-14 -40,-32z"/>
   <path class="fil0" d="M1155 880c-4,-18 6,-32 24,-32 18,0 36,14 40,32 4,18 -6,32 -24,32 -18,0 -36,-14 -40,-32z"/>
   <path class="fil13" d="M2538 2978l-368 0c-4,-29 -7,-59 -9,-91 -5,-57 -9,-118 -12,-182 -1,-15 -1,-30 -2,-44 -1,-19 -1,-38 -2,-58 -1,-33 -2,-66 -2,-99l0 0c-1,-43 -1,-85 -1,-128l0 0c0,-11 0,-21 0,-32l0 0c0,-10 0,-20 0,-30 0,-92 2,-182 4,-266 4,-185 11,-340 15,-414l0 0c1,-31 2,-47 2,-47l0 0c1,0 6,1 15,3 6,2 15,4 24,7l0 0c8,3 18,6 27,9l0 0c17,6 34,15 51,25l1 0c28,17 52,40 64,70 10,25 33,162 60,343 1,5 2,10 2,16 15,96 30,204 46,315 17,117 33,236 49,347 13,95 25,183 36,258z"/>
   <path class="fil14" d="M2435 2978l-429 0c-8,-35 -16,-69 -23,-102 -19,-88 -31,-161 -31,-199 0,-18 7,-32 19,-43 8,-8 18,-13 31,-18 36,-14 88,-16 143,-13 18,1 37,3 56,5 102,12 197,38 197,38 0,0 6,26 14,70 6,34 12,78 17,130 3,30 5,64 6,99 0,11 1,22 1,33z"/>
   <path class="fil15" d="M2236 2678l-4 31 -21 150 -4 26 -13 93 -447 0c-3,-62 -7,-122 -7,-174 0,-6 0,-11 0,-17 0,-79 7,-137 30,-152 26,-17 111,-12 201,-1 9,1 18,2 27,3 53,7 106,16 148,23 22,4 41,8 56,10 21,4 34,7 34,7z"/>
   <path class="fil5" d="M1741 1663c0,0 246,-159 422,-78 28,13 60,49 83,74 64,70 188,1184 188,1184 0,0 -353,120 -693,-41l0 -1141z"/>
   <path class="fil13" d="M2176 1582c0,0 249,102 282,180 34,78 143,559 143,615 0,56 -191,13 -221,-78 -25,-75 -111,-307 -157,-454l-47 -263z"/>
   <path class="fil16" d="M2125 1659c-54,11 -134,-1 -192,-39 26,-63 37,-113 41,-145 0,-2 0,-3 1,-5 2,-17 1,-28 1,-33l140 0c0,0 38,18 38,30 0,6 0,13 0,19 0,16 1,30 2,42 3,39 7,58 7,58 0,0 17,63 -38,74z"/>
   <path class="fil17" d="M2155 1528c-106,21 -168,-38 -182,-52 -2,-2 -3,-3 -3,-3 1,-1 2,-1 4,-2 40,-16 129,-3 179,15 0,16 1,30 2,42z"/>
   <path class="fil16" d="M1939 1414c19,102 151,99 208,92 16,-2 26,-4 26,-4 18,-5 28,-33 33,-71 9,-74 -2,-182 -15,-210 -19,-42 -54,-87 -187,-54 -133,33 -89,115 -65,246z"/>
   <path class="fil13" d="M2196 1165c-18,-25 -57,-56 -92,-75 -75,-41 -171,1 -172,1 -109,48 -137,131 -79,260 61,137 119,121 119,121 0,0 -12,-8 -11,-50 0,-2 0,-4 0,-6 1,-9 -3,-17 -9,-23 -13,-12 -20,-48 -9,-59 14,-12 33,3 39,14 5,8 15,11 24,5 34,-21 12,-64 44,-90 32,-26 98,-4 146,-25 63,-24 13,-55 0,-74z"/>
   <path class="fil13" d="M2213 2978l-535 0c4,-111 9,-243 14,-377 1,-35 3,-70 4,-104 1,-15 1,-29 2,-44 12,-298 24,-566 26,-581 6,-33 11,-61 17,-85 17,-70 38,-109 83,-142 4,-3 41,-22 73,-38 26,-13 50,-24 50,-25l0 0 0 0c5,3 11,10 17,21 6,11 13,25 19,43 24,63 51,159 69,231l0 0 0 0c12,46 20,82 23,93 4,17 9,51 16,97l0 0c9,62 19,147 30,243l0 0c1,10 2,20 3,30 1,12 3,23 4,35l0 0c0,4 1,8 1,11l0 0c4,38 8,77 13,117l0 0c4,33 54,57 57,90 0,2 1,7 1,14 1,14 1,37 2,63 0,12 1,24 1,36 2,56 4,117 7,146 0,1 0,3 0,5 0,6 1,15 1,25 0,23 1,56 1,94z"/>
   <path class="fil14" d="M1848 1992c0,1 -9,301 217,337 226,36 76,46 76,46 0,0 -425,-18 -432,-29 -7,-11 139,-354 139,-354z"/>
   <path class="fil14" d="M2039 2458c0,0 -4,3 -12,8l0 0c-34,22 -137,82 -286,122 -16,4 -32,8 -48,12 1,-35 3,-70 4,-104 -20,-2 -38,-4 -56,-8 1,-5 1,-9 2,-14 19,-8 38,-15 56,-22 15,-6 29,-11 43,-16 61,-23 107,-39 107,-39l181 57 11 3z"/>
   <path class="fil13" d="M2087 2453c0,0 -23,6 -60,13l0 0c-68,14 -183,33 -286,32 -15,0 -30,-1 -44,-2 -20,-2 -38,-4 -56,-8 -38,-8 -69,-21 -89,-42 -153,-155 83,-713 133,-767 58,-63 164,-86 222,-93 2,0 5,-1 7,-1 21,-2 34,-3 34,-3l0 0c0,0 -5,15 -12,40 -3,10 -6,21 -10,33 -36,117 -105,348 -135,478 -11,48 -17,82 -14,92 12,44 135,67 213,77 33,4 57,6 63,7 0,0 1,0 1,0l5 19 11 44 11 44 9 37z"/>
   <polygon class="fil18" points="2513,2721 1989,2699 2095,2046 2619,2068 "/>
   <path class="fil16" d="M2052 2309c0,0 102,-7 107,17 12,55 -88,101 -120,98 -32,-3 -11,-118 13,-114z"/>
   <path class="fil16" d="M2590 2200c0,0 -98,-31 -108,-9 -24,51 62,118 94,123 32,4 38,-113 14,-114z"/>
   <path class="fil14" d="M1958 1549c0,0 -43,20 -64,51 0,0 160,278 160,276 -1,-3 -54,-292 -95,-327z"/>
   <path class="fil14" d="M2157 1553c14,5 41,33 47,48l19 243c0,0 -41,-178 -61,-259 -5,-20 -4,-27 -5,-32z"/>
   <path class="fil15" d="M2269 2053c0,0 4,-18 28,-16 24,2 158,9 158,9 0,0 26,0 23,16l-209 -9z"/>
   <path class="fil5" d="M2115 1437c0,0 17,16 45,11 17,-3 26,-25 26,-25 0,0 -32,-6 -71,14z"/>
   <polygon class="fil5" points="4598,1641 4211,1642 4085,1162 4472,1160 "/>
   <polygon class="fil6" points="4376,1223 4214,1224 4212,1217 4374,1216 "/>
   <polygon class="fil6" points="4402,1243 4198,1244 4196,1237 4400,1236 "/>
   <polygon class="fil6" points="4458,1341 4193,1342 4192,1335 4456,1334 "/>
   <polygon class="fil6" points="4464,1364 4199,1365 4198,1358 4462,1357 "/>
   <polygon class="fil6" points="4470,1388 4206,1389 4204,1382 4468,1381 "/>
   <polygon class="fil6" points="4476,1411 4212,1412 4210,1405 4475,1404 "/>
   <polygon class="fil6" points="4483,1434 4218,1435 4216,1428 4481,1427 "/>
   <polygon class="fil6" points="4497,1492 4233,1493 4231,1485 4496,1484 "/>
   <polygon class="fil6" points="4503,1515 4239,1516 4237,1509 4502,1508 "/>
   <polygon class="fil6" points="4510,1538 4245,1539 4243,1532 4508,1531 "/>
   <polygon class="fil6" points="4516,1562 4251,1563 4249,1556 4514,1555 "/>
   <polygon class="fil6" points="4522,1585 4257,1586 4255,1579 4520,1578 "/>
   <polygon class="fil5" points="4754,2238 4367,2239 4241,1759 4628,1757 "/>
   <polygon class="fil6" points="4532,1820 4370,1821 4368,1814 4530,1813 "/>
   <polygon class="fil6" points="4558,1840 4354,1841 4352,1834 4556,1833 "/>
   <polygon class="fil6" points="4614,1938 4349,1939 4347,1932 4612,1931 "/>
   <polygon class="fil6" points="4620,1961 4355,1962 4354,1955 4618,1954 "/>
   <polygon class="fil6" points="4626,1985 4362,1986 4360,1979 4624,1978 "/>
   <polygon class="fil6" points="4632,2008 4368,2009 4366,2002 4630,2001 "/>
   <polygon class="fil6" points="4638,2032 4374,2033 4372,2025 4637,2024 "/>
   <polygon class="fil6" points="4653,2089 4389,2090 4387,2082 4651,2081 "/>
   <polygon class="fil6" points="4659,2112 4395,2113 4393,2106 4658,2105 "/>
   <polygon class="fil6" points="4666,2135 4401,2136 4399,2129 4664,2128 "/>
   <polygon class="fil6" points="4672,2159 4407,2160 4405,2153 4670,2152 "/>
   <polygon class="fil6" points="4678,2182 4413,2183 4411,2176 4676,2175 "/>
   <polygon class="fil5" points="4911,2839 4524,2840 4398,2360 4785,2358 "/>
   <polygon class="fil6" points="4689,2421 4527,2422 4525,2415 4687,2414 "/>
   <polygon class="fil6" points="4715,2441 4511,2442 4509,2435 4713,2434 "/>
   <polygon class="fil6" points="4771,2539 4506,2540 4504,2533 4769,2532 "/>
   <polygon class="fil6" points="4777,2562 4512,2563 4511,2556 4775,2555 "/>
   <polygon class="fil6" points="4783,2586 4519,2587 4517,2580 4781,2579 "/>
   <polygon class="fil6" points="4789,2609 4525,2610 4523,2603 4787,2602 "/>
   <polygon class="fil6" points="4795,2633 4531,2634 4529,2626 4794,2626 "/>
   <polygon class="fil6" points="4810,2690 4546,2691 4544,2684 4808,2683 "/>
   <polygon class="fil6" points="4816,2713 4552,2714 4550,2707 4815,2706 "/>
   <polygon class="fil6" points="4823,2736 4558,2737 4556,2730 4821,2729 "/>
   <polygon class="fil6" points="4829,2760 4564,2761 4562,2754 4827,2753 "/>
   <polygon class="fil6" points="4835,2783 4570,2784 4568,2777 4833,2776 "/>
   <polygon class="fil5" points="4402,2843 3048,2848 2658,1356 2835,1166 3963,1162 "/>
   <polygon class="fil6" points="3628,1580 3151,1582 3145,1561 3622,1559 "/>
   <polygon class="fil6" points="3774,1525 3175,1527 3169,1506 3768,1504 "/>
   <polygon class="fil6" points="3831,1760 3053,1763 3047,1742 3825,1739 "/>
   <polygon class="fil6" points="3849,1829 3071,1832 3065,1811 3843,1808 "/>
   <polygon class="fil6" points="3867,1898 3089,1900 3083,1880 3861,1877 "/>
   <polygon class="fil6" points="3885,1966 3107,1969 3101,1948 3879,1946 "/>
   <polygon class="fil6" points="3903,2035 3125,2038 3119,2017 3897,2014 "/>
   <polygon class="fil6" points="3946,2203 3168,2206 3163,2185 3941,2182 "/>
   <polygon class="fil6" points="3964,2272 3186,2275 3181,2254 3959,2251 "/>
   <polygon class="fil6" points="3982,2341 3204,2344 3199,2323 3977,2320 "/>
   <polygon class="fil6" points="4000,2410 3222,2412 3217,2391 3995,2389 "/>
   <polygon class="fil6" points="4018,2478 3240,2481 3235,2460 4013,2458 "/>
   <polygon class="fil6" points="2658,1356 2884,1355 2835,1166 "/>
   <path class="fil12" d="M677 2908l-14 9c-15,10 -35,6 -45,-8l-79 -114c-10,-15 -6,-35 8,-45l20 -14c3,-2 7,-1 9,2 2,3 1,7 -2,9l-20 14c-9,6 -11,18 -5,27l79 114c6,9 18,11 27,5l14 -9c9,-6 11,-18 5,-27l-53 -76c-2,-3 -1,-7 2,-9 3,-2 7,-1 9,2l53 76c10,15 6,35 -8,45z"/>
   <path class="fil12" d="M764 3021l-24 17c-23,16 -55,9 -72,-16l-119 -172c-2,-3 -1,-7 2,-9 3,-2 7,-1 9,2l119 172c13,19 37,24 54,12l24 -17c17,-12 20,-36 7,-55l-136 -196c-13,-19 -37,-24 -54,-12 -3,2 -7,1 -9,-2 -2,-3 -1,-7 2,-9 23,-16 55,-9 72,16l136 196c17,24 12,57 -11,73z"/>
   <path class="fil12" d="M927 3918l3 24c3,26 -15,49 -41,53l-203 25c-26,3 -49,-15 -53,-41l-4 -35c-1,-5 3,-10 8,-10 5,-1 10,3 10,8l4 35c2,16 16,27 32,25l203 -25c16,-2 27,-16 25,-32l-3 -24c-2,-16 -16,-27 -32,-25l-135 16c-5,1 -10,-3 -10,-8 -1,-5 3,-10 8,-10l135 -16c26,-3 49,15 53,41z"/>
   <path class="fil12" d="M1134 3883l5 43c5,40 -26,77 -69,83l-305 37c-5,1 -10,-3 -10,-8 -1,-5 3,-10 8,-10l305 -37c33,-4 57,-32 53,-62l-5 -43c-4,-30 -34,-51 -67,-47l-348 42c-33,4 -57,32 -53,62 1,5 -3,10 -8,10 -5,1 -10,-3 -10,-8 -5,-40 26,-77 69,-83l348 -42c43,-5 82,23 87,64z"/>
   <path class="fil18" d="M4388 1045c0,-16 13,-28 28,-28 16,0 28,13 28,28 0,16 -13,28 -28,28 -16,0 -28,-13 -28,-28z"/>
   <path class="fil19" d="M8217 4334l-8206 0c-6,0 -11,-5 -11,-11 0,-6 5,-11 11,-11l8206 0c6,0 11,5 11,11 0,6 -5,11 -11,11z"/>
   <g>
    <path class="fil20" d="M6024 4264l0 0c12,0 20,-11 18,-22l-328 -1377 -72 0 365 1386c2,8 9,14 18,14z"/>
    <g>
     <path class="fil14" d="M6020 3118c70,122 158,168 158,168l365 0c0,0 -576,-261 -523,-168z"/>
     <path class="fil16" d="M6301 4059c10,11 11,23 6,36l0 0c-9,24 -37,51 -71,78 -4,3 -8,7 -11,10 -1,1 -2,2 -3,2 -1,1 -1,1 -2,2 -31,29 -19,35 -75,94 -64,66 -108,68 -120,62 -11,-5 11,-40 35,-80 1,-2 2,-4 3,-6 3,-5 6,-11 10,-16 28,-48 21,-70 14,-141 -5,-58 -90,-322 -90,-322l122 -21c0,0 37,211 77,243 22,17 46,17 67,30 1,1 3,2 4,3 12,8 24,16 33,27z"/>
     <path class="fil14" d="M6301 4059c10,11 11,23 6,36l0 0c-11,24 -39,51 -71,78 -4,4 -8,7 -11,10 -1,1 -2,2 -3,2 -1,1 -1,1 -2,2 -31,29 -19,35 -75,94 -64,66 -108,68 -120,62 -11,-5 11,-40 35,-80 12,-5 70,-28 114,-84 38,-49 64,-112 90,-149 1,1 3,2 4,3 12,8 24,16 33,27z"/>
     <path class="fil16" d="M5313 3982c-8,38 -61,31 -122,17 -60,-15 -46,3 -132,-7 -86,-9 -112,-41 -114,-54 -2,-11 40,-15 85,-21 6,-1 11,-1 17,-2 51,-6 89,-40 135,-67 44,-26 110,-131 110,-131l117 9c0,0 -62,94 -86,134 -14,24 -13,56 -12,80 1,13 2,27 -1,40z"/>
     <path class="fil14" d="M5192 3999c-60,-15 -46,3 -132,-7 -86,-9 -112,-41 -114,-54 -2,-11 40,-15 85,-21l0 1c0,0 51,36 123,38 58,1 120,-15 160,-15 1,13 2,27 -1,40 -8,38 -61,31 -122,17z"/>
     <path class="fil14" d="M5764 3231l110 295 143 386c0,0 39,4 76,-7 34,-10 74,-36 74,-36 0,0 -40,-414 -114,-652 -19,-61 -40,-110 -64,-138 -115,-136 -225,152 -225,152z"/>
     <path class="fil13" d="M5875 2762c72,-23 277,7 483,47l43 -71 445 -35c0,0 147,326 66,533 -12,31 -35,50 -75,51l-7 0c0,0 -265,0 -351,0 -221,0 -469,-152 -500,-159 -52,-10 -73,94 -126,204 -52,110 -492,487 -492,487 0,0 -68,1 -95,-10 -30,-11 -41,-26 -41,-26 0,0 487,-969 649,-1021z"/>
     <path class="fil13" d="M6404 2125c159,87 480,268 482,267 0,0 118,45 185,0 112,-74 172,-274 -33,-446 -102,-86 -174,-107 -185,-243 -6,-74 -107,-319 -276,-297 -14,2 -101,6 -158,36 -145,76 -253,649 -15,683z"/>
     <path class="fil16" d="M6537 2050c-1,0 78,27 131,4 49,-22 87,-103 86,-103 -23,-1 -47,-21 -66,-150l-10 3 -161 58c0,0 12,52 19,101 6,41 10,81 1,87z"/>
     <path class="fil21" d="M6517 1862c0,0 12,52 19,101 93,-17 129,-109 142,-159l-161 58z"/>
     <path class="fil16" d="M6493 1914c0,0 221,-30 200,-167 -21,-137 -6,-233 -148,-220 -142,13 -161,69 -165,117 -4,47 55,274 113,270z"/>
     <path class="fil13" d="M6388 1569c0,0 141,122 237,132 96,10 132,-21 132,-21 0,0 -57,-47 -91,-123 -10,-22 -31,-38 -56,-40 -69,-6 -199,-9 -223,52z"/>
     <path class="fil13" d="M6476 1558c0,0 -47,46 -62,80 -14,33 -19,111 -7,142 0,0 -74,-143 -32,-213 44,-74 101,-9 101,-9z"/>
     <path class="fil5" d="M6351 2375c7,447 2,353 51,396 12,10 45,16 88,19 137,9 378,-13 387,-39 32,-88 9,-115 36,-249 3,-14 6,-30 10,-46 22,-92 43,-123 -35,-271 -71,-134 -144,-243 -151,-239 -186,111 -202,18 -202,18 0,0 -188,194 -185,412z"/>
     <path class="fil13" d="M5873 3527l143 386c0,0 39,4 76,-7 34,-10 74,-36 74,-36 0,0 -40,-414 -114,-652l-179 309z"/>
     <path class="fil5" d="M6536 1963c0,0 -192,33 -214,115 -23,83 -155,568 -155,568 0,0 98,18 143,-28 45,-45 157,-418 157,-418l70 -238z"/>
     <path class="fil22" d="M6490 2790c137,9 378,-13 387,-39 32,-88 9,-115 36,-249l-66 -186c0,0 11,207 -50,262 -61,54 -250,105 -280,151 -14,22 -24,44 -26,61z"/>
     <path class="fil16" d="M6647 2703c0,0 -135,-30 -157,-18 -22,12 -75,56 -82,71 -7,15 49,-12 66,-16 12,-3 42,8 57,13 64,21 103,10 103,10l12 -59z"/>
     <path class="fil5" d="M6738 1946c0,0 181,11 244,99 88,123 264,649 163,719 -113,79 -515,21 -515,21 0,0 -13,-63 5,-93 19,-30 321,-79 335,-93 14,-14 -174,-272 -174,-314 0,-42 -58,-338 -58,-338z"/>
     <path class="fil16" d="M6484 2722c0,0 -28,37 -38,41 -9,4 -15,3 -15,3l19 -34 34 -10z"/>
     <path class="fil16" d="M6490 2685l-82 40c0,0 4,6 14,5 10,0 36,-10 36,-10l33 -35z"/>
     <polygon class="fil18" points="6446,2819 5795,2819 5599,2332 6249,2332 "/>
     <polygon class="fil23" points="5788,2800 6647,2800 6647,2819 5795,2819 "/>
     <path class="fil5" d="M5960 2576c-5,-17 5,-31 22,-31 17,0 35,14 40,31 5,17 -5,31 -22,31 -17,0 -35,-14 -40,-31z"/>
    </g>
    <g>
     <path class="fil24" d="M6665 4005l-56 0 -144 0 -56 0c-90,0 -163,73 -163,163 0,11 9,20 20,20 11,0 20,-9 20,-20 0,-68 55,-123 123,-123l14 0c-34,30 -56,74 -56,123 0,11 9,20 20,20 11,0 20,-9 20,-20 0,-68 55,-123 123,-123l16 0c68,0 123,55 123,123 0,11 9,20 20,20 11,0 20,-9 20,-20 0,-49 -22,-93 -56,-123l14 0c68,0 123,55 123,123 0,11 9,20 20,20 11,0 20,-9 20,-20 0,-90 -73,-163 -163,-163z"/>
     <g>
      <polygon class="fil24" points="6572,4061 6502,4061 6502,3348 6572,3348 "/>
      <path class="fil25" d="M6846 3377l-618 0c-26,0 -46,-21 -46,-46 0,-26 21,-46 46,-46l618 0c26,0 46,21 46,46 0,26 -21,46 -46,46z"/>
     </g>
    </g>
    <path class="fil20" d="M7276 2882l-2141 0c-17,0 -32,-14 -32,-32 0,-17 14,-32 32,-32l2141 0c17,0 32,14 32,32 0,17 -14,32 -32,32z"/>
    <path class="fil20" d="M4968 4264l0 0c-12,0 -20,-11 -18,-22l328 -1377 72 0 -365 1386c-2,8 -9,14 -18,14z"/>
    <path class="fil20" d="M7501 4264l0 0c12,0 20,-11 18,-22l-328 -1377 -72 0 365 1386c2,8 9,14 18,14z"/>
    <path class="fil20" d="M6446 4264l0 0c-12,0 -20,-11 -18,-22l328 -1377 72 0 -365 1386c-2,8 -9,14 -18,14z"/>
    <g>
     <g>
      <path class="fil5" d="M5413 2760l-207 0 0 -76 208 0c21,0 37,17 37,37 0,21 -17,38 -38,38z"/>
      <path class="fil26" d="M5635 2715l0 11c0,6 -2,12 -5,17 -6,10 -16,17 -29,17l-402 0c-3,0 -5,-2 -5,-5l0 -2c0,-3 2,-5 5,-5l245 0c1,-2 2,-3 3,-5 2,-4 4,-9 4,-15l0 -15c0,-3 0,-5 -1,-8 -1,-4 -3,-8 -6,-11l-246 0c-3,0 -5,-2 -5,-5l0 -2c0,-3 2,-5 5,-5l404 0c14,0 26,10 30,23 1,3 1,6 1,9z"/>
      <path class="fil27" d="M5634 2707l-183 0c-1,-4 -3,-8 -6,-11l-246 0c-3,0 -5,-2 -5,-5l0 -2c0,-3 2,-5 5,-5l404 0c14,0 26,10 30,23z"/>
      <polygon class="fil28" points="5206,2722 5235,2723 5206,2724 "/>
      <polygon class="fil28" points="5206,2734 5277,2735 5206,2736 "/>
     </g>
     <g>
      <g>
       <path class="fil13" d="M5257 2819l229 0 0 -59 -230 0c-16,0 -29,13 -29,29 0,17 14,30 30,30z"/>
       <path class="fil5" d="M5473 2819l260 0 0 -59 -261 0c-16,0 -29,13 -29,29 0,16 13,30 30,30z"/>
       <path class="fil13" d="M5425 2819l316 0c2,0 4,-2 4,-4 0,-2 -2,-4 -4,-4l-316 0c-2,0 -4,2 -4,4 0,2 2,4 4,4z"/>
       <path class="fil13" d="M5425 2769l316 0c2,0 4,-2 4,-4 0,-2 -2,-4 -4,-4l-316 0c-2,0 -4,2 -4,4 0,2 2,4 4,4z"/>
       <polygon class="fil28" points="5733,2789 5697,2790 5733,2791 "/>
       <polygon class="fil28" points="5733,2776 5649,2777 5733,2777 "/>
       <path class="fil26" d="M5650 2776c0,0 4,3 5,7 0,1 0,2 0,2 0,6 0,18 0,18l11 -6 11 6 0 -17c0,-3 -1,-6 -3,-8 -1,-1 -2,-2 -3,-2l-21 0z"/>
      </g>
      <path class="fil29" d="M5650 2776c0,0 4,3 5,7l21 0c0,0 -1,-6 -5,-7l-21 0z"/>
     </g>
     <g>
      <path class="fil5" d="M5455 2684l224 0 0 -87 -225 0c-24,0 -43,19 -43,43 0,24 20,44 44,44z"/>
      <path class="fil30" d="M5417 2631l0 19c0,8 4,15 11,19 3,2 7,3 11,3l254 0c3,0 5,2 5,5l0 2c0,3 -2,5 -5,5l-438 0c-13,0 -24,-6 -30,-16 -4,-6 -7,-13 -7,-21l0 -15c0,-5 1,-11 3,-15 6,-12 18,-20 31,-20l440 0c3,0 5,2 5,5l0 2c0,3 -2,5 -5,5l-254 0c-6,0 -12,3 -15,7 -3,4 -6,9 -6,14z"/>
      <polygon class="fil28" points="5679,2641 5647,2642 5679,2643 "/>
      <polygon class="fil28" points="5679,2621 5602,2622 5679,2623 "/>
      <path class="fil18" d="M5603 2622c0,0 5,3 7,7 0,1 0,2 1,3 0,6 0,20 0,20l15 -7 15 7 0 -18c0,-3 -1,-7 -4,-9 -1,-1 -3,-2 -4,-2l-30 0z"/>
      <path class="fil23" d="M5603 2622c0,0 5,3 7,7l30 0c0,0 -1,-6 -7,-8l-30 0z"/>
     </g>
    </g>
   </g>
   <g>
    <g>
     <polygon class="fil31" points="3186,1327 3937,1327 3962,1412 3212,1412 "/>
     <path class="fil32" d="M3214 1243l10 33 0 1c1,2 1,4 1,7 0,0 0,0 0,1 0,0 0,0 0,0 0,0 0,0 0,0 0,0 0,0 0,1l0 0c0,0 0,1 0,1 0,0 0,0 0,0l0 1c0,0 0,0 0,0 0,0 0,0 0,0l0 0 0 1 0 1 0 0 0 0 -1 1 0 0 0 0 -1 1 0 1 -1 1 0 0 -1 1 -1 0 -1 0 -1 0 -1 0 0 0 0 0 -1 0 -1 0 0 0 -1 0 -1 0c0,0 0,0 0,0l-1 0c0,0 0,0 0,0 -2,1 -4,1 -6,1 -2,0 -5,0 -7,-1 0,0 0,0 0,0l-1 0c0,0 -1,0 -1,0l-1 0 0 0 0 0 -1 0 -1 -1 0 0 -1 0 -1 -1 0 0 -1 0 -1 0 0 0 0 0 -1 -1 -1 -1 0 0 0 0 -1 -1 -1 -1 0 0 0 0 -1 -1 -1 -1 -1 -1 -1 -1 -1 -1 0 0 0 0 -1 -1c0,0 0,0 0,-1l0 0c0,0 -1,-1 -1,-1l0 0c0,0 0,0 0,-1 0,0 0,0 0,0 0,0 0,0 0,0l0 -1c-1,-2 -2,-4 -3,-7l-10 -34 14 0 10 33 0 1 0 0c1,2 2,4 4,6l0 0 0 0 0 0 0 0 0 0 0 0 1 1 0 0 0 0 0 0 0 0 0 0 1 0 0 0 1 0 0 0 0 0 0 0 0 0 0 0c0,0 0,0 0,0 0,0 0,0 0,0 1,0 2,0 3,0 1,0 2,0 3,0 0,0 0,0 0,0 0,0 0,0 0,0l0 0 0 0 0 0 0 0 0 0 0 0 0 0 0 0 1 0 0 0 0 0 0 0 0 0 0 0 0 0 0 -1 0 0 0 0 0 0 0 0 0 0 0 0 0 0 0 0 0 0 0 0c1,-2 1,-4 0,-6l-10 -34 14 0zm66 0l19 64 -52 -37 9 32 -14 0 -19 -63 52 37 -10 -32 14 0zm25 0l17 58 -14 0 -17 -58 14 0zm71 0l-13 64 -51 -64 16 0 26 33 7 -33 16 0zm59 0l-4 14 -29 0 2 8 33 0 4 14 -33 0 2 8 33 0 4 14 -46 0 -17 -58 51 0zm60 58l-24 -27 10 0c0,0 0,0 1,0 1,0 1,0 2,0 0,0 0,0 0,0 0,0 1,0 1,0 0,0 1,-1 1,-1 0,0 0,0 0,0 0,0 1,-1 1,-1 0,0 0,-1 1,-1 0,-1 0,-2 0,-3 0,0 0,-1 0,-1 0,0 0,-1 -1,-1 0,-1 -1,-2 -2,-3 -1,-1 -2,-2 -2,-2 -1,-1 -2,-1 -3,-2 -1,0 -2,-1 -3,-1 0,0 0,0 0,0l0 0 -15 0 13 44 -14 0 -17 -58 28 0 0 0 1 0c3,0 5,1 8,2 3,1 5,2 8,4 2,2 5,4 7,6 2,2 3,5 5,7 1,1 1,3 1,4 0,1 1,3 1,4 0,3 0,5 -1,7 -1,2 -2,4 -3,6 0,0 0,0 -1,1 0,0 -1,1 -1,1l15 17 -16 0zm54 -44l-27 0 0 0 0 0c0,0 0,0 0,0 0,0 0,0 0,0 0,0 0,0 0,0 0,0 0,0 0,0 0,0 0,0 0,0 0,0 -1,0 -1,0 0,0 -1,0 -1,1 0,0 0,0 0,1 0,0 0,0 0,0 0,0 0,0 0,0 0,0 0,1 0,1 0,0 0,0 0,0l0 0c0,0 0,0 0,0l0 0 0 0c0,0 0,0 0,1 0,0 0,0 0,0 0,0 0,0 0,0 0,0 1,1 1,1 0,0 1,1 1,1 0,0 1,0 1,1 0,0 1,0 1,0 0,0 0,0 0,0 0,0 0,0 0,0 0,0 0,0 0,0l0 0c0,0 0,0 0,0l16 0 0 0 1 0c0,0 1,0 1,0 0,0 1,0 1,0 3,0 6,2 9,4 3,2 6,4 8,7 1,1 2,3 3,4 1,1 1,3 1,5 0,2 0,3 0,4 0,1 0,3 -1,4 0,1 -1,2 -2,3 0,0 -1,1 -1,1 -1,0 -1,1 -2,1 -1,1 -2,1 -4,2 0,0 -1,0 -1,0 0,0 -1,0 -1,0 0,0 -1,0 -1,0l-1 0 -34 0 -4 -14 34 0 0 0c0,0 0,0 0,0 0,0 0,0 0,0 0,0 0,0 0,0 0,0 1,0 1,0 0,0 0,0 0,0 0,0 0,0 0,0 0,0 0,-1 0,-1 0,0 0,-1 0,-1 0,0 0,-1 0,-1 0,0 0,-1 0,-1 0,0 0,-1 -1,-1 0,-1 -1,-1 -2,-2 0,0 0,0 -1,0 0,0 0,0 0,0 0,0 0,0 0,0 0,0 0,0 0,0 0,0 -1,0 -1,0 0,0 0,0 0,0 0,0 0,0 0,0 0,0 0,0 0,0l0 0 -16 0 0 0c0,0 -1,0 -1,0 0,0 0,0 -1,0l-1 0c-2,0 -3,-1 -5,-1 -2,-1 -3,-1 -5,-2 -1,-1 -3,-2 -4,-3 -3,-2 -5,-5 -6,-8 0,-1 -1,-1 -1,-2 0,0 0,0 0,-1l0 0 0 0 0 0c0,0 0,-1 0,-1 0,-1 -1,-3 0,-4 0,-1 0,-1 0,-2 0,-1 0,-1 1,-2 0,-1 1,-2 2,-3 1,-1 2,-2 3,-3 1,-1 2,-1 4,-2 0,0 1,0 1,0l1 0 1 0c0,0 1,0 1,0 0,0 0,0 1,0l1 0 35 0 -4 14zm44 27l15 0 -12 -15 -3 15zm29 18l-3 -4 -29 0 -1 4 -16 0 13 -64 51 64 -16 0zm66 -14l4 14 -47 0 -17 -58 14 0 13 44 33 0zm30 -45l4 14 -20 0 13 44 -14 0 -13 -44 -20 0 -4 -14 54 0zm60 0l-4 14 -29 0 2 8 33 0 4 14 -33 0 2 8 33 0 4 14 -46 0 -17 -58 51 0zm76 43c0,0 0,1 0,1 0,0 0,1 0,1 0,1 -1,2 -2,4 0,0 0,1 -1,1 0,0 0,0 0,0 0,0 -1,1 -1,1 0,0 -1,1 -1,1 0,0 -1,1 -1,1 -1,1 -3,2 -4,3 -3,2 -7,2 -11,2 -4,0 -8,-1 -12,-2 -4,-2 -8,-4 -12,-7 -4,-3 -7,-6 -9,-10 0,0 -1,-1 -1,-1 0,0 -1,-1 -1,-2 0,0 -1,-1 -1,-1l0 0c0,-1 -1,-1 -1,-2 0,0 0,0 0,0 0,0 0,-1 -1,-1 0,0 0,0 0,0l0 0c0,-1 0,-1 -1,-2 0,-1 0,-1 -1,-2l0 -1 0 -2c0,-1 0,-1 0,-2 0,0 0,0 0,0 0,0 0,-1 0,-2l0 0 0 0c0,-1 0,-1 0,-2l0 0c0,0 0,-1 0,-1l0 -2c0,0 0,-1 0,-1 0,-4 2,-7 4,-10 2,-3 5,-5 8,-7 3,-2 7,-2 11,-2 4,0 8,1 12,2 2,1 4,1 5,2 1,0 1,1 2,1 1,0 1,1 2,1 1,0 1,1 2,1 0,0 1,0 1,1l1 0c1,1 3,2 4,4 0,0 1,1 1,1 0,0 1,1 1,1 0,0 1,1 1,1l-1 1 -1 1 -1 1 -4 2 -1 1 -1 1 -1 1c0,0 -1,-1 -1,-1 0,0 -1,-1 -1,-1 0,0 -1,0 -1,-1l-1 -1c-2,-1 -3,-2 -5,-3l0 0 0 0c-1,0 -1,0 -2,-1 -1,0 -2,0 -3,-1 0,0 -1,0 -1,0 -2,0 -4,0 -6,1l0 0c0,0 0,0 0,0 -2,1 -3,2 -4,4 0,0 0,0 0,0 0,1 -1,2 -1,2 0,1 0,1 -1,2 0,0 0,0 0,0 0,0 0,0 0,1 0,0 0,1 0,2 0,0 0,1 0,2 0,0 0,1 0,1 0,0 0,0 0,0 0,0 0,1 0,1l0 1c0,0 0,1 0,1 0,1 0,1 1,2 0,1 1,1 1,2l0 1c0,0 0,0 0,1 0,1 1,1 1,2 1,1 1,2 2,2 1,1 1,1 2,1 1,0 1,1 2,1 1,1 3,2 5,2 2,1 4,1 5,1 0,0 1,0 1,0 1,0 2,0 3,0 1,0 2,0 3,-1 0,0 1,0 1,0 0,0 1,0 1,-1 1,-1 2,-2 3,-3l0 0c0,0 1,-1 1,-1 0,0 0,-1 1,-1 0,0 0,-1 0,-1l2 1 2 1 2 1 4 2 2 1 2 1 2 1c0,0 0,1 0,1zm49 -43l17 58 -14 0 -7 -22 -25 0 7 22 -14 0 -17 -58 14 0 7 22 25 0 -7 -22 14 0z"/>
     <path class="fil33" d="M3254 1358l-19 0 0 0 0 0c0,0 0,0 0,0 0,0 0,0 0,0 0,0 0,0 0,0 0,0 0,0 0,0 0,0 0,0 0,0 0,0 0,0 -1,0 0,0 0,0 -1,0 0,0 0,0 0,1 0,0 0,0 0,0 0,0 0,0 0,0 0,0 0,0 0,1 0,0 0,0 0,0l0 0c0,0 0,0 0,0l0 0 0 0c0,0 0,0 0,0 0,0 0,0 0,0 0,0 0,0 0,0 0,0 0,0 1,1 0,0 0,0 1,1 0,0 0,0 1,0 0,0 1,0 1,0 0,0 0,0 0,0 0,0 0,0 0,0 0,0 0,0 0,0l0 0c0,0 0,0 0,0l11 0 0 0 0 0c0,0 1,0 1,0 0,0 1,0 1,0 2,0 5,1 7,3 2,1 4,3 5,5 1,1 1,2 2,3 0,1 1,2 1,3 0,1 0,2 0,3 0,1 0,2 -1,3 0,1 -1,2 -1,2 0,0 -1,1 -1,1 0,0 -1,1 -1,1 -1,0 -2,1 -3,1 0,0 0,0 -1,0 0,0 0,0 -1,0 0,0 -1,0 -1,0l0 0 -25 0 -3 -10 25 0 0 0c0,0 0,0 0,0 0,0 0,0 0,0 0,0 0,0 0,0 0,0 0,0 1,0 0,0 0,0 0,0 0,0 0,0 0,0 0,0 0,0 0,-1 0,0 0,0 0,-1 0,0 0,0 0,-1 0,0 0,0 0,-1 0,0 0,0 0,-1 0,0 -1,-1 -1,-1 0,0 0,0 0,0 0,0 0,0 0,0 0,0 0,0 0,0 0,0 0,0 0,0 0,0 -1,0 -1,0 0,0 0,0 0,0 0,0 0,0 0,0 0,0 0,0 0,0l0 0 -12 0 0 0c0,0 -1,0 -1,0 0,0 0,0 0,0l0 0c-1,0 -2,0 -3,-1 -1,0 -2,-1 -3,-2 -1,-1 -2,-1 -3,-2 -2,-2 -3,-4 -4,-6 0,-1 0,-1 -1,-2 0,0 0,0 0,0l0 0 0 0 0 0c0,0 0,-1 0,-1 0,-1 0,-2 0,-3 0,-1 0,-1 0,-2 0,0 0,-1 0,-1 0,-1 1,-2 1,-2 1,-1 1,-1 2,-2 1,-1 2,-1 3,-1 0,0 1,0 1,0l0 0 0 0c0,0 1,0 1,0 0,0 0,0 0,0l0 0 25 0 -3 10zm89 11c0,-2 -1,-3 -2,-5 -1,-1 -2,-3 -4,-4 -1,-1 -3,-2 -5,-3 -2,-1 -3,-1 -5,-1 -2,0 -3,0 -4,1 -1,1 -2,1 -3,3 -1,1 -1,2 -1,4 0,1 0,3 0,5 0,2 1,3 2,5 1,1 2,3 4,4 1,1 3,2 5,3 2,1 3,1 5,1 2,0 3,0 4,-1 1,-1 2,-1 3,-3 1,-1 1,-2 1,-4 0,-1 0,-3 0,-5zm10 0c1,3 1,6 1,8 0,3 -1,5 -3,7 -1,2 -3,4 -6,5 -2,1 -5,2 -8,2 -3,0 -6,-1 -9,-2 -3,-1 -6,-3 -8,-5 -3,-2 -5,-4 -7,-7 -2,-3 -3,-5 -4,-8 -1,-3 -1,-6 -1,-8 0,-3 1,-5 3,-7 1,-2 3,-4 6,-5 2,-1 5,-2 8,-2 3,0 6,1 9,2 3,1 6,3 8,5 3,2 5,4 7,7 2,3 3,5 4,8zm84 11l3 10 -33 0 -12 -42 10 0 9 32 23 0zm73 -32l7 24 0 1c0,2 1,3 1,5 0,0 0,0 0,1 0,0 0,0 0,0 0,0 0,0 0,0 0,0 0,0 0,0l0 0c0,0 0,1 0,1 0,0 0,0 0,0l0 1c0,0 0,0 0,0 0,0 0,0 0,0l0 0 0 1 0 1 0 0 0 0 0 1 0 0 0 0 -1 1 0 0 -1 1 0 0 -1 1 0 0 0 0 0 0 0 0 0 0 0 0 0 0 0 0 0 0 -1 0 0 0c0,0 0,0 0,0l-1 0c0,0 0,0 0,0 -1,0 -3,1 -5,1 -2,0 -3,0 -5,-1 0,0 0,0 0,0l-1 0c0,0 0,0 -1,0l-1 0 0 0 0 0 -1 0 -1 0 0 0 -1 0 -1 0 0 0 -1 0 -1 0 0 0 0 0 -1 0 -1 0 0 0 0 0 -1 0 -1 0 0 0 0 0 -1 0 -1 0 0 0 0 -1 0 -1 0 0 0 0 0 -1c0,0 0,0 0,0l0 0c0,0 0,-1 -1,-1l0 0c0,0 0,0 0,0 0,0 0,0 0,0 0,0 0,0 0,0l0 0c-1,-2 -2,-3 -2,-5l-7 -24 10 0 7 23 0 0 0 0c1,2 1,3 3,4l0 0 0 0 0 0 0 0 0 0 0 0 1 1 0 0 0 0 0 0 0 0 0 0 1 0 0 0 0 0 0 0 0 0 0 0 0 0 0 0c0,0 0,0 0,0 0,0 0,0 0,0 1,0 2,0 2,0 1,0 2,0 2,0 0,0 0,0 0,0 0,0 0,0 0,0l0 0 0 0 0 0 0 0 0 0 0 0 0 0 0 0 0 0 0 0 0 0 0 0 0 0 0 0 0 0 0 0 0 0 0 0 0 0 0 0 0 0 0 0 0 0 0 0 0 0 0 0c0,-1 0,-3 0,-4l-7 -24 10 0zm86 0l3 10 -14 0 9 32 -10 0 -9 -32 -14 0 -3 -10 39 0zm58 0l12 42 -10 0 -12 -42 10 0zm87 21c0,-2 -1,-3 -2,-5 -1,-1 -2,-3 -4,-4 -1,-1 -3,-2 -5,-3 -2,-1 -3,-1 -5,-1 -2,0 -3,0 -4,1 -1,1 -2,1 -3,3 -1,1 -1,2 -1,4 0,1 0,3 0,5 0,2 1,3 2,5 1,1 2,3 4,4 1,1 3,2 5,3 2,1 3,1 5,1 2,0 3,0 4,-1 1,-1 2,-1 3,-3 1,-1 1,-2 1,-4 0,-1 0,-3 0,-5zm10 0c1,3 1,6 1,8 0,3 -1,5 -3,7 -1,2 -3,4 -6,5 -2,1 -5,2 -8,2 -3,0 -6,-1 -9,-2 -3,-1 -6,-3 -8,-5 -3,-2 -5,-4 -7,-7 -2,-3 -3,-5 -4,-8 -1,-3 -1,-6 -1,-8 0,-3 1,-5 3,-7 1,-2 3,-4 6,-5 2,-1 5,-2 8,-2 3,0 6,1 9,2 3,1 6,3 8,5 3,2 5,4 7,7 2,3 3,5 4,8zm81 -21l13 46 -37 -27 7 23 -10 0 -13 -45 37 27 -7 -23 10 0zm83 10l-19 0 0 0 0 0c0,0 0,0 0,0 0,0 0,0 0,0 0,0 0,0 0,0 0,0 0,0 0,0 0,0 0,0 0,0 0,0 0,0 -1,0 0,0 0,0 -1,0 0,0 0,0 0,1 0,0 0,0 0,0 0,0 0,0 0,0 0,0 0,0 0,1 0,0 0,0 0,0l0 0c0,0 0,0 0,0l0 0 0 0c0,0 0,0 0,0 0,0 0,0 0,0 0,0 0,0 0,0 0,0 0,0 1,1 0,0 0,0 1,1 0,0 0,0 1,0 0,0 1,0 1,0 0,0 0,0 0,0 0,0 0,0 0,0 0,0 0,0 0,0l0 0c0,0 0,0 0,0l11 0 0 0 0 0c0,0 1,0 1,0 0,0 1,0 1,0 2,0 5,1 7,3 2,1 4,3 5,5 1,1 1,2 2,3 0,1 1,2 1,3 0,1 0,2 0,3 0,1 0,2 -1,3 0,1 -1,2 -1,2 0,0 -1,1 -1,1 0,0 -1,1 -1,1 -1,0 -2,1 -3,1 0,0 0,0 -1,0 0,0 0,0 -1,0 0,0 -1,0 -1,0l0 0 -25 0 -3 -10 25 0 0 0c0,0 0,0 0,0 0,0 0,0 0,0 0,0 0,0 0,0 0,0 0,0 1,0 0,0 0,0 0,0 0,0 0,0 0,0 0,0 0,0 0,-1 0,0 0,0 0,-1 0,0 0,0 0,-1 0,0 0,0 0,-1 0,0 0,0 0,-1 0,0 -1,-1 -1,-1 0,0 0,0 0,0 0,0 0,0 0,0 0,0 0,0 0,0 0,0 0,0 0,0 0,0 -1,0 -1,0 0,0 0,0 0,0 0,0 0,0 0,0 0,0 0,0 0,0l0 0 -12 0 0 0c0,0 -1,0 -1,0 0,0 0,0 0,0l0 0c-1,0 -2,0 -3,-1 -1,0 -2,-1 -3,-2 -1,-1 -2,-1 -3,-2 -2,-2 -3,-4 -4,-6 0,-1 0,-1 -1,-2 0,0 0,0 0,0l0 0 0 0 0 0c0,0 0,-1 0,-1 0,-1 0,-2 0,-3 0,-1 0,-1 0,-2 0,0 0,-1 0,-1 0,-1 1,-2 1,-2 1,-1 1,-1 2,-2 1,-1 2,-1 3,-1 0,0 1,0 1,0l0 0 0 0c0,0 1,0 1,0 0,0 0,0 0,0l0 0 25 0 -3 10z"/>
    </g>
    <g>
     <path class="fil34" d="M2987 1198c15,0 30,3 44,8 15,6 29,14 42,24 13,10 25,22 34,35 9,13 16,27 20,42 4,15 6,28 4,41 -2,13 -6,25 -13,35l0 1 -1 -1 -6 -7 0 0 0 0c6,-9 10,-20 11,-32 1,-11 0,-24 -4,-37 -4,-14 -10,-26 -19,-38 -9,-12 -19,-23 -31,-32 -12,-9 -25,-17 -39,-22 -13,-5 -27,-8 -40,-8 -14,0 -26,3 -36,8 -11,5 -20,12 -26,22 -6,9 -11,20 -12,32 -1,12 0,25 4,38 4,13 10,25 17,36l0 0c8,12 18,22 28,31l0 0 0 0 -2 7 0 1 -1 -1c-12,-10 -23,-22 -32,-35 -9,-12 -15,-26 -20,-40 -4,-15 -6,-29 -4,-42 2,-13 6,-25 13,-35 7,-10 17,-18 28,-24 11,-5 24,-8 39,-8zm123 195c0,0 -1,1 -1,1 -1,0 -1,1 -1,1l0 0 0 -1 -6 -7 0 0 0 0c0,0 1,-1 1,-1 0,0 1,-1 1,-1l0 0 1 1 6 7 0 0 0 0zm-16 12c-1,0 -1,1 -2,1 -1,0 -1,1 -2,1l0 0 0 0 -1 -1c-1,-1 -2,-1 -3,-2l-2 -2 -2 -1 -1 -1 1 0c1,0 1,-1 2,-1 1,0 1,-1 2,-1l0 0 0 0c1,1 3,2 4,3 1,1 3,2 4,3l1 1 -1 0zm-18 7c-1,0 -2,0 -3,1 -1,0 -2,0 -3,1l0 0 -3 -1 0 0 -2 -1 0 0c-1,-1 -3,-2 -3,-3 0,-1 0,-1 0,-1l0 0c0,0 1,-1 1,-1l0 0c1,0 5,1 11,4l0 0 2 1 0 1zm-50 0c-2,-1 -5,-1 -7,-2 -2,-1 -5,-1 -7,-2l-1 0 1 -1c1,-1 2,-1 3,-2 1,0 3,0 5,1 2,0 3,1 4,2 1,1 2,2 3,3l1 1 -1 0zm-45 -18c-1,0 -1,-1 -2,-1 -1,0 -1,-1 -2,-1l0 0 0 0 2 -7 0 -1 1 0c1,0 1,1 2,1 1,0 1,1 2,1l1 0 0 0c0,1 -1,2 -1,4 0,1 -1,2 -1,3l0 1 -1 0z"/>
     <path class="fil34" d="M2984 1202c0,-1 0,-2 0,-3l0 0c1,-1 2,-1 3,-1 1,0 2,1 4,1l0 0c1,1 2,2 2,3l14 46c5,0 11,-1 16,-1 5,-1 10,-2 15,-3 -1,-1 -2,-3 -3,-4 -1,-2 -3,-3 -4,-5 -4,-5 -8,-10 -13,-15 -4,-5 -9,-9 -13,-13 -1,-1 -2,-2 -2,-3 0,-1 0,-2 1,-3 1,-1 2,-1 3,-1 1,0 2,1 3,2 5,4 9,9 14,14 4,5 9,10 13,16 1,2 3,4 4,6 1,2 3,4 4,5 5,-2 9,-3 14,-5 4,-2 9,-5 12,-7l1 0 0 1 1 2 0 0 3 6 0 0 0 0c-4,2 -8,5 -12,7 -4,2 -8,4 -13,5 2,3 4,5 6,8 2,3 4,6 6,9 1,1 1,2 1,3 0,1 -1,2 -2,2 -1,0 -2,0 -3,0 -1,0 -2,-1 -3,-3 -2,-3 -4,-6 -6,-9 -2,-3 -4,-6 -6,-8 -5,1 -11,3 -17,3 -6,1 -12,1 -18,2l3 10c0,1 0,2 0,3 -1,1 -2,1 -3,1 -1,0 -2,-1 -4,-1 -1,-1 -2,-2 -2,-3l-3 -10c-6,0 -12,0 -19,-1 -6,-1 -13,-2 -19,-3 0,3 -1,5 -1,8 0,3 0,6 -1,9 0,1 -1,2 -2,3 -1,0 -2,1 -3,0 -1,0 -2,-1 -3,-2 -1,-1 -1,-2 -1,-3 0,-3 0,-6 1,-8 0,-3 0,-5 1,-7 -5,-1 -10,-3 -15,-4 -5,-2 -11,-4 -16,-6l0 0 0 0 -3 -9 0 -1 1 0c6,3 11,5 17,7 6,2 11,4 17,5 0,-2 1,-4 1,-6 0,-2 1,-4 1,-6 1,-6 3,-11 4,-16 2,-5 4,-9 6,-14 0,-1 1,-2 2,-2 1,0 2,0 4,1 1,1 2,2 2,3 0,1 0,2 0,3 -2,4 -4,8 -5,13 -2,5 -3,10 -4,15 0,2 -1,4 -1,6 0,2 -1,3 -1,5 6,1 11,2 17,2 6,1 11,1 17,1l-14 -46z"/>
     <path class="fil32" d="M2982 1291l-14 0 0 0 -4 -14 0 0 14 0 9 0 54 0 24 0 17 0 18 0 -4 14 -10 0 -35 0 -7 0 -54 0 -9 0zm84 4l0 0 0 0c0,0 0,0 0,0l0 0 0 0c0,0 0,0 0,1 0,0 0,0 0,0 0,0 0,0 0,0 0,0 1,1 1,1 0,0 1,1 1,1 0,0 1,0 1,1 0,0 1,0 1,0 0,0 0,0 0,0 0,0 0,0 0,0 0,0 0,0 0,0l0 0c0,0 0,0 0,0l16 0 0 0 1 0c0,0 1,0 1,0 0,0 1,0 1,0 3,0 6,2 9,4 3,2 6,4 8,7 1,1 2,3 2,4 1,1 1,3 1,4 0,2 0,3 0,4 0,1 0,3 -1,4 0,1 -1,2 -2,3 0,0 -1,1 -1,1 -1,0 -1,1 -2,1 -1,1 -2,1 -4,2 0,0 -1,0 -1,0 0,0 -1,0 -1,0 0,0 -1,0 -1,0l-1 0 -34 0 -4 -14 34 0 0 0c0,0 0,0 0,0 0,0 0,0 0,0 0,0 0,0 0,0 0,0 1,0 1,0 0,0 0,0 0,0 0,0 0,0 0,0 0,0 0,-1 0,-1 0,0 0,-1 0,-1 0,0 0,-1 0,-1 0,0 0,-1 0,-1 0,0 0,-1 -1,-1 0,-1 -1,-1 -2,-2 0,0 0,0 -1,0 0,0 0,0 0,0 0,0 0,0 0,0 0,0 0,0 0,0 0,0 -1,0 -1,0 0,0 0,0 0,0 0,0 0,0 0,0 0,0 0,0 0,0l0 0 -16 0 0 0c0,0 -1,0 -1,0 0,0 0,0 -1,0l-1 0c-2,0 -3,-1 -5,-1 -2,-1 -3,-1 -5,-2 -1,-1 -3,-2 -4,-3 -3,-2 -5,-5 -6,-8 0,-1 -1,-1 -1,-2 0,0 0,0 0,-1l0 0 0 0 0 0 14 0zm-40 0l12 40 -14 0 -12 -40 14 0zm-43 0l4 15 0 1c1,2 1,4 1,7 0,0 0,0 0,1 0,0 0,0 0,0 0,0 0,0 0,0 0,0 0,0 0,1l0 0c0,0 0,1 0,1 0,0 0,0 0,0l0 1c0,0 0,0 0,0 0,0 0,0 0,0l0 0 0 1 0 1 0 0 0 0 -1 1 0 0 0 0 -1 1 0 1 -1 1 0 0 -1 1 -1 0 -1 0 -1 0 -1 0 0 0 0 0 -1 0 -1 0 0 0 -1 0 -1 0c0,0 0,0 0,0l-1 0c0,0 0,0 0,0 -2,1 -4,1 -6,1 -2,0 -5,0 -7,-1 0,0 0,0 0,0l-1 0c0,0 -1,0 -1,0l-1 0 0 0 0 0 -1 0 -1 -1 0 0 -1 0 -1 -1 0 0 -1 0 -1 0 0 0 0 0 -1 -1 -1 -1 0 0 0 0 -1 -1 -1 -1 0 0 0 0 -1 -1 -1 -1 -1 -1 -1 -1 -1 -1 0 0 0 0 -1 -1c0,0 0,0 0,-1l0 0c0,0 -1,-1 -1,-1l0 0c0,0 0,0 0,-1 0,0 0,0 0,0 0,0 0,0 0,0l0 -1c-1,-2 -2,-4 -3,-7l-5 -16 14 0 4 15 0 1 0 0c1,2 2,4 4,6l0 0 0 0 0 0 0 0 0 0 0 0 1 1 0 0 0 0 0 0 0 0 0 0 1 0 0 0 1 0 0 0 0 0 0 0 0 0 0 0c0,0 0,0 0,0 0,0 0,0 0,0 1,0 2,0 3,0 1,0 2,0 3,0 0,0 0,0 0,0 0,0 0,0 0,0l0 0 0 0 0 0 0 0 0 0 0 0 0 0 0 0 1 0 0 0 0 0 0 0 0 0 0 0 0 0 0 -1 0 0 0 0 0 0 0 0 0 0 0 0 0 0 0 0 0 0 0 0c1,-2 1,-4 0,-6l-5 -16 14 0zm-53 -4l-4 -14 14 0 4 14 -14 0z"/>
     <path class="fil34" d="M3047 1449c1,-2 3,-6 3,-6l0 0c0,-1 0,-2 -1,-3l0 0c0,-1 -1,-1 -2,-2 -1,-1 -1,-1 -2,-1 -1,0 -2,-1 -3,0 0,0 -1,1 -2,2 -1,2 -3,6 -3,6l0 0c0,1 0,2 1,3 0,1 1,1 2,2 1,0 1,1 2,1l0 0c1,0 2,0 2,0 0,0 1,-1 2,-2zm-15 -25c-1,0 -2,0 -3,0 -2,2 -3,5 -4,8 0,1 -1,2 -1,4 -1,2 -1,4 0,5 0,1 1,1 2,2 1,1 1,1 2,1 1,0 2,0 3,0 1,-1 3,-5 4,-9 1,-1 1,-2 1,-3 1,-2 1,-4 0,-5 0,-1 -1,-1 -2,-2 -1,0 -1,-1 -2,-1zm-16 -12c0,0 0,0 0,0l0 0c-1,0 -4,6 -6,12 -1,3 -2,6 -2,8 0,1 1,2 2,3 1,1 2,1 2,1 1,0 1,0 2,0 1,0 1,-1 1,-2 0,-1 1,-3 2,-4 2,-5 5,-11 4,-13 0,0 0,0 0,0 -1,-1 -2,-2 -3,-3 -1,-1 -2,-1 -3,-1l0 0zm-17 -1c-1,0 -1,0 -2,0 -1,0 -2,2 -2,3 -1,2 -2,3 -2,4 0,1 0,2 1,2 0,1 1,2 2,2l0 0c1,1 2,1 2,1 1,0 1,0 2,0 0,0 1,-1 2,-3 1,-2 2,-4 2,-4 0,-1 0,-2 -1,-3 -1,-1 -1,-2 -2,-2 -1,-1 -2,-1 -2,-1zm79 -16c8,5 16,9 22,13 1,-1 1,-1 2,-2l0 0c1,-1 2,-1 2,-2l3 -5 -30 -35c-9,2 -9,2 -14,1 -2,-1 -5,-1 -11,-2 -4,-1 -9,-1 -14,-1 -5,0 -11,1 -15,1 -3,0 -4,1 -5,1 -1,1 -2,2 -2,3 0,1 -1,2 -1,3 -2,5 -5,12 -5,15 0,1 0,1 0,1l0 0c0,0 0,1 1,1 1,0 1,0 2,0 2,0 4,-1 5,-2 4,-2 5,-4 5,-6 1,-3 2,-5 8,-7 4,-1 15,5 22,8l0 0c1,1 2,1 3,1 6,3 14,7 21,12zm-93 -14c-2,8 -5,16 -5,19 2,1 3,2 5,4l0 0 1 1 0 0c1,1 2,2 4,3 3,-2 5,-3 8,-3 3,1 6,2 9,6l0 0c2,-3 3,-6 10,-4l0 0c3,1 5,2 7,4 2,2 3,4 4,7 4,1 6,2 9,4 2,2 4,5 5,9 1,0 3,1 4,1 3,1 5,3 6,5 1,2 2,4 2,7 0,1 0,2 0,3 1,0 2,1 4,1 3,1 6,1 8,1 3,0 5,0 6,-1 1,-1 2,-2 2,-3 -2,-1 -5,-2 -8,-3 -4,-2 -9,-3 -11,-5 -2,-1 -3,-3 -2,-4l0 0 1 0 0 0c2,0 11,3 15,5 1,1 2,1 2,1l0 0 0 0c3,1 6,2 8,3 2,0 4,-1 4,-5 -3,-2 -10,-5 -15,-8 -2,-1 -5,-2 -6,-3l0 0c0,0 -1,0 -1,-1 -3,-1 -5,-2 -5,-6l0 -1 1 0c3,-1 10,3 18,7 6,3 11,6 14,6 0,0 1,0 1,0 2,0 3,-1 3,-1 1,-1 1,-2 0,-4 0,0 0,0 0,-1 -1,-1 -14,-7 -22,-11l0 0c-3,-1 -5,-3 -6,-3 -1,-1 -3,-2 -4,-3 0,-1 0,-1 0,-2l0 0c0,-1 1,-1 2,-1 2,0 5,1 11,4l0 0 22 11c1,0 1,0 2,1 1,0 3,0 4,0 1,0 2,-1 2,-2l0 0c0,0 0,-1 0,-1 0,-4 -8,-8 -14,-12 -1,-1 -2,-1 -3,-2 -17,-10 -22,-13 -36,-20l0 0 -6 -3c-8,-4 -10,-1 -12,3 -2,3 -4,8 -11,9l0 0c0,0 -1,0 -1,0 -2,0 -5,0 -7,0 -2,-1 -4,-2 -5,-4l0 0 0 0 0 0c-3,-6 0,-11 2,-15 1,-2 1,-3 2,-4 -1,0 -2,0 -4,-1 -2,0 -4,-1 -6,-1 -2,-1 -4,-2 -6,-3 -1,-1 -2,-1 -3,-2 -1,4 -3,10 -4,17zm96 -31c-2,1 -4,3 -5,4l11 13 0 0 2 3c3,4 6,7 9,11l22 25 1 -1c3,-2 6,-4 8,-6 -2,-2 -6,-7 -9,-11l0 0 -2 -2 0 0 -34 -39c-1,1 -2,1 -4,3zm-104 0c-2,-1 -4,-2 -5,-2l-14 51c1,1 4,2 6,3 3,1 5,3 7,4l14 -51c-2,-1 -5,-3 -8,-4zm8 -2c7,3 7,4 7,12 3,2 6,3 9,4 3,1 6,1 11,2 1,-4 7,-7 15,-8 11,-2 24,0 32,1 1,0 2,0 3,1 5,1 7,1 12,0 -1,-1 -2,-2 -2,-3 -3,-3 -4,-5 2,-10 0,0 1,-1 1,-1l0 0c3,-3 8,-7 13,-3 2,1 11,12 17,20 3,4 6,7 7,8 2,2 10,12 17,19 4,4 6,8 7,9 2,4 -2,6 -6,9 -1,1 -2,1 -3,2l0 0c-7,5 -9,3 -11,-1l0 0c-1,-1 -2,-2 -3,-3 0,1 -1,1 -1,2 0,1 -1,1 -2,2 -1,1 -1,2 -2,2 -1,0 -1,1 -2,2 1,2 2,4 3,5 1,2 0,4 0,6 -2,3 -3,4 -7,4l-1 0c1,8 -2,8 -8,10l0 0c1,9 -3,9 -6,9 -1,0 -3,0 -3,1 0,1 -1,1 -1,2 0,1 -1,1 -2,3 -5,5 -13,3 -20,1l0 0c-2,-1 -4,-1 -6,-1 0,1 -1,1 -1,2 -1,2 -3,3 -5,3 -2,0 -4,0 -7,-1 -1,0 -2,-1 -3,-2 -2,-1 -2,-2 -3,-3 0,0 -1,-1 -1,-1 -1,0 -3,0 -4,0 -2,0 -3,-1 -5,-2 -3,-2 -4,-3 -6,-5l0 0c0,0 -1,-1 -1,-1 -4,0 -8,-1 -10,-3 -2,-2 -4,-5 -6,-9 -2,0 -4,-1 -6,-2l0 0c-2,-1 -4,-2 -5,-4 -4,-5 -3,-8 -2,-11l0 0c-1,-1 -3,-3 -5,-5 -2,-1 -3,-3 -4,-3 0,1 0,1 -1,2 0,1 0,1 0,2 -1,3 -3,5 -10,1 -2,-1 -4,-2 -6,-3 -6,-3 -9,-5 -10,-9 0,-4 1,-9 4,-19 2,-6 4,-13 6,-22 1,-2 1,-4 2,-6 1,-6 2,-9 4,-10 2,-1 6,0 12,4l2 1c1,1 2,1 3,1z"/>
    </g>
   </g>
  </g>
 </g>
</svg>
