<?xml version="1.0" encoding="UTF-8"?>
<!DOCTYPE svg PUBLIC "-//W3C//DTD SVG 1.1//EN" "http://www.w3.org/Graphics/SVG/1.1/DTD/svg11.dtd">
<!-- Creator: CorelDRAW X6 -->
<svg xmlns="http://www.w3.org/2000/svg" xml:space="preserve" width="2.08272in" height="1.61198in" version="1.1" style="shape-rendering:geometricPrecision; text-rendering:geometricPrecision; image-rendering:optimizeQuality; fill-rule:evenodd; clip-rule:evenodd"
viewBox="0 0 1625 1258"
 xmlns:xlink="http://www.w3.org/1999/xlink">
 <defs>
  <style type="text/css">
   <![CDATA[
    .fil1 {fill:#2B2A29;fill-rule:nonzero}
    .fil2 {fill:#FC6300;fill-rule:nonzero}
    .fil0 {fill:#5CA595;fill-opacity:0.050980}
   ]]>
  </style>
 </defs>
 <g id="Layer_x0020_1">
  <metadata id="CorelCorpID_0Corel-Layer"/>
  <g id="_350828344">
   <path class="fil0" d="M575 122c317,0 1050,253 1050,552 0,299 -733,531 -1050,531 -317,0 -575,-242 -575,-542 0,-299 257,-542 575,-542z"/>
   <path class="fil0" d="M805 0c302,0 539,418 539,663 0,245 -74,594 -377,594 -302,0 -694,-215 -686,-562 8,-347 221,-696 523,-696z"/>
  </g>
  <path class="fil1" d="M666 852c-2,2 -4,2 -6,2 -2,0 -4,-1 -6,-3 -2,-2 -2,-4 -2,-6 0,-2 1,-4 3,-6l91 -87c2,-2 4,-2 6,-2l0 0c2,0 4,1 6,2l92 88c2,2 3,4 3,6l0 0c0,2 -1,4 -2,6 -2,2 -4,3 -6,3l0 0c-2,0 -4,-1 -6,-2l-86 -83 -85 82zm-75 -431l322 0c5,0 10,1 15,3 5,2 9,5 13,9l1 1 0 0c3,3 6,7 7,12 2,5 3,10 3,15l0 50 0 2 -2 0 -14 0 -2 0 0 -2 0 -50c0,-3 -1,-6 -2,-8 -1,-2 -2,-5 -4,-7l0 0 0 0c-2,-2 -4,-4 -7,-5 -3,-1 -5,-2 -8,-2l-322 0c-3,0 -6,1 -8,2 -3,1 -5,3 -7,5l0 0 0 0c-2,2 -3,4 -4,7 -1,3 -2,5 -2,8l0 218c0,3 1,6 2,8 1,3 3,5 5,7 2,2 4,4 7,5 3,1 5,2 8,2l322 0c3,0 6,-1 8,-2 3,-1 5,-3 7,-5 2,-2 4,-4 5,-7 1,-3 2,-5 2,-8l0 -94 0 -2 2 0 14 0 2 0 0 2 0 94c0,5 -1,10 -3,15 -2,5 -5,9 -9,13 -4,4 -8,7 -13,9 -5,2 -10,3 -15,3l-322 0c-5,0 -10,-1 -15,-3 -5,-2 -9,-5 -13,-9 -4,-4 -7,-8 -9,-13 -2,-5 -3,-10 -3,-15l0 -218c0,-5 1,-10 3,-15 2,-4 4,-8 7,-12l0 0 1 -1c4,-4 8,-7 13,-9 5,-2 10,-3 15,-3z"/>
  <path class="fil1" d="M1015 404c15,0 28,6 38,16 10,10 16,23 16,38 0,15 -6,28 -16,38l0 0c-10,10 -23,16 -38,16 -15,0 -28,-6 -38,-16l0 0c-10,-10 -16,-23 -16,-38 0,-15 6,-28 16,-38l0 0c10,-10 23,-16 38,-16zm28 26c-7,-7 -17,-11 -28,-11 -11,0 -21,4 -28,11l0 0c-7,7 -11,17 -11,28 0,11 4,21 11,28 7,7 17,11 28,11 11,0 21,-4 28,-11l0 0c7,-7 11,-17 11,-28 0,-11 -4,-21 -11,-28z"/>
  <path class="fil1" d="M853 554c-2,0 -5,-1 -6,-3 -2,-2 -3,-4 -3,-6 0,-2 1,-5 3,-6 2,-2 4,-3 6,-3l140 0c2,0 5,1 6,3 2,2 3,4 3,6l0 289c0,2 -1,5 -3,6 -2,2 -4,3 -6,3 -2,0 -5,-1 -6,-3 -2,-2 -3,-4 -3,-6l0 -281 -132 0zm220 101c0,2 -1,5 -3,6l0 0c-2,2 -4,3 -6,3 -2,0 -5,-1 -6,-3l0 0c-2,-2 -3,-4 -3,-6l0 0 0 -100 -12 0 0 281c0,2 -1,5 -3,6 -2,2 -4,3 -6,3 -2,0 -5,-1 -6,-3 -2,-2 -3,-4 -3,-6l0 -289c0,-2 1,-5 3,-6 2,-2 4,-3 6,-3l29 0 2 0 0 0c2,0 3,1 4,2 2,2 3,4 3,6l0 0 0 108 0 0z"/>
  <path class="fil2" d="M798 531c-1,1 -3,2 -5,2 -2,0 -4,-1 -5,-2 -1,-1 -2,-3 -2,-5 0,-2 1,-4 2,-5l15 -15c1,-1 3,-2 5,-2 2,0 4,1 5,2 1,1 2,3 2,5 0,2 -1,4 -2,5l-15 15zm-163 95c-1,1 -3,2 -5,2 -2,0 -4,-1 -5,-2 -1,-1 -2,-3 -2,-5 0,-2 1,-4 2,-5l55 -53c1,-1 3,-2 5,-2 2,0 4,1 5,2l27 26 57 -54c1,-1 3,-2 5,-2 2,0 4,1 5,2 1,1 2,3 2,5 0,2 -1,4 -2,5l-61 58c-1,1 -3,2 -5,2l0 0c-2,0 -3,-1 -5,-2l-27 -26 -50 48z"/>
 </g>
</svg>
