<?xml version="1.0" encoding="UTF-8"?>
<!DOCTYPE svg PUBLIC "-//W3C//DTD SVG 1.1//EN" "http://www.w3.org/Graphics/SVG/1.1/DTD/svg11.dtd">
<!-- Creator: CorelDRAW X6 -->
<svg xmlns="http://www.w3.org/2000/svg" xml:space="preserve" width="1.96932in" height="1.60161in" version="1.1" style="shape-rendering:geometricPrecision; text-rendering:geometricPrecision; image-rendering:optimizeQuality; fill-rule:evenodd; clip-rule:evenodd"
viewBox="0 0 2962 2409"
 xmlns:xlink="http://www.w3.org/1999/xlink">
 <defs>
  <style type="text/css">
   <![CDATA[
    .fil0 {fill:#fff}
   ]]>
  </style>
 </defs>
 <g id="Layer_x0020_1">
  <metadata id="CorelCorpID_0Corel-Layer"/>
  <path class="fil0" d="M1254 724c-53,1 -223,-43 -272,-60 -141,-51 -214,-81 -339,-156 -63,-38 -245,-170 -275,-213l-30 -29 -74 -74c-7,-17 -5,-12 -15,-24 -3,-4 -6,-9 -9,-11 -11,-10 -3,-4 -14,-10l-4 -9c-10,-16 -11,-21 -29,-24l-6 17c-8,20 -14,29 -22,44 -53,104 -66,308 -28,414 44,123 83,206 192,294 37,30 27,9 35,37 -124,-3 -227,-66 -250,-67 -2,159 58,298 137,391 101,118 167,150 297,198 1,0 10,4 11,5 8,4 8,4 12,7 -48,31 -195,12 -241,10 4,40 56,136 80,168 37,50 73,86 119,124 103,84 220,118 356,131 -2,12 1,3 -6,12 -3,4 -6,5 -11,9 -113,80 -213,138 -349,182 -256,81 -428,42 -518,55 34,30 156,93 206,116 74,34 149,58 234,86 114,37 298,60 425,63 235,5 485,-22 693,-109 72,-30 156,-65 220,-104l191 -124c7,-4 13,-6 19,-11 9,-7 5,-4 10,-14 18,-19 42,-31 65,-52 13,-12 51,-50 63,-54 12,-9 16,-13 24,-21 12,-12 9,-8 16,-23l6 -2 29 -29 98 -116c29,-37 62,-84 87,-126 16,-25 26,-42 42,-70 13,-23 25,-47 37,-69 26,-47 45,-97 66,-146 45,-101 72,-215 96,-336 23,-114 36,-267 30,-394 1,-1 3,-4 4,-3l22 -25c13,-8 32,-25 46,-37 17,-13 31,-30 44,-38 16,-9 18,-13 30,-28l31 -31c15,-12 19,-15 27,-32 13,-15 33,-37 45,-53 8,-12 32,-46 40,-51 13,-10 13,-8 15,-25 -22,0 -12,-3 -25,10 -45,24 -249,86 -309,81 26,-24 54,-40 80,-63 69,-62 149,-166 166,-259 -37,7 -59,26 -95,41 -47,19 -264,105 -292,90 -66,-78 -181,-147 -307,-172 -273,-56 -512,61 -656,281 -88,134 -84,244 -83,390l10 55 -196 -14z"/>
 </g>
</svg>
