<?xml version="1.0" encoding="UTF-8"?>
<!DOCTYPE svg PUBLIC "-//W3C//DTD SVG 1.1//EN" "http://www.w3.org/Graphics/SVG/1.1/DTD/svg11.dtd">
<!-- Creator: CorelDRAW X6 -->
<svg xmlns="http://www.w3.org/2000/svg" xml:space="preserve" width="197.226mm" height="118.859mm" version="1.1" style="shape-rendering:geometricPrecision; text-rendering:geometricPrecision; image-rendering:optimizeQuality; fill-rule:evenodd; clip-rule:evenodd"
viewBox="0 0 19143 11537"
 xmlns:xlink="http://www.w3.org/1999/xlink">
 <defs>
  <style type="text/css">
   <![CDATA[
    .fil27 {fill:#423271}
    .fil23 {fill:#504090}
    .fil29 {fill:#5F3E8E}
    .fil3 {fill:#634492}
    .fil24 {fill:#725CA3}
    .fil30 {fill:#B49FCC}
    .fil6 {fill:#E7E4F2}
    .fil21 {fill:#F49712}
    .fil20 {fill:#F49911}
    .fil19 {fill:#F49B0F}
    .fil18 {fill:#F59D0E}
    .fil17 {fill:#F59F0D}
    .fil16 {fill:#F5A10B}
    .fil15 {fill:#F6A30A}
    .fil34 {fill:#F7A906}
    .fil14 {fill:#F7AB05}
    .fil13 {fill:#F8AD03}
    .fil12 {fill:#F8AF03}
    .fil11 {fill:#F9B101}
    .fil10 {fill:#F9B200}
    .fil9 {fill:#F9B500}
    .fil26 {fill:#F9D0CF}
    .fil5 {fill:#FAF9FC}
    .fil25 {fill:#FBBC00}
    .fil33 {fill:#FCC200}
    .fil8 {fill:#FDC704}
    .fil28 {fill:#FEC904}
    .fil22 {fill:#FEFEFE}
    .fil0 {fill:#EBECEC}
    .fil1 {fill:#FEFEFE}
    .fil2 {fill:#D9DADA;fill-rule:nonzero}
    .fil31 {fill:#EF7F1A;fill-rule:nonzero}
    .fil32 {fill:#F5A154;fill-rule:nonzero}
    .fil4 {fill:#634492;fill-opacity:0.129412}
    .fil35 {fill:#FEFEFE;fill-opacity:0.501961}
    .fil7 {fill:#53AFA7;fill-opacity:0.501961}
   ]]>
  </style>
 </defs>
 <g id="Layer_x0020_1">
  <metadata id="CorelCorpID_0Corel-Layer"/>
  <rect class="fil0" x="256" y="256" width="18887" height="11281" rx="457" ry="457"/>
  <rect class="fil1" x="9" y="9" width="18887" height="11281" rx="457" ry="457"/>
  <path class="fil2" d="M466 0l17973 0c128,0 245,52 329,137 84,84 137,201 137,329l0 10367c0,128 -52,245 -137,329 -84,84 -201,137 -329,137l-17973 0c-128,0 -245,-52 -329,-137 -84,-84 -137,-201 -137,-329l0 -10367c0,-128 52,-245 137,-329 84,-84 201,-137 329,-137zm17973 19l-17973 0c-123,0 -235,50 -316,131 -81,81 -131,193 -131,316l0 10367c0,123 50,235 131,316 81,81 193,131 316,131l17973 0c123,0 235,-50 316,-131 81,-81 131,-193 131,-316l0 -10367c0,-123 -50,-235 -131,-316 -81,-81 -193,-131 -316,-131z"/>
  <path class="fil3" d="M2095 4957l4732 0c170,0 309,139 309,309l0 709 -957 -666c0,0 -218,0 -218,89 0,89 145,509 145,509 0,0 -682,147 -689,26 -7,-121 -125,-503 -125,-503l-1697 501 -661 -105 -774 137 -169 -73c0,0 -95,40 -206,69l0 -694c0,-170 139,-309 309,-309z"/>
  <path class="fil4" d="M8289 9475l-339 0c-22,0 -40,-18 -40,-40l0 -114c0,-16 -10,-31 -25,-37l0 0c-5,-2 -11,-3 -16,-3 -10,0 -20,4 -28,11l-80 80c-8,8 -18,12 -28,12 -10,0 -20,-4 -28,-12l-240 -240c-15,-15 -15,-40 0,-56l80 -80c12,-12 15,-29 8,-44l0 -1c-6,-15 -21,-25 -37,-25l-114 0c-22,0 -40,-18 -40,-40l0 -339c0,-22 18,-40 40,-40l114 0c16,0 31,-10 37,-25l0 -1c6,-15 3,-32 -8,-44l-80 -80c-15,-15 -15,-40 0,-56l240 -240c8,-8 18,-12 28,-12 10,0 20,4 28,12l80 80c8,8 18,11 28,11 5,0 11,-1 16,-3l0 0c15,-6 25,-21 25,-37l0 -114c0,-22 18,-40 40,-40l339 0c22,0 40,18 40,40l0 114c0,16 10,31 25,37l1 0c5,2 11,3 16,3 10,0 20,-4 28,-11l80 -80c8,-8 18,-12 28,-12 10,0 20,4 28,12l240 240c15,15 15,40 0,56l-80 80c-12,12 -14,29 -8,44l0 1c6,15 21,25 37,25l114 0c22,0 40,18 40,40l0 339c0,22 -18,40 -40,40l-114 0c-16,0 -31,10 -37,25l0 1c-6,15 -3,32 8,44l80 80c15,15 15,40 0,56l-240 240c-8,8 -18,12 -28,12 -10,0 -20,-4 -28,-12l-80 -80c-8,-8 -18,-11 -28,-11 -5,0 -11,1 -16,3l-1 0c-15,6 -25,21 -25,37l0 114c0,22 -18,40 -40,40zm-170 -1130c-206,0 -373,167 -373,373 0,206 167,373 373,373 206,0 373,-167 373,-373 0,-206 -167,-373 -373,-373z"/>
  <g id="_524205568">
   <path class="fil5" d="M9889 6578l-1426 0c-85,0 -153,-69 -153,-153l0 -1316c0,-85 69,-153 153,-153l1426 0c85,0 153,69 153,153l0 1316c0,85 -69,153 -153,153z"/>
   <path class="fil6" d="M9704 5799l338 279 0 347c0,85 -69,153 -153,153l-1127 0 760 -770c49,-50 128,-54 182,-9z"/>
   <path class="fil6" d="M9450 5470c0,88 -72,160 -160,160 -88,0 -160,-71 -160,-160 0,-88 72,-160 160,-160 88,0 160,71 160,160z"/>
  </g>
  <path class="fil7" d="M434 9l18037 0c234,0 425,191 425,425l0 1009 -18887 0 0 -1009c0,-234 191,-425 425,-425z"/>
  <g id="_524207608">
   <path class="fil8" d="M2373 11043l-748 0 331 -1024c13,-41 72,-41 85,0l331 1024z"/>
   <path class="fil0" d="M2445 11115l-891 0c-20,0 -36,-16 -36,-36 0,-20 16,-36 36,-36l891 0c20,0 36,16 36,36 0,20 -16,36 -36,36z"/>
   <polygon class="fil9" points="2131,10295 1868,10295 1870,10288 2129,10288 "/>
   <polygon class="fil9" points="2134,10301 1866,10301 1868,10295 2131,10295 "/>
   <polygon class="fil9" points="2136,10308 1863,10308 1866,10301 2134,10301 "/>
   <polygon class="fil9" points="2138,10315 1861,10315 1863,10308 2136,10308 "/>
   <polygon class="fil10" points="2140,10321 1859,10321 1861,10315 2138,10315 "/>
   <polygon class="fil10" points="2142,10328 1857,10328 1859,10321 2140,10321 "/>
   <polygon class="fil10" points="2144,10335 1855,10335 1857,10328 2142,10328 "/>
   <polygon class="fil10" points="2146,10341 1853,10341 1855,10335 2144,10335 "/>
   <polygon class="fil10" points="2149,10348 1851,10348 1853,10341 2146,10341 "/>
   <polygon class="fil10" points="2151,10355 1848,10355 1851,10348 2149,10348 "/>
   <polygon class="fil11" points="2153,10361 1846,10361 1848,10355 2151,10355 "/>
   <polygon class="fil11" points="2155,10368 1844,10368 1846,10361 2153,10361 "/>
   <polygon class="fil11" points="2157,10375 1842,10375 1844,10368 2155,10368 "/>
   <polygon class="fil11" points="2159,10381 1840,10381 1842,10375 2157,10375 "/>
   <polygon class="fil11" points="2162,10388 1838,10388 1840,10381 2159,10381 "/>
   <polygon class="fil11" points="2164,10394 1836,10394 1838,10388 2162,10388 "/>
   <polygon class="fil12" points="2166,10401 1833,10401 1836,10394 2164,10394 "/>
   <polygon class="fil12" points="2168,10408 1831,10408 1833,10401 2166,10401 "/>
   <polygon class="fil12" points="2170,10414 1829,10414 1831,10408 2168,10408 "/>
   <polygon class="fil12" points="2172,10421 1827,10421 1829,10414 2170,10414 "/>
   <polygon class="fil12" points="2174,10428 1825,10428 1827,10421 2172,10421 "/>
   <polygon class="fil12" points="2177,10434 1823,10434 1825,10428 2174,10428 "/>
   <polygon class="fil12" points="2179,10441 1820,10441 1823,10434 2177,10434 "/>
   <polygon class="fil12" points="2181,10448 1818,10448 1820,10441 2179,10441 "/>
   <polygon class="fil13" points="2183,10454 1816,10454 1818,10448 2181,10448 "/>
   <polygon class="fil13" points="2185,10461 1814,10461 1816,10454 2183,10454 "/>
   <polygon class="fil13" points="2187,10468 1812,10468 1814,10461 2185,10461 "/>
   <polygon class="fil13" points="2189,10474 1810,10474 1812,10468 2187,10468 "/>
   <polygon class="fil14" points="1808,10481 1810,10474 2189,10474 2192,10481 2194,10487 2196,10494 2198,10501 2200,10507 2202,10514 2205,10521 2207,10527 2209,10534 2211,10541 2213,10547 2215,10554 2217,10561 2220,10567 2222,10574 2224,10580 2226,10587 2228,10594 2230,10600 2232,10607 2235,10614 2237,10620 2239,10627 2241,10634 2243,10640 2245,10647 2248,10654 2250,10660 1750,10660 1752,10654 1754,10647 1756,10640 1758,10634 1760,10627 1762,10620 1765,10614 1767,10607 1769,10600 1771,10594 1773,10587 1775,10580 1777,10574 1780,10567 1782,10561 1784,10554 1786,10547 1788,10541 1790,10534 1793,10527 1795,10521 1797,10514 1799,10507 1801,10501 1803,10494 1805,10487 "/>
   <polygon class="fil15" points="2252,10667 1747,10667 1750,10660 2250,10660 "/>
   <polygon class="fil16" points="2254,10673 1745,10673 1747,10667 2252,10667 "/>
   <polygon class="fil16" points="2256,10680 1743,10680 1745,10673 2254,10673 "/>
   <polygon class="fil16" points="2258,10687 1741,10687 1743,10680 2256,10680 "/>
   <polygon class="fil16" points="2260,10693 1739,10693 1741,10687 2258,10687 "/>
   <polygon class="fil17" points="2263,10700 1737,10700 1739,10693 2260,10693 "/>
   <polygon class="fil17" points="2265,10707 1734,10707 1737,10700 2263,10700 "/>
   <polygon class="fil17" points="2267,10713 1732,10713 1734,10707 2265,10707 "/>
   <polygon class="fil17" points="2269,10720 1730,10720 1732,10713 2267,10713 "/>
   <polygon class="fil17" points="2271,10727 1728,10727 1730,10720 2269,10720 "/>
   <polygon class="fil17" points="2273,10733 1726,10733 1728,10727 2271,10727 "/>
   <polygon class="fil18" points="2275,10740 1724,10740 1726,10733 2273,10733 "/>
   <polygon class="fil18" points="2278,10747 1722,10747 1724,10740 2275,10740 "/>
   <polygon class="fil18" points="2280,10753 1719,10753 1722,10747 2278,10747 "/>
   <polygon class="fil18" points="2282,10760 1717,10760 1719,10753 2280,10753 "/>
   <polygon class="fil18" points="2284,10766 1715,10766 1717,10760 2282,10760 "/>
   <polygon class="fil18" points="2286,10773 1713,10773 1715,10766 2284,10766 "/>
   <polygon class="fil18" points="2288,10780 1711,10780 1713,10773 2286,10773 "/>
   <polygon class="fil18" points="2291,10786 1709,10786 1711,10780 2288,10780 "/>
   <polygon class="fil19" points="2293,10793 1707,10793 1709,10786 2291,10786 "/>
   <polygon class="fil19" points="2295,10800 1704,10800 1707,10793 2293,10793 "/>
   <polygon class="fil19" points="2297,10806 1702,10806 1704,10800 2295,10800 "/>
   <polygon class="fil19" points="2299,10813 1700,10813 1702,10806 2297,10806 "/>
   <polygon class="fil20" points="2301,10820 1698,10820 1700,10813 2299,10813 "/>
   <polygon class="fil20" points="2303,10826 1696,10826 1698,10820 2301,10820 "/>
   <polygon class="fil20" points="2306,10833 1694,10833 1696,10826 2303,10826 "/>
   <polygon class="fil20" points="2308,10840 1691,10840 1694,10833 2306,10833 "/>
   <polygon class="fil20" points="2310,10846 1689,10846 1691,10840 2308,10840 "/>
   <polygon class="fil20" points="2312,10853 1687,10853 1689,10846 2310,10846 "/>
   <polygon class="fil21" points="2314,10859 1685,10859 1687,10853 2312,10853 "/>
   <polygon class="fil21" points="1683,10866 1685,10859 2314,10859 2316,10866 2318,10873 2321,10879 2323,10886 2325,10893 2327,10899 2329,10906 2331,10913 2334,10919 2336,10926 2338,10933 2340,10939 2342,10946 2344,10953 2346,10959 2349,10966 2351,10972 2353,10979 2355,10986 2357,10992 2359,10999 2361,11006 2364,11012 2366,11019 2368,11026 2370,11032 2372,11039 2373,11042 2373,11043 1626,11043 1627,11039 1629,11032 1631,11026 1633,11019 1636,11012 1638,11006 1640,10999 1642,10992 1644,10986 1646,10979 1648,10972 1651,10966 1653,10959 1655,10953 1657,10946 1659,10939 1661,10933 1664,10926 1666,10919 1668,10913 1670,10906 1672,10899 1674,10893 1676,10886 1679,10879 1681,10873 "/>
   <path class="fil22" d="M2127 10282l-256 0 -63 195 382 0 -63 -195zm-442 575l63 -195 502 0 63 195 -628 0z"/>
  </g>
  <g id="_524195944">
   <polygon class="fil23" points="15818,10296 15818,10231 17578,10231 17578,10296 "/>
   <path class="fil23" d="M15820 10611l0 0c-28,0 -51,-23 -51,-51l0 -1559c0,-28 23,-51 51,-51 28,0 51,23 51,51l0 1559c0,28 -23,51 -51,51z"/>
   <path class="fil23" d="M15890 10611l-140 0c-18,0 -32,-15 -32,-32 0,-18 14,-32 32,-32l140 0c18,0 32,14 32,32 0,18 -15,32 -32,32z"/>
   <path class="fil23" d="M17574 10611l0 0c-28,0 -51,-23 -51,-51l0 -1559c0,-28 23,-51 51,-51 28,0 51,23 51,51l0 1559c0,28 -23,51 -51,51z"/>
   <path class="fil23" d="M17643 10611l-140 0c-18,0 -32,-15 -32,-32 0,-18 14,-32 32,-32l140 0c18,0 32,14 32,32 0,18 -14,32 -32,32z"/>
   <path class="fil24" d="M17766 9750l-2170 0 0 283 2170 0 0 -283zm0 -76l-2170 0 0 -617 2170 0 0 617z"/>
   <path class="fil25" d="M15603 9675l-6 0 0 -354 6 -13 13 -27 13 -27 13 -27 13 -27 13 -27 13 -27 13 -27 13 -27 13 -27 3 -6 10 0 13 0 13 0 13 0 13 0 13 0 13 0 13 0 13 0 13 0 13 0 13 0 13 0 13 0 13 0 13 0 13 0 13 0 13 0 13 0 13 0 13 0 13 0 12 0 -12 25 -13 27 -13 27 -13 27 -13 27 -13 27 -13 27 -13 27 -13 27 -13 27 -13 27 -13 27 -13 27 -13 27 -13 27 -13 27 -13 27 -13 27 -13 27 -13 27 -13 27 -13 27 -11 22 -2 0 -13 0 -13 0 -13 0 -13 0 -13 0 -13 0 -13 0 -13 0 -13 0 -13 0zm2154 -617l9 0 0 567 -9 18 -13 27 -2 4 -11 0 -13 0 -13 0 -13 0 -13 0 -13 0 -13 0 -13 0 -13 0 -13 0 -13 0 -13 0 -13 0 -13 0 -13 0 -13 0 -13 0 -13 0 -13 0 -13 0 -13 0 -13 0 -13 0 -12 0 12 -24 13 -27 13 -27 13 -27 13 -27 13 -27 13 -27 13 -27 13 -27 13 -27 13 -27 13 -27 13 -27 13 -27 13 -27 13 -27 13 -27 13 -27 13 -27 13 -27 13 -27 13 -27 12 -24 2 0 13 0 13 0zm-226 0l12 0 -12 25 -13 27 -13 27 -13 27 -13 27 -13 27 -13 27 -13 27 -13 27 -13 27 -13 27 -13 27 -13 27 -13 27 -13 27 -13 27 -13 27 -13 27 -13 27 -13 27 -13 27 -13 27 -11 22 -2 0 -13 0 -13 0 -13 0 -13 0 -13 0 -13 0 -13 0 -13 0 -13 0 -13 0 -13 0 -13 0 -13 0 -13 0 -13 0 -13 0 -13 0 -13 0 -13 0 -13 0 -13 0 -13 0 -13 0 -7 0 7 -15 13 -27 13 -27 13 -27 13 -27 13 -27 13 -27 13 -27 13 -27 13 -27 13 -27 13 -27 13 -27 13 -27 13 -27 13 -27 13 -27 13 -27 13 -27 13 -27 13 -27 13 -27 13 -27 3 -6 10 0 13 0 13 0 13 0 13 0 13 0 13 0 13 0 13 0 13 0 13 0 13 0 13 0 13 0 13 0 13 0 13 0 13 0 13 0 13 0 13 0 13 0 13 0zm-492 0l3 0 -3 7 -13 27 -13 27 -13 27 -13 27 -13 27 -13 27 -13 27 -13 27 -13 27 -13 27 -13 27 -13 27 -13 27 -13 27 -13 27 -13 27 -13 27 -13 27 -13 27 -13 27 -13 27 -13 27 -7 13 -7 0 -13 0 -13 0 -13 0 -13 0 -13 0 -13 0 -13 0 -13 0 -13 0 -13 0 -13 0 -13 0 -13 0 -13 0 -13 0 -13 0 -13 0 -13 0 -13 0 -13 0 -13 0 -13 0 -13 0 -3 0 3 -6 13 -27 13 -27 13 -27 13 -27 13 -27 13 -27 13 -27 13 -27 13 -27 13 -27 13 -27 13 -27 13 -27 13 -27 13 -27 13 -27 13 -27 13 -27 13 -27 13 -27 13 -27 13 -27 7 -15 6 0 13 0 13 0 13 0 13 0 13 0 13 0 13 0 13 0 13 0 13 0 13 0 13 0 13 0 13 0 13 0 13 0 13 0 13 0 13 0 13 0 13 0 13 0 13 0zm-505 0l8 0 -8 16 -13 27 -13 27 -13 27 -13 27 -13 27 -13 27 -13 27 -13 27 -13 27 -13 27 -13 27 -13 27 -13 27 -13 27 -13 27 -13 27 -13 27 -13 27 -13 27 -13 27 -13 27 -13 27 -2 4 -11 0 -13 0 -13 0 -13 0 -13 0 -13 0 -13 0 -13 0 -13 0 -13 0 -13 0 -13 0 -13 0 -13 0 -13 0 -13 0 -13 0 -13 0 -13 0 -13 0 -13 0 -13 0 -13 0 -12 0 12 -24 13 -27 13 -27 13 -27 13 -27 13 -27 13 -27 13 -27 13 -27 13 -27 13 -27 13 -27 13 -27 13 -27 13 -27 13 -27 13 -27 13 -27 13 -27 13 -27 13 -27 13 -27 12 -24 2 0 13 0 13 0 13 0 13 0 13 0 13 0 13 0 13 0 13 0 13 0 13 0 13 0 13 0 13 0 13 0 13 0 13 0 13 0 13 0 13 0 13 0 13 0 13 0z"/>
   <path class="fil25" d="M15596 9751l6 0 13 0 13 0 13 0 13 0 13 0 13 0 13 0 5 0 -5 10 -13 27 -13 27 -13 27 -13 27 -13 27 -13 27 -13 27 -6 13 0 -213zm2108 0l1 0 -1 1 -13 27 -13 27 -13 27 -13 27 -13 27 -13 27 -13 27 -13 27 -13 27 -13 27 -5 10 -8 0 -13 0 -13 0 -13 0 -13 0 -13 0 -13 0 -13 0 -13 0 -13 0 -13 0 -13 0 -13 0 -13 0 -13 0 -13 0 -13 0 -13 0 -13 0 -13 0 -13 0 -13 0 -13 0 -13 0 -1 0 1 -3 13 -27 13 -27 13 -27 13 -27 13 -27 13 -27 13 -27 13 -27 13 -27 13 -27 4 -9 9 0 13 0 13 0 13 0 13 0 13 0 13 0 13 0 13 0 13 0 13 0 13 0 13 0 13 0 13 0 13 0 13 0 13 0 13 0 13 0 13 0 13 0 13 0 13 0zm-505 0l5 0 -5 10 -13 27 -13 27 -13 27 -13 27 -13 27 -13 27 -13 27 -13 27 -13 27 -13 27 -1 1 -13 0 -13 0 -13 0 -13 0 -13 0 -13 0 -13 0 -13 0 -13 0 -13 0 -13 0 -13 0 -13 0 -13 0 -13 0 -13 0 -13 0 -13 0 -13 0 -13 0 -13 0 -13 0 -13 0 -10 0 10 -21 13 -27 13 -27 13 -27 13 -27 13 -27 13 -27 13 -27 13 -27 13 -27 9 -18 5 0 13 0 13 0 13 0 13 0 13 0 13 0 13 0 13 0 13 0 13 0 13 0 13 0 13 0 13 0 13 0 13 0 13 0 13 0 13 0 13 0 13 0 13 0 13 0zm-505 0l9 0 -9 19 -13 27 -13 27 -13 27 -13 27 -13 27 -13 27 -13 27 -13 27 -13 27 -9 19 -4 0 -13 0 -13 0 -13 0 -13 0 -13 0 -13 0 -13 0 -13 0 -13 0 -13 0 -13 0 -13 0 -13 0 -13 0 -13 0 -13 0 -13 0 -13 0 -13 0 -13 0 -13 0 -13 0 -13 0 -6 0 6 -12 13 -27 13 -27 13 -27 13 -27 13 -27 13 -27 13 -27 13 -27 13 -27 13 -27 0 0 13 0 13 0 13 0 13 0 13 0 13 0 13 0 13 0 13 0 13 0 13 0 13 0 13 0 13 0 13 0 13 0 13 0 13 0 13 0 13 0 13 0 13 0 13 0zm-492 0l0 0 0 1 -13 27 -13 27 -13 27 -13 27 -13 27 -13 27 -13 27 -13 27 -13 27 -13 27 -5 10 -8 0 -13 0 -13 0 -13 0 -13 0 -13 0 -13 0 -13 0 -13 0 -13 0 -13 0 -13 0 -13 0 -13 0 -13 0 -13 0 -13 0 -13 0 -13 0 -13 0 -13 0 -13 0 -13 0 -13 0 -1 0 1 -3 13 -27 13 -27 13 -27 13 -27 13 -27 13 -27 13 -27 13 -27 13 -27 13 -27 4 -9 9 0 13 0 13 0 13 0 13 0 13 0 13 0 13 0 13 0 13 0 13 0 13 0 13 0 13 0 13 0 13 0 13 0 13 0 13 0 13 0 13 0 13 0 13 0 13 0z"/>
  </g>
  <g id="_519661256">
   <path class="fil26" d="M12018 9287c-35,44 -64,55 -72,92 -8,37 65,84 89,32 66,-142 87,-95 87,-95l-104 -29z"/>
   <path class="fil24" d="M12378 9173c-88,-215 -200,-445 -242,-468 56,150 150,306 150,306l-225 396 -65 -97 168 -356c0,0 -265,-385 -119,-535 0,0 34,-33 54,-47 109,-77 216,-73 216,-73 0,0 335,15 559,646 -191,138 -278,148 -497,230z"/>
   <path class="fil26" d="M12165 8292c21,56 70,117 67,150 -3,38 -65,63 -79,49 -39,-36 -72,-108 -67,-111 7,-6 80,-88 80,-88z"/>
   <path class="fil26" d="M11881 8252c67,105 236,233 297,89 61,-143 -6,-272 -6,-272 0,0 -458,-297 -291,182z"/>
   <path class="fil27" d="M12112 8259c-10,-54 54,-109 66,-56 14,61 -11,59 -9,81 3,28 12,36 15,44 128,-95 35,-375 -98,-408 -64,-32 -152,-59 -245,47 -81,93 -26,166 -10,301 183,-26 173,-107 228,-107 31,0 44,103 53,98z"/>
   <path class="fil28" d="M12805 8767l10 -9c0,0 2,1 5,5 2,2 4,4 7,7 2,2 4,5 6,7 2,2 4,5 5,7 2,2 3,5 5,8 2,2 3,5 5,8 1,2 3,5 4,8l4 8c1,3 3,5 4,8l4 8 4 8 3 8 3 8 3 8 3 8 3 8 3 8 3 8 2 8 2 8 2 8 2 8 2 8 2 8 2 8 2 8 2 8 2 8 2 8 2 8 1 8 1 8 1 8 1 8 1 8 1 9 1 9 1 9 1 9 1 9 1 6 0 3 1 9 1 9 1 9 1 9 1 9 1 9 1 9 1 9 1 9 1 9 1 9 1 9 1 9 1 9 1 9 1 9 1 9 1 9 1 9 1 9 1 9 1 9 1 9 1 9 1 9 1 9 1 9 1 9 1 9 1 9 1 9 1 9 1 9 1 9 1 9 1 9 1 9 1 9 1 9 1 9 1 9 1 9 1 9 1 9 1 9 1 9 1 9 1 9 1 9 1 9 1 9 1 9 1 9 1 8 1 9 1 8 1 8 1 9 1 8 1 9 1 8 1 8 1 8 1 8 1 8 1 8 1 8 1 8 1 8 1 8 1 8 1 8 1 8 1 8 1 8 1 8 1 8 1 8 0 1 3 7 3 8 3 8 3 8 3 8 3 8 3 8 3 8 3 8 3 8 3 8 3 8 3 8 3 8 3 8 3 8 3 8 3 8 3 8 3 8 3 8 3 8 3 8 3 8 3 8 3 8 3 8 3 8 3 8 3 8 3 8 3 8 3 8 3 8 3 8 3 8 3 8 3 8 3 8 3 8 3 8 3 8 3 8 3 8 3 8 3 8 3 8 3 8 3 8 3 8 3 8 3 8 3 8 3 8 3 8 3 8 3 8 3 8 3 8 3 8 3 8 3 8 3 8 3 8 3 8 3 8 3 8 3 8 3 8 3 8 3 8 3 8 3 8 3 8 3 8 3 8 3 8 3 8 3 8 3 8 3 8 3 8 3 8 3 8 3 8 3 8 3 8 3 8 3 8 3 8 3 8 3 8 3 8 22 64 -162 33 -25 -55 -4 -8 -4 -8 -4 -8 -4 -8 -4 -8 -4 -8 -4 -8 -4 -8 -4 -8 -4 -8 -4 -8 -4 -8 -4 -8 -4 -8 -4 -8 -4 -8 -4 -8 -4 -8 -4 -8 -4 -8 -4 -8 -4 -8 -4 -8 -4 -8 -4 -8 -4 -8 -4 -8 -4 -8 -4 -8 -4 -8 -4 -8 -4 -8 -4 -8 -4 -8 -4 -8 -4 -8 -4 -8 -4 -8 -4 -8 -4 -8 -4 -8 -4 -8 -4 -8 -4 -8 -4 -8 -4 -8 -4 -8 -4 -8 -4 -8 -4 -8 -4 -8 -4 -8 -4 -8 -4 -8 -4 -8 -4 -8 -4 -8 -4 -8 -4 -8 -4 -8 -4 -8 -4 -8 -4 -8 -4 -8 -4 -8 -4 -8 -4 -8 -4 -8 -4 -8 -4 -8 -4 -8 -4 -8 -4 -8 -4 -8 -4 -8 -4 -8 -4 -8 -4 -8 -4 -8 -4 -8 -4 -8 -4 -8 -4 -8 -4 -8 -4 -8 -4 -8 -4 -8 -4 -8 -4 -8 -4 -8 -4 -8 -1 -1 -2 -7 -3 -8 -3 -8 -3 -8 -3 -8 -3 -8 -3 -8 -3 -8 -3 -8 -3 -8 -3 -8 -3 -8 -3 -8 -3 -8 -3 -8 -3 -8 -3 -8 -3 -8 -3 -8 -3 -8 -3 -8 -3 -8 -3 -8 -3 -8 -3 -8 -3 -8 -3 -8 -3 -8 -3 -8 -3 -8 -3 -8 -3 -8 -3 -8 -3 -8 -3 -8 -3 -8 -3 -8 -3 -8 -3 -8 -3 -8 -3 -8 -3 -8 -3 -8 -3 -8 -3 -8 -3 -8 -3 -8 -3 -8 -3 -8 -3 -8 -3 -8 -3 -8 -3 -8 -3 -8 -3 -8 -3 -8 -3 -8 -3 -8 -3 -8 -3 -8 -3 -8 -3 -8 -3 -8 -3 -8 -3 -8 -3 -8 -3 -8 -1 -2 0 2 -1 9 -1 9 -1 9 -1 9 -1 9 -1 9 -1 9 -1 9 -1 9 -1 9 -1 9 -1 9 -1 9 -1 9 -1 9 -1 9 -1 9 -1 9 -1 9 -1 9 -1 9 -1 9 -1 9 -1 9 -1 9 -1 9 -1 9 -1 9 -1 9 -1 9 -1 9 -1 9 -1 9 -1 9 -1 9 -1 9 -1 9 -1 9 -1 9 -1 9 -1 9 -1 9 -1 9 -1 9 -1 9 -1 9 -1 9 -1 9 -1 9 -1 9 -1 9 -1 9 -1 9 -1 9 -1 9 -1 9 -1 9 -1 9 -1 9 -1 9 -1 9 -1 9 0 0 0 9 0 9 0 9 0 9 0 9 0 9 0 9 0 9 0 9 0 9 0 9 0 9 0 9 0 9 0 9 0 9 0 9 0 9 0 9 0 9 0 9 0 9 0 9 0 9 0 9 0 9 0 9 0 9 0 9 0 9 0 9 0 9 0 9 0 9 0 9 0 9 0 9 0 9 0 9 0 9 0 9 0 9 0 9 0 9 0 9 0 9 0 9 0 9 0 9 0 9 0 9 0 9 0 9 0 9 0 9 0 9 0 9 0 9 0 9 0 9 0 9 0 9 0 9 0 9 0 9 0 9 0 9 0 9 0 9 0 9 0 9 0 9 0 9 0 9 0 9 0 9 0 9 0 9 0 9 0 9 0 9 0 9 0 9 0 9 0 9 0 9 0 9 0 9 0 9 0 2 -9 0 -34 0 -35 0 -35 0 -35 0 -28 0 0 -2 -1 -9 -1 -8 -1 -9 -1 -9 -1 -9 -1 -9 -1 -9 -1 -9 -1 -9 -1 -9 -1 -9 -1 -9 -1 -9 -1 -9 -1 -9 -1 -9 -1 -9 -1 -9 -1 -9 -1 -9 -1 -9 -1 -9 -1 -9 -1 -9 -1 -9 -1 -9 -1 -9 -1 -9 -1 -9 -1 -9 -1 -9 -1 -9 -1 -9 -1 -9 -1 -9 -1 -9 -1 -9 -1 -9 -1 -9 -1 -9 -1 -9 -1 -9 -1 -9 -1 -8 -1 -9 -1 -9 -1 -9 -1 -9 -1 -8 -1 -9 -1 -9 -1 -9 -1 -9 -1 -9 -1 -9 -1 -9 -1 -9 -1 -9 -1 -9 -1 -9 -1 -9 -1 -9 -1 -9 -1 -9 -1 -8 -1 -9 -1 -9 -1 -9 -1 -9 -1 -9 -1 -9 -1 -9 -1 -8 -1 -9 -1 -9 -1 -8 -1 -9 -1 -9 -1 -9 -1 -9 -1 -8 -1 -9 -1 -9 -1 -9 -1 -9 -1 -9 -1 -9 -1 -9 -1 -9 -1 -9 -1 -9 -1 -9 -1 -4 1 -5 1 -9 1 -9 1 -9 1 -9 1 -9 1 -9 1 -9 1 -9 1 -9 1 -9 1 -9 1 -9 1 -9 1 -9 1 -9 1 -9 1 -9 1 -9 1 -9 1 -9 1 -9 1 -9 1 -9 1 -9 1 -9 1 -9 1 -9 1 -9 1 -9 1 -9 1 -9 1 -9 1 -9 1 -9 1 -9 1 -9 1 -9 1 -9 1 -9 1 -9 1 -9 1 -9 1 -9 1 -9 1 -9 1 -9 1 -9 1 -9 1 -9 1 -9 1 -9 1 -9 1 -9 1 -9 1 -9 1 -9 1 -9 1 -9 1 -9 0 -9 0 -9 0 -9 0 -9 0 -9 0 -9 0 -9 0 -9 0 -9 0 -9 0 -9 0 -9 0 -9 0 -9 0 -9 0 -5 -1 -4 -2 -8 -2 -8 -2 -8 -2 -8 -2 -8 -2 -8 -2 -8 -2 -8 -2 -8 -2 -8c-1,-3 -2,-6 -3,-8 -1,-3 -2,-6 -3,-8 -2,-4 -3,-6 -4,-8 -3,-4 -7,-3 -13,-6 -3,-1 -6,-3 -10,-6 -2,-2 -5,-4 -8,-7 -2,-2 -3,-3 -5,-5l-2 -2 -7 -7 -6 -7c-2,-2 -4,-5 -6,-7l-6 -7 -6 -7 -6 -7c-2,-2 -4,-5 -6,-7l-5 -7 -5 -7 -5 -7 -5 -8 -5 -8 -5 -8 -5 -8 -5 -8 -4 -8 -4 -8 -4 -8 -4 -8 -4 -8 -4 -8 -4 -8 -4 -8 -4 -8 -4 -8 -4 -8 -3 -8 -3 -8 -3 -8 -3 -8 -3 -8 -3 -8 -3 -8 -3 -8 -3 -8 -3 -8 -3 -8 -3 -8 -3 -8 -3 -8 -3 -8 -3 -8 -3 -8 -2 -8 -2 -8 -2 -8 -2 -8 -2 -8 -2 -8 -2 -8 -2 -8 -2 -8 -2 -8 -2 -8 -2 -8 -2 -8 -2 -8 -2 -8 -2 -8c-19,-88 -24,-150 -24,-150l40 -24c0,0 25,78 52,156l3 8 3 8 3 8 3 8 3 8 3 8 3 8 3 8 3 8 3 8 3 8 3 8 3 8 3 8 3 8 4 8c1,3 3,5 4,8 1,3 3,5 4,8 2,3 3,6 5,8 2,3 4,5 5,5 1,0 2,1 3,1 7,2 14,4 21,3 13,0 26,-4 38,-10 9,-4 18,-10 25,-15 6,-5 12,-9 16,-13 6,-5 9,-8 9,-8l-1 -2 -3 -8 -3 -8 -3 -8 -3 -8 -3 -8 -3 -8 -2 -8 -2 -8 -2 -8 -2 -8 -2 -8 -2 -8 -2 -8 -2 -8 -2 -8 -2 -8 -2 -8 -2 -8c-14,-63 -23,-130 -27,-200l46 -17c18,80 37,144 59,197l3 8 3 8 4 8 4 8 4 8 4 8 4 8 4 8 4 8 4 8 4 8 5 8 5 8 5 8 5 8 5 8 5 7 5 7 5 7 6 7 6 7 6 7 6 7 6 7 6 7 6 7 6 7 6 7 7 7 7 7 7 7 7 7 7 7 7 7 7 7 7 7 7 7 7 7 7 7 6 7 6 7 6 7 6 7 6 7 6 7 6 7 6 7 6 7 6 7 6 7 6 7 6 7 5 7 5 7 5 7 3 4 9 -7 15 -13 15 -13 15 -13 15 -13 15 -13 15 -13 15 -13 15 -13 15 -13 15 -13z"/>
   <path class="fil27" d="M13131 10604c0,0 -271,145 -255,178 16,33 467,-77 480,-103 13,-26 -62,-108 -62,-108l-162 33z"/>
   <path class="fil27" d="M12566 10628l-175 0c0,0 -271,106 -258,135 12,29 447,5 461,-24 14,-29 -27,-111 -27,-111z"/>
   <path class="fil12" d="M12240 8106c-251,59 -438,109 -438,109 -20,3 -55,-261 130,-315 260,-76 308,206 308,206z"/>
   <path class="fil12" d="M11787 8171c-162,212 211,27 242,-14l-242 14z"/>
   <polygon class="fil29" points="12294,10428 12294,10428 11831,10428 11831,10428 11830,10424 11830,10421 11829,10418 11829,10415 11828,10412 11828,10409 11827,10406 11827,10402 11826,10399 11826,10396 11825,10393 11825,10390 11824,10387 11824,10383 11823,10380 11823,10377 11822,10374 11822,10371 11821,10368 11821,10365 11820,10361 11820,10358 11819,10355 11819,10352 11818,10349 11818,10346 11817,10342 11817,10339 11816,10336 11816,10333 11815,10330 11815,10327 11814,10324 11814,10320 11813,10317 11813,10314 11812,10311 11812,10308 11811,10305 11811,10301 11810,10298 11810,10295 11809,10292 11809,10289 11808,10286 11808,10283 11807,10279 11807,10276 11806,10273 11806,10270 11805,10267 11805,10264 11804,10260 11804,10257 11803,10254 11803,10251 11802,10248 11802,10245 11801,10241 11801,10238 11800,10235 11800,10232 11799,10229 11799,10226 11798,10223 11798,10219 11797,10216 11797,10213 11796,10210 11796,10207 11795,10204 11795,10200 11794,10197 11794,10194 11793,10191 11793,10188 11792,10185 11792,10182 11791,10178 11791,10175 11790,10172 11790,10169 11789,10166 11789,10163 11788,10159 11788,10156 11787,10153 11787,10150 11786,10147 11786,10144 11785,10141 11785,10137 11784,10134 11784,10131 11783,10128 11783,10125 11782,10122 11782,10118 11781,10115 11781,10112 11780,10109 11780,10106 11779,10103 11779,10100 11778,10096 11778,10093 11777,10090 11777,10087 11776,10084 11776,10081 11776,10077 11775,10074 11775,10071 11774,10068 11774,10065 11773,10062 11773,10059 11772,10055 11772,10052 11771,10049 11771,10046 11770,10043 11770,10040 11769,10036 11769,10033 11768,10030 11768,10027 11767,10024 11767,10021 11766,10018 11766,10014 11765,10011 11765,10008 11764,10005 11764,10002 11763,9999 11763,9995 11762,9992 11762,9989 11761,9986 11761,9983 11760,9980 11760,9977 11759,9973 11759,9970 11758,9967 11758,9964 11757,9961 11757,9958 11756,9954 11756,9951 11755,9948 11755,9945 11754,9942 11754,9939 11753,9935 11753,9932 11752,9929 11752,9926 11751,9923 11751,9920 11750,9917 11750,9913 11749,9910 11749,9907 11748,9904 11748,9901 11747,9898 11747,9894 11746,9891 11746,9888 11745,9885 11745,9882 11744,9879 11744,9876 11743,9872 11743,9869 11742,9866 11742,9863 11741,9860 11741,9857 11740,9853 11740,9850 11739,9847 11739,9844 11738,9841 11738,9838 11737,9835 11737,9831 11736,9828 11736,9825 11735,9822 11735,9819 11734,9816 11734,9812 11734,9812 12391,9812 12391,9812 12391,9813 12390,9816 12390,9819 12389,9822 12389,9825 12388,9828 12388,9831 12387,9835 12387,9838 12386,9841 12386,9844 12385,9847 12385,9850 12384,9853 12384,9857 12383,9860 12383,9863 12382,9866 12382,9869 12381,9872 12381,9876 12380,9879 12380,9882 12379,9885 12379,9888 12378,9891 12378,9894 12377,9898 12377,9901 12376,9904 12376,9907 12375,9910 12375,9913 12374,9917 12374,9920 12373,9923 12373,9926 12372,9929 12372,9932 12371,9935 12371,9939 12370,9942 12370,9945 12369,9948 12369,9951 12368,9954 12368,9958 12367,9961 12367,9964 12366,9967 12366,9970 12365,9973 12365,9977 12364,9980 12364,9983 12363,9986 12363,9989 12362,9992 12362,9995 12361,9999 12361,10002 12360,10005 12360,10008 12359,10011 12359,10014 12358,10018 12358,10021 12357,10024 12357,10027 12356,10030 12356,10033 12355,10036 12355,10040 12354,10043 12354,10046 12353,10049 12353,10052 12352,10055 12352,10059 12351,10062 12351,10065 12350,10068 12350,10071 12349,10074 12349,10077 12348,10081 12348,10084 12347,10087 12347,10090 12346,10093 12346,10096 12345,10100 12345,10103 12344,10106 12344,10109 12343,10112 12343,10115 12342,10118 12342,10122 12341,10125 12341,10128 12340,10131 12340,10134 12339,10137 12339,10141 12338,10144 12338,10147 12337,10150 12337,10153 12337,10156 12336,10159 12336,10163 12335,10166 12335,10169 12334,10172 12334,10175 12333,10178 12333,10182 12332,10185 12332,10188 12331,10191 12331,10194 12330,10197 12330,10200 12329,10204 12329,10207 12328,10210 12328,10213 12327,10216 12327,10219 12326,10223 12326,10226 12325,10229 12325,10232 12324,10235 12324,10238 12323,10241 12323,10245 12322,10248 12322,10251 12321,10254 12321,10257 12320,10260 12320,10264 12319,10267 12319,10270 12318,10273 12318,10276 12317,10279 12317,10283 12316,10286 12316,10289 12315,10292 12315,10295 12314,10298 12314,10301 12313,10305 12313,10308 12312,10311 12312,10314 12311,10317 12311,10320 12310,10324 12310,10327 12309,10330 12309,10333 12308,10336 12308,10339 12307,10342 12307,10346 12306,10349 12306,10352 12305,10355 12305,10358 12304,10361 12304,10365 12303,10368 12303,10371 12302,10374 12302,10377 12301,10380 12301,10383 12300,10387 12300,10390 12299,10393 12299,10396 12298,10399 12298,10402 12297,10406 12297,10409 12296,10412 12296,10415 12295,10418 12295,10421 12294,10424 "/>
   <path class="fil30" d="M12391 9827c-6,0 -12,-4 -15,-10 -2,-4 -164,-391 -323,-391 -159,0 -303,386 -305,390 -3,8 -12,12 -20,9 -8,-3 -12,-12 -9,-20 6,-17 153,-411 334,-411 180,0 345,393 352,410 3,8 -1,17 -9,21l-6 1z"/>
   <path class="fil26" d="M12115 9314c-36,44 -92,56 -101,93 -9,37 36,117 104,41 105,-116 48,-61 48,-61l-51 -72z"/>
   <path class="fil24" d="M12316 8298c386,19 254,691 209,758 -44,68 -388,376 -388,376l-55 -89c0,0 223,-285 266,-363 35,-64 29,-471 29,-471l-61 -211z"/>
  </g>
  <path class="fil31" d="M4576 3176l188 0 0 498c0,75 5,122 14,140 9,18 26,27 50,27 24,0 41,-9 50,-28 9,-19 14,-65 14,-139l0 -498 184 0 0 507c0,57 -2,100 -7,129 -5,28 -13,53 -25,74 -19,36 -46,62 -82,79 -36,17 -82,25 -140,25 -53,0 -96,-8 -129,-23 -33,-16 -60,-41 -79,-75 -14,-24 -24,-56 -30,-94 -6,-38 -8,-102 -8,-193l0 -427zm629 794l0 -794 193 0 154 490c-6,-82 -11,-154 -14,-213 -3,-60 -4,-110 -4,-151l0 -125 166 0 0 794 -194 0 -155 -505c7,66 12,129 16,191 4,62 5,122 5,180l0 134 -167 0zm812 -646l0 501c4,1 7,1 11,1 4,0 9,0 16,0 20,0 37,-3 50,-8 13,-5 24,-14 32,-26 7,-10 11,-28 14,-56 3,-28 4,-81 4,-162l0 -36c0,-66 -1,-111 -4,-134 -2,-23 -7,-39 -14,-48 -7,-11 -18,-20 -32,-25 -14,-5 -32,-8 -53,-8 -7,0 -12,0 -15,0 -4,0 -7,1 -10,1zm-187 646l0 -794 205 0c75,0 130,7 166,19 36,13 65,35 86,66 17,24 28,56 35,95 7,39 10,111 10,217 0,106 -4,178 -10,217 -7,38 -18,70 -35,95 -21,31 -50,53 -86,66 -36,13 -91,19 -166,19l-205 0zm615 0l0 -794 432 0 0 154 -247 0 0 146 228 0 0 159 -228 0 0 173 247 0 0 162 -432 0zm730 -463c3,0 7,0 12,1 5,0 9,1 11,1 38,0 66,-8 82,-23 16,-15 24,-42 24,-78 0,-34 -8,-58 -24,-72 -16,-14 -43,-21 -82,-21 -2,0 -6,0 -11,1 -5,0 -9,1 -12,1l0 193zm-184 463l0 -794 209 0c68,0 118,3 149,10 31,6 56,17 75,33 23,19 39,41 51,69 11,27 17,59 17,97 0,46 -8,84 -24,115 -16,31 -41,56 -74,76 57,26 88,86 91,181l0 2c0,10 1,24 1,43 1,89 16,145 44,168l-217 0c-5,-17 -8,-34 -11,-52 -2,-18 -3,-37 -3,-58 0,-13 0,-28 1,-46 1,-18 1,-30 1,-35 0,-48 -6,-82 -19,-100 -13,-18 -36,-27 -68,-27l-38 0 0 318 -184 0zm1088 -646l0 501c4,1 7,1 11,1 4,0 9,0 16,0 20,0 37,-3 50,-8 13,-5 24,-14 32,-26 7,-10 11,-28 14,-56 3,-28 4,-81 4,-162l0 -36c0,-66 -1,-111 -4,-134 -2,-23 -7,-39 -14,-48 -7,-11 -18,-20 -32,-25 -14,-5 -32,-8 -53,-8 -7,0 -12,0 -15,0 -4,0 -7,1 -10,1zm-187 646l0 -794 205 0c75,0 130,7 166,19 36,13 65,35 86,66 17,24 28,56 35,95 7,39 10,111 10,217 0,106 -4,178 -10,217 -7,38 -18,70 -35,95 -21,31 -50,53 -86,66 -36,13 -91,19 -166,19l-205 0zm615 0l0 -794 432 0 0 154 -247 0 0 146 228 0 0 159 -228 0 0 173 247 0 0 162 -432 0zm668 0l-177 -794 196 0 69 417c3,19 7,43 11,74 4,30 8,63 12,99l2 -10c9,-83 16,-137 20,-161l70 -418 196 0 -180 794 -216 0zm470 0l0 -794 432 0 0 154 -247 0 0 146 228 0 0 159 -228 0 0 173 247 0 0 162 -432 0zm955 0l-409 0 0 -794 186 0 0 633 223 0 0 160zm371 -325l0 -143c0,-88 -6,-142 -17,-163 -11,-21 -31,-31 -61,-31 -28,0 -48,11 -59,32 -11,21 -17,75 -17,162l0 143c0,86 5,140 17,162 11,22 31,33 60,33 29,0 49,-11 60,-32 11,-21 17,-75 17,-162zm-342 -72c0,-96 4,-165 10,-209 7,-44 18,-78 34,-103 23,-35 52,-61 89,-78 37,-17 81,-26 132,-26 52,0 96,8 132,26 36,17 66,43 88,78 17,25 28,60 35,104 7,44 10,113 10,209 0,95 -4,164 -10,208 -7,44 -18,79 -35,104 -22,35 -52,61 -88,78 -37,17 -81,26 -132,26 -52,0 -96,-9 -132,-26 -37,-17 -67,-43 -89,-78 -16,-25 -27,-59 -34,-103 -7,-44 -10,-114 -10,-209zm832 -55c3,0 6,1 10,1 4,0 9,1 15,1 37,0 64,-9 80,-26 17,-17 25,-45 25,-84 0,-32 -9,-55 -26,-69 -18,-14 -47,-21 -88,-21l-16 0 0 198zm-187 452l0 -794 183 0c67,0 117,3 149,9 32,6 59,16 81,29 29,18 51,44 67,80 15,35 23,77 23,126 0,80 -21,142 -64,183 -42,42 -105,63 -187,63l-65 0 0 304 -187 0zm601 0l0 -794 260 0 71 338c0,2 3,23 9,64 5,41 11,81 17,122 4,-31 10,-68 17,-114 7,-45 11,-70 12,-75l70 -335 257 0 0 794 -175 0 16 -613 -126 613 -141 0 -126 -613 16 613 -175 0zm842 0l0 -794 432 0 0 154 -247 0 0 146 228 0 0 159 -228 0 0 173 247 0 0 162 -432 0zm547 0l0 -794 193 0 154 490c-6,-82 -11,-154 -14,-213 -3,-60 -4,-110 -4,-151l0 -125 166 0 0 794 -194 0 -155 -505c7,66 12,129 16,191 4,62 5,122 5,180l0 134 -167 0zm722 0l0 -640 -149 0 0 -154 491 0 0 154 -156 0 0 640 -186 0z"/>
  <path class="fil32" d="M7079 2838l0 -563 -131 0 0 -136 432 0 0 136 -137 0 0 563 -164 0zm368 0l0 -699 164 0 0 264 131 0 0 -264 160 0 0 699 -160 0 0 -290 -131 0 0 290 -164 0zm568 0l0 -699 164 0 0 699 -164 0zm255 -237l150 0 0 20c0,39 4,66 14,81 9,16 24,24 46,24 17,0 31,-6 41,-18 10,-12 15,-28 15,-49 0,-34 -24,-67 -73,-98 -8,-5 -14,-10 -18,-12l-8 -5c-66,-44 -106,-77 -122,-100 -11,-17 -20,-36 -26,-57 -6,-21 -9,-44 -9,-69 0,-61 18,-109 53,-144 35,-35 84,-52 146,-52 68,0 119,17 155,51 35,34 53,83 53,148 0,3 0,7 0,11 0,5 0,9 0,11l-147 0 0 -9c0,-30 -5,-53 -14,-69 -10,-16 -23,-24 -41,-24 -15,0 -28,6 -37,17 -9,11 -14,26 -14,44 0,30 26,61 80,94 10,6 17,11 22,15 4,2 10,6 18,11 57,36 94,67 110,92 10,16 18,34 23,55 5,20 8,43 8,66 0,70 -18,124 -55,162 -36,38 -88,57 -155,57 -71,0 -124,-18 -159,-54 -35,-36 -53,-90 -53,-161 0,-4 0,-9 0,-14 0,-5 1,-13 2,-24zm922 -161c2,0 5,1 8,1 3,0 8,0 13,0 33,0 56,-8 71,-23 15,-15 22,-40 22,-74 0,-28 -8,-48 -23,-61 -15,-12 -41,-19 -77,-19l-14 0 0 174zm-164 398l0 -699 161 0c59,0 103,3 131,8 28,5 52,14 71,26 26,16 45,39 59,70 13,31 20,68 20,111 0,71 -19,125 -56,161 -37,37 -92,55 -164,55l-58 0 0 268 -164 0zm630 -260l94 0 -47 -305 -47 305zm-202 260l152 -699 194 0 151 699 -163 0 -20 -134 -128 0 -20 134 -165 0zm990 -383l0 383 -113 0 -7 -44c-16,19 -34,33 -54,42 -20,9 -42,14 -67,14 -28,0 -55,-5 -79,-16 -24,-11 -45,-26 -63,-46 -22,-24 -38,-57 -47,-99 -9,-41 -14,-111 -14,-210 0,-70 3,-127 10,-169 6,-42 16,-74 29,-95 19,-31 45,-54 77,-69 32,-15 70,-23 114,-23 69,0 120,19 155,56 35,37 52,93 52,167 0,3 0,7 0,13 0,6 0,10 0,13l-155 0 0 -9c0,-40 -4,-69 -13,-86 -9,-17 -23,-26 -42,-26 -23,0 -39,11 -48,32 -9,21 -13,71 -13,149l0 69 0 48c0,78 4,127 12,147 8,20 23,31 45,31 22,0 38,-9 48,-27 10,-18 15,-47 15,-87 0,-9 0,-16 0,-21 0,-5 0,-10 -1,-14l-64 0 0 -122 222 0zm106 383l0 -699 380 0 0 136 -217 0 0 128 201 0 0 140 -201 0 0 152 217 0 0 142 -380 0zm730 0l0 -699 164 0 0 699 -164 0zm255 -237l150 0 0 20c0,39 4,66 14,81 9,16 24,24 46,24 17,0 31,-6 41,-18 10,-12 15,-28 15,-49 0,-34 -24,-67 -73,-98 -8,-5 -14,-10 -18,-12l-8 -5c-66,-44 -106,-77 -122,-100 -11,-17 -20,-36 -26,-57 -6,-21 -9,-44 -9,-69 0,-61 18,-109 53,-144 35,-35 84,-52 146,-52 68,0 119,17 155,51 35,34 53,83 53,148 0,3 0,7 0,11 0,5 0,9 0,11l-147 0 0 -9c0,-30 -5,-53 -14,-69 -10,-16 -23,-24 -41,-24 -15,0 -28,6 -37,17 -9,11 -14,26 -14,44 0,30 26,61 80,94 10,6 17,11 22,15 4,2 10,6 18,11 57,36 94,67 110,92 10,16 18,34 23,55 5,20 8,43 8,66 0,70 -18,124 -55,162 -36,38 -88,57 -155,57 -71,0 -124,-18 -159,-54 -35,-36 -53,-90 -53,-161 0,-4 0,-9 0,-14 0,-5 1,-13 2,-24z"/>
  <g id="_519667400">
   <path class="fil8" d="M14700 10575l-748 0 331 -1024c13,-41 72,-41 85,0l331 1024z"/>
   <path class="fil0" d="M14771 10647l-891 0c-20,0 -36,-16 -36,-36 0,-20 16,-36 36,-36l891 0c20,0 36,16 36,36 0,20 -16,36 -36,36z"/>
   <polygon class="fil9" points="14458,9827 14194,9827 14196,9820 14455,9820 "/>
   <polygon class="fil9" points="14460,9834 14192,9834 14194,9827 14458,9827 "/>
   <polygon class="fil9" points="14462,9840 14190,9840 14192,9834 14460,9834 "/>
   <polygon class="fil9" points="14464,9847 14187,9847 14190,9840 14462,9840 "/>
   <polygon class="fil10" points="14466,9854 14185,9854 14187,9847 14464,9847 "/>
   <polygon class="fil10" points="14468,9860 14183,9860 14185,9854 14466,9854 "/>
   <polygon class="fil10" points="14470,9867 14181,9867 14183,9860 14468,9860 "/>
   <polygon class="fil10" points="14473,9874 14179,9874 14181,9867 14470,9867 "/>
   <polygon class="fil10" points="14475,9880 14177,9880 14179,9874 14473,9874 "/>
   <polygon class="fil10" points="14477,9887 14175,9887 14177,9880 14475,9880 "/>
   <polygon class="fil11" points="14479,9893 14172,9893 14175,9887 14477,9887 "/>
   <polygon class="fil11" points="14481,9900 14170,9900 14172,9893 14479,9893 "/>
   <polygon class="fil11" points="14483,9907 14168,9907 14170,9900 14481,9900 "/>
   <polygon class="fil11" points="14485,9913 14166,9913 14168,9907 14483,9907 "/>
   <polygon class="fil11" points="14488,9920 14164,9920 14166,9913 14485,9913 "/>
   <polygon class="fil11" points="14490,9927 14162,9927 14164,9920 14488,9920 "/>
   <polygon class="fil12" points="14492,9933 14159,9933 14162,9927 14490,9927 "/>
   <polygon class="fil12" points="14494,9940 14157,9940 14159,9933 14492,9933 "/>
   <polygon class="fil12" points="14496,9947 14155,9947 14157,9940 14494,9940 "/>
   <polygon class="fil12" points="14498,9953 14153,9953 14155,9947 14496,9947 "/>
   <polygon class="fil12" points="14501,9960 14151,9960 14153,9953 14498,9953 "/>
   <polygon class="fil12" points="14503,9967 14149,9967 14151,9960 14501,9960 "/>
   <polygon class="fil12" points="14505,9973 14147,9973 14149,9967 14503,9967 "/>
   <polygon class="fil12" points="14507,9980 14144,9980 14147,9973 14505,9973 "/>
   <polygon class="fil13" points="14509,9986 14142,9986 14144,9980 14507,9980 "/>
   <polygon class="fil13" points="14511,9993 14140,9993 14142,9986 14509,9986 "/>
   <polygon class="fil13" points="14513,10000 14138,10000 14140,9993 14511,9993 "/>
   <polygon class="fil13" points="14516,10006 14136,10006 14138,10000 14513,10000 "/>
   <polygon class="fil14" points="14134,10013 14136,10006 14516,10006 14518,10013 14520,10020 14522,10026 14524,10033 14526,10040 14528,10046 14531,10053 14533,10060 14535,10066 14537,10073 14539,10079 14541,10086 14544,10093 14546,10099 14548,10106 14550,10113 14552,10119 14554,10126 14556,10133 14559,10139 14561,10146 14563,10153 14565,10159 14567,10166 14569,10172 14571,10179 14574,10186 14576,10192 14076,10192 14078,10186 14080,10179 14082,10172 14084,10166 14086,10159 14089,10153 14091,10146 14093,10139 14095,10133 14097,10126 14099,10119 14101,10113 14104,10106 14106,10099 14108,10093 14110,10086 14112,10079 14114,10073 14116,10066 14119,10060 14121,10053 14123,10046 14125,10040 14127,10033 14129,10026 14132,10020 "/>
   <polygon class="fil15" points="14578,10199 14073,10199 14076,10192 14576,10192 "/>
   <polygon class="fil16" points="14580,10206 14071,10206 14073,10199 14578,10199 "/>
   <polygon class="fil16" points="14582,10212 14069,10212 14071,10206 14580,10206 "/>
   <polygon class="fil16" points="14584,10219 14067,10219 14069,10212 14582,10212 "/>
   <polygon class="fil16" points="14587,10226 14065,10226 14067,10219 14584,10219 "/>
   <polygon class="fil17" points="14589,10232 14063,10232 14065,10226 14587,10226 "/>
   <polygon class="fil17" points="14591,10239 14061,10239 14063,10232 14589,10232 "/>
   <polygon class="fil17" points="14593,10246 14058,10246 14061,10239 14591,10239 "/>
   <polygon class="fil17" points="14595,10252 14056,10252 14058,10246 14593,10246 "/>
   <polygon class="fil17" points="14597,10259 14054,10259 14056,10252 14595,10252 "/>
   <polygon class="fil17" points="14599,10265 14052,10265 14054,10259 14597,10259 "/>
   <polygon class="fil18" points="14602,10272 14050,10272 14052,10265 14599,10265 "/>
   <polygon class="fil18" points="14604,10279 14048,10279 14050,10272 14602,10272 "/>
   <polygon class="fil18" points="14606,10285 14046,10285 14048,10279 14604,10279 "/>
   <polygon class="fil18" points="14608,10292 14043,10292 14046,10285 14606,10285 "/>
   <polygon class="fil18" points="14610,10299 14041,10299 14043,10292 14608,10292 "/>
   <polygon class="fil18" points="14612,10305 14039,10305 14041,10299 14610,10299 "/>
   <polygon class="fil18" points="14614,10312 14037,10312 14039,10305 14612,10305 "/>
   <polygon class="fil18" points="14617,10319 14035,10319 14037,10312 14614,10312 "/>
   <polygon class="fil19" points="14619,10325 14033,10325 14035,10319 14617,10319 "/>
   <polygon class="fil19" points="14621,10332 14030,10332 14033,10325 14619,10325 "/>
   <polygon class="fil19" points="14623,10339 14028,10339 14030,10332 14621,10332 "/>
   <polygon class="fil19" points="14625,10345 14026,10345 14028,10339 14623,10339 "/>
   <polygon class="fil20" points="14627,10352 14024,10352 14026,10345 14625,10345 "/>
   <polygon class="fil20" points="14630,10358 14022,10358 14024,10352 14627,10352 "/>
   <polygon class="fil20" points="14632,10365 14020,10365 14022,10358 14630,10358 "/>
   <polygon class="fil20" points="14634,10372 14018,10372 14020,10365 14632,10365 "/>
   <polygon class="fil20" points="14636,10378 14015,10378 14018,10372 14634,10372 "/>
   <polygon class="fil20" points="14638,10385 14013,10385 14015,10378 14636,10378 "/>
   <polygon class="fil21" points="14640,10392 14011,10392 14013,10385 14638,10385 "/>
   <polygon class="fil21" points="14009,10398 14011,10392 14640,10392 14642,10398 14645,10405 14647,10412 14649,10418 14651,10425 14653,10432 14655,10438 14657,10445 14660,10451 14662,10458 14664,10465 14666,10471 14668,10478 14670,10485 14673,10491 14675,10498 14677,10505 14679,10511 14681,10518 14683,10525 14685,10531 14688,10538 14690,10544 14692,10551 14694,10558 14696,10564 14698,10571 14699,10574 14699,10575 13952,10575 13953,10571 13955,10564 13957,10558 13960,10551 13962,10544 13964,10538 13966,10531 13968,10525 13970,10518 13972,10511 13975,10505 13977,10498 13979,10491 13981,10485 13983,10478 13985,10471 13987,10465 13990,10458 13992,10451 13994,10445 13996,10438 13998,10432 14000,10425 14003,10418 14005,10412 14007,10405 "/>
   <path class="fil22" d="M14453 9814l-256 0 -63 195 382 0 -63 -195zm-442 575l63 -195 502 0 63 195 -628 0z"/>
  </g>
  <g id="_519654440">
   <polygon class="fil3" points="3330,11328 3330,11329 2867,11329 2867,11328 2866,11324 2866,11321 2865,11317 2865,11314 2864,11310 2863,11307 2863,11303 2862,11299 2862,11296 2861,11292 2861,11289 2860,11285 2860,11282 2859,11278 2858,11275 2858,11271 2857,11267 2857,11264 2856,11260 2856,11257 2855,11253 2854,11250 2854,11246 2853,11243 2853,11239 2852,11235 2852,11232 2851,11228 2851,11225 2850,11221 2849,11218 2849,11214 2848,11211 2848,11207 2847,11203 2847,11200 2846,11196 2846,11193 2845,11189 2844,11186 2844,11182 2843,11179 2843,11175 2842,11171 2842,11168 2841,11164 2841,11161 2840,11157 2839,11154 2839,11150 2838,11147 2838,11143 2837,11139 2837,11136 2836,11132 2835,11129 2835,11125 2834,11122 2834,11118 2833,11115 2833,11111 2832,11107 2832,11104 2831,11100 2830,11097 2830,11093 2829,11090 2829,11086 2828,11083 2828,11079 2827,11075 2827,11072 2826,11068 2825,11065 2825,11061 2824,11058 2824,11054 2823,11051 2823,11047 2822,11043 2822,11040 2821,11036 2820,11033 2820,11029 2819,11026 2819,11022 2818,11018 2818,11015 2817,11011 2816,11008 2816,11004 2815,11001 2815,10997 2814,10994 2814,10990 2813,10986 2813,10983 2812,10979 2811,10976 2811,10972 2810,10969 2810,10965 2809,10962 2809,10958 2808,10954 2808,10951 2807,10947 2806,10944 2806,10940 2805,10937 2805,10933 2804,10930 2804,10926 2803,10922 2803,10919 2802,10915 2801,10912 2801,10908 2800,10905 2800,10901 2799,10898 2799,10894 2798,10890 2797,10887 2797,10883 2796,10880 2796,10876 2795,10873 2795,10869 2794,10866 2794,10862 2793,10858 2792,10855 2792,10851 2791,10848 2791,10844 2790,10841 2790,10837 2789,10834 2789,10830 2788,10826 2787,10823 2787,10819 2786,10816 2786,10812 2785,10809 2785,10805 2784,10802 2784,10798 2783,10794 2782,10791 2782,10787 2781,10784 2781,10780 2780,10777 2780,10773 2779,10770 2778,10766 2778,10762 2777,10759 2777,10755 2776,10752 2776,10748 2775,10745 2775,10741 2774,10738 2773,10734 2773,10730 2772,10727 2772,10723 2771,10720 2771,10716 2770,10713 2770,10713 3427,10713 3427,10713 3427,10715 3426,10716 3426,10720 3425,10723 3425,10727 3424,10730 3424,10734 3423,10738 3423,10741 3422,10745 3421,10748 3421,10752 3420,10755 3420,10759 3419,10762 3419,10766 3418,10770 3418,10773 3417,10777 3416,10780 3416,10784 3415,10787 3415,10791 3414,10794 3414,10798 3413,10802 3412,10805 3412,10809 3411,10812 3411,10816 3410,10819 3410,10823 3409,10826 3409,10830 3408,10834 3407,10837 3407,10841 3406,10844 3406,10848 3405,10851 3405,10855 3404,10858 3404,10862 3403,10866 3402,10869 3402,10873 3401,10876 3401,10880 3400,10883 3400,10887 3399,10890 3399,10894 3398,10898 3397,10901 3397,10905 3396,10908 3396,10912 3395,10915 3395,10919 3394,10922 3393,10926 3393,10930 3392,10933 3392,10937 3391,10940 3391,10944 3390,10947 3390,10951 3389,10954 3388,10958 3388,10962 3387,10965 3387,10969 3386,10972 3386,10976 3385,10979 3385,10983 3384,10986 3383,10990 3383,10994 3382,10997 3382,11001 3381,11004 3381,11008 3380,11011 3380,11015 3379,11018 3378,11022 3378,11026 3377,11029 3377,11033 3376,11036 3376,11040 3375,11043 3374,11047 3374,11051 3373,11054 3373,11058 3372,11061 3372,11065 3371,11068 3371,11072 3370,11075 3369,11079 3369,11083 3368,11086 3368,11090 3367,11093 3367,11097 3366,11100 3366,11104 3365,11107 3364,11111 3364,11115 3363,11118 3363,11122 3362,11125 3362,11129 3361,11132 3361,11136 3360,11139 3359,11143 3359,11147 3358,11150 3358,11154 3357,11157 3357,11161 3356,11164 3355,11168 3355,11171 3354,11175 3354,11179 3353,11182 3353,11186 3352,11189 3352,11193 3351,11196 3350,11200 3350,11203 3349,11207 3349,11211 3348,11214 3348,11218 3347,11221 3347,11225 3346,11228 3345,11232 3345,11235 3344,11239 3344,11243 3343,11246 3343,11250 3342,11253 3342,11257 3341,11260 3340,11264 3340,11267 3339,11271 3339,11275 3338,11278 3338,11282 3337,11285 3336,11289 3336,11292 3335,11296 3335,11299 3334,11303 3334,11307 3333,11310 3333,11314 3332,11317 3331,11321 3331,11324 "/>
   <path class="fil30" d="M2824 11071c-36,0 -64,-13 -82,-39 -65,-91 10,-315 14,-324 3,-8 12,-12 20,-10 8,3 13,12 10,20 -21,60 -64,231 -18,296 13,18 31,26 57,26 164,0 589,-336 593,-340 7,-5 17,-4 22,3 5,7 4,17 -3,22 -18,14 -438,346 -613,346z"/>
  </g>
  <g id="_519655280">
   <path class="fil23" d="M3992 11373l-10 -1c-22,-6 -36,-28 -31,-51l1152 -4641c6,-22 28,-36 51,-31 22,6 36,28 31,51l-1152 4642c-5,19 -22,32 -41,32z"/>
   <path class="fil23" d="M4910 11373l-10 -1c-22,-6 -36,-28 -31,-51l1152 -4641c6,-22 28,-36 51,-31 22,6 36,28 30,51l-1152 4642c-5,19 -22,32 -41,32z"/>
   <path class="fil23" d="M5971 7030l-912 -3 0 -84 912 3 0 84zm-146 591l-912 -3 0 -84 912 3 0 84zm-146 591l-912 -3 0 -84 912 3 0 84zm-146 591l-912 -3 0 -84 912 3 0 84zm-146 591l-912 -3 0 -84 912 3 0 84zm-146 591l-912 -3 0 -84 912 3 0 84zm-146 591l-912 -3 0 -84 912 3 0 84z"/>
   <g>
    <path class="fil30" d="M5137 8863l-7 -1c-17,-4 -27,-21 -23,-38l589 -2532c2,-8 -1,-13 -4,-16 -2,-3 -7,-7 -15,-7l-319 0c-22,0 -43,-9 -59,-25 -16,-16 -24,-37 -24,-59l1 -76c1,-63 53,-115 116,-115 17,0 31,14 31,31 0,17 -14,31 -31,31 -29,0 -53,24 -53,53l-1 76c0,5 2,11 6,15 4,4 9,6 14,6l319 0c25,0 48,11 64,31 16,20 21,45 16,69l-589 2532c-3,15 -16,24 -31,24z"/>
    <path class="fil24" d="M6053 6165l-584 0c-37,0 -67,-30 -67,-67l0 -145c0,-37 30,-67 67,-67l584 0c37,0 67,30 67,67l0 145c0,37 -30,67 -67,67z"/>
   </g>
   <path class="fil26" d="M5411 7235c56,-22 86,-82 145,-74 32,5 19,98 -30,149 -12,12 -103,40 -103,40l-12 -115z"/>
   <path class="fil24" d="M5455 7205c0,0 -201,90 -311,90 -75,0 -145,-400 -304,-400 -16,97 9,184 -19,279 59,151 150,317 231,339 91,25 403,-163 403,-163l0 -145z"/>
   <path class="fil24" d="M4989 7410c-29,10 -67,-12 -55,-49 48,-150 15,-383 -66,-448 -87,-70 -212,-54 -312,-29 -122,121 -20,513 -32,947 252,-17 253,64 489,-18 -42,-133 -38,-286 -24,-404z"/>
   <path class="fil27" d="M4632 9765c0,0 318,85 310,124 -8,39 -505,33 -525,9 -20,-24 38,-127 38,-127l177 -5z"/>
   <path class="fil27" d="M4974 9139l163 36c0,0 224,76 211,108 -13,31 -377,24 -392,-8 -15,-31 17,-136 18,-136z"/>
   <path class="fil26" d="M4696 6762c-1,58 -4,64 -14,97 35,49 99,95 122,91 23,-5 -5,-43 -5,-47 0,-50 10,-73 22,-122l-125 -19z"/>
   <path class="fil33" d="M4804 6878c-2,-3 -3,-4 -3,-4 5,1 9,3 13,4 8,4 12,7 12,7 1,1 2,2 4,3 3,3 6,6 10,11 3,3 6,7 9,11 3,3 6,7 8,11 3,3 5,7 8,11 2,3 5,7 8,11 2,3 5,7 7,11 2,3 4,7 7,11 2,3 4,7 6,11 2,4 4,7 6,11 2,4 4,7 6,11 2,4 4,7 6,11 2,4 4,7 5,11 2,4 3,7 5,11 2,4 3,7 5,11 1,4 3,7 4,11 1,4 3,7 4,11 1,4 3,7 4,11 1,4 2,7 4,11 1,4 2,7 3,11 1,4 2,7 3,11l2 6 1 4c1,3 2,7 3,11 1,3 2,7 2,11l2 11 2 11 2 11 2 11 2 11 2 11 2 11 2 11 2 11 2 11 2 11 1 11 1 11 1 11 1 11 1 11 1 11 1 11 1 11 1 11 1 11 1 11 1 11 1 11 1 11 1 11 1 11 1 11 1 11 1 11 1 11 1 11 1 11 1 11 1 11 1 11 1 11 1 11 1 11 1 11 1 11 1 11 1 11 1 11 1 11 1 11 1 11 1 11 1 7 4 4 12 11 11 11 11 11 11 11 11 11 11 11 -584 2 0 -11 0 -11 0 -11 0 -11 0 -11 0 -11 0 -11 0 -11 0 -11 0 -11 0 -11 0 -11 0 -11 0 -9 13 -2 83 -11 83 -11 83 -11 3 0c0,0 1,-4 2,-10l2 -11 2 -11 1 -11 1 -11 1 -11 1 -11 1 -11 1 -11 1 -11 1 -11 1 -11 1 -11 1 -11 0 -11 0 -11 0 -11 0 -11 0 -11 0 -11 0 -11 0 -11 -1 -11 -1 -11c0,-4 -1,-7 -1,-11 0,-4 -1,-7 -1,-11 0,-4 -1,-7 -1,-11l-2 -11c-1,-4 -1,-7 -2,-11 -1,-4 -1,-7 -2,-11l-1 -7 -1 -4 -3 -11 -3 -11 -3 -11 -3 -11 -3 -11 -3 -11 -3 -11 -3 -11 -3 -11 -3 -11 -3 -11 -3 -11 -3 -11 -3 -11 -3 -11 -3 -11 -3 -11 -3 -11 -3 -11 -3 -11 -4 -11 -4 -11 -4 -11 -4 -11 -4 -11 -4 -11c-1,-4 -3,-7 -4,-11 -2,-4 -3,-7 -5,-11 -2,-4 -3,-7 -5,-11 -2,-4 -4,-8 -6,-11 -2,-4 -5,-8 -7,-11 -5,-7 -9,-10 -13,-10l1 -1c5,-4 20,-7 25,-8 3,3 5,5 8,8 3,3 7,7 10,11 3,4 6,7 9,11 3,4 6,7 8,11 3,4 5,7 8,11 2,4 5,7 7,11 2,4 5,7 7,11 2,4 4,7 6,11 2,4 4,7 6,11 2,4 4,7 6,11 2,4 4,7 5,11 2,4 3,7 5,11 2,4 3,7 5,11l5 11c2,4 3,7 5,11l4 11 4 11 4 11 4 11 4 11 3 11 3 11 3 11c1,4 2,7 3,11 1,4 2,8 3,11 1,4 2,8 2,11 1,5 2,8 1,9 31,2 57,3 85,-2 1,0 1,-3 0,-7 -1,-3 -2,-6 -3,-11 -1,-3 -2,-7 -3,-11l-4 -11 -4 -11 -4 -11 -4 -11 -4 -11 -4 -11 -4 -11 -4 -11 -4 -11 -4 -11 -4 -11 -4 -11 -4 -11 -4 -11 -4 -11 -5 -11 -5 -11 -5 -11 -5 -11 -5 -11c-2,-4 -4,-8 -5,-11 -2,-5 -4,-8 -6,-11z"/>
   <path class="fil34" d="M4508 7745l0 -11 584 -2 11 11 11 11 11 11 11 11 11 11 11 11 11 11 11 11 11 11 11 11 10 11 10 11 10 11 10 11 10 11 10 11 10 11 10 11 10 11 10 11 10 11 10 11 10 11 10 11 10 11 9 11 9 11 9 11 9 11 9 11 9 11 9 11 9 11 9 11 9 11 9 11 8 11 8 11 8 11 8 11 8 11 8 11 8 11 8 11 8 11 7 11 7 11 7 11 7 11 7 11 7 11 6 11 6 11c2,4 4,7 6,11l0 0c0,3 0,6 -1,11 -1,3 -2,7 -3,11 -1,3 -2,7 -4,11 -1,3 -3,7 -4,11 -1,3 -3,7 -4,11l-5 11 -5 11 -5 11 -5 11 -5 11 -5 11 -5 11 -5 11 -5 11 -5 11 -5 11 -5 11 -5 11 -5 11 -5 11 -6 11 -6 11 -6 11 -6 11 -6 11 -6 11 -6 11 -6 11 -6 11 -6 11 -6 11 -6 11 -6 11 -6 11 -6 11 -6 11 -6 11 -6 11 -6 11 -6 11 -6 11 -6 11 -6 11 -6 11 -6 11 -6 11 -6 11 -6 11 -6 11 -6 11 -6 11 -6 11 -6 11 -6 11 -6 11 -6 11 -6 11 -6 11 -6 11 -6 11 -6 11 -6 11 -6 11 -6 11 -6 11 -6 11 -6 11 -6 11 -6 11 -6 11 -6 11 -6 11 -6 11 -6 11 -6 11 -6 11 -6 11 -6 11 -6 11 -2 3 -15 -3 -48 -11 -48 -11 -48 -11 -5 -1 4 -10 4 -11 4 -11 4 -11 4 -11 4 -11 4 -11 4 -11 4 -11 4 -11 4 -11 4 -11 4 -11 4 -11 4 -11 4 -11 4 -11 4 -11 4 -11 4 -11 4 -11 4 -11 4 -11 4 -11 4 -11 4 -11 4 -11 4 -11 4 -11 4 -11 4 -11 4 -11 4 -11 4 -11 4 -11 4 -11 4 -11 4 -11 4 -11 4 -11 4 -11 4 -11 4 -11 4 -11 4 -11 4 -11 4 -11 4 -11 4 -11 4 -11 4 -11 4 -11 4 -11 4 -11 4 -11 4 -11 4 -11 4 -11 4 -11 4 -11 4 -11 4 -11 4 -11 4 -11 4 -11 4 -11 4 -11 4 -11 4 -11 4 -11 0 0 -11 -10 -11 -11 -11 -11 -11 -11 -11 -11 -11 -11 -11 -11 -11 -11 -11 -11 -11 -11 -11 -11 -11 -11 -11 -11 -12 -11 -12 -11 -12 -11 -12 -11 -12 -11 -12 -11 -12 -11 -12 -11 -12 -11 -12 -11 -3 -3 0 3 1 11 1 11 1 11 1 11 1 11 1 11 1 11 1 11 1 11 1 11 1 11 1 11 1 11 1 11 1 11 1 11 1 11 1 11 1 11 1 11 1 11 1 11 1 11 1 11 1 11 1 11 1 11 1 11 1 11 1 11 1 11 1 11 1 11 1 11 1 11 1 11 1 11 1 11 0 11 0 11 0 11 0 11 0 11 0 11 0 11 0 11 0 11 0 11 0 11 0 11 0 11 0 11 0 11 0 11 0 11 0 11 0 11 0 11 0 11 0 11 0 11 0 11 0 11 0 11 0 11 0 11 0 11 0 11 0 11 0 3 -3 8 -5 11 -5 11 -5 11 -5 11 -5 11 -5 11 -5 11 -5 11 -5 11 -5 11 -5 11 -5 11 -5 11 -5 11 -5 11 -5 11 -5 11 -5 11 -5 11 -5 11 -5 11 -5 11 -5 11 -5 11 -5 11 -5 11 -5 11 -5 11 -5 11 -5 11 -5 11 -5 11 -5 11 -5 11 -5 11 -5 11 -5 11 -5 11 -5 11 -5 11 -5 11 -5 11 -5 11 -182 407 -177 5 127 -412 3 -11 3 -11 3 -11 3 -11 3 -11 3 -11 3 -11 3 -11 3 -11 3 -11 3 -11 3 -11 3 -11 3 -11 3 -11 3 -11 3 -11 3 -11 3 -11 3 -11 3 -11 3 -11 3 -11 3 -11 3 -11 3 -11 3 -11 3 -11 3 -11 3 -11 3 -11 3 -11 3 -11 3 -11 3 -11 3 -11 3 -11 3 -11 3 -11 3 -11 3 -11 3 -11 3 -11 3 -11 3 -11 3 -11 3 -10 0 -1 -3 -11 -3 -11 -3 -11 -3 -11 -3 -11 -3 -11 -3 -11 -3 -11 -3 -11 -3 -11 -3 -11 -3 -11 -3 -11 -3 -11 -3 -11 -3 -11 -3 -11 -3 -11 -3 -11 -3 -11 -3 -11 -3 -11 -3 -11 -3 -11 -3 -11 -3 -11 -3 -11 -3 -11 -3 -11 -3 -11 -3 -11 -3 -11 -3 -11 -3 -11 -3 -11 -3 -11 -3 -11 -3 -11 -3 -11 -3 -11 -3 -11 -3 -11 -3 -11 -3 -11 -3 -11 -3 -11 -3 -11 -3 -11 -3 -11 -3 -11 -3 -11 -3 -11 -3 -11 -3 -11 -3 -11 -3 -11 -3 -11 -3 -11 -3 -11 -3 -11 -3 -11 -3 -11 -3 -11 -2 -11 -2 -11 -2 -11 -2 -11 -2 -11 -2 -11 -2 -11 -2 -11 -2 -11 -2 -11 -2 -11 -2 -11 -2 -11 -2 -11 -2 -11 -2 -11 -2 -11 -2 -11 -2 -11 -1 -11 -1 -11 -1 -11c0,-4 -1,-7 -1,-11 0,-4 -1,-7 -1,-11 0,-4 0,-7 0,-11 0,-4 0,-7 0,-10l0 -1 0 -11 0 -11 0 -11 0 -11 0 -11 0 -11 0 -11 0 -11 0 -11 0 -11 0 -11 0 -11 0 -11z"/>
   <path class="fil26" d="M4957 6558c-2,140 -87,362 -230,262 -143,-101 -156,-263 -156,-263 0,0 261,-556 386,2z"/>
   <path class="fil27" d="M4697 6592c-44,23 -25,96 5,110 4,2 10,4 11,8l0 9c-6,24 0,61 -23,72 -101,-49 -117,-121 -130,-193 -5,-30 -8,-60 1,-89 9,-30 28,-55 47,-80 19,-25 40,-51 71,-61 14,-5 29,-5 44,-6 47,-2 94,-4 141,-6 12,-1 23,-1 34,2 20,6 34,24 45,41 30,47 51,99 61,154 1,5 2,11 -1,16 -2,5 -7,7 -12,9 -23,10 -48,15 -73,12 -179,-17 -155,85 -155,85 0,0 -29,-104 -66,-85z"/>
   <path class="fil12" d="M4557 6686c267,-114 469,-194 469,-194 21,-11 -125,-273 -328,-198 -286,105 -141,392 -141,392z"/>
   <path class="fil12" d="M5010 6442c288,83 -173,165 -228,149l228 -149z"/>
   <path class="fil26" d="M5270 7648c60,4 111,-32 146,-12 35,20 121,125 -47,121 -167,-4 -138,0 -138,0l39 -109z"/>
   <path class="fil24" d="M4627 6873c-57,-4 -136,32 -153,77 -79,202 6,630 35,695 62,141 747,110 747,110l38 -125c0,0 -549,-51 -612,-98 -25,-18 22,-655 -55,-660z"/>
  </g>
  <g id="_325612512">
   <rect class="fil5" x="11420" y="4957" width="5947" height="2433" rx="206" ry="206"/>
   <g>
    <path class="fil6" d="M12040 6672l0 -998c0,-68 55,-122 122,-122 238,0 761,0 998,0 68,0 122,55 122,122l0 998c0,68 -55,123 -122,123 -238,0 -761,0 -998,0 -68,0 -122,-55 -122,-123z"/>
    <path class="fil6" d="M15394 6562c0,-18 -15,-33 -33,-33l-1843 0c-18,0 -33,15 -33,33 0,18 15,33 33,33l1843 0c18,0 33,-15 33,-33zm0 -194c0,-18 -15,-33 -33,-33l-1843 0c-18,0 -33,15 -33,33 0,18 15,33 33,33l1843 0c18,0 33,-15 33,-33zm0 -194c0,-18 -15,-33 -33,-33l-1843 0c-18,0 -33,15 -33,33 0,18 15,33 33,33l1843 0c18,0 33,-15 33,-33zm0 -194c0,-18 -15,-33 -33,-33l-1843 0c-18,0 -33,15 -33,33 0,18 15,33 33,33l1843 0c18,0 33,-15 33,-33zm-33 -162l-1843 0c-18,0 -33,-15 -33,-33 0,-18 15,-33 33,-33l1843 0c18,0 33,15 33,33 0,18 -15,33 -33,33z"/>
   </g>
  </g>
  <circle class="fil1" cx="1634" cy="767" r="201"/>
  <circle class="fil1" cx="2459" cy="767" r="201"/>
  <circle class="fil1" cx="809" cy="767" r="201"/>
  <path class="fil35" d="M9373 239l8754 0c57,0 103,46 103,103l0 769c0,57 -46,103 -103,103l-8754 0c-57,0 -103,-46 -103,-103l0 -769c0,-57 46,-103 103,-103z"/>
 </g>
</svg>
