<?xml version="1.0" encoding="UTF-8"?>
<!DOCTYPE svg PUBLIC "-//W3C//DTD SVG 1.1//EN" "http://www.w3.org/Graphics/SVG/1.1/DTD/svg11.dtd">
<!-- Creator: CorelDRAW X6 -->
<svg xmlns="http://www.w3.org/2000/svg" xml:space="preserve" width="197.115mm" height="92.3397mm" version="1.1" style="shape-rendering:geometricPrecision; text-rendering:geometricPrecision; image-rendering:optimizeQuality; fill-rule:evenodd; clip-rule:evenodd"
viewBox="0 0 19517 9143"
 xmlns:xlink="http://www.w3.org/1999/xlink">
 <defs>
  <style type="text/css">
   <![CDATA[
    .fil25 {fill:#423271}
    .fil21 {fill:#504090}
    .fil27 {fill:#5F3E8E}
    .fil1 {fill:#634492}
    .fil22 {fill:#725CA3}
    .fil28 {fill:#B49FCC}
    .fil4 {fill:#E7E4F2}
    .fil19 {fill:#F49712}
    .fil18 {fill:#F49911}
    .fil17 {fill:#F49B0F}
    .fil16 {fill:#F59D0E}
    .fil15 {fill:#F59F0D}
    .fil14 {fill:#F5A10B}
    .fil13 {fill:#F6A30A}
    .fil30 {fill:#F7A906}
    .fil12 {fill:#F7AB05}
    .fil11 {fill:#F8AD03}
    .fil10 {fill:#F8AF03}
    .fil9 {fill:#F9B101}
    .fil8 {fill:#F9B200}
    .fil7 {fill:#F9B500}
    .fil24 {fill:#F9D0CF}
    .fil3 {fill:#FAF9FC}
    .fil23 {fill:#FBBC00}
    .fil29 {fill:#FCC200}
    .fil5 {fill:#FDC704}
    .fil26 {fill:#FEC904}
    .fil20 {fill:#FEFEFE}
    .fil6 {fill:#EBECEC}
    .fil0 {fill:#FEFEFE}
    .fil2 {fill:#634492;fill-opacity:0.129412}
    .fil31 {fill:#634492;fill-rule:nonzero;fill-opacity:0.501961}
   ]]>
  </style>
 </defs>
 <g id="Layer_x0020_1">
  <metadata id="CorelCorpID_0Corel-Layer"/>
  <rect class="fil0" width="19517" height="9143" rx="775" ry="775"/>
  <path class="fil1" d="M2059 1299l4827 0c174,0 316,142 316,316l0 723 -977 -679c0,0 -222,0 -222,90 0,90 148,519 148,519 0,0 -696,150 -703,27 -7,-123 -127,-513 -127,-513l-1731 511 -674 -107 -789 140 -173 -74c0,0 -97,41 -211,70l0 -708c0,-174 142,-316 316,-316z"/>
  <path class="fil2" d="M8378 5908l-346 0c-22,0 -40,-18 -40,-40l0 -116c0,-17 -10,-31 -26,-38l0 0c-5,-2 -11,-3 -16,-3 -10,0 -21,4 -28,12l-82 82c-8,8 -18,12 -29,12 -10,0 -21,-4 -29,-12l-245 -245c-16,-16 -16,-41 0,-57l82 -82c12,-12 15,-29 8,-45l0 -1c-6,-15 -21,-26 -38,-26l-116 0c-22,0 -40,-18 -40,-40l0 -346c0,-22 18,-40 40,-40l116 0c17,0 31,-10 38,-26l0 -1c6,-15 3,-33 -8,-45l-82 -82c-16,-16 -16,-41 0,-57l245 -245c8,-8 18,-12 29,-12 10,0 21,4 29,12l82 82c8,8 18,12 29,12 6,0 11,-1 16,-3l1 0c15,-6 26,-21 26,-38l0 -116c0,-22 18,-40 40,-40l346 0c22,0 40,18 40,40l0 116c0,17 10,31 26,38l1 0c5,2 11,3 16,3 10,0 21,-4 28,-12l82 -82c8,-8 18,-12 29,-12 10,0 21,4 29,12l245 245c16,16 16,41 0,57l-82 82c-12,12 -15,30 -8,45l0 1c6,15 21,26 38,26l116 0c22,0 40,18 40,40l0 346c0,22 -18,40 -40,40l-116 0c-17,0 -31,10 -38,26l0 1c-6,15 -3,33 8,45l82 82c16,16 16,41 0,57l-245 245c-8,8 -18,12 -29,12 -10,0 -21,-4 -29,-12l-82 -82c-8,-8 -18,-12 -28,-12 -6,0 -11,1 -16,3l-1 0c-15,6 -26,21 -26,38l0 116c0,22 -18,40 -40,40zm-173 -1153c-210,0 -380,170 -380,380 0,210 170,380 380,380 210,0 380,-170 380,-380 0,-210 -170,-380 -380,-380z"/>
  <g id="_330494368">
   <path class="fil3" d="M10011 2953l-1455 0c-86,0 -156,-70 -156,-156l0 -1342c0,-86 70,-156 156,-156l1455 0c86,0 156,70 156,156l0 1342c0,86 -70,156 -156,156z"/>
   <path class="fil4" d="M9822 2159l345 285 0 354c0,86 -70,156 -156,156l-1150 0 775 -785c50,-51 131,-55 185,-9z"/>
   <path class="fil4" d="M9562 1822c0,90 -73,163 -163,163 -90,0 -163,-73 -163,-163 0,-90 73,-163 163,-163 90,0 163,73 163,163z"/>
  </g>
  <g id="_330496024">
   <path class="fil5" d="M2344 7507l-763 0 338 -1045c14,-42 73,-42 87,0l338 1045z"/>
   <path class="fil6" d="M2416 7581l-909 0c-20,0 -37,-16 -37,-37 0,-20 16,-37 37,-37l909 0c20,0 37,16 37,37 0,20 -16,37 -37,37z"/>
   <polygon class="fil7" points="2097,6745 1828,6745 1830,6738 2094,6738 "/>
   <polygon class="fil7" points="2099,6751 1825,6751 1828,6745 2097,6745 "/>
   <polygon class="fil7" points="2101,6758 1823,6758 1825,6751 2099,6751 "/>
   <polygon class="fil7" points="2103,6765 1821,6765 1823,6758 2101,6758 "/>
   <polygon class="fil8" points="2105,6772 1819,6772 1821,6765 2103,6765 "/>
   <polygon class="fil8" points="2108,6779 1817,6779 1819,6772 2105,6772 "/>
   <polygon class="fil8" points="2110,6785 1815,6785 1817,6779 2108,6779 "/>
   <polygon class="fil8" points="2112,6792 1812,6792 1815,6785 2110,6785 "/>
   <polygon class="fil8" points="2114,6799 1810,6799 1812,6792 2112,6792 "/>
   <polygon class="fil8" points="2116,6806 1808,6806 1810,6799 2114,6799 "/>
   <polygon class="fil9" points="2119,6812 1806,6812 1808,6806 2116,6806 "/>
   <polygon class="fil9" points="2121,6819 1804,6819 1806,6812 2119,6812 "/>
   <polygon class="fil9" points="2123,6826 1801,6826 1804,6819 2121,6819 "/>
   <polygon class="fil9" points="2125,6833 1799,6833 1801,6826 2123,6826 "/>
   <polygon class="fil9" points="2127,6840 1797,6840 1799,6833 2125,6833 "/>
   <polygon class="fil9" points="2130,6846 1795,6846 1797,6840 2127,6840 "/>
   <polygon class="fil10" points="2132,6853 1793,6853 1795,6846 2130,6846 "/>
   <polygon class="fil10" points="2134,6860 1790,6860 1793,6853 2132,6853 "/>
   <polygon class="fil10" points="2136,6867 1788,6867 1790,6860 2134,6860 "/>
   <polygon class="fil10" points="2138,6873 1786,6873 1788,6867 2136,6867 "/>
   <polygon class="fil10" points="2141,6880 1784,6880 1786,6873 2138,6873 "/>
   <polygon class="fil10" points="2143,6887 1782,6887 1784,6880 2141,6880 "/>
   <polygon class="fil10" points="2145,6894 1779,6894 1782,6887 2143,6887 "/>
   <polygon class="fil10" points="2147,6901 1777,6901 1779,6894 2145,6894 "/>
   <polygon class="fil11" points="2149,6907 1775,6907 1777,6901 2147,6901 "/>
   <polygon class="fil11" points="2151,6914 1773,6914 1775,6907 2149,6907 "/>
   <polygon class="fil11" points="2154,6921 1771,6921 1773,6914 2151,6914 "/>
   <polygon class="fil11" points="2156,6928 1768,6928 1771,6921 2154,6921 "/>
   <polygon class="fil12" points="1766,6934 1768,6928 2156,6928 2158,6934 2160,6941 2162,6948 2165,6955 2167,6961 2169,6968 2171,6975 2173,6982 2176,6989 2178,6995 2180,7002 2182,7009 2184,7016 2187,7023 2189,7029 2191,7036 2193,7043 2195,7050 2198,7056 2200,7063 2202,7070 2204,7077 2206,7083 2209,7090 2211,7097 2213,7104 2215,7111 2217,7117 1707,7117 1709,7111 1711,7104 1714,7097 1716,7090 1718,7083 1720,7077 1722,7070 1725,7063 1727,7056 1729,7050 1731,7043 1733,7036 1736,7029 1738,7023 1740,7016 1742,7009 1744,7002 1747,6995 1749,6989 1751,6982 1753,6975 1755,6968 1757,6961 1760,6955 1762,6948 1764,6941 "/>
   <polygon class="fil13" points="2219,7124 1705,7124 1707,7117 2217,7117 "/>
   <polygon class="fil14" points="2222,7131 1703,7131 1705,7124 2219,7124 "/>
   <polygon class="fil14" points="2224,7138 1700,7138 1703,7131 2222,7131 "/>
   <polygon class="fil14" points="2226,7144 1698,7144 1700,7138 2224,7138 "/>
   <polygon class="fil14" points="2228,7151 1696,7151 1698,7144 2226,7144 "/>
   <polygon class="fil15" points="2230,7158 1694,7158 1696,7151 2228,7151 "/>
   <polygon class="fil15" points="2233,7165 1692,7165 1694,7158 2230,7158 "/>
   <polygon class="fil15" points="2235,7172 1690,7172 1692,7165 2233,7165 "/>
   <polygon class="fil15" points="2237,7178 1687,7178 1690,7172 2235,7172 "/>
   <polygon class="fil15" points="2239,7185 1685,7185 1687,7178 2237,7178 "/>
   <polygon class="fil15" points="2241,7192 1683,7192 1685,7185 2239,7185 "/>
   <polygon class="fil16" points="2244,7199 1681,7199 1683,7192 2241,7192 "/>
   <polygon class="fil16" points="2246,7205 1679,7205 1681,7199 2244,7199 "/>
   <polygon class="fil16" points="2248,7212 1676,7212 1679,7205 2246,7205 "/>
   <polygon class="fil16" points="2250,7219 1674,7219 1676,7212 2248,7212 "/>
   <polygon class="fil16" points="2252,7226 1672,7226 1674,7219 2250,7219 "/>
   <polygon class="fil16" points="2255,7233 1670,7233 1672,7226 2252,7226 "/>
   <polygon class="fil16" points="2257,7239 1668,7239 1670,7233 2255,7233 "/>
   <polygon class="fil16" points="2259,7246 1665,7246 1668,7239 2257,7239 "/>
   <polygon class="fil17" points="2261,7253 1663,7253 1665,7246 2259,7246 "/>
   <polygon class="fil17" points="2263,7260 1661,7260 1663,7253 2261,7253 "/>
   <polygon class="fil17" points="2266,7266 1659,7266 1661,7260 2263,7260 "/>
   <polygon class="fil17" points="2268,7273 1657,7273 1659,7266 2266,7266 "/>
   <polygon class="fil18" points="2270,7280 1654,7280 1657,7273 2268,7273 "/>
   <polygon class="fil18" points="2272,7287 1652,7287 1654,7280 2270,7280 "/>
   <polygon class="fil18" points="2274,7294 1650,7294 1652,7287 2272,7287 "/>
   <polygon class="fil18" points="2276,7300 1648,7300 1650,7294 2274,7294 "/>
   <polygon class="fil18" points="2279,7307 1646,7307 1648,7300 2276,7300 "/>
   <polygon class="fil18" points="2281,7314 1643,7314 1646,7307 2279,7307 "/>
   <polygon class="fil19" points="2283,7321 1641,7321 1643,7314 2281,7314 "/>
   <polygon class="fil19" points="1639,7327 1641,7321 2283,7321 2285,7327 2287,7334 2290,7341 2292,7348 2294,7355 2296,7361 2298,7368 2301,7375 2303,7382 2305,7388 2307,7395 2309,7402 2312,7409 2314,7416 2316,7422 2318,7429 2320,7436 2323,7443 2325,7449 2327,7456 2329,7463 2331,7470 2334,7477 2336,7483 2338,7490 2340,7497 2342,7504 2343,7507 2343,7507 1581,7507 1582,7504 1584,7497 1586,7490 1589,7483 1591,7477 1593,7470 1595,7463 1597,7456 1600,7449 1602,7443 1604,7436 1606,7429 1608,7422 1611,7416 1613,7409 1615,7402 1617,7395 1619,7388 1622,7382 1624,7375 1626,7368 1628,7361 1630,7355 1633,7348 1635,7341 1637,7334 "/>
   <path class="fil20" d="M2092 6732l-261 0 -64 199 390 0 -64 -199zm-451 587l64 -199 512 0 64 199 -641 0z"/>
  </g>
  <g id="_322201104">
   <polygon class="fil21" points="16059,6746 16059,6679 17854,6679 17854,6746 "/>
   <path class="fil21" d="M16061 7067l0 0c-29,0 -52,-23 -52,-52l0 -1590c0,-29 23,-52 52,-52 29,0 52,23 52,52l0 1590c0,29 -23,52 -52,52z"/>
   <path class="fil21" d="M16133 7067l-143 0c-18,0 -33,-15 -33,-33 0,-18 15,-33 33,-33l143 0c18,0 33,15 33,33 0,18 -15,33 -33,33z"/>
   <path class="fil21" d="M17850 7067l0 0c-29,0 -52,-23 -52,-52l0 -1590c0,-29 23,-52 52,-52 29,0 52,23 52,52l0 1590c0,29 -23,52 -52,52z"/>
   <path class="fil21" d="M17921 7067l-143 0c-18,0 -33,-15 -33,-33 0,-18 15,-33 33,-33l143 0c18,0 33,15 33,33 0,18 -15,33 -33,33z"/>
   <path class="fil22" d="M18046 6189l-2214 0 0 288 2214 0 0 -288zm0 -77l-2214 0 0 -630 2214 0 0 630z"/>
   <path class="fil23" d="M15839 6112l-7 0 0 -361 7 -13 14 -28 14 -28 14 -28 14 -28 14 -28 14 -28 14 -28 14 -28 14 -28 3 -6 11 0 14 0 14 0 14 0 14 0 14 0 14 0 14 0 14 0 14 0 14 0 14 0 14 0 14 0 14 0 14 0 14 0 14 0 14 0 14 0 14 0 14 0 14 0 13 0 -13 26 -14 28 -14 28 -14 28 -14 28 -14 28 -14 28 -14 28 -14 28 -14 28 -14 28 -14 28 -14 28 -14 28 -14 28 -14 28 -14 28 -14 28 -14 28 -14 28 -14 28 -14 28 -11 23 -2 0 -14 0 -14 0 -14 0 -14 0 -14 0 -14 0 -14 0 -14 0 -14 0 -14 0zm2198 -629l9 0 0 579 -9 19 -14 28 -2 4 -11 0 -14 0 -14 0 -14 0 -14 0 -14 0 -14 0 -14 0 -14 0 -14 0 -14 0 -14 0 -14 0 -14 0 -14 0 -14 0 -14 0 -14 0 -14 0 -14 0 -14 0 -14 0 -14 0 -12 0 12 -24 14 -28 14 -28 14 -28 14 -28 14 -28 14 -28 14 -28 14 -28 14 -28 14 -28 14 -28 14 -28 14 -28 14 -28 14 -28 14 -28 14 -28 14 -28 14 -28 14 -28 14 -28 12 -24 2 0 14 0 14 0zm-231 0l13 0 -13 26 -14 28 -14 28 -14 28 -14 28 -14 28 -14 28 -14 28 -14 28 -14 28 -14 28 -14 28 -14 28 -14 28 -14 28 -14 28 -14 28 -14 28 -14 28 -14 28 -14 28 -14 28 -11 23 -2 0 -14 0 -14 0 -14 0 -14 0 -14 0 -14 0 -14 0 -14 0 -14 0 -14 0 -14 0 -14 0 -14 0 -14 0 -14 0 -14 0 -14 0 -14 0 -14 0 -14 0 -14 0 -14 0 -14 0 -7 0 7 -15 14 -28 14 -28 14 -28 14 -28 14 -28 14 -28 14 -28 14 -28 14 -28 14 -28 14 -28 14 -28 14 -28 14 -28 14 -28 14 -28 14 -28 14 -28 14 -28 14 -28 14 -28 14 -28 3 -6 11 0 14 0 14 0 14 0 14 0 14 0 14 0 14 0 14 0 14 0 14 0 14 0 14 0 14 0 14 0 14 0 14 0 14 0 14 0 14 0 14 0 14 0 14 0zm-502 0l4 0 -4 7 -14 28 -14 28 -14 28 -14 28 -14 28 -14 28 -14 28 -14 28 -14 28 -14 28 -14 28 -14 28 -14 28 -14 28 -14 28 -14 28 -14 28 -14 28 -14 28 -14 28 -14 28 -14 28 -7 14 -7 0 -14 0 -14 0 -14 0 -14 0 -14 0 -14 0 -14 0 -14 0 -14 0 -14 0 -14 0 -14 0 -14 0 -14 0 -14 0 -14 0 -14 0 -14 0 -14 0 -14 0 -14 0 -14 0 -14 0 -3 0 3 -6 14 -28 14 -28 14 -28 14 -28 14 -28 14 -28 14 -28 14 -28 14 -28 14 -28 14 -28 14 -28 14 -28 14 -28 14 -28 14 -28 14 -28 14 -28 14 -28 14 -28 14 -28 14 -28 7 -15 6 0 14 0 14 0 14 0 14 0 14 0 14 0 14 0 14 0 14 0 14 0 14 0 14 0 14 0 14 0 14 0 14 0 14 0 14 0 14 0 14 0 14 0 14 0 14 0zm-516 0l8 0 -8 16 -14 28 -14 28 -14 28 -14 28 -14 28 -14 28 -14 28 -14 28 -14 28 -14 28 -14 28 -14 28 -14 28 -14 28 -14 28 -14 28 -14 28 -14 28 -14 28 -14 28 -14 28 -14 28 -2 5 -11 0 -14 0 -14 0 -14 0 -14 0 -14 0 -14 0 -14 0 -14 0 -14 0 -14 0 -14 0 -14 0 -14 0 -14 0 -14 0 -14 0 -14 0 -14 0 -14 0 -14 0 -14 0 -14 0 -12 0 12 -24 14 -28 14 -28 14 -28 14 -28 14 -28 14 -28 14 -28 14 -28 14 -28 14 -28 14 -28 14 -28 14 -28 14 -28 14 -28 14 -28 14 -28 14 -28 14 -28 14 -28 14 -28 12 -24 2 0 14 0 14 0 14 0 14 0 14 0 14 0 14 0 14 0 14 0 14 0 14 0 14 0 14 0 14 0 14 0 14 0 14 0 14 0 14 0 14 0 14 0 14 0 14 0z"/>
   <path class="fil23" d="M15833 6189l7 0 14 0 14 0 14 0 14 0 14 0 14 0 14 0 5 0 -5 10 -14 28 -14 28 -14 28 -14 28 -14 28 -14 28 -14 28 -7 13 0 -217zm2150 0l1 0 -1 1 -14 28 -14 28 -14 28 -14 28 -14 28 -14 28 -14 28 -14 28 -14 28 -14 28 -5 10 -8 0 -14 0 -14 0 -14 0 -14 0 -14 0 -14 0 -14 0 -14 0 -14 0 -14 0 -14 0 -14 0 -14 0 -14 0 -14 0 -14 0 -14 0 -14 0 -14 0 -14 0 -14 0 -14 0 -14 0 -1 0 1 -3 14 -28 14 -28 14 -28 14 -28 14 -28 14 -28 14 -28 14 -28 14 -28 14 -28 4 -9 9 0 14 0 14 0 14 0 14 0 14 0 14 0 14 0 14 0 14 0 14 0 14 0 14 0 14 0 14 0 14 0 14 0 14 0 14 0 14 0 14 0 14 0 14 0 14 0zm-516 0l5 0 -5 10 -14 28 -14 28 -14 28 -14 28 -14 28 -14 28 -14 28 -14 28 -14 28 -14 28 -1 1 -13 0 -14 0 -14 0 -14 0 -14 0 -14 0 -14 0 -14 0 -14 0 -14 0 -14 0 -14 0 -14 0 -14 0 -14 0 -14 0 -14 0 -14 0 -14 0 -14 0 -14 0 -14 0 -14 0 -10 0 10 -21 14 -28 14 -28 14 -28 14 -28 14 -28 14 -28 14 -28 14 -28 14 -28 9 -18 5 0 14 0 14 0 14 0 14 0 14 0 14 0 14 0 14 0 14 0 14 0 14 0 14 0 14 0 14 0 14 0 14 0 14 0 14 0 14 0 14 0 14 0 14 0 14 0zm-516 0l10 0 -10 20 -14 28 -14 28 -14 28 -14 28 -14 28 -14 28 -14 28 -14 28 -14 28 -10 20 -4 0 -14 0 -14 0 -14 0 -14 0 -14 0 -14 0 -14 0 -14 0 -14 0 -14 0 -14 0 -14 0 -14 0 -14 0 -14 0 -14 0 -14 0 -14 0 -14 0 -14 0 -14 0 -14 0 -14 0 -6 0 6 -12 14 -28 14 -28 14 -28 14 -28 14 -28 14 -28 14 -28 14 -28 14 -28 13 -27 0 0 14 0 14 0 14 0 14 0 14 0 14 0 14 0 14 0 14 0 14 0 14 0 14 0 14 0 14 0 14 0 14 0 14 0 14 0 14 0 14 0 14 0 14 0 14 0zm-502 0l1 0 -1 1 -14 28 -14 28 -14 28 -14 28 -14 28 -14 28 -14 28 -14 28 -14 28 -14 28 -5 11 -8 0 -14 0 -14 0 -14 0 -14 0 -14 0 -14 0 -14 0 -14 0 -14 0 -14 0 -14 0 -14 0 -14 0 -14 0 -14 0 -14 0 -14 0 -14 0 -14 0 -14 0 -14 0 -14 0 -14 0 -1 0 1 -3 14 -28 14 -28 14 -28 14 -28 14 -28 14 -28 14 -28 14 -28 14 -28 14 -28 4 -9 9 0 14 0 14 0 14 0 14 0 14 0 14 0 14 0 14 0 14 0 14 0 14 0 14 0 14 0 14 0 14 0 14 0 14 0 14 0 14 0 14 0 14 0 14 0 14 0z"/>
  </g>
  <g id="_322202928">
   <path class="fil24" d="M12182 5717c-36,45 -65,57 -74,94 -9,37 66,86 90,33 67,-145 89,-97 89,-97l-106 -30z"/>
   <path class="fil22" d="M12550 5600c-90,-219 -204,-454 -247,-478 57,153 153,312 153,312l-229 404 -66 -99 172 -363c0,0 -271,-393 -121,-546 0,0 34,-34 55,-48 111,-78 220,-75 220,-75 0,0 342,16 570,659 -195,141 -284,151 -507,234z"/>
   <path class="fil24" d="M12333 4702c22,57 71,119 68,153 -4,38 -66,64 -81,50 -40,-37 -73,-110 -69,-114 7,-6 81,-90 81,-90z"/>
   <path class="fil24" d="M12043 4660c68,107 240,238 303,91 62,-146 -6,-277 -6,-277 0,0 -467,-303 -296,186z"/>
   <path class="fil25" d="M12278 4668c-10,-55 55,-111 67,-57 14,62 -12,60 -9,83 3,29 12,36 15,45 131,-97 36,-382 -100,-417 -65,-32 -155,-60 -250,48 -82,95 -27,169 -10,307 186,-26 176,-109 233,-109 32,0 45,106 54,100z"/>
   <path class="fil26" d="M12985 5186l10 -9c0,0 2,1 5,5 2,2 4,4 7,7 2,2 4,5 6,7 2,2 4,5 5,8 2,2 3,5 5,8 2,2 3,5 5,8 1,2 3,5 4,8l4 8c1,3 3,5 4,8l4 8 4 8 3 8 3 8 3 8 3 8 3 8 3 8 3 8 3 8 2 8 2 8 2 8 2 8 2 8 2 9 2 9 2 9 2 9 2 9 2 9 2 9 1 9 1 9 1 9 1 9 1 9 1 9 1 9 1 9 1 9 1 6 0 3 1 9 1 9 1 9 1 9 1 9 1 9 1 9 1 9 1 9 1 9 1 9 1 9 1 9 1 9 1 9 1 9 1 9 1 9 1 9 1 9 1 9 1 9 1 9 1 9 1 9 1 9 1 9 1 9 1 9 1 9 1 9 1 9 1 9 1 9 1 9 1 9 1 9 1 9 1 9 1 9 1 9 1 9 1 9 1 9 1 9 1 9 1 9 1 9 1 9 1 9 1 9 1 9 1 9 1 9 1 9 1 9 1 9 1 9 1 9 1 9 1 9 1 9 1 9 1 9 1 9 1 9 1 9 1 9 1 9 1 9 1 9 1 9 1 9 1 9 1 9 1 9 1 9 1 9 0 1 3 8 3 8 3 8 3 8 3 8 3 8 3 8 3 8 3 8 3 8 3 8 3 8 3 8 3 8 3 8 3 8 3 8 3 8 3 8 3 8 3 8 3 8 3 8 3 8 3 8 3 8 3 8 3 8 3 8 3 8 3 8 3 8 3 8 3 8 3 8 3 8 3 8 3 8 3 8 3 8 3 8 3 8 3 8 3 8 3 8 3 8 3 8 3 8 3 8 3 8 3 8 3 8 3 8 3 8 3 8 3 8 3 8 3 8 3 8 3 8 3 8 3 8 3 8 3 8 3 8 3 8 3 8 3 8 3 8 3 8 3 8 3 8 3 8 3 8 3 8 3 8 3 8 3 8 3 8 3 8 3 8 3 8 3 8 3 8 3 8 3 8 3 8 3 8 3 8 3 8 3 8 3 8 3 8 22 66 -166 33 -25 -56 -4 -8 -4 -8 -4 -8 -4 -8 -4 -8 -4 -8 -4 -8 -4 -8 -4 -8 -4 -8 -4 -8 -4 -8 -4 -8 -4 -8 -4 -8 -4 -8 -4 -8 -4 -8 -4 -8 -4 -8 -4 -8 -4 -8 -4 -8 -4 -8 -4 -8 -4 -8 -4 -8 -4 -8 -4 -8 -4 -8 -4 -8 -4 -8 -4 -8 -4 -8 -4 -8 -4 -8 -4 -8 -4 -8 -4 -8 -4 -8 -4 -8 -4 -8 -4 -8 -4 -8 -4 -8 -4 -8 -4 -8 -4 -8 -4 -8 -4 -8 -4 -8 -4 -8 -4 -8 -4 -8 -4 -8 -4 -8 -4 -8 -4 -8 -4 -8 -4 -8 -4 -8 -4 -8 -4 -8 -4 -8 -4 -8 -4 -8 -4 -8 -4 -8 -4 -8 -4 -8 -4 -8 -4 -8 -4 -8 -4 -8 -4 -8 -4 -8 -4 -8 -4 -8 -4 -8 -4 -8 -4 -8 -4 -8 -4 -8 -4 -8 -4 -8 -4 -8 -4 -8 -4 -8 -4 -8 -4 -8 -4 -8 -1 -1 -2 -7 -3 -8 -3 -8 -3 -8 -3 -8 -3 -8 -3 -8 -3 -8 -3 -8 -3 -8 -3 -8 -3 -8 -3 -8 -3 -8 -3 -8 -3 -8 -3 -8 -3 -8 -3 -8 -3 -8 -3 -8 -3 -8 -3 -8 -3 -8 -3 -8 -3 -8 -3 -8 -3 -8 -3 -8 -3 -8 -3 -8 -3 -8 -3 -8 -3 -8 -3 -8 -3 -8 -3 -8 -3 -8 -3 -8 -3 -8 -3 -8 -3 -8 -3 -8 -3 -8 -3 -8 -3 -8 -3 -8 -3 -8 -3 -8 -3 -8 -3 -8 -3 -8 -3 -8 -3 -8 -3 -8 -3 -8 -3 -8 -3 -8 -3 -8 -3 -8 -3 -8 -3 -8 -3 -8 -3 -8 -3 -8 -3 -8 -3 -8 -1 -2 0 2 -1 9 -1 9 -1 9 -1 9 -1 9 -1 9 -1 9 -1 9 -1 9 -1 9 -1 9 -1 9 -1 9 -1 9 -1 9 -1 9 -1 9 -1 9 -1 9 -1 9 -1 9 -1 9 -1 9 -1 9 -1 9 -1 9 -1 9 -1 9 -1 9 -1 9 -1 9 -1 9 -1 9 -1 9 -1 9 -1 9 -1 9 -1 9 -1 9 -1 9 -1 9 -1 9 -1 9 -1 9 -1 9 -1 9 -1 9 -1 9 -1 9 -1 9 -1 9 -1 9 -1 9 -1 9 -1 9 -1 9 -1 9 -1 9 -1 9 -1 9 -1 9 -1 9 0 0 0 9 0 9 0 9 0 9 0 9 0 9 0 9 0 9 0 9 0 9 0 9 0 9 0 9 0 9 0 9 0 9 0 9 0 9 0 9 0 9 0 9 0 9 0 9 0 9 0 9 0 9 0 9 0 9 0 9 0 9 0 9 0 9 0 9 0 9 0 9 0 9 0 9 0 9 0 9 0 9 0 9 0 9 0 9 0 9 0 9 0 9 0 9 0 9 0 9 0 9 0 9 0 9 0 9 0 9 0 9 0 9 0 9 0 9 0 9 0 9 0 9 0 9 0 9 0 9 0 9 0 9 0 9 0 9 0 9 0 9 0 9 0 9 0 9 0 9 0 9 0 9 0 9 0 9 0 9 0 9 0 9 0 9 0 9 0 9 0 9 0 9 0 9 0 9 0 9 0 2 -9 0 -35 0 -35 0 -35 0 -35 0 -29 0 0 -2 -1 -9 -1 -9 -1 -9 -1 -9 -1 -9 -1 -9 -1 -9 -1 -9 -1 -9 -1 -9 -1 -9 -1 -9 -1 -9 -1 -9 -1 -9 -1 -9 -1 -9 -1 -9 -1 -9 -1 -9 -1 -9 -1 -9 -1 -9 -1 -9 -1 -9 -1 -9 -1 -9 -1 -9 -1 -9 -1 -9 -1 -9 -1 -9 -1 -9 -1 -9 -1 -9 -1 -9 -1 -9 -1 -9 -1 -9 -1 -9 -1 -9 -1 -9 -1 -9 -1 -9 -1 -9 -1 -9 -1 -9 -1 -9 -1 -9 -1 -9 -1 -9 -1 -9 -1 -9 -1 -9 -1 -9 -1 -9 -1 -9 -1 -9 -1 -9 -1 -9 -1 -9 -1 -9 -1 -9 -1 -9 -1 -9 -1 -9 -1 -9 -1 -9 -1 -9 -1 -9 -1 -9 -1 -9 -1 -9 -1 -9 -1 -9 -1 -9 -1 -9 -1 -9 -1 -9 -1 -9 -1 -9 -1 -9 -1 -9 -1 -9 -1 -9 -1 -9 -1 -9 -1 -9 -1 -9 -1 -9 -1 -9 -1 -9 -1 -4 1 -5 1 -9 1 -9 1 -9 1 -9 1 -9 1 -9 1 -9 1 -9 1 -9 1 -9 1 -9 1 -9 1 -9 1 -9 1 -9 1 -9 1 -9 1 -9 1 -9 1 -9 1 -9 1 -9 1 -9 1 -9 1 -9 1 -9 1 -9 1 -9 1 -9 1 -9 1 -9 1 -9 1 -9 1 -9 1 -9 1 -9 1 -9 1 -9 1 -9 1 -9 1 -9 1 -9 1 -9 1 -9 1 -9 1 -9 1 -9 1 -9 1 -9 1 -9 1 -9 1 -9 1 -9 1 -9 1 -9 1 -9 1 -9 1 -9 1 -9 0 -9 0 -9 0 -9 0 -9 0 -9 0 -9 0 -9 0 -9 0 -9 0 -9 0 -9 0 -9 0 -9 0 -9 0 -9 0 -5 -1 -4 -2 -8 -2 -8 -2 -8 -2 -8 -2 -8 -2 -8 -2 -8 -2 -8 -2 -8 -2 -8c-1,-3 -2,-6 -3,-8 -1,-3 -2,-6 -3,-8 -2,-4 -3,-6 -4,-8 -3,-4 -7,-3 -13,-6 -3,-1 -6,-3 -10,-6 -2,-2 -5,-4 -8,-7 -2,-2 -3,-3 -5,-5l-2 -2 -7 -7 -6 -7c-2,-2 -4,-5 -6,-7l-6 -7 -6 -7 -6 -8c-2,-3 -4,-5 -6,-8l-5 -8 -5 -8 -5 -8 -5 -8 -5 -8 -5 -8 -5 -8 -5 -8 -4 -8 -4 -8 -4 -8 -4 -8 -4 -8 -4 -8 -4 -8 -4 -8 -4 -8 -4 -8 -4 -8 -4 -8 -3 -8 -3 -8 -3 -8 -3 -8 -3 -8 -3 -8 -3 -8 -3 -8 -3 -8 -3 -8 -3 -8 -3 -8 -3 -8 -3 -8 -3 -8 -3 -8 -3 -8 -2 -8 -2 -8 -2 -8 -2 -8 -2 -8 -2 -8 -2 -8 -2 -8 -2 -8 -2 -8 -2 -8 -2 -8 -2 -8 -2 -9 -2 -9c-19,-90 -25,-153 -25,-153l40 -24c0,0 25,80 53,159l3 8 3 8 3 8 3 8 3 8 3 8 3 8 3 8 3 8 3 8 3 8 3 8 3 8 3 8 4 8 4 8c1,3 3,5 4,8 1,3 3,6 4,8 2,3 3,6 5,8 2,3 4,5 5,5 1,0 2,1 3,1 7,3 14,4 21,4 13,0 27,-4 39,-10 10,-5 18,-10 26,-16 7,-5 12,-9 16,-13 6,-5 9,-9 9,-9l-1 -2 -3 -8 -3 -8 -3 -8 -3 -8 -3 -8 -3 -8 -2 -8 -2 -8 -2 -8 -2 -8 -2 -8 -2 -8 -2 -8 -2 -8 -2 -8 -2 -8 -2 -9 -2 -9c-14,-64 -23,-132 -27,-204l47 -17c18,82 38,147 60,201l3 8 3 8 4 8 4 8 4 8 4 8 4 8 4 8 4 8 4 8 4 8 5 8 5 8 5 8 5 8 5 8 5 8 5 8 6 8 6 8 6 8 6 7 6 7 6 7 6 7 6 7 7 7 7 7 7 7 7 7 7 7 7 7 7 7 7 7 7 7 7 7 7 7 7 7 7 7 7 7 7 7 6 7 6 7 6 7 6 7 6 7 6 7 6 7 6 7 6 8 6 8 6 8 6 8 5 8 5 8 3 4 9 -7 15 -13 15 -13 15 -13 15 -13 15 -13 15 -13 15 -13 15 -13 15 -13 15 -13z"/>
   <path class="fil25" d="M13318 7060c0,0 -277,148 -261,182 16,34 476,-78 489,-105 13,-27 -63,-110 -63,-110l-166 33z"/>
   <path class="fil25" d="M12741 7085l-179 0c0,0 -276,109 -264,138 13,30 456,5 470,-24 14,-30 -27,-114 -27,-114z"/>
   <path class="fil10" d="M12409 4512c-256,60 -447,111 -447,111 -21,3 -56,-266 132,-321 265,-77 314,210 314,210z"/>
   <path class="fil10" d="M11947 4578c-165,216 215,27 247,-14l-247 14z"/>
   <polygon class="fil27" points="12464,6880 12464,6881 11991,6881 11991,6880 11991,6877 11990,6874 11990,6870 11989,6867 11989,6864 11988,6861 11987,6858 11987,6854 11986,6851 11986,6848 11985,6845 11985,6842 11984,6838 11984,6835 11983,6832 11983,6829 11982,6825 11982,6822 11981,6819 11981,6816 11980,6813 11980,6809 11979,6806 11979,6803 11978,6800 11978,6796 11977,6793 11977,6790 11976,6787 11976,6784 11975,6780 11975,6777 11974,6774 11974,6771 11973,6767 11973,6764 11972,6761 11972,6758 11971,6755 11971,6751 11970,6748 11970,6745 11969,6742 11969,6739 11968,6735 11968,6732 11967,6729 11967,6726 11966,6722 11966,6719 11965,6716 11965,6713 11964,6710 11964,6706 11963,6703 11963,6700 11962,6697 11962,6693 11961,6690 11961,6687 11960,6684 11960,6681 11959,6677 11959,6674 11958,6671 11958,6668 11957,6664 11957,6661 11956,6658 11956,6655 11955,6652 11955,6648 11954,6645 11954,6642 11953,6639 11953,6636 11952,6632 11952,6629 11951,6626 11951,6623 11950,6619 11950,6616 11949,6613 11949,6610 11948,6607 11948,6603 11947,6600 11947,6597 11946,6594 11946,6590 11945,6587 11945,6584 11944,6581 11944,6578 11943,6574 11942,6571 11942,6568 11941,6565 11941,6562 11940,6558 11940,6555 11939,6552 11939,6549 11938,6545 11938,6542 11937,6539 11937,6536 11936,6533 11936,6529 11935,6526 11935,6523 11934,6520 11934,6516 11933,6513 11933,6510 11932,6507 11932,6504 11931,6500 11931,6497 11930,6494 11930,6491 11929,6487 11929,6484 11928,6481 11928,6478 11927,6475 11927,6471 11926,6468 11926,6465 11925,6462 11925,6459 11924,6455 11924,6452 11923,6449 11923,6446 11922,6442 11922,6439 11921,6436 11921,6433 11920,6430 11920,6426 11919,6423 11919,6420 11918,6417 11918,6413 11917,6410 11917,6407 11916,6404 11916,6401 11915,6397 11915,6394 11914,6391 11914,6388 11913,6385 11913,6381 11912,6378 11912,6375 11911,6372 11911,6368 11910,6365 11910,6362 11909,6359 11909,6356 11908,6352 11908,6349 11907,6346 11907,6343 11906,6339 11906,6336 11905,6333 11905,6330 11904,6327 11904,6323 11903,6320 11903,6317 11902,6314 11902,6310 11901,6307 11901,6304 11900,6301 11900,6298 11899,6294 11899,6291 11898,6288 11897,6285 11897,6282 11896,6278 11896,6275 11895,6272 11895,6269 11894,6265 11894,6262 11893,6259 11893,6256 11892,6253 11892,6252 12562,6252 12562,6253 12562,6253 12562,6256 12561,6259 12561,6262 12560,6265 12560,6269 12559,6272 12559,6275 12558,6278 12558,6282 12557,6285 12557,6288 12556,6291 12556,6294 12555,6298 12555,6301 12554,6304 12554,6307 12553,6310 12553,6314 12552,6317 12552,6320 12551,6323 12551,6327 12550,6330 12550,6333 12549,6336 12549,6339 12548,6343 12548,6346 12547,6349 12547,6352 12546,6356 12546,6359 12545,6362 12545,6365 12544,6368 12544,6372 12543,6375 12543,6378 12542,6381 12542,6385 12541,6388 12541,6391 12540,6394 12540,6397 12539,6401 12539,6404 12538,6407 12538,6410 12537,6413 12537,6417 12536,6420 12536,6423 12535,6426 12535,6430 12534,6433 12534,6436 12533,6439 12532,6442 12532,6446 12531,6449 12531,6452 12530,6455 12530,6459 12529,6462 12529,6465 12528,6468 12528,6471 12527,6475 12527,6478 12526,6481 12526,6484 12525,6487 12525,6491 12524,6494 12524,6497 12523,6500 12523,6504 12522,6507 12522,6510 12521,6513 12521,6516 12520,6520 12520,6523 12519,6526 12519,6529 12518,6533 12518,6536 12517,6539 12517,6542 12516,6545 12516,6549 12515,6552 12515,6555 12514,6558 12514,6562 12513,6565 12513,6568 12512,6571 12512,6574 12511,6578 12511,6581 12510,6584 12510,6587 12509,6590 12509,6594 12508,6597 12508,6600 12507,6603 12507,6607 12506,6610 12506,6613 12505,6616 12505,6619 12504,6623 12504,6626 12503,6629 12503,6632 12502,6636 12502,6639 12501,6642 12501,6645 12500,6648 12500,6652 12499,6655 12499,6658 12498,6661 12498,6664 12497,6668 12497,6671 12496,6674 12496,6677 12495,6681 12495,6684 12494,6687 12494,6690 12493,6693 12493,6697 12492,6700 12492,6703 12491,6706 12491,6710 12490,6713 12489,6716 12489,6719 12488,6722 12488,6726 12487,6729 12487,6732 12486,6735 12486,6739 12485,6742 12485,6745 12484,6748 12484,6751 12483,6755 12483,6758 12482,6761 12482,6764 12481,6767 12481,6771 12480,6774 12480,6777 12479,6780 12479,6784 12478,6787 12478,6790 12477,6793 12477,6796 12476,6800 12476,6803 12475,6806 12475,6809 12474,6813 12474,6816 12473,6819 12473,6822 12472,6825 12472,6829 12471,6832 12471,6835 12470,6838 12470,6842 12469,6845 12469,6848 12468,6851 12468,6854 12467,6858 12467,6861 12466,6864 12466,6867 12465,6870 12465,6874 12464,6877 "/>
   <path class="fil28" d="M12563 6268c-6,0 -12,-4 -15,-10 -2,-4 -167,-399 -330,-399 -162,0 -309,394 -311,398 -3,8 -12,12 -21,9 -8,-3 -13,-12 -9,-21 6,-17 157,-419 341,-419 184,0 352,401 359,418 3,8 -1,18 -9,21l-6 1z"/>
   <path class="fil24" d="M12281 5744c-36,45 -94,57 -103,94 -9,37 37,119 106,42 107,-119 49,-62 49,-62l-52 -74z"/>
   <path class="fil22" d="M12486 4707c394,20 259,705 213,774 -45,69 -396,383 -396,383l-56 -91c0,0 228,-291 272,-371 36,-65 30,-480 30,-480l-63 -215z"/>
  </g>
  <g id="_322208160">
   <path class="fil5" d="M14918 7030l-763 0 338 -1045c14,-42 73,-42 87,0l338 1045z"/>
   <path class="fil6" d="M14991 7104l-909 0c-20,0 -37,-16 -37,-37 0,-20 16,-37 37,-37l909 0c20,0 37,16 37,37 0,20 -16,37 -37,37z"/>
   <polygon class="fil7" points="14671,6267 14402,6267 14404,6261 14669,6261 "/>
   <polygon class="fil7" points="14673,6274 14400,6274 14402,6267 14671,6267 "/>
   <polygon class="fil7" points="14675,6281 14398,6281 14400,6274 14673,6274 "/>
   <polygon class="fil7" points="14678,6288 14395,6288 14398,6281 14675,6281 "/>
   <polygon class="fil8" points="14680,6295 14393,6295 14395,6288 14678,6288 "/>
   <polygon class="fil8" points="14682,6301 14391,6301 14393,6295 14680,6295 "/>
   <polygon class="fil8" points="14684,6308 14389,6308 14391,6301 14682,6301 "/>
   <polygon class="fil8" points="14686,6315 14387,6315 14389,6308 14684,6308 "/>
   <polygon class="fil8" points="14688,6322 14384,6322 14387,6315 14686,6315 "/>
   <polygon class="fil8" points="14691,6328 14382,6328 14384,6322 14688,6322 "/>
   <polygon class="fil9" points="14693,6335 14380,6335 14382,6328 14691,6328 "/>
   <polygon class="fil9" points="14695,6342 14378,6342 14380,6335 14693,6335 "/>
   <polygon class="fil9" points="14697,6349 14376,6349 14378,6342 14695,6342 "/>
   <polygon class="fil9" points="14699,6356 14373,6356 14376,6349 14697,6349 "/>
   <polygon class="fil9" points="14702,6362 14371,6362 14373,6356 14699,6356 "/>
   <polygon class="fil9" points="14704,6369 14369,6369 14371,6362 14702,6362 "/>
   <polygon class="fil10" points="14706,6376 14367,6376 14369,6369 14704,6369 "/>
   <polygon class="fil10" points="14708,6383 14365,6383 14367,6376 14706,6376 "/>
   <polygon class="fil10" points="14710,6389 14362,6389 14365,6383 14708,6383 "/>
   <polygon class="fil10" points="14713,6396 14360,6396 14362,6389 14710,6389 "/>
   <polygon class="fil10" points="14715,6403 14358,6403 14360,6396 14713,6396 "/>
   <polygon class="fil10" points="14717,6410 14356,6410 14358,6403 14715,6403 "/>
   <polygon class="fil10" points="14719,6417 14354,6417 14356,6410 14717,6410 "/>
   <polygon class="fil10" points="14721,6423 14352,6423 14354,6417 14719,6417 "/>
   <polygon class="fil11" points="14724,6430 14349,6430 14352,6423 14721,6423 "/>
   <polygon class="fil11" points="14726,6437 14347,6437 14349,6430 14724,6430 "/>
   <polygon class="fil11" points="14728,6444 14345,6444 14347,6437 14726,6437 "/>
   <polygon class="fil11" points="14730,6450 14343,6450 14345,6444 14728,6444 "/>
   <polygon class="fil12" points="14341,6457 14343,6450 14730,6450 14732,6457 14735,6464 14737,6471 14739,6478 14741,6484 14743,6491 14746,6498 14748,6505 14750,6511 14752,6518 14754,6525 14756,6532 14759,6538 14761,6545 14763,6552 14765,6559 14767,6566 14770,6572 14772,6579 14774,6586 14776,6593 14778,6599 14781,6606 14783,6613 14785,6620 14787,6627 14789,6633 14792,6640 14281,6640 14284,6633 14286,6627 14288,6620 14290,6613 14292,6606 14294,6599 14297,6593 14299,6586 14301,6579 14303,6572 14305,6566 14308,6559 14310,6552 14312,6545 14314,6538 14316,6532 14319,6525 14321,6518 14323,6511 14325,6505 14327,6498 14330,6491 14332,6484 14334,6478 14336,6471 14338,6464 "/>
   <polygon class="fil13" points="14794,6647 14279,6647 14281,6640 14792,6640 "/>
   <polygon class="fil14" points="14796,6654 14277,6654 14279,6647 14794,6647 "/>
   <polygon class="fil14" points="14798,6660 14275,6660 14277,6654 14796,6654 "/>
   <polygon class="fil14" points="14800,6667 14273,6667 14275,6660 14798,6660 "/>
   <polygon class="fil14" points="14803,6674 14270,6674 14273,6667 14800,6667 "/>
   <polygon class="fil15" points="14805,6681 14268,6681 14270,6674 14803,6674 "/>
   <polygon class="fil15" points="14807,6688 14266,6688 14268,6681 14805,6681 "/>
   <polygon class="fil15" points="14809,6694 14264,6694 14266,6688 14807,6688 "/>
   <polygon class="fil15" points="14811,6701 14262,6701 14264,6694 14809,6694 "/>
   <polygon class="fil15" points="14814,6708 14259,6708 14262,6701 14811,6701 "/>
   <polygon class="fil15" points="14816,6715 14257,6715 14259,6708 14814,6708 "/>
   <polygon class="fil16" points="14818,6721 14255,6721 14257,6715 14816,6715 "/>
   <polygon class="fil16" points="14820,6728 14253,6728 14255,6721 14818,6721 "/>
   <polygon class="fil16" points="14822,6735 14251,6735 14253,6728 14820,6728 "/>
   <polygon class="fil16" points="14824,6742 14248,6742 14251,6735 14822,6735 "/>
   <polygon class="fil16" points="14827,6749 14246,6749 14248,6742 14824,6742 "/>
   <polygon class="fil16" points="14829,6755 14244,6755 14246,6749 14827,6749 "/>
   <polygon class="fil16" points="14831,6762 14242,6762 14244,6755 14829,6755 "/>
   <polygon class="fil16" points="14833,6769 14240,6769 14242,6762 14831,6762 "/>
   <polygon class="fil17" points="14835,6776 14237,6776 14240,6769 14833,6769 "/>
   <polygon class="fil17" points="14838,6782 14235,6782 14237,6776 14835,6776 "/>
   <polygon class="fil17" points="14840,6789 14233,6789 14235,6782 14838,6782 "/>
   <polygon class="fil17" points="14842,6796 14231,6796 14233,6789 14840,6789 "/>
   <polygon class="fil18" points="14844,6803 14229,6803 14231,6796 14842,6796 "/>
   <polygon class="fil18" points="14846,6810 14227,6810 14229,6803 14844,6803 "/>
   <polygon class="fil18" points="14849,6816 14224,6816 14227,6810 14846,6810 "/>
   <polygon class="fil18" points="14851,6823 14222,6823 14224,6816 14849,6816 "/>
   <polygon class="fil18" points="14853,6830 14220,6830 14222,6823 14851,6823 "/>
   <polygon class="fil18" points="14855,6837 14218,6837 14220,6830 14853,6830 "/>
   <polygon class="fil19" points="14857,6843 14216,6843 14218,6837 14855,6837 "/>
   <polygon class="fil19" points="14213,6850 14216,6843 14857,6843 14860,6850 14862,6857 14864,6864 14866,6871 14868,6877 14871,6884 14873,6891 14875,6898 14877,6904 14879,6911 14882,6918 14884,6925 14886,6932 14888,6938 14890,6945 14892,6952 14895,6959 14897,6965 14899,6972 14901,6979 14903,6986 14906,6993 14908,6999 14910,7006 14912,7013 14914,7020 14917,7026 14918,7030 14918,7030 14155,7030 14156,7026 14159,7020 14161,7013 14163,7006 14165,6999 14167,6993 14170,6986 14172,6979 14174,6972 14176,6965 14178,6959 14180,6952 14183,6945 14185,6938 14187,6932 14189,6925 14191,6918 14194,6911 14196,6904 14198,6898 14200,6891 14202,6884 14205,6877 14207,6871 14209,6864 14211,6857 "/>
   <path class="fil20" d="M14667 6255l-261 0 -64 199 390 0 -64 -199zm-451 587l64 -199 512 0 64 199 -641 0z"/>
  </g>
  <g id="_325620456">
   <polygon class="fil1" points="3320,7798 3319,7800 2847,7800 2847,7798 2846,7795 2846,7791 2845,7788 2845,7784 2844,7780 2843,7777 2843,7773 2842,7769 2842,7766 2841,7762 2841,7759 2840,7755 2839,7751 2839,7748 2838,7744 2838,7740 2837,7737 2837,7733 2836,7730 2835,7726 2835,7722 2834,7719 2834,7715 2833,7711 2833,7708 2832,7704 2831,7701 2831,7697 2830,7693 2830,7690 2829,7686 2829,7682 2828,7679 2827,7675 2827,7672 2826,7668 2826,7664 2825,7661 2825,7657 2824,7653 2823,7650 2823,7646 2822,7643 2822,7639 2821,7635 2821,7632 2820,7628 2819,7624 2819,7621 2818,7617 2818,7613 2817,7610 2817,7606 2816,7603 2815,7599 2815,7595 2814,7592 2814,7588 2813,7584 2813,7581 2812,7577 2811,7574 2811,7570 2810,7566 2810,7563 2809,7559 2809,7555 2808,7552 2807,7548 2807,7545 2806,7541 2806,7537 2805,7534 2805,7530 2804,7526 2803,7523 2803,7519 2802,7516 2802,7512 2801,7508 2801,7505 2800,7501 2800,7497 2799,7494 2798,7490 2798,7487 2797,7483 2797,7479 2796,7476 2796,7472 2795,7468 2794,7465 2794,7461 2793,7457 2793,7454 2792,7450 2792,7447 2791,7443 2790,7439 2790,7436 2789,7432 2789,7428 2788,7425 2788,7421 2787,7418 2786,7414 2786,7410 2785,7407 2785,7403 2784,7399 2784,7396 2783,7392 2782,7389 2782,7385 2781,7381 2781,7378 2780,7374 2780,7370 2779,7367 2778,7363 2778,7360 2777,7356 2777,7352 2776,7349 2776,7345 2775,7341 2774,7338 2774,7334 2773,7331 2773,7327 2772,7323 2772,7320 2771,7316 2770,7312 2770,7309 2769,7305 2769,7301 2768,7298 2768,7294 2767,7291 2766,7287 2766,7283 2765,7280 2765,7276 2764,7272 2764,7269 2763,7265 2762,7262 2762,7258 2761,7254 2761,7251 2760,7247 2760,7243 2759,7240 2758,7236 2758,7233 2757,7229 2757,7225 2756,7222 2756,7218 2755,7214 2754,7211 2754,7207 2753,7204 2753,7200 2752,7196 2752,7193 2751,7189 2750,7185 2750,7182 2749,7178 2749,7175 2748,7171 2748,7171 3418,7171 3418,7171 3418,7173 3418,7175 3417,7178 3417,7182 3416,7185 3415,7189 3415,7193 3414,7196 3414,7200 3413,7204 3413,7207 3412,7211 3411,7214 3411,7218 3410,7222 3410,7225 3409,7229 3409,7233 3408,7236 3408,7240 3407,7243 3406,7247 3406,7251 3405,7254 3405,7258 3404,7262 3404,7265 3403,7269 3402,7272 3402,7276 3401,7280 3401,7283 3400,7287 3400,7291 3399,7294 3398,7298 3398,7301 3397,7305 3397,7309 3396,7312 3396,7316 3395,7320 3394,7323 3394,7327 3393,7331 3393,7334 3392,7338 3392,7341 3391,7345 3390,7349 3390,7352 3389,7356 3389,7360 3388,7363 3388,7367 3387,7370 3386,7374 3386,7378 3385,7381 3385,7385 3384,7389 3384,7392 3383,7396 3382,7399 3382,7403 3381,7407 3381,7410 3380,7414 3380,7418 3379,7421 3378,7425 3378,7428 3377,7432 3377,7436 3376,7439 3376,7443 3375,7447 3374,7450 3374,7454 3373,7457 3373,7461 3372,7465 3372,7468 3371,7472 3370,7476 3370,7479 3369,7483 3369,7487 3368,7490 3368,7494 3367,7497 3366,7501 3366,7505 3365,7508 3365,7512 3364,7516 3364,7519 3363,7523 3362,7526 3362,7530 3361,7534 3361,7537 3360,7541 3360,7545 3359,7548 3358,7552 3358,7555 3357,7559 3357,7563 3356,7566 3356,7570 3355,7574 3354,7577 3354,7581 3353,7584 3353,7588 3352,7592 3352,7595 3351,7599 3350,7603 3350,7606 3349,7610 3349,7613 3348,7617 3348,7621 3347,7624 3346,7628 3346,7632 3345,7635 3345,7639 3344,7643 3344,7646 3343,7650 3343,7653 3342,7657 3341,7661 3341,7664 3340,7668 3340,7672 3339,7675 3339,7679 3338,7682 3337,7686 3337,7690 3336,7693 3336,7697 3335,7701 3335,7704 3334,7708 3333,7711 3333,7715 3332,7719 3332,7722 3331,7726 3331,7730 3330,7733 3329,7737 3329,7740 3328,7744 3328,7748 3327,7751 3327,7755 3326,7759 3325,7762 3325,7766 3324,7769 3324,7773 3323,7777 3323,7780 3322,7784 3321,7788 3321,7791 3320,7795 "/>
   <path class="fil28" d="M2803 7537c-37,0 -65,-14 -84,-40 -67,-93 11,-321 14,-331 3,-8 12,-13 20,-10 8,3 13,12 10,20 -21,62 -65,236 -18,302 13,18 32,27 58,27 168,0 601,-343 605,-347 7,-6 17,-4 22,3 6,7 4,17 -3,22 -18,14 -446,353 -625,353z"/>
  </g>
  <g id="_325621416">
   <path class="fil21" d="M3995 7844l-10 -1c-23,-6 -37,-29 -31,-52l1175 -4735c6,-23 29,-37 52,-31 23,6 37,29 31,52l-1175 4735c-5,19 -22,32 -41,32z"/>
   <path class="fil21" d="M4932 7844l-10 -1c-23,-6 -37,-29 -31,-52l1175 -4735c6,-23 29,-37 52,-31 23,6 37,29 31,52l-1175 4735c-5,19 -22,32 -41,32z"/>
   <path class="fil21" d="M6014 3414l-931 -3 0 -85 931 3 0 85zm-149 603l-931 -3 0 -85 931 3 0 85zm-149 603l-931 -3 0 -85 931 3 0 85zm-149 603l-931 -3 0 -85 931 3 0 85zm-149 603l-931 -3 0 -85 931 3 0 85zm-149 603l-931 -3 0 -85 931 3 0 85zm-149 603l-931 -3 0 -85 931 3 0 85z"/>
   <g>
    <path class="fil28" d="M5163 5284l-7 -1c-17,-4 -28,-21 -24,-38l601 -2583c2,-8 -2,-14 -4,-16 -2,-3 -7,-7 -15,-7l-325 0c-23,0 -44,-9 -60,-25 -16,-16 -25,-38 -25,-60l1 -77c1,-65 54,-117 118,-117 18,0 32,14 32,32 0,18 -14,32 -32,32 -30,0 -54,24 -54,54l-1 77c0,6 2,11 6,15 4,4 9,6 15,6l325 0c26,0 49,11 65,32 16,20 22,46 16,71l-601 2583c-3,15 -17,25 -31,25z"/>
    <path class="fil22" d="M6097 2531l-595 0c-38,0 -69,-31 -69,-68l0 -148c0,-38 31,-68 69,-68l595 0c38,0 68,31 68,68l0 148c0,38 -31,69 -68,68z"/>
   </g>
   <path class="fil24" d="M5443 3623c57,-23 88,-84 148,-75 33,5 19,100 -31,152 -12,12 -105,41 -105,41l-12 -117z"/>
   <path class="fil22" d="M5487 3593c0,0 -205,91 -318,91 -76,0 -148,-408 -310,-408 -16,99 9,188 -19,285 60,154 153,323 236,346 93,25 411,-166 411,-166l0 -148z"/>
   <path class="fil22" d="M5012 3802c-29,10 -68,-12 -56,-50 49,-153 15,-391 -67,-457 -89,-72 -217,-55 -318,-29 -124,123 -20,524 -33,966 257,-17 258,65 499,-19 -42,-136 -39,-292 -24,-412z"/>
   <path class="fil25" d="M4648 6204c0,0 324,87 316,126 -8,39 -515,34 -536,9 -20,-24 39,-130 39,-130l181 -6z"/>
   <path class="fil25" d="M4996 5566l167 37c0,0 229,78 215,110 -13,32 -385,24 -400,-8 -15,-32 18,-139 18,-139z"/>
   <path class="fil24" d="M4713 3141c-1,59 -4,65 -15,99 36,50 101,97 125,92 24,-5 -5,-43 -5,-48 0,-51 10,-75 22,-125l-127 -19z"/>
   <path class="fil29" d="M4823 3259c-2,-3 -3,-4 -3,-4 5,1 9,3 13,4 8,4 12,7 12,8 1,1 3,2 4,3 3,3 6,6 11,11 3,3 6,7 9,11 3,3 6,7 9,11 3,3 5,7 8,11 3,3 5,7 8,11 2,4 5,7 7,11 2,4 5,7 7,11 2,4 4,7 7,11 2,4 4,7 6,11 2,4 4,7 6,11 2,4 4,7 6,11 2,4 4,7 5,11 2,4 3,7 5,11 2,4 3,7 5,11 2,4 3,7 5,11 1,4 3,7 4,11 1,4 3,7 4,11 1,4 3,7 4,11 1,4 2,7 3,11 1,4 2,7 3,11l2 7 1 4c1,3 2,7 3,11 1,4 2,7 2,11l2 11 2 11 2 11 2 11 2 11 2 11 2 11 2 11 2 11 2 11 2 11 2 11 1 11 1 11 1 11 1 11 1 11 1 11 1 11 1 11 1 11 1 11 1 11 1 11 1 11 1 11 1 11 1 11 1 11 1 11 1 11 1 11 1 11 1 11 1 11 1 11 1 11 1 11 1 11 1 11 1 11 1 11 1 11 1 11 1 11 1 11 1 11 1 11 1 7 4 4 12 11 12 11 12 11 12 11 11 11 11 11 -596 2 0 -11 0 -11 0 -11 0 -11 0 -11 0 -11 0 -11 0 -11 0 -11 0 -11 0 -11 0 -11 0 -11 0 -9 13 -2 85 -11 85 -11 85 -11 3 0c0,0 1,-4 2,-11l2 -11 2 -11 1 -11 1 -11 1 -11 1 -11 1 -11 1 -11 1 -11 1 -11 1 -11 1 -11 1 -11 0 -11 0 -11 0 -11 0 -11 0 -11 0 -11 0 -11 0 -11 -1 -11 -1 -11c0,-4 -1,-7 -1,-11 0,-4 -1,-7 -1,-11 0,-4 -1,-7 -1,-11l-2 -11c-1,-4 -1,-7 -2,-11 -1,-4 -1,-7 -2,-11l-1 -7 -1 -4 -3 -11 -3 -11 -3 -11 -3 -11 -3 -11 -3 -11 -3 -11 -3 -11 -3 -11 -3 -11 -3 -11 -3 -11 -3 -11 -3 -11 -3 -11 -3 -11 -3 -11 -3 -11 -3 -11 -4 -11 -4 -11 -4 -11 -4 -11 -4 -11 -4 -11 -4 -11c-2,-4 -3,-7 -4,-11 -2,-4 -3,-8 -5,-11 -2,-4 -3,-8 -5,-11 -2,-4 -4,-8 -6,-11 -2,-4 -5,-8 -7,-11 -5,-7 -9,-10 -13,-10l1 -1c6,-4 20,-7 25,-8 3,3 6,5 8,8 3,4 7,7 10,11 3,4 6,7 9,11 3,4 6,7 8,11 3,4 5,7 8,11 3,4 5,7 7,11 2,4 5,7 7,11 2,4 4,7 7,11 2,4 4,7 6,11 2,4 4,7 6,11 2,4 4,7 6,11 2,4 4,7 5,11 2,4 3,7 5,11l5 11c2,4 3,7 5,11l4 11 4 11 4 11 4 11 4 11 4 11 3 11 3 11c1,4 2,8 3,11 1,4 2,8 3,11 1,4 2,8 3,11 1,5 2,8 1,9 32,2 58,3 87,-2 1,0 1,-3 0,-7 -1,-3 -2,-7 -3,-11 -1,-3 -2,-7 -3,-11l-4 -11 -4 -11 -4 -11 -4 -11 -4 -11 -4 -11 -4 -11 -4 -11 -4 -11 -4 -11 -4 -11 -4 -11 -4 -11 -5 -11 -5 -11 -5 -11 -5 -11 -5 -11 -5 -11 -5 -11c-2,-4 -4,-8 -5,-11 -2,-5 -4,-8 -6,-11z"/>
   <path class="fil30" d="M4521 4144l0 -11 596 -2 11 11 11 11 11 11 11 11 11 11 11 11 11 11 11 11 11 11 11 11 11 11 11 11 11 11 10 11 10 11 10 11 10 11 10 11 10 11 10 11 10 11 10 11 10 11 10 11 10 11 10 11 10 11 9 11 9 11 9 11 9 11 9 11 9 11 9 11 9 11 9 11 9 11 9 11 8 11 8 11 8 11 8 11 8 11 8 11 8 11 8 11 7 11 7 11 7 11 7 11 7 11 7 11 6 11c2,4 4,7 6,11l0 0c0,3 0,6 -1,11 -1,3 -2,7 -3,11 -1,3 -2,7 -4,11 -1,3 -3,7 -4,11 -1,4 -3,7 -4,11l-5 11 -5 11 -5 11 -5 11 -5 11 -5 11 -5 11 -5 11 -5 11 -5 11 -5 11 -6 11 -6 11 -6 11 -6 11 -6 11 -6 11 -6 11 -6 11 -6 11 -6 11 -6 11 -6 11 -6 11 -6 11 -6 11 -6 11 -6 11 -6 11 -6 11 -6 11 -6 11 -6 11 -6 11 -6 11 -6 11 -6 11 -6 11 -6 11 -6 11 -6 11 -6 11 -6 11 -6 11 -6 11 -6 11 -6 11 -6 11 -6 11 -6 11 -6 11 -6 11 -6 11 -6 11 -6 11 -6 11 -6 11 -6 11 -6 11 -6 11 -6 11 -6 11 -6 11 -6 11 -6 11 -6 11 -6 11 -6 11 -6 11 -6 11 -6 11 -6 11 -6 11 -6 11 -2 3 -15 -3 -49 -11 -49 -11 -49 -11 -5 -1 4 -10 4 -11 4 -11 4 -11 4 -11 4 -11 4 -11 4 -11 4 -11 4 -11 4 -11 4 -11 4 -11 4 -11 4 -11 4 -11 4 -11 4 -11 4 -11 4 -11 4 -11 4 -11 4 -11 4 -11 4 -11 4 -11 4 -11 4 -11 4 -11 4 -11 4 -11 4 -11 4 -11 4 -11 4 -11 4 -11 4 -11 4 -11 4 -11 4 -11 4 -11 4 -11 4 -11 4 -11 4 -11 4 -11 4 -11 4 -11 4 -11 4 -11 4 -11 4 -11 4 -11 4 -11 4 -11 4 -11 4 -11 4 -11 4 -11 4 -11 4 -11 4 -11 4 -11 4 -11 4 -11 4 -11 4 -11 4 -11 4 -11 4 -11 0 0 -11 -11 -12 -11 -12 -11 -12 -11 -12 -11 -12 -11 -12 -11 -12 -11 -12 -11 -12 -11 -12 -11 -12 -11 -12 -11 -12 -11 -12 -11 -12 -11 -12 -11 -12 -11 -12 -11 -12 -11 -12 -11 -12 -11 -12 -11 -3 -3 0 3 2 11 2 11 1 11 1 11 1 11 1 11 1 11 1 11 1 11 1 11 1 11 1 11 1 11 1 11 1 11 1 11 1 11 1 11 1 11 1 11 1 11 1 11 1 11 1 11 1 11 1 11 1 11 1 11 1 11 1 11 1 11 1 11 1 11 1 11 1 11 1 11 1 11 1 11 0 11 0 11 0 11 0 11 0 11 0 11 0 11 0 11 0 11 0 11 0 11 0 11 0 11 0 11 0 11 0 11 0 11 0 11 0 11 0 11 0 11 0 11 0 11 0 11 0 11 0 11 0 11 0 11 0 11 0 11 0 11 0 3 -4 8 -5 11 -5 11 -5 11 -5 11 -5 11 -5 11 -5 11 -5 11 -5 11 -5 11 -5 11 -5 11 -5 11 -5 11 -5 11 -5 11 -5 11 -5 11 -5 11 -5 11 -5 11 -5 11 -5 11 -5 11 -5 11 -5 11 -5 11 -5 11 -5 11 -5 11 -5 11 -5 11 -5 11 -5 11 -5 11 -5 11 -5 11 -5 11 -5 11 -5 11 -5 11 -5 11 -5 11 -186 415 -181 6 130 -420 3 -11 3 -11 3 -11 3 -11 3 -11 3 -11 3 -11 3 -11 3 -11 3 -11 3 -11 3 -11 3 -11 3 -11 3 -11 3 -11 3 -11 3 -11 3 -11 3 -11 3 -11 3 -11 3 -11 3 -11 3 -11 3 -11 3 -11 3 -11 3 -11 3 -11 3 -11 3 -11 3 -11 3 -11 3 -11 3 -11 3 -11 3 -11 3 -11 3 -11 3 -11 3 -11 3 -11 3 -11 3 -11 3 -11 3 -10 0 -1 -3 -11 -3 -11 -3 -11 -3 -11 -3 -11 -3 -11 -3 -11 -3 -11 -3 -11 -3 -11 -3 -11 -3 -11 -3 -11 -3 -11 -3 -11 -3 -11 -3 -11 -3 -11 -3 -11 -3 -11 -3 -11 -3 -11 -3 -11 -3 -11 -3 -11 -3 -11 -3 -11 -3 -11 -3 -11 -3 -11 -3 -11 -3 -11 -3 -11 -3 -11 -3 -11 -3 -11 -3 -11 -3 -11 -3 -11 -3 -11 -3 -11 -3 -11 -3 -11 -3 -11 -3 -11 -3 -11 -3 -11 -3 -11 -3 -11 -3 -11 -3 -11 -3 -11 -3 -11 -3 -11 -3 -11 -3 -11 -3 -11 -3 -11 -3 -11 -3 -11 -3 -11 -3 -11 -3 -11 -3 -11 -3 -11 -2 -11 -2 -11 -2 -11 -2 -11 -2 -11 -2 -11 -2 -11 -2 -11 -2 -11 -2 -11 -2 -11 -2 -11 -2 -11 -2 -11 -2 -11 -2 -11 -2 -11 -1 -11 -1 -11 -1 -11c0,-4 -1,-7 -1,-11 0,-4 -1,-7 -1,-11 0,-4 0,-8 0,-11 0,-4 0,-7 0,-10l0 -1 0 -11 0 -11 0 -11 0 -11 0 -11 0 -11 0 -11 0 -11 0 -11 0 -11 0 -11 0 -11 0 -11z"/>
   <path class="fil24" d="M4979 2932c-2,142 -89,370 -235,267 -146,-103 -159,-268 -159,-268 0,0 266,-567 394,2z"/>
   <path class="fil25" d="M4714 2967c-45,23 -25,98 5,112 4,2 10,4 11,9l0 9c-6,25 0,62 -23,73 -103,-50 -119,-123 -132,-197 -5,-30 -8,-62 1,-91 9,-30 28,-56 48,-81 20,-26 41,-52 72,-63 14,-5 30,-6 45,-6 48,-2 96,-4 144,-6 12,-1 24,-1 35,2 20,6 35,24 46,42 31,48 52,101 62,157 1,6 2,12 -1,16 -2,5 -7,7 -12,9 -23,10 -49,15 -74,13 -182,-18 -158,87 -158,87 0,0 -29,-106 -68,-87z"/>
   <path class="fil10" d="M4571 3063c272,-117 478,-198 478,-198 21,-11 -127,-278 -334,-202 -291,107 -144,400 -144,400z"/>
   <path class="fil10" d="M5033 2815c294,85 -177,168 -233,152l233 -152z"/>
   <path class="fil24" d="M5298 4045c62,4 113,-32 149,-12 36,20 123,127 -48,123 -171,-4 -141,0 -141,0l40 -111z"/>
   <path class="fil22" d="M4643 3254c-58,-4 -139,33 -156,79 -80,206 6,643 35,709 63,144 762,112 762,112l39 -127c0,0 -560,-52 -624,-100 -25,-18 22,-668 -56,-673z"/>
  </g>
  <rect class="fil3" x="11572" y="1299" width="6066" height="2482" rx="210" ry="210"/>
  <path class="fil31" d="M12031 2408l0 -359 -84 0 0 -87 276 0 0 87 -88 0 0 359 -104 0zm235 0l0 -446 104 0 0 168 84 0 0 -168 102 0 0 446 -102 0 0 -185 -84 0 0 185 -104 0zm362 0l0 -446 104 0 0 446 -104 0zm163 -151l95 0 0 13c0,25 3,42 9,52 6,10 16,15 29,15 11,0 20,-4 26,-11 6,-8 10,-18 10,-31 0,-22 -16,-42 -46,-62 -5,-3 -9,-6 -12,-8l-5 -3c-42,-28 -68,-49 -78,-64 -7,-11 -13,-23 -17,-36 -4,-13 -6,-28 -6,-44 0,-39 11,-70 34,-92 23,-22 54,-33 93,-33 43,0 76,11 99,33 23,22 34,53 34,95 0,2 0,4 0,7 0,3 0,5 0,7l-94 0 0 -6c0,-19 -3,-34 -9,-44 -6,-10 -15,-15 -26,-15 -10,0 -18,4 -24,11 -6,7 -9,16 -9,28 0,19 17,39 51,60 6,4 11,7 14,9 3,1 7,4 11,7 36,23 60,43 70,58 6,10 11,22 15,35 3,13 5,27 5,42 0,45 -12,79 -35,103 -23,24 -56,36 -99,36 -45,0 -79,-12 -102,-35 -23,-23 -34,-57 -34,-103 0,-3 0,-6 0,-9 0,-3 0,-8 1,-15zm589 -103c2,0 3,0 5,1 2,0 5,0 9,0 21,0 36,-5 45,-15 9,-10 14,-25 14,-47 0,-18 -5,-31 -15,-39 -10,-8 -26,-12 -49,-12l-9 0 0 111zm-105 254l0 -446 103 0c38,0 66,2 84,5 18,3 33,9 46,17 16,10 29,25 37,45 9,20 13,43 13,71 0,45 -12,80 -36,103 -24,23 -59,35 -105,35l-37 0 0 171 -105 0zm402 -166l60 0 -30 -194 -30 194zm-129 166l97 -446 124 0 96 446 -104 0 -13 -85 -82 0 -13 85 -105 0zm632 -244l0 244 -72 0 -5 -28c-10,12 -22,21 -35,27 -13,6 -27,9 -43,9 -18,0 -35,-3 -50,-10 -15,-7 -29,-16 -40,-29 -14,-16 -24,-37 -30,-63 -6,-26 -9,-71 -9,-134 0,-45 2,-81 6,-108 4,-27 10,-47 19,-61 12,-20 29,-34 49,-44 20,-10 45,-15 73,-15 44,0 77,12 99,36 22,24 33,59 33,107 0,2 0,4 0,8 0,4 0,6 0,9l-99 0 0 -6c0,-26 -3,-44 -8,-55 -6,-11 -14,-17 -27,-17 -15,0 -25,7 -30,20 -5,14 -8,45 -8,95l0 44 0 31c0,50 3,81 8,94 5,13 15,19 29,19 14,0 24,-6 31,-17 6,-11 10,-30 10,-55 0,-6 0,-10 0,-13 0,-3 0,-6 0,-9l-41 0 0 -78 142 0zm68 244l0 -446 242 0 0 87 -139 0 0 82 128 0 0 90 -128 0 0 97 139 0 0 91 -242 0zm466 0l0 -446 104 0 0 446 -104 0zm163 -151l95 0 0 13c0,25 3,42 9,52 6,10 16,15 29,15 11,0 20,-4 26,-11 6,-8 10,-18 10,-31 0,-22 -16,-42 -46,-62 -5,-3 -9,-6 -12,-8l-5 -3c-42,-28 -68,-49 -78,-64 -7,-11 -13,-23 -17,-36 -4,-13 -6,-28 -6,-44 0,-39 11,-70 34,-92 23,-22 54,-33 93,-33 43,0 76,11 99,33 23,22 34,53 34,95 0,2 0,4 0,7 0,3 0,5 0,7l-94 0 0 -6c0,-19 -3,-34 -9,-44 -6,-10 -15,-15 -26,-15 -10,0 -18,4 -24,11 -6,7 -9,16 -9,28 0,19 17,39 51,60 6,4 11,7 14,9 3,1 7,4 11,7 36,23 60,43 70,58 6,10 11,22 15,35 3,13 5,27 5,42 0,45 -12,79 -35,103 -23,24 -56,36 -99,36 -45,0 -79,-12 -102,-35 -23,-23 -34,-57 -34,-103 0,-3 0,-6 0,-9 0,-3 0,-8 1,-15zm-2900 416l106 0 0 279c0,42 3,68 8,78 5,10 15,15 28,15 14,0 23,-5 28,-16 5,-10 8,-36 8,-78l0 -279 103 0 0 285c0,32 -1,56 -4,72 -3,16 -7,30 -14,42 -11,20 -26,35 -46,44 -20,9 -46,14 -78,14 -30,0 -54,-4 -73,-13 -19,-9 -34,-23 -45,-42 -8,-14 -13,-31 -17,-53 -3,-21 -5,-58 -5,-109l0 -240zm353 446l0 -446 108 0 87 275c-3,-46 -6,-86 -8,-120 -2,-33 -2,-62 -2,-85l0 -70 93 0 0 446 -109 0 -87 -283c4,37 7,73 9,107 2,35 3,68 3,101l0 75 -94 0zm456 -363l0 282c2,0 4,1 6,1 2,0 5,0 9,0 11,0 21,-2 28,-5 7,-3 13,-8 18,-15 4,-5 6,-16 8,-31 1,-16 2,-46 2,-91l0 -20c0,-37 -1,-62 -2,-75 -1,-13 -4,-22 -8,-27 -4,-6 -10,-11 -18,-14 -8,-3 -18,-5 -30,-5 -4,0 -7,0 -9,0 -2,0 -4,0 -5,0zm-105 363l0 -446 115 0c42,0 73,4 93,11 20,7 36,20 48,37 9,14 16,31 20,53 4,22 6,62 6,122 0,59 -2,100 -6,122 -4,22 -10,39 -20,53 -12,17 -28,30 -48,37 -20,7 -51,11 -93,11l-115 0zm346 0l0 -446 242 0 0 87 -139 0 0 82 128 0 0 90 -128 0 0 97 139 0 0 91 -242 0zm410 -260c2,0 4,0 7,0 3,0 5,0 6,0 22,0 37,-4 46,-13 9,-9 13,-23 13,-44 0,-19 -4,-33 -13,-41 -9,-8 -24,-12 -46,-12 -1,0 -3,0 -6,0 -3,0 -5,0 -7,0l0 109zm-103 260l0 -446 117 0c38,0 66,2 84,5 17,4 31,10 42,18 13,10 22,23 28,39 6,15 9,33 9,54 0,26 -4,47 -13,65 -9,17 -23,32 -42,43 32,14 49,48 51,102l0 1c0,6 0,14 1,24 1,50 9,82 25,94l-122 0c-3,-9 -5,-19 -6,-29 -1,-10 -2,-21 -2,-33 0,-7 0,-16 1,-26 0,-10 1,-17 1,-20 0,-27 -4,-46 -11,-56 -7,-10 -20,-15 -38,-15l-21 0 0 178 -103 0zm611 -363l0 282c2,0 4,1 6,1 2,0 5,0 9,0 11,0 21,-2 28,-5 7,-3 13,-8 18,-15 4,-5 6,-16 8,-31 1,-16 2,-46 2,-91l0 -20c0,-37 -1,-62 -2,-75 -1,-13 -4,-22 -8,-27 -4,-6 -10,-11 -18,-14 -8,-3 -18,-5 -30,-5 -4,0 -7,0 -9,0 -2,0 -4,0 -5,0zm-105 363l0 -446 115 0c42,0 73,4 93,11 20,7 36,20 48,37 9,14 16,31 20,53 4,22 6,62 6,122 0,59 -2,100 -6,122 -4,22 -10,39 -20,53 -12,17 -28,30 -48,37 -20,7 -51,11 -93,11l-115 0zm346 0l0 -446 242 0 0 87 -139 0 0 82 128 0 0 90 -128 0 0 97 139 0 0 91 -242 0zm375 0l-100 -446 110 0 39 234c2,10 4,24 6,41 2,17 4,36 7,55l1 -6c5,-47 9,-77 11,-91l39 -235 110 0 -101 446 -122 0zm264 0l0 -446 242 0 0 87 -139 0 0 82 128 0 0 90 -128 0 0 97 139 0 0 91 -242 0zm537 0l-229 0 0 -446 104 0 0 356 125 0 0 90zm208 -183l0 -80c0,-49 -3,-80 -9,-92 -6,-12 -18,-17 -34,-17 -16,0 -27,6 -33,18 -6,12 -9,42 -9,91l0 80c0,48 3,79 9,91 6,12 17,18 34,18 16,0 27,-6 33,-18 6,-12 9,-42 9,-91zm-192 -40c0,-54 2,-93 6,-117 4,-25 10,-44 19,-58 13,-20 29,-34 50,-44 21,-10 45,-14 74,-14 29,0 54,5 74,14 20,10 37,24 50,44 9,14 16,33 20,58 4,25 6,64 6,117 0,53 -2,92 -6,117 -4,25 -10,44 -20,58 -13,19 -29,34 -50,44 -21,10 -45,14 -74,14 -29,0 -54,-5 -74,-14 -21,-10 -37,-24 -50,-44 -9,-14 -15,-33 -19,-58 -4,-25 -6,-64 -6,-118zm467 -31c2,0 3,0 5,1 2,0 5,0 9,0 21,0 36,-5 45,-15 9,-10 14,-25 14,-47 0,-18 -5,-31 -15,-39 -10,-8 -26,-12 -49,-12l-9 0 0 111zm-105 254l0 -446 103 0c38,0 66,2 84,5 18,3 33,9 46,17 16,10 29,25 37,45 9,20 13,43 13,71 0,45 -12,80 -36,103 -24,23 -59,35 -105,35l-37 0 0 171 -105 0zm338 0l0 -446 146 0 40 190c0,1 2,13 5,36 3,23 6,46 9,69 2,-17 6,-38 9,-64 4,-25 6,-39 7,-42l39 -188 144 0 0 446 -98 0 9 -345 -71 345 -79 0 -71 -345 9 345 -98 0zm473 0l0 -446 242 0 0 87 -139 0 0 82 128 0 0 90 -128 0 0 97 139 0 0 91 -242 0zm307 0l0 -446 108 0 87 275c-3,-46 -6,-86 -8,-120 -2,-33 -2,-62 -2,-85l0 -70 93 0 0 446 -109 0 -87 -283c4,37 7,73 9,107 2,35 3,68 3,101l0 75 -94 0zm405 0l0 -359 -84 0 0 -87 276 0 0 87 -88 0 0 359 -104 0z"/>
 </g>
</svg>
