<?xml version="1.0" encoding="UTF-8"?>
<!DOCTYPE svg PUBLIC "-//W3C//DTD SVG 1.1//EN" "http://www.w3.org/Graphics/SVG/1.1/DTD/svg11.dtd">
<!-- Creator: CorelDRAW X6 -->
<svg xmlns="http://www.w3.org/2000/svg" xml:space="preserve" width="2.61876in" height="0.666661in" version="1.1" style="shape-rendering:geometricPrecision; text-rendering:geometricPrecision; image-rendering:optimizeQuality; fill-rule:evenodd; clip-rule:evenodd"
viewBox="0 0 4075 1037"
 xmlns:xlink="http://www.w3.org/1999/xlink">
 <defs>
  <style type="text/css">
   <![CDATA[
    .fil0 {fill:#FC6300}
    .fil1 {fill:#FEFEFE;fill-rule:nonzero}
    .fil2 {fill:#262E39;fill-rule:nonzero}
    .fil3 {fill:#FC6300;fill-rule:nonzero}
   ]]>
  </style>
 </defs>
 <g id="Layer_x0020_1">
  <metadata id="CorelCorpID_0Corel-Layer"/>
  <polygon class="fil0" points="1078,516 4075,516 4075,856 1078,856 "/>
  <path class="fil1" d="M1288 180l0 133 0 3c0,9 -2,18 -4,27 0,1 -1,2 -1,3 0,0 0,0 0,0 0,0 0,1 0,1 0,1 0,1 -1,2l-1 2c-1,2 -1,3 -2,5 0,0 0,0 0,1l-3 5c0,0 0,0 0,0 0,0 0,1 0,1l-1 1 -2 3 -2 3 -1 1 -1 1 -4 5 -1 1 -1 1 -5 5 -2 2 -5 5 -1 1 -4 3 -3 2 -3 2 -3 2 -3 2 -2 1 -2 1 -3 2 -3 1 -2 1 -5 2 -3 1c0,0 0,0 0,0l-5 2c-1,0 -1,0 -2,0 -9,2 -18,3 -27,3 -9,0 -18,-1 -27,-3 0,0 -1,0 -2,0l-5 -2c-1,0 -2,-1 -3,-1l-3 -1 -2 -1 -2 -1 -3 -1 -5 -2 -1 -1 -3 -2 -4 -3 -2 -1 -3 -2 -3 -2 -1 -1 -1 -1 -3 -2 -2 -2 -1 -1 -1 -1 -2 -2 -2 -2 -1 -1 -1 -1 -2 -3 -2 -3 -2 -3 -2 -3 -2 -3 -1 -1 -1 -2 -2 -3c0,-1 -1,-2 -1,-2l0 -1c-1,-2 -1,-3 -2,-5l-1 -2c0,-1 -1,-2 -1,-2 0,0 0,-1 0,-1 0,0 0,0 0,0l-1 -3c-3,-9 -4,-18 -4,-27l0 -136 56 0 0 130 0 2 0 2c0,9 3,17 7,24l1 1 1 1 1 1 1 1 1 1 1 1 3 3 1 1 1 1 1 1 1 1 1 1 3 2 1 0 2 1 1 1 1 0 1 0 1 1 2 1c1,0 1,0 2,0 0,0 1,0 1,0 4,1 8,2 12,2 4,0 9,0 13,-2 0,0 1,0 1,0 1,0 1,0 2,0l1 -1 2 -1 1 0 1 0 2 -1 1 -1 1 0 1 0 3 -2 1 0 1 0 1 -1 1 -1 1 0 0 0 2 -2 1 -1 0 -1 1 -1 1 -1 1 -1 1 -2 1 -1 1 -1 0 -1 1 -1c4,-7 7,-15 7,-24l0 -134 56 0zm263 -1l0 254 -164 -148 0 127 -56 0 0 -252 164 148 0 -129 56 0zm100 0l0 233 -56 0 0 -233 56 0zm285 0l-128 254 -128 -254 62 0 65 130 65 -130 62 0zm234 0l-33 56 -115 0 0 33 130 0 0 56 -130 0 0 33 130 0 0 56 -186 0 0 -233 204 0zm171 233l-63 -110 39 0c1,0 2,0 3,0 2,0 5,-1 7,-1 1,0 2,0 2,-1 1,0 3,-1 4,-2 2,-1 4,-2 6,-3 0,0 0,0 1,0 2,-1 3,-3 4,-4 1,-2 3,-3 3,-5 2,-3 3,-7 4,-11 0,-2 0,-4 1,-6 0,-2 0,-4 0,-6 0,-4 -2,-8 -3,-11 -2,-4 -4,-7 -7,-9 -3,-3 -6,-5 -10,-6 -3,-2 -7,-2 -11,-3 0,0 -1,0 -2,0l0 0 -58 0 0 178 -56 0 0 -233 114 0 0 0 4 0c10,0 21,3 30,7 10,4 18,9 26,16 8,7 14,15 19,24 5,9 8,19 10,29 1,5 1,10 1,15 0,5 -1,10 -2,15 -2,10 -6,20 -11,29 -5,9 -12,17 -20,23 -1,1 -2,2 -3,2 -2,1 -3,3 -5,4l39 68 -64 0zm267 -178l-108 0 0 0 0 0c0,0 0,0 0,0 0,0 -1,0 -1,0 0,0 0,0 0,0 0,0 0,0 -1,0 0,0 -1,0 -1,0 -1,0 -3,1 -4,2 -1,1 -2,2 -4,2 -1,1 -2,2 -3,3 0,1 -1,1 -1,2 0,1 -1,1 -1,2 0,1 -1,3 -1,4 0,0 0,1 0,1l0 0c0,0 0,0 0,0l0 0 0 0c0,1 0,1 0,2 0,1 0,1 1,2 0,1 0,1 1,2 1,1 1,2 2,4 1,1 2,2 3,3 1,1 2,2 3,2 1,0 3,1 4,1 0,0 0,0 0,0 0,0 0,0 1,0 0,0 1,0 1,0l0 0c0,0 0,0 0,0l64 0 1 0 2 0c2,0 3,0 5,0 2,0 3,0 4,1 12,2 23,7 33,15 9,7 17,17 22,28 2,6 4,11 5,17 1,6 1,12 0,18 -1,6 -2,12 -4,18 -2,6 -5,11 -8,16 -3,5 -7,9 -12,13 -2,2 -5,4 -7,6 -3,2 -5,3 -8,5 -5,3 -11,5 -17,6 -1,0 -3,0 -4,1 -2,0 -3,0 -4,1 -2,0 -3,0 -5,0l-2 0 -137 0 0 -56 137 0 0 0c0,0 1,0 1,0 0,0 1,0 1,0 0,0 1,0 1,0 1,0 3,-1 4,-1 1,0 1,-1 2,-1 0,0 1,-1 2,-1 1,-1 2,-2 3,-3 1,-1 1,-2 2,-4 0,-1 1,-3 1,-4 0,-1 0,-3 0,-4 0,-1 0,-3 -1,-4 -1,-3 -3,-5 -5,-7 0,0 -1,-1 -2,-1 0,0 -1,0 -1,0 0,0 0,0 0,0 0,0 0,0 0,0 -1,-1 -3,-1 -4,-1 0,0 -1,0 -1,0 0,0 -1,0 -1,0 0,0 0,0 -1,0l0 0 -64 0 -1 0c-2,0 -3,0 -4,0 -1,0 -2,0 -2,0l-2 0c-6,-1 -12,-2 -18,-5 -6,-2 -11,-5 -16,-9 -5,-4 -9,-8 -13,-13 -7,-9 -13,-21 -15,-33 0,-3 -1,-6 -1,-9 0,-1 0,-1 0,-2l0 -1 0 0 0 -1c0,-2 0,-3 0,-5 0,-6 2,-12 3,-18 1,-3 2,-6 3,-8 1,-3 3,-6 4,-8 3,-5 7,-10 12,-14 4,-4 9,-8 15,-10 5,-3 11,-5 17,-7 2,0 3,-1 5,-1l2 0 2 0c2,0 3,0 5,0 1,0 1,0 2,0l2 0 141 0 -33 56zm144 107l60 0 -30 -60 -30 60zm96 71l-7 -15 -116 0 -7 15 -62 0 128 -254 128 254 -62 0zm280 -56l0 56 -186 0 0 -233 56 0 0 178 130 0zm173 -178l0 56 -80 0 0 178 -56 0 0 -178 -80 0 0 -56 216 0zm239 0l-33 56 -115 0 0 33 130 0 0 56 -130 0 0 33 130 0 0 56 -186 0 0 -233 204 0zm253 173c-1,2 -2,4 -3,6 -1,2 -2,4 -4,5 -3,5 -7,10 -11,14 -1,2 -3,3 -4,4 0,0 0,1 -1,1 -2,2 -4,3 -5,5 -2,2 -4,3 -6,5 -2,2 -4,3 -6,4 -7,5 -14,8 -21,12 -15,6 -31,9 -47,9 -16,0 -31,-3 -46,-9 -15,-6 -28,-15 -39,-26 -11,-11 -20,-25 -26,-39 -1,-2 -2,-4 -2,-6 -1,-2 -2,-4 -2,-6 -1,-2 -1,-4 -2,-6l0 0c0,-2 -1,-4 -1,-6 0,0 0,-1 0,-1 0,-2 -1,-4 -1,-6 0,0 0,-1 0,-2l0 0c0,-2 0,-5 -1,-7 0,-2 0,-4 0,-7l0 -3 0 -7c0,-2 0,-5 1,-7 0,0 0,-1 0,-1 0,-2 1,-4 1,-6l0 0 0 0c0,-2 1,-4 2,-6l0 -1c0,-2 1,-4 2,-5l2 -6c0,-1 1,-2 1,-3 6,-15 15,-28 26,-39 11,-11 25,-20 39,-26 15,-6 30,-9 46,-9 16,0 31,3 47,9 6,3 13,6 18,10 2,1 4,3 6,4 2,2 4,3 6,5 2,2 4,3 6,5 1,1 2,2 3,3l2 2c4,4 8,9 11,14 1,2 3,4 4,5 1,2 2,4 3,6 1,2 2,4 3,6l-6 2 -6 2 -6 2 -16 6 -6 2 -6 2 -6 2c-1,-2 -2,-4 -4,-6 -1,-2 -3,-4 -4,-5 -1,-1 -2,-2 -3,-3l-2 -2c-5,-5 -11,-9 -18,-12l0 0 -1 -1c-3,-1 -5,-2 -8,-3 -4,-1 -8,-2 -12,-2 -2,0 -3,0 -5,0 -8,0 -16,1 -24,4l0 0c0,0 -1,0 -1,0 -8,3 -15,8 -21,14 0,0 -1,1 -1,1 -3,3 -5,6 -8,10 -2,3 -3,6 -5,9 0,0 0,1 -1,1 0,1 0,1 -1,2 -1,2 -1,4 -2,6 0,2 -1,4 -1,6 0,2 0,3 0,5 0,1 0,1 0,2 0,1 0,3 0,4l0 3c0,2 0,3 0,5 0,2 1,4 1,6 0,2 1,4 2,6l1 2c0,1 0,2 1,2 1,2 2,4 3,6 2,3 4,6 6,9 2,2 3,4 5,6 2,2 4,4 6,5 5,4 10,7 15,9 7,3 13,4 20,5 2,0 3,0 5,0 4,0 7,0 11,-1 4,-1 7,-2 11,-3 1,0 2,-1 3,-1 2,-1 3,-2 5,-2 6,-3 12,-7 16,-12l0 0c2,-2 3,-3 5,-5 1,-2 3,-3 4,-5 1,-2 2,-4 3,-6l6 2 6 2 6 2 16 6 6 2 6 2 6 2c-1,2 -2,4 -3,6zm247 -174l0 233 -56 0 0 -89 -98 0 0 89 -56 0 0 -233 56 0 0 89 98 0 0 -89 56 0z"/>
  <path class="fil2" d="M1309 642l-77 0 0 0 0 0c0,0 0,0 0,0 0,0 -1,0 -1,0 0,0 0,0 0,0 0,0 0,0 0,0 0,0 0,0 -1,0 -1,0 -2,1 -3,1 -1,1 -2,1 -3,2 -1,1 -1,1 -2,2 0,0 -1,1 -1,1 0,0 0,1 -1,1 0,1 0,2 -1,3 0,0 0,1 0,1l0 0c0,0 0,0 0,0l0 0 0 0c0,1 0,1 0,2 0,0 0,1 0,1 0,0 0,1 0,1 0,1 1,2 2,3 1,1 1,2 2,2 1,1 2,1 2,2 1,0 2,1 3,1 0,0 0,0 0,0 0,0 0,0 0,0 0,0 0,0 1,0l0 0c0,0 0,0 0,0l46 0 1 0 2 0c1,0 2,0 3,0 1,0 2,0 3,0 9,1 17,5 24,11 7,5 12,12 16,20 2,4 3,8 3,12 1,4 1,9 0,13 0,4 -1,9 -3,13 -2,4 -4,8 -6,12 -2,4 -5,7 -8,10 -2,1 -3,3 -5,4 -2,1 -4,2 -6,3 -4,2 -8,3 -12,4 -1,0 -2,0 -3,1 -1,0 -2,0 -3,0 -1,0 -2,0 -3,0l-2 0 -98 0 0 -40 98 0 0 0c0,0 1,0 1,0 0,0 1,0 1,0 0,0 1,0 1,0 1,0 2,-1 3,-1 0,0 1,0 1,-1 0,0 1,-1 1,-1 1,-1 1,-1 2,-2 1,-1 1,-2 1,-3 0,-1 1,-2 1,-3 0,-1 0,-2 0,-3 0,-1 0,-2 -1,-3 -1,-2 -2,-3 -4,-5 0,0 -1,-1 -1,-1 0,0 0,0 -1,0 0,0 0,0 0,0 0,0 0,0 0,0 -1,0 -2,-1 -3,-1 0,0 0,0 -1,0 0,0 -1,0 -1,0 0,0 0,0 0,0l0 0 -46 0 -1 0c-1,0 -2,0 -3,0 -1,0 -1,0 -2,0l-2 0c-4,-1 -9,-2 -13,-3 -4,-2 -8,-4 -11,-6 -4,-3 -7,-6 -9,-9 -5,-7 -9,-15 -11,-23 0,-2 -1,-4 -1,-6 0,-1 0,-1 0,-2l0 -1 0 0 0 0c0,-1 0,-2 0,-3 0,-4 1,-9 2,-13 1,-2 2,-4 2,-6 1,-2 2,-4 3,-6 2,-4 5,-7 8,-10 3,-3 7,-5 11,-8 4,-2 8,-4 12,-5 1,0 2,-1 3,-1l2 0 2 0c1,0 2,0 3,0 1,0 1,0 2,0l2 0 101 0 -24 40zm341 43c0,-6 -1,-12 -4,-18 -2,-6 -6,-11 -10,-15 -4,-4 -9,-8 -15,-10 -6,-2 -12,-4 -18,-4 -6,0 -12,1 -18,4 -6,2 -11,6 -15,10 -4,4 -8,10 -10,15 -2,6 -4,12 -4,18 0,6 1,12 4,18 2,6 6,11 10,15 4,4 10,8 15,10 6,2 12,4 18,4 6,0 12,-1 18,-4 6,-2 11,-6 15,-10 5,-4 8,-10 10,-15 2,-6 4,-12 4,-18zm40 1c0,11 -2,23 -7,33 -4,11 -11,20 -19,28 -8,8 -18,14 -28,19 -11,4 -22,7 -33,7 -11,0 -23,-2 -33,-7 -11,-4 -20,-11 -28,-19 -8,-8 -14,-18 -19,-28 -4,-11 -7,-22 -7,-33 0,-11 2,-23 7,-33 4,-11 11,-20 19,-28 8,-8 18,-14 28,-19 11,-4 22,-7 33,-7 11,0 23,2 33,7 11,5 20,11 28,19 8,8 14,18 19,28 4,11 7,22 7,33zm324 44l0 40 -133 0 0 -167 40 0 0 127 93 0zm330 -127l0 95 0 2c0,6 -1,13 -3,19 0,1 0,1 -1,2 0,0 0,0 0,0 0,0 0,0 0,1 0,1 0,1 -1,2l0 1c0,1 -1,2 -1,3 0,0 0,0 0,0l-2 4c0,0 0,0 0,0 0,0 0,0 0,1l-1 1 -1 2 -1 2 -1 1 -1 1 -3 4 -1 1 -1 1 -3 3 -2 2 -3 3 -1 1 -3 2 -2 1 -2 1 -2 1 -2 1 -1 1 -1 1 -2 1 -2 1 -1 1 -3 1 -2 1c0,0 0,0 0,0l-3 1c0,0 -1,0 -1,0 -6,2 -13,2 -19,2 -6,0 -13,-1 -19,-2 0,0 -1,0 -1,0l-4 -1c-1,0 -2,-1 -2,-1l-2 -1 -1 0 -1 -1 -2 -1 -3 -2 -1 -1 -2 -1 -3 -2 -1 -1 -2 -1 -2 -1 -1 -1 -1 -1 -2 -2 -2 -2 -1 -1 -1 -1 -2 -2 -2 -2 -1 -1 -1 -1 -2 -2 -1 -2 -1 -2 -1 -2 -1 -2 -1 -1 -1 -1 -1 -2c0,-1 0,-1 -1,-2l0 0c-1,-1 -1,-2 -1,-3l0 -1c0,-1 0,-1 -1,-2 0,0 0,0 0,-1 0,0 0,0 0,0l-1 -2c-2,-6 -3,-13 -3,-19l0 -98 40 0 0 94 0 2 0 1c0,6 2,12 5,17l1 1 1 1 1 1 1 1 1 1 1 1 2 2 1 1 1 1 1 1 1 1 1 1 2 1 1 0 2 1 1 0 1 0 1 0 1 0 1 0c0,0 1,0 1,0 0,0 1,0 1,0 3,1 6,1 9,1 3,0 6,0 9,-1 0,0 0,0 1,0 1,0 1,0 1,0l1 0 1 0 1 0 0 0 1 0 1 -1 1 0 0 0 2 -1 0 0 1 0 1 -1 1 -1 1 0 0 0 2 -2 0 0 0 0 1 -1 1 -1 0 0 1 -1 1 -1 0 0 0 0 1 -1c3,-5 5,-11 5,-17l0 -96 40 0zm346 -1l0 40 -57 0 0 127 -40 0 0 -127 -58 0 0 -40 155 0zm231 0l0 167 -40 0 0 -167 40 0zm323 83c0,-6 -1,-12 -4,-18 -2,-6 -6,-11 -10,-15 -4,-4 -9,-8 -15,-10 -6,-2 -12,-4 -18,-4 -6,0 -12,1 -18,4 -6,2 -11,6 -15,10 -4,4 -8,10 -10,15 -2,6 -4,12 -4,18 0,6 1,12 4,18 2,6 6,11 10,15 4,4 10,8 15,10 6,2 12,4 18,4 6,0 12,-1 18,-4 6,-2 11,-6 15,-10 5,-4 8,-10 10,-15 2,-6 4,-12 4,-18zm40 1c0,11 -2,23 -7,33 -4,11 -11,20 -19,28 -8,8 -18,14 -28,19 -11,4 -22,7 -33,7 -11,0 -23,-2 -33,-7 -11,-4 -20,-11 -28,-19 -8,-8 -14,-18 -19,-28 -4,-11 -7,-22 -7,-33 0,-11 2,-23 7,-33 4,-11 11,-20 19,-28 8,-8 18,-14 28,-19 11,-4 22,-7 33,-7 11,0 23,2 33,7 11,5 20,11 28,19 8,8 14,18 19,28 4,11 7,22 7,33zm348 -84l0 182 -118 -106 0 91 -40 0 0 -181 118 106 0 -93 40 0zm319 40l-77 0 0 0 0 0c0,0 0,0 0,0 0,0 -1,0 -1,0 0,0 0,0 0,0 0,0 0,0 0,0 0,0 0,0 -1,0 -1,0 -2,1 -3,1 -1,1 -2,1 -3,2 -1,1 -1,1 -2,2 0,0 -1,1 -1,1 0,0 0,1 -1,1 0,1 0,2 -1,3 0,0 0,1 0,1l0 0c0,0 0,0 0,0l0 0 0 0c0,1 0,1 0,2 0,0 0,1 0,1 0,0 0,1 0,1 0,1 1,2 2,3 1,1 1,2 2,2 1,1 2,1 2,2 1,0 2,1 3,1 0,0 0,0 0,0 0,0 0,0 0,0 0,0 0,0 1,0l0 0c0,0 0,0 0,0l46 0 1 0 2 0c1,0 2,0 3,0 1,0 2,0 3,0 9,1 17,5 24,11 7,5 12,12 16,20 2,4 3,8 3,12 1,4 1,9 0,13 0,4 -1,9 -3,13 -2,4 -4,8 -6,12 -2,4 -5,7 -8,10 -2,1 -3,3 -5,4 -2,1 -4,2 -6,3 -4,2 -8,3 -12,4 -1,0 -2,0 -3,1 -1,0 -2,0 -3,0 -1,0 -2,0 -3,0l-2 0 -98 0 0 -40 98 0 0 0c0,0 1,0 1,0 0,0 1,0 1,0 0,0 1,0 1,0 1,0 2,-1 3,-1 0,0 1,0 1,-1 0,0 1,-1 1,-1 1,-1 1,-1 2,-2 1,-1 1,-2 1,-3 0,-1 1,-2 1,-3 0,-1 0,-2 0,-3 0,-1 0,-2 -1,-3 -1,-2 -2,-3 -4,-5 0,0 -1,-1 -1,-1 0,0 0,0 -1,0 0,0 0,0 0,0 0,0 0,0 0,0 -1,0 -2,-1 -3,-1 0,0 0,0 -1,0 0,0 -1,0 -1,0 0,0 0,0 0,0l0 0 -46 0 -1 0c-1,0 -2,0 -3,0 -1,0 -1,0 -2,0l-2 0c-4,-1 -9,-2 -13,-3 -4,-2 -8,-4 -11,-6 -4,-3 -7,-6 -9,-9 -5,-7 -9,-15 -11,-23 0,-2 -1,-4 -1,-6 0,-1 0,-1 0,-2l0 -1 0 0 0 0c0,-1 0,-2 0,-3 0,-4 1,-9 2,-13 1,-2 2,-4 2,-6 1,-2 2,-4 3,-6 2,-4 5,-7 8,-10 3,-3 7,-5 11,-8 4,-2 8,-4 12,-5 1,0 2,-1 3,-1l2 0 2 0c1,0 2,0 3,0 1,0 1,0 2,0l2 0 101 0 -24 40z"/>
  <path class="fil3" d="M434 0c59,0 115,12 166,33 53,22 101,54 141,94 40,40 72,88 94,141 21,51 33,107 33,166 0,58 -11,114 -32,165 -22,53 -53,100 -93,140l-2 2 -2 -3 -16 -28 -1 -2 1 -1c34,-36 62,-79 81,-127 18,-46 28,-95 28,-147 0,-54 -11,-106 -30,-153 -20,-49 -50,-93 -87,-130 -37,-37 -81,-66 -129,-87 -47,-19 -98,-30 -153,-30 -54,0 -106,11 -153,30 -49,20 -93,50 -129,87 -37,37 -66,81 -87,130 -19,47 -30,99 -30,153 0,51 9,99 27,144l0 0c18,46 44,88 77,124l1 1 -1 1 -16 28 -2 3 -2 -2c-38,-40 -68,-86 -88,-138 -20,-50 -31,-104 -31,-161 0,-59 12,-115 33,-166 22,-53 54,-101 94,-141 40,-40 88,-72 141,-94 51,-21 107,-33 166,-33zm262 781c-2,2 -5,4 -7,5 -3,2 -5,4 -7,5l-2 1 -1 -2 -15 -27 -1 -2 2 -1c3,-2 5,-4 7,-5 2,-2 5,-3 7,-5l2 -2 1 2 15 27 1 2 -2 1zm-77 47c-3,1 -6,3 -9,4 -3,1 -6,3 -9,4l-1 1 -1 -1 -4 -3c-4,-3 -7,-5 -10,-7l-8 -6 -8 -6 -3 -3 4 -1c3,-1 6,-2 9,-4 3,-1 6,-3 9,-4l1 -1 1 1c5,4 10,7 14,11 4,3 9,7 14,11l3 2 -3 2zm-82 29c-4,1 -8,2 -12,3 -4,1 -8,2 -12,2l-2 0 -9 -5 0 0 -6 -4 0 0c-4,-3 -9,-8 -10,-12 -1,-2 0,-4 1,-6l0 0c1,-2 3,-3 6,-3l0 0c6,0 18,4 38,17l0 0 6 4 -1 4zm-200 2c-9,-2 -18,-5 -27,-7 -9,-3 -18,-6 -27,-9l-4 -1 3 -3c4,-3 8,-5 14,-6 5,-1 12,0 20,2 6,2 10,5 14,8 4,3 7,8 9,13l2 4 -5 -1zm-159 -72c-2,-2 -5,-3 -7,-5 -2,-2 -5,-4 -7,-5l-2 -1 1 -2 15 -27 1 -2 2 2c2,2 4,4 7,5 3,2 5,4 7,5l2 1 -1 2c-3,5 -6,10 -8,14 -2,4 -5,9 -7,13l-1 2 -2 -2z"/>
  <path class="fil3" d="M416 18c0,-5 2,-9 5,-12l0 0c3,-3 8,-5 12,-5 5,0 9,2 12,5l0 0c3,3 5,8 5,12l0 184c22,-1 44,-3 65,-6 22,-3 43,-7 63,-12 -3,-6 -5,-12 -8,-18 -3,-7 -6,-13 -10,-20 -11,-21 -22,-41 -33,-59 -12,-18 -24,-35 -36,-51 -3,-4 -4,-8 -4,-13 0,-4 3,-9 6,-12 4,-3 8,-4 13,-4 4,0 9,3 12,6 13,17 26,35 38,54 12,19 24,40 35,62 4,7 7,15 11,22 3,7 7,14 10,21 21,-6 41,-14 61,-22 20,-9 40,-18 58,-29l3 -1 1 3 2 9 0 0 4 23 0 2 -1 1c-18,10 -37,19 -56,27 -19,8 -38,15 -57,21 4,11 9,22 13,33 4,12 9,24 13,36 2,5 1,9 -1,13 -2,4 -5,7 -10,9 -5,2 -9,1 -13,-1 -4,-2 -7,-5 -9,-10 -4,-13 -9,-25 -14,-37 -4,-12 -9,-23 -13,-34 -23,6 -46,10 -70,14 -24,3 -48,6 -72,7l0 42c0,5 -2,9 -5,12 -3,3 -8,5 -12,5 -5,0 -9,-2 -12,-5 -3,-3 -5,-8 -5,-12l0 -41c-25,0 -49,-2 -73,-4 -24,-3 -48,-7 -72,-11 -4,10 -8,20 -12,31 -4,11 -8,23 -12,34 -2,5 -5,8 -9,10 -4,2 -9,2 -13,1 -5,-2 -8,-5 -10,-9 -2,-4 -2,-9 -1,-13 4,-11 8,-22 12,-33 4,-10 8,-20 11,-29 -19,-5 -38,-11 -57,-18 -19,-7 -38,-15 -56,-24l-1 -1 0 -1 0 -34 0 -4 3 2c19,10 40,19 61,27 20,8 41,14 63,20 4,-8 7,-17 11,-25 4,-9 8,-17 12,-25 11,-22 23,-43 35,-62 12,-19 25,-37 38,-54 3,-4 7,-6 12,-6 4,0 9,1 13,4 4,3 6,7 6,12 0,4 -1,9 -4,13 -13,16 -25,33 -36,51 -12,18 -23,38 -33,59 -4,7 -7,15 -11,22 -3,7 -6,14 -9,20 21,4 42,8 64,10 22,2 44,3 66,4l0 -185z"/>
  <path class="fil1" d="M303 371l-55 0 -2 0 0 -55 2 0 55 0 35 0 215 0 97 0 69 0 71 0 -33 55 -38 0 -138 0 -27 0 -215 0 -35 0zm330 16l0 0 0 0c0,0 0,0 0,0l0 0 0 0c0,1 0,1 0,2 0,1 0,1 1,2 0,1 0,1 1,2 1,1 1,2 2,4 1,1 2,2 3,3 1,1 2,2 3,2 1,0 3,1 4,1 0,0 0,0 0,0 0,0 0,0 1,0 0,0 1,0 1,0l0 0c0,0 0,0 0,0l64 0 1 0 2 0c1,0 3,0 5,0 2,0 3,0 4,1 12,2 23,7 33,15 9,7 17,17 22,28 2,5 4,11 5,17 1,6 1,12 0,18 -1,6 -2,12 -4,18 -2,6 -5,11 -8,16 -3,5 -7,9 -12,13 -2,2 -5,4 -7,5 -3,2 -5,3 -8,5 -5,3 -11,5 -17,6 -1,0 -3,0 -4,1 -2,0 -3,0 -4,1 -1,0 -3,0 -4,0l-2 0 -136 0 0 -55 136 0 0 0c0,0 1,0 1,0 0,0 1,0 1,0 0,0 1,0 1,0 1,0 3,-1 4,-1 1,0 1,-1 2,-1 0,0 1,-1 2,-1 1,-1 2,-2 3,-3 1,-1 1,-2 2,-4 0,-1 1,-3 1,-4 0,-1 0,-3 0,-4 0,-1 0,-3 -1,-4 -1,-3 -3,-5 -5,-7 0,0 -1,-1 -2,-1 0,0 -1,0 -1,0 0,0 0,0 0,0 0,0 0,0 0,0 -1,-1 -3,-1 -4,-1 0,0 -1,0 -1,0 0,0 -1,0 -1,0 0,0 0,0 -1,0l0 0 -64 0 -1 0c-2,0 -3,0 -4,0 -1,0 -2,0 -2,0l-2 0c-6,-1 -12,-2 -17,-5 -6,-2 -11,-5 -16,-9 -5,-4 -9,-8 -13,-12 -7,-9 -13,-21 -15,-33 0,-3 -1,-6 -1,-9 0,-1 0,-1 0,-2l0 -1 0 0 0 0 55 0zm-160 0l0 160 -55 0 0 -160 55 0zm-170 0l0 61 0 3c0,9 -2,18 -4,26 0,1 -1,2 -1,3 0,0 0,0 0,0 0,0 0,1 0,1 0,1 0,1 -1,2l-1 1c-1,2 -1,3 -2,5 0,0 0,0 0,1l-3 5c0,0 0,0 0,0 0,0 0,1 0,1l-1 1 -2 3 -2 3 -1 1 -1 1 -4 5 -1 1 -1 1 -5 5 -2 2 -5 5 -1 1 -4 3 -3 2 -3 2 -3 2 -3 2 -1 1 -1 1 -3 2 -3 1 -2 1 -5 2 -3 1c0,0 0,0 0,0l-5 1c-1,0 -1,0 -2,0 -9,2 -18,3 -26,3 -9,0 -18,-1 -26,-3 0,0 -1,0 -1,0l-5 -1c-1,0 -2,-1 -3,-1l-3 -1 -1 -1 -2 -1 -3 -1 -5 -2 -1 -1 -3 -2 -4 -3 -2 -1 -3 -2 -3 -2 -1 -1 -1 -1 -3 -2 -2 -2 -1 -1 -1 -1 -2 -2 -2 -2 -1 -1 -1 -1 -2 -3 -2 -3 -2 -3 -2 -3 -2 -3 -1 -1 -1 -2 -2 -3c0,-1 -1,-2 -1,-2l0 -1c-1,-2 -1,-3 -2,-5l-1 -1c0,-1 -1,-2 -1,-2 0,0 0,-1 0,-1 0,0 0,0 0,0l-1 -3c-3,-9 -4,-17 -4,-26l0 -64 55 0 0 58 0 2 0 1c0,9 3,16 7,24l1 1 1 1 1 1 1 1 1 1 1 1 3 3 1 1 1 1 1 1 1 1 1 1 3 1 1 0 2 1 1 1 1 0 1 0 1 1 1 1c1,0 1,0 2,0 0,0 1,0 1,0 4,1 8,2 12,2 4,0 8,0 13,-2 0,0 1,0 1,0 1,0 1,0 2,0l1 -1 2 -1 1 0 1 0 2 -1 1 -1 1 0 1 0 3 -1 1 0 1 0 1 -1 1 -1 1 0 0 0 2 -2 1 -1 0 -1 1 -1 1 -1 1 -1 1 -2 1 -1 1 -1 0 -1 1 -1c4,-7 7,-15 7,-24l0 -62 55 0zm-209 -16l0 -55 55 0 0 55 -55 0z"/>
  <path class="fil3" d="M378 1002c8,-10 18,-23 18,-23l0 0c2,-4 2,-9 1,-13l0 0c-1,-3 -2,-5 -4,-7 -2,-2 -4,-4 -6,-5 -3,-2 -7,-2 -11,-1 -2,1 -6,5 -10,10 -8,10 -17,23 -17,24l0 0c-2,4 -2,9 0,13 1,3 3,5 4,7 2,2 4,4 6,5l0 0c3,1 7,2 10,0 2,-1 5,-4 9,-9zm-29 -100c-5,-2 -9,-1 -13,1 -9,7 -18,20 -26,32 -3,5 -7,10 -10,14 -6,7 -7,14 -6,19 1,3 2,6 4,8 2,2 5,4 7,5 4,2 9,2 12,-1 3,-2 17,-21 27,-34 4,-5 7,-9 9,-12 6,-8 8,-15 6,-21 -1,-3 -2,-5 -4,-7 -2,-2 -4,-3 -7,-4zm-48 -48c0,0 -1,0 -1,0l0 0c-2,1 -24,25 -39,48 -9,13 -16,26 -16,30 0,2 3,7 6,10 2,2 5,5 8,6 3,1 5,1 8,0 2,-1 5,-4 8,-7 3,-4 8,-10 13,-17 15,-19 35,-44 33,-53 0,0 0,-1 0,-1 -1,-4 -4,-8 -8,-11 -4,-3 -8,-5 -12,-4l0 0zm-65 -5c-2,0 -4,0 -6,0 -3,1 -8,6 -13,12 -5,7 -10,14 -11,17 -1,3 -1,6 0,9 1,3 3,6 5,9l0 0c2,2 5,4 8,5 3,1 6,1 9,0 2,-1 7,-6 11,-11 6,-7 11,-15 12,-18 1,-3 0,-7 -1,-10 -1,-3 -3,-6 -6,-8 -2,-2 -5,-4 -8,-4zm335 -66c26,18 51,37 71,54 4,-2 7,-4 10,-6l0 0c4,-3 8,-5 11,-8l20 -20 -77 -139c-39,8 -40,8 -59,3 -8,-2 -20,-5 -40,-9 -16,-3 -35,-4 -53,-4 -21,0 -43,3 -61,6 -11,2 -18,3 -22,6 -5,3 -8,7 -13,14 -2,3 -6,8 -9,13 -14,19 -35,48 -38,58 -1,2 -1,4 0,5l0 0c0,1 1,2 3,3 2,1 5,1 8,0 8,-1 17,-5 22,-7 17,-9 23,-17 29,-24 8,-10 14,-19 42,-27 18,-5 55,18 77,31l0 0c4,2 7,4 9,5 21,12 46,29 71,46zm-354 -55c-18,32 -37,63 -40,74 7,6 10,8 16,17l0 0 2 3 0 0c3,4 7,9 11,13 13,-9 25,-13 35,-11 10,2 20,9 30,22l1 -1c10,-11 20,-24 46,-15l0 0c10,4 17,9 22,17 4,7 7,16 8,27 13,3 23,8 30,17 7,8 9,19 9,35 5,1 10,3 14,5 9,5 16,12 20,20 4,8 4,17 2,28 -1,4 -3,9 -5,14 4,2 9,4 14,5 11,3 23,5 29,6 11,1 19,-1 25,-4 5,-3 8,-6 12,-10 -6,-4 -17,-9 -28,-14 -15,-7 -31,-14 -39,-21 -6,-6 -7,-11 -2,-17l2 -1 4 -2 1 0c10,-1 38,13 54,22 4,2 7,4 9,4l0 0 0 0c9,4 21,10 30,11 10,1 18,-3 20,-19 -8,-6 -33,-20 -53,-31 -8,-5 -16,-9 -21,-12l0 0c-2,-1 -3,-2 -5,-3 -10,-5 -16,-8 -12,-23l1 -2 2 -1c13,-4 38,12 62,27 19,12 38,24 48,25 1,0 2,0 3,0 7,0 11,-2 14,-6 3,-4 5,-9 5,-15 0,-1 0,-2 0,-2 -4,-4 -46,-28 -74,-45l0 0c-10,-6 -17,-10 -22,-13 -5,-3 -9,-9 -10,-14 -1,-3 0,-5 1,-7l0 0c1,-2 4,-3 8,-4 6,0 18,4 39,17l0 0 73 44c2,1 4,2 6,2 5,1 10,2 14,0 4,-1 8,-4 10,-8l0 0c1,-1 1,-2 2,-4 4,-14 -22,-33 -42,-48 -4,-3 -7,-5 -10,-8 -54,-41 -74,-52 -122,-79l0 0 -22 -12c-28,-16 -37,-5 -50,10 -12,14 -26,31 -57,38l0 0c-2,0 -4,1 -6,1 -9,2 -19,2 -26,0 -8,-2 -15,-8 -17,-17l0 0 0 -1 0 0c-4,-22 11,-43 24,-61 4,-6 9,-12 12,-17 -4,-1 -9,-2 -14,-2 -7,-1 -15,-2 -23,-5 -8,-3 -13,-6 -19,-10 -4,-3 -8,-5 -12,-7 -7,15 -22,41 -37,67zm420 -126c-10,6 -20,12 -25,16l27 51 0 0 6 10c8,14 16,28 24,43l58 101 6 -4c13,-7 27,-16 37,-23 -4,-10 -15,-30 -23,-42l0 0 -4 -7 0 0 -89 -155c-4,2 -11,6 -18,10zm-416 -1c-6,-4 -12,-7 -16,-9l-116 204c4,3 12,8 19,13 9,6 18,11 25,14l115 -205c-6,-4 -17,-11 -27,-18zm34 -9c22,13 25,15 13,46 11,8 20,13 31,17 11,4 23,6 41,7 11,-18 37,-27 67,-31 44,-6 98,-1 127,6 4,1 8,2 12,3 20,5 25,6 48,1 -1,-5 -3,-9 -5,-12 -7,-13 -11,-20 21,-40 2,-1 5,-3 7,-5l0 0c16,-11 40,-27 55,-13 6,6 28,47 45,78 8,15 15,27 18,33 5,9 28,48 44,77 9,17 16,32 17,36 1,17 -14,26 -34,37 -4,2 -8,4 -12,7l0 0c-32,19 -37,10 -45,-3l0 0c-2,-4 -4,-8 -8,-12 -3,3 -5,5 -8,8 -3,3 -5,5 -8,8 -4,4 -8,6 -12,9 -3,2 -6,4 -9,7 3,7 5,14 4,21 0,8 -3,16 -8,23 -10,14 -18,15 -34,17l-5 1c-5,30 -16,33 -43,40l-2 1c-8,35 -23,36 -37,37 -6,0 -11,1 -15,5 -3,3 -4,5 -6,7 -3,3 -5,6 -11,11 -26,19 -55,11 -83,3l0 0c-7,-2 -14,-4 -21,-6 -2,3 -5,6 -7,9 -7,7 -15,11 -23,13 -9,1 -17,0 -26,-6 -3,-2 -6,-4 -9,-7 -5,-5 -7,-9 -8,-12 -1,-1 -1,-3 -3,-5 -6,1 -11,1 -16,1 -6,-1 -12,-3 -18,-7 -11,-7 -13,-12 -17,-21l0 0c-1,-2 -1,-3 -2,-5 -18,1 -29,-4 -37,-12 -7,-8 -11,-20 -14,-35 -7,-1 -14,-4 -20,-8l0 0c-6,-4 -11,-10 -15,-17 -10,-20 -3,-31 4,-44l1 -2c-2,-4 -8,-12 -14,-19 -4,-5 -9,-11 -12,-14 -2,3 -3,6 -5,9 -1,2 -2,4 -4,6 -8,13 -17,19 -42,3 -8,-5 -14,-9 -20,-12 -22,-13 -32,-18 -28,-37 3,-14 15,-35 38,-75 13,-22 30,-51 50,-87 5,-9 9,-17 13,-24 13,-23 19,-36 28,-40 11,-6 22,1 45,16l6 4c4,2 7,4 10,6z"/>
 </g>
</svg>
