<?xml version="1.0" encoding="UTF-8"?>
<!DOCTYPE svg PUBLIC "-//W3C//DTD SVG 1.1//EN" "http://www.w3.org/Graphics/SVG/1.1/DTD/svg11.dtd">
<!-- Creator: CorelDRAW X6 -->
<svg xmlns="http://www.w3.org/2000/svg" xml:space="preserve" width="2.61876in" height="0.666654in" version="1.1" style="shape-rendering:geometricPrecision; text-rendering:geometricPrecision; image-rendering:optimizeQuality; fill-rule:evenodd; clip-rule:evenodd"
viewBox="0 0 5887 1499"
 xmlns:xlink="http://www.w3.org/1999/xlink">
 <defs>
  <style type="text/css">
   <![CDATA[
    .str0 {stroke:#FC6300;stroke-width:6.74394}
    .str1 {stroke:#FC6300;stroke-width:12.4878}
    .fil0 {fill:#FC6300}
    .fil2 {fill:#FEFEFE;fill-rule:nonzero}
    .fil1 {fill:#262E39;fill-rule:nonzero}
    .fil3 {fill:#FC6300;fill-rule:nonzero}
   ]]>
  </style>
 </defs>
 <g id="Layer_x0020_1">
  <metadata id="CorelCorpID_0Corel-Layer"/>
  <g id="_652062008">
   <polygon class="fil0" points="1558,745 5887,745 5887,1237 1558,1237 "/>
   <path class="fil1" d="M1861 260l0 192 0 5c0,13 -2,26 -6,38 0,1 -1,3 -1,4 0,0 0,0 0,0 0,0 0,1 0,2 0,1 -1,2 -1,3l-1 2c-1,2 -2,5 -3,7 0,0 0,1 0,1l-4 8c0,0 0,0 0,1 0,0 0,1 -1,2l-1 2 -3 4 -2 4 -1 2 -1 2 -6 8 -1 2 -2 2 -7 7 -4 4 -7 7 -2 1 -6 4 -4 3 -4 3 -4 3 -4 2 -2 1 -2 1 -4 2 -4 2 -2 1 -7 3 -4 1c0,0 0,0 0,0l-7 2c-1,0 -2,0 -2,1 -13,3 -26,5 -39,5 -13,0 -26,-1 -39,-5 -1,0 -2,0 -2,-1l-7 -2c-1,-1 -3,-1 -5,-2l-5 -2 -2 -1 -2 -1 -4 -2 -7 -3 -2 -1 -4 -2 -6 -4 -2 -1 -4 -3 -4 -3 -2 -2 -2 -1 -4 -3 -4 -3 -2 -2 -1 -2 -4 -4 -3 -4 -2 -2 -1 -2 -3 -4 -3 -4 -3 -4 -3 -4 -2 -4 -1 -2 -1 -2 -2 -4c0,-1 -1,-2 -2,-4l0 -1c-1,-2 -2,-4 -3,-7l-1 -2c0,-1 -1,-2 -1,-4 0,0 0,-1 0,-1 0,0 0,0 0,-1l-1 -4c-4,-13 -6,-25 -6,-38l0 -197 80 0 0 189 0 4 0 2c0,13 4,24 10,35l1 2 1 2 1 2 2 2 1 2 2 2 5 5 2 2 2 1 2 2 2 1 2 1 4 2 1 1 3 2 2 1 1 1 1 0 2 1 2 1c1,0 2,0 3,1 1,0 1,0 2,1 6,2 12,2 18,2 6,0 12,-1 18,-2 0,0 1,0 2,-1 1,0 2,0 3,-1l2 -1 2 -1 1 0 1 -1 2 -1 2 -1 1 0 1 -1 4 -2 1 -1 1 -1 2 -1 2 -2 1 -1 1 -1 4 -3 1 -1 1 -1 2 -2 1 -2 1 -1 2 -3 1 -2 1 -1 0 -1 1 -2c6,-11 10,-22 10,-35l0 -194 80 0zm380 -2l0 367 -238 -214 0 184 -80 0 0 -364 238 214 0 -187 80 0zm144 0l0 337 -80 0 0 -337 80 0zm411 0l-185 367 -184 -367 90 0 94 188 95 -188 90 0zm339 0l-48 80 -167 0 0 48 188 0 0 80 -188 0 0 48 188 0 0 80 -268 0 0 -337 295 0zm246 337l-91 -159 57 0c1,0 3,0 4,0 3,0 7,-1 10,-2 1,0 2,-1 3,-1 2,-1 4,-2 6,-2 3,-1 6,-3 8,-5 0,0 1,0 1,-1 2,-2 4,-4 6,-6 2,-2 4,-5 5,-7 3,-5 5,-10 6,-16 0,-3 1,-5 1,-8 0,-3 0,-6 -1,-8 -1,-6 -2,-11 -5,-16 -3,-5 -6,-9 -10,-13 -4,-4 -9,-7 -14,-9 -5,-2 -11,-3 -16,-4 -1,0 -1,0 -2,0l0 0 -84 0 0 256 -80 0 0 -337 164 0 1 0 5 0c15,1 30,4 43,10 14,6 26,14 37,23 11,10 20,22 27,35 7,13 12,27 14,42 1,8 2,15 1,22 0,7 -1,15 -2,22 -3,15 -8,29 -16,41 -8,13 -17,24 -29,34 -1,1 -3,2 -4,3 -2,2 -5,4 -8,6l57 99 -93 0zm385 -257l-156 0 0 0 0 0c0,0 0,0 -1,0 -1,0 -1,0 -2,0 0,0 0,0 -1,0 0,0 -1,0 -1,0 0,0 -1,0 -1,0 -2,1 -4,1 -5,2 -2,1 -4,2 -5,4 -1,1 -3,3 -4,5 -1,1 -1,2 -2,3 0,1 -1,2 -1,3 -1,2 -1,4 -1,6 0,0 0,1 0,2l0 0c0,0 0,0 0,0l0 0 0 1c0,1 0,2 0,3 0,1 0,2 1,3 0,1 0,2 1,3 1,2 2,4 3,5 1,2 3,3 4,4 2,1 3,2 5,3 2,1 4,1 6,2 0,0 0,0 1,0 0,0 1,0 1,0 0,0 1,0 2,0l0 0c0,0 0,0 0,0l92 0 1 0 3 0c2,0 4,0 7,0 2,0 4,0 6,1 17,3 34,10 48,21 14,11 25,25 31,41 3,8 6,17 7,25 1,9 2,17 1,26 -1,9 -3,17 -6,26 -3,8 -7,16 -12,23 -5,7 -11,14 -17,19 -3,3 -7,5 -10,8 -4,2 -8,5 -11,7 -8,4 -16,7 -25,9 -2,0 -4,1 -6,1 -2,0 -4,1 -6,1 -2,0 -4,0 -7,0l-3 0 -197 0 0 -80 197 0 1 0c1,0 1,0 2,0 1,0 1,0 1,0 0,0 1,0 2,0 2,0 4,-1 5,-2 1,0 2,-1 3,-2 1,0 2,-1 2,-2 2,-1 3,-3 4,-5 1,-2 2,-3 3,-5 1,-2 1,-4 1,-6 0,-2 0,-4 0,-6 0,-2 -1,-4 -2,-6 -1,-4 -4,-7 -7,-9 -1,-1 -2,-1 -2,-2 0,0 -1,0 -1,-1 0,0 0,0 -1,0 0,0 0,0 -1,0 -2,-1 -4,-1 -6,-2 0,0 -1,0 -1,0 -1,0 -1,0 -2,0 0,0 -1,0 -1,0l0 0 -93 0 -2 0c-2,0 -4,0 -6,0 -1,0 -2,0 -3,0l-3 0c-9,-1 -17,-4 -25,-7 -8,-3 -16,-8 -23,-13 -7,-5 -13,-11 -19,-18 -11,-14 -18,-30 -22,-47 -1,-4 -1,-9 -2,-13 0,-1 0,-2 0,-3l0 -2 0 -1 0 -1c0,-2 0,-4 0,-7 1,-9 2,-17 5,-26 1,-4 3,-8 5,-12 2,-4 4,-8 6,-11 5,-7 11,-14 17,-20 6,-6 14,-11 21,-15 8,-4 16,-8 24,-9 2,-1 4,-1 7,-2l3 0 3 0c2,0 4,0 7,-1 1,0 2,0 3,0l3 0 203 0 -48 80zm208 155l87 0 -44 -87 -44 87zm138 102l-11 -21 -168 0 -11 21 -90 0 185 -368 185 368 -90 0zm404 -80l0 80 -269 0 0 -337 80 0 0 257 188 0zm249 -257l0 80 -115 0 0 256 -80 0 0 -256 -116 0 0 -80 312 0zm345 0l-48 80 -167 0 0 48 188 0 0 80 -188 0 0 48 188 0 0 80 -268 0 0 -337 295 0zm366 251c-1,3 -3,5 -5,8 -2,3 -3,5 -5,8 -5,7 -10,14 -16,20 -2,2 -4,4 -6,6 0,0 -1,1 -1,1 -2,2 -5,5 -8,7 -3,2 -5,5 -8,7 -3,2 -6,4 -9,6 -10,7 -20,12 -31,17 -22,9 -44,13 -67,13 -23,0 -45,-5 -67,-13 -21,-9 -40,-22 -57,-38 -16,-17 -29,-35 -38,-57 -1,-3 -2,-6 -3,-9 -1,-3 -2,-6 -3,-9 -1,-3 -2,-6 -2,-8l0 -1c-1,-3 -1,-6 -2,-9 0,0 0,-1 0,-1 0,-3 -1,-5 -1,-8 0,-1 0,-1 0,-2l0 0c0,-3 -1,-7 -1,-10 0,-3 0,-6 0,-10l0 -4 0 -10c0,-4 1,-7 1,-10 0,-1 0,-1 0,-2 0,-3 1,-6 2,-9l1 0 -1 0c1,-3 1,-6 2,-9l0 -1c1,-3 2,-5 2,-8l3 -9c1,-1 1,-3 2,-5 9,-21 22,-40 38,-57 16,-16 36,-29 57,-38 22,-9 44,-13 67,-13 23,0 45,4 67,13 9,4 18,9 27,14 3,2 6,4 9,6 3,2 6,4 9,7 3,2 6,4 8,7 2,1 3,3 4,4l3 3c6,6 11,13 17,20 2,3 4,5 5,8 2,3 3,5 5,8 1,3 3,5 4,8l-9 3 -9 3 -9 4 -23 9 -9 3 -9 3 -9 4c-2,-3 -3,-6 -5,-8 -2,-3 -4,-5 -6,-8 -1,-2 -2,-3 -4,-4l-3 -3c-8,-7 -16,-13 -26,-17l0 0 -2 -1c-4,-2 -7,-3 -11,-4 -6,-2 -12,-3 -18,-3 -2,0 -5,0 -7,0 -12,0 -23,2 -34,6l0 0c-1,0 -1,0 -2,1 -12,5 -22,12 -31,21 -1,1 -1,1 -2,2 -4,5 -8,9 -11,14 -3,4 -5,8 -7,13 0,1 -1,1 -1,2 0,1 -1,2 -1,3 -1,3 -2,6 -3,9 -1,3 -1,6 -2,9 0,2 0,4 -1,7 0,1 0,2 0,3 0,2 0,4 0,6l0 4c0,2 0,5 1,7 0,3 1,6 2,9 1,3 1,6 2,9l1 4c0,1 1,2 1,3 1,3 3,6 4,9 3,5 5,9 9,13 2,3 5,6 8,9 3,3 6,5 9,8 7,5 14,10 22,13 9,4 19,6 29,7 2,0 5,0 7,0 5,0 11,0 16,-1 5,-1 11,-2 16,-4 2,-1 3,-1 5,-2 2,-1 5,-2 7,-3 9,-5 17,-10 24,-17l0 0c2,-2 5,-5 7,-8 2,-2 4,-5 6,-8 2,-3 3,-5 5,-8l9 3 9 4 9 3 23 9 9 3 9 4 9 3c-1,3 -3,5 -4,8zm357 -251l0 337 -80 0 0 -128 -141 0 0 128 -80 0 0 -337 80 0 0 128 141 0 0 -128 80 0z"/>
   <path class="fil2" d="M1891 927l-112 0 0 0 0 0c0,0 0,0 0,0 0,0 -1,0 -1,0 0,0 0,0 0,0 0,0 0,0 -1,0 0,0 -1,0 -1,0 -1,0 -3,1 -4,2 -1,1 -3,2 -4,3 -1,1 -2,2 -3,3 0,1 -1,1 -1,2 0,1 -1,1 -1,2 0,1 -1,3 -1,4 0,0 0,1 0,1l0 0c0,0 0,0 0,0l0 0 0 0c0,1 0,1 0,2 0,1 0,1 1,2 0,1 0,1 1,2 1,1 1,3 2,4 1,1 2,2 3,3 1,1 2,2 4,2 1,0 3,1 4,1 0,0 0,0 0,0 0,0 0,0 1,0 0,0 1,0 1,0l0 0c0,0 0,0 0,0l66 0 1 0 2 0c2,0 3,0 5,0 2,0 3,0 5,1 12,2 24,7 34,15 10,8 18,18 23,29 2,6 4,12 5,18 1,6 1,12 0,19 -1,6 -2,12 -4,18 -2,6 -5,12 -9,17 -3,5 -8,10 -12,14 -2,2 -5,4 -7,6 -3,2 -5,3 -8,5 -5,3 -11,5 -18,6 -1,0 -3,0 -5,1 -2,0 -3,0 -5,1 -2,0 -3,0 -5,0l-2 0 -141 0 0 -58 141 0 0 0c0,0 1,0 1,0 0,0 1,0 1,0 0,0 1,0 1,0 1,0 3,-1 4,-1 1,0 1,-1 2,-1 0,0 1,-1 2,-1 1,-1 2,-2 3,-3 1,-1 1,-2 2,-4 0,-1 1,-3 1,-4 0,-1 0,-3 0,-4 0,-1 0,-3 -1,-4 -1,-3 -3,-5 -5,-7 0,0 -1,-1 -2,-1 0,0 -1,0 -1,0 0,0 0,0 0,0 0,0 0,0 0,0 -1,-1 -3,-1 -4,-1 0,0 -1,0 -1,0 0,0 -1,0 -1,0 0,0 0,0 -1,0l0 0 -67 0 -1 0c-2,0 -3,0 -5,0 -1,0 -2,0 -2,0l-2 0c-6,-1 -12,-3 -18,-5 -6,-2 -11,-5 -16,-9 -5,-4 -10,-8 -14,-13 -8,-10 -13,-21 -15,-34 0,-3 -1,-6 -1,-9 0,-1 0,-1 0,-2l0 -1 0 0 0 -1c0,-2 0,-3 0,-5 0,-6 2,-12 4,-18 1,-3 2,-6 3,-9 1,-3 3,-6 5,-8 4,-5 8,-10 12,-14 5,-4 10,-8 15,-11 6,-3 11,-5 17,-7 2,0 3,-1 5,-1l2 0 2 0c2,0 3,0 5,0 1,0 1,0 2,0l2 0 146 0 -34 58zm493 62c0,-9 -2,-18 -5,-26 -3,-8 -8,-16 -15,-22 -6,-6 -14,-11 -22,-15 -8,-3 -17,-5 -26,-5 -9,0 -18,2 -26,5 -8,4 -16,8 -22,15 -6,6 -11,14 -15,22 -3,8 -5,17 -5,26 0,9 2,18 5,26 3,8 8,16 15,22 6,6 14,11 22,15 8,3 17,5 26,5 9,0 18,-2 26,-5 8,-3 16,-8 22,-15 7,-6 11,-14 15,-22 3,-8 5,-17 5,-26zm58 1c0,17 -3,33 -9,48 -6,15 -16,29 -27,41 -12,12 -25,21 -41,27 -15,6 -32,9 -48,10 -17,0 -33,-3 -48,-10 -15,-6 -29,-15 -41,-27 -12,-12 -21,-25 -27,-41 -6,-15 -9,-32 -10,-48 0,-17 3,-33 10,-48 6,-15 15,-29 27,-41 12,-12 25,-21 41,-27 15,-6 32,-9 48,-9 17,0 33,3 48,9 16,7 29,16 41,27 12,12 21,25 27,41 6,15 9,32 9,48zm468 63l0 58 -193 0 0 -242 58 0 0 184 135 0zm477 -183l0 138 0 3c0,9 -2,18 -4,27 0,1 -1,2 -1,3 0,0 0,0 0,0 0,0 0,1 0,1 0,1 0,1 -1,2l-1 2c-1,2 -1,3 -2,5 0,0 0,0 0,1l-3 6c0,0 0,0 0,0 0,0 0,1 0,1l-1 1 -2 3 -2 3 -1 1 -1 1 -4 6 -1 1 -1 1 -5 5 -3 3 -5 5 -1 1 -4 3 -3 2 -3 2 -3 2 -3 2 -2 1 -2 1 -3 2 -3 1 -2 1 -5 2 -3 1c0,0 0,0 0,0l-5 2c-1,0 -1,0 -2,0 -9,2 -18,3 -28,3 -9,0 -18,-1 -28,-3 0,0 -1,0 -2,0l-5 -2c-1,0 -2,-1 -3,-1l-3 -1 -2 -1 -2 -1 -3 -1 -5 -2 -1 -1 -3 -2 -4 -3 -2 -1 -3 -2 -3 -2 -1 -1 -1 -1 -3 -2 -3 -2 -1 -1 -1 -1 -3 -3 -2 -3 -1 -1 -1 -1 -2 -3 -2 -3 -2 -3 -2 -3 -2 -3 -1 -1 -1 -2 -2 -3c0,-1 -1,-2 -1,-3l0 -1c-1,-2 -1,-3 -2,-5l-1 -2c0,-1 -1,-2 -1,-3 0,0 0,-1 0,-1 0,0 0,0 0,0l-1 -3c-3,-9 -4,-18 -4,-27l0 -141 58 0 0 135 0 3 0 2c0,9 3,17 7,25l1 1 1 1 1 1 1 1 1 1 1 1 3 4 1 1 1 1 1 1 1 1 1 1 3 2 1 0 2 1 1 1 1 0 1 0 1 1 2 1c1,0 1,0 2,0 0,0 1,0 1,0 4,1 9,2 13,2 4,0 9,0 13,-2 0,0 1,0 1,0 1,0 1,0 2,0l1 -1 2 -1 1 0 1 0 2 -1 1 -1 1 0 1 0 3 -2 1 0 1 0 1 -1 1 -1 1 0 0 0 3 -2 1 -1 0 -1 1 -1 1 -1 1 -1 1 -2 1 -1 1 -1 0 -1 1 -1c5,-8 7,-16 7,-25l0 -139 58 0zm499 -1l0 58 -83 0 0 184 -58 0 0 -184 -83 0 0 -58 224 0zm334 0l0 242 -58 0 0 -242 58 0zm467 120c0,-9 -2,-18 -5,-26 -3,-8 -8,-16 -15,-22 -6,-6 -14,-11 -22,-15 -8,-3 -17,-5 -26,-5 -9,0 -18,2 -26,5 -8,4 -16,8 -22,15 -6,6 -11,14 -15,22 -3,8 -5,17 -5,26 0,9 2,18 5,26 3,8 8,16 15,22 6,6 14,11 22,15 8,3 17,5 26,5 9,0 18,-2 26,-5 8,-3 16,-8 22,-15 7,-6 11,-14 15,-22 3,-8 5,-17 5,-26zm58 1c0,17 -3,33 -9,48 -6,15 -16,29 -27,41 -12,12 -25,21 -41,27 -15,6 -32,9 -48,10 -17,0 -33,-3 -48,-10 -15,-6 -29,-15 -41,-27 -12,-12 -21,-25 -27,-41 -6,-15 -9,-32 -10,-48 0,-17 3,-33 10,-48 6,-15 15,-29 27,-41 12,-12 25,-21 41,-27 15,-6 32,-9 48,-9 17,0 33,3 48,9 16,7 29,16 41,27 12,12 21,25 27,41 6,15 9,32 9,48zm502 -121l0 264 -170 -154 0 132 -58 0 0 -261 170 154 0 -134 58 0zm460 58l-112 0 0 0 0 0c0,0 0,0 0,0 0,0 -1,0 -1,0 0,0 0,0 0,0 0,0 0,0 -1,0 0,0 -1,0 -1,0 -1,0 -3,1 -4,2 -1,1 -3,2 -4,3 -1,1 -2,2 -3,3 0,1 -1,1 -1,2 0,1 -1,1 -1,2 0,1 -1,3 -1,4 0,0 0,1 0,1l0 0c0,0 0,0 0,0l0 0 0 0c0,1 0,1 0,2 0,1 0,1 1,2 0,1 0,1 1,2 1,1 1,3 2,4 1,1 2,2 3,3 1,1 2,2 4,2 1,0 3,1 4,1 0,0 0,0 0,0 0,0 0,0 1,0 0,0 1,0 1,0l0 0c0,0 0,0 0,0l66 0 1 0 2 0c2,0 3,0 5,0 2,0 3,0 5,1 12,2 24,7 34,15 10,8 18,18 23,29 2,6 4,12 5,18 1,6 1,12 0,19 -1,6 -2,12 -4,18 -2,6 -5,12 -9,17 -3,5 -8,10 -12,14 -2,2 -5,4 -7,6 -3,2 -5,3 -8,5 -5,3 -11,5 -18,6 -1,0 -3,0 -5,1 -2,0 -3,0 -5,1 -2,0 -3,0 -5,0l-2 0 -141 0 0 -58 141 0 0 0c0,0 1,0 1,0 0,0 1,0 1,0 0,0 1,0 1,0 1,0 3,-1 4,-1 1,0 1,-1 2,-1 0,0 1,-1 2,-1 1,-1 2,-2 3,-3 1,-1 1,-2 2,-4 0,-1 1,-3 1,-4 0,-1 0,-3 0,-4 0,-1 0,-3 -1,-4 -1,-3 -3,-5 -5,-7 0,0 -1,-1 -2,-1 0,0 -1,0 -1,0 0,0 0,0 0,0 0,0 0,0 0,0 -1,-1 -3,-1 -4,-1 0,0 -1,0 -1,0 0,0 -1,0 -1,0 0,0 0,0 -1,0l0 0 -67 0 -1 0c-2,0 -3,0 -5,0 -1,0 -2,0 -2,0l-2 0c-6,-1 -12,-3 -18,-5 -6,-2 -11,-5 -16,-9 -5,-4 -10,-8 -14,-13 -8,-10 -13,-21 -15,-34 0,-3 -1,-6 -1,-9 0,-1 0,-1 0,-2l0 -1 0 0 0 -1c0,-2 0,-3 0,-5 0,-6 2,-12 4,-18 1,-3 2,-6 3,-9 1,-3 3,-6 5,-8 4,-5 8,-10 12,-14 5,-4 10,-8 15,-11 6,-3 11,-5 17,-7 2,0 3,-1 5,-1l2 0 2 0c2,0 3,0 5,0 1,0 1,0 2,0l2 0 146 0 -34 58z"/>
  </g>
  <path class="fil3 str0" d="M627 3c172,0 328,70 441,183 113,113 183,269 183,441 0,171 -68,325 -179,438l-23 -40c98,-104 158,-244 158,-398 0,-160 -65,-305 -170,-410 -105,-105 -250,-170 -410,-170 -160,0 -305,65 -410,170 -105,105 -170,250 -170,410 0,150 57,286 150,389l-23 40c-106,-112 -171,-263 -171,-430 0,-172 70,-328 183,-441 113,-113 269,-183 441,-183zm377 1122c-7,5 -14,10 -21,15l-21 -39c7,-5 14,-10 21,-15l22 39zm-110 67c-8,4 -17,8 -25,11 -7,-5 -13,-10 -19,-14 -8,-6 -16,-12 -23,-17 9,-3 18,-7 27,-11 14,10 27,20 40,30zm-117 42c-12,3 -23,5 -35,8 -10,-6 -17,-10 -22,-13 -17,-10 -29,-48 47,0l9 6zm-287 2c-27,-6 -53,-14 -78,-23 10,-8 24,-13 46,-5 16,5 26,15 32,28zm-228 -104c-7,-5 -14,-10 -20,-16l22 -39c7,5 13,11 20,16 -8,14 -16,28 -22,39z"/>
  <path class="fil3 str0" d="M605 26c0,-12 10,-22 22,-22 12,0 22,10 22,22l0 270c67,-3 132,-12 194,-27 -9,-20 -18,-39 -28,-58 -31,-61 -64,-114 -101,-160 -8,-10 -6,-23 3,-31 10,-8 23,-6 31,3 38,48 74,104 106,167 11,21 21,43 31,66 63,-19 122,-44 175,-74l3 13 6 33c-52,28 -108,51 -167,70 14,33 27,67 39,103 4,12 -2,24 -14,28 -12,4 -24,-2 -28,-14 -13,-37 -26,-72 -40,-106 -67,17 -138,28 -211,30l0 64c0,12 -10,22 -22,22 -12,0 -22,-10 -22,-22l0 -63c-74,0 -146,-8 -215,-23 -13,31 -25,64 -37,98 -4,12 -17,18 -28,14 -12,-4 -18,-17 -14,-28 11,-32 23,-63 35,-93 -59,-16 -114,-36 -166,-61l0 -49c56,29 118,52 183,69 11,-26 23,-51 35,-75 32,-63 67,-120 106,-167 8,-10 22,-11 31,-3 10,8 11,22 3,31 -36,45 -70,99 -101,160 -11,21 -21,43 -31,65 63,13 129,20 197,20l0 -270z"/>
  <path class="fil1" d="M437 537l-80 0 -2 0 0 -80 2 0 80 0 51 0 310 0 140 0 99 0 103 0 -48 80 -55 0 -200 0 -39 0 -310 0 -51 0zm477 23l0 0 0 0c0,0 0,0 0,0l0 0 0 1c0,1 0,2 0,3 0,1 0,2 1,3 0,1 0,2 1,3 1,2 2,4 3,5 1,1 3,3 4,4 1,1 3,2 5,3 2,1 4,1 6,2 0,0 0,0 1,0 0,0 1,0 1,0 0,0 1,0 1,0l0 0c0,0 0,0 0,0l92 0 1 0 3 0c2,0 4,0 7,0 2,0 4,0 6,1 17,3 34,10 47,21 13,11 24,25 31,41 3,8 6,16 7,25 1,9 1,17 1,26 -1,9 -3,17 -6,25 -3,8 -7,16 -12,23 -5,7 -11,14 -17,19 -3,3 -7,5 -10,8 -4,2 -7,5 -11,7 -8,4 -16,7 -24,9 -2,0 -4,1 -6,1 -2,0 -4,1 -6,1 -2,0 -4,0 -6,0l-3 0 -196 0 0 -80 196 0 1 0c1,0 1,0 2,0 1,0 1,0 1,0 0,0 1,0 2,0 2,0 4,-1 5,-2 1,0 2,-1 3,-2 1,0 2,-1 2,-2 2,-1 3,-3 4,-5 1,-1 2,-3 3,-5 1,-2 1,-4 1,-6 0,-2 0,-4 0,-6 0,-2 -1,-4 -2,-6 -1,-4 -4,-7 -7,-9 -1,-1 -2,-1 -2,-2 0,0 -1,0 -1,-1 0,0 0,0 -1,0 0,0 0,0 -1,0 -2,-1 -4,-1 -6,-2 0,0 -1,0 -1,0 -1,0 -1,0 -2,0 0,0 -1,0 -1,0l0 0 -92 0 -1 0c-2,0 -4,0 -6,0 -1,0 -2,0 -3,0l-3 0c-9,-1 -17,-4 -25,-7 -8,-3 -16,-8 -23,-13 -7,-5 -13,-11 -19,-18 -11,-14 -18,-30 -21,-47 -1,-4 -1,-9 -1,-13 0,-1 0,-2 0,-3l0 -2 0 -1 0 -1 80 0zm-231 0l0 232 -80 0 0 -232 80 0zm-246 0l0 88 0 5c0,13 -2,26 -6,38 0,1 -1,3 -1,4 0,0 0,0 0,0 0,0 0,1 0,2 0,1 -1,2 -1,3l-1 2c-1,2 -2,5 -3,7 0,0 0,1 0,1l-4 8c0,0 0,0 0,1 0,0 0,1 -1,2l-1 2 -3 4 -2 4 -1 2 -1 2 -6 8 -1 2 -2 2 -7 7 -4 4 -7 7 -2 1 -6 4 -4 3 -4 3 -4 3 -4 2 -2 1 -2 1 -4 2 -4 2 -2 1 -7 3 -4 1c0,0 0,0 0,0l-7 2c-1,0 -2,0 -2,1 -12,3 -25,5 -38,5 -13,0 -26,-1 -38,-5 -1,0 -1,0 -2,-1l-7 -2c-1,-1 -3,-1 -5,-2l-5 -2 -2 -1 -2 -1 -4 -2 -7 -3 -2 -1 -4 -2 -6 -4 -2 -1 -4 -3 -4 -3 -2 -2 -2 -1 -4 -3 -3 -3 -2 -2 -1 -2 -4 -4 -3 -4 -2 -2 -1 -2 -3 -4 -3 -4 -3 -4 -3 -4 -2 -4 -1 -2 -1 -2 -2 -4c0,-1 -1,-2 -2,-4l0 -1c-1,-2 -2,-4 -3,-7l-1 -2c0,-1 -1,-2 -1,-4 0,0 0,-1 0,-1 0,0 0,0 0,-1l-1 -4c-4,-12 -6,-25 -6,-38l0 -93 80 0 0 84 0 4 0 2c0,12 4,24 10,35l1 2 1 2 1 2 2 2 1 2 2 2 5 5 2 1 2 1 2 2 2 1 2 1 4 2 1 1 3 1 2 1 1 1 1 0 2 1 2 1c1,0 2,0 3,1 1,0 1,0 2,1 6,1 12,2 18,2 6,0 12,-1 18,-2 0,0 1,0 2,-1 1,0 2,0 3,-1l2 -1 2 -1 1 0 1 -1 2 -1 2 -1 1 0 1 -1 4 -2 1 -1 1 -1 2 -1 2 -2 1 -1 1 -1 4 -3 1 -1 1 -1 2 -2 1 -2 1 -1 2 -3 1 -2 1 -1 0 -1 1 -2c6,-11 10,-22 10,-35l0 -90 80 0zm-302 -23l0 -80 80 0 0 80 -80 0z"/>
  <path class="fil0 str1" d="M578 1417c0,1 -33,46 -43,49 -23,9 -49,-21 -38,-45 1,-3 32,-48 43,-52 26,-8 49,25 38,47zm-96 -117c21,-16 66,12 35,53 -10,13 -44,62 -52,68 -21,15 -65,-15 -35,-54 16,-21 34,-53 53,-67zm-50 -72c16,-5 36,13 39,28 3,21 -53,84 -68,107 -24,36 -52,-2 -55,-14 -4,-23 77,-118 84,-120zm-103 -6c20,-8 44,18 39,40 -2,8 -29,44 -38,46 -24,7 -45,-17 -40,-40 3,-11 28,-42 38,-47zm597 -4c-57,-47 -145,-110 -207,-147 -25,-15 -93,-60 -120,-52 -69,19 -42,44 -101,74 -15,8 -64,26 -56,-8 5,-21 54,-84 69,-105 16,-22 22,-25 55,-31 50,-9 116,-12 167,-3 95,17 59,25 144,8l116 209 -32 32c-12,9 -22,16 -36,24zm-679 -55c3,-25 96,-168 116,-214 19,7 30,20 50,27 20,7 41,6 60,12 -13,30 -62,72 -54,116 5,27 35,27 64,21 94,-22 79,-114 159,-68 93,54 118,66 208,133 31,24 87,58 78,86 -7,25 -35,28 -55,17l-106 -64c-76,-48 -64,-10 -47,0 23,14 139,80 141,86 1,27 -11,43 -39,42 -34,-1 -127,-85 -157,-76 -5,20 7,21 22,30 24,14 97,53 110,65 -6,56 -51,35 -82,20 -14,-6 -72,-39 -87,-37l-6 2c-21,22 84,49 104,69 -15,17 -27,31 -63,27 -15,-1 -58,-10 -71,-20 25,-47 8,-81 -42,-94 3,-46 -14,-65 -55,-74 -2,-33 -13,-53 -39,-62 -39,-13 -51,11 -66,26 -30,-43 -55,-47 -94,-19 -7,-7 -16,-19 -23,-27 -10,-13 -14,-16 -26,-25zm627 -269c9,-8 60,-40 73,-44l131 229c9,16 37,61 41,76 -18,15 -51,33 -73,46l-87 -151c-14,-26 -28,-51 -43,-76l-42 -79zm-583 -44c13,3 64,37 74,44l-173 306c-17,-8 -62,-36 -74,-46l173 -304zm86 77c21,-51 14,-47 -28,-72 -77,-47 -64,-45 -125,63 -156,279 -160,232 -59,295 48,30 48,-4 68,-30 8,5 42,47 46,56 -10,19 -22,35 -8,64 9,19 29,30 51,33 8,45 19,69 71,66 10,21 9,28 27,39 16,10 32,11 49,7 9,12 6,16 18,28 31,32 66,18 87,-14 48,10 103,40 149,6 13,-10 12,-13 23,-24 20,-21 59,14 73,-61 43,-11 58,-12 65,-58 30,-5 41,-3 56,-24 15,-19 13,-39 3,-62 12,-11 23,-16 33,-25 11,-11 19,-20 29,-28 28,22 13,60 73,24 35,-21 66,-32 65,-58 -1,-13 -75,-140 -86,-160 -15,-25 -79,-148 -91,-159 -22,-21 -63,14 -83,26 -59,36 -25,38 -19,75 -48,10 -49,6 -96,-5 -73,-17 -246,-25 -276,38 -56,-5 -78,-12 -115,-39z"/>
 </g>
</svg>
