<?xml version="1.0" encoding="UTF-8"?>
<!DOCTYPE svg PUBLIC "-//W3C//DTD SVG 1.1//EN" "http://www.w3.org/Graphics/SVG/1.1/DTD/svg11.dtd">
<!-- Creator: CorelDRAW X6 -->
<svg xmlns="http://www.w3.org/2000/svg" xml:space="preserve" width="2.62261in" height="1.74841in" version="1.1" style="shape-rendering:geometricPrecision; text-rendering:geometricPrecision; image-rendering:optimizeQuality; fill-rule:evenodd; clip-rule:evenodd"
viewBox="0 0 4758 3172"
 xmlns:xlink="http://www.w3.org/1999/xlink">
 <defs>
  <style type="text/css">
   <![CDATA[
    .fil0 {fill:none}
    .fil13 {fill:#0F2549}
    .fil20 {fill:#182D4F}
    .fil21 {fill:#1B3051}
    .fil11 {fill:#233862}
    .fil14 {fill:#2B478B}
    .fil22 {fill:#73A2E5}
    .fil5 {fill:#8CB4F4}
    .fil6 {fill:#9ABFE2}
    .fil4 {fill:#9FC1F4}
    .fil9 {fill:#B7D3F3}
    .fil7 {fill:#BAD4F4}
    .fil10 {fill:#C0D8FB}
    .fil2 {fill:#C8DBF4}
    .fil3 {fill:#D4E4F8}
    .fil1 {fill:#DFE9F4}
    .fil8 {fill:#DFEBFD}
    .fil17 {fill:#EBF3FF}
    .fil18 {fill:#ED7D2B}
    .fil15 {fill:#ED975D}
    .fil19 {fill:#F99746}
    .fil12 {fill:#FFB27D}
    .fil16 {fill:white}
   ]]>
  </style>
 </defs>
 <g id="Layer_x0020_1">
  <metadata id="CorelCorpID_0Corel-Layer"/>
  <g id="_703389648">
   <rect class="fil0" width="4758" height="3172"/>
   <g>
    <path class="fil1" d="M2340 2979c-1252,0 -2266,-48 -2266,-108 0,-60 1015,-108 2266,-108 1252,0 2266,48 2266,108 0,60 -1015,108 -2266,108z"/>
    <path class="fil2" d="M827 1803c0,0 -55,-65 -3,-106 0,0 38,-23 69,-21 0,0 -44,74 -30,81 14,7 43,-85 43,-85 0,0 86,-8 114,5 0,0 -74,60 -58,64 16,4 95,-56 95,-56 0,0 80,14 76,63 -4,49 -32,64 -44,63 -12,-1 -83,-28 -85,-19 -2,10 41,43 71,44 0,0 -57,63 -94,44 -38,-18 -41,-47 -64,-57 -23,-11 -44,-11 -34,0 10,11 52,22 66,45 13,24 25,40 -13,34 -39,-6 -102,-34 -105,-67 -3,-33 -3,-33 -3,-33z"/>
    <path class="fil2" d="M1093 1749c0,0 -218,-8 -267,54 0,0 -11,32 -43,61l-5 14c0,0 38,-40 51,-42 0,0 -21,-77 264,-87z"/>
    <path class="fil2" d="M783 1864c0,0 -47,35 -50,97l9 1c0,0 15,-64 42,-89 27,-25 0,-8 0,-8z"/>
    <path class="fil2" d="M633 1722c0,0 88,-49 47,-116 0,0 -33,-41 -68,-52 0,0 19,100 0,102 -19,2 -13,-113 -13,-113 0,0 -93,-45 -129,-41 0,0 58,97 39,95 -19,-2 -83,-101 -83,-101 0,0 -95,-18 -110,39 -15,56 9,85 23,88 14,4 105,2 102,14 -2,12 -63,31 -97,20 0,0 38,93 87,88 49,-5 65,-35 95,-38 31,-2 53,6 38,14 -15,8 -67,3 -92,24 -25,21 -45,34 1,43 46,9 128,4 144,-32 16,-35 16,-35 16,-35z"/>
    <path class="fil2" d="M358 1553c0,0 247,80 275,169 0,0 -1,40 23,86l0 18c0,0 -26,-60 -40,-68 0,0 55,-78 -258,-204z"/>
    <path class="fil2" d="M656 1808c0,0 38,58 16,128l-10 -3c0,0 10,-77 -10,-116 -20,-39 4,-9 4,-9z"/>
    <path class="fil3" d="M773 1654c0,0 -116,-65 -62,-153 0,0 43,-54 90,-68 0,0 -25,132 0,135 25,3 17,-149 17,-149 0,0 122,-59 170,-54 0,0 -76,129 -51,125 25,-3 110,-133 110,-133 0,0 125,-23 146,51 20,74 -12,111 -31,116 -19,5 -138,3 -135,19 3,15 84,40 129,26 0,0 -50,122 -115,116 -65,-6 -85,-46 -125,-50 -40,-3 -70,8 -50,19 20,11 88,4 121,31 33,28 59,45 -2,57 -60,12 -169,5 -190,-42 -22,-46 -22,-46 -22,-46z"/>
    <path class="fil3" d="M1135 1431c0,0 -325,105 -362,223 0,0 2,53 -31,113l0 23c0,0 34,-79 53,-90 0,0 -73,-102 341,-269z"/>
    <path class="fil3" d="M742 1767c0,0 -50,76 -22,169l13 -3c0,0 -13,-102 14,-153 26,-51 -5,-12 -5,-12z"/>
    <path class="fil3" d="M769 2137c126,0 227,-102 227,-227l-455 0c0,126 102,227 227,227z"/>
    <path class="fil3" d="M1000 2148l-461 0c0,-16 13,-28 28,-28l405 0c16,0 28,13 28,28l0 0z"/>
    <polygon class="fil4" points="1002,1916 534,1916 534,1909 1002,1909 "/>
    <path class="fil5" d="M1943 2887l1 0c9,0 16,-8 15,-16l-61 -612 -54 5 88 616c1,5 5,8 10,8z"/>
    <path class="fil5" d="M1353 2887l-1 0c-9,0 -16,-8 -15,-16l61 -612 54 5 -88 616c-1,5 -5,8 -10,8z"/>
    <path class="fil5" d="M2376 2887l1 0c9,0 16,-8 15,-16l-61 -612 -54 5 88 616c1,5 5,8 10,8z"/>
    <path class="fil5" d="M1371 2169l-109 -538c-14,-73 46,-139 125,-138l210 5c72,2 135,50 156,120l159 551 -540 0z"/>
    <path class="fil5" d="M1437 2169l-109 -538c-14,-73 46,-139 125,-138l210 5c72,2 135,50 156,120l159 551 -540 0z"/>
    <path class="fil5" d="M1401 2267l831 0c17,0 30,-14 30,-30l0 -37c0,-17 -14,-30 -30,-30l-861 0 0 68c0,17 14,30 30,30z"/>
    <path class="fil5" d="M1791 2267l529 0c13,0 24,-11 24,-24l0 -49c0,-13 -11,-24 -24,-24l-529 0c-13,0 -24,11 -24,24l0 49c0,13 11,24 24,24z"/>
    <path class="fil6" d="M1123 2162l0 18c0,6 -2,12 -5,12l-669 0c-3,0 -5,-5 -5,-12l0 -18c0,-6 2,-12 5,-12l669 0c3,0 5,5 5,12z"/>
    <path class="fil7" d="M1123 2162l0 18c0,6 -2,12 -4,12l-531 0c-2,0 -4,-5 -4,-12l0 -18c0,-6 2,-12 4,-12l531 0c2,0 4,5 4,12z"/>
    <polygon class="fil2" points="954,2885 479,2885 479,2192 954,2192 "/>
    <polygon class="fil8" points="1087,2885 612,2885 612,2192 1087,2192 "/>
    <path class="fil9" d="M642 2842l415 0 0 -626 -415 0 0 626zm419 5l-424 0 0 -635 424 0 0 635z"/>
    <polygon class="fil9" points="1059,2426 640,2426 640,2422 1059,2422 "/>
    <polygon class="fil9" points="1059,2641 640,2641 640,2636 1059,2636 "/>
    <path class="fil9" d="M892 2253l-78 0c-4,0 -7,-3 -7,-7l0 0c0,-4 3,-7 7,-7l78 0c4,0 7,3 7,7l0 0c0,4 -3,7 -7,7z"/>
    <path class="fil9" d="M892 2462l-78 0c-4,0 -7,-3 -7,-7l0 0c0,-4 3,-7 7,-7l78 0c4,0 7,3 7,7l0 0c0,4 -3,7 -7,7z"/>
    <path class="fil9" d="M892 2680l-78 0c-4,0 -7,-3 -7,-7l0 0c0,-4 3,-7 7,-7l78 0c4,0 7,3 7,7l0 0c0,4 -3,7 -7,7z"/>
    <path class="fil10" d="M2988 947l-301 0c-14,0 -25,-11 -25,-25l0 -291c0,-14 11,-25 25,-25l301 0c14,0 25,11 25,25l0 291c0,14 -11,25 -25,25z"/>
    <path class="fil8" d="M2975 933l-275 0c-13,0 -23,-10 -23,-23l0 -265c0,-13 10,-23 23,-23l275 0c13,0 23,10 23,23l0 265c0,13 -10,23 -23,23z"/>
    <path class="fil9" d="M2830 652c0,-4 3,-7 7,-7 4,0 7,3 7,7 0,4 -3,7 -7,7 -4,0 -7,-3 -7,-7z"/>
    <path class="fil9" d="M2889 663c2,-4 6,-5 10,-3 4,2 5,6 3,10 -2,4 -6,5 -10,3 -4,-2 -5,-6 -3,-10z"/>
    <path class="fil9" d="M2939 703c3,-2 8,-1 10,2 2,3 1,8 -2,10 -3,2 -8,1 -10,-2 -2,-3 -1,-8 2,-10z"/>
    <path class="fil9" d="M2964 764c4,0 7,3 7,7 0,4 -3,7 -7,7 -4,0 -7,-3 -7,-7 0,-4 3,-7 7,-7z"/>
    <path class="fil9" d="M2952 836c3,3 3,7 0,10 -3,3 -7,3 -10,0 -3,-3 -3,-7 0,-10 3,-3 7,-3 10,0z"/>
    <path class="fil9" d="M2906 882c3,3 3,7 0,10 -3,3 -7,3 -10,0 -3,-3 -3,-7 0,-10 3,-3 7,-3 10,0z"/>
    <path class="fil9" d="M2830 906c0,-4 3,-7 7,-7 4,0 7,3 7,7 0,4 -3,7 -7,7 -4,0 -7,-3 -7,-7z"/>
    <path class="fil9" d="M2786 663c-2,-4 -6,-5 -10,-3 -4,2 -5,6 -3,10 2,4 6,5 10,3 4,-2 5,-6 3,-10z"/>
    <path class="fil9" d="M2736 703c-3,-2 -8,-1 -10,2 -2,3 -1,8 2,10 3,2 8,1 10,-2 2,-3 1,-8 -2,-10z"/>
    <path class="fil9" d="M2711 764c-4,0 -7,3 -7,7 0,4 3,7 7,7 4,0 7,-3 7,-7 0,-4 -3,-7 -7,-7z"/>
    <path class="fil9" d="M2723 836c-3,3 -3,7 0,10 3,3 7,3 10,0 3,-3 3,-7 0,-10 -3,-3 -7,-3 -10,0z"/>
    <path class="fil9" d="M2769 882c-3,3 -3,7 0,10 3,3 7,3 10,0 3,-3 3,-7 0,-10 -3,-3 -7,-3 -10,0z"/>
    <path class="fil9" d="M2836 772c0,-4 3,-7 7,-7 4,0 7,3 7,7 0,4 -3,7 -7,7 -4,0 -7,-3 -7,-7z"/>
    <polygon class="fil9" points="2844,772 2842,772 2842,681 2844,681 "/>
    <polygon class="fil9" points="2844,774 2840,769 2888,731 2892,736 "/>
    <path class="fil11" d="M2094 2057c-45,78 -101,108 -101,108l-235 0c0,0 371,-168 337,-108z"/>
    <path class="fil12" d="M2384 2834c-3,25 32,31 72,33 40,2 28,10 82,21 54,10 76,-4 81,-12 4,-7 -22,-17 -49,-29 -3,-1 -7,-3 -10,-5 -30,-14 -47,-41 -71,-67 -22,-24 -43,-101 -43,-101l-74 -17c0,0 20,69 27,99 4,17 -2,37 -8,51 -3,8 -6,16 -7,25z"/>
    <path class="fil13" d="M2456 2867c40,2 28,10 82,21 54,10 76,-4 81,-12 4,-7 -22,-17 -49,-29l0 0c0,0 -39,13 -83,0 -36,-10 -71,-32 -95,-39 -3,8 -6,16 -7,25 -3,25 32,31 72,33z"/>
    <path class="fil11" d="M2272 1977c-40,-28 -303,-78 -437,-92l-149 -129c0,0 -126,187 -127,330 0,67 30,73 30,73 0,0 476,4 497,6 34,4 79,89 90,166 11,78 210,393 210,393 0,0 41,13 61,12 21,-1 30,-8 30,-8 0,0 -115,-688 -205,-751z"/>
    <path class="fil12" d="M2261 2834c-3,25 32,31 72,33 40,2 28,10 82,21 54,10 76,-4 81,-12 4,-7 -22,-17 -49,-29 -3,-1 -7,-3 -10,-5 -30,-14 -47,-41 -71,-67 -22,-24 -43,-101 -43,-101l-74 -17c0,0 20,69 27,99 4,17 -2,37 -8,51 -3,8 -6,16 -7,25z"/>
    <path class="fil11" d="M2333 2867c40,2 28,10 82,21 54,10 76,-4 81,-12 4,-7 -22,-17 -49,-29l0 0c0,0 -39,13 -83,0 -36,-10 -71,-32 -95,-39 -3,8 -6,16 -7,25 -3,25 32,31 72,33z"/>
    <path class="fil14" d="M2148 1977c-35,-24 -139,-43 -253,-57 -32,-4 -58,-27 -66,-58l0 0 -267 -106c0,0 -126,187 -127,330 0,67 30,73 30,73 0,0 476,4 497,6 34,4 79,89 90,166 11,78 210,393 210,393 0,0 41,13 61,12 21,-1 30,-8 30,-8 0,0 -115,-688 -205,-751z"/>
    <path class="fil11" d="M1791 978c-37,-19 -93,-22 -102,-23 -109,-15 -174,143 -178,191 -7,88 -54,102 -119,157 -132,111 -93,239 -21,287 43,29 119,0 119,0 1,1 208,-116 310,-172 153,-22 84,-391 -10,-440z"/>
    <path class="fil12" d="M1768 1363c0,0 -48,22 -83,11 -33,-11 -62,-61 -62,-61 14,-2 29,-16 33,-100l6 2 107 27c0,0 -4,34 -6,66 -1,27 -1,52 5,56z"/>
    <path class="fil15" d="M1769 1242c0,0 0,7 -4,38 -60,-15 -87,-35 -106,-58l110 20z"/>
    <path class="fil12" d="M1792 1246c0,0 -141,23 -154,-65 -13,-88 -40,-145 50,-163 90,-18 112,13 124,41 11,28 17,179 -19,187z"/>
    <path class="fil11" d="M1792 1014c0,0 -64,101 -121,125 -57,24 -85,12 -85,12 0,0 26,-40 33,-93 2,-16 12,-29 27,-35 41,-16 121,-42 147,-10z"/>
    <path class="fil11" d="M1736 1024c0,0 38,19 53,37 15,17 32,65 31,86 0,0 19,-102 -20,-137 -41,-37 -64,13 -64,13z"/>
    <path class="fil16" d="M1881 1579c-4,287 -1,227 -33,255 -8,7 -29,10 -57,12 -88,6 -243,-9 -249,-25 -20,-56 -6,-74 -23,-160 -2,-9 -4,-19 -7,-30 -14,-59 -28,-79 22,-175 45,-86 99,-156 103,-154 120,71 124,12 124,12 0,0 120,125 118,265z"/>
    <path class="fil16" d="M1763 1314c0,0 123,21 137,74 15,53 100,366 100,366 0,0 -63,11 -92,-18 -29,-29 -101,-269 -101,-269l-44 -153z"/>
    <path class="fil17" d="M1792 1846c-88,6 -243,-9 -249,-25 -20,-56 -6,-74 -23,-160l42 -120c0,0 -7,133 32,168 39,35 161,68 180,97 9,14 15,28 17,39z"/>
    <path class="fil12" d="M1691 1790c0,0 87,-19 101,-12 14,8 48,36 53,46 4,10 -31,-7 -43,-11 -7,-2 -27,5 -37,8 -41,14 -66,7 -66,7l-8 -38z"/>
    <path class="fil16" d="M1639 1302c0,0 -123,7 -163,64 -57,79 -170,417 -105,462 73,51 331,13 331,13 0,0 9,-40 -3,-60 -12,-19 -207,-51 -216,-60 -9,-9 112,-175 112,-202 0,-27 44,-218 44,-218z"/>
    <path class="fil12" d="M1796 1802c0,0 18,23 24,26 6,3 10,2 10,2l-12 -22 -22 -6z"/>
    <path class="fil12" d="M1792 1778l53 26c0,0 -2,4 -9,3 -7,0 -23,-6 -23,-6l-21 -23z"/>
    <path class="fil18" d="M1987 1839l-246 0c0,-11 9,-20 20,-20l226 0 0 20z"/>
    <polygon class="fil18" points="1986,1571 2366,1571 2275,1839 1892,1839 "/>
    <polygon class="fil19" points="2372,1571 2281,1839 1898,1839 1992,1571 "/>
    <path class="fil16" d="M2167 1702c-2,10 -13,19 -23,19 -10,0 -17,-8 -14,-19 2,-10 13,-19 23,-19 10,0 17,8 14,19z"/>
    <path class="fil20" d="M1656 1899l1666 0c7,0 13,-6 13,-13l0 -35c0,-7 -6,-13 -13,-13l-1666 0c-7,0 -13,6 -13,13l0 35c0,7 6,13 13,13z"/>
    <path class="fil20" d="M3363 2892l1 0c9,-1 15,-9 14,-17l-148 -1005 -54 2 175 1011c1,6 7,11 14,10z"/>
    <path class="fil20" d="M1600 2892l-1 0c-9,-1 -15,-9 -14,-17l148 -1005 54 2 -175 1011c-1,6 -7,11 -14,10z"/>
    <path class="fil20" d="M1944 2892l-1 0c-9,-1 -15,-9 -13,-17l148 -1005 54 2 -175 1011c-1,6 -7,11 -14,10z"/>
    <path class="fil11" d="M2820 2891l295 0c14,-17 9,-81 7,-102 0,-4 -1,-7 -1,-7 0,0 -101,-80 -114,-19 0,2 -1,4 -1,6 -17,58 -96,84 -141,91 -29,5 -40,20 -44,31z"/>
    <path class="fil11" d="M3624 1933c-11,0 -505,93 -586,194 -41,51 -47,634 -47,634 0,0 51,63 160,26 0,0 80,-399 74,-520 -2,-33 338,-5 400,-21 62,-16 214,-151 180,-217 -33,-66 -180,-96 -180,-96z"/>
    <path class="fil12" d="M3039 1791c0,0 -100,1 -123,11 -24,10 -71,33 -59,37 13,4 74,-1 87,1 13,2 29,-1 38,-1 8,0 46,0 46,0l11 -48z"/>
    <path class="fil12" d="M2923 1551c0,0 -34,-24 -67,-29 -19,-3 -37,-6 -48,-10 -30,-11 -91,-66 -87,-72 15,-21 86,23 98,18 12,-5 -24,-30 -11,-40 7,-5 22,19 35,21 17,3 30,27 36,29 10,2 54,35 54,35l-9 47z"/>
    <path class="fil18" d="M3575 1268c0,0 -76,24 -151,229 -75,206 -103,217 -130,225 -27,8 -266,56 -266,56l0 61 367 0c0,0 138,-131 179,-219 41,-88 0,-352 0,-352z"/>
    <path class="fil21" d="M2690 2891l295 0c14,-17 9,-81 7,-102 0,-4 -1,-7 -1,-7 0,0 -101,-80 -114,-19 0,2 -1,4 -1,6 -17,58 -96,84 -141,91 -29,5 -40,20 -44,31z"/>
    <path class="fil14" d="M3478 1933c-11,0 -505,93 -586,194 -41,51 -47,634 -47,634 0,0 51,63 160,26 0,0 80,-399 74,-520 -2,-33 338,-5 400,-21 62,-16 214,-151 180,-217 -33,-66 -180,-96 -180,-96z"/>
    <path class="fil12" d="M3509 1333c36,-3 73,-12 105,-23 40,-13 73,-32 52,-69 -19,-34 -50,-110 -48,-172l-75 60 -51 41c0,0 0,24 6,67 1,8 2,16 4,25 1,7 -2,14 -8,18 0,0 -1,0 -1,1 -25,16 -12,55 17,52z"/>
    <path class="fil15" d="M3492 1160c0,0 -3,9 2,41 45,-7 88,-44 88,-44 -23,-6 -32,-31 -49,-29l-41 31z"/>
    <path class="fil12" d="M3450 1168c0,0 175,29 191,-80 16,-109 50,-179 -61,-202 -111,-23 -139,15 -153,50 -14,35 -22,221 23,231z"/>
    <path class="fil14" d="M3401 888c-7,26 13,58 46,69 50,16 39,77 61,76 22,-1 32,-35 52,-8 17,23 -14,51 -12,64 4,22 38,67 69,65 31,-2 89,-150 78,-196 -12,-46 -58,-94 -102,-101 -44,-7 -105,12 -120,12 -14,0 -68,4 -72,18z"/>
    <path class="fil19" d="M3806 1419c-25,-102 -95,-208 -142,-208 -80,0 -196,21 -242,136 -34,85 -80,572 -28,607 118,79 393,241 441,76 45,-151 15,-435 -28,-611z"/>
    <path class="fil19" d="M3611 1318c-23,-60 -97,-80 -147,-41 -27,21 -61,51 -101,94 -150,160 -180,159 -209,155 -28,-3 -266,-54 -266,-54 0,0 -12,9 -19,24 -10,19 -5,33 -5,33 -9,-6 84,59 131,84 62,34 154,66 191,78 10,3 22,3 32,0 55,-20 239,-92 389,-217 39,-33 25,-101 4,-156z"/>
    <path class="fil16" d="M3672 1212l-18 -41c0,0 -163,13 -190,106 0,0 126,-63 208,-65z"/>
    <path class="fil5" d="M4068 2887l1 0c9,0 16,-8 15,-16l-61 -612 -54 5 88 616c1,5 5,8 10,8z"/>
    <path class="fil5" d="M3752 2887l1 0c9,0 16,-8 15,-16l-61 -612 -54 5 88 616c1,5 5,8 10,8z"/>
    <path class="fil22" d="M3159 2887l-1 0c-9,0 -16,-8 -15,-16l61 -612 54 5 -88 616c-1,5 -5,8 -10,8z"/>
    <path class="fil5" d="M4050 2172l58 -511c8,-74 -17,-146 -123,-151l-187 -11c-111,-5 -161,88 -175,159l-111 562 538 -47z"/>
    <path class="fil22" d="M4019 2267l-831 0c-17,0 -30,-14 -30,-30l0 -37c0,-17 14,-30 30,-30l861 0 0 68c0,17 -14,30 -30,30z"/>
    <path class="fil5" d="M4026 2267l-490 0c-13,0 -24,-11 -24,-24l0 -51c0,-13 11,-24 24,-24l514 0 0 74c0,13 -11,24 -24,24z"/>
   </g>
  </g>
 </g>
</svg>
