<?xml version="1.0" encoding="UTF-8"?>
<!DOCTYPE svg PUBLIC "-//W3C//DTD SVG 1.1//EN" "http://www.w3.org/Graphics/SVG/1.1/DTD/svg11.dtd">
<!-- Creator: CorelDRAW X6 -->
<svg xmlns="http://www.w3.org/2000/svg" xml:space="preserve" width="55.0334mm" height="38.5232mm" version="1.1" style="shape-rendering:geometricPrecision; text-rendering:geometricPrecision; image-rendering:optimizeQuality; fill-rule:evenodd; clip-rule:evenodd"
viewBox="0 0 2009 1406"
 xmlns:xlink="http://www.w3.org/1999/xlink">
 <defs>
  <style type="text/css">
   <![CDATA[
    .str0 {stroke:#A2D9F7;stroke-width:6.43974}
    .fil0 {fill:none}
    .fil5 {fill:#355D8B}
    .fil3 {fill:#3A3840}
    .fil9 {fill:#45454F}
    .fil6 {fill:#769636}
    .fil1 {fill:#E0E6EF}
    .fil4 {fill:#E84041}
    .fil7 {fill:#F9B500}
    .fil8 {fill:#FECC00}
    .fil2 {fill:#FEFEFE}
   ]]>
  </style>
 </defs>
 <g id="Layer_x0020_1">
  <metadata id="CorelCorpID_0Corel-Layer"/>
  <rect class="fil0" width="2009" height="1406"/>
  <polygon class="fil1" points="365,328 362,318 1001,151 1004,162 "/>
  <polygon class="fil1" points="367,707 360,699 999,152 1006,160 "/>
  <polygon class="fil1" points="1005,890 360,327 367,319 1013,881 "/>
  <polygon class="fil1" points="1007,526 362,322 365,311 1011,516 "/>
  <polygon class="fil1" points="356,1089 353,1078 1007,880 1011,891 "/>
  <polygon class="fil1" points="1006,1254 360,707 367,699 1013,1246 "/>
  <polygon class="fil1" points="358,1087 351,1079 999,517 1006,525 "/>
  <polygon class="fil1" points="1001,893 362,698 365,687 1004,883 "/>
  <polygon class="fil1" points="1001,1255 353,1089 355,1078 1004,1245 "/>
  <polygon class="fil1" points="365,708 362,698 1001,516 1004,526 "/>
  <polygon class="fil1" points="1584,707 1005,160 1013,152 1592,699 "/>
  <polygon class="fil1" points="1586,708 1001,526 1004,516 1590,698 "/>
  <polygon class="fil1" points="1011,891 1007,880 1586,698 1590,708 "/>
  <polygon class="fil1" points="1007,1246 999,1238 1584,699 1592,707 "/>
  <path class="fil2 str0" d="M485 319c0,-67 -54,-121 -121,-121 -67,0 -121,54 -121,121 0,67 54,122 121,122 67,0 121,-54 121,-122z"/>
  <path class="fil2 str0" d="M485 703c0,-67 -54,-121 -121,-121 -67,0 -121,54 -121,121 0,67 54,121 121,121 67,0 121,-54 121,-121z"/>
  <path class="fil2 str0" d="M485 1083c0,-67 -54,-121 -121,-121 -67,0 -121,54 -121,121 0,67 54,121 121,121 67,0 121,-54 121,-121z"/>
  <path class="fil2 str0" d="M1767 703c0,-99 -80,-179 -179,-179 -99,0 -179,80 -179,179 0,99 80,179 179,179 99,0 179,-80 179,-179z"/>
  <path class="fil2 str0" d="M1103 521c0,-55 -45,-100 -100,-100 -55,0 -100,45 -100,100 0,55 45,100 100,100 55,0 100,-45 100,-100z"/>
  <path class="fil2 str0" d="M1103 156c0,-55 -45,-100 -100,-100 -55,0 -100,45 -100,100 0,55 45,100 100,100 55,0 100,-45 100,-100z"/>
  <path class="fil2 str0" d="M1103 885c0,-55 -45,-100 -100,-100 -55,0 -100,45 -100,100 0,55 45,100 100,100 55,0 100,-45 100,-100z"/>
  <path class="fil2 str0" d="M1103 1250c0,-55 -45,-100 -100,-100 -55,0 -100,45 -100,100 0,55 45,100 100,100 55,0 100,-45 100,-100z"/>
  <path class="fil3" d="M338 293l0 -13 65 -13 0 16 -65 11zm-13 -40l0 0 0 0 0 99c-7,-3 -16,-2 -24,1 -14,6 -22,21 -17,32 3,7 11,12 21,12 5,0 10,-1 14,-3 11,-5 18,-14 19,-24l0 0 0 -68 65 -11 0 50c-7,-3 -16,-2 -24,2 -14,6 -22,21 -17,32 3,7 11,12 21,12 5,0 10,-1 14,-3 11,-5 18,-14 19,-24l0 0 0 -125 -91 19z"/>
  <path class="fil3" d="M364 734c-11,0 -19,-9 -19,-19 0,-11 9,-19 19,-19 11,0 19,9 19,19 0,11 -9,19 -19,19zm0 -62c-23,0 -42,19 -42,42 0,23 19,42 42,42 23,0 42,-19 42,-42 0,-23 -19,-42 -42,-42z"/>
  <path class="fil3" d="M279 715c10,10 44,43 85,43 41,0 75,-33 85,-43 -10,-10 -44,-43 -85,-43 -40,0 -75,33 -85,43zm85 52c-52,0 -93,-47 -94,-49l0 -6c2,-2 43,-49 94,-49 52,0 93,47 94,49l0 6c-2,2 -43,49 -94,49z"/>
  <path class="fil3" d="M423 1099c-13,34 -52,62 -88,61 -11,0 -16,-2 -22,-10 -4,-6 -4,-14 -3,-20 2,-10 13,-21 21,-27 5,-7 7,-14 7,-22 1,-18 1,-33 14,-47 12,-11 25,-16 41,-12 36,6 40,49 30,77zm-28 -80c-51,-9 -59,25 -60,34 -1,5 3,29 -4,44 -6,12 -20,17 -26,34 -3,12 2,24 12,31 10,7 23,6 34,3 34,-5 63,-29 75,-61 11,-31 8,-78 -32,-85z"/>
  <path class="fil3" d="M363 1047l0 0 0 0 0 0zm51 25c0,-7 0,-15 -3,-21 -1,-2 -2,-4 -4,-6 -5,-8 -12,-15 -22,-15 -13,-1 -23,8 -27,20l-2 5 -2 4c-1,3 -1,5 0,8l0 3c1,7 5,13 11,16 2,1 5,2 7,3 2,1 5,3 7,4 3,2 5,4 7,6 2,2 2,5 3,7 1,2 1,5 0,8 -2,6 -8,10 -12,14 -5,3 -11,6 -17,8l-2 1c-5,1 -10,1 -14,0 -6,-2 -8,-6 -9,-11 -1,-5 4,-6 8,-7 3,-1 6,-2 7,-4 2,2 3,4 5,6l3 -2c-1,-2 -2,-5 -3,-7 -1,-3 -2,-5 -5,-7 -6,-3 -14,1 -17,6 -1,3 -4,5 -5,7 -1,3 -1,6 0,9 1,6 5,11 10,14 5,3 12,2 18,1 4,-1 8,-2 12,-4l3 -1c3,-1 6,-2 9,-4 6,-2 12,-8 15,-14 3,-6 4,-14 0,-19l-2 -2c-2,-3 -5,-6 -8,-7 -5,-3 -11,-4 -16,-7l-5 -4c-4,-4 -8,-11 -6,-17 1,-4 6,-7 10,-9 4,-2 9,-5 12,-10l1 0c3,0 6,1 8,2 3,1 6,1 8,1 2,2 4,5 6,8 3,6 2,12 3,19l0 4 0 3c0,4 -1,8 -1,12l2 2 2 1c3,-7 2,-15 3,-22z"/>
  <path class="fil4" d="M1038 125l-4 3 -2 -3 -8 -15 -5 -1 -7 4 -3 2 -15 8 3 4c3,5 1,12 -4,14 -5,3 -12,1 -14,-4l-1 -5 -12 7 -6 3 -7 4 -1 5 10 18 -5 1c-5,3 -7,9 -4,14 3,5 9,7 14,4l4 -3 10 17 5 1 7 -4 18 -10 -3 -4c-3,-5 -1,-12 4,-14 5,-3 12,-1 14,4l1 5 18 -10 0 0 7 -4 1 -5 -10 -17 5 -1c5,-3 7,-9 4,-14 -3,-5 -9,-7 -14,-4z"/>
  <path class="fil5" d="M1044 878l-4 1 0 -3 1 -15c0,-2 -1,-3 -3,-4l-7 0 -3 0 -15 -1 1 4c0,5 -5,9 -10,9 -5,0 -9,-5 -9,-10l1 -4 -12 -1 -6 0 -7 0c-2,0 -3,1 -4,3l-1 18 -4 -1c-5,0 -10,4 -10,9 0,5 4,10 9,10l4 -1 -1 17c0,2 1,3 3,4l7 0 0 0 52 2 7 0c2,0 3,-1 4,-3l1 -17 4 1c5,0 10,-4 10,-9 0,-5 -4,-10 -9,-10z"/>
  <path class="fil6" d="M1045 507l-15 -10 -2 4c-3,4 -9,5 -13,2 -4,-3 -5,-9 -2,-13l3 -3 -15 -10 0 0 -5 -4 -5 1 -14 20 -3 -3c-4,-3 -10,-2 -13,2 -3,4 -2,10 2,13l4 2 -14 20 1 5 54 39 5 -1 39 -54 -1 -5 -5 -4 0 0z"/>
  <path class="fil7" d="M995 1206l-12 13 4 2c4,4 4,10 0,13 -4,4 -10,4 -13,0l-2 -4 -12 13 0 0 -5 5 0 5 18 17 -4 2c-4,4 -3,10 0,13 4,4 10,3 13,0l2 -4 18 17 5 0 46 -48 0 -5 -48 -46 -5 0 -4 5 0 0z"/>
  <path class="fil8" d="M1662 700c-3,-40 -33,-68 -74,-68l0 0 0 0c-40,0 -70,28 -74,68 -2,20 -2,37 30,75 7,8 9,24 9,33 0,5 25,8 34,9 9,-1 34,-4 34,-9 1,-9 3,-25 10,-33 32,-38 32,-56 30,-75z"/>
  <path class="fil2" d="M1566 733l22 63 22 -63 -44 0zm22 88c-3,0 -5,-2 -6,-4l-31 -88c-1,-2 0,-4 1,-6 1,-2 3,-3 5,-3l61 0c2,0 4,1 5,3 1,2 1,4 1,6l-31 88c-1,2 -3,4 -6,4z"/>
  <path class="fil3" d="M1588 792l-39 0 0 50 0 0c0,1 1,2 3,3l27 15c2,1 6,2 9,2 3,0 7,-1 9,-2l27 -15c2,-1 3,-2 3,-3l0 -50 -39 0z"/>
  <path class="fil8" d="M1600 603c0,7 -5,12 -12,12 -7,0 -12,-5 -12,-12l0 -37c0,-7 5,-12 12,-12 7,0 12,5 12,12l0 37z"/>
  <path class="fil8" d="M1520 622c5,5 5,12 0,17 -5,5 -12,5 -17,0l-26 -26c-5,-5 -5,-12 0,-17 5,-5 12,-5 17,0l26 26z"/>
  <path class="fil8" d="M1657 622c-5,5 -5,12 0,17 5,5 12,5 17,0l26 -26c5,-5 5,-12 0,-17 -5,-5 -12,-5 -17,0l-26 26z"/>
  <path class="fil8" d="M1483 678c7,0 12,5 12,12 0,7 -5,12 -12,12l-37 0c-7,0 -12,-5 -12,-12 0,-7 5,-12 12,-12l37 0z"/>
  <path class="fil8" d="M1730 678c7,0 12,5 12,12 0,7 -5,12 -12,12l-37 0c-7,0 -12,-5 -12,-12 0,-7 5,-12 12,-12l37 0z"/>
  <path class="fil9" d="M1627 807l-39 0 -39 0c-3,0 -5,2 -5,5 0,3 2,5 5,5l39 0 39 0c3,0 5,-2 5,-5 0,-3 -2,-5 -5,-5z"/>
  <path class="fil9" d="M1627 828l-39 0 -39 0c-3,0 -5,2 -5,5 0,3 2,5 5,5l39 0 39 0c3,0 5,-2 5,-5 0,-3 -2,-5 -5,-5z"/>
 </g>
</svg>
