<?xml version="1.0" encoding="UTF-8"?>
<!DOCTYPE svg PUBLIC "-//W3C//DTD SVG 1.1//EN" "http://www.w3.org/Graphics/SVG/1.1/DTD/svg11.dtd">
<!-- Creator: CorelDRAW X6 -->
<svg xmlns="http://www.w3.org/2000/svg" xml:space="preserve" width="86.9526mm" height="60.8835mm" version="1.1" style="shape-rendering:geometricPrecision; text-rendering:geometricPrecision; image-rendering:optimizeQuality; fill-rule:evenodd; clip-rule:evenodd"
viewBox="0 0 5778 4046"
 xmlns:xlink="http://www.w3.org/1999/xlink">
 <defs>
  <style type="text/css">
   <![CDATA[
    .fil50 {fill:none}
    .fil35 {fill:#AF9129}
    .fil37 {fill:#009846}
    .fil14 {fill:#00A0E3}
    .fil3 {fill:#434242}
    .fil12 {fill:#5B5B5B}
    .fil8 {fill:#5B7674}
    .fil13 {fill:#727271}
    .fil7 {fill:#779697}
    .fil25 {fill:#898989}
    .fil47 {fill:#9D9E9E}
    .fil38 {fill:#A79ECD}
    .fil42 {fill:#D7701E}
    .fil41 {fill:#EF7F1A}
    .fil4 {fill:#173D7A}
    .fil39 {fill:#274F89}
    .fil32 {fill:#354A5F}
    .fil30 {fill:#396CAA}
    .fil46 {fill:#3B1D12}
    .fil26 {fill:#42AEB8}
    .fil27 {fill:#53BFC9}
    .fil36 {fill:#547596}
    .fil29 {fill:#5793CE}
    .fil11 {fill:#5A94A2}
    .fil24 {fill:#616F70}
    .fil28 {fill:#6DD2DB}
    .fil34 {fill:#729FCC}
    .fil23 {fill:#798E8F}
    .fil48 {fill:#83605A}
    .fil5 {fill:#83BCCD}
    .fil19 {fill:#95D359}
    .fil43 {fill:#99ADAC}
    .fil17 {fill:#B45EF4}
    .fil49 {fill:#B77A5E}
    .fil20 {fill:#C13D1A}
    .fil16 {fill:#C62042}
    .fil15 {fill:#D29FFF}
    .fil31 {fill:#D4ECFF}
    .fil21 {fill:#DB5126}
    .fil40 {fill:#E5175B}
    .fil45 {fill:#E8A200}
    .fil18 {fill:#EA557E}
    .fil10 {fill:#EA9C92}
    .fil1 {fill:#EC7A58}
    .fil22 {fill:#EF602E}
    .fil44 {fill:#F9BF30}
    .fil33 {fill:#FAFDFF}
    .fil0 {fill:#FDD762}
    .fil6 {fill:#FFC2B0}
    .fil9 {fill:white}
    .fil2 {fill:#173D7A;fill-opacity:0.501961}
   ]]>
  </style>
 </defs>
 <g id="Layer_x0020_1">
  <metadata id="CorelCorpID_0Corel-Layer"/>
  <g id="_760401864">
   <rect class="fil0" transform="matrix(-0.329459 -0.469746 0.469746 -0.329459 555.083 2433.9)" width="45" height="131"/>
   <rect class="fil0" transform="matrix(-0.329459 -0.469746 0.469746 -0.329459 576.959 2387.05)" width="45" height="131"/>
   <rect class="fil0" transform="matrix(-0.329516 -0.469689 0.469689 -0.329516 598.926 2340.38)" width="45" height="131"/>
   <rect class="fil0" transform="matrix(-0.329516 -0.469689 0.469689 -0.329516 620.813 2293.52)" width="45" height="131"/>
   <path class="fil1" d="M4623 1447l12 -20c0,0 10,5 20,2 8,-3 16,-10 21,-22 21,-43 59,-46 76,-42l-5 22 3 -11 -3 11c-3,-1 -33,-6 -50,30 -9,18 -21,30 -36,34 -20,6 -36,-3 -38,-4l0 0z"/>
   <path class="fil2" d="M1266 2603c-54,31 -142,31 -197,0 -54,-31 -54,-82 0,-113 54,-31 142,-31 197,0 54,31 54,82 0,113z"/>
   <path class="fil3" d="M1081 1532c0,0 4,77 10,129 6,52 130,-40 130,-40l0 -59 -140 -30 0 0z"/>
   <path class="fil4" d="M1147 2489c2,5 34,44 66,54 14,4 23,5 30,4 6,-1 10,-7 8,-13 -6,-16 -21,-48 -62,-68 -55,-27 -42,23 -42,23l0 0z"/>
   <path class="fil4" d="M1136 2504c0,0 12,28 16,52 2,15 -6,33 -12,46 -4,8 -14,10 -21,4 -10,-10 -24,-26 -26,-50 -4,-40 0,-47 0,-47l43 -5 0 0z"/>
   <path class="fil5" d="M1058 2018c0,0 -4,51 0,107 4,56 19,318 22,381 0,0 -1,19 36,15 37,-4 34,-25 34,-25 0,0 52,-1 54,-31 2,-31 53,-365 53,-486l-198 40 0 0z"/>
   <path class="fil6" d="M1276 1756l25 39 87 106c0,0 -3,10 -14,12 -8,2 -82,-68 -114,-99 -8,-8 -10,-21 -3,-31l18 -27 0 0z"/>
   <path class="fil7" d="M1226 1594c0,0 40,-1 54,57 14,58 25,132 13,138 -37,18 -60,-3 -60,-3l-7 -192 0 0z"/>
   <path class="fil8" d="M1238 1597c-7,-3 -15,-3 -22,-1 -34,10 -164,48 -185,66 -25,21 37,139 36,178 -1,39 -5,85 -9,127 -3,42 -8,65 26,83 35,18 93,19 137,-15 44,-34 36,-57 34,-81 -2,-24 -17,-130 -16,-160 0,0 16,-11 27,-31 12,-20 -9,-56 -17,-79 -8,-23 5,-50 2,-69 -1,-10 -8,-15 -15,-18l0 0z"/>
   <ellipse class="fil9" transform="matrix(0.569122 -0.0728688 0.0728688 0.569122 1148.4 1643.41)" rx="85" ry="68"/>
   <ellipse class="fil6" transform="matrix(0.569122 -0.0728688 0.0728688 0.569122 1148.49 1643.36)" rx="61" ry="49"/>
   <path class="fil6" d="M1164 1589c0,0 -23,-19 -28,-10 -5,10 -8,52 -8,52l46 12 -7 -42c0,0 9,-8 -3,-12l0 0z"/>
   <circle class="fil6" cx="1167" cy="1539" r="69"/>
   <path class="fil10" d="M1133 1592c0,2 -1,5 -1,7 5,24 41,35 41,35l-5 -32c0,0 4,-4 3,-7 -14,-5 -32,-8 -37,-2l0 0z"/>
   <circle class="fil6" cx="1167" cy="1539" r="69"/>
   <polygon class="fil6" points="997,1832 1005,2018 1032,2020 1049,1854 "/>
   <path class="fil7" d="M1086 1817c-9,-40 -27,-127 -27,-127l-8 87c9,26 16,49 16,63 -1,23 -2,48 -4,73l0 0c0,0 32,-57 23,-97l0 0z"/>
   <path class="fil7" d="M1037 1658c0,0 -22,8 -34,75 -12,67 -21,133 0,142 22,9 40,15 47,-3 6,-18 10,-104 11,-134 1,-31 2,-73 -24,-80l0 0z"/>
   <path class="fil6" d="M1382 1893c0,0 12,4 20,14 7,8 11,14 14,19 7,10 12,32 8,35 -4,3 -28,-36 -31,-27 -4,9 0,18 -5,18 -5,0 -22,-39 -35,-52 -13,-12 29,-5 29,-5l0 0z"/>
   <path class="fil11" d="M1150 2496c0,0 6,0 15,-2l0 0 10 -408 -25 409z"/>
   <path class="fil3" d="M1111 2275l-14 -19 -152 -88c-5,-3 -9,-10 -9,-17l0 -124 -9 -11 8 -5 0 0c2,-1 4,-1 6,0l172 100c5,3 9,10 9,17l0 135c0,4 -1,6 -3,7l0 0 -8 5 0 0z"/>
   <path class="fil12" d="M1006 2204l-11 -6 -59 -103 0 -67 -9 -11 8 -5 0 0c2,-1 4,-1 6,0l172 100c3,2 5,4 6,8l-114 85 0 0z"/>
   <path class="fil13" d="M931 2021l-4 -5 8 -5 0 0c2,-1 4,-1 6,0l3 2 -13 8 0 0z"/>
   <path class="fil13" d="M1115 2113c4,3 7,9 7,14l-17 10 -8 -14 18 -10 0 0z"/>
   <path class="fil14" d="M1105 2116l-172 -100c-5,-3 -9,0 -9,7l0 135c0,6 4,14 9,17l172 100c5,3 9,0 9,-7l0 -135c0,-6 -4,-14 -9,-17z"/>
   <path class="fil6" d="M1005 2016c0,0 -7,43 -6,57 1,14 8,37 14,36 6,-1 0,-56 10,-50 10,6 11,15 15,12 4,-3 -8,-51 -5,-71 3,-21 -29,16 -29,16l0 0z"/>
   <path class="fil10" d="M1194 1545c35,12 42,5 42,4 0,-2 1,-4 1,-6 0,-8 0,-15 -2,-22l-90 -12c0,0 14,24 50,36l0 0z"/>
   <path class="fil3" d="M1239 1474c-8,-7 -38,-42 -91,-34 -33,5 -61,28 -67,79 -4,35 9,69 32,94 1,-1 3,-1 4,-2 13,-9 15,-14 15,-14l3 -26c0,-4 -3,-7 -7,-7 -3,0 -6,-2 -10,-6 -8,-10 -4,-25 11,-26 8,0 11,-5 12,-9 1,-4 5,-5 8,-4 17,6 60,20 87,12 35,-10 10,-51 2,-58l0 0z"/>
   <path class="fil9" d="M1200 1576l21 -6c0,0 -10,16 -25,20 -15,4 -17,-8 -17,-8l21 -6 0 0z"/>
   <polygon class="fil15" points="1041,2070 1023,2059 1030,2070 1039,2074 "/>
   <polygon class="fil2" points="4679,2648 4539,2567 4399,2648 4539,2729 "/>
   <polygon class="fil2" points="4539,2567 4399,2486 4259,2567 4399,2648 "/>
   <polygon class="fil16" points="4560,2498 4560,2256 4679,2187 4679,2429 "/>
   <polygon class="fil17" points="4560,2256 4441,2187 4441,2429 4560,2498 "/>
   <polygon class="fil18" points="4679,2187 4560,2119 4441,2187 4560,2256 "/>
   <polygon class="fil19" points="4679,2521 4560,2452 4560,2498 4679,2567 "/>
   <polygon class="fil20" points="4441,2567 4441,2200 4560,2132 4560,2498 "/>
   <polygon class="fil21" points="4441,2200 4322,2132 4322,2498 4441,2567 "/>
   <polygon class="fil22" points="4560,2132 4441,2063 4322,2132 4441,2200 "/>
   <polygon class="fil23" points="4441,2567 4441,2200 4560,2132 4560,2498 "/>
   <polygon class="fil24" points="4441,2200 4322,2132 4322,2498 4441,2567 "/>
   <polygon class="fil25" points="4560,2132 4441,2063 4322,2132 4441,2200 "/>
   <polygon class="fil26" points="4560,2635 4560,2429 4679,2361 4679,2567 "/>
   <polygon class="fil27" points="4560,2429 4441,2361 4441,2567 4560,2635 "/>
   <polygon class="fil28" points="4679,2361 4560,2292 4441,2361 4560,2429 "/>
   <path class="fil29" d="M3459 1312c-5,0 -10,-4 -10,-10l0 -396c0,-5 4,-10 10,-10 5,0 10,4 10,10l0 396c0,5 -4,10 -10,10z"/>
   <rect class="fil29" x="3425" y="881" width="69" height="148"/>
   <path class="fil29" d="M3483 1044c-13,8 -35,8 -49,0 -13,-8 -13,-20 0,-28 13,-8 35,-8 49,0 13,8 13,20 0,28z"/>
   <rect class="fil29" x="3403" y="674" width="111" height="233"/>
   <path class="fil30" d="M3425 906l0 50c20,9 49,9 69,0l0 -50c-20,-9 -49,-9 -69,0z"/>
   <path class="fil29" d="M3499 930c-22,13 -57,13 -79,0 -22,-13 -22,-33 0,-45 22,-13 57,-13 79,0 22,13 22,33 0,45z"/>
   <path class="fil29" d="M3845 1529c-5,0 -10,-4 -10,-10l0 -396c0,-5 4,-10 10,-10 5,0 10,4 10,10l0 396c0,5 -4,10 -10,10z"/>
   <rect class="fil29" x="3811" y="1098" width="69" height="148"/>
   <path class="fil29" d="M3870 1261c-13,8 -35,8 -49,0 -13,-8 -13,-20 0,-28 13,-8 35,-8 49,0 13,8 13,20 0,28z"/>
   <rect class="fil29" x="3789" y="892" width="111" height="233"/>
   <path class="fil30" d="M3811 1123l0 50c20,9 49,9 69,0l0 -50c-20,-9 -49,-9 -69,0z"/>
   <path class="fil29" d="M3885 1147c-22,13 -57,13 -79,0 -22,-13 -22,-33 0,-45 22,-13 57,-13 79,0 22,13 22,33 0,45z"/>
   <polygon class="fil29" points="4221,1278 4370,1190 4228,1012 4190,1073 "/>
   <path class="fil29" d="M3135 303l239 -137c0,0 -9,137 -9,137 0,0 -137,42 -137,42l-93 -42 0 0z"/>
   <path class="fil29" d="M4262 831c-18,-10 -35,-17 -52,-19 -24,-126 -112,-261 -217,-321 -32,-18 -62,-28 -89,-30 -14,-153 -121,-327 -250,-402 -68,-39 -129,-44 -174,-20l0 0 -2 1c-1,1 -2,1 -3,2l-141 83 47 37c-42,18 -68,65 -68,135 0,128 90,284 201,348l748 534c83,48 151,9 151,-87 0,-96 -68,-213 -151,-262l0 0z"/>
   <path class="fil29" d="M3320 241l323 -189c-63,-33 -119,-35 -162,-13l0 0 -2 1c-1,1 -2,1 -3,2l-141 83 47 37c-29,13 -51,40 -62,78l0 0z"/>
   <path class="fil29" d="M3916 796l236 -138c-40,-70 -96,-131 -158,-166 -8,-5 -16,-9 -24,-12l-300 175 246 142 0 0z"/>
   <path class="fil31" d="M3401 141l105 61 192 -113c-14,-11 -28,-21 -43,-29 -23,-13 -46,-23 -67,-28l-187 110 0 0z"/>
   <path class="fil31" d="M4125 617l-188 111 65 73 171 -101c-13,-29 -30,-57 -48,-83z"/>
   <path class="fil31" d="M4114 918c-18,-11 -35,-17 -52,-19 -24,-126 -112,-261 -217,-321 -32,-18 -62,-28 -89,-30 -14,-153 -121,-327 -250,-402 -139,-80 -252,-15 -252,145 0,5 0,11 0,16 -102,-47 -181,6 -181,126 0,128 90,284 201,348l839 484c83,48 151,9 151,-87 0,-96 -68,-213 -151,-262l0 0z"/>
   <path class="fil9" d="M3256 308c0,-6 0,-11 0,-16 0,0 0,0 0,-1 -56,-22 -104,-12 -135,23 33,-27 81,-31 135,-6l0 0z"/>
   <path class="fil9" d="M4127 906c-18,-10 -35,-17 -52,-19 -24,-126 -112,-261 -217,-321 -32,-18 -62,-28 -89,-30 -14,-153 -121,-327 -250,-402 -87,-50 -163,-44 -208,7 46,-39 117,-41 196,5 129,75 236,249 250,402 27,2 57,12 89,30 105,61 193,195 217,321 16,3 33,9 52,19 83,48 151,165 151,262 0,35 -9,62 -24,80 23,-17 36,-49 36,-92 0,-96 -68,-213 -151,-262l0 0z"/>
   <path class="fil30" d="M3238 346l63 29 -3 -69c0,-5 0,-10 0,-15 0,-62 19,-107 53,-127 34,-20 82,-13 136,18 115,67 216,229 229,369l3 35 35 3c22,2 46,10 71,25 92,53 174,176 196,293l6 29 29 5c12,2 24,7 37,14 70,41 130,144 130,225 0,30 -8,53 -23,61 -15,8 -38,5 -65,-11l-839 -484c-98,-56 -180,-199 -180,-312 0,-44 13,-78 36,-92 9,-6 21,-9 33,-9 16,0 33,4 52,13l0 0z"/>
   <polygon class="fil29" points="3657,872 3679,861 3657,844 "/>
   <polygon class="fil29" points="3590,573 3612,562 3612,573 "/>
   <polygon class="fil29" points="3720,802 3742,791 3699,750 "/>
   <path class="fil29" d="M3672 860l-105 -62c-5,-3 -10,-11 -10,-18l0 -121 124 73 0 121c0,7 -4,9 -10,6l0 0z"/>
   <path class="fil29" d="M3611 562l-113 73c-5,3 -1,15 6,19l116 68 116 68c7,4 11,-3 6,-11l-112 -206c-5,-9 -14,-14 -18,-11l0 0z"/>
   <path class="fil31" d="M3650 871l-105 -62c-5,-3 -10,-11 -10,-18l0 -121 124 73 0 121c0,7 -4,9 -10,6l0 0z"/>
   <path class="fil31" d="M3589 573l-113 73c-5,3 -1,15 6,19l116 68 116 68c7,4 11,-3 6,-11l-112 -206c-5,-9 -14,-14 -18,-11l0 0z"/>
   <path class="fil31" d="M3449 1004c0,7 -5,10 -11,6 -6,-3 -11,-12 -11,-19 0,-7 5,-10 11,-6 6,3 11,12 11,19z"/>
   <path class="fil31" d="M3836 1224c0,7 -5,10 -11,6 -6,-3 -11,-12 -11,-19 0,-7 5,-10 11,-6 6,3 11,12 11,19z"/>
   <path class="fil2" d="M3144 2721l-490 -280c-18,-10 -16,-28 5,-40l282 -163c21,-12 52,-13 70,-3l490 280c18,10 16,28 -5,40l-282 163c-21,12 -52,13 -70,3l0 0z"/>
   <path class="fil32" d="M3545 2421l0 0 0 -1145 -455 -119 -84 -48c-19,-11 -53,-10 -75,3l-78 45 -243 0 72 1105c-1,7 4,15 13,20l454 343c19,11 53,10 75,-3l303 -175c13,-7 19,-17 18,-26l0 0z"/>
   <path class="fil32" d="M2971 1102c-14,0 -29,4 -40,11l-78 45 -243 0 0 1148c-1,7 4,15 13,20l526 300c9,5 22,8 35,7l5 -1155 -218 -376 0 0z"/>
   <path class="fil29" d="M3154 2627c17,7 41,7 60,-1l0 -1163 -60 0 0 1163 0 0z"/>
   <path class="fil32" d="M3149 1477l-526 -300c-19,-11 -17,-31 5,-43l303 -175c22,-13 56,-14 75,-3l526 300c19,11 17,31 -5,43l-303 175c-22,13 -56,14 -75,3l0 0z"/>
   <path class="fil33" d="M3527 1278l-303 175c-22,13 -56,14 -75,3l-526 -300c-4,-3 -7,-5 -10,-8 -7,11 -4,22 10,30l526 300c19,11 53,10 75,-3l303 -175c17,-10 23,-24 15,-35 -3,5 -8,10 -15,14l0 0z"/>
   <path class="fil31" d="M3164 1356l-350 -203c-9,-5 -8,-14 3,-20l142 -82c10,-6 26,-7 35,-1l350 203c9,5 8,14 -3,20l-142 82c-10,6 -26,7 -35,1z"/>
   <path class="fil3" d="M2975 1162l-20 -12c-1,-1 -1,-2 0,-3l20 -11c1,-1 4,-1 5,0l20 12c1,1 1,2 0,3l-20 11c-1,1 -4,1 -5,0z"/>
   <path class="fil3" d="M3042 1201l-20 -12c-1,-1 -1,-2 0,-3l20 -11c1,-1 4,-1 5,0l20 12c1,1 1,2 0,3l-20 11c-1,1 -4,1 -5,0l0 0z"/>
   <path class="fil3" d="M3110 1240l-20 -12c-1,-1 -1,-2 0,-3l20 -11c1,-1 4,-1 5,0l20 12c1,1 1,2 0,3l-20 11c-1,1 -4,1 -5,0z"/>
   <path class="fil3" d="M3178 1279l-20 -12c-1,-1 -1,-2 0,-3l20 -11c1,-1 4,-1 5,0l20 12c1,1 1,2 0,3l-20 11c-1,1 -4,1 -5,0l0 0z"/>
   <path class="fil29" d="M2814 1153l0 0c1,0 1,-1 2,-1l142 -82c10,-6 26,-7 35,-1l350 203c8,-6 9,-14 0,-19l-350 -203c-9,-5 -25,-5 -35,1l-142 82c-10,6 -12,15 -3,20l0 0z"/>
   <path class="fil4" d="M3283 1704l199 -114c11,-6 20,-24 20,-39l0 -71c0,-15 -9,-22 -20,-15l-199 114c-11,6 -20,24 -20,39l0 71c0,15 9,22 20,15z"/>
   <path class="fil9" d="M3492 1463c3,3 5,8 5,15l0 71c0,15 -9,32 -20,39l-199 114c-4,2 -7,3 -10,2 4,4 9,4 15,1l199 -114c11,-6 20,-24 20,-39l0 -71c0,-10 -4,-16 -10,-17z"/>
   <path class="fil14" d="M3343 1627l18 -11c2,-1 4,-5 4,-8l0 -19c0,-3 -2,-5 -4,-3l-18 11c-2,1 -4,5 -4,8l0 19c0,3 2,5 4,3z"/>
   <path class="fil9" d="M3404 1592l18 -11c2,-1 4,-5 4,-8l0 -19c0,-3 -2,-5 -4,-3l-18 11c-2,1 -4,5 -4,8l0 19c0,3 2,5 4,3z"/>
   <path class="fil4" d="M3283 2219l199 -114c11,-6 20,-24 20,-39l0 -71c0,-15 -9,-22 -20,-15l-199 114c-11,6 -20,24 -20,39l0 71c0,15 9,22 20,15l0 0z"/>
   <path class="fil9" d="M3492 1977c3,3 5,8 5,15l0 71c0,15 -9,32 -20,39l-199 114c-4,2 -7,3 -10,2 4,4 9,4 15,0l199 -114c11,-6 20,-24 20,-39l0 -71c0,-10 -4,-16 -10,-17z"/>
   <path class="fil14" d="M3343 2141l18 -11c2,-1 4,-5 4,-8l0 -19c0,-3 -2,-5 -4,-3l-18 11c-2,1 -4,5 -4,8l0 19c0,3 2,5 4,3l0 0z"/>
   <path class="fil14" d="M3404 2106l18 -11c2,-1 4,-5 4,-8l0 -19c0,-3 -2,-5 -4,-3l-18 11c-2,1 -4,5 -4,8l0 19c0,3 2,5 4,3z"/>
   <path class="fil4" d="M3283 2476l199 -114c11,-6 20,-24 20,-39l0 -71c0,-15 -9,-22 -20,-15l-199 114c-11,6 -20,24 -20,39l0 71c0,15 9,22 20,15z"/>
   <path class="fil9" d="M3492 2235c3,3 5,8 5,15l0 71c0,15 -9,32 -20,39l-199 114c-4,2 -7,3 -10,2 4,4 9,4 15,1l199 -114c11,-6 20,-24 20,-39l0 -71c0,-10 -4,-16 -10,-17l0 0z"/>
   <path class="fil14" d="M3343 2399l18 -11c2,-1 4,-5 4,-8l0 -19c0,-3 -2,-5 -4,-3l-18 11c-2,1 -4,5 -4,8l0 19c0,3 2,5 4,3z"/>
   <path class="fil14" d="M3404 2363l18 -11c2,-1 4,-5 4,-8l0 -19c0,-3 -2,-5 -4,-3l-18 11c-2,1 -4,5 -4,8l0 19c0,3 2,5 4,3l0 0z"/>
   <path class="fil4" d="M3283 1962l199 -114c11,-6 20,-24 20,-39l0 -71c0,-15 -9,-22 -20,-15l-199 114c-11,6 -20,24 -20,39l0 71c0,15 9,22 20,15z"/>
   <path class="fil9" d="M3492 1720c3,3 5,8 5,15l0 71c0,15 -9,32 -20,39l-199 114c-4,2 -7,3 -10,2 4,4 9,4 15,1l199 -114c11,-6 20,-24 20,-39l0 -71c0,-10 -4,-16 -10,-17z"/>
   <path class="fil14" d="M3343 1884l18 -11c2,-1 4,-5 4,-8l0 -20c0,-3 -2,-5 -4,-3l-18 11c-2,1 -4,5 -4,8l0 19c0,3 2,5 4,3z"/>
   <path class="fil14" d="M3404 1849l18 -11c2,-1 4,-5 4,-8l0 -19c0,-3 -2,-5 -4,-3l-18 11c-2,1 -4,5 -4,8l0 19c0,3 2,5 4,3z"/>
   <path class="fil34" d="M3111 1631l-459 -265c-10,-6 -19,-22 -19,-36l0 -88c0,-14 8,-20 19,-14l459 265c10,6 19,22 19,36l0 88c0,14 -8,20 -19,14z"/>
   <path class="fil31" d="M3097 1601l-433 -250c-5,-3 -9,-11 -9,-18l0 -66c0,-7 4,-10 9,-7l433 250c5,3 9,11 9,18l0 66c0,7 -4,10 -9,7z"/>
   <path class="fil35" d="M2755 1370l-65 -37c-5,-3 -9,-11 -9,-18l0 0c0,-7 4,-10 9,-7l65 37c5,3 9,11 9,18l0 0c0,7 -4,10 -9,7l0 0z"/>
   <path class="fil32" d="M3079 1564l-22 -13c-3,-2 -6,-7 -6,-11l0 -23c0,-4 3,-6 6,-4l22 13c3,2 6,7 6,11l0 23c0,4 -3,6 -6,4z"/>
   <path class="fil29" d="M3111 1786l-459 -265c-10,-6 -19,-22 -19,-36l0 -88c0,-14 8,-20 19,-14l459 265c10,6 19,22 19,36l0 88c0,14 -8,20 -19,14z"/>
   <path class="fil31" d="M3097 1755l-433 -250c-5,-3 -9,-11 -9,-18l0 -66c0,-7 4,-10 9,-7l433 250c5,3 9,11 9,18l0 66c0,7 -4,10 -9,7z"/>
   <path class="fil35" d="M2755 1524l-65 -37c-5,-3 -9,-11 -9,-18l0 0c0,-7 4,-10 9,-7l65 37c5,3 9,11 9,18l0 0c0,7 -4,10 -9,7l0 0z"/>
   <path class="fil32" d="M3079 1718l-22 -13c-3,-2 -6,-7 -6,-11l0 -23c0,-4 3,-6 6,-4l22 13c3,2 6,7 6,11l0 23c0,4 -3,6 -6,4z"/>
   <path class="fil29" d="M3111 1940l-459 -265c-10,-6 -19,-22 -19,-36l0 -88c0,-14 8,-20 19,-14l459 265c10,6 19,22 19,36l0 88c0,14 -8,20 -19,14z"/>
   <path class="fil31" d="M3097 1910l-433 -250c-5,-3 -9,-11 -9,-18l0 -66c0,-7 4,-10 9,-7l433 250c5,3 9,11 9,18l0 66c0,7 -4,10 -9,7z"/>
   <path class="fil35" d="M2755 1678l-65 -37c-5,-3 -9,-11 -9,-18l0 0c0,-7 4,-10 9,-7l65 37c5,3 9,11 9,18l0 0c0,7 -4,10 -9,7z"/>
   <path class="fil32" d="M3079 1873l-22 -13c-3,-2 -6,-7 -6,-11l0 -23c0,-4 3,-6 6,-4l22 13c3,2 6,7 6,11l0 23c0,4 -3,6 -6,4z"/>
   <path class="fil29" d="M3111 2095l-459 -265c-10,-6 -19,-22 -19,-36l0 -88c0,-14 8,-20 19,-14l459 265c10,6 19,22 19,36l0 88c0,14 -8,20 -19,14l0 0z"/>
   <path class="fil31" d="M3097 2064l-433 -250c-5,-3 -9,-11 -9,-18l0 -66c0,-7 4,-10 9,-7l433 250c5,3 9,11 9,18l0 66c0,7 -4,10 -9,7z"/>
   <path class="fil35" d="M2755 1833l-65 -37c-5,-3 -9,-11 -9,-18l0 0c0,-7 4,-10 9,-7l65 37c5,3 9,11 9,18l0 0c0,7 -4,10 -9,7z"/>
   <path class="fil32" d="M3079 2027l-22 -13c-3,-2 -6,-7 -6,-11l0 -23c0,-4 3,-6 6,-4l22 13c3,2 6,7 6,11l0 23c0,4 -3,6 -6,4z"/>
   <path class="fil29" d="M3111 2249l-459 -265c-10,-6 -19,-22 -19,-36l0 -88c0,-14 8,-20 19,-14l459 265c10,6 19,22 19,36l0 88c0,14 -8,20 -19,14l0 0z"/>
   <path class="fil31" d="M3097 2218l-433 -250c-5,-3 -9,-11 -9,-18l0 -66c0,-7 4,-10 9,-7l433 250c5,3 9,11 9,18l0 66c0,7 -4,10 -9,7z"/>
   <path class="fil35" d="M2755 1987l-65 -37c-5,-3 -9,-11 -9,-18l0 0c0,-7 4,-10 9,-7l65 37c5,3 9,11 9,18l0 0c0,7 -4,10 -9,7z"/>
   <path class="fil32" d="M3079 2182l-22 -13c-3,-2 -6,-7 -6,-11l0 -23c0,-4 3,-6 6,-4l22 13c3,2 6,7 6,11l0 23c0,4 -3,6 -6,4z"/>
   <path class="fil29" d="M3111 2404l-459 -265c-10,-6 -19,-22 -19,-36l0 -88c0,-14 8,-20 19,-14l459 265c10,6 19,22 19,36l0 88c0,14 -8,20 -19,14z"/>
   <path class="fil31" d="M3097 2373l-433 -250c-5,-3 -9,-11 -9,-18l0 -66c0,-7 4,-10 9,-7l433 250c5,3 9,11 9,18l0 66c0,7 -4,10 -9,7z"/>
   <path class="fil35" d="M2755 2142l-65 -37c-5,-3 -9,-11 -9,-17l0 0c0,-7 4,-10 9,-7l65 37c5,3 9,11 9,18l0 0c0,7 -4,10 -9,7z"/>
   <path class="fil32" d="M3079 2336l-22 -13c-3,-2 -6,-7 -6,-11l0 -23c0,-4 3,-6 6,-4l22 13c3,2 6,7 6,11l0 23c0,4 -3,6 -6,4z"/>
   <path class="fil29" d="M3111 2558l-459 -265c-10,-6 -19,-22 -19,-36l0 -88c0,-14 8,-20 19,-14l459 265c10,6 19,22 19,36l0 88c0,14 -8,20 -19,14z"/>
   <path class="fil31" d="M3097 2527l-433 -250c-5,-3 -9,-11 -9,-18l0 -66c0,-7 4,-10 9,-7l433 250c5,3 9,11 9,18l0 66c0,7 -4,10 -9,7z"/>
   <path class="fil35" d="M2755 2296l-65 -37c-5,-3 -9,-11 -9,-17l0 0c0,-7 4,-10 9,-7l65 37c5,3 9,11 9,18l0 0c0,7 -4,10 -9,7z"/>
   <path class="fil32" d="M3052 2458c0,13 -9,18 -20,12 -11,-6 -20,-22 -20,-35 0,-13 9,-18 20,-12 11,6 20,22 20,35l0 0z"/>
   <path class="fil2" d="M3796 3095l-490 -280c-18,-10 -16,-28 5,-40l282 -163c21,-12 52,-13 70,-3l490 280c18,10 16,28 -5,40l-282 163c-21,12 -52,13 -70,3z"/>
   <path class="fil32" d="M4196 2795l0 0 0 -1145 -455 -119 -84 -48c-19,-11 -53,-10 -75,3l-78 45 -243 0 72 1105c-1,7 4,15 13,20l454 343c19,11 53,10 75,-3l303 -175c13,-7 19,-17 18,-26l0 0z"/>
   <path class="fil32" d="M3623 1475c-14,0 -29,4 -40,11l-78 45 -243 0 0 1148c-1,8 4,15 13,20l526 300c9,5 22,8 35,7l5 -1155 -218 -376 0 0z"/>
   <path class="fil29" d="M3805 3001c17,7 41,7 60,-1l0 -1163 -60 0 0 1163z"/>
   <path class="fil32" d="M3800 1851l-526 -300c-19,-11 -17,-31 5,-43l303 -175c22,-13 56,-14 75,-3l526 300c19,11 17,31 -5,43l-303 175c-22,13 -56,14 -75,3l0 0z"/>
   <path class="fil33" d="M4178 1652l-303 175c-22,13 -56,14 -75,3l-526 -300c-4,-2 -7,-5 -10,-8 -7,11 -4,22 10,30l526 300c19,11 53,10 75,-3l303 -175c17,-10 23,-24 15,-35 -3,5 -8,10 -15,14z"/>
   <path class="fil31" d="M3815 1729l-350 -203c-9,-5 -8,-14 3,-20l142 -82c10,-6 26,-7 35,-1l350 203c9,5 8,14 -3,20l-142 82c-10,6 -26,7 -35,1z"/>
   <path class="fil31" d="M3626 1536l-20 -12c-1,-1 -1,-2 0,-3l20 -11c1,-1 4,-1 5,0l20 12c1,1 1,2 0,3l-20 11c-1,1 -4,1 -5,0l0 0z"/>
   <path class="fil31" d="M3694 1575l-20 -12c-1,-1 -1,-2 0,-3l20 -11c1,-1 4,-1 5,0l20 12c1,1 1,2 0,3l-20 11c-1,1 -4,1 -5,0l0 0z"/>
   <path class="fil3" d="M3762 1614l-20 -12c-1,-1 -1,-2 0,-3l20 -11c1,-1 4,-1 5,0l20 12c1,1 1,2 0,3l-20 11c-1,1 -4,1 -5,0z"/>
   <path class="fil3" d="M3830 1653l-20 -12c-1,-1 -1,-2 0,-3l20 -11c1,-1 4,-1 5,0l20 12c1,1 1,2 0,3l-20 11c-1,1 -4,1 -5,0z"/>
   <path class="fil29" d="M3465 1526l0 0c1,-1 1,-1 2,-1l142 -82c10,-6 26,-7 35,-1l350 203c8,-6 9,-14 0,-19l-350 -203c-9,-5 -25,-5 -35,1l-142 82c-10,6 -12,15 -3,20l0 0z"/>
   <path class="fil31" d="M3935 2078l199 -114c11,-6 20,-24 20,-39l0 -71c0,-15 -9,-22 -20,-15l-199 114c-11,6 -20,24 -20,39l0 71c0,15 9,22 20,15z"/>
   <path class="fil36" d="M4144 1836c3,3 5,8 5,15l0 71c0,15 -9,32 -20,39l-199 114c-4,2 -7,3 -10,2 4,4 9,4 15,0l199 -114c11,-6 20,-24 20,-39l0 -71c0,-10 -4,-16 -10,-17z"/>
   <path class="fil30" d="M3994 2000l18 -11c2,-1 4,-5 4,-8l0 -19c0,-3 -2,-5 -4,-3l-18 11c-2,1 -4,5 -4,8l0 19c0,3 2,5 4,3z"/>
   <path class="fil37" d="M4056 1965l18 -11c2,-1 4,-5 4,-8l0 -19c0,-3 -2,-5 -4,-3l-18 11c-2,1 -4,5 -4,8l0 19c0,3 2,5 4,3l0 0z"/>
   <path class="fil31" d="M3935 2592l199 -114c11,-6 20,-24 20,-39l0 -71c0,-15 -9,-22 -20,-15l-199 114c-11,6 -20,24 -20,39l0 71c0,15 9,22 20,15l0 0z"/>
   <path class="fil36" d="M4144 2351c3,3 5,8 5,15l0 71c0,15 -9,32 -20,39l-199 114c-4,2 -7,3 -10,2 4,4 9,4 15,1l199 -114c11,-6 20,-24 20,-39l0 -71c0,-10 -4,-16 -10,-17l0 0z"/>
   <path class="fil30" d="M3994 2515l18 -11c2,-1 4,-5 4,-8l0 -19c0,-3 -2,-5 -4,-3l-18 11c-2,1 -4,5 -4,8l0 19c0,3 2,5 4,3l0 0z"/>
   <path class="fil37" d="M4056 2480l18 -11c2,-1 4,-5 4,-8l0 -19c0,-3 -2,-5 -4,-3l-18 11c-2,1 -4,5 -4,8l0 19c0,3 2,5 4,3l0 0z"/>
   <path class="fil31" d="M3935 2850l199 -114c11,-6 20,-24 20,-39l0 -71c0,-15 -9,-22 -20,-15l-199 114c-11,6 -20,24 -20,39l0 71c0,15 9,22 20,15l0 0z"/>
   <path class="fil36" d="M4144 2608c3,3 5,8 5,15l0 71c0,15 -9,32 -20,39l-199 114c-4,2 -7,3 -10,2 4,4 9,4 15,1l199 -114c11,-6 20,-24 20,-39l0 -71c0,-10 -4,-16 -10,-17l0 0z"/>
   <path class="fil30" d="M3994 2772l18 -11c2,-1 4,-5 4,-8l0 -19c0,-3 -2,-5 -4,-3l-18 11c-2,1 -4,5 -4,8l0 19c0,3 2,5 4,3z"/>
   <path class="fil37" d="M4056 2737l18 -11c2,-1 4,-5 4,-8l0 -19c0,-3 -2,-5 -4,-3l-18 11c-2,1 -4,5 -4,8l0 19c0,3 2,5 4,3z"/>
   <path class="fil31" d="M3935 2335l199 -114c11,-6 20,-24 20,-39l0 -71c0,-15 -9,-22 -20,-15l-199 114c-11,6 -20,24 -20,39l0 71c0,15 9,22 20,15l0 0z"/>
   <path class="fil36" d="M4144 2094c3,3 5,8 5,15l0 71c0,15 -9,32 -20,39l-199 114c-4,2 -7,3 -10,2 4,4 9,4 15,1l199 -114c11,-6 20,-24 20,-39l0 -71c0,-10 -4,-16 -10,-17l0 0z"/>
   <path class="fil30" d="M3994 2258l18 -11c2,-1 4,-5 4,-8l0 -19c0,-3 -2,-5 -4,-3l-18 11c-2,1 -4,5 -4,8l0 19c0,3 2,5 4,3z"/>
   <path class="fil37" d="M4056 2222l18 -11c2,-1 4,-5 4,-8l0 -19c0,-3 -2,-5 -4,-3l-18 11c-2,1 -4,5 -4,8l0 19c0,3 2,5 4,3z"/>
   <path class="fil29" d="M3762 2005l-459 -265c-10,-6 -19,-22 -19,-36l0 -88c0,-14 8,-20 19,-14l459 265c10,6 19,22 19,36l0 88c0,14 -8,20 -19,14l0 0z"/>
   <path class="fil31" d="M3749 1974l-433 -250c-5,-3 -9,-11 -9,-18l0 -66c0,-7 4,-10 9,-7l433 250c5,3 9,11 9,18l0 66c0,7 -4,10 -9,7z"/>
   <path class="fil14" d="M3406 1743l-65 -37c-5,-3 -9,-11 -9,-18l0 0c0,-7 4,-10 9,-7l65 37c5,3 9,11 9,18l0 0c0,7 -4,10 -9,7l0 0z"/>
   <path class="fil4" d="M3461 1763c0,7 -5,9 -11,6 -6,-3 -11,-12 -11,-18 0,-7 5,-10 11,-6 6,3 11,12 11,18z"/>
   <path class="fil4" d="M3499 1784c0,7 -5,9 -11,6 -6,-3 -11,-12 -11,-18 0,-7 5,-10 11,-6 6,3 11,12 11,18z"/>
   <path class="fil31" d="M3536 1806c0,7 -5,10 -11,6 -6,-3 -11,-12 -11,-18 0,-7 5,-10 11,-6 6,3 11,12 11,18z"/>
   <path class="fil4" d="M3573 1827c0,7 -5,10 -11,6 -6,-3 -11,-12 -11,-18 0,-7 5,-10 11,-6 6,3 11,12 11,18z"/>
   <path class="fil4" d="M3731 1937l-22 -13c-3,-2 -6,-7 -6,-11l0 -23c0,-4 3,-6 6,-4l22 13c3,2 6,7 6,11l0 23c0,4 -3,6 -6,4z"/>
   <path class="fil29" d="M3762 2159l-459 -265c-10,-6 -19,-22 -19,-36l0 -88c0,-14 8,-20 19,-14l459 265c10,6 19,22 19,36l0 88c0,14 -8,20 -19,14z"/>
   <path class="fil31" d="M3749 2129l-433 -250c-5,-3 -9,-11 -9,-18l0 -66c0,-7 4,-10 9,-7l433 250c5,3 9,11 9,18l0 66c0,7 -4,10 -9,7z"/>
   <path class="fil14" d="M3406 1897l-65 -37c-5,-3 -9,-11 -9,-18l0 0c0,-7 4,-10 9,-7l65 37c5,3 9,11 9,18l0 0c0,7 -4,10 -9,7z"/>
   <path class="fil9" d="M3461 1917c0,7 -5,9 -11,6 -6,-3 -11,-12 -11,-18 0,-7 5,-10 11,-6 6,3 11,12 11,18z"/>
   <path class="fil4" d="M3499 1939c0,7 -5,9 -11,6 -6,-3 -11,-12 -11,-18 0,-7 5,-10 11,-6 6,3 11,12 11,18z"/>
   <path class="fil31" d="M3536 1960c0,7 -5,10 -11,6 -6,-3 -11,-12 -11,-18 0,-7 5,-10 11,-6 6,3 11,12 11,18z"/>
   <path class="fil4" d="M3573 1982c0,7 -5,9 -11,6 -6,-3 -11,-12 -11,-18 0,-7 5,-9 11,-6 6,3 11,12 11,18z"/>
   <path class="fil4" d="M3731 2092l-22 -13c-3,-2 -6,-7 -6,-11l0 -23c0,-4 3,-6 6,-4l22 13c3,2 6,7 6,11l0 23c0,4 -3,6 -6,4z"/>
   <path class="fil29" d="M3762 2314l-459 -265c-10,-6 -19,-22 -19,-36l0 -88c0,-14 8,-20 19,-14l459 265c10,6 19,22 19,36l0 88c0,14 -8,20 -19,14z"/>
   <path class="fil31" d="M3749 2283l-433 -250c-5,-3 -9,-11 -9,-18l0 -66c0,-7 4,-10 9,-7l433 250c5,3 9,11 9,18l0 66c0,7 -4,10 -9,7z"/>
   <path class="fil14" d="M3406 2052l-65 -37c-5,-3 -9,-11 -9,-18l0 0c0,-7 4,-10 9,-7l65 37c5,3 9,11 9,18l0 0c0,7 -4,10 -9,7z"/>
   <path class="fil9" d="M3461 2071c0,7 -5,9 -11,6 -6,-3 -11,-12 -11,-18 0,-7 5,-10 11,-6 6,3 11,12 11,18z"/>
   <path class="fil4" d="M3499 2093c0,7 -5,10 -11,6 -6,-3 -11,-12 -11,-18 0,-7 5,-10 11,-6 6,3 11,12 11,18z"/>
   <path class="fil31" d="M3536 2115c0,7 -5,9 -11,6 -6,-3 -11,-12 -11,-18 0,-7 5,-9 11,-6 6,3 11,12 11,18z"/>
   <path class="fil4" d="M3573 2136c0,7 -5,9 -11,6 -6,-3 -11,-12 -11,-18 0,-7 5,-9 11,-6 6,3 11,12 11,18z"/>
   <path class="fil4" d="M3731 2246l-22 -13c-3,-2 -6,-7 -6,-11l0 -23c0,-4 3,-6 6,-4l22 13c3,2 6,7 6,11l0 23c0,4 -3,6 -6,4z"/>
   <path class="fil29" d="M3762 2468l-459 -265c-10,-6 -19,-22 -19,-36l0 -88c0,-14 8,-20 19,-14l459 265c10,6 19,22 19,36l0 88c0,14 -8,20 -19,14z"/>
   <path class="fil31" d="M3749 2437l-433 -250c-5,-3 -9,-11 -9,-18l0 -66c0,-7 4,-10 9,-7l433 250c5,3 9,11 9,18l0 66c0,7 -4,10 -9,7z"/>
   <path class="fil14" d="M3406 2206l-65 -37c-5,-3 -9,-11 -9,-17l0 0c0,-7 4,-10 9,-7l65 37c5,3 9,11 9,18l0 0c0,7 -4,10 -9,7z"/>
   <path class="fil4" d="M3461 2226c0,7 -5,9 -11,6 -6,-3 -11,-12 -11,-18 0,-7 5,-10 11,-6 6,3 11,12 11,18z"/>
   <path class="fil4" d="M3499 2247c0,7 -5,10 -11,6 -6,-3 -11,-12 -11,-18 0,-7 5,-10 11,-6 6,3 11,12 11,18z"/>
   <path class="fil31" d="M3536 2269c0,7 -5,9 -11,6 -6,-3 -11,-12 -11,-18 0,-7 5,-9 11,-6 6,3 11,12 11,18z"/>
   <path class="fil4" d="M3573 2291c0,7 -5,9 -11,6 -6,-3 -11,-12 -11,-18 0,-7 5,-9 11,-6 6,3 11,12 11,18z"/>
   <path class="fil31" d="M3731 2401l-22 -13c-3,-2 -6,-7 -6,-11l0 -23c0,-4 3,-6 6,-4l22 13c3,2 6,7 6,11l0 23c0,4 -3,6 -6,4z"/>
   <path class="fil29" d="M3762 2623l-459 -265c-10,-6 -19,-22 -19,-36l0 -88c0,-14 8,-20 19,-14l459 265c10,6 19,22 19,36l0 88c0,14 -8,20 -19,14z"/>
   <path class="fil31" d="M3749 2592l-433 -250c-5,-3 -9,-11 -9,-18l0 -66c0,-7 4,-10 9,-7l433 250c5,3 9,11 9,18l0 66c0,7 -4,10 -9,7z"/>
   <path class="fil14" d="M3406 2361l-65 -37c-5,-3 -9,-11 -9,-17l0 0c0,-7 4,-10 9,-7l65 37c5,3 9,11 9,18l0 0c0,7 -4,10 -9,7l0 0z"/>
   <path class="fil4" d="M3461 2380c0,7 -5,10 -11,6 -6,-3 -11,-12 -11,-18 0,-7 5,-10 11,-6 6,3 11,12 11,18z"/>
   <path class="fil9" d="M3499 2402c0,7 -5,9 -11,6 -6,-3 -11,-12 -11,-18 0,-7 5,-9 11,-6 6,3 11,12 11,18z"/>
   <path class="fil31" d="M3536 2424c0,7 -5,9 -11,6 -6,-3 -11,-12 -11,-18 0,-7 5,-9 11,-6 6,3 11,12 11,18z"/>
   <path class="fil9" d="M3573 2445c0,7 -5,9 -11,6 -6,-3 -11,-12 -11,-18 0,-7 5,-10 11,-6 6,3 11,12 11,18z"/>
   <path class="fil38" d="M3731 2555l-22 -13c-3,-2 -6,-7 -6,-11l0 -23c0,-4 3,-6 6,-4l22 13c3,2 6,7 6,11l0 23c0,4 -3,6 -6,4z"/>
   <path class="fil29" d="M3762 2777l-459 -265c-10,-6 -19,-22 -19,-36l0 -88c0,-14 8,-20 19,-14l459 265c10,6 19,22 19,36l0 88c0,14 -8,20 -19,14l0 0z"/>
   <path class="fil31" d="M3749 2746l-433 -250c-5,-3 -9,-11 -9,-18l0 -66c0,-7 4,-10 9,-7l433 250c5,3 9,11 9,18l0 66c0,7 -4,10 -9,7z"/>
   <path class="fil14" d="M3406 2515l-65 -37c-5,-3 -9,-11 -9,-18l0 0c0,-7 4,-10 9,-7l65 37c5,3 9,11 9,18l0 0c0,7 -4,10 -9,7z"/>
   <path class="fil4" d="M3461 2535c0,7 -5,10 -11,6 -6,-3 -11,-12 -11,-18 0,-7 5,-10 11,-6 6,3 11,12 11,18z"/>
   <path class="fil4" d="M3499 2556c0,7 -5,9 -11,6 -6,-3 -11,-12 -11,-18 0,-7 5,-9 11,-6 6,3 11,12 11,18z"/>
   <path class="fil31" d="M3536 2578c0,7 -5,9 -11,6 -6,-3 -11,-12 -11,-18 0,-7 5,-9 11,-6 6,3 11,12 11,18z"/>
   <path class="fil4" d="M3573 2600c0,7 -5,9 -11,6 -6,-3 -11,-12 -11,-18 0,-7 5,-10 11,-6 6,3 11,12 11,18z"/>
   <path class="fil4" d="M3731 2710l-22 -13c-3,-2 -6,-7 -6,-11l0 -23c0,-4 3,-6 6,-4l22 13c3,2 6,7 6,11l0 23c0,4 -3,6 -6,4l0 0z"/>
   <path class="fil29" d="M3762 2932l-459 -265c-10,-6 -19,-22 -19,-36l0 -88c0,-14 8,-20 19,-14l459 265c10,6 19,22 19,36l0 88c0,14 -8,20 -19,14z"/>
   <path class="fil31" d="M3749 2901l-433 -250c-5,-3 -9,-11 -9,-18l0 -66c0,-7 4,-10 9,-7l433 250c5,3 9,11 9,18l0 66c0,7 -4,10 -9,7z"/>
   <path class="fil14" d="M3406 2670l-65 -37c-5,-3 -9,-11 -9,-18l0 0c0,-7 4,-10 9,-7l65 37c5,3 9,11 9,17l0 0c0,7 -4,10 -9,7z"/>
   <path class="fil9" d="M3473 2698c0,13 -9,18 -20,12 -11,-6 -20,-22 -20,-35 0,-13 9,-18 20,-12 11,6 20,22 20,35z"/>
   <path class="fil4" d="M3550 2743c0,7 -5,9 -11,6 -6,-3 -11,-12 -11,-18 0,-7 5,-9 11,-6 6,3 11,12 11,18z"/>
   <path class="fil31" d="M3588 2764c0,7 -5,9 -11,6 -6,-3 -11,-12 -11,-18 0,-7 5,-9 11,-6 6,3 11,12 11,18z"/>
   <path class="fil4" d="M3625 2786c0,7 -5,9 -11,6 -6,-3 -11,-12 -11,-18 0,-7 5,-9 11,-6 6,3 11,12 11,18z"/>
   <path class="fil31" d="M3731 2864l-22 -13c-3,-2 -6,-7 -6,-11l0 -23c0,-4 3,-6 6,-4l22 13c3,2 6,7 6,11l0 23c0,4 -3,6 -6,4z"/>
   <path class="fil29" d="M2998 2806c-2,0 -5,-1 -6,-3 -2,-3 -1,-7 2,-9l91 -52c10,-6 17,-17 17,-29l0 -48c0,-4 3,-7 7,-7 4,0 7,3 7,7l0 48c0,17 -9,32 -23,40l-91 52c-1,1 -2,1 -3,1l0 0z"/>
   <rect class="fil29" transform="matrix(0.285451 0.497746 -0.497746 0.285451 2993.59 2769.89)" width="96" height="207"/>
   <path class="fil29" d="M3027 2805c0,-12 -9,-28 -19,-34 -11,-6 -19,-1 -20,11 0,12 9,28 19,34 11,6 19,1 19,-11l0 0z"/>
   <rect class="fil29" transform="matrix(0.285451 0.497746 -0.497746 0.285451 2900.06 2803.97)" width="156" height="325"/>
   <path class="fil30" d="M2907 2819l35 -20c14,10 26,30 27,48l-35 20c-14,-10 -26,-30 -27,-48l0 0z"/>
   <path class="fil29" d="M2954 2861c0,-20 -14,-45 -31,-55 -17,-10 -32,-2 -32,18 0,20 14,45 31,55 17,10 32,2 32,-18z"/>
   <path class="fil31" d="M2994 2792c5,-3 5,-8 0,-11 -5,-3 -13,-3 -18,0 -5,3 -5,8 0,11 5,3 13,3 18,0l0 0z"/>
   <path class="fil2" d="M2567 3905l-1140 -658c-32,-19 -28,-51 9,-73l776 -448c37,-22 94,-24 126,-5l1140 658c32,19 28,51 -9,73l-776 448c-37,22 -94,24 -126,5l0 0z"/>
   <path class="fil29" d="M2842 3873c-1,0 -2,0 -3,-1l-218 -129c-3,-2 -4,-6 -2,-9 2,-3 6,-4 9,-2l218 129c3,2 4,6 2,9 -1,2 -3,3 -6,3l0 0z"/>
   <path class="fil4" d="M3500 3256l-156 -21 -1006 -581c-32,-19 -89,-16 -126,5l-713 411 -94 -12 0 53 0 0c-1,12 6,24 22,33l1140 658c32,19 89,16 126,-5l776 -448c21,-12 31,-28 31,-42l0 0 0 -52 0 0z"/>
   <path class="fil30" d="M2744 2889l-71 -41 -786 0 -387 223 -94 -12 0 53 0 0c-1,12 6,24 22,33l1140 658c17,10 41,14 65,12l112 -927 0 0z"/>
   <path class="fil29" d="M1447 3064l-42 -6 0 53 0 0c-1,12 6,24 22,33l20 12 0 -93 0 0z"/>
   <path class="fil39" d="M2578 3809c31,12 74,9 107,-7l0 -119 -107 0 0 126z"/>
   <path class="fil31" d="M2567 3750l-1140 -658c-32,-19 -28,-51 9,-73l776 -448c37,-22 94,-24 126,-5l1140 658c32,19 28,51 -9,73l-776 448c-37,22 -94,24 -126,5l0 0z"/>
   <path class="fil9" d="M3469 3277l-776 448c-37,22 -94,24 -126,5l-1140 -658c-11,-6 -17,-14 -20,-22 -5,15 1,31 20,41l1140 658c32,19 89,16 126,-5l776 -448c25,-14 35,-34 29,-51 -4,11 -13,22 -29,31z"/>
   <path class="fil4" d="M1912 2874l-52 -30c-4,-2 -4,-7 1,-9l61 -35c5,-3 12,-3 16,-1l52 30c4,2 4,7 -1,9l-61 35c-5,3 -12,3 -16,1z"/>
   <path class="fil4" d="M1991 2920l-52 -30c-4,-2 -4,-7 1,-9l61 -35c5,-3 12,-3 16,-1l52 30c4,2 4,7 -1,9l-61 35c-5,3 -12,3 -16,1l0 0z"/>
   <path class="fil4" d="M2071 2966l-52 -30c-4,-2 -4,-7 1,-9l61 -35c5,-3 12,-3 16,-1l52 30c4,2 4,7 -1,9l-61 35c-5,3 -12,3 -16,1z"/>
   <path class="fil4" d="M2181 2928l-52 -30c-4,-2 -4,-7 1,-9l51 -29c5,-3 12,-3 16,-1l52 30c4,2 4,7 -1,9l-51 29c-5,3 -12,3 -16,1z"/>
   <path class="fil4" d="M2261 2974l-52 -30c-4,-2 -4,-7 1,-9l51 -29c5,-3 12,-3 16,-1l52 30c4,2 4,7 -1,9l-51 30c-5,3 -12,3 -16,1z"/>
   <path class="fil4" d="M2341 3020l-52 -30c-4,-2 -4,-7 1,-9l51 -29c5,-3 12,-3 16,-1l52 30c4,2 4,7 -1,9l-51 29c-5,3 -12,3 -16,1z"/>
   <path class="fil4" d="M2420 3066l-52 -30c-4,-2 -4,-7 1,-9l51 -29c5,-3 12,-3 16,-1l52 30c4,2 4,7 -1,9l-51 29c-5,3 -12,3 -16,1z"/>
   <path class="fil4" d="M2500 3112l-52 -30c-4,-2 -4,-7 1,-9l51 -29c5,-3 12,-3 16,-1l52 30c4,2 4,7 -1,9l-51 29c-5,3 -12,3 -16,1z"/>
   <path class="fil4" d="M2579 3158l-52 -30c-4,-2 -4,-7 1,-9l51 -29c5,-3 12,-3 16,-1l52 30c4,2 4,7 -1,9l-51 29c-5,3 -12,3 -16,1z"/>
   <path class="fil4" d="M2659 3204l-52 -30c-4,-2 -4,-7 1,-9l51 -29c5,-3 12,-3 16,-1l52 30c4,2 4,7 -1,9l-51 29c-5,3 -12,3 -16,1z"/>
   <path class="fil4" d="M2739 3250l-52 -30c-4,-2 -4,-7 1,-9l51 -29c5,-3 12,-3 16,-1l52 30c4,2 4,7 -1,9l-51 29c-5,3 -12,3 -16,1z"/>
   <path class="fil4" d="M2818 3296l-52 -30c-4,-2 -4,-7 1,-9l51 -29c5,-3 12,-3 16,-1l52 30c4,2 4,7 -1,9l-51 29c-5,3 -12,3 -16,1z"/>
   <path class="fil4" d="M2898 3342l-52 -30c-4,-2 -4,-7 1,-9l51 -29c5,-3 12,-3 16,-1l52 30c4,2 4,7 -1,9l-51 29c-5,3 -12,3 -16,1z"/>
   <path class="fil30" d="M2299 2906l-52 -30c-4,-2 -4,-7 1,-9l51 -29c5,-3 12,-3 16,-1l52 30c4,2 4,7 -1,9l-51 29c-5,3 -12,3 -16,1z"/>
   <path class="fil30" d="M2218 2860l-52 -30c-4,-2 -4,-7 1,-9l51 -30c5,-3 12,-3 16,-1l52 30c4,2 4,7 -1,9l-51 29c-5,3 -12,3 -16,1z"/>
   <path class="fil4" d="M2137 2813l-111 -64c-4,-2 -4,-7 1,-9l51 -29c5,-3 12,-3 16,-1l111 64c4,2 4,7 -1,9l-51 29c-5,3 -12,3 -16,1z"/>
   <path class="fil4" d="M2193 2756l-90 -52c-4,-2 -4,-7 1,-9l51 -30c5,-3 12,-3 16,-1l90 52c4,2 4,7 -1,9l-51 29c-5,3 -12,3 -16,1z"/>
   <path class="fil30" d="M2378 2952l-52 -30c-4,-2 -4,-7 1,-9l51 -29c5,-3 12,-3 16,-1l52 30c4,2 4,7 -1,9l-51 29c-5,3 -12,3 -16,1z"/>
   <path class="fil4" d="M2458 2998l-52 -30c-4,-2 -4,-7 1,-9l51 -30c5,-3 12,-3 16,-1l52 30c4,2 4,7 -1,9l-51 29c-5,3 -12,3 -16,1z"/>
   <path class="fil4" d="M2538 3044l-52 -30c-4,-2 -4,-7 1,-9l51 -29c5,-3 12,-3 16,-1l52 30c4,2 4,7 -1,9l-51 29c-5,3 -12,3 -16,1z"/>
   <path class="fil4" d="M2617 3090l-52 -30c-4,-2 -4,-7 1,-9l51 -30c5,-3 12,-3 16,-1l52 30c4,2 4,7 -1,9l-51 29c-5,3 -12,3 -16,1z"/>
   <path class="fil4" d="M2697 3136l-52 -30c-4,-2 -4,-7 1,-9l51 -29c5,-3 12,-3 16,-1l52 30c4,2 4,7 -1,9l-51 29c-5,3 -12,3 -16,1z"/>
   <path class="fil4" d="M2776 3182l-52 -30c-4,-2 -4,-7 1,-9l51 -29c5,-3 12,-3 16,-1l52 30c4,2 4,7 -1,9l-51 29c-5,3 -12,3 -16,1z"/>
   <path class="fil4" d="M2856 3228l-52 -30c-4,-2 -4,-7 1,-9l51 -29c5,-3 12,-3 16,-1l52 30c4,2 4,7 -1,9l-51 29c-5,3 -12,3 -16,1z"/>
   <path class="fil4" d="M2936 3274l-52 -30c-4,-2 -4,-7 1,-9l51 -29c5,-3 12,-3 16,-1l52 30c4,2 4,7 -1,9l-51 29c-5,3 -12,3 -16,1z"/>
   <path class="fil4" d="M3015 3320l-52 -30c-4,-2 -4,-7 1,-9l51 -29c5,-3 12,-3 16,-1l52 30c4,2 4,7 -1,9l-51 29c-5,3 -12,3 -16,1z"/>
   <path class="fil4" d="M3157 3402l-113 -65c-4,-2 -4,-7 1,-9l51 -29c5,-3 12,-3 16,-1l113 65c4,2 4,7 -1,9l-51 29c-5,3 -12,3 -16,1z"/>
   <path class="fil4" d="M3312 3312l-95 -55c-4,-2 -4,-7 1,-9l51 -29c5,-3 12,-3 16,-1l95 55c4,2 4,7 -1,9l-51 29c-5,3 -12,3 -16,1z"/>
   <path class="fil4" d="M2518 2943l-52 -30c-4,-2 -4,-7 1,-9l51 -29c5,-3 12,-3 16,-1l52 30c4,2 4,7 -1,9l-51 30c-5,3 -12,3 -16,1z"/>
   <path class="fil4" d="M2436 2896l-52 -30c-4,-2 -4,-7 1,-9l51 -30c5,-3 12,-3 16,-1l52 30c4,2 4,7 -1,9l-51 29c-5,3 -12,3 -16,1z"/>
   <path class="fil30" d="M2354 2849l-52 -30c-4,-2 -4,-7 1,-9l51 -29c5,-3 12,-3 16,-1l52 30c4,2 4,7 -1,9l-51 29c-5,3 -12,3 -16,1z"/>
   <path class="fil4" d="M2273 2802l-52 -30c-4,-2 -4,-7 1,-9l51 -29c5,-3 12,-3 16,-1l52 30c4,2 4,7 -1,9l-51 29c-5,3 -12,3 -16,1z"/>
   <path class="fil4" d="M2597 2989l-52 -30c-4,-2 -4,-7 1,-9l51 -29c5,-3 12,-3 16,-1l52 30c4,2 4,7 -1,9l-51 29c-5,3 -12,3 -16,1z"/>
   <path class="fil4" d="M2677 3035l-52 -30c-4,-2 -4,-7 1,-9l51 -29c5,-3 12,-3 16,-1l52 30c4,2 4,7 -1,9l-51 30c-5,3 -12,3 -16,1z"/>
   <path class="fil4" d="M2757 3081l-52 -30c-4,-2 -4,-7 1,-9l51 -29c5,-3 12,-3 16,-1l52 30c4,2 4,7 -1,9l-51 29c-5,3 -12,3 -16,1z"/>
   <path class="fil4" d="M2836 3127l-52 -30c-4,-2 -4,-7 1,-9l51 -29c5,-3 12,-3 16,-1l52 30c4,2 4,7 -1,9l-51 29c-5,3 -12,3 -16,1z"/>
   <path class="fil4" d="M2916 3173l-52 -30c-4,-2 -4,-7 1,-9l51 -29c5,-3 12,-3 16,-1l52 30c4,2 4,7 -1,9l-51 29c-5,3 -12,3 -16,1z"/>
   <path class="fil4" d="M2996 3219l-52 -30c-4,-2 -4,-7 1,-9l51 -29c5,-3 12,-3 16,-1l52 30c4,2 4,7 -1,9l-51 29c-5,3 -12,3 -16,1z"/>
   <path class="fil4" d="M3075 3265l-52 -30c-4,-2 -4,-7 1,-9l51 -29c5,-3 12,-3 16,-1l52 30c4,2 4,7 -1,9l-51 29c-5,3 -12,3 -16,1z"/>
   <path class="fil4" d="M3155 3311l-52 -30c-4,-2 -4,-7 1,-9l51 -29c5,-3 12,-3 16,-1l52 30c4,2 4,7 -1,9l-51 29c-5,3 -12,3 -16,1z"/>
   <path class="fil4" d="M3235 3357l-52 -30c-4,-2 -4,-7 1,-9l51 -29c5,-3 12,-3 16,-1l52 30c4,2 4,7 -1,9l-51 29c-5,3 -12,3 -16,1z"/>
   <path class="fil4" d="M2476 2829l-52 -30c-4,-2 -4,-7 1,-9l51 -29c5,-3 12,-3 16,-1l52 30c4,2 4,7 -1,9l-51 29c-5,3 -12,3 -16,1z"/>
   <path class="fil4" d="M2397 2784l-52 -30c-4,-2 -4,-7 1,-9l51 -29c5,-3 12,-3 16,-1l52 30c4,2 4,7 -1,9l-51 29c-5,3 -12,3 -16,1z"/>
   <path class="fil4" d="M2317 2738l-52 -30c-4,-2 -4,-7 1,-9l51 -30c5,-3 12,-3 16,-1l52 30c4,2 4,7 -1,9l-51 29c-5,3 -12,3 -16,1z"/>
   <path class="fil4" d="M2238 2692l-52 -30c-4,-2 -4,-7 1,-9l51 -29c5,-3 12,-3 16,-1l52 30c4,2 4,7 -1,9l-51 29c-5,3 -12,3 -16,1z"/>
   <path class="fil4" d="M2320 2645l-52 -30c-4,-2 -4,-7 1,-9l17 -10c5,-3 12,-3 16,-1l52 30c4,2 4,7 -1,9l-17 10c-5,3 -12,3 -16,1z"/>
   <path class="fil4" d="M2423 2705l-52 -30c-4,-2 -4,-7 1,-9l17 -10c5,-3 12,-3 16,-1l52 30c4,2 4,7 -1,9l-17 10c-5,3 -12,3 -16,1z"/>
   <path class="fil4" d="M2502 2750l-52 -30c-4,-2 -4,-7 1,-9l17 -10c5,-3 12,-3 16,-1l52 30c4,2 4,7 -1,9l-17 10c-5,3 -12,3 -16,1z"/>
   <path class="fil4" d="M2581 2796l-52 -30c-4,-2 -4,-7 1,-9l17 -10c5,-3 12,-3 16,-1l52 30c4,2 4,7 -1,9l-17 10c-5,3 -12,3 -16,1z"/>
   <path class="fil4" d="M2660 2842l-52 -30c-4,-2 -4,-7 1,-9l17 -10c5,-3 12,-3 16,-1l52 30c4,2 4,7 -1,9l-17 10c-5,3 -12,3 -16,1z"/>
   <path class="fil4" d="M3100 3096l-52 -30c-4,-2 -4,-7 1,-9l17 -10c5,-3 12,-3 16,-1l52 30c4,2 4,7 -1,9l-17 10c-5,3 -12,3 -16,1z"/>
   <path class="fil4" d="M3179 3142l-52 -30c-4,-2 -4,-7 1,-9l17 -10c5,-3 12,-3 16,-1l52 30c4,2 4,7 -1,9l-17 10c-5,3 -12,3 -16,1z"/>
   <path class="fil4" d="M3258 3187l-52 -30c-4,-2 -4,-7 1,-9l17 -10c5,-3 12,-3 16,-1l52 30c4,2 4,7 -1,9l-17 10c-5,3 -12,3 -16,1z"/>
   <path class="fil4" d="M3337 3233l-52 -30c-4,-2 -4,-7 1,-9l17 -10c5,-3 12,-3 16,-1l52 30c4,2 4,7 -1,9l-17 10c-5,3 -12,3 -16,1z"/>
   <path class="fil4" d="M2555 2875l-52 -30c-4,-2 -4,-7 1,-9l51 -29c5,-3 12,-3 16,-1l52 30c4,2 4,7 -1,9l-51 29c-5,3 -12,3 -16,1z"/>
   <path class="fil4" d="M2635 2921l-52 -30c-4,-2 -4,-7 1,-9l51 -29c5,-3 12,-3 16,-1l52 30c4,2 4,7 -1,9l-51 29c-5,3 -12,3 -16,1z"/>
   <path class="fil4" d="M2715 2967l-52 -30c-4,-2 -4,-7 1,-9l51 -29c5,-3 12,-3 16,-1l52 30c4,2 4,7 -1,9l-51 29c-5,3 -12,3 -16,1z"/>
   <path class="fil4" d="M2794 3013l-52 -30c-4,-2 -4,-7 1,-9l51 -29c5,-3 12,-3 16,-1l52 30c4,2 4,7 -1,9l-51 29c-5,3 -12,3 -16,1z"/>
   <path class="fil4" d="M2874 3059l-52 -30c-4,-2 -4,-7 1,-9l51 -30c5,-3 12,-3 16,-1l52 30c4,2 4,7 -1,9l-51 29c-5,3 -12,3 -16,1z"/>
   <path class="fil4" d="M2954 3105l-52 -30c-4,-2 -4,-7 1,-9l51 -29c5,-3 12,-3 16,-1l52 30c4,2 4,7 -1,9l-51 29c-5,3 -12,3 -16,1z"/>
   <path class="fil4" d="M3033 3151l-52 -30c-4,-2 -4,-7 1,-9l51 -30c5,-3 12,-3 16,-1l52 30c4,2 4,7 -1,9l-51 29c-5,3 -12,3 -16,1z"/>
   <path class="fil4" d="M3113 3197l-52 -30c-4,-2 -4,-7 1,-9l51 -29c5,-3 12,-3 16,-1l52 30c4,2 4,7 -1,9l-51 29c-5,3 -12,3 -16,1z"/>
   <path class="fil4" d="M3193 3243l-52 -30c-4,-2 -4,-7 1,-9l51 -29c5,-3 12,-3 16,-1l52 30c4,2 4,7 -1,9l-51 29c-5,3 -12,3 -16,1z"/>
   <path class="fil4" d="M2100 2881l-152 -88c-4,-2 -4,-7 1,-9l51 -29c5,-3 12,-3 16,-1l152 88c4,2 4,7 -1,9l-51 29c-5,3 -12,3 -16,1z"/>
   <path class="fil4" d="M3079 3446l-152 -88c-4,-2 -4,-7 1,-9l51 -29c5,-3 12,-3 16,-1l152 88c4,2 4,7 -1,9l-51 29c-5,3 -12,3 -16,1z"/>
   <path class="fil4" d="M2760 3364l-52 -30c-4,-2 -4,-7 1,-9l61 -35c5,-3 12,-3 16,-1l52 30c4,2 4,7 -1,9l-61 35c-5,3 -12,3 -16,1z"/>
   <path class="fil4" d="M2182 3030l-82 -48c-4,-2 -4,-7 1,-9l61 -35c5,-3 12,-3 16,-1l82 48c4,2 4,7 -1,9l-61 35c-5,3 -12,3 -16,1z"/>
   <path class="fil4" d="M2683 3319l-82 -48c-4,-2 -4,-7 1,-9l61 -35c5,-3 12,-3 16,-1l83 48c4,2 4,7 -1,9l-61 35c-5,3 -12,3 -16,1l0 0z"/>
   <path class="fil4" d="M2297 3096l-82 -48c-4,-2 -4,-7 1,-9l61 -35c5,-3 12,-3 16,-1l82 48c4,2 4,7 -1,9l-61 35c-5,3 -12,3 -16,1z"/>
   <path class="fil4" d="M2293 3004l359 207c4,3 4,7 0,9l-62 36c-4,3 -12,3 -16,0l-359 -207 78 -45 0 0z"/>
   <path class="fil4" d="M2983 3447l57 33c3,2 3,5 -1,8l-25 14c-4,2 -10,3 -13,1l-57 -33c-3,-2 -3,-5 1,-8l25 -14c4,-2 10,-3 13,-1z"/>
   <path class="fil4" d="M2902 3401l57 33c3,2 3,5 -1,8l-25 14c-4,2 -10,3 -13,1l-57 -33c-3,-2 -3,-5 1,-8l25 -14c4,-2 10,-3 13,-1z"/>
   <path class="fil4" d="M2823 3355l57 33c3,2 3,5 -1,8l-25 14c-4,2 -10,3 -13,1l-57 -33c-3,-2 -3,-5 1,-8l25 -14c4,-2 10,-3 13,-1l0 0z"/>
   <path class="fil4" d="M2946 3375l57 33c3,2 3,5 -1,8l-25 14c-4,2 -10,3 -13,1l-57 -33c-3,-2 -3,-5 1,-8l25 -14c4,-2 10,-3 13,-1l0 0z"/>
   <path class="fil29" d="M2270 3502c-9,0 -17,-2 -24,-6l-398 -230c-7,-4 -11,-10 -11,-17 0,-8 5,-16 15,-21l264 -152c16,-9 40,-10 54,-2l398 230c7,4 11,10 11,17 0,8 -5,16 -15,21l-264 152c-9,5 -20,8 -30,8l0 0zm-125 -421c-8,0 -17,2 -24,6l-264 152c-5,3 -9,7 -9,10 0,3 3,6 5,7l398 230 0 0c10,6 29,5 42,-2l264 -152c5,-3 9,-7 9,-10 0,-3 -3,-6 -5,-7l-398 -230c-5,-3 -11,-4 -18,-4l0 0z"/>
   <path class="fil9" d="M2178 3252l39 -22c4,-2 10,-2 14,1l0 0c4,2 5,6 1,8l-39 22c-4,2 -10,2 -14,-1l0 0c-4,-2 -5,-6 -1,-8z"/>
   <path class="fil9" d="M2096 3298l58 -32c4,-2 10,-2 14,1l0 0c4,2 5,6 1,8l-58 32c-4,2 -10,2 -14,-1l0 0c-4,-2 -5,-6 -1,-8z"/>
   <path class="fil9" d="M2308 3324l74 -42c4,-2 10,-2 14,1l0 0c4,2 5,6 1,8l-74 42c-4,2 -10,2 -14,-1l0 0c-4,-2 -5,-6 -1,-8l0 0z"/>
   <path class="fil9" d="M2294 3259l24 -14c4,-2 10,-2 14,1l0 0c4,2 5,6 1,8l-24 14c-4,2 -10,2 -14,-1l0 0c-4,-2 -5,-6 -1,-8l0 0z"/>
   <path class="fil9" d="M2239 3218l16 -9c4,-2 10,-2 14,1l0 0c4,2 5,6 1,8l-16 9c-4,2 -10,2 -14,-1l0 0c-4,-2 -5,-6 -1,-8l0 0z"/>
   <path class="fil9" d="M2172 3184l19 -11c4,-2 10,-2 14,1l0 0c4,2 5,6 1,8l-19 11c-4,2 -10,2 -14,-1l0 0c-4,-2 -5,-6 -1,-8z"/>
   <path class="fil9" d="M2096 3226l51 -29c4,-2 10,-2 14,1l0 0c4,2 5,6 1,8l-51 29c-4,2 -10,2 -14,-1l0 0c-4,-2 -5,-6 -1,-8z"/>
   <path class="fil9" d="M2123 3175l37 -21c4,-2 10,-2 14,1l0 0c4,2 5,6 1,8l-37 21c-4,2 -10,2 -14,-1l0 0c-4,-2 -5,-6 -1,-8z"/>
   <path class="fil9" d="M2203 3310l65 -36c4,-2 10,-2 14,1l0 0c4,2 5,6 1,8l-65 36c-4,2 -10,2 -14,-1l0 0c-4,-2 -5,-6 -1,-8l0 0z"/>
   <path class="fil9" d="M2237 3327l113 -64c4,-2 10,-2 14,1l0 0c4,2 5,6 1,8l-113 64c-4,2 -10,2 -14,-1l0 0c-4,-2 -5,-6 -1,-8l0 0z"/>
   <path class="fil9" d="M2222 3264l65 -36c4,-2 10,-2 14,1l0 0c4,2 5,6 1,8l-65 36c-4,2 -10,2 -14,-1l0 0c-4,-2 -5,-6 -1,-8l0 0z"/>
   <path class="fil9" d="M2154 3338l24 -13c4,-2 10,-2 14,1l0 0c4,2 5,6 1,8l-24 13c-4,2 -10,2 -14,-1l0 0c-4,-2 -5,-6 -1,-8z"/>
   <path class="fil9" d="M2145 3235l78 -44c4,-2 10,-2 14,1l0 0c4,2 5,6 1,8l-78 44c-4,2 -10,2 -14,-1l0 0c-4,-2 -5,-6 -1,-8z"/>
   <path class="fil29" d="M3307 2777c-9,0 -17,-2 -25,-7l-351 -203c-11,-6 -18,-18 -18,-30 0,-13 6,-24 17,-31l97 -59c3,-2 7,-1 9,2 2,3 1,7 -2,9l-97 59c-7,4 -11,11 -11,19 0,8 4,15 11,19l351 203c12,7 26,7 38,-1l121 -74c3,-2 7,-1 9,2 2,3 1,7 -2,9l-121 74c-8,5 -17,7 -26,7l0 0z"/>
   <polygon class="fil2" points="2405,2378 2265,2297 2125,2378 2265,2458 "/>
   <polygon class="fil23" points="2306,2270 2306,1767 2425,1698 2425,2202 "/>
   <polygon class="fil24" points="2306,1767 2187,1698 2187,2202 2306,2270 "/>
   <polygon class="fil25" points="2425,1698 2306,1630 2187,1698 2306,1767 "/>
   <polygon class="fil19" points="2425,2293 2306,2225 2306,2270 2425,2339 "/>
   <polygon class="fil20" points="2187,2339 2187,1973 2306,1904 2306,2270 "/>
   <polygon class="fil21" points="2187,1973 2068,1904 2068,2270 2187,2339 "/>
   <polygon class="fil22" points="2306,1904 2187,1835 2068,1904 2187,1973 "/>
   <polygon class="fil16" points="2187,2339 2187,1973 2306,1904 2306,2270 "/>
   <polygon class="fil40" points="2187,1973 2068,1904 2068,2270 2187,2339 "/>
   <polygon class="fil18" points="2306,1904 2187,1835 2068,1904 2187,1973 "/>
   <polygon class="fil26" points="2306,2408 2306,2202 2425,2133 2425,2339 "/>
   <polygon class="fil27" points="2306,2202 2187,2133 2187,2339 2306,2408 "/>
   <polygon class="fil28" points="2425,2133 2306,2064 2187,2133 2306,2202 "/>
   <path class="fil4" d="M3525 1942c0,0 -24,-12 -39,6 -15,18 -36,61 -37,90 -1,29 23,27 37,20 14,-7 55,-66 58,-78 3,-12 -3,-27 -7,-31 -4,-3 -12,-8 -12,-8l0 0z"/>
   <path class="fil31" d="M3530 1936l1 25c0,5 -2,10 -7,13 -4,2 -10,4 -19,3 -18,-3 -20,-8 -21,-33 -1,-25 46,-8 46,-8l0 0z"/>
   <path class="fil4" d="M3436 1893c0,0 -24,-12 -39,6 -15,18 -36,61 -37,90 -1,29 23,27 37,20 14,-7 55,-66 58,-78 2,-12 -3,-27 -7,-31 -4,-3 -12,-8 -12,-8l0 0z"/>
   <path class="fil31" d="M3441 1888l1 25c0,5 -2,10 -7,13 -4,2 -10,4 -19,3 -18,-3 -20,-8 -21,-33 -1,-25 46,-8 46,-8l0 0z"/>
   <path class="fil0" d="M3658 1426c-7,-117 -127,17 -127,17l-82 80 -74 81c-14,16 -21,37 -18,58l30 227c1,11 11,19 22,19 3,0 7,0 11,-1 27,-4 25,-29 25,-29l-5 -212 155 -93c0,0 71,-30 63,-147l0 0z"/>
   <path class="fil0" d="M3747 1470c-7,-117 -127,17 -127,17l-82 80 -74 81c-14,16 -21,37 -18,58l30 227c1,11 11,19 22,19 3,0 7,0 11,-1 27,-4 25,-29 25,-29l-5 -212 155 -93c0,0 71,-30 63,-147l0 0z"/>
   <path class="fil41" d="M3676 1095c91,38 89,91 89,91 0,0 -18,196 -12,327 3,55 -291,59 -247,-87 52,-172 32,-312 56,-333 24,-21 90,-8 114,2l0 0z"/>
   <ellipse class="fil6" transform="matrix(0.555641 0.143098 -0.143098 0.555641 3660.12 1130.99)" rx="81" ry="60"/>
   <path class="fil9" d="M3667 1171c-5,0 -11,-1 -17,-2 -13,-3 -24,-10 -32,-19 -8,-10 -11,-21 -8,-31 3,-10 10,-18 22,-23 11,-4 24,-5 37,-2 13,3 24,10 32,19 8,10 11,21 8,31l0 0c-3,10 -10,18 -22,23 -6,3 -13,4 -21,4l0 0zm-14 -71c-6,0 -12,1 -17,3 -9,4 -15,10 -17,17 -2,8 0,16 6,23 6,8 16,14 27,17 11,3 23,2 32,-1 9,-4 15,-10 17,-17l0 0c2,-7 0,-16 -6,-23 -6,-8 -16,-14 -27,-17 -5,-1 -10,-2 -14,-2l0 0z"/>
   <path class="fil6" d="M3640 1091c0,0 1,4 -1,32 -1,9 31,17 39,9 8,-8 5,-17 7,-47 2,-31 -45,6 -45,6l0 0z"/>
   <path class="fil10" d="M3685 1085c0,0 -8,28 -46,39l1 -26 46 -14z"/>
   <circle class="fil6" cx="3642" cy="1031" r="70"/>
   <path class="fil10" d="M3658 1033c0,0 -38,16 -65,17 -27,0 -21,-22 -21,-22l79 -11 7 17 0 0z"/>
   <path class="fil3" d="M3585 1037c0,0 33,-14 63,-8 7,1 13,5 18,11 1,2 3,3 5,4 5,1 14,-20 24,-21 10,-1 17,7 9,20 -8,13 -5,28 -2,30 4,2 44,-29 9,-100 -36,-71 -126,-33 -140,-18 0,0 -15,13 -27,1 0,0 -14,101 42,81l0 0z"/>
   <path class="fil6" d="M3714 1330l0 53c0,6 -3,12 -7,16l-109 99 12 19 144 -94c7,-5 11,-12 12,-21l10 -103 -62 30 0 0z"/>
   <path class="fil41" d="M3757 1160c0,0 33,50 45,180 0,0 -56,18 -88,8 -32,-10 43,-188 43,-188l0 0z"/>
   <path class="fil42" d="M3708 1223c0,0 -13,69 -14,102 0,9 5,17 14,20l0 0 0 -122 0 0z"/>
   <path class="fil4" d="M3680 1567l-24 -3 -155 -90c-5,-3 -14,-3 -19,1l-110 64 -15 -2 0 14 0 0c0,2 1,4 3,5l176 102c5,3 14,3 19,-1l120 -69c3,-2 5,-4 5,-7l0 0 0 -14 0 0 0 0z"/>
   <path class="fil30" d="M3563 1510l-11 -6 -121 0 -60 35 -15 -2 0 14 0 0c0,2 1,4 3,5l176 102c3,2 6,2 10,2l17 -149 0 0z"/>
   <path class="fil29" d="M3363 1537l-6 -1 0 14 0 0c0,2 1,4 3,5l3 2 0 -21 0 0z"/>
   <path class="fil39" d="M3538 1658c5,2 11,1 16,-1l0 -25 -16 0 0 26 0 0z"/>
   <path class="fil9" d="M3536 1643l-176 -102c-5,-3 -4,-8 1,-11l120 -69c6,-3 14,-4 19,-1l176 102c5,3 4,8 -1,11l-120 69c-6,3 -14,4 -19,1l0 0z"/>
   <path class="fil31" d="M3533 1628l-146 -85c-4,-2 -4,-7 1,-9l64 -36c5,-3 12,-3 16,-1l146 85c4,2 4,7 -1,9l-64 36c-5,3 -12,3 -16,1z"/>
   <path class="fil6" d="M3488 1458l-2 12c-2,10 -1,21 1,31l2 11c1,6 6,11 12,12l0 0c5,1 9,-2 10,-7l3 -26c0,0 7,9 10,9 3,0 -4,-26 -11,-41 -7,-15 -25,-1 -25,-1l0 0z"/>
   <path class="fil6" d="M3547 1265l-19 37c-4,9 -7,18 -8,28l-8 128 -25 -1 -11 -144c0,-4 0,-9 1,-13l13 -73 57 37 0 0z"/>
   <path class="fil4" d="M3530 1653l-15 -19 -155 -90c-5,-3 -9,-11 -9,-17l0 -127 -9 -12 8 -5 0 0c2,-1 4,-1 6,0l176 102c5,3 9,11 9,17l0 138c0,4 -1,6 -3,7l0 0 -8 5z"/>
   <path class="fil30" d="M3422 1580l-11 -6 -61 -105 0 -69 -9 -12 8 -5 0 0c2,-1 4,-1 6,0l176 102c3,2 5,4 7,8l-117 87 0 0z"/>
   <path class="fil29" d="M3346 1393l-4 -5 8 -5 0 0c2,-1 4,-1 6,0l3 2 -14 8 0 0z"/>
   <path class="fil39" d="M3534 1486c4,3 7,9 7,15l-17 10 -8 -14 18 -10z"/>
   <path class="fil9" d="M3524 1490l-176 -102c-5,-3 -9,0 -9,7l0 138c0,7 4,14 9,17l176 102c5,3 9,0 9,-7l0 -138c0,-7 -4,-14 -9,-17l0 0z"/>
   <path class="fil6" d="M3611 1517l-3 6c-3,7 -8,12 -15,16l-17 11c-5,3 -12,4 -18,0 0,0 0,0 -1,0 -6,-3 -6,-11 -2,-16l18 -19c0,0 -10,8 -13,5 -2,-2 10,-14 19,-14 9,0 18,-8 18,-8l12 19 0 0z"/>
   <path class="fil41" d="M3564 1093c0,0 -67,73 -94,140 0,0 23,41 79,57 56,16 15,-197 15,-197l0 0z"/>
   <path class="fil42" d="M3537 1286l11 -105 -26 98c5,2 10,5 15,7z"/>
   <path class="fil9" d="M3614 1078l-18 -5c0,0 9,14 21,17 13,3 14,-7 14,-7l-18 -5z"/>
   <path class="fil2" d="M1618 2808l-201 -116c-12,-7 -11,-20 3,-28l194 -112c14,-8 36,-9 48,-2l201 116c12,7 11,20 -3,28l-194 112c-14,8 -36,9 -48,2z"/>
   <path class="fil30" d="M1930 2578l0 0 0 -87 -195 0 -67 -39c-15,-9 -42,-8 -60,3l-63 36 -195 0 0 89c0,6 3,12 10,16l252 145c15,9 42,8 60,-3l243 -140c10,-6 15,-14 15,-21l0 0z"/>
   <path class="fil30" d="M1640 2446c-11,0 -23,3 -32,8l-63 36 -195 0 0 89c0,6 3,12 10,16l252 145c7,4 17,6 28,6l0 -301 0 0 0 0z"/>
   <path class="fil29" d="M1372 2491l-22 0 0 89c0,6 3,12 10,16l12 7 0 -112 0 0z"/>
   <path class="fil29" d="M1616 2743c13,6 33,5 48,-1l0 -101 -48 0 0 102 0 0z"/>
   <path class="fil31" d="M1612 2653l-252 -145c-15,-9 -14,-24 4,-35l243 -140c18,-10 45,-11 60,-3l252 145c15,9 14,24 -4,35l-243 140c-18,10 -45,11 -60,3z"/>
   <path class="fil29" d="M1617 2626l-211 -122c-13,-7 -11,-21 4,-29l204 -117c15,-9 38,-10 51,-2l211 122c13,7 11,21 -4,29l-204 117c-15,9 -38,10 -51,2z"/>
   <path class="fil31" d="M1838 2601c0,6 -5,14 -10,18 -6,3 -10,1 -10,-6 0,-6 5,-14 10,-18 6,-3 10,-1 10,6z"/>
   <path class="fil31" d="M1870 2582c0,6 -5,14 -10,18 -6,3 -10,1 -10,-6 0,-6 5,-14 10,-18 6,-3 10,-1 10,6z"/>
   <path class="fil31" d="M1903 2563c0,6 -5,14 -10,18 -6,3 -10,1 -10,-6 0,-6 5,-14 10,-18 6,-3 10,-1 10,6z"/>
   <path class="fil30" d="M1930 2439l0 0 0 -87 -195 0 -67 -39c-15,-9 -42,-8 -60,3l-63 36 -195 0 0 89c0,6 3,12 10,16l252 145c15,9 42,8 60,-3l243 -140c10,-6 15,-14 15,-21l0 0z"/>
   <path class="fil30" d="M1640 2308c-11,0 -23,3 -32,8l-63 36 -195 0 0 89c0,6 3,12 10,16l252 145c7,4 17,6 28,6l0 -301 0 0 0 0z"/>
   <path class="fil29" d="M1372 2352l-22 0 0 89c0,6 3,12 10,16l12 7 0 -112 0 0z"/>
   <path class="fil29" d="M1616 2605c13,6 33,5 48,-1l0 -101 -48 0 0 102 0 0z"/>
   <path class="fil31" d="M1612 2514l-252 -145c-15,-9 -14,-24 4,-35l243 -140c18,-10 45,-11 60,-3l252 145c15,9 14,24 -4,35l-243 140c-18,10 -45,11 -60,3z"/>
   <path class="fil29" d="M1617 2488l-211 -122c-13,-7 -11,-21 4,-29l204 -117c15,-9 38,-10 51,-2l211 122c13,7 11,21 -4,29l-204 117c-15,9 -38,10 -51,2z"/>
   <path class="fil31" d="M1838 2462c0,6 -5,14 -10,18 -6,3 -10,1 -10,-6 0,-6 5,-14 10,-18 6,-3 10,-1 10,6l0 0z"/>
   <path class="fil31" d="M1870 2443c0,6 -5,14 -10,18 -6,3 -10,1 -10,-6 0,-6 5,-14 10,-18 6,-3 10,-1 10,6l0 0z"/>
   <path class="fil31" d="M1903 2425c0,6 -5,14 -10,18 -6,3 -10,1 -10,-6 0,-6 5,-14 10,-18 6,-3 10,-1 10,6l0 0z"/>
   <path class="fil30" d="M1930 2301l0 0 0 -87 -195 0 -67 -39c-15,-9 -42,-8 -60,3l-63 36 -195 0 0 89c0,6 3,12 10,16l252 145c15,9 42,8 60,-3l243 -140c10,-6 15,-14 15,-21l0 0z"/>
   <path class="fil30" d="M1640 2169c-11,0 -23,3 -32,8l-63 36 -195 0 0 89c0,6 3,12 10,16l252 145c7,4 17,6 28,6l0 -301 0 0 0 0z"/>
   <path class="fil29" d="M1372 2214l-22 0 0 89c0,6 3,12 10,16l12 7 0 -112 0 0z"/>
   <path class="fil29" d="M1616 2466c13,6 33,5 48,-1l0 -101 -48 0 0 102z"/>
   <path class="fil31" d="M1612 2375l-252 -145c-15,-9 -14,-24 4,-35l243 -140c18,-10 45,-11 60,-3l252 145c15,9 14,24 -4,35l-243 140c-18,10 -45,11 -60,3l0 0z"/>
   <path class="fil29" d="M1617 2349l-211 -122c-13,-7 -11,-21 4,-29l204 -117c15,-9 38,-10 51,-2l211 122c13,7 11,21 -4,29l-204 117c-15,9 -38,10 -51,2l0 0z"/>
   <path class="fil31" d="M1838 2324c0,6 -5,14 -10,18 -6,3 -10,1 -10,-6 0,-6 5,-14 10,-18 6,-3 10,-1 10,6z"/>
   <path class="fil31" d="M1870 2305c0,6 -5,14 -10,18 -6,3 -10,1 -10,-6 0,-6 5,-14 10,-18 6,-3 10,-1 10,6z"/>
   <path class="fil31" d="M1903 2286c0,6 -5,14 -10,18 -6,3 -10,1 -10,-6 0,-6 5,-14 10,-18 6,-3 10,-1 10,6z"/>
   <path class="fil30" d="M1930 2162l0 0 0 -87 -195 0 -67 -39c-15,-9 -42,-8 -60,3l-63 36 -195 0 0 89c0,6 3,12 10,16l252 145c15,9 42,8 60,-3l243 -140c10,-6 15,-14 15,-21l0 0z"/>
   <path class="fil30" d="M1640 2030c-11,0 -23,3 -32,8l-63 36 -195 0 0 89c0,6 3,12 10,16l252 145c7,4 17,6 28,6l0 -301 0 0 0 0z"/>
   <path class="fil29" d="M1372 2075l-22 0 0 89c0,6 3,12 10,16l12 7 0 -112 0 0z"/>
   <path class="fil29" d="M1616 2327c13,6 33,5 48,-1l0 -101 -48 0 0 102z"/>
   <path class="fil31" d="M1612 2236l-252 -145c-15,-9 -14,-24 4,-35l243 -140c18,-10 45,-11 60,-3l252 145c15,9 14,24 -4,35l-243 140c-18,10 -45,11 -60,3z"/>
   <path class="fil29" d="M1617 2210l-211 -122c-13,-7 -11,-21 4,-29l204 -118c15,-9 38,-10 51,-2l211 122c13,7 11,21 -4,29l-204 117c-15,9 -38,10 -51,2l0 0z"/>
   <path class="fil31" d="M1838 2185c0,6 -5,14 -10,18 -6,3 -10,1 -10,-6 0,-6 5,-14 10,-18 6,-3 10,-1 10,6l0 0z"/>
   <path class="fil31" d="M1870 2166c0,6 -5,14 -10,18 -6,3 -10,1 -10,-6 0,-6 5,-14 10,-18 6,-3 10,-1 10,6l0 0z"/>
   <path class="fil31" d="M1903 2147c0,6 -5,14 -10,18 -6,3 -10,1 -10,-6 0,-6 5,-14 10,-18 6,-3 10,-1 10,6z"/>
   <path class="fil30" d="M1930 2023l0 0 0 -87 -195 0 -67 -39c-15,-9 -42,-8 -60,3l-63 36 -195 0 0 89c0,6 3,12 10,16l252 145c15,9 42,8 60,-3l243 -140c10,-6 15,-14 15,-21l0 0z"/>
   <path class="fil30" d="M1640 1891c-11,0 -23,3 -32,8l-63 36 -195 0 0 89c0,6 3,12 10,16l252 145c7,4 17,6 28,6l0 -301 0 0 0 0z"/>
   <path class="fil29" d="M1372 1936l-22 0 0 89c0,6 3,12 10,16l12 7 0 -112 0 0z"/>
   <path class="fil29" d="M1616 2189c13,6 33,5 48,-1l0 -101 -48 0 0 102z"/>
   <path class="fil31" d="M1612 2098l-252 -145c-15,-9 -14,-24 4,-35l243 -140c18,-10 45,-11 60,-3l252 145c15,9 14,24 -4,35l-243 140c-18,10 -45,11 -60,3z"/>
   <path class="fil29" d="M1617 2072l-211 -122c-13,-7 -11,-21 4,-29l204 -117c15,-9 38,-10 51,-2l211 122c13,7 11,21 -4,29l-204 117c-15,9 -38,10 -51,2z"/>
   <rect class="fil9" transform="matrix(0.287057 0.496829 -0.496829 0.287057 1827.13 2051.36)" width="7" height="203"/>
   <path class="fil31" d="M1838 2046c0,6 -5,14 -10,18 -6,3 -10,1 -10,-6 0,-6 5,-14 10,-18 6,-3 10,-1 10,6z"/>
   <path class="fil31" d="M1870 2027c0,6 -5,14 -10,18 -6,3 -10,1 -10,-6 0,-6 5,-14 10,-18 6,-3 10,-1 10,6z"/>
   <path class="fil31" d="M1903 2008c0,6 -5,14 -10,18 -6,3 -10,1 -10,-6 0,-6 5,-14 10,-18 6,-3 10,-1 10,6z"/>
   <path class="fil30" d="M1930 1884l0 0 0 -87 -195 0 -67 -39c-15,-9 -42,-8 -60,3l-63 36 -195 0 0 89c0,6 3,12 10,16l252 145c15,9 42,8 60,-3l243 -140c10,-6 15,-14 15,-21l0 0z"/>
   <path class="fil30" d="M1640 1752c-11,0 -23,3 -32,8l-63 36 -195 0 0 89c0,6 3,12 10,16l252 145c7,4 17,6 28,6l0 -301 0 0 0 0z"/>
   <path class="fil29" d="M1372 1796l-22 0 0 89c0,6 3,12 10,16l12 7 0 -112 0 0z"/>
   <path class="fil29" d="M1616 2049c13,6 33,5 48,-1l0 -101 -48 0 0 102 0 0z"/>
   <path class="fil31" d="M1612 1958l-252 -145c-15,-9 -14,-24 4,-35l243 -140c18,-10 45,-11 60,-3l252 145c15,9 14,24 -4,35l-243 140c-18,10 -45,11 -60,3z"/>
   <path class="fil9" d="M1915 1798l-243 140c-18,10 -45,11 -60,3l-252 -145c-3,-2 -6,-4 -8,-7 -5,9 -3,18 8,24l252 145c15,9 42,8 60,-3l243 -140c14,-8 18,-19 12,-28 -2,4 -6,8 -12,11l0 0z"/>
   <path class="fil31" d="M1838 1906c0,6 -5,14 -10,18 -6,3 -10,1 -10,-6 0,-6 5,-14 10,-18 6,-3 10,-1 10,6z"/>
   <path class="fil31" d="M1737 1961c0,6 -5,14 -10,18 -6,3 -10,1 -10,-6 0,-6 5,-14 10,-18 6,-3 10,-1 10,6z"/>
   <path class="fil9" d="M1737 2105c0,6 -5,14 -10,18 -6,3 -10,1 -10,-6 0,-6 5,-14 10,-18 6,-3 10,-1 10,6l0 0z"/>
   <path class="fil31" d="M1870 1888c0,6 -5,14 -10,18 -6,3 -10,1 -10,-6 0,-6 5,-14 10,-18 6,-3 10,-1 10,6z"/>
   <path class="fil31" d="M1903 1869c0,6 -5,14 -10,18 -6,3 -10,1 -10,-6 0,-6 5,-14 10,-18 6,-3 10,-1 10,6z"/>
   <path class="fil29" d="M1627 1868l-118 -68c-7,-4 -6,-11 2,-16l114 -66c8,-5 21,-5 28,-1l118 68c7,4 6,11 -2,16l-114 66c-8,5 -21,5 -28,1z"/>
   <path class="fil31" d="M1638 1811l-16 -9c-1,-1 -1,-2 0,-2l16 -9c1,-1 3,-1 4,0l16 9c1,1 1,2 0,2l-16 9c-1,1 -3,1 -4,0z"/>
   <path class="fil30" d="M1509 1800l0 0c1,0 1,-1 2,-1l114 -66c8,-5 21,-5 28,-1l117 68c7,-5 7,-11 0,-15l-118 -68c-7,-4 -20,-4 -28,1l-114 66c-8,5 -9,12 -2,16l0 0z"/>
   <path class="fil31" d="M1603 1979c0,7 -5,10 -11,6 -6,-3 -11,-12 -11,-19 0,-7 5,-10 11,-6 6,3 11,12 11,19z"/>
   <path class="fil29" d="M1569 1960c0,7 -5,10 -11,6 -6,-3 -11,-12 -11,-19 0,-7 5,-10 11,-6 6,3 11,12 11,19z"/>
   <path class="fil31" d="M1603 2019c0,7 -5,10 -11,6 -6,-3 -11,-12 -11,-19 0,-7 5,-10 11,-6 6,3 11,12 11,19z"/>
   <path class="fil31" d="M1569 2000c0,7 -5,10 -11,6 -6,-3 -11,-12 -11,-19 0,-7 5,-10 11,-6 6,3 11,12 11,19z"/>
   <path class="fil31" d="M1603 2117c0,7 -5,10 -11,6 -6,-3 -11,-12 -11,-19 0,-7 5,-10 11,-6 6,3 11,12 11,19z"/>
   <path class="fil31" d="M1569 2097c0,7 -5,10 -11,6 -6,-3 -11,-12 -11,-19 0,-7 5,-10 11,-6 6,3 11,12 11,19z"/>
   <path class="fil29" d="M1603 2157c0,7 -5,10 -11,6 -6,-3 -11,-12 -11,-19 0,-7 5,-10 11,-6 6,3 11,12 11,19z"/>
   <path class="fil31" d="M1569 2138c0,7 -5,10 -11,6 -6,-3 -11,-12 -11,-19 0,-7 5,-10 11,-6 6,3 11,12 11,19z"/>
   <path class="fil31" d="M1603 2254c0,7 -5,10 -11,6 -6,-3 -11,-12 -11,-19 0,-7 5,-10 11,-6 6,3 11,12 11,19z"/>
   <path class="fil29" d="M1569 2235c0,7 -5,10 -11,6 -6,-3 -11,-12 -11,-19 0,-7 5,-10 11,-6 6,3 11,12 11,19z"/>
   <path class="fil31" d="M1603 2295c0,7 -5,10 -11,6 -6,-3 -11,-12 -11,-19 0,-7 5,-10 11,-6 6,3 11,12 11,19z"/>
   <path class="fil29" d="M1569 2275c0,7 -5,10 -11,6 -6,-3 -11,-12 -11,-19 0,-7 5,-10 11,-6 6,3 11,12 11,19z"/>
   <path class="fil29" d="M1603 2394c0,7 -5,10 -11,6 -6,-3 -11,-12 -11,-19 0,-7 5,-10 11,-6 6,3 11,12 11,19z"/>
   <path class="fil31" d="M1569 2375c0,7 -5,10 -11,6 -6,-3 -11,-12 -11,-19 0,-7 5,-10 11,-6 6,3 11,12 11,19z"/>
   <path class="fil31" d="M1603 2434c0,7 -5,10 -11,6 -6,-3 -11,-12 -11,-19 0,-7 5,-10 11,-6 6,3 11,12 11,19z"/>
   <path class="fil29" d="M1569 2415c0,7 -5,10 -11,6 -6,-3 -11,-12 -11,-19 0,-7 5,-10 11,-6 6,3 11,12 11,19z"/>
   <path class="fil29" d="M1603 2532c0,7 -5,10 -11,6 -6,-3 -11,-12 -11,-19 0,-7 5,-10 11,-6 6,3 11,12 11,19z"/>
   <path class="fil31" d="M1569 2513c0,7 -5,10 -11,6 -6,-3 -11,-12 -11,-19 0,-7 5,-10 11,-6 6,3 11,12 11,19z"/>
   <path class="fil29" d="M1603 2572c0,7 -5,10 -11,6 -6,-3 -11,-12 -11,-19 0,-7 5,-10 11,-6 6,3 11,12 11,19z"/>
   <path class="fil31" d="M1569 2553c0,7 -5,10 -11,6 -6,-3 -11,-12 -11,-19 0,-7 5,-10 11,-6 6,3 11,12 11,19z"/>
   <path class="fil31" d="M1603 2671c0,7 -5,10 -11,6 -6,-3 -11,-12 -11,-19 0,-7 5,-10 11,-6 6,3 11,12 11,19z"/>
   <path class="fil29" d="M1569 2652c0,7 -5,10 -11,6 -6,-3 -11,-12 -11,-19 0,-7 5,-10 11,-6 6,3 11,12 11,19z"/>
   <path class="fil31" d="M1603 2711c0,7 -5,10 -11,6 -6,-3 -11,-12 -11,-19 0,-7 5,-10 11,-6 6,3 11,12 11,19z"/>
   <path class="fil31" d="M1569 2692c0,7 -5,10 -11,6 -6,-3 -11,-12 -11,-19 0,-7 5,-10 11,-6 6,3 11,12 11,19z"/>
   <path class="fil2" d="M4380 3363c-93,-54 -244,-54 -338,0 -93,54 -93,141 0,195 93,54 244,54 338,0 93,-54 93,-141 0,-195zm-91 142c-43,25 -112,25 -155,0 -43,-25 -43,-65 0,-90 43,-25 112,-25 155,0 43,25 43,65 0,90z"/>
   <path class="fil26" d="M4007 3289l85 1c6,-8 15,-16 27,-23 47,-27 120,-29 171,-6l51 -48 78 1c-4,-3 -8,-5 -12,-7 -108,-63 -284,-63 -392,0 -20,12 -36,24 -49,38l41 43 0 0z"/>
   <polygon class="fil27" points="4419,3092 4419,3215 4341,3214 4341,3090 "/>
   <polygon class="fil26" points="4291,3138 4291,3262 4341,3214 4341,3090 "/>
   <path class="fil26" d="M4092 3167l0 124 112 -91 86 62 0 -124 -80 -39c0,0 -109,34 -115,35 -6,1 -4,33 -4,33l0 0z"/>
   <polygon class="fil26" points="4007,3166 4007,3289 4092,3290 4092,3167 "/>
   <polygon class="fil27" points="3966,3122 3966,3246 4007,3289 4007,3166 "/>
   <path class="fil28" d="M4007 3166l85 1c6,-8 15,-16 27,-23 47,-27 120,-29 171,-6l51 -48 78 1c-4,-3 -8,-5 -12,-7 -108,-63 -284,-63 -392,0 -20,12 -36,24 -49,38l41 43 0 0z"/>
   <g id="_745820336">
    <path class="fil16" d="M4316 3153l0 114 74 -18c0,0 -4,-66 -6,-68 -2,-2 -68,-28 -68,-28l0 0z"/>
    <path class="fil16" d="M4261 3267l0 124 8 8 52 -30c0,0 -8,-94 -9,-96 -1,-2 -51,-6 -51,-6l0 0z"/>
    <path class="fil16" d="M4361 3235l-45 42c12,9 19,19 23,30l-73 47 0 35c-2,0 -4,1 -5,1l5 6 0 82 0 0 0 0 0 0 0 0c52,-6 101,-21 141,-44 53,-31 80,-71 81,-111l0 0 0 -131 -56 44 -71 -1 0 0z"/>
   </g>
   <path class="fil18" d="M4361 3111l-45 42c37,29 33,71 -13,97 -13,7 -27,13 -43,16l46 49 -41 38c52,-6 101,-21 141,-44 93,-54 106,-136 39,-198l-85 -1 0 0z"/>
   <path class="fil24" d="M4265 3439l-41 -43c-38,2 -77,-5 -106,-22 -30,-17 -42,-41 -37,-63l-97 -2 -37 -40c-33,56 -10,120 67,164 57,33 132,48 206,47l45 -42 0 0z"/>
   <polygon class="fil24" points="4221,3357 4221,3481 3934,3322 3934,3198 3976,3215 "/>
   <polygon class="fil23" points="4265,3315 4265,3439 4221,3481 4221,3357 "/>
   <path class="fil43" d="M4265 3315l-41 -43c-38,2 -77,-5 -106,-22 -30,-17 -42,-41 -37,-63l-97 -2 -37 -40c-33,56 -10,120 67,164 57,33 132,48 206,47l45 -42 0 0z"/>
   <path class="fil16" d="M1930 1467l-219 -126c-4,-3 -8,-3 -11,-1 0,0 0,0 0,0l-21 12c0,0 9,3 15,5l0 159c0,13 8,28 18,34l209 121 0 19 21 -12 0 0c4,-2 6,-7 6,-14l0 -163c0,-13 -8,-28 -18,-34l0 0z"/>
   <path class="fil18" d="M1908 1689l-219 -126c-10,-6 -18,-21 -18,-34l0 -163c0,-13 8,-19 18,-13l219 126c10,6 18,21 18,34l0 163c0,13 -8,19 -18,13z"/>
   <path class="fil9" d="M1763 1507c0,9 -7,13 -15,9 -8,-5 -15,-16 -15,-26 0,-9 7,-13 15,-8 8,5 15,16 15,26l0 0z"/>
   <path class="fil9" d="M1807 1532c0,9 -7,13 -15,8 -8,-5 -15,-16 -15,-26 0,-9 7,-13 15,-9 8,5 15,16 15,26l0 0z"/>
   <path class="fil9" d="M1852 1558c0,9 -7,13 -15,8 -8,-5 -15,-16 -15,-26 0,-9 7,-13 15,-8 8,5 15,16 15,26z"/>
   <path class="fil29" d="M1805 1262l-219 -126c-4,-3 -8,-3 -11,-1l0 0 -21 12c0,0 9,3 15,5l0 159c0,13 8,28 18,34l209 121 0 19 21 -12 0 0c4,-2 6,-7 6,-14l0 -163c0,-13 -8,-28 -18,-34l0 0z"/>
   <path class="fil31" d="M1783 1484l-219 -126c-10,-6 -18,-21 -18,-34l0 -163c0,-13 8,-19 18,-13l219 126c10,6 18,21 18,34l0 163c0,13 -8,19 -18,13z"/>
   <path class="fil9" d="M1638 1302c0,9 -7,13 -15,9 -8,-5 -15,-16 -15,-26 0,-9 7,-13 15,-8 8,5 15,16 15,26l0 0z"/>
   <path class="fil9" d="M1683 1328c0,9 -7,13 -15,8 -8,-5 -15,-16 -15,-26 0,-9 7,-13 15,-8 8,5 15,16 15,26z"/>
   <path class="fil9" d="M1728 1354c0,9 -7,13 -15,9 -8,-5 -15,-16 -15,-26 0,-9 7,-13 15,-9 8,5 15,16 15,26z"/>
   <path class="fil44" d="M1252 2996l-219 -126c-4,-3 -8,-3 -11,-1 0,0 0,0 0,0l-21 12c0,0 9,3 15,5l0 159c0,13 8,28 18,34l209 121 0 19 21 -12 0 0c4,-2 6,-7 6,-14l0 -163c0,-13 -8,-28 -18,-34l0 0z"/>
   <path class="fil45" d="M1264 3207l0 0c4,-2 6,-7 6,-14l0 -163c0,-6 -2,-13 -5,-19l-175 101 153 88 0 19 21 -12 0 0z"/>
   <path class="fil0" d="M1230 3219l-219 -126c-10,-6 -18,-21 -18,-34l0 -163c0,-13 8,-19 18,-13l219 126c10,6 18,21 18,34l0 163c0,13 -8,19 -18,13z"/>
   <rect class="fil29" transform="matrix(-0.362566 0.444672 -0.444672 -0.362566 3815.23 3063.33)" width="96" height="207"/>
   <path class="fil29" d="M3794 3107c12,-4 23,-18 25,-30 2,-12 -6,-19 -17,-14 -12,4 -23,18 -25,30 -2,12 6,19 17,14l0 0z"/>
   <rect class="fil29" transform="matrix(-0.362566 0.444672 -0.444672 -0.362566 3749.91 2987.98)" width="156" height="212"/>
   <path class="fil30" d="M3738 3000l31 25c-5,17 -19,35 -35,43l-31 -25c5,-17 19,-35 35,-43z"/>
   <path class="fil29" d="M3716 3059c19,-7 37,-29 40,-49 3,-20 -9,-30 -28,-23 -19,7 -37,29 -40,49 -3,20 9,30 28,23l0 0z"/>
   <path class="fil29" d="M3621 2982c19,-7 37,-29 40,-49 3,-20 -9,-30 -28,-23 -19,7 -37,29 -40,49 -3,20 9,30 28,23l0 0z"/>
   <path class="fil31" d="M3624 2966c11,-4 21,-16 23,-28 2,-11 -5,-17 -16,-13 -11,4 -21,16 -23,28 -2,11 5,17 16,13z"/>
   <path class="fil31" d="M3794 3072c5,4 9,2 10,-4 1,-6 -2,-13 -6,-17 -5,-4 -9,-2 -10,4 -1,6 2,13 6,17z"/>
   <path class="fil29" d="M2929 3913c-15,0 -30,-4 -44,-12l-59 -35c-3,-2 -4,-6 -2,-9 2,-3 6,-4 9,-2l59 35c23,14 51,14 74,0 23,-14 36,-39 34,-66l-1 -18c-21,-292 -59,-836 170,-895 79,-20 133,-40 172,-54 118,-42 126,-40 288,83 3,2 4,6 1,9 -2,3 -6,4 -9,1 -161,-122 -163,-121 -275,-81 -40,14 -94,34 -174,54 -218,56 -180,592 -160,881l1 18c2,32 -13,61 -40,78 -14,8 -29,13 -44,13l0 0z"/>
   <path class="fil2" d="M3532 3985c-85,49 -222,49 -307,0 -85,-49 -85,-128 0,-177 85,-49 222,-49 307,0 85,49 85,128 0,177l0 0z"/>
   <path class="fil4" d="M3482 3842c12,5 20,19 19,33 -1,7 -1,13 -3,16 -4,8 -17,19 -37,11 -20,-8 -65,-50 -67,-78 -3,-52 56,3 88,17l0 0z"/>
   <path class="fil4" d="M3363 3928c0,0 5,30 3,35 -2,5 -17,17 -37,15 -21,-3 -81,-23 -94,-63 -21,-61 116,5 116,5l13 8 0 0z"/>
   <path class="fil46" d="M3304 3452l-5 464c1,16 11,30 25,32 2,0 4,1 6,1 14,1 23,-5 28,-11 4,-5 6,-12 6,-19l6 -198 30 -177 41 314c1,8 5,16 11,21 5,3 11,5 19,5 12,0 20,-7 25,-12 4,-4 6,-11 6,-17l-16 -189 -6 -241 -175 27 0 0z"/>
   <path class="fil6" d="M3364 3037l7 42c0,0 0,14 -16,18 -16,4 -21,-6 -21,-6l-7 -48 37 -7 0 0z"/>
   <path class="fil6" d="M3278 3038c27,27 68,29 92,5 24,-24 21,-65 -6,-92 -27,-27 -68,-29 -92,-5 -24,24 -21,65 6,92z"/>
   <path class="fil47" d="M3400 3544l41 314c1,8 5,16 11,21 1,1 2,1 4,2 -8,-6 -33,-270 -38,-299 -5,-29 -18,-37 -18,-37l0 0z"/>
   <polygon class="fil6" points="3147,3094 3111,2974 3130,2966 3173,3060 "/>
   <polygon class="fil6" points="3516,3000 3488,2875 3467,2875 3475,2978 "/>
   <g>
    <path class="fil48" d="M3362 3080c1,0 68,-44 93,2 41,74 38,312 25,343 -12,28 -41,50 -62,61 -18,11 -39,17 -60,17 -21,0 -61,-18 -60,-46 7,-126 -4,-233 -15,-336 0,0 13,-14 78,-40l0 0z"/>
    <path class="fil48" d="M3284 3120c0,0 -66,13 -107,-63 -4,-7 -13,-8 -17,-2 -7,10 -16,26 -11,43 20,75 131,91 151,135 20,43 -15,-112 -15,-112l0 0z"/>
    <path class="fil48" d="M3405 3064c0,0 52,4 59,-41 4,-23 5,-37 5,-45 0,-5 5,-10 10,-9 12,2 32,5 34,14 4,12 11,74 -40,167 -34,61 -69,-86 -69,-86l0 0z"/>
   </g>
   <path class="fil6" d="M3489 2875l-1 -14c0,-5 -2,-10 -4,-14l-14 -24 -4 -5c-3,-4 -10,-5 -14,-2l-3 2c-4,3 -7,7 -6,12l7 20 -9 -2c-2,0 -4,1 -4,3l0 0c0,2 1,3 2,4l15 6 14 20 21 -6 0 0z"/>
   <path class="fil6" d="M3110 2975l-4 -14c-2,-5 -2,-10 -1,-15l6 -27 2 -6c2,-5 7,-8 13,-7l4 1c5,1 9,5 10,9l0 22 8 -5c2,-1 4,0 5,1l0 0c1,1 1,3 -1,4l-12 11 -7 26 -21 -1 0 0z"/>
   <path class="fil49" d="M3315 3211c6,27 -11,239 44,292 -21,0 -61,-18 -60,-46 5,-85 1,-160 -5,-232 -21,-28 -80,-45 -117,-81 3,1 132,41 138,68l0 0z"/>
   <path class="fil9" d="M3387 3068l-9 -10c0,0 -15,16 -28,18 0,0 -15,4 -22,5l-6 17c0,0 49,-4 65,-30l0 0z"/>
   <path class="fil4" d="M3318 3019c-2,1 -5,1 -7,0 -4,-2 -10,-18 -19,-17 -13,2 -32,29 -55,-9 -12,-20 -5,-30 -11,-41 0,0 2,6 53,-25 51,-31 92,7 105,28 13,22 21,64 -12,88 -6,4 -41,-3 -42,-6 -1,-3 9,-8 3,-15 -4,-6 -10,-6 -16,-3l0 0z"/>
   <polygon class="fil45" points="1001,2881 1121,3050 1243,3023 1118,3064 "/>
   <polygon class="fil45" points="1135,3056 1145,3053 1242,3219 "/>
   <polygon class="fil45" points="1109,3046 1001,3082 1104,3036 "/>
   <path class="fil16" d="M1055 2896c0,-38 -26,-83 -59,-102 -16,-9 -30,-10 -41,-5l0 0 -1 0c0,0 0,0 0,0l-21 12 10 -1c-4,7 -6,16 -6,27 0,38 26,83 59,102 9,5 17,8 24,8 -1,3 -5,9 -5,9l21 -12c0,0 1,-1 1,-1l1 -1c0,0 0,0 0,0 10,-6 16,-19 16,-37l0 0z"/>
   <path class="fil18" d="M1034 2908c0,38 -26,53 -59,34 -33,-19 -59,-65 -59,-102 0,-38 26,-53 59,-34 33,19 59,65 59,102z"/>
   <path class="fil9" d="M974 2912c-3,-2 -6,-4 -8,-6 -2,-2 -4,-5 -5,-8 -1,-3 -2,-6 -3,-8 0,-3 -1,-6 -1,-10l11 6c0,2 0,4 0,5 0,1 0,3 1,4 0,2 1,3 2,4 1,1 2,2 3,3 1,1 2,1 2,1 1,0 1,0 2,0 0,0 1,-1 1,-1 0,-1 1,-1 1,-2 0,-1 0,-2 0,-3 0,-1 0,-3 0,-3 0,-1 0,-2 0,-4 0,-2 0,-3 0,-5 0,-1 0,-3 0,-4 0,-1 -1,-3 -1,-4 0,-1 -1,-2 -2,-3 -1,-1 -2,-2 -3,-2 -2,-1 -3,-1 -4,0 -1,1 -2,2 -2,3l-9 -5 0 -41 29 17 0 12 -20 -11 -1 17c1,-1 2,-1 4,-1 2,0 3,1 5,2 3,1 5,3 7,5 2,2 3,4 5,7 1,3 2,6 3,9 1,3 1,6 1,10 0,3 0,6 0,9 0,2 -1,5 -2,7 -1,2 -2,3 -3,4 -1,1 -3,1 -5,1 -2,0 -4,-1 -7,-3l0 0z"/>
   <path class="fil1" d="M2284 1260c-58,0 -105,-47 -105,-105 0,-58 47,-105 105,-105 58,0 105,47 105,105 0,58 -47,105 -105,105zm0 -187c-45,0 -82,37 -82,82 0,45 37,82 82,82 45,0 82,-37 82,-82 0,-45 -37,-82 -82,-82z"/>
   <path class="fil0" d="M1937 3824c-41,0 -74,-33 -74,-74 0,-41 33,-74 74,-74 41,0 74,33 74,74 0,41 -33,74 -74,74zm0 -126c-28,0 -51,23 -51,52 0,28 23,52 51,52 28,0 52,-23 52,-52 0,-28 -23,-52 -52,-52z"/>
   <path class="fil1" d="M2601 720l-50 -103 103 -50 50 103 -103 50zm-20 -92l30 62 62 -30 -30 -62 -62 30z"/>
   <rect class="fil37" transform="matrix(0.405713 0.405713 -0.405713 0.405713 4412.18 612.805)" width="40" height="189"/>
   <rect class="fil37" transform="matrix(0.405713 0.405713 -0.405713 0.405713 4351.51 612.798)" width="189" height="40"/>
   <circle class="fil0" cx="2191" cy="1225" r="76"/>
   <circle class="fil16" cx="1813" cy="3855" r="45"/>
   <circle class="fil37" cx="5212" cy="2155" r="25"/>
   <rect class="fil0" transform="matrix(0.536878 0.202483 -0.202483 0.536878 5070.49 1938.57)" width="184" height="184"/>
   <g>
    <path class="fil32" d="M2810 1389c0,7 -5,9 -11,6 -6,-3 -11,-12 -11,-18 0,-7 5,-9 11,-6 6,3 11,12 11,18z"/>
    <path class="fil32" d="M2847 1411c0,7 -5,9 -11,6 -6,-3 -11,-12 -11,-18 0,-7 5,-10 11,-6 6,3 11,12 11,18z"/>
    <path class="fil32" d="M2884 1432c0,7 -5,9 -11,6 -6,-3 -11,-12 -11,-18 0,-7 5,-10 11,-6 6,3 11,12 11,18z"/>
    <path class="fil32" d="M2922 1454c0,7 -5,10 -11,6 -6,-3 -11,-12 -11,-18 0,-7 5,-10 11,-6 6,3 11,12 11,18z"/>
    <path class="fil32" d="M2810 1544c0,7 -5,9 -11,6 -6,-3 -11,-12 -11,-18 0,-7 5,-9 11,-6 6,3 11,12 11,18z"/>
    <path class="fil32" d="M2847 1565c0,7 -5,9 -11,6 -6,-3 -11,-12 -11,-18 0,-7 5,-10 11,-6 6,3 11,12 11,18z"/>
    <path class="fil32" d="M2884 1587c0,7 -5,9 -11,6 -6,-3 -11,-12 -11,-18 0,-7 5,-10 11,-6 6,3 11,12 11,18z"/>
    <path class="fil32" d="M2922 1608c0,7 -5,10 -11,6 -6,-3 -11,-12 -11,-18 0,-7 5,-10 11,-6 6,3 11,12 11,18z"/>
    <path class="fil32" d="M2810 1698c0,7 -5,9 -11,6 -6,-3 -11,-12 -11,-18 0,-7 5,-9 11,-6 6,3 11,12 11,18z"/>
    <path class="fil32" d="M2847 1720c0,7 -5,9 -11,6 -6,-3 -11,-12 -11,-18 0,-7 5,-10 11,-6 6,3 11,12 11,18z"/>
    <path class="fil32" d="M2884 1741c0,7 -5,10 -11,6 -6,-3 -11,-12 -11,-18 0,-7 5,-10 11,-6 6,3 11,12 11,18z"/>
    <path class="fil32" d="M2922 1763c0,7 -5,9 -11,6 -6,-3 -11,-12 -11,-18 0,-7 5,-9 11,-6 6,3 11,12 11,18z"/>
    <path class="fil32" d="M2810 1852c0,7 -5,9 -11,6 -6,-3 -11,-12 -11,-18 0,-7 5,-10 11,-6 6,3 11,12 11,18z"/>
    <path class="fil32" d="M2847 1874c0,7 -5,10 -11,6 -6,-3 -11,-12 -11,-18 0,-7 5,-10 11,-6 6,3 11,12 11,18z"/>
    <path class="fil32" d="M2884 1896c0,7 -5,9 -11,6 -6,-3 -11,-12 -11,-18 0,-7 5,-9 11,-6 6,3 11,12 11,18z"/>
    <path class="fil32" d="M2922 1917c0,7 -5,9 -11,6 -6,-3 -11,-12 -11,-18 0,-7 5,-9 11,-6 6,3 11,12 11,18z"/>
    <path class="fil32" d="M2810 2007c0,7 -5,9 -11,6 -6,-3 -11,-12 -11,-18 0,-7 5,-10 11,-6 6,3 11,12 11,18z"/>
    <path class="fil32" d="M2847 2028c0,7 -5,10 -11,6 -6,-3 -11,-12 -11,-18 0,-7 5,-10 11,-6 6,3 11,12 11,18z"/>
    <path class="fil32" d="M2884 2050c0,7 -5,9 -11,6 -6,-3 -11,-12 -11,-18 0,-7 5,-9 11,-6 6,3 11,12 11,18z"/>
    <path class="fil32" d="M2922 2072c0,7 -5,9 -11,6 -6,-3 -11,-12 -11,-18 0,-7 5,-9 11,-6 6,3 11,12 11,18z"/>
    <path class="fil32" d="M2810 2161c0,7 -5,9 -11,6 -6,-3 -11,-12 -11,-18 0,-7 5,-10 11,-6 6,3 11,12 11,18z"/>
    <path class="fil32" d="M2847 2183c0,7 -5,9 -11,6 -6,-3 -11,-12 -11,-18 0,-7 5,-9 11,-6 6,3 11,12 11,18z"/>
    <path class="fil32" d="M2884 2205c0,7 -5,9 -11,6 -6,-3 -11,-12 -11,-18 0,-7 5,-9 11,-6 6,3 11,12 11,18z"/>
    <path class="fil32" d="M2922 2226c0,7 -5,9 -11,6 -6,-3 -11,-12 -11,-18 0,-7 5,-9 11,-6 6,3 11,12 11,18z"/>
    <path class="fil32" d="M2810 2318c0,7 -5,9 -11,6 -6,-3 -11,-12 -11,-18 0,-7 5,-10 11,-6 6,3 11,12 11,18z"/>
    <path class="fil32" d="M2847 2339c0,7 -5,9 -11,6 -6,-3 -11,-12 -11,-18 0,-7 5,-10 11,-6 6,3 11,12 11,18z"/>
    <path class="fil32" d="M2884 2361c0,7 -5,10 -11,6 -6,-3 -11,-12 -11,-18 0,-7 5,-10 11,-6 6,3 11,12 11,18z"/>
    <path class="fil32" d="M2922 2383c0,7 -5,9 -11,6 -6,-3 -11,-12 -11,-18 0,-7 5,-9 11,-6 6,3 11,12 11,18z"/>
   </g>
  </g>
  <rect class="fil50" width="5778" height="4046"/>
 </g>
</svg>
