<?xml version="1.0" encoding="UTF-8"?>
<!DOCTYPE svg PUBLIC "-//W3C//DTD SVG 1.1//EN" "http://www.w3.org/Graphics/SVG/1.1/DTD/svg11.dtd">
<!-- Creator: CorelDRAW X6 -->
<svg xmlns="http://www.w3.org/2000/svg" xml:space="preserve" width="137.16mm" height="91.4398mm" version="1.1" style="shape-rendering:geometricPrecision; text-rendering:geometricPrecision; image-rendering:optimizeQuality; fill-rule:evenodd; clip-rule:evenodd"
viewBox="0 0 3978 2652"
 xmlns:xlink="http://www.w3.org/1999/xlink">
 <defs>
  <style type="text/css">
   <![CDATA[
    .fil5 {fill:#2969B1}
    .fil9 {fill:#303142}
    .fil11 {fill:#33567D}
    .fil10 {fill:#374060}
    .fil16 {fill:#383F47}
    .fil13 {fill:#39519D}
    .fil4 {fill:#3C3F8F}
    .fil3 {fill:#404795}
    .fil1 {fill:#CDDDEB}
    .fil2 {fill:#DFE9F4}
    .fil12 {fill:#EF7B68}
    .fil7 {fill:#EF7D2B}
    .fil15 {fill:#F1F1F1}
    .fil8 {fill:#F4A193}
    .fil6 {fill:#F6A227}
    .fil14 {fill:#FEFEFE}
    .fil0 {fill:#FEFEFE}
   ]]>
  </style>
 </defs>
 <g id="Layer_x0020_1">
  <metadata id="CorelCorpID_0Corel-Layer"/>
  <g id="_257675512">
   <rect class="fil0" width="3978" height="2652"/>
   <g>
    <path class="fil1" d="M2942 705c-18,12 -43,7 -55,-11 -12,-18 -7,-43 11,-55 18,-12 43,-7 55,11 12,18 7,43 -11,55zm106 17l8 -42 -40 -8c0,-10 -2,-21 -5,-31l33 -22 -24 -36 -31 21c-9,-9 -20,-17 -32,-22l8 -40 -42 -8 -8 41c-9,0 -17,2 -26,5l-22 -33 -36 24 21 31c-9,9 -17,20 -22,32l-35 -7 -8 42 36 7c1,11 3,22 8,33l-31 21 24 36 33 -22c9,8 20,14 31,18l-8 40 42 8 8 -43c9,-1 18,-3 27,-7l21 31 36 -24 -22 -33c6,-7 11,-14 14,-22l41 8z"/>
    <path class="fil1" d="M703 755c-18,12 -43,7 -55,-11 -12,-18 -7,-43 11,-55 18,-12 43,-7 55,11 12,18 7,43 -11,55zm106 17l8 -42 -40 -8c0,-10 -2,-21 -5,-31l33 -22 -24 -36 -31 21c-9,-9 -20,-17 -32,-22l8 -40 -42 -8 -8 41c-9,0 -17,2 -26,5l-22 -33 -36 24 21 31c-9,9 -17,20 -22,32l-35 -7 -8 42 36 7c1,11 3,22 8,33l-31 21 24 36 33 -22c9,8 20,14 31,18l-8 40 42 8 8 -43c9,-1 18,-3 27,-7l21 31 36 -24 -22 -33c6,-7 11,-14 14,-22l41 8z"/>
    <path class="fil1" d="M3217 762c-10,7 -23,4 -30,-6 -7,-10 -4,-23 6,-30 10,-7 23,-4 30,6 7,10 4,23 -6,30zm58 9l5 -23 -22 -4c0,-6 -1,-11 -3,-17l18 -12 -13 -20 -17 11c-5,-5 -11,-9 -18,-12l4 -22 -23 -5 -4 22c-5,0 -9,1 -14,3l-12 -18 -20 13 11 17c-5,5 -9,11 -12,18l-19 -4 -5 23 20 4c0,6 2,12 4,18l-17 11 13 20 18 -12c5,4 11,8 17,10l-4 22 23 5 5 -24c5,-1 10,-2 15,-4l11 17 20 -13 -12 -18c3,-4 6,-8 8,-12l22 4z"/>
    <path class="fil2" d="M1989 2590c-871,0 -1577,-40 -1577,-90 0,-50 706,-90 1577,-90 871,0 1577,40 1577,90 0,50 -706,90 -1577,90z"/>
    <path class="fil3" d="M944 2499l27 0 -101 -263c5,-24 16,-57 38,-96 42,-73 73,-158 20,-152 -46,5 -79,104 -77,199l-36 -95c-6,-31 -15,-76 -12,-126 7,-116 -8,-227 -64,-197 -56,30 -27,221 58,344l19 49c-60,-91 -174,-164 -218,-132 -44,32 37,74 117,100 61,20 96,47 113,62l88 230c-95,-143 -276,-259 -346,-209 -69,50 59,117 186,158 96,31 152,74 178,98l12 30z"/>
    <path class="fil3" d="M3016 2499c5,-24 3,-51 -8,-75 -29,-64 8,-86 56,-118 48,-33 41,-97 -8,-142 -49,-45 9,-101 -32,-175 -42,-74 -117,-3 -120,74 -2,55 -73,59 -84,132 -9,64 76,103 -3,148 -26,15 -36,39 -39,65 -3,34 7,66 27,91l210 0z"/>
    <path class="fil4" d="M2905 2499l72 -411c1,-4 -2,-7 -5,-8 -4,-1 -7,2 -8,5l-72 413 13 0z"/>
    <path class="fil5" d="M3217 2499c1,-6 1,-11 1,-17 -2,-90 53,-96 126,-110 73,-14 97,-93 63,-170 -34,-77 62,-114 51,-221 -11,-107 -135,-62 -177,26 -31,64 -116,31 -166,112 -43,70 37,159 -79,171 -37,4 -62,27 -78,56 -27,48 -26,106 -2,152l262 0z"/>
    <path class="fil3" d="M3071 2499l280 -425c3,-4 1,-9 -2,-12 -4,-3 -9,-1 -12,2l-286 434 20 0z"/>
    <path class="fil3" d="M1195 2369c-25,-200 -63,-407 -105,-542 -54,-176 -122,-292 -201,-346 -5,-4 -12,-2 -16,3 -4,5 -2,12 3,16 139,94 242,400 298,884l21 -16z"/>
    <path class="fil5" d="M1029 1675c0,0 95,-19 55,-183 0,0 -137,69 -55,183z"/>
    <path class="fil5" d="M1053 1759c0,0 -13,-95 -180,-65 0,0 62,140 180,65z"/>
    <path class="fil5" d="M936 1539c0,0 19,-94 -148,-122 0,0 11,153 148,122z"/>
    <path class="fil5" d="M1108 1926c0,0 95,14 114,-154 0,0 -152,19 -114,154z"/>
    <path class="fil5" d="M1120 2015c0,0 3,-96 -166,-96 0,0 37,149 166,96z"/>
    <path class="fil5" d="M1149 2136c0,0 95,16 117,-152 0,0 -152,16 -117,152z"/>
    <polygon class="fil6" points="3403,1532 3403,1533 3198,1923 3119,1780 2151,2312 1994,2028 1123,2506 787,2506 2058,1808 2215,2093 3042,1639 2963,1496 "/>
    <polygon class="fil7" points="3403,1533 3198,1923 3119,1780 2151,2312 1994,2028 1123,2506 931,2506 2018,1909 2174,2194 "/>
    <path class="fil8" d="M1601 1832l-56 39c0,0 -1,26 22,53l66 -44 -32 -48z"/>
    <path class="fil5" d="M1574 1903c8,10 12,17 4,31 -5,9 -20,98 -15,125 5,27 -16,29 -27,28 -11,-1 -71,-203 -71,-203 0,0 57,-27 77,-27 20,0 21,28 33,46z"/>
    <path class="fil9" d="M2032 1277c0,0 -6,330 -41,395 -35,65 -371,222 -371,222 0,0 -24,-27 -31,-64 0,0 95,-83 132,-121 56,-57 139,-105 139,-105l-9 -375 180 49z"/>
    <path class="fil10" d="M1601 1812c0,0 -25,15 -31,23 0,0 19,63 52,71l24 -15c0,0 -35,-43 -45,-78z"/>
    <path class="fil8" d="M2579 1713l35 58c0,0 25,2 54,-19l-40 -69 -50 29z"/>
    <path class="fil5" d="M2650 1741c8,-10 15,-14 30,-8 9,4 100,5 126,-4 26,-9 42,17 32,23 -53,30 -190,101 -190,101 0,0 -35,-52 -39,-72 -3,-20 25,-25 41,-40z"/>
    <path class="fil10" d="M2015 1089c0,0 370,143 418,199 48,57 210,407 210,407 0,0 -27,49 -65,40 0,0 -83,-122 -112,-168 -31,-49 -102,-107 -137,-213 0,0 -198,-7 -348,-32 -101,-17 -172,-89 -147,-189l0 -1c2,-6 7,-11 14,-12l167 -31z"/>
    <path class="fil11" d="M2559 1718c0,0 12,22 20,29 0,0 48,-13 72,-50l-12 -25c0,0 -43,31 -80,46z"/>
    <path class="fil8" d="M2773 415c-12,-3 -60,27 -62,27 -2,0 -12,-2 -22,-3 -10,-1 -16,3 -23,17 -7,14 -13,37 -13,37 -5,2 -10,5 -15,7 8,15 17,29 26,43 8,-5 16,-10 22,-15 5,2 10,2 14,1 12,-3 22,-7 28,-10 4,-1 6,-2 6,-2l0 0c1,0 7,2 18,-1 12,-4 20,-14 20,-20 0,-6 -8,-9 -8,-9 0,0 5,-5 4,-11 -1,-6 -12,-12 -12,-12 0,0 5,-7 0,-13 -5,-6 -20,1 -21,1 2,-1 49,-34 38,-37z"/>
    <path class="fil12" d="M2683 479l-1 0c-1,-1 -2,-2 -1,-4l5 -12 2 -1 2 0c0,0 13,7 24,4 3,-1 6,-3 7,-5 1,-2 0,-4 0,-4 -1,-1 0,-3 1,-4 1,-1 3,0 4,1 0,0 2,4 0,9 -1,4 -5,6 -10,8 -10,3 -21,-1 -26,-3l-4 9c0,1 -1,2 -2,2z"/>
    <path class="fil12" d="M2735 518l0 0c0,0 -2,1 -6,2 -5,-5 -6,-12 -7,-18 -1,-5 -1,-9 -4,-12 -3,-3 -4,-7 -5,-10 0,-3 0,-6 1,-9 0,-1 0,-2 1,-3 1,-2 1,-3 1,-3 1,-1 2,-2 4,-1 1,1 2,2 1,4l0 1c-1,2 -2,6 -2,10 0,3 1,6 3,8 4,4 5,10 5,15 1,6 1,12 7,16z"/>
    <path class="fil12" d="M2695 500c-1,0 -2,0 -3,-1 -1,-1 0,-3 1,-4 0,0 16,-9 16,-25 0,-2 1,-3 3,-3 2,0 3,1 3,3 -1,19 -19,29 -19,29l-1 0z"/>
    <path class="fil5" d="M2672 543c0,0 -152,98 -196,105 -44,8 -178,-12 -178,-12 -15,-1 -29,-3 -41,-5 -41,-7 -65,-21 -79,-39 -23,-29 -9,-72 4,-106 0,0 21,17 128,39 0,0 152,29 160,31 0,0 114,-37 177,-65 0,0 14,43 25,51z"/>
    <polygon class="fil13" points="2647,486 2627,495 2658,557 2677,546 "/>
    <path class="fil3" d="M2256 631c-41,-7 -65,-21 -79,-39 -9,-38 -15,-79 0,-89 0,0 44,81 78,128z"/>
    <path class="fil9" d="M1767 1178l-146 318c-6,13 -21,18 -33,12l-518 -238c-13,-6 -18,-21 -12,-33l146 -318c6,-13 21,-18 33,-12l518 238c13,6 18,21 12,33z"/>
    <path class="fil10" d="M1688 1351l79 -172c6,-13 0,-27 -12,-33l-518 -238c-13,-6 -27,0 -33,12l-79 173 563 259z"/>
    <path class="fil6" d="M1599 1013l-23 50 -26 -12 23 -49 -25 -11 -1 -1 -15 -7 -2 -1 -66 -30 -23 49 -26 -12 23 -50c6,-13 22,-19 35,-13l61 28 5 2 9 4 2 1 35 16c13,6 19,22 13,35z"/>
    <path class="fil7" d="M1546 990l-15 -7 -2 -1c2,-10 4,-20 6,-28l5 2 9 4c-2,12 -3,22 -2,30z"/>
    <polygon class="fil7" points="1450,983 1441,1002 1416,990 1424,972 "/>
    <polygon class="fil7" points="1584,1045 1576,1063 1550,1051 1558,1033 "/>
    <path class="fil7" d="M1278 1132l-23 50c-1,3 -4,4 -7,3l-26 -12c-3,-1 -4,-4 -3,-7l23 -50c1,-3 4,-4 7,-3l26 12c3,1 4,4 3,7z"/>
    <path class="fil6" d="M1278 1132l-12 25 -36 -16 12 -25c1,-3 4,-4 7,-3l26 12c3,1 4,4 3,7z"/>
    <path class="fil7" d="M1593 1277l-23 50c-1,3 -4,4 -7,3l-26 -12c-3,-1 -4,-4 -3,-7l23 -50c1,-3 4,-4 7,-3l26 12c3,1 4,4 3,7z"/>
    <path class="fil6" d="M1593 1277l-12 25 -36 -16 12 -25c1,-3 4,-4 7,-3l26 12c3,1 4,4 3,7z"/>
    <path class="fil8" d="M1573 971c-5,-2 -12,-5 -16,-8 0,-1 0,-4 -1,-6 -3,-5 -10,-3 -11,0 -4,5 -8,16 -9,27l7 4c0,0 -7,8 -13,7 -8,-2 -7,-11 -7,-11 0,0 -4,7 -10,5 -6,-3 -6,-10 -6,-10 -11,5 -14,-5 -14,-5 0,0 -10,4 -12,-5 -2,-9 11,-36 11,-36 10,-25 25,-52 40,-70 3,-8 8,-17 12,-27 10,7 21,14 32,21 6,4 13,9 19,13 -9,13 -17,23 -22,29 0,7 1,15 0,21 -2,13 7,36 1,50z"/>
    <path class="fil5" d="M1838 680l135 -55c0,0 56,-97 22,-161 0,0 -139,64 -211,104 0,0 -107,58 -142,97l-111 188c0,0 33,38 56,36 41,-56 99,-136 110,-163l140 -46z"/>
    <path class="fil13" d="M1537 840c-7,5 -14,13 -15,23l61 40c7,-6 12,-13 16,-22l-63 -41z"/>
    <path class="fil5" d="M2175 1063c-8,42 0,94 0,94 -55,-22 -138,-63 -216,-29 -64,28 -126,12 -126,12 0,0 -6,-72 12,-145 18,-73 37,-164 43,-200 5,-30 11,-59 16,-86 3,-17 6,-33 9,-48l0 0c18,-87 26,-161 39,-172 39,-32 128,-64 128,-64l60 17c0,0 64,50 64,86 -6,319 -14,321 -20,418 -2,29 -1,73 -9,117z"/>
    <path class="fil3" d="M1899 1006c-1,0 -2,0 -2,0 -2,0 -4,-2 -4,-4 0,-2 2,-4 4,-4l1 0c9,1 85,5 139,-15 69,-26 110,-79 110,-80 1,-2 4,-2 6,-1 2,1 2,4 1,6 -2,2 -43,56 -114,82 -55,20 -128,16 -141,15z"/>
    <path class="fil3" d="M2087 1010c0,-3 -3,-5 -6,-4 -33,18 -93,44 -159,34 -2,0 -4,1 -5,3 0,2 1,4 3,5 8,1 16,2 25,2 58,2 109,-21 139,-37 1,-1 2,-2 2,-4z"/>
    <path class="fil3" d="M2021 612c0,0 -44,49 -116,85 3,-17 7,-34 10,-49l7 -2 99 -34z"/>
    <polygon class="fil14" points="2169,902 2133,1010 2087,907 2120,554 2121,540 2138,538 2139,557 "/>
    <polygon class="fil15" points="2139,557 2131,567 2120,554 2121,540 2138,538 "/>
    <polygon class="fil14" points="2151,513 2131,556 2100,510 2131,473 "/>
    <path class="fil3" d="M2057 477c-3,-12 -4,-25 -1,-38 1,-3 2,-7 3,-9 8,-12 25,-7 25,-7 8,36 47,49 47,49l-37 60c0,0 -25,-8 -37,-55z"/>
    <path class="fil3" d="M2154 440c0,0 23,22 16,48l-11 44 -29 -60c0,0 16,-16 23,-33z"/>
    <path class="fil8" d="M2171 396l-12 38 -8 24c-1,4 -8,15 -12,15 -28,-1 -47,-18 -57,-32l8 -59c0,0 15,-3 34,-3l0 0 48 18z"/>
    <path class="fil12" d="M2171 396l-12 38c-29,-17 -39,-47 -41,-56 2,0 3,0 5,0l48 18z"/>
    <path class="fil8" d="M2232 257c3,20 6,45 6,65l0 0 0 0c0,5 0,10 -1,14 0,2 0,5 -1,8 -1,5 -1,10 -1,16l0 1c-1,8 -1,17 -3,26l0 0c-1,4 -2,7 -3,11 -1,2 -1,4 -2,6 -10,25 -18,45 -82,3 -29,-20 -62,-13 -76,-49l0 -1 0 0c-9,-24 -15,-50 -18,-68 -3,-19 4,-38 18,-50 39,-33 87,-33 120,-27 23,4 40,22 43,45z"/>
    <path class="fil12" d="M2229 397c-1,2 -1,4 -2,6 -1,0 -2,0 -3,0 -7,-1 -13,-5 -13,-5 -1,-1 -2,-3 -1,-4 1,-1 3,-2 4,-1 0,0 5,3 10,4 2,0 3,0 5,0z"/>
    <path class="fil12" d="M2116 344c0,0 12,-3 18,-14 0,0 -2,29 -25,29l7 -15z"/>
    <path class="fil16" d="M2243 217c19,-20 19,-54 -10,-58 -49,-8 -76,-17 -106,-18 -29,-1 -44,32 -75,41 -30,8 -50,61 -40,91 1,5 3,9 4,13 13,39 33,75 58,108 1,1 2,2 3,4 2,2 17,6 31,-18 13,-21 12,-36 12,-36 -29,-4 -51,-40 -38,-59 0,0 6,-7 13,-7 17,-2 31,9 35,19 4,11 6,19 6,19l17 1c0,0 -8,-28 -9,-38 0,-10 15,-6 12,-25 -3,-19 -19,-21 -12,-29 7,-7 55,-1 69,6 14,8 28,-14 28,-14z"/>
    <path class="fil12" d="M2122 317c-1,0 -2,0 -3,-1 -7,-15 -25,-18 -25,-18 -1,0 -2,-1 -2,-3 0,-1 1,-2 3,-2 1,0 20,4 28,21 1,1 0,3 -1,3l-1 0z"/>
    <path class="fil12" d="M2104 313l-1 0c-1,-1 -2,-2 -1,-3 0,0 2,-5 8,-9 1,-1 3,0 3,1 1,1 0,3 -1,3 -4,3 -6,7 -6,7l-2 1z"/>
    <path class="fil16" d="M2220 291c1,5 -1,10 -4,11 -3,1 -7,-3 -8,-9 -1,-5 1,-10 4,-11 3,-1 7,3 8,9z"/>
    <path class="fil16" d="M2179 268c0,0 24,-15 45,-10l0 11c0,0 -30,3 -43,12 -2,-4 -3,-8 -2,-13z"/>
    <path class="fil8" d="M2234 288c0,0 18,31 19,46 1,8 -22,14 -22,14l3 -60z"/>
    <path class="fil14" d="M2234 360l0 1c-1,8 -1,17 -3,26l-2 0c-21,1 -27,-16 -30,-25l35 -1z"/>
    <path class="fil5" d="M2685 821c-15,0 -27,12 -27,27 0,15 12,27 27,27 15,0 27,-12 27,-27 0,-15 -12,-27 -27,-27zm0 67c-22,0 -40,-18 -40,-40 0,-22 18,-40 40,-40 22,0 40,18 40,40 0,22 -18,40 -40,40z"/>
    <path class="fil6" d="M2828 960c-15,0 -27,12 -27,27 0,15 12,27 27,27 15,0 27,-12 27,-27 0,-15 -12,-27 -27,-27zm0 67c-22,0 -40,-18 -40,-40 0,-22 18,-40 40,-40 22,0 40,18 40,40 0,22 -18,40 -40,40z"/>
    <path class="fil5" d="M2877 1156c-3,0 -6,-3 -6,-6l0 -28c0,-3 3,-6 6,-6 3,0 6,3 6,6l0 28c0,3 -3,6 -6,6z"/>
    <path class="fil5" d="M2877 1205c-3,0 -6,-3 -6,-6l0 -28c0,-3 3,-6 6,-6 3,0 6,3 6,6l0 28c0,3 -3,6 -6,6z"/>
    <path class="fil5" d="M2916 1167l-25 0c-3,0 -6,-3 -6,-6 0,-3 3,-6 6,-6l25 0c3,0 6,3 6,6 0,3 -3,6 -6,6z"/>
    <path class="fil5" d="M2863 1167l-25 0c-3,0 -6,-3 -6,-6 0,-3 3,-6 6,-6l25 0c3,0 6,3 6,6 0,3 -3,6 -6,6z"/>
    <path class="fil6" d="M2658 1002c-3,0 -6,-3 -6,-6l0 -28c0,-3 3,-6 6,-6 3,0 6,3 6,6l0 28c0,3 -3,6 -6,6z"/>
    <path class="fil6" d="M2658 1050c-3,0 -6,-3 -6,-6l0 -28c0,-3 3,-6 6,-6 3,0 6,3 6,6l0 28c0,3 -3,6 -6,6z"/>
    <path class="fil6" d="M2696 1013l-25 0c-3,0 -6,-3 -6,-6 0,-3 3,-6 6,-6l25 0c3,0 6,3 6,6 0,3 -3,6 -6,6z"/>
    <path class="fil6" d="M2644 1013l-25 0c-3,0 -6,-3 -6,-6 0,-3 3,-6 6,-6l25 0c3,0 6,3 6,6 0,3 -3,6 -6,6z"/>
    <path class="fil5" d="M1214 311c15,0 27,-12 27,-27 0,-15 -12,-27 -27,-27 -15,0 -27,12 -27,27 0,15 12,27 27,27zm0 12c-22,0 -40,-18 -40,-40 0,-22 18,-40 40,-40 22,0 40,18 40,40 0,22 -18,40 -40,40z"/>
    <path class="fil6" d="M1359 442c15,0 27,-12 27,-27 0,-15 -12,-27 -27,-27 -15,0 -27,12 -27,27 0,15 12,27 27,27zm0 12c-22,0 -40,-18 -40,-40 0,-22 18,-40 40,-40 22,0 40,18 40,40 0,22 -18,40 -40,40z"/>
    <path class="fil5" d="M1412 228c0,-3 -3,-6 -6,-6l-28 0c-3,0 -6,3 -6,6 0,3 3,6 6,6l28 0c3,0 6,-3 6,-6z"/>
    <path class="fil5" d="M1460 228c0,-3 -3,-6 -6,-6l-27 0c-3,0 -6,3 -6,6 0,3 3,6 6,6l27 0c3,0 6,-3 6,-6z"/>
    <path class="fil5" d="M1422 266l0 -25c0,-3 -3,-6 -6,-6 -3,0 -6,3 -6,6l0 25c0,3 3,6 6,6 3,0 6,-3 6,-6z"/>
    <path class="fil5" d="M1422 214l0 -25c0,-3 -3,-6 -6,-6 -3,0 -6,3 -6,6l0 25c0,3 3,6 6,6 3,0 6,-3 6,-6z"/>
    <path class="fil6" d="M1120 442c0,-3 -3,-6 -6,-6l-28 0c-3,0 -6,3 -6,6 0,3 3,6 6,6l28 0c3,0 6,-3 6,-6z"/>
    <path class="fil6" d="M1168 442c0,-3 -3,-6 -6,-6l-28 0c-3,0 -6,3 -6,6 0,3 3,6 6,6l28 0c3,0 6,-3 6,-6z"/>
    <path class="fil6" d="M1131 481l0 -25c0,-3 -3,-6 -6,-6 -3,0 -6,3 -6,6l0 25c0,3 3,6 6,6 3,0 6,-3 6,-6z"/>
    <path class="fil6" d="M1131 428l0 -25c0,-3 -3,-6 -6,-6 -3,0 -6,3 -6,6l0 25c0,3 3,6 6,6 3,0 6,-3 6,-6z"/>
    <path class="fil6" d="M2829 290l-81 0c-40,0 -73,-33 -73,-73l0 -81c0,-40 33,-73 73,-73l81 0c40,0 73,33 73,73l0 81c0,40 -33,73 -73,73z"/>
    <path class="fil14" d="M2838 203c0,-11 -4,-14 -7,-14 -4,0 -7,3 -7,14 0,11 4,14 7,14 4,0 7,-3 7,-14zm-38 0c0,-20 13,-32 31,-32 17,0 31,12 31,32 0,21 -13,32 -31,32 -17,0 -31,-12 -31,-32zm-47 -54c0,-11 -4,-14 -7,-14 -4,0 -7,3 -7,14 0,11 4,14 7,14 4,0 7,-3 7,-14zm60 -30l28 0 -79 115 -28 0 79 -115zm-98 30c0,-20 13,-32 31,-32 17,0 31,12 31,32 0,21 -13,32 -31,32 -17,0 -31,-12 -31,-32z"/>
    <path class="fil6" d="M890 1183l-81 0c-40,0 -73,-33 -73,-73l0 -81c0,-40 33,-73 73,-73l81 0c40,0 73,33 73,73l0 81c0,40 -33,73 -73,73z"/>
    <path class="fil14" d="M863 1126l0 18 -22 0 0 -17c-16,-1 -31,-5 -41,-11l12 -27c10,6 24,10 36,10 11,0 14,-2 14,-6 0,-14 -61,-3 -61,-44 0,-18 13,-33 39,-36l0 -17 22 0 0 17c12,1 23,4 32,9l-11 27c-11,-6 -21,-8 -31,-8 -11,0 -14,3 -14,7 0,13 61,2 61,43 0,17 -12,32 -37,36z"/>
   </g>
  </g>
 </g>
</svg>
