<?xml version="1.0" encoding="UTF-8"?>
<!DOCTYPE svg PUBLIC "-//W3C//DTD SVG 1.1//EN" "http://www.w3.org/Graphics/SVG/1.1/DTD/svg11.dtd">
<!-- Creator: CorelDRAW X6 -->
<svg xmlns="http://www.w3.org/2000/svg" xml:space="preserve" width="86.9526mm" height="60.8835mm" version="1.1" style="shape-rendering:geometricPrecision; text-rendering:geometricPrecision; image-rendering:optimizeQuality; fill-rule:evenodd; clip-rule:evenodd"
viewBox="0 0 4033 2824"
 xmlns:xlink="http://www.w3.org/1999/xlink">
 <defs>
  <style type="text/css">
   <![CDATA[
    .fil5 {fill:none}
    .fil0 {fill:#3F6FA4}
    .fil2 {fill:#89BBE1}
    .fil3 {fill:#8BC3B6}
    .fil4 {fill:#D16E52}
    .fil1 {fill:#DAAA49}
   ]]>
  </style>
 </defs>
 <g id="Layer_x0020_1">
  <metadata id="CorelCorpID_0Corel-Layer"/>
  <path class="fil0" d="M322 500c20,-17 33,-43 33,-71 0,-51 -41,-93 -92,-93 -51,0 -92,42 -92,93 0,51 41,93 92,93 2,0 5,0 7,0l-13 -30 61 0 4 9zm94 -71c0,54 -27,101 -69,129l25 57 -61 0 -16 -35c-10,2 -22,4 -33,4 -84,0 -153,-69 -153,-155 0,-85 69,-155 153,-155 84,0 153,69 153,155z"/>
  <path class="fil0" d="M572 583c-65,0 -117,-53 -117,-118l0 -192 61 0 0 192c0,31 25,56 56,56 31,0 56,-25 56,-56l0 -192 61 0 0 192c0,65 -52,118 -117,118z"/>
  <path class="fil0" d="M849 365l-25 70 50 0 -25 -70zm78 219l-31 -87 -94 0 -31 87 -65 0 111 -310 65 0 111 310 -65 0z"/>
  <polygon class="fil0" points="1023,273 1084,273 1084,521 1195,521 1195,583 1023,583 "/>
  <polygon class="fil0" points="1233,273 1294,273 1294,583 1233,583 "/>
  <polygon class="fil0" points="1480,336 1480,583 1418,583 1418,336 1332,336 1332,273 1566,273 1566,336 "/>
  <polygon class="fil0" points="1684,436 1604,273 1672,273 1714,359 1756,273 1825,273 1745,436 1745,583 1684,583 "/>
  <path class="fil0" d="M2252 316l-43 44c-16,-16 -38,-25 -62,-25 -51,0 -92,42 -92,93 0,51 41,93 92,93 24,0 46,-9 62,-25l43 44c-27,27 -65,43 -105,43 -84,0 -153,-69 -153,-155 0,-85 69,-155 153,-155 41,0 78,16 105,43z"/>
  <path class="fil0" d="M2331 428c0,51 41,93 92,93 50,0 92,-42 92,-93 0,-51 -41,-93 -92,-93 -51,0 -92,42 -92,93zm245 0c0,85 -69,155 -153,155 -84,0 -153,-69 -153,-155 0,-85 69,-155 153,-155 84,0 153,69 153,155z"/>
  <polygon class="fil0" points="2808,273 2869,273 2869,583 2798,583 2675,377 2675,583 2614,583 2614,273 2686,273 2808,480 "/>
  <polygon class="fil0" points="3054,336 3054,583 2993,583 2993,336 2907,336 2907,273 3140,273 3140,336 "/>
  <path class="fil0" d="M3270 397c17,0 31,-14 31,-31 0,-17 -14,-31 -31,-31l-31 0 0 62 31 0zm-92 -124l92 0c51,0 92,42 92,93 0,35 -19,66 -48,82l60 135 -67 0 -55 -124 -12 0 0 124 -61 0 0 -310z"/>
  <path class="fil0" d="M3447 428c0,51 41,93 92,93 50,0 92,-42 92,-93 0,-51 -41,-93 -92,-93 -51,0 -92,42 -92,93zm245 0c0,85 -69,155 -153,155 -84,0 -153,-69 -153,-155 0,-85 69,-155 153,-155 84,0 153,69 153,155z"/>
  <polygon class="fil0" points="3730,273 3791,273 3791,521 3902,521 3902,583 3730,583 "/>
  <path class="fil0" d="M521 1227l0 0zm24 -23l-70 -77c-2,-2 -5,-2 -7,0l-2 2c0,1 -1,1 -1,2 -3,3 -5,5 -8,7 -2,2 -5,4 -8,6 -1,0 -1,1 -2,1l-2 1c-2,2 -3,5 -1,7l70 77c1,1 4,2 6,2 1,0 1,0 2,0 5,-1 10,-3 14,-7l1 -1c8,-7 11,-17 7,-22z"/>
  <path class="fil0" d="M441 1043c-1,19 -9,37 -24,51 -11,10 -25,17 -40,18 -23,3 -47,-6 -63,-23 -27,-30 -25,-76 5,-103 11,-10 25,-17 40,-18 3,0 6,-1 9,-1 21,0 40,9 54,24 13,14 20,33 19,53zm22 68c34,-46 31,-110 -7,-152 -23,-25 -55,-39 -89,-39 -5,0 -9,0 -14,1 -25,3 -48,13 -66,30 -24,21 -38,51 -39,83 -2,32 9,62 31,86 23,25 55,39 89,39 5,0 9,0 14,-1 18,-2 34,-8 49,-17 6,-4 12,-8 17,-13 6,-5 11,-11 15,-17z"/>
  <path class="fil0" d="M807 2302c1,1 1,1 2,1 0,0 1,0 1,0 1,0 2,-1 2,-2l0 -105c0,-1 -1,-3 -3,-3 -28,0 -55,11 -75,30 -1,1 -1,3 0,4l73 76z"/>
  <path class="fil0" d="M724 2374c-9,-14 -14,-30 -14,-47 0,-22 9,-43 24,-59l57 59 -66 47zm83 -45c0,-1 0,-2 -1,-2l-73 -76c0,0 -1,-1 -2,-1 -1,0 -1,0 -2,1 -21,21 -33,48 -33,78 0,23 7,44 20,62 1,1 1,1 2,1 1,0 1,0 2,0l86 -61c1,0 1,-1 1,-2z"/>
  <path class="fil0" d="M938 2333c0,-5 0,-9 -1,-14 0,-2 -1,-4 -1,-5 -1,-4 -2,-7 -3,-11 0,-2 -1,-3 -1,-5 -1,-3 -2,-7 -4,-10 -1,-1 -1,-3 -2,-4 -2,-3 -3,-6 -5,-9 -1,-1 -2,-2 -2,-4 -2,-3 -4,-6 -7,-9 -1,-1 -2,-2 -3,-3 -2,-2 -4,-5 -7,-7 -1,-1 -2,-2 -3,-3 -2,-2 -5,-4 -8,-6 -1,-1 -2,-2 -4,-2 -3,-2 -6,-4 -9,-5 -1,-1 -3,-1 -4,-2 -3,-2 -7,-3 -11,-5 -1,-1 -3,-1 -5,-2 -4,-1 -7,-2 -11,-3 -2,0 -3,-1 -5,-1 -4,-1 -8,-1 -12,-1 -1,0 -3,0 -4,0 -3,0 -5,2 -5,5l0 103 -84 60c-1,1 -2,2 -2,3 0,1 0,2 1,4l0 1c2,2 4,5 6,8 1,1 2,2 3,3 2,2 4,5 7,7 1,1 2,2 3,3 3,3 6,5 9,7 1,1 2,1 3,2l0 0c3,2 6,3 9,5 1,1 3,1 4,2 3,1 6,3 10,4 2,1 3,1 5,1 4,1 7,2 11,3 2,0 4,1 5,1 5,1 10,1 14,1 0,0 0,0 0,0 2,0 4,0 6,0 5,0 10,-1 16,-2 3,-1 5,-1 8,-2 8,-2 16,-5 23,-9 7,-4 14,-9 20,-14 3,-3 7,-6 10,-10 6,-6 10,-13 14,-20 4,-7 7,-15 9,-23 1,-3 1,-5 2,-8 1,-5 2,-10 2,-16 0,-2 0,-4 0,-6 0,0 0,0 0,0z"/>
  <path class="fil0" d="M1893 1423c-3,4 -7,7 -12,7 -5,0 -10,-2 -13,-6 -48,-55 -106,-88 -173,-97 -7,-1 -15,-2 -22,-2 -2,0 -4,1 -4,3 -1,2 0,4 1,5 47,46 136,144 194,288 1,2 2,3 4,3 0,0 0,0 0,0 1,0 3,-1 4,-2 100,-150 234,-339 383,-468 2,-1 2,-4 1,-6 -1,-2 -3,-3 -6,-2 -226,96 -344,259 -356,277z"/>
  <path class="fil0" d="M2262 2029l0 0 0 0 0 0zm72 -67l-189 -263c-1,-1 -2,-2 -3,-2 -1,0 -3,0 -3,1 -1,1 -2,2 -3,3 -1,1 -2,2 -4,3l-2 2c-2,2 -3,3 -5,4 -9,8 -18,15 -26,21 -8,5 -16,11 -26,17 -2,1 -4,2 -6,3l-2 1c-1,1 -3,1 -4,2 -1,1 -2,1 -3,2 -1,1 -2,2 -2,3 0,1 0,3 1,4l189 263c3,4 7,6 14,7 1,0 3,0 5,0 0,0 0,0 0,0 13,0 28,-6 41,-15l2 -1c26,-19 36,-45 28,-56z"/>
  <path class="fil0" d="M2142 1661c54,-57 87,-128 97,-206 9,-77 -6,-154 -44,-221 -1,-1 -2,-2 -3,-2 -1,0 -3,0 -4,1 -20,19 -40,40 -60,63 -1,1 -1,3 -1,5 22,49 29,102 20,156 -12,71 -51,133 -109,175 -46,33 -100,50 -156,50l-1 0c-10,0 -21,-1 -31,-2 -76,-9 -144,-49 -188,-111 -86,-121 -58,-289 62,-376 46,-33 100,-50 156,-50l1 0c10,0 21,1 31,2 62,7 120,36 163,81 1,2 4,2 6,1 23,-15 48,-29 73,-41 1,-1 2,-2 2,-3 0,-1 0,-3 -1,-4 -60,-70 -143,-114 -234,-125 -14,-2 -28,-2 -42,-2l-1 0c-75,0 -148,24 -209,68 -79,56 -131,140 -146,235 -16,95 6,191 63,270 59,83 151,137 253,149 14,2 28,2 42,2l1 0c53,0 105,-12 153,-34 20,-9 39,-20 56,-33 18,-13 36,-28 52,-45z"/>
  <path class="fil1" d="M3205 1881c-145,0 -263,118 -263,263 0,145 118,263 263,263 145,0 263,-118 263,-263 0,-145 -118,-263 -263,-263zm0 589c-180,0 -327,-147 -327,-327 0,-180 147,-327 327,-327 180,0 327,147 327,327 0,180 -147,327 -327,327z"/>
  <path class="fil2" d="M3667 745c-108,0 -196,88 -196,196 0,108 88,196 196,196 108,0 196,-88 196,-196 0,-108 -88,-196 -196,-196zm0 456c-143,0 -260,-117 -260,-260 0,-143 117,-260 260,-260 143,0 260,117 260,260 0,143 -117,260 -260,260z"/>
  <path class="fil3" d="M406 849c-130,0 -236,106 -236,236 0,130 106,236 236,236 130,0 236,-106 236,-236 0,-130 -106,-236 -236,-236zm0 537c-166,0 -300,-135 -300,-300 0,-166 135,-300 300,-300 166,0 300,135 300,300 0,166 -135,300 -300,300z"/>
  <path class="fil4" d="M821 2171c-87,0 -157,71 -157,157 0,87 71,157 157,157 87,0 157,-71 157,-157 0,-87 -71,-157 -157,-157zm0 379c-122,0 -221,-99 -221,-221 0,-122 99,-221 221,-221 122,0 221,99 221,221 0,122 -99,221 -221,221z"/>
  <path class="fil1" d="M1084 1771c-25,0 -45,20 -45,45 0,25 20,45 45,45 25,0 45,-20 45,-45 0,-25 -20,-45 -45,-45zm0 154c-60,0 -109,-49 -109,-109 0,-60 49,-109 109,-109 60,0 109,49 109,109 0,60 -49,109 -109,109z"/>
  <path class="fil2" d="M291 1591c0,34 -27,61 -61,61 -34,0 -61,-27 -61,-61 0,-34 27,-61 61,-61 34,0 61,27 61,61z"/>
  <path class="fil4" d="M1975 2329c0,34 -27,61 -61,61 -34,0 -61,-27 -61,-61 0,-34 27,-61 61,-61 34,0 61,27 61,61z"/>
  <path class="fil1" d="M3529 1541c0,34 -27,61 -61,61 -34,0 -61,-27 -61,-61 0,-34 27,-61 61,-61 34,0 61,27 61,61z"/>
  <path class="fil3" d="M915 1933c0,34 -27,61 -61,61 -34,0 -61,-27 -61,-61 0,-34 27,-61 61,-61 34,0 61,27 61,61z"/>
  <path class="fil3" d="M2321 2361c-25,0 -45,20 -45,45 0,25 20,45 45,45 25,0 45,-20 45,-45 0,-25 -20,-45 -45,-45zm0 154c-60,0 -109,-49 -109,-109 0,-60 49,-109 109,-109 60,0 109,49 109,109 0,60 -49,109 -109,109z"/>
  <polygon class="fil1" points="2939,2015 2564,1795 2596,1740 2972,1960 "/>
  <polygon class="fil2" points="2583,1352 2562,1292 3429,1005 3449,1066 "/>
  <polygon class="fil3" points="1347,1388 658,1181 676,1120 1366,1327 "/>
  <polygon class="fil1" points="1157,1808 1143,1746 1350,1701 1363,1764 "/>
  <polygon class="fil4" points="1002,2264 971,2208 1470,1933 1501,1989 "/>
  <polygon class="fil3" points="2263,2342 2178,2157 2236,2131 2321,2315 "/>
  <path class="fil0" d="M3671 1000c0,0 0,0 0,0l-1 0c-33,-1 -59,-28 -59,-60 0,-33 27,-60 59,-60 0,0 1,0 1,0l0 0c33,0 60,27 60,60 0,33 -27,60 -61,60zm145 -93c0,-4 -3,-8 -7,-9l-31 -7 17 -27c2,-4 2,-8 -1,-11l-41 -41c-3,-3 -8,-3 -11,-1l-27 17 -7 -31c-1,-4 -4,-7 -9,-7l-57 0c-4,0 -8,3 -9,7l-7 31 -27 -17c-3,-2 -8,-2 -11,1l-41 41c-3,3 -3,7 -1,11l17 27 -31 7c-4,1 -7,4 -7,9l0 58c0,4 3,8 7,9l31 7 -17 27c-2,4 -2,8 1,11l41 41c3,3 8,3 11,1l27 -17 7 31c1,4 5,7 9,7l0 0 57 0c4,0 8,-3 9,-7l7 -31 27 17c3,2 8,2 11,-1l41 -41c3,-3 3,-7 1,-11l-17 -27 31 -7c4,-1 7,-4 7,-9l0 -58z"/>
  <path class="fil4" d="M2575 1432l72 -5c-30,-180 -132,-336 -274,-438l-38 61c123,91 211,226 239,382z"/>
  <path class="fil3" d="M1975 932c135,0 259,44 360,118l38 -61c-112,-81 -250,-129 -398,-129 -146,0 -282,46 -393,125l46 55c99,-68 218,-109 347,-109z"/>
  <path class="fil1" d="M1628 1040l-46 -55c-73,51 -135,117 -182,192l62 36c44,-68 100,-127 166,-173z"/>
  <path class="fil2" d="M2647 1427l-72 5c6,35 10,72 10,109 0,336 -273,610 -610,610 -336,0 -610,-273 -610,-610 0,-121 35,-233 96,-328l-62 -36c-67,105 -106,230 -106,364 0,376 306,682 682,682 376,0 682,-306 682,-682 0,-39 -3,-77 -10,-114z"/>
  <path class="fil0" d="M3114 2034l-61 0c-11,0 -19,9 -19,19l0 190c0,11 9,19 19,19l61 0c11,0 19,-9 19,-19l0 -190c0,-11 -9,-19 -19,-19l0 0z"/>
  <path class="fil0" d="M3231 2112l-61 0c-11,0 -19,9 -19,19l0 112c0,11 9,19 19,19l61 0c11,0 19,-9 19,-19l0 -112c0,-11 -9,-19 -19,-19l0 0z"/>
  <path class="fil0" d="M3348 1956l-61 0c-11,0 -19,9 -19,19l0 268c0,11 9,19 19,19l61 0c11,0 19,-9 19,-19l0 -268c0,-11 -9,-19 -19,-19l0 0z"/>
  <path class="fil0" d="M3389 2288l0 0c0,-5 -4,-9 -9,-9l-358 0c-5,0 -9,4 -9,9l0 0c0,5 4,9 9,9l358 0c5,0 9,-4 9,-9z"/>
  <rect class="fil5" width="4033" height="2824"/>
 </g>
</svg>
